<svg id="Layer_1" data-name="Layer 1" xmlns="http://www.w3.org/2000/svg" xmlns:xlink="http://www.w3.org/1999/xlink" viewBox="0 0 178.58 249.45"><defs><style>.cls-1{fill:none;}.cls-2{clip-path:url(#clip-path);}.cls-3{fill:#fff;}.cls-4{opacity:0.02;}.cls-5{fill:#090400;}.cls-6{fill:#e52722;}.cls-7{fill:#fbfbfb;}</style><clipPath id="clip-path"><rect class="cls-1" x="-5.67" y="-5.67" width="189.92" height="260.79"/></clipPath></defs><g class="cls-2"><rect class="cls-3" x="-5.67" y="-5.67" width="189.92" height="260.79"/><g class="cls-4"><path class="cls-5" d="M173.41,92.29V58.62l-1-1-6.08-6.09v-53h-1v52l-6.09-6.09V-1.49h-1V44.78l1,1.06,6.09,6.08V83.1q-2.94-3-6.09-5.73l-1-.84A106.72,106.72,0,0,0,126.64,58V-1.49h-1V57.59c-2.46-.89-5-1.7-7.5-2.41v-59h-1V54.91a9.65,9.65,0,0,0-.43.92l-6.79,7.53a97,97,0,0,0-41.26,0l-6.78-7.53s-.43-.93-.44-.92V-3.83h-1v59c-2.54.71-5,1.52-7.5,2.41V-1.49h-1V58a107.06,107.06,0,0,0-31.6,18.57l-1,.85q-3.15,2.73-6.09,5.72V51.92l6.09-6.08,1-1.05V-1.49h-1V44.42l-6.09,6.09v-52h-1v53L6.17,57.6l-1,.9V92.29a106.57,106.57,0,0,0,0,131.45V257.4l1,1,6.08,6.08v53h1v-52l6.09,6.09v45.92h1v-46.3l-1-1-6.09-6.08V232.93q2.94,3,6.09,5.73l1,.85a107,107,0,0,0,31.6,18.56v59.46h1V258.44c2.46.89,5,1.7,7.5,2.41v58.47h1v-58.2l.44-.91,6.78-7.54a97,97,0,0,0,41.26,0l6.79,7.54.43.92v58.19h1V260.85q3.81-1.07,7.5-2.41v59.09h1V258.07a106.9,106.9,0,0,0,31.6-18.56l1-.85q3.15-2.74,6.09-5.73v31.18l-6.09,6.08-1,1.08v46.26h1V271.61l6.09-6.09v52h1v-53l6.08-6.08,1-1V223.74a106.57,106.57,0,0,0,0-131.45ZM5.17,181.65a87.57,87.57,0,0,1,0-47.27Zm0-50.72a88.43,88.43,0,0,0,0,54.17V204a95.69,95.69,0,0,1,0-91.92Zm0-20.92a96.68,96.68,0,0,0,0,96V222.1a105.56,105.56,0,0,1,0-128.17Zm7.08,153.1L6.17,257V225q2.89,3.58,6.08,6.92Zm0-32.66c-2.12-2.26-4.16-4.61-6.08-7V207.72a98,98,0,0,0,6.08,9Zm0-15.42a98.57,98.57,0,0,1-6.08-9.27V188a88.83,88.83,0,0,0,6.08,13.25Zm0-15.82a86.7,86.7,0,0,1-6.08-14.27V131.09a87,87,0,0,1,6.08-14.26Zm0-84.46A89.29,89.29,0,0,0,6.17,128V110.27A98.57,98.57,0,0,1,12.25,101Zm0-15.4a96.54,96.54,0,0,0-6.08,9V92.63c1.92-2.44,4-4.79,6.08-7Zm0-15.23Q9.07,87.45,6.17,91V59l6.08-6.09Zm77-22a96.26,96.26,0,0,1,19.86,2.07l-5.88,6.54s-.32,1-.31,1V89.15a69.89,69.89,0,0,0-27.34,0V71.71s-.3-1-.3-1l-5.89-6.54A96.26,96.26,0,0,1,89.29,62.14Zm0,164.55a69,69,0,0,1-68.95-68.86c0-.16,0-.32,0-.49,0-.74,0-1.48.06-2.21a69,69,0,0,1,31.53-55l1-.65a67.58,67.58,0,0,1,7.5-4l1-.46A70.35,70.35,0,0,1,69,92.12l1-.28c1.52-.45,3.07-.84,4.64-1.19l1-.22a69.38,69.38,0,0,1,27.34,0l1,.22c1.58.35,3.13.75,4.67,1.2l1,.28A69.8,69.8,0,0,1,117.14,95l1,.45a69.36,69.36,0,0,1,7.5,4l1,.65a69,69,0,0,1,31.54,55.08c0,.66,0,1.32,0,2,0,.24,0,.47,0,.7A69,69,0,0,1,89.29,226.69Zm19.34-1.46v18c-1.54.35-3.1.66-4.67.92V226.4C105.54,226.07,107.09,225.67,108.63,225.23Zm-34,1.17v17.75c-1.56-.26-3.11-.57-4.64-.91v-18C71.51,225.67,73.05,226.07,74.62,226.4ZM70,90.53V72.8c1.53-.35,3.08-.65,4.64-.92V89.36C73.05,89.69,71.51,90.09,70,90.53Zm38.65,0c-1.54-.44-3.09-.84-4.67-1.17V71.88c1.57.27,3.13.57,4.67.92Zm-95.38-6q2.94-3,6.09-5.82l1-.87A105.92,105.92,0,0,1,51.94,59l1-.38c2.46-.9,5-1.72,7.5-2.44l1,.63,6.09,6.76q-3.07.72-6.09,1.62l-1,.3c-2.54.8-5,1.7-7.5,2.7l-1,.41A97.26,97.26,0,0,0,20.34,90l-1,1q-3.21,3.34-6.09,7Zm0,15.15q2.88-3.72,6.09-7.16l1-1a96.33,96.33,0,0,1,31.6-21.76l1-.41c2.45-1,5-1.92,7.5-2.72l1-.31C63.7,65.58,66,65,68.3,64.46L74.14,71a86.75,86.75,0,0,0-12.7,3.19l-1,.34c-2.55.89-5.06,1.88-7.5,3l-1,.47a89,89,0,0,0-31.6,24.86l-1,1.27a88.75,88.75,0,0,0-6.09,9Zm0,15.34a88.65,88.65,0,0,1,6.09-9.31l1-1.3A87.94,87.94,0,0,1,51.94,79l1-.47c2.44-1.12,5-2.13,7.5-3l1-.35Q65.15,73.94,69,73V90.81a70.08,70.08,0,0,0-49.64,66.93c0,.07,0,.14,0,.21v.19a69.44,69.44,0,0,0,.95,11.06l0,.53a70,70,0,0,0,31.6,47.38l1,.65a69.56,69.56,0,0,0,7.5,4l1,.46A72.22,72.22,0,0,0,69,225V243q-3.84-.92-7.54-2.16l-1-.35c-2.55-.9-5.06-1.91-7.5-3l-1-.47a87.83,87.83,0,0,1-31.6-25.37l-1-1.3a88.52,88.52,0,0,1-6.09-9.3ZM61.44,259.19l-1,.63c-2.54-.72-5-1.54-7.5-2.44l-1-.38a106.1,106.1,0,0,1-31.6-18.8l-1-.88q-3.15-2.79-6.09-5.82V218q2.88,3.65,6.09,7l1,1a97.26,97.26,0,0,0,31.6,21.4l1,.41c2.45,1,5,1.9,7.5,2.7l1,.3c2,.6,4,1.15,6.09,1.62Zm6.86-7.62c-2.32-.52-4.6-1.12-6.86-1.81l-1-.3c-2.54-.81-5-1.72-7.5-2.73l-1-.41a96.3,96.3,0,0,1-31.6-21.75l-1-1.06q-3.21-3.42-6.09-7.16V203a88.75,88.75,0,0,0,6.09,9l1,1.27a89,89,0,0,0,31.6,24.87l1,.46c2.44,1.11,5,2.11,7.5,3l1,.34a88.06,88.06,0,0,0,12.7,3.2Zm21,2.32a95.58,95.58,0,0,1-19.86-2.07l5.88-6.54s.32-1,.31-1V226.61a69.38,69.38,0,0,0,27.34,0v17.71s.3,1,.31,1l5.88,6.54A95.58,95.58,0,0,1,89.29,253.89Zm76-22.39c-2,2-4,4-6.09,5.82l-1,.88a105.89,105.89,0,0,1-31.6,18.8l-1,.38c-2.46.9-5,1.72-7.5,2.44l-1-.63-6.09-6.76c2.06-.47,4.08-1,6.09-1.62l1-.3q3.83-1.2,7.5-2.7l1-.41a97.26,97.26,0,0,0,31.6-21.4l1-1q3.21-3.34,6.09-7Zm0-15.15q-2.88,3.74-6.09,7.16l-1,1.06a96.2,96.2,0,0,1-31.6,21.75l-1,.41q-3.67,1.52-7.5,2.73l-1,.31c-2.26.68-4.54,1.28-6.86,1.8l-5.84-6.48a88.06,88.06,0,0,0,12.7-3.2l1-.34c2.55-.88,5.06-1.88,7.5-3l1-.46a89,89,0,0,0,31.6-24.87l1-1.27a89.75,89.75,0,0,0,6.09-9Zm0-15.33a88.52,88.52,0,0,1-6.09,9.3l-1,1.3A87.83,87.83,0,0,1,126.64,237l-1,.47c-2.44,1.12-5,2.13-7.5,3l-1,.35c-2.46.83-5,1.55-7.51,2.16V224.94a69.47,69.47,0,0,0,7.51-2.77l1-.46a69.56,69.56,0,0,0,7.5-4l1-.65a70,70,0,0,0,31.6-47.38l0-.51a70,70,0,0,0,.95-11.1V158c0-.07,0-.14,0-.22a70.07,70.07,0,0,0-49.61-66.92V73c2.54.61,5.05,1.32,7.51,2.15l1,.35c2.55.9,5.06,1.91,7.5,3l1,.47a87.94,87.94,0,0,1,31.6,25.37l1,1.3a88.52,88.52,0,0,1,6.09,9.3Zm0-88a88.75,88.75,0,0,0-6.09-9l-1-1.27a89,89,0,0,0-31.6-24.86l-1-.47c-2.44-1.11-5-2.1-7.5-3l-1-.34A86.75,86.75,0,0,0,104.44,71l5.84-6.49c2.32.52,4.6,1.12,6.86,1.81l1,.3q3.83,1.22,7.5,2.73l1,.41a96.2,96.2,0,0,1,31.6,21.75l1,1.06c2.14,2.28,4.17,4.68,6.09,7.16Zm0-15q-2.88-3.64-6.09-7l-1-1a97.26,97.26,0,0,0-31.6-21.4l-1-.41q-3.67-1.5-7.5-2.7l-1-.3c-2-.6-4-1.14-6.09-1.62l6.09-6.76,1-.63c2.54.72,5,1.54,7.5,2.44l1,.38a106.1,106.1,0,0,1,31.6,18.8l1,.88c2.1,1.86,4.14,3.8,6.09,5.82Zm7.08,159-6.08,6.09v-31.2q3.18-3.33,6.08-6.92Zm0-33.62c-1.92,2.44-4,4.79-6.08,7.06V216.69a99.28,99.28,0,0,0,6.08-9Zm0-17.64a95.4,95.4,0,0,1-6.08,9.27V201.28A88.72,88.72,0,0,0,172.41,188Zm0-20.81a87,87,0,0,1-6.08,14.26V116.82a87,87,0,0,1,6.08,14.26Zm0-56.95a88.83,88.83,0,0,0-6.08-13.25V101a96.63,96.63,0,0,1,6.08,9.27Zm0-19.69a98,98,0,0,0-6.08-9V85.58c2.12,2.26,4.16,4.61,6.08,7Zm0-17.27q-2.9-3.58-6.08-6.92V52.92L172.41,59Zm1,43.33a87.38,87.38,0,0,1,0,47.29Zm0,50.74a88.26,88.26,0,0,0,0-54.18V112.05a95.71,95.71,0,0,1,0,91.93Zm0,20.92a96.7,96.7,0,0,0,0-96V93.93a105.56,105.56,0,0,1,0,128.17Z"/><path class="cls-5" d="M120.92,166.38c-2.32,3.91-10,15.69-14.58,18.7a23.33,23.33,0,0,1-11.64,3.51,8.9,8.9,0,0,1-5.85-1.75c-1.92-1.59-3.18-5.2-3.07-8.8.07-2.69.93-4.77,2.43-5.85a.91.91,0,0,1,.33-.15c1.47-.2,2.73-.43,3.31-.55a.76.76,0,0,1,.91.6c.69,3.33,1.81,5.12,4.11,6.44,4.29-3.31,7.16-7,8.32-10.77l.24-.75c1.17-3.54,3.13-9.46-2.9-15.74-8-8.39-15.35-11.25-21.68-8.42-6.93,3.09-10.13,6.89-10.72,7.63a.76.76,0,0,1-1.07.12A7.56,7.56,0,0,1,66.2,147a.77.77,0,0,1,.21-.78c.57-.52,14.08-12.66,29.73-12.66a27.31,27.31,0,0,1,16.14,5.18,1.54,1.54,0,0,0,1.21-.56c.57-.62,1.5-2.23,1.2-6.11-.43-5.65-2.26-9.31-17-18.18C91.85,119.6,84.53,126,79.16,126a5.63,5.63,0,0,1-3.89-1.46,9.14,9.14,0,0,1-3-6.92c0-4.06,2.28-8.63,6.17-12.21a14.84,14.84,0,0,0,1.09-1.11,15,15,0,0,0-1.94.71c-4.67,2-13.92,11.61-14.92,22.93-1,11.61,3.11,18.86,3.14,18.93l.31.61a.77.77,0,0,1-.23,1c-2.82,2.11-16.58,13.81-11.75,37C58.8,208,89,215,99.4,215A12.15,12.15,0,0,0,101,215a17.75,17.75,0,0,0,2.37-.38c-.94-.46-2.78-1.08-4.44-1.65l-3.48-1.21c-8.17-3-23-10.19-30.22-25-6.4-13,.53-28.34,2.83-32.74a3,3,0,0,1,.18-.36.91.91,0,0,1,.62-.44c.24,0,.33.14.49.32l.24.25,3.89,4.16c.17.17.45.49.4.72a18.71,18.71,0,0,0,.71,8.07,3.32,3.32,0,0,0,.22.53.77.77,0,0,1,.09.36c0,2.26.08,13.92,3.06,20.79,3.14,7.23,5.92,12,15.71,12,11.5,0,20-6.07,26.74-19.12,4.93-9.52,5.37-22.39,5-29.58C124.64,156.2,123.28,162.41,120.92,166.38Zm-45.37-9.49c3.16-3.55,11.1-8,16.79-5.43,6.9,3.18,10.6,12,5.43,16.32-3.51,2.9-11.09,4.17-14,3.12C80,169.53,73.19,167.27,75.55,156.89Z"/><path class="cls-5" d="M7.72,239.49v2l-.5-.44-.16.19,3,2.59.17-.18L9.45,243v-2.41h1.23v1.12l-.66.57.17.18,1.43-1.25-.17-.18-.52.46v-2l.52.46.17-.18-1.5-1.32-.16.19.72.63v1.11H9.45V238l.69-.61-.16-.18-3,2.6.17.19Zm1.48,3.33L8,241.75v-1.12H9.2Zm0-2.44H8v-1.11L9.2,238.2Z"/></g></g><g class="cls-2"><path class="cls-1" d="M61.44,54.91V-3.83h-1v59c-2.54.71-5,1.52-7.5,2.41V-1.49h-1V58a107.06,107.06,0,0,0-31.6,18.57l-1,.85q-3.15,2.73-6.09,5.72V51.92l6.09-6.08,1-1.05V-1.49h-1V44.42l-6.09,6.09v-52h-1v53L6.17,57.6l-1,.9V92.29a106.57,106.57,0,0,0,0,131.45V257.4l1,1,6.08,6.08v53h1v-52l6.09,6.09v45.92h1v-46.3l-1-1-6.09-6.08V232.93q2.94,3,6.09,5.73l1,.85a107,107,0,0,0,31.6,18.56v59.46h1V258.44c2.46.89,5,1.7,7.5,2.41v58.47h1v-58.2l.44-.91,6.78-7.54a97,97,0,0,0,41.26,0l6.79,7.54.43.92v58.19h1V260.85q3.81-1.07,7.5-2.41v59.09h1V258.07a106.9,106.9,0,0,0,31.6-18.56l1-.85q3.15-2.74,6.09-5.73v31.18l-6.09,6.08-1,1.08v46.26h1V271.61l6.09-6.09v52h1v-53l6.08-6.08,1-1V223.74a106.57,106.57,0,0,0,0-131.45V58.62l-1-1-6.08-6.09v-53h-1v52l-6.09-6.09V-1.49h-1V44.78l1,1.06,6.09,6.08V83.1q-2.94-3-6.09-5.73l-1-.84A106.72,106.72,0,0,0,126.64,58V-1.49h-1V57.59c-2.46-.89-5-1.7-7.5-2.41v-59h-1V54.91a9.65,9.65,0,0,0-.43.92l-6.79,7.53a97,97,0,0,0-41.26,0l-6.78-7.53S61.45,54.9,61.44,54.91ZM6.17,59l6.08-6.09v31.2Q9.07,87.45,6.17,91Zm6.08,26.57V99.35a96.54,96.54,0,0,0-6.08,9V92.63C8.09,90.19,10.13,87.84,12.25,85.58ZM172.41,185a87,87,0,0,1-6.08,14.26V116.82a87,87,0,0,1,6.08,14.26Zm1-50.58a87.38,87.38,0,0,1,0,47.29ZM165.33,201a88.52,88.52,0,0,1-6.09,9.3l-1,1.3A87.83,87.83,0,0,1,126.64,237l-1,.47c-2.44,1.12-5,2.13-7.5,3l-1,.35c-2.46.83-5,1.55-7.51,2.16V224.94a69.47,69.47,0,0,0,7.51-2.77l1-.46a69.56,69.56,0,0,0,7.5-4l1-.65a70,70,0,0,0,31.6-47.38l0-.51a70,70,0,0,0,.95-11.1V158c0-.07,0-.14,0-.22a70.07,70.07,0,0,0-49.61-66.92V73c2.54.61,5.05,1.32,7.51,2.15l1,.35c2.55.9,5.06,1.91,7.5,3l1,.47a87.94,87.94,0,0,1,31.6,25.37l1,1.3a88.52,88.52,0,0,1,6.09,9.3Zm-145-43.68c0-.74,0-1.48.06-2.21a69,69,0,0,1,31.53-55l1-.65a67.58,67.58,0,0,1,7.5-4l1-.46A70.35,70.35,0,0,1,69,92.12l1-.28c1.52-.45,3.07-.84,4.64-1.19l1-.22a69.38,69.38,0,0,1,27.34,0l1,.22c1.58.35,3.13.75,4.67,1.2l1,.28A69.8,69.8,0,0,1,117.14,95l1,.45a69.36,69.36,0,0,1,7.5,4l1,.65a69,69,0,0,1,31.54,55.08c0,.66,0,1.32,0,2,0,.24,0,.47,0,.7a69,69,0,0,1-137.9,0C20.35,157.67,20.35,157.51,20.35,157.34Zm-1,.4c0,.07,0,.14,0,.21v.19a69.44,69.44,0,0,0,.95,11.06l0,.53a70.08,70.08,0,0,0,31.6,47.38l1,.65a69.56,69.56,0,0,0,7.5,4l1,.46A72.22,72.22,0,0,0,69,225V243q-3.84-.92-7.54-2.16l-1-.35c-2.55-.9-5.06-1.91-7.5-3l-1-.47a87.83,87.83,0,0,1-31.6-25.37l-1-1.3a88.52,88.52,0,0,1-6.09-9.3V115a88.65,88.65,0,0,1,6.09-9.31l1-1.3A87.94,87.94,0,0,1,51.94,79l1-.47c2.44-1.12,5-2.13,7.5-3l1-.35Q65.15,73.94,69,73V90.81A70.08,70.08,0,0,0,19.34,157.74ZM6.17,131.09a87,87,0,0,1,6.08-14.26v82.38a86.7,86.7,0,0,1-6.08-14.27Zm-1,50.56a87.57,87.57,0,0,1,0-47.27Zm1-53.65V110.27A98.57,98.57,0,0,1,12.25,101v13.75A89.29,89.29,0,0,0,6.17,128Zm-1,2.93a88.43,88.43,0,0,0,0,54.17V204a95.69,95.69,0,0,1,0-91.92Zm1,57.1a88.83,88.83,0,0,0,6.08,13.25V215a98.57,98.57,0,0,1-6.08-9.27Zm7.08,15a88.75,88.75,0,0,0,6.09,9l1,1.27a89,89,0,0,0,31.6,24.87l1,.46c2.44,1.11,5,2.11,7.5,3l1,.34a88.06,88.06,0,0,0,12.7,3.2l-5.84,6.48c-2.32-.52-4.6-1.12-6.86-1.81l-1-.3c-2.54-.81-5-1.72-7.5-2.73l-1-.41a96.3,96.3,0,0,1-31.6-21.75l-1-1.06q-3.21-3.42-6.09-7.16ZM70,243.24v-18c1.53.44,3.07.84,4.64,1.17v17.75C73.06,243.89,71.51,243.58,70,243.24Zm38.65-18v18c-1.54.35-3.1.66-4.67.92V226.4C105.54,226.07,107.09,225.67,108.63,225.23Zm8.51,16.66,1-.34c2.55-.88,5.06-1.88,7.5-3l1-.46a89,89,0,0,0,31.6-24.87l1-1.27a89.75,89.75,0,0,0,6.09-9v13.34q-2.88,3.74-6.09,7.16l-1,1.06a96.2,96.2,0,0,1-31.6,21.75l-1,.41q-3.67,1.52-7.5,2.73l-1,.31c-2.26.68-4.54,1.28-6.86,1.8l-5.84-6.48A88.06,88.06,0,0,0,117.14,241.89Zm49.19-40.61A88.72,88.72,0,0,0,172.41,188v17.72a95.4,95.4,0,0,1-6.08,9.27Zm7.08-16.17a88.26,88.26,0,0,0,0-54.18V112.05a95.71,95.71,0,0,1,0,91.93Zm-1-57.11a88.83,88.83,0,0,0-6.08-13.25V101a96.63,96.63,0,0,1,6.08,9.27Zm-7.08-15a88.75,88.75,0,0,0-6.09-9l-1-1.27a89,89,0,0,0-31.6-24.86l-1-.47c-2.44-1.11-5-2.1-7.5-3l-1-.34A86.75,86.75,0,0,0,104.44,71l5.84-6.49c2.32.52,4.6,1.12,6.86,1.81l1,.3q3.83,1.22,7.5,2.73l1,.41a96.2,96.2,0,0,1,31.6,21.75l1,1.06c2.14,2.28,4.17,4.68,6.09,7.16ZM108.63,72.8V90.53c-1.54-.44-3.09-.84-4.67-1.17V71.88C105.53,72.15,107.09,72.45,108.63,72.8ZM70,90.53V72.8c1.53-.35,3.08-.65,4.64-.92V89.36C73.05,89.69,71.51,90.09,70,90.53ZM61.44,74.14l-1,.34c-2.55.89-5.06,1.88-7.5,3l-1,.47a89,89,0,0,0-31.6,24.86l-1,1.27a88.75,88.75,0,0,0-6.09,9V99.68q2.88-3.72,6.09-7.16l1-1a96.33,96.33,0,0,1,31.6-21.76l1-.41c2.45-1,5-1.92,7.5-2.72l1-.31C63.7,65.58,66,65,68.3,64.46L74.14,71A86.75,86.75,0,0,0,61.44,74.14ZM-16.51,158A105.29,105.29,0,0,1,5.17,93.93V110a96.68,96.68,0,0,0,0,96V222.1A105.26,105.26,0,0,1-16.51,158ZM6.17,223.4V207.72a98,98,0,0,0,6.08,9v13.76C10.13,228.19,8.09,225.84,6.17,223.4Zm6.08,39.71L6.17,257V225q2.89,3.58,6.08,6.92Zm49.19-3.92-1,.63c-2.54-.72-5-1.54-7.5-2.44l-1-.38a106.1,106.1,0,0,1-31.6-18.8l-1-.88q-3.15-2.79-6.09-5.82V218q2.88,3.65,6.09,7l1,1a97.26,97.26,0,0,0,31.6,21.4l1,.41c2.45,1,5,1.9,7.5,2.7l1,.3c2,.6,4,1.15,6.09,1.62Zm27.85-5.3a95.58,95.58,0,0,1-19.86-2.07l5.88-6.54s.32-1,.31-1V226.61a69.38,69.38,0,0,0,27.34,0v17.71s.3,1,.31,1l5.88,6.54A95.58,95.58,0,0,1,89.29,253.89Zm70-16.57-1,.88a105.89,105.89,0,0,1-31.6,18.8l-1,.38c-2.46.9-5,1.72-7.5,2.44l-1-.63-6.09-6.76c2.06-.47,4.08-1,6.09-1.62l1-.3q3.83-1.2,7.5-2.7l1-.41a97.26,97.26,0,0,0,31.6-21.4l1-1q3.21-3.34,6.09-7V231.5C163.38,233.52,161.34,235.46,159.24,237.32ZM172.41,257l-6.08,6.09v-31.2q3.18-3.33,6.08-6.92Zm-6.08-26.56V216.69a97.24,97.24,0,0,0,6.08-9V223.4C170.49,225.84,168.45,228.19,166.33,230.46ZM195.09,158a105.26,105.26,0,0,1-21.68,64.08V206a96.7,96.7,0,0,0,0-96V93.93A105.26,105.26,0,0,1,195.09,158ZM172.41,92.63v15.68a96.06,96.06,0,0,0-6.08-9V85.58C168.45,87.84,170.49,90.19,172.41,92.63Zm-6.08-39.71L172.41,59V91q-2.9-3.58-6.08-6.92Zm-49.19,3.92,1-.63c2.54.72,5,1.54,7.5,2.44l1,.38a106.1,106.1,0,0,1,31.6,18.8l1,.88c2.1,1.86,4.14,3.8,6.09,5.82V98.05q-2.88-3.64-6.09-7l-1-1a97.26,97.26,0,0,0-31.6-21.4l-1-.41q-3.67-1.5-7.5-2.7l-1-.3c-2-.6-4-1.14-6.09-1.62Zm-27.85,5.3a96.26,96.26,0,0,1,19.86,2.07l-5.88,6.54s-.32,1-.31,1V89.15a69.89,69.89,0,0,0-27.34,0V71.71s-.3-1-.31-1l-5.88-6.54A96.26,96.26,0,0,1,89.29,62.14Zm-27.85-5.3,6.09,6.76q-3.07.72-6.09,1.62l-1,.3c-2.54.8-5,1.7-7.5,2.7l-1,.41A97.26,97.26,0,0,0,20.34,90l-1,1q-3.21,3.34-6.09,7V84.53q2.94-3,6.09-5.82l1-.87A105.92,105.92,0,0,1,51.94,59l1-.38c2.46-.9,5-1.72,7.5-2.44Z"/></g><rect class="cls-5" x="-5.67" y="-5.67" width="189.92" height="45.68"/><polygon class="cls-6" points="184.25 -5.67 121.97 -5.67 143.03 20.5 184.25 20.5 184.25 -5.67"/><polygon class="cls-6" points="-5.67 -5.67 56.62 -5.67 35.55 20.5 -5.67 20.5 -5.67 -5.67"/><polygon class="cls-3" points="122.48 -5.67 121.96 -5.67 121.5 -5.29 142.79 21 184.25 21 184.25 20 143.27 20 122.48 -5.67"/><polygon class="cls-3" points="56.1 -5.67 35.31 20 -5.67 20 -5.67 21 35.79 21 57.08 -5.29 56.62 -5.67 56.1 -5.67"/><path class="cls-3" d="M50.63,15.09H53.8v.78H51.36V17h1.31v.81H51.36v1.7h-.73Z"/><path class="cls-3" d="M54.71,15.09h2.68c.48,0,.71.24.71.86V17c0,.62-.23.86-.71.86H57l1.44,1.69h-1l-1.26-1.69h-.7v1.69h-.71Zm.71.77V17.1h1.64c.23,0,.33-.06.33-.35v-.54c0-.29-.1-.35-.33-.35Z"/><path class="cls-3" d="M60.53,15.09h.71L63,19.55h-.82l-.37-1h-2l-.36,1h-.73Zm1,2.68L60.86,16l-.7,1.82Z"/><path class="cls-3" d="M64.59,15.88v2.83h2v-1l.73.21v.53c0,.84-.19,1.06-.78,1.06H64.64c-.59,0-.78-.22-.78-1.06V16.14c0-.84.19-1.05.78-1.05h1.87c.59,0,.78.21.78,1.05v.43l-.73.16v-.85Z"/><path class="cls-3" d="M70.26,19.55h-.73V15.88H68.09v-.79H71.7v.79H70.26Z"/><path class="cls-3" d="M73.33,18.71h2.08V15.09h.73v3.4c0,.84-.19,1.06-.78,1.06h-2c-.59,0-.78-.22-.78-1.06v-3.4h.73Z"/><path class="cls-3" d="M77.74,15.09h2.69c.48,0,.7.24.7.86V17c0,.62-.22.86-.7.86H80l1.44,1.69h-1l-1.27-1.69h-.69v1.69h-.72Zm.72.77V17.1H80.1c.23,0,.33-.06.33-.35v-.54c0-.29-.1-.35-.33-.35Z"/><path class="cls-3" d="M82.62,15.09h3.21v.76H83.35v1h1.44v.76H83.35v1.11h2.51v.84H82.62Z"/><path class="cls-3" d="M87.21,15.09h2c1.17,0,1.79.82,1.79,2.2a2.53,2.53,0,0,1-.69,1.91,1.87,1.87,0,0,1-1.29.35H87.21Zm1.67,3.62c.92,0,1.39-.33,1.39-1.44,0-.9-.35-1.39-1-1.39H87.94v2.83Z"/><path class="cls-3" d="M95.38,15.87v1h2c.59,0,.78.22.78,1.06v.61c0,.84-.19,1.06-.78,1.06H95.39c-.59,0-.78-.22-.78-1.06v-.12l.64-.19v.53h2.22v-1h-2c-.59,0-.78-.22-.78-1.06v-.49c0-.84.19-1.05.78-1.05h1.77c.56,0,.78.21.78,1v.1l-.64.22v-.51Z"/><path class="cls-3" d="M99.63,15.09h3.21v.76h-2.48v1h1.45v.76h-1.45v1.11h2.51v.84H99.63Z"/><path class="cls-3" d="M104.22,15.09h.49l2.21,2.62a3.64,3.64,0,0,1,.36.49c0-.37,0-.63,0-.77V15.09h.65v4.46h-.49l-2.31-2.76a3.74,3.74,0,0,1-.26-.36c0,.34,0,.58,0,.71v2.41h-.65Z"/><path class="cls-3" d="M110.17,15.87v1h2c.59,0,.79.22.79,1.06v.61c0,.84-.2,1.06-.79,1.06h-1.93c-.59,0-.79-.22-.79-1.06v-.12l.65-.19v.53h2.21v-1h-2c-.59,0-.78-.22-.78-1.06v-.49c0-.84.19-1.05.78-1.05h1.78c.56,0,.77.21.77,1v.1l-.64.22v-.51Z"/><path class="cls-3" d="M115.14,15.09h2.3c.59,0,.78.21.78,1.05v2.35c0,.84-.19,1.06-.78,1.06h-2.3c-.59,0-.78-.22-.78-1.06V16.14C114.36,15.3,114.55,15.09,115.14,15.09Zm2.35,3.62V15.88h-2.4v2.83Z"/><path class="cls-3" d="M119.76,15.09h2.69c.48,0,.7.24.7.86V17c0,.62-.22.86-.7.86H122l1.45,1.69h-1l-1.27-1.69h-.69v1.69h-.72Zm.72.77V17.1h1.64c.22,0,.33-.06.33-.35v-.54c0-.29-.11-.35-.33-.35Z"/><path class="cls-3" d="M125.3,15.87v1h2c.59,0,.78.22.78,1.06v.61c0,.84-.19,1.06-.78,1.06h-1.94c-.59,0-.78-.22-.78-1.06v-.12l.64-.19v.53h2.22v-1h-2c-.59,0-.78-.22-.78-1.06v-.49c0-.84.19-1.05.78-1.05h1.78c.56,0,.78.21.78,1v.1l-.65.22v-.51Z"/><path class="cls-3" d="M49.83,20.56V20h78.93v.6Z"/><path class="cls-7" d="M71.22,32l-1.4-3.62h.87l.92,2.43,1-2.43h.59l1,2.43L75,28.4h.75L74.37,32H73.8l-1-2.5-1,2.5Z"/><path class="cls-7" d="M76.69,32v-3h.72v3Z"/><path class="cls-7" d="M78.73,32v-3h.73v2.4h2.32V32Z"/><path class="cls-7" d="M82.59,32v-3h2a2.61,2.61,0,0,1,1,.17,1.37,1.37,0,0,1,.6.51,1.52,1.52,0,0,1,.2.79,1.29,1.29,0,0,1-.49,1.11A2.37,2.37,0,0,1,84.4,32Zm.73-.56h.93a2.8,2.8,0,0,0,.77-.08.82.82,0,0,0,.45-.3,1,1,0,0,0,.15-.59c0-.6-.34-.9-1-.9H83.32Z"/><path class="cls-7" d="M93.45,29.05H91.19v2.29h2.26v-.78l.84.18v.42a1.25,1.25,0,0,1-.08.53.45.45,0,0,1-.27.25,1.54,1.54,0,0,1-.54.08H91.24a1.74,1.74,0,0,1-.53-.07.45.45,0,0,1-.28-.26,1.25,1.25,0,0,1-.08-.53v-1.9a1.25,1.25,0,0,1,.08-.53.41.41,0,0,1,.28-.25,1.44,1.44,0,0,1,.53-.08H93.4a1.54,1.54,0,0,1,.54.08.45.45,0,0,1,.27.25,1.25,1.25,0,0,1,.08.53v.34l-.84.14Z"/><path class="cls-7" d="M95.31,32l1.76-3h.69l1.79,3h-.81l-.38-.65h-2L96,32Zm1.4-1.19h1.36l-.69-1.24Z"/><path class="cls-7" d="M100.28,32v-3H103a.84.84,0,0,1,.53.13.54.54,0,0,1,.17.44v.7a.54.54,0,0,1-.17.44.86.86,0,0,1-.53.13h-.41L104,32h-1l-1.24-1.12H101V32Zm2.36-2.45H101v.82h1.64a.57.57,0,0,0,.26-.05.22.22,0,0,0,.07-.19v-.34c0-.1,0-.16-.07-.19A.57.57,0,0,0,102.64,29.57Z"/><path class="cls-7" d="M104.83,32v-3h2a2.55,2.55,0,0,1,1,.17,1.27,1.27,0,0,1,.6.51,1.43,1.43,0,0,1,.2.79,1.31,1.31,0,0,1-.48,1.11,2.41,2.41,0,0,1-1.47.38Zm.73-.56h.93a2.8,2.8,0,0,0,.77-.08.82.82,0,0,0,.45-.3,1,1,0,0,0,.15-.59c0-.6-.34-.9-1-.9h-1.27Z"/><path class="cls-5" d="M8.92,47.79h0L7.78,52.37H7.06L5.74,47.3h.48l1.19,4.58h0L8.54,47.3h.74l1.12,4.58h0l1.19-4.58h.47l-1.32,5.07h-.71Z"/><path class="cls-5" d="M12.52,47.3H13v2h0a.94.94,0,0,1,1-.51c.83,0,1,.41,1,1.1v2.52h-.45V50c0-.42-.09-.81-.67-.81s-.93.21-.93,1v2.25h-.45Z"/><path class="cls-5" d="M16.19,50.69V51c0,.78.13,1,.75,1s.88,0,.88-.71h.44v.13c0,.72-.17,1-1.24,1S15.7,52,15.7,50.59s.24-1.84,1.32-1.84,1.24.43,1.24,1.4v.54Zm1.63-.44c0-.76,0-1.1-.82-1.1s-.81.34-.81,1.1Z"/><path class="cls-5" d="M19,48.8h.44v.46h0a1,1,0,0,1,1-.51c.82,0,1.05.41,1.05,1.1v2.52h-.45V50c0-.42-.09-.81-.68-.81s-.93.21-.93,1v2.25H19Z"/><path class="cls-5" d="M26.29,52.07a1.22,1.22,0,0,1-1.05.36c-.91,0-1.11-.43-1.11-1.12s.16-1.12,1.11-1.12c.68,0,.83.08,1,.32h0v-.65c0-.53,0-.71-.79-.71s-.75.18-.75.64h-.44V49.6c0-.43.1-.85,1.22-.85s1.21.32,1.21,1v2.61h-.4ZM25.43,52c.6,0,.86-.14.86-.69s-.26-.69-.86-.69-.85.14-.85.69S24.84,52,25.43,52Z"/><path class="cls-5" d="M29.82,51.27c0,.61.1.75.77.75s.85-.1.85-.7-.05-.51-.9-.56-1.14-.18-1.14-1,.14-1,1.21-1,1.24.23,1.24,1h-.44c0-.54-.15-.58-.82-.58s-.74.07-.74.62.06.55.82.59c1.06.06,1.22.14,1.22.93s-.16,1.14-1.32,1.14c-.82,0-1.2-.1-1.2-1.16Z"/><path class="cls-5" d="M32.62,47.3h.45v2h0a1,1,0,0,1,1-.51c.83,0,1,.41,1,1.1v2.52h-.45V50c0-.42-.09-.81-.68-.81s-.92.21-.92,1v2.25h-.45Z"/><path class="cls-5" d="M36,47.3h.45v.6H36Zm0,1.5h.45v3.57H36Z"/><path class="cls-5" d="M37.33,48.8h.45v.45h0a1,1,0,0,1,1-.5c.93,0,1.2.44,1.2,1.84s-.27,1.84-1.27,1.84a.87.87,0,0,1-.92-.5h0v1.69h-.45Zm1.31.39c-.65,0-.86.31-.86,1.19,0,1.34.11,1.6.86,1.6s.85-.16.85-1.39S39.34,49.19,38.64,49.19Z"/><path class="cls-5" d="M42.65,48.8h.44v.45h0a1,1,0,0,1,1-.5c.92,0,1.19.44,1.19,1.84S45,52.43,44,52.43a.86.86,0,0,1-.92-.5h0v1.69h-.44Zm1.3.39c-.65,0-.86.31-.86,1.19,0,1.34.11,1.6.86,1.6s.85-.16.85-1.39S44.65,49.19,44,49.19Z"/><path class="cls-5" d="M46.4,50.69V51c0,.78.13,1,.75,1s.87,0,.87-.71h.45v.13c0,.72-.17,1-1.24,1s-1.32-.39-1.32-1.84.24-1.84,1.32-1.84,1.24.43,1.24,1.4v.54ZM48,50.25c0-.76,0-1.1-.81-1.1s-.81.34-.81,1.1Z"/><path class="cls-5" d="M49.21,48.8h.45v.44h0a.78.78,0,0,1,.83-.49c.57,0,.83.24.83,1V50h-.41c0-.66-.07-.84-.58-.84s-.68.25-.68.74v2.48h-.45Z"/><path class="cls-5" d="M52.05,49.21h-.44V48.8h.44v-.64c0-.66.31-.91.93-.91h.31v.4H53c-.29,0-.5.1-.5.51v.64h.78v.41H52.5v3.16h-.45Z"/><path class="cls-5" d="M54.87,48.75c1.18,0,1.32.42,1.32,1.84s-.16,1.84-1.32,1.84-1.32-.36-1.32-1.84S53.69,48.75,54.87,48.75Zm0,3.27c.71,0,.83-.1.83-1.43s-.12-1.44-.83-1.44-.83.11-.83,1.44S54.15,52,54.87,52Z"/><path class="cls-5" d="M56.86,48.8h.45v.44h0a.78.78,0,0,1,.83-.49c.57,0,.83.24.83,1V50h-.41c0-.66-.07-.84-.58-.84s-.68.25-.68.74v2.48h-.45Z"/><path class="cls-5" d="M59.45,48.8h.45v.53h0a1,1,0,0,1,1-.58c.48,0,.84.1,1,.58A1.1,1.1,0,0,1,63,48.75a.93.93,0,0,1,1.07,1v2.57h-.45V50.06c0-.71-.29-.87-.75-.87s-.86.24-.86.94v2.24h-.45V49.9c0-.53-.22-.71-.71-.71-.65,0-.9.4-.9,1.14v2h-.45Z"/><path class="cls-5" d="M65.2,51.27c0,.61.1.75.76.75s.86-.1.86-.7,0-.51-.9-.56-1.14-.18-1.14-1,.14-1,1.2-1,1.25.23,1.25,1h-.45c0-.54-.14-.58-.82-.58s-.73.07-.73.62.06.55.82.59c1.06.06,1.22.14,1.22.93s-.16,1.14-1.32,1.14c-.82,0-1.2-.1-1.2-1.16Z"/><path class="cls-5" d="M70.07,49.21h-.38V48.8h.38V48h.44v.82h1.16v.41H70.51V51.6c0,.29.09.42.39.42s.48-.06.48-.85h.41c0,1.14-.37,1.26-.88,1.26s-.84-.2-.84-.74Z"/><path class="cls-5" d="M72.28,47.3h.45v2h0a1,1,0,0,1,1-.51c.82,0,1,.41,1,1.1v2.52h-.45V50c0-.42-.09-.81-.68-.81s-.92.21-.92,1v2.25h-.45Z"/><path class="cls-5" d="M76,50.69V51c0,.78.13,1,.75,1s.87,0,.87-.71H78v.13c0,.72-.18,1-1.25,1s-1.31-.39-1.31-1.84.23-1.84,1.31-1.84,1.25.43,1.25,1.4v.54Zm1.62-.44c0-.76,0-1.1-.81-1.1s-.81.34-.81,1.1Z"/><path class="cls-5" d="M87.43,49.73v1.65L86.14,51l-.71-.23a1.27,1.27,0,0,1-.23.63,1.48,1.48,0,0,1-.51.42l.43.47,1,1.15H82.05l1-1.15.44-.47a1.45,1.45,0,0,1-.51-.41,1.24,1.24,0,0,1-.25-.6l-.6.19-1.32.41V49.73l1.32.42.6.19a1.2,1.2,0,0,1,.24-.58,1.48,1.48,0,0,1,.46-.4L83.07,49l-1-1.15h4.09l-1,1.15-.39.41a1.22,1.22,0,0,1,.48.42,1.12,1.12,0,0,1,.22.59l.71-.22Zm-2.61.84.4-.13a1.26,1.26,0,0,0-.21-.55,1.07,1.07,0,0,0-.43-.36l-.49.55-.49-.55a1.11,1.11,0,0,0-.42.36,1,1,0,0,0-.21.52l.48.16-.48.14a1,1,0,0,0,.22.54,1.31,1.31,0,0,0,.47.37l.43-.48.43.48a1.17,1.17,0,0,0,.47-.38,1.21,1.21,0,0,0,.23-.56Z"/><path class="cls-5" d="M92.48,52.07a1.21,1.21,0,0,1-1,.36c-.91,0-1.12-.43-1.12-1.12s.17-1.12,1.12-1.12c.68,0,.82.08,1,.32h0v-.65c0-.53,0-.71-.79-.71s-.75.18-.75.64h-.45V49.6c0-.43.1-.85,1.22-.85s1.22.32,1.22,1v2.61h-.41ZM91.63,52c.59,0,.85-.14.85-.69s-.26-.69-.85-.69-.86.14-.86.69S91,52,91.63,52Z"/><path class="cls-5" d="M95.6,50c0-.65-.12-.84-.72-.84s-.82.11-.82,1.44.11,1.43.82,1.43.79-.17.79-.94h.44v.23c0,.92-.43,1.12-1.23,1.12-1.18,0-1.31-.39-1.31-1.84s.23-1.84,1.31-1.84,1.17.3,1.17,1.24Z"/><path class="cls-5" d="M96.85,49.21h-.37V48.8h.37V48h.45v.82h1.16v.41H97.3V51.6c0,.29.09.42.39.42s.48-.06.48-.85h.41c0,1.14-.37,1.26-.88,1.26-.66,0-.85-.2-.85-.74Z"/><path class="cls-5" d="M99.19,47.3h.44v.6h-.44Zm0,1.5h.44v3.57h-.44Z"/><path class="cls-5" d="M101.75,48.75c1.17,0,1.31.42,1.31,1.84s-.15,1.84-1.31,1.84-1.32-.36-1.32-1.84S100.57,48.75,101.75,48.75Zm0,3.27c.71,0,.82-.1.82-1.43s-.11-1.44-.82-1.44-.83.11-.83,1.44S101,52,101.75,52Z"/><path class="cls-5" d="M103.74,48.8h.45v.46h0a1,1,0,0,1,1-.51c.83,0,1,.41,1,1.1v2.52h-.45V50c0-.42-.09-.81-.68-.81s-.92.21-.92,1v2.25h-.45Z"/><path class="cls-5" d="M109.05,47.3h.45v.6h-.45Zm0,1.5h.45v3.57h-.45Z"/><path class="cls-5" d="M110.48,49.21h-.37V48.8h.37V48h.44v.82h1.16v.41h-1.16V51.6c0,.29.1.42.39.42s.48-.06.48-.85h.41c0,1.14-.37,1.26-.88,1.26s-.84-.2-.84-.74Z"/><path class="cls-5" d="M116.61,50c0-.65-.13-.84-.72-.84s-.83.11-.83,1.44.11,1.43.83,1.43.78-.17.78-.94h.45v.23c0,.92-.43,1.12-1.23,1.12-1.18,0-1.32-.39-1.32-1.84s.24-1.84,1.32-1.84,1.17.3,1.17,1.24Z"/><path class="cls-5" d="M119.84,52.07a1.22,1.22,0,0,1-1,.36c-.91,0-1.11-.43-1.11-1.12s.16-1.12,1.11-1.12c.68,0,.83.08,1,.32h0v-.65c0-.53-.05-.71-.79-.71s-.75.18-.75.64h-.44V49.6c0-.43.1-.85,1.21-.85s1.22.32,1.22,1v2.61h-.4ZM119,52c.6,0,.86-.14.86-.69s-.26-.69-.86-.69-.85.14-.85.69S118.39,52,119,52Z"/><path class="cls-5" d="M121,48.8h.45v.46h0a.94.94,0,0,1,1-.51c.83,0,1,.41,1,1.1v2.52H123V50c0-.42-.09-.81-.67-.81s-.93.21-.93,1v2.25H121Z"/><path class="cls-5" d="M124.22,48.8h.45v.46h0a1,1,0,0,1,1-.51c.83,0,1,.41,1,1.1v2.52h-.44V50c0-.42-.09-.81-.68-.81s-.93.21-.93,1v2.25h-.45Z"/><path class="cls-5" d="M128.72,48.75c1.18,0,1.32.42,1.32,1.84s-.16,1.84-1.32,1.84-1.32-.36-1.32-1.84S127.54,48.75,128.72,48.75Zm0,3.27c.71,0,.83-.1.83-1.43s-.12-1.44-.83-1.44-.83.11-.83,1.44S128,52,128.72,52Z"/><path class="cls-5" d="M130.83,49.21h-.37V48.8h.37V48h.45v.82h1.16v.41h-1.16V51.6c0,.29.09.42.39.42s.48-.06.48-.85h.41c0,1.14-.37,1.26-.89,1.26s-.84-.2-.84-.74Z"/><path class="cls-5" d="M137.08,52.07a1.19,1.19,0,0,1-1,.36c-.91,0-1.11-.43-1.11-1.12s.16-1.12,1.11-1.12c.68,0,.83.08,1,.32h0v-.65c0-.53,0-.71-.79-.71s-.75.18-.75.64h-.45V49.6c0-.43.11-.85,1.22-.85s1.22.32,1.22,1v2.61h-.41Zm-.85-.09c.6,0,.85-.14.85-.69s-.25-.69-.85-.69-.85.14-.85.69S135.64,52,136.23,52Z"/><path class="cls-5" d="M140.21,50c0-.65-.13-.84-.72-.84s-.83.11-.83,1.44.11,1.43.83,1.43.78-.17.78-.94h.45v.23c0,.92-.44,1.12-1.23,1.12-1.18,0-1.32-.39-1.32-1.84s.24-1.84,1.32-1.84,1.17.3,1.17,1.24Z"/><path class="cls-5" d="M143.48,51.93h0a.86.86,0,0,1-.92.5c-1,0-1.26-.44-1.26-1.84s.27-1.84,1.19-1.84a1,1,0,0,1,1,.5h0V48.8h.44v4.82h-.44Zm-.86,0c.75,0,.86-.26.86-1.6,0-.88-.21-1.19-.86-1.19s-.85.17-.85,1.4S141.92,52,142.62,52Z"/><path class="cls-5" d="M147.21,52.37h-.45v-.46h0a.93.93,0,0,1-1,.52c-.83,0-1-.41-1-1.11V48.8h.45v2.42c0,.41.09.8.67.8s.93-.21.93-1V48.8h.45Z"/><path class="cls-5" d="M148.07,47.3h.45v.6h-.45Zm0,1.5h.45v3.57h-.45Z"/><path class="cls-5" d="M149.38,48.8h.44v.44h0a.77.77,0,0,1,.82-.49c.57,0,.83.24.83,1V50h-.41c0-.66-.07-.84-.58-.84s-.68.25-.68.74v2.48h-.44Z"/><path class="cls-5" d="M152.39,50.69V51c0,.78.14,1,.75,1s.88,0,.88-.71h.45v.13c0,.72-.18,1-1.25,1s-1.32-.39-1.32-1.84.24-1.84,1.32-1.84,1.25.43,1.25,1.4v.54Zm1.63-.44c0-.76,0-1.1-.81-1.1s-.82.34-.82,1.1Z"/><path class="cls-5" d="M157.27,47.3h.45v5.07h-.45Z"/><path class="cls-5" d="M159.83,48.75c1.18,0,1.32.42,1.32,1.84s-.15,1.84-1.32,1.84-1.31-.36-1.31-1.84S158.66,48.75,159.83,48.75Zm0,3.27c.72,0,.83-.1.83-1.43s-.11-1.44-.83-1.44-.82.11-.82,1.44S159.12,52,159.83,52Z"/><path class="cls-5" d="M163.8,50c0-.65-.12-.84-.72-.84s-.82.11-.82,1.44.11,1.43.82,1.43.79-.17.79-.94h.45v.23c0,.92-.44,1.12-1.24,1.12-1.17,0-1.31-.39-1.31-1.84s.23-1.84,1.31-1.84,1.17.3,1.17,1.24Z"/><path class="cls-5" d="M165.58,50.69h-.2v1.68h-.44V47.3h.44v3h.21l1.06-1.45h.56L166,50.46l1.44,1.91h-.59Z"/><path class="cls-5" d="M168.1,51.27c0,.61.1.75.76.75s.86-.1.86-.7-.05-.51-.9-.56-1.14-.18-1.14-1,.14-1,1.2-1,1.25.23,1.25,1h-.45c0-.54-.14-.58-.82-.58s-.73.07-.73.62.06.55.82.59c1.06.06,1.22.14,1.22.93s-.16,1.14-1.32,1.14c-.82,0-1.2-.1-1.2-1.16Z"/><path class="cls-5" d="M7.29,57.15c1.18,0,1.32.42,1.32,1.84s-.15,1.84-1.32,1.84S6,60.47,6,59,6.12,57.15,7.29,57.15Zm0,3.27c.72,0,.83-.1.83-1.43S8,57.55,7.29,57.55s-.82.11-.82,1.44S6.58,60.42,7.29,60.42Z"/><path class="cls-5" d="M9.29,57.2h.45v.46h0a1,1,0,0,1,1-.51c.83,0,1,.41,1,1.1v2.52h-.45V58.36c0-.42-.09-.81-.68-.81s-.92.21-.92,1v2.25H9.29Z"/><path class="cls-5" d="M16.57,60.47a1.21,1.21,0,0,1-1,.36c-.91,0-1.12-.43-1.12-1.12s.16-1.12,1.12-1.12c.68,0,.82.08,1,.32h0v-.65c0-.53-.05-.71-.79-.71s-.75.18-.75.64h-.45V58c0-.43.1-.85,1.22-.85s1.22.32,1.22,1v2.61h-.41Zm-.85-.09c.59,0,.85-.15.85-.69s-.26-.69-.85-.69-.86.14-.86.69S15.12,60.38,15.72,60.38Z"/><path class="cls-5" d="M20.11,59.67c0,.61.09.75.76.75s.85-.1.85-.7,0-.51-.89-.56-1.14-.18-1.14-1,.13-1,1.2-1,1.25.23,1.25,1h-.45c0-.54-.15-.58-.82-.58s-.74.07-.74.62.07.54.82.59c1.06.06,1.22.14,1.22.93s-.16,1.14-1.32,1.14c-.82,0-1.19-.1-1.19-1.16Z"/><path class="cls-5" d="M22.91,55.7h.44v2h0a1,1,0,0,1,1-.51c.82,0,1.05.41,1.05,1.1v2.52H25V58.36c0-.42-.09-.81-.68-.81s-.93.21-.93,1v2.25h-.44Z"/><path class="cls-5" d="M26.27,55.7h.44v.6h-.44Zm0,1.5h.44v3.57h-.44Z"/><path class="cls-5" d="M27.62,57.2h.44v.45h0a1,1,0,0,1,1-.5c.92,0,1.19.44,1.19,1.84S30,60.83,29,60.83a.86.86,0,0,1-.92-.5h0V62h-.44Zm1.3.39c-.65,0-.86.31-.86,1.19,0,1.34.11,1.6.86,1.6s.85-.16.85-1.39S29.62,57.59,28.92,57.59Z"/><path class="cls-5" d="M34.14,57.15c1.18,0,1.32.42,1.32,1.84s-.16,1.84-1.32,1.84-1.32-.36-1.32-1.84S33,57.15,34.14,57.15Zm0,3.27c.72,0,.83-.1.83-1.43s-.11-1.44-.83-1.44-.82.11-.82,1.44S33.43,60.42,34.14,60.42Z"/><path class="cls-5" d="M36.18,55.7h.45v1.95h0a1,1,0,0,1,1-.5c.92,0,1.19.44,1.19,1.84s-.27,1.84-1.26,1.84a.86.86,0,0,1-.92-.5h0v.44h-.45Zm1.3,1.89c-.64,0-.85.31-.85,1.19,0,1.34.1,1.6.85,1.6s.85-.16.85-1.39S38.18,57.59,37.48,57.59Z"/><path class="cls-5" d="M39.94,59.67c0,.61.1.75.77.75s.85-.1.85-.7-.05-.51-.89-.56-1.15-.18-1.15-1,.14-1,1.21-1,1.25.23,1.25,1h-.45c0-.54-.15-.58-.82-.58s-.74.07-.74.62.06.54.82.59c1.06.06,1.22.14,1.22.93s-.16,1.14-1.32,1.14c-.82,0-1.19-.1-1.19-1.16Z"/><path class="cls-5" d="M42.86,57.61h-.37V57.2h.37v-.82h.45v.82h1.16v.41H43.31V60c0,.29.09.42.39.42s.48-.06.48-.85h.41c0,1.14-.37,1.26-.89,1.26s-.84-.2-.84-.74Z"/><path class="cls-5" d="M45.07,57.2h.45v.44h0a.77.77,0,0,1,.82-.49c.57,0,.83.24.83,1v.28h-.41c0-.66-.07-.84-.58-.84s-.68.25-.68.74v2.48h-.45Z"/><path class="cls-5" d="M50.16,60.77h-.44v-.46h0a.94.94,0,0,1-1,.52c-.83,0-1.06-.41-1.06-1.11V57.2h.45v2.42c0,.41.09.8.68.8s.93-.21.93-1V57.2h.44Z"/><path class="cls-5" d="M52.88,58.39c0-.65-.13-.84-.72-.84s-.83.11-.83,1.44.12,1.43.83,1.43.78-.17.78-.94h.45v.23c0,.92-.43,1.12-1.23,1.12-1.18,0-1.32-.39-1.32-1.84s.24-1.84,1.32-1.84,1.17.3,1.17,1.24Z"/><path class="cls-5" d="M54.13,57.61h-.37V57.2h.37v-.82h.45v.82h1.16v.41H54.58V60c0,.29.09.42.39.42s.48-.06.48-.85h.41c0,1.14-.37,1.26-.89,1.26s-.84-.2-.84-.74Z"/><path class="cls-5" d="M56.77,59.09v.33c0,.78.14,1,.75,1s.88,0,.88-.71h.44v.13c0,.72-.17,1-1.24,1s-1.32-.39-1.32-1.84.24-1.84,1.32-1.84,1.24.43,1.24,1.4v.54Zm1.63-.45c0-.75,0-1.09-.82-1.09s-.81.34-.81,1.09Z"/><path class="cls-5" d="M61.72,60.33h0a.87.87,0,0,1-.92.5c-1,0-1.27-.44-1.27-1.84s.28-1.84,1.2-1.84a1,1,0,0,1,1,.5h0V55.7h.45v5.07h-.45Zm-.85.05c.75,0,.85-.26.85-1.6,0-.88-.21-1.19-.85-1.19S60,57.76,60,59,60.17,60.38,60.87,60.38Z"/><path class="cls-5" d="M64.94,55.7h.45v1.95h0a1,1,0,0,1,1-.5c.93,0,1.2.44,1.2,1.84s-.27,1.84-1.27,1.84a.87.87,0,0,1-.92-.5h0v.44h-.45Zm1.3,1.89c-.64,0-.85.31-.85,1.19,0,1.34.1,1.6.85,1.6s.86-.16.86-1.39S66.94,57.59,66.24,57.59Z"/><path class="cls-5" d="M68.39,61.64c.56,0,.66-.11.83-.87H69L68,57.2h.44l.91,3.13h0l.76-3.13h.45l-1,3.95c-.15.62-.43.94-1,.94a.62.62,0,0,1-.21,0Z"/><path class="cls-5" d="M75,60.47a1.22,1.22,0,0,1-1.05.36c-.91,0-1.11-.43-1.11-1.12S73,58.59,74,58.59c.68,0,.83.08,1,.32h0v-.65c0-.53,0-.71-.79-.71s-.75.18-.75.64H73V58c0-.43.1-.85,1.22-.85s1.21.32,1.21,1v2.61H75Zm-.86-.09c.6,0,.86-.15.86-.69s-.26-.69-.86-.69-.85.14-.85.69S73.59,60.38,74.18,60.38Z"/><path class="cls-5" d="M76.18,57.2h.45v.46h0a1,1,0,0,1,1-.51c.83,0,1.05.41,1.05,1.1v2.52h-.44V58.36c0-.42-.09-.81-.68-.81s-.93.21-.93,1v2.25h-.45Z"/><path class="cls-5" d="M82.63,57.15c1.17,0,1.31.42,1.31,1.84s-.15,1.84-1.31,1.84-1.32-.36-1.32-1.84S81.45,57.15,82.63,57.15Zm0,3.27c.71,0,.82-.1.82-1.43s-.11-1.44-.82-1.44-.83.11-.83,1.44S81.91,60.42,82.63,60.42Z"/><path class="cls-5" d="M84.66,55.7h.45v1.95h0a1,1,0,0,1,1-.5c.93,0,1.2.44,1.2,1.84S87,60.83,86,60.83a.87.87,0,0,1-.92-.5h0v.44h-.45ZM86,57.59c-.64,0-.85.31-.85,1.19,0,1.34.11,1.6.85,1.6s.86-.16.86-1.39S86.66,57.59,86,57.59Z"/><path class="cls-5" d="M88.43,59.67c0,.61.1.75.76.75s.86-.1.86-.7,0-.51-.9-.56S88,59,88,58.19s.14-1,1.2-1,1.25.23,1.25,1H90c0-.54-.15-.58-.82-.58s-.73.07-.73.62.06.54.82.59c1,.06,1.21.14,1.21.93s-.16,1.14-1.31,1.14c-.82,0-1.2-.1-1.2-1.16Z"/><path class="cls-5" d="M91.35,57.61H91V57.2h.37v-.82h.45v.82H93v.41H91.8V60c0,.29.09.42.38.42s.48-.06.48-.85h.41c0,1.14-.36,1.26-.88,1.26s-.84-.2-.84-.74Z"/><path class="cls-5" d="M95.65,60.47a1.2,1.2,0,0,1-1,.36c-.91,0-1.11-.43-1.11-1.12s.16-1.12,1.11-1.12c.68,0,.83.08,1,.32h0v-.65c0-.53,0-.71-.79-.71s-.75.18-.75.64h-.45V58c0-.43.11-.85,1.22-.85s1.22.32,1.22,1v2.61h-.41Zm-.85-.09c.59,0,.85-.15.85-.69S95.39,59,94.8,59s-.85.14-.85.69S94.2,60.38,94.8,60.38Z"/><path class="cls-5" d="M98.78,58.39c0-.65-.13-.84-.73-.84s-.82.11-.82,1.44.11,1.43.82,1.43.79-.17.79-.94h.45v.23c0,.92-.44,1.12-1.24,1.12-1.17,0-1.31-.39-1.31-1.84s.24-1.84,1.31-1.84,1.17.3,1.17,1.24Z"/><path class="cls-5" d="M100,55.7h.45v5.07H100Z"/><path class="cls-5" d="M101.76,59.09v.33c0,.78.14,1,.75,1s.88,0,.88-.71h.45v.13c0,.72-.18,1-1.25,1s-1.32-.39-1.32-1.84.24-1.84,1.32-1.84,1.25.43,1.25,1.4v.54Zm1.63-.45c0-.75,0-1.09-.81-1.09s-.82.34-.82,1.09Z"/><path class="cls-5" d="M104.93,60.13h.49v.64h-.49Z"/><path class="cls-5" d="M8.92,73h0L7.78,77.57H7.06L5.74,72.5h.48l1.19,4.58h0L8.54,72.5h.74l1.12,4.58h0l1.19-4.58h.47l-1.32,5.07h-.71Z"/><path class="cls-5" d="M12.52,72.5H13v2h0A.94.94,0,0,1,14,74c.83,0,1,.41,1,1.1v2.52h-.45V75.16c0-.42-.09-.81-.67-.81s-.93.21-.93,1v2.25h-.45Z"/><path class="cls-5" d="M16.19,75.89v.33c0,.78.13,1,.75,1s.88,0,.88-.71h.44v.13c0,.72-.17,1-1.24,1s-1.32-.39-1.32-1.84S15.94,74,17,74s1.24.43,1.24,1.4v.54Zm1.63-.44c0-.76,0-1.1-.82-1.1s-.81.34-.81,1.1Z"/><path class="cls-5" d="M19,74h.44v.46h0a1,1,0,0,1,1-.51c.82,0,1.05.41,1.05,1.1v2.52h-.45V75.16c0-.42-.09-.81-.68-.81s-.93.21-.93,1v2.25H19Z"/><path class="cls-5" d="M26.29,77.27a1.22,1.22,0,0,1-1.05.36c-.91,0-1.11-.43-1.11-1.12s.16-1.12,1.11-1.12c.68,0,.83.08,1,.32h0v-.65c0-.53,0-.71-.79-.71s-.75.18-.75.64h-.44V74.8c0-.43.1-.85,1.22-.85s1.21.32,1.21,1v2.61h-.4Zm-.86-.09c.6,0,.86-.14.86-.69s-.26-.69-.86-.69-.85.14-.85.69S24.84,77.18,25.43,77.18Z"/><path class="cls-5" d="M29.82,76.47c0,.61.1.75.77.75s.85-.1.85-.7-.05-.51-.9-.56-1.14-.18-1.14-1,.14-1,1.21-1,1.24.23,1.24,1h-.44c0-.54-.15-.58-.82-.58s-.74.07-.74.62.06.55.82.59c1.06.06,1.22.14,1.22.93s-.16,1.14-1.32,1.14c-.82,0-1.2-.1-1.2-1.16Z"/><path class="cls-5" d="M32.62,72.5h.45v2h0a1,1,0,0,1,1-.51c.83,0,1,.41,1,1.1v2.52h-.45V75.16c0-.42-.09-.81-.68-.81s-.92.21-.92,1v2.25h-.45Z"/><path class="cls-5" d="M36,72.5h.45v.6H36ZM36,74h.45v3.57H36Z"/><path class="cls-5" d="M37.33,74h.45v.45h0a1,1,0,0,1,1-.5c.93,0,1.2.44,1.2,1.84s-.27,1.84-1.27,1.84a.87.87,0,0,1-.92-.5h0v1.69h-.45Zm1.31.39c-.65,0-.86.31-.86,1.19,0,1.34.11,1.6.86,1.6s.85-.16.85-1.39S39.34,74.39,38.64,74.39Z"/><path class="cls-5" d="M42.85,74.41h-.44V74h.44v-.64c0-.66.31-.91.93-.91h.32v.4h-.3c-.29,0-.5.1-.5.51V74h.78v.41H43.3v3.16h-.45Zm1.81-1.91h.45v5.07h-.45Z"/><path class="cls-5" d="M46.09,72.5h.45v.6h-.45Zm0,1.5h.45v3.57h-.45Z"/><path class="cls-5" d="M47.83,75.89v.33c0,.78.13,1,.75,1s.87,0,.87-.71h.45v.13c0,.72-.18,1-1.25,1s-1.31-.39-1.31-1.84S47.57,74,48.65,74s1.25.43,1.25,1.4v.54Zm1.62-.44c0-.76,0-1.1-.81-1.1s-.81.34-.81,1.1Z"/><path class="cls-5" d="M51.08,76.47c0,.61.1.75.77.75s.85-.1.85-.7-.05-.51-.9-.56-1.14-.18-1.14-1,.14-1,1.21-1,1.24.23,1.24,1h-.45c0-.54-.14-.58-.81-.58s-.74.07-.74.62.06.55.82.59c1.06.06,1.22.14,1.22.93s-.16,1.14-1.32,1.14c-.82,0-1.2-.1-1.2-1.16Z"/><path class="cls-5" d="M57.08,74c1.18,0,1.32.42,1.32,1.84s-.16,1.84-1.32,1.84-1.31-.36-1.31-1.84S55.91,74,57.08,74Zm0,3.27c.72,0,.83-.1.83-1.43s-.11-1.44-.83-1.44-.82.11-.82,1.44S56.37,77.22,57.08,77.22Z"/><path class="cls-5" d="M58.75,74h.47l.84,3.13h0L60.92,74h.47l-1,3.57h-.63Z"/><path class="cls-5" d="M62.23,75.89v.33c0,.78.14,1,.75,1s.88,0,.88-.71h.45v.13c0,.72-.18,1-1.25,1s-1.32-.39-1.32-1.84S62,74,63.06,74s1.25.43,1.25,1.4v.54Zm1.63-.44c0-.76,0-1.1-.81-1.1s-.82.34-.82,1.1Z"/><path class="cls-5" d="M65.05,74h.45v.44h0a.78.78,0,0,1,.83-.49c.56,0,.82.24.82,1v.28h-.4c0-.66-.07-.84-.58-.84s-.68.25-.68.74v2.48h-.45Z"/><path class="cls-5" d="M71.68,77.27a1.22,1.22,0,0,1-1.05.36c-.91,0-1.11-.43-1.11-1.12s.16-1.12,1.11-1.12c.68,0,.83.08,1,.32h0v-.65c0-.53,0-.71-.8-.71s-.74.18-.74.64h-.45V74.8c0-.43.1-.85,1.22-.85s1.21.32,1.21,1v2.61h-.4Zm-.86-.09c.6,0,.86-.14.86-.69s-.26-.69-.86-.69-.85.14-.85.69S70.23,77.18,70.82,77.18Z"/><path class="cls-5" d="M77,76.93h0a.9.9,0,0,1-.94.52c-1.15,0-1.23-.77-1.23-1.75S74.85,74,76,74a.87.87,0,0,1,.94.54h0V74h.45v3.54c0,1.06-.33,1.35-1.42,1.35-.7,0-1.12-.24-1.11-1h.45c0,.42.18.54.75.54.73,0,.88-.15.88-1Zm-.9.07c.72,0,.9-.29.9-1.3s-.18-1.31-.9-1.31-.79.36-.79,1.31S75.32,77,76.05,77Z"/><path class="cls-5" d="M80.23,77.27a1.21,1.21,0,0,1-1,.36c-.91,0-1.11-.43-1.11-1.12s.16-1.12,1.11-1.12c.68,0,.83.08,1,.32h0v-.65c0-.53,0-.71-.79-.71s-.75.18-.75.64H78.2V74.8c0-.43.11-.85,1.22-.85s1.22.32,1.22,1v2.61h-.41Zm-.85-.09c.59,0,.85-.14.85-.69s-.26-.69-.85-.69-.86.14-.86.69S78.78,77.18,79.38,77.18Z"/><path class="cls-5" d="M81.82,76.47c0,.61.1.75.76.75s.86-.1.86-.7,0-.51-.9-.56-1.14-.18-1.14-1,.14-1,1.21-1,1.24.23,1.24,1H83.4c0-.54-.14-.58-.82-.58s-.73.07-.73.62.06.55.82.59c1.06.06,1.22.14,1.22.93s-.16,1.14-1.32,1.14c-.82,0-1.2-.1-1.2-1.16Z"/><path class="cls-5" d="M88.54,75.19c0-.65-.12-.84-.72-.84s-.83.11-.83,1.44.12,1.43.83,1.43.79-.17.79-.94h.44v.23c0,.92-.43,1.12-1.23,1.12-1.18,0-1.32-.39-1.32-1.84S86.74,74,87.82,74s1.17.3,1.17,1.24Z"/><path class="cls-5" d="M89.79,72.5h.45v5.07h-.45Z"/><path class="cls-5" d="M92.36,74c1.17,0,1.31.42,1.31,1.84s-.15,1.84-1.31,1.84S91,77.27,91,75.79,91.18,74,92.36,74Zm0,3.27c.71,0,.82-.1.82-1.43s-.11-1.44-.82-1.44-.83.11-.83,1.44S91.64,77.22,92.36,77.22Z"/><path class="cls-5" d="M96.85,77.57H96.4v-.46h0a1,1,0,0,1-1,.52c-.83,0-1.05-.41-1.05-1.11V74h.45v2.42c0,.41.09.8.68.8s.92-.21.92-1V74h.45Z"/><path class="cls-5" d="M99.73,77.13h0a.85.85,0,0,1-.91.5c-1,0-1.27-.44-1.27-1.84S97.8,74,98.73,74a1,1,0,0,1,1,.5h0v-2h.45v5.07h-.45Zm-.86.05c.75,0,.86-.26.86-1.6,0-.88-.21-1.19-.86-1.19s-.85.17-.85,1.4S98.17,77.18,98.87,77.18Z"/><path class="cls-5" d="M101.32,76.93h.49v.76c0,.6-.18.64-.54.64v-.28c.19,0,.26,0,.26-.48h-.21Z"/><path class="cls-5" d="M107,77.27a1.22,1.22,0,0,1-1,.36c-.91,0-1.11-.43-1.11-1.12s.16-1.12,1.11-1.12c.68,0,.83.08,1,.32h0v-.65c0-.53-.05-.71-.79-.71s-.75.18-.75.64h-.45V74.8c0-.43.11-.85,1.22-.85s1.22.32,1.22,1v2.61H107Zm-.86-.09c.6,0,.86-.14.86-.69s-.26-.69-.86-.69-.85.14-.85.69S105.5,77.18,106.09,77.18Z"/><path class="cls-5" d="M108.21,72.5h.45v5.07h-.45Z"/><path class="cls-5" d="M109.64,72.5h.45v5.07h-.45Z"/><path class="cls-5" d="M113,72.5h.49V77h2.14v.53H113Z"/><path class="cls-5" d="M117.39,74c1.18,0,1.32.42,1.32,1.84s-.16,1.84-1.32,1.84-1.32-.36-1.32-1.84S116.21,74,117.39,74Zm0,3.27c.71,0,.83-.1.83-1.43s-.12-1.44-.83-1.44-.83.11-.83,1.44S116.67,77.22,117.39,77.22Z"/><path class="cls-5" d="M121.36,75.19c0-.65-.13-.84-.72-.84s-.83.11-.83,1.44.11,1.43.83,1.43.78-.17.78-.94h.45v.23c0,.92-.43,1.12-1.23,1.12-1.18,0-1.32-.39-1.32-1.84s.24-1.84,1.32-1.84,1.17.3,1.17,1.24Z"/><path class="cls-5" d="M123.14,75.89h-.2v1.68h-.45V72.5h.45v3h.21L124.21,74h.55l-1.25,1.66L125,77.57h-.6Z"/><path class="cls-5" d="M125.66,76.47c0,.61.09.75.76.75s.85-.1.85-.7,0-.51-.89-.56-1.14-.18-1.14-1,.13-1,1.2-1,1.25.23,1.25,1h-.45c0-.54-.15-.58-.82-.58s-.74.07-.74.62.07.55.82.59c1.06.06,1.22.14,1.22.93s-.16,1.14-1.32,1.14c-.82,0-1.19-.1-1.19-1.16Z"/><path class="cls-5" d="M131.66,74c1.17,0,1.31.42,1.31,1.84s-.15,1.84-1.31,1.84-1.32-.36-1.32-1.84S130.48,74,131.66,74Zm0,3.27c.71,0,.82-.1.82-1.43s-.11-1.44-.82-1.44-.83.11-.83,1.44S130.94,77.22,131.66,77.22Z"/><path class="cls-5" d="M133.65,74h.45v.46h0a1,1,0,0,1,1-.51c.83,0,1.05.41,1.05,1.1v2.52h-.45V75.16c0-.42-.09-.81-.68-.81s-.92.21-.92,1v2.25h-.45Z"/><path class="cls-5" d="M139,74.41h-.38V74H139v-.82h.44V74h1.16v.41H139.4V76.8c0,.29.09.42.39.42s.48-.06.48-.85h.41c0,1.14-.37,1.26-.88,1.26-.66,0-.84-.2-.84-.73Z"/><path class="cls-5" d="M141.17,72.5h.45v2h0a1,1,0,0,1,1-.51c.82,0,1,.41,1,1.1v2.52h-.45V75.16c0-.42-.09-.81-.68-.81s-.92.21-.92,1v2.25h-.45Z"/><path class="cls-5" d="M146.5,77.27a1.2,1.2,0,0,1-1,.36c-.91,0-1.11-.43-1.11-1.12s.16-1.12,1.11-1.12c.68,0,.83.08,1,.32h0v-.65c0-.53-.05-.71-.79-.71s-.75.18-.75.64h-.45V74.8c0-.43.11-.85,1.22-.85s1.22.32,1.22,1v2.61h-.41Zm-.85-.09c.59,0,.85-.14.85-.69s-.26-.69-.85-.69-.86.14-.86.69S145.05,77.18,145.65,77.18Z"/><path class="cls-5" d="M147.77,74.41h-.37V74h.37v-.82h.45V74h1.15v.41h-1.15V76.8c0,.29.09.42.38.42s.49-.06.49-.85h.4c0,1.14-.36,1.26-.88,1.26s-.84-.2-.84-.73Z"/><path class="cls-5" d="M152.37,76.47c0,.61.1.75.76.75s.86-.1.86-.7-.05-.51-.9-.56S152,75.78,152,75s.14-1,1.2-1,1.25.23,1.25,1H154c0-.54-.15-.58-.82-.58s-.73.07-.73.62.06.55.82.59c1.05.06,1.22.14,1.22.93s-.17,1.14-1.32,1.14c-.82,0-1.2-.1-1.2-1.16Z"/><path class="cls-5" d="M155.17,72.5h.45v2h0a1,1,0,0,1,1-.51c.83,0,1,.41,1,1.1v2.52h-.45V75.16c0-.42-.09-.81-.68-.81s-.92.21-.92,1v2.25h-.45Z"/><path class="cls-5" d="M158.53,72.5H159v.6h-.45Zm0,1.5H159v3.57h-.45Z"/><path class="cls-5" d="M159.88,74h.45v.45h0a1,1,0,0,1,1-.5c.92,0,1.2.44,1.2,1.84s-.28,1.84-1.27,1.84a.87.87,0,0,1-.92-.5h0v1.69h-.45Zm1.3.39c-.64,0-.85.31-.85,1.19,0,1.34.1,1.6.85,1.6s.86-.16.86-1.39S161.88,74.39,161.18,74.39Z"/><path class="cls-5" d="M8.14,85.67A1.22,1.22,0,0,1,7.09,86C6.18,86,6,85.6,6,84.91s.16-1.12,1.11-1.12c.68,0,.83.08,1,.32h0v-.65c0-.53-.05-.71-.79-.71s-.75.18-.75.64H6.1V83.2c0-.43.11-.85,1.22-.85s1.22.32,1.22,1V86h-.4Zm-.86-.09c.6,0,.86-.14.86-.69s-.26-.69-.86-.69-.85.14-.85.69S6.69,85.58,7.28,85.58Z"/><path class="cls-5" d="M9.28,82.4h.45v.46h0a1,1,0,0,1,1-.51c.83,0,1,.41,1,1.1V86h-.45V83.56c0-.42-.09-.81-.67-.81s-.93.21-.93,1V86H9.28Z"/><path class="cls-5" d="M14.66,85.53h0a.87.87,0,0,1-.92.5c-1,0-1.27-.44-1.27-1.84s.27-1.84,1.2-1.84a1,1,0,0,1,1,.5h0V80.9h.45V86h-.45Zm-.85,0c.74,0,.85-.26.85-1.6,0-.88-.21-1.19-.85-1.19S13,83,13,84.19,13.1,85.58,13.81,85.58Z"/><path class="cls-5" d="M19.93,85.67a1.21,1.21,0,0,1-1,.36c-.91,0-1.12-.43-1.12-1.12s.17-1.12,1.12-1.12c.68,0,.82.08,1,.32h0v-.65c0-.53-.05-.71-.79-.71s-.75.18-.75.64H17.9V83.2c0-.43.1-.85,1.22-.85s1.22.32,1.22,1V86h-.41Zm-.85-.09c.59,0,.85-.14.85-.69s-.26-.69-.85-.69-.86.14-.86.69S18.48,85.58,19.08,85.58Z"/><path class="cls-5" d="M21.2,80.9h.45V86H21.2Z"/><path class="cls-5" d="M22.62,80.9h.45V86h-.45Z"/><path class="cls-5" d="M26,80.9h.45V86H26Z"/><path class="cls-5" d="M28.56,82.35c1.18,0,1.32.42,1.32,1.84S29.72,86,28.56,86s-1.32-.36-1.32-1.84S27.38,82.35,28.56,82.35Zm0,3.27c.72,0,.83-.1.83-1.43s-.11-1.44-.83-1.44-.82.11-.82,1.44S27.85,85.62,28.56,85.62Z"/><path class="cls-5" d="M32.53,83.59c0-.65-.13-.84-.72-.84s-.83.11-.83,1.44.11,1.43.83,1.43.78-.17.78-.94H33v.23c0,.92-.43,1.12-1.23,1.12-1.18,0-1.32-.39-1.32-1.84s.24-1.84,1.32-1.84,1.17.3,1.17,1.24Z"/><path class="cls-5" d="M34.31,84.29h-.2V86h-.45V80.9h.45v2.94h.21l1.06-1.44h.55l-1.25,1.66L36.12,86h-.59Z"/><path class="cls-5" d="M36.83,84.87c0,.61.09.75.76.75s.86-.1.86-.7-.05-.51-.9-.56-1.14-.18-1.14-1,.14-1,1.2-1,1.25.23,1.25,1h-.45c0-.54-.15-.58-.82-.58s-.73.07-.73.62.06.55.81.59c1.06.06,1.22.14,1.22.93S38.73,86,37.58,86c-.82,0-1.2-.1-1.2-1.16Z"/><path class="cls-5" d="M41.69,82.81h-.37V82.4h.37v-.82h.45v.82H43.3v.41H42.14V85.2c0,.29.09.42.39.42s.48-.06.48-.85h.4c0,1.14-.36,1.26-.88,1.26s-.84-.2-.84-.73Z"/><path class="cls-5" d="M43.9,80.9h.45v2h0a1,1,0,0,1,1-.51c.83,0,1,.41,1,1.1V86H46V83.56c0-.42-.1-.81-.68-.81s-.93.21-.93,1V86H43.9Z"/><path class="cls-5" d="M49.24,85.67a1.21,1.21,0,0,1-1,.36c-.91,0-1.12-.43-1.12-1.12s.16-1.12,1.12-1.12c.68,0,.82.08,1,.32h0v-.65c0-.53-.05-.71-.79-.71s-.75.18-.75.64h-.45V83.2c0-.43.1-.85,1.22-.85s1.22.32,1.22,1V86h-.41Zm-.85-.09c.59,0,.85-.14.85-.69s-.26-.69-.85-.69-.86.14-.86.69S47.79,85.58,48.39,85.58Z"/><path class="cls-5" d="M50.51,82.81h-.38V82.4h.38v-.82H51v.82h1.16v.41H51V85.2c0,.29.09.42.39.42s.48-.06.48-.85h.41c0,1.14-.37,1.26-.88,1.26-.66,0-.84-.2-.84-.73Z"/><path class="cls-5" d="M55.11,84.87c0,.61.09.75.76.75s.85-.1.85-.7,0-.51-.89-.56-1.14-.18-1.14-1,.13-1,1.2-1,1.25.23,1.25,1h-.45c0-.54-.15-.58-.82-.58s-.74.07-.74.62.07.55.82.59c1.06.06,1.22.14,1.22.93S57,86,55.85,86c-.82,0-1.19-.1-1.19-1.16Z"/><path class="cls-5" d="M57.91,80.9h.44v2h0a1,1,0,0,1,1-.51c.82,0,1,.41,1,1.1V86H60V83.56c0-.42-.09-.81-.68-.81s-.93.21-.93,1V86h-.44Z"/><path class="cls-5" d="M61.27,80.9h.44v.6h-.44Zm0,1.5h.44V86h-.44Z"/><path class="cls-5" d="M62.62,82.4h.44v.45h0a1,1,0,0,1,1-.5c.92,0,1.19.44,1.19,1.84S65,86,64,86a.86.86,0,0,1-.92-.5h0v1.69h-.44Zm1.3.39c-.65,0-.86.31-.86,1.19,0,1.34.11,1.6.86,1.6s.85-.16.85-1.39S64.62,82.79,63.92,82.79Z"/><path class="cls-5" d="M67.89,80.9h.45v2h0a1,1,0,0,1,1-.51c.82,0,1,.41,1,1.1V86h-.45V83.56c0-.42-.09-.81-.68-.81s-.92.21-.92,1V86h-.45Z"/><path class="cls-5" d="M73.22,85.67a1.21,1.21,0,0,1-1,.36c-.91,0-1.11-.43-1.11-1.12s.16-1.12,1.11-1.12c.68,0,.83.08,1,.32h0v-.65c0-.53-.05-.71-.79-.71s-.75.18-.75.64h-.45V83.2c0-.43.11-.85,1.22-.85s1.22.32,1.22,1V86h-.41Zm-.85-.09c.59,0,.85-.14.85-.69s-.26-.69-.85-.69-.86.14-.86.69S71.77,85.58,72.37,85.58Z"/><path class="cls-5" d="M76.51,85.53h0a.86.86,0,0,1-.92.5c-1,0-1.26-.44-1.26-1.84s.27-1.84,1.19-1.84a1,1,0,0,1,1,.5h0V80.9H77V86h-.44Zm-.86,0c.75,0,.86-.26.86-1.6,0-.88-.21-1.19-.86-1.19s-.85.17-.85,1.4S75,85.58,75.65,85.58Z"/><path class="cls-5" d="M81.78,85.67a1.22,1.22,0,0,1-1,.36c-.91,0-1.11-.43-1.11-1.12s.16-1.12,1.11-1.12c.68,0,.83.08,1,.32h0v-.65c0-.53,0-.71-.8-.71s-.74.18-.74.64h-.45V83.2c0-.43.1-.85,1.22-.85s1.21.32,1.21,1V86h-.4Zm-.86-.09c.6,0,.86-.14.86-.69s-.26-.69-.86-.69-.85.14-.85.69S80.33,85.58,80.92,85.58Z"/><path class="cls-5" d="M82.92,82.4h.45v.44h0a.77.77,0,0,1,.82-.49c.57,0,.83.24.83,1v.28h-.41c0-.66-.07-.84-.58-.84s-.68.25-.68.74V86h-.45Z"/><path class="cls-5" d="M85.94,84.29v.33c0,.78.13,1,.75,1s.88,0,.88-.71H88V85c0,.72-.17,1-1.24,1s-1.32-.39-1.32-1.84.24-1.84,1.32-1.84,1.24.43,1.24,1.4v.54Zm1.63-.45c0-.75,0-1.09-.82-1.09s-.81.34-.81,1.09Z"/><path class="cls-5" d="M90.74,80.9h.45v1.95h0a1,1,0,0,1,1-.5c.93,0,1.2.44,1.2,1.84S93.12,86,92.12,86a.85.85,0,0,1-.91-.5h0V86h-.45Zm1.31,1.89c-.65,0-.86.31-.86,1.19,0,1.34.11,1.6.86,1.6s.85-.16.85-1.39S92.75,82.79,92.05,82.79Z"/><path class="cls-5" d="M94.07,82.4h.45v.44h0a.78.78,0,0,1,.83-.49c.57,0,.82.24.82,1v.28h-.4c0-.66-.07-.84-.58-.84s-.68.25-.68.74V86h-.45Z"/><path class="cls-5" d="M97.91,82.35c1.18,0,1.32.42,1.32,1.84S99.07,86,97.91,86s-1.31-.36-1.31-1.84S96.74,82.35,97.91,82.35Zm0,3.27c.72,0,.83-.1.83-1.43s-.11-1.44-.83-1.44-.82.11-.82,1.44S97.2,85.62,97.91,85.62Z"/><path class="cls-5" d="M100.55,84.29h-.19V86h-.45V80.9h.45v2.94h.21l1.05-1.44h.56l-1.26,1.66L102.36,86h-.59Z"/><path class="cls-5" d="M103.06,84.29v.33c0,.78.13,1,.75,1s.87,0,.87-.71h.45V85c0,.72-.18,1-1.25,1s-1.31-.39-1.31-1.84.23-1.84,1.31-1.84,1.25.43,1.25,1.4v.54Zm1.62-.45c0-.75,0-1.09-.81-1.09s-.81.34-.81,1.09Z"/><path class="cls-5" d="M105.87,82.4h.45v.46h0a1,1,0,0,1,1-.51c.83,0,1.05.41,1.05,1.1V86h-.45V83.56c0-.42-.09-.81-.68-.81s-.92.21-.92,1V86h-.45Z"/><path class="cls-5" d="M109.47,85.33H110V86h-.49Z"/></svg>