<svg id="Layer_1" data-name="Layer 1" xmlns="http://www.w3.org/2000/svg" xmlns:xlink="http://www.w3.org/1999/xlink" viewBox="0 0 178.58 249.45"><defs><style>.cls-1{fill:none;}.cls-2{clip-path:url(#clip-path);}.cls-3{fill:#fff;}.cls-4{opacity:0.02;}.cls-5{fill:#090400;}.cls-6{fill:#e52722;}.cls-7{fill:#fbfbfb;}</style><clipPath id="clip-path"><rect class="cls-1" x="-5.67" y="-5.67" width="189.92" height="260.79"/></clipPath></defs><g class="cls-2"><rect class="cls-3" x="-5.67" y="-5.67" width="189.92" height="260.79"/><g class="cls-4"><path class="cls-5" d="M173.41,92.29V58.62l-1-1-6.08-6.09v-53h-1v52l-6.09-6.09V-1.49h-1V44.78l1,1.06,6.09,6.08V83.1q-2.94-3-6.09-5.73l-1-.84A106.72,106.72,0,0,0,126.64,58V-1.49h-1V57.59c-2.46-.89-5-1.7-7.5-2.41v-59h-1V54.91a9.65,9.65,0,0,0-.43.92l-6.79,7.53a97,97,0,0,0-41.26,0l-6.78-7.53s-.43-.93-.44-.92V-3.83h-1v59c-2.54.71-5,1.52-7.5,2.41V-1.49h-1V58a107.06,107.06,0,0,0-31.6,18.57l-1,.85q-3.15,2.73-6.09,5.72V51.92l6.09-6.08,1-1.05V-1.49h-1V44.42l-6.09,6.09v-52h-1v53L6.17,57.6l-1,.9V92.29a106.57,106.57,0,0,0,0,131.45V257.4l1,1,6.08,6.08v53h1v-52l6.09,6.09v45.92h1v-46.3l-1-1-6.09-6.08V232.93q2.94,3,6.09,5.73l1,.85a107,107,0,0,0,31.6,18.56v59.46h1V258.44c2.46.89,5,1.7,7.5,2.41v58.47h1v-58.2l.44-.91,6.78-7.54a97,97,0,0,0,41.26,0l6.79,7.54.43.92v58.19h1V260.85q3.81-1.07,7.5-2.41v59.09h1V258.07a106.9,106.9,0,0,0,31.6-18.56l1-.85q3.15-2.74,6.09-5.73v31.18l-6.09,6.08-1,1.08v46.26h1V271.61l6.09-6.09v52h1v-53l6.08-6.08,1-1V223.74a106.57,106.57,0,0,0,0-131.45ZM5.17,181.65a87.57,87.57,0,0,1,0-47.27Zm0-50.72a88.43,88.43,0,0,0,0,54.17V204a95.69,95.69,0,0,1,0-91.92Zm0-20.92a96.68,96.68,0,0,0,0,96V222.1a105.56,105.56,0,0,1,0-128.17Zm7.08,153.1L6.17,257V225q2.89,3.58,6.08,6.92Zm0-32.66c-2.12-2.26-4.16-4.61-6.08-7V207.72a98,98,0,0,0,6.08,9Zm0-15.42a98.57,98.57,0,0,1-6.08-9.27V188a88.83,88.83,0,0,0,6.08,13.25Zm0-15.82a86.7,86.7,0,0,1-6.08-14.27V131.09a87,87,0,0,1,6.08-14.26Zm0-84.46A89.29,89.29,0,0,0,6.17,128V110.27A98.57,98.57,0,0,1,12.25,101Zm0-15.4a96.54,96.54,0,0,0-6.08,9V92.63c1.92-2.44,4-4.79,6.08-7Zm0-15.23Q9.07,87.45,6.17,91V59l6.08-6.09Zm77-22a96.26,96.26,0,0,1,19.86,2.07l-5.88,6.54s-.32,1-.31,1V89.15a69.89,69.89,0,0,0-27.34,0V71.71s-.3-1-.3-1l-5.89-6.54A96.26,96.26,0,0,1,89.29,62.14Zm0,164.55a69,69,0,0,1-68.95-68.86c0-.16,0-.32,0-.49,0-.74,0-1.48.06-2.21a69,69,0,0,1,31.53-55l1-.65a67.58,67.58,0,0,1,7.5-4l1-.46A70.35,70.35,0,0,1,69,92.12l1-.28c1.52-.45,3.07-.84,4.64-1.19l1-.22a69.38,69.38,0,0,1,27.34,0l1,.22c1.58.35,3.13.75,4.67,1.2l1,.28A69.8,69.8,0,0,1,117.14,95l1,.45a69.36,69.36,0,0,1,7.5,4l1,.65a69,69,0,0,1,31.54,55.08c0,.66,0,1.32,0,2,0,.24,0,.47,0,.7A69,69,0,0,1,89.29,226.69Zm19.34-1.46v18c-1.54.35-3.1.66-4.67.92V226.4C105.54,226.07,107.09,225.67,108.63,225.23Zm-34,1.17v17.75c-1.56-.26-3.11-.57-4.64-.91v-18C71.51,225.67,73.05,226.07,74.62,226.4ZM70,90.53V72.8c1.53-.35,3.08-.65,4.64-.92V89.36C73.05,89.69,71.51,90.09,70,90.53Zm38.65,0c-1.54-.44-3.09-.84-4.67-1.17V71.88c1.57.27,3.13.57,4.67.92Zm-95.38-6q2.94-3,6.09-5.82l1-.87A105.92,105.92,0,0,1,51.94,59l1-.38c2.46-.9,5-1.72,7.5-2.44l1,.63,6.09,6.76q-3.07.72-6.09,1.62l-1,.3c-2.54.8-5,1.7-7.5,2.7l-1,.41A97.26,97.26,0,0,0,20.34,90l-1,1q-3.21,3.34-6.09,7Zm0,15.15q2.88-3.72,6.09-7.16l1-1a96.33,96.33,0,0,1,31.6-21.76l1-.41c2.45-1,5-1.92,7.5-2.72l1-.31C63.7,65.58,66,65,68.3,64.46L74.14,71a86.75,86.75,0,0,0-12.7,3.19l-1,.34c-2.55.89-5.06,1.88-7.5,3l-1,.47a89,89,0,0,0-31.6,24.86l-1,1.27a88.75,88.75,0,0,0-6.09,9Zm0,15.34a88.65,88.65,0,0,1,6.09-9.31l1-1.3A87.94,87.94,0,0,1,51.94,79l1-.47c2.44-1.12,5-2.13,7.5-3l1-.35Q65.15,73.94,69,73V90.81a70.08,70.08,0,0,0-49.64,66.93c0,.07,0,.14,0,.21v.19a69.44,69.44,0,0,0,.95,11.06l0,.53a70,70,0,0,0,31.6,47.38l1,.65a69.56,69.56,0,0,0,7.5,4l1,.46A72.22,72.22,0,0,0,69,225V243q-3.84-.92-7.54-2.16l-1-.35c-2.55-.9-5.06-1.91-7.5-3l-1-.47a87.83,87.83,0,0,1-31.6-25.37l-1-1.3a88.52,88.52,0,0,1-6.09-9.3ZM61.44,259.19l-1,.63c-2.54-.72-5-1.54-7.5-2.44l-1-.38a106.1,106.1,0,0,1-31.6-18.8l-1-.88q-3.15-2.79-6.09-5.82V218q2.88,3.65,6.09,7l1,1a97.26,97.26,0,0,0,31.6,21.4l1,.41c2.45,1,5,1.9,7.5,2.7l1,.3c2,.6,4,1.15,6.09,1.62Zm6.86-7.62c-2.32-.52-4.6-1.12-6.86-1.81l-1-.3c-2.54-.81-5-1.72-7.5-2.73l-1-.41a96.3,96.3,0,0,1-31.6-21.75l-1-1.06q-3.21-3.42-6.09-7.16V203a88.75,88.75,0,0,0,6.09,9l1,1.27a89,89,0,0,0,31.6,24.87l1,.46c2.44,1.11,5,2.11,7.5,3l1,.34a88.06,88.06,0,0,0,12.7,3.2Zm21,2.32a95.58,95.58,0,0,1-19.86-2.07l5.88-6.54s.32-1,.31-1V226.61a69.38,69.38,0,0,0,27.34,0v17.71s.3,1,.31,1l5.88,6.54A95.58,95.58,0,0,1,89.29,253.89Zm76-22.39c-2,2-4,4-6.09,5.82l-1,.88a105.89,105.89,0,0,1-31.6,18.8l-1,.38c-2.46.9-5,1.72-7.5,2.44l-1-.63-6.09-6.76c2.06-.47,4.08-1,6.09-1.62l1-.3q3.83-1.2,7.5-2.7l1-.41a97.26,97.26,0,0,0,31.6-21.4l1-1q3.21-3.34,6.09-7Zm0-15.15q-2.88,3.74-6.09,7.16l-1,1.06a96.2,96.2,0,0,1-31.6,21.75l-1,.41q-3.67,1.52-7.5,2.73l-1,.31c-2.26.68-4.54,1.28-6.86,1.8l-5.84-6.48a88.06,88.06,0,0,0,12.7-3.2l1-.34c2.55-.88,5.06-1.88,7.5-3l1-.46a89,89,0,0,0,31.6-24.87l1-1.27a89.75,89.75,0,0,0,6.09-9Zm0-15.33a88.52,88.52,0,0,1-6.09,9.3l-1,1.3A87.83,87.83,0,0,1,126.64,237l-1,.47c-2.44,1.12-5,2.13-7.5,3l-1,.35c-2.46.83-5,1.55-7.51,2.16V224.94a69.47,69.47,0,0,0,7.51-2.77l1-.46a69.56,69.56,0,0,0,7.5-4l1-.65a70,70,0,0,0,31.6-47.38l0-.51a70,70,0,0,0,.95-11.1V158c0-.07,0-.14,0-.22a70.07,70.07,0,0,0-49.61-66.92V73c2.54.61,5.05,1.32,7.51,2.15l1,.35c2.55.9,5.06,1.91,7.5,3l1,.47a87.94,87.94,0,0,1,31.6,25.37l1,1.3a88.52,88.52,0,0,1,6.09,9.3Zm0-88a88.75,88.75,0,0,0-6.09-9l-1-1.27a89,89,0,0,0-31.6-24.86l-1-.47c-2.44-1.11-5-2.1-7.5-3l-1-.34A86.75,86.75,0,0,0,104.44,71l5.84-6.49c2.32.52,4.6,1.12,6.86,1.81l1,.3q3.83,1.22,7.5,2.73l1,.41a96.2,96.2,0,0,1,31.6,21.75l1,1.06c2.14,2.28,4.17,4.68,6.09,7.16Zm0-15q-2.88-3.64-6.09-7l-1-1a97.26,97.26,0,0,0-31.6-21.4l-1-.41q-3.67-1.5-7.5-2.7l-1-.3c-2-.6-4-1.14-6.09-1.62l6.09-6.76,1-.63c2.54.72,5,1.54,7.5,2.44l1,.38a106.1,106.1,0,0,1,31.6,18.8l1,.88c2.1,1.86,4.14,3.8,6.09,5.82Zm7.08,159-6.08,6.09v-31.2q3.18-3.33,6.08-6.92Zm0-33.62c-1.92,2.44-4,4.79-6.08,7.06V216.69a99.28,99.28,0,0,0,6.08-9Zm0-17.64a95.4,95.4,0,0,1-6.08,9.27V201.28A88.72,88.72,0,0,0,172.41,188Zm0-20.81a87,87,0,0,1-6.08,14.26V116.82a87,87,0,0,1,6.08,14.26Zm0-56.95a88.83,88.83,0,0,0-6.08-13.25V101a96.63,96.63,0,0,1,6.08,9.27Zm0-19.69a98,98,0,0,0-6.08-9V85.58c2.12,2.26,4.16,4.61,6.08,7Zm0-17.27q-2.9-3.58-6.08-6.92V52.92L172.41,59Zm1,43.33a87.38,87.38,0,0,1,0,47.29Zm0,50.74a88.26,88.26,0,0,0,0-54.18V112.05a95.71,95.71,0,0,1,0,91.93Zm0,20.92a96.7,96.7,0,0,0,0-96V93.93a105.56,105.56,0,0,1,0,128.17Z"/><path class="cls-5" d="M120.92,166.38c-2.32,3.91-10,15.69-14.58,18.7a23.33,23.33,0,0,1-11.64,3.51,8.9,8.9,0,0,1-5.85-1.75c-1.92-1.59-3.18-5.2-3.07-8.8.07-2.69.93-4.77,2.43-5.85a.91.91,0,0,1,.33-.15c1.47-.2,2.73-.43,3.31-.55a.76.76,0,0,1,.91.6c.69,3.33,1.81,5.12,4.11,6.44,4.29-3.31,7.16-7,8.32-10.77l.24-.75c1.17-3.54,3.13-9.46-2.9-15.74-8-8.39-15.35-11.25-21.68-8.42-6.93,3.09-10.13,6.89-10.72,7.63a.76.76,0,0,1-1.07.12A7.56,7.56,0,0,1,66.2,147a.77.77,0,0,1,.21-.78c.57-.52,14.08-12.66,29.73-12.66a27.31,27.31,0,0,1,16.14,5.18,1.54,1.54,0,0,0,1.21-.56c.57-.62,1.5-2.23,1.2-6.11-.43-5.65-2.26-9.31-17-18.18C91.85,119.6,84.53,126,79.16,126a5.63,5.63,0,0,1-3.89-1.46,9.14,9.14,0,0,1-3-6.92c0-4.06,2.28-8.63,6.17-12.21a14.84,14.84,0,0,0,1.09-1.11,15,15,0,0,0-1.94.71c-4.67,2-13.92,11.61-14.92,22.93-1,11.61,3.11,18.86,3.14,18.93l.31.61a.77.77,0,0,1-.23,1c-2.82,2.11-16.58,13.81-11.75,37C58.8,208,89,215,99.4,215A12.15,12.15,0,0,0,101,215a17.75,17.75,0,0,0,2.37-.38c-.94-.46-2.78-1.08-4.44-1.65l-3.48-1.21c-8.17-3-23-10.19-30.22-25-6.4-13,.53-28.34,2.83-32.74a3,3,0,0,1,.18-.36.91.91,0,0,1,.62-.44c.24,0,.33.14.49.32l.24.25,3.89,4.16c.17.17.45.49.4.72a18.71,18.71,0,0,0,.71,8.07,3.32,3.32,0,0,0,.22.53.77.77,0,0,1,.09.36c0,2.26.08,13.92,3.06,20.79,3.14,7.23,5.92,12,15.71,12,11.5,0,20-6.07,26.74-19.12,4.93-9.52,5.37-22.39,5-29.58C124.64,156.2,123.28,162.41,120.92,166.38Zm-45.37-9.49c3.16-3.55,11.1-8,16.79-5.43,6.9,3.18,10.6,12,5.43,16.32-3.51,2.9-11.09,4.17-14,3.12C80,169.53,73.19,167.27,75.55,156.89Z"/><path class="cls-5" d="M7.72,239.49v2l-.5-.44-.16.19,3,2.59.17-.18L9.45,243v-2.41h1.23v1.12l-.66.57.17.18,1.43-1.25-.17-.18-.52.46v-2l.52.46.17-.18-1.5-1.32-.16.19.72.63v1.11H9.45V238l.69-.61-.16-.18-3,2.6.17.19Zm1.48,3.33L8,241.75v-1.12H9.2Zm0-2.44H8v-1.11L9.2,238.2Z"/></g></g><g class="cls-2"><path class="cls-1" d="M61.44,54.91V-3.83h-1v59c-2.54.71-5,1.52-7.5,2.41V-1.49h-1V58a107.06,107.06,0,0,0-31.6,18.57l-1,.85q-3.15,2.73-6.09,5.72V51.92l6.09-6.08,1-1.05V-1.49h-1V44.42l-6.09,6.09v-52h-1v53L6.17,57.6l-1,.9V92.29a106.57,106.57,0,0,0,0,131.45V257.4l1,1,6.08,6.08v53h1v-52l6.09,6.09v45.92h1v-46.3l-1-1-6.09-6.08V232.93q2.94,3,6.09,5.73l1,.85a107,107,0,0,0,31.6,18.56v59.46h1V258.44c2.46.89,5,1.7,7.5,2.41v58.47h1v-58.2l.44-.91,6.78-7.54a97,97,0,0,0,41.26,0l6.79,7.54.43.92v58.19h1V260.85q3.81-1.07,7.5-2.41v59.09h1V258.07a106.9,106.9,0,0,0,31.6-18.56l1-.85q3.15-2.74,6.09-5.73v31.18l-6.09,6.08-1,1.08v46.26h1V271.61l6.09-6.09v52h1v-53l6.08-6.08,1-1V223.74a106.57,106.57,0,0,0,0-131.45V58.62l-1-1-6.08-6.09v-53h-1v52l-6.09-6.09V-1.49h-1V44.78l1,1.06,6.09,6.08V83.1q-2.94-3-6.09-5.73l-1-.84A106.72,106.72,0,0,0,126.64,58V-1.49h-1V57.59c-2.46-.89-5-1.7-7.5-2.41v-59h-1V54.91a9.65,9.65,0,0,0-.43.92l-6.79,7.53a97,97,0,0,0-41.26,0l-6.78-7.53S61.45,54.9,61.44,54.91ZM6.17,59l6.08-6.09v31.2Q9.07,87.45,6.17,91Zm6.08,26.57V99.35a96.54,96.54,0,0,0-6.08,9V92.63C8.09,90.19,10.13,87.84,12.25,85.58ZM172.41,185a87,87,0,0,1-6.08,14.26V116.82a87,87,0,0,1,6.08,14.26Zm1-50.58a87.38,87.38,0,0,1,0,47.29ZM165.33,201a88.52,88.52,0,0,1-6.09,9.3l-1,1.3A87.83,87.83,0,0,1,126.64,237l-1,.47c-2.44,1.12-5,2.13-7.5,3l-1,.35c-2.46.83-5,1.55-7.51,2.16V224.94a69.47,69.47,0,0,0,7.51-2.77l1-.46a69.56,69.56,0,0,0,7.5-4l1-.65a70,70,0,0,0,31.6-47.38l0-.51a70,70,0,0,0,.95-11.1V158c0-.07,0-.14,0-.22a70.07,70.07,0,0,0-49.61-66.92V73c2.54.61,5.05,1.32,7.51,2.15l1,.35c2.55.9,5.06,1.91,7.5,3l1,.47a87.94,87.94,0,0,1,31.6,25.37l1,1.3a88.52,88.52,0,0,1,6.09,9.3Zm-145-43.68c0-.74,0-1.48.06-2.21a69,69,0,0,1,31.53-55l1-.65a67.58,67.58,0,0,1,7.5-4l1-.46A70.35,70.35,0,0,1,69,92.12l1-.28c1.52-.45,3.07-.84,4.64-1.19l1-.22a69.38,69.38,0,0,1,27.34,0l1,.22c1.58.35,3.13.75,4.67,1.2l1,.28A69.8,69.8,0,0,1,117.14,95l1,.45a69.36,69.36,0,0,1,7.5,4l1,.65a69,69,0,0,1,31.54,55.08c0,.66,0,1.32,0,2,0,.24,0,.47,0,.7a69,69,0,0,1-137.9,0C20.35,157.67,20.35,157.51,20.35,157.34Zm-1,.4c0,.07,0,.14,0,.21v.19a69.44,69.44,0,0,0,.95,11.06l0,.53a70.08,70.08,0,0,0,31.6,47.38l1,.65a69.56,69.56,0,0,0,7.5,4l1,.46A72.22,72.22,0,0,0,69,225V243q-3.84-.92-7.54-2.16l-1-.35c-2.55-.9-5.06-1.91-7.5-3l-1-.47a87.83,87.83,0,0,1-31.6-25.37l-1-1.3a88.52,88.52,0,0,1-6.09-9.3V115a88.65,88.65,0,0,1,6.09-9.31l1-1.3A87.94,87.94,0,0,1,51.94,79l1-.47c2.44-1.12,5-2.13,7.5-3l1-.35Q65.15,73.94,69,73V90.81A70.08,70.08,0,0,0,19.34,157.74ZM6.17,131.09a87,87,0,0,1,6.08-14.26v82.38a86.7,86.7,0,0,1-6.08-14.27Zm-1,50.56a87.57,87.57,0,0,1,0-47.27Zm1-53.65V110.27A98.57,98.57,0,0,1,12.25,101v13.75A89.29,89.29,0,0,0,6.17,128Zm-1,2.93a88.43,88.43,0,0,0,0,54.17V204a95.69,95.69,0,0,1,0-91.92Zm1,57.1a88.83,88.83,0,0,0,6.08,13.25V215a98.57,98.57,0,0,1-6.08-9.27Zm7.08,15a88.75,88.75,0,0,0,6.09,9l1,1.27a89,89,0,0,0,31.6,24.87l1,.46c2.44,1.11,5,2.11,7.5,3l1,.34a88.06,88.06,0,0,0,12.7,3.2l-5.84,6.48c-2.32-.52-4.6-1.12-6.86-1.81l-1-.3c-2.54-.81-5-1.72-7.5-2.73l-1-.41a96.3,96.3,0,0,1-31.6-21.75l-1-1.06q-3.21-3.42-6.09-7.16ZM70,243.24v-18c1.53.44,3.07.84,4.64,1.17v17.75C73.06,243.89,71.51,243.58,70,243.24Zm38.65-18v18c-1.54.35-3.1.66-4.67.92V226.4C105.54,226.07,107.09,225.67,108.63,225.23Zm8.51,16.66,1-.34c2.55-.88,5.06-1.88,7.5-3l1-.46a89,89,0,0,0,31.6-24.87l1-1.27a89.75,89.75,0,0,0,6.09-9v13.34q-2.88,3.74-6.09,7.16l-1,1.06a96.2,96.2,0,0,1-31.6,21.75l-1,.41q-3.67,1.52-7.5,2.73l-1,.31c-2.26.68-4.54,1.28-6.86,1.8l-5.84-6.48A88.06,88.06,0,0,0,117.14,241.89Zm49.19-40.61A88.72,88.72,0,0,0,172.41,188v17.72a95.4,95.4,0,0,1-6.08,9.27Zm7.08-16.17a88.26,88.26,0,0,0,0-54.18V112.05a95.71,95.71,0,0,1,0,91.93Zm-1-57.11a88.83,88.83,0,0,0-6.08-13.25V101a96.63,96.63,0,0,1,6.08,9.27Zm-7.08-15a88.75,88.75,0,0,0-6.09-9l-1-1.27a89,89,0,0,0-31.6-24.86l-1-.47c-2.44-1.11-5-2.1-7.5-3l-1-.34A86.75,86.75,0,0,0,104.44,71l5.84-6.49c2.32.52,4.6,1.12,6.86,1.81l1,.3q3.83,1.22,7.5,2.73l1,.41a96.2,96.2,0,0,1,31.6,21.75l1,1.06c2.14,2.28,4.17,4.68,6.09,7.16ZM108.63,72.8V90.53c-1.54-.44-3.09-.84-4.67-1.17V71.88C105.53,72.15,107.09,72.45,108.63,72.8ZM70,90.53V72.8c1.53-.35,3.08-.65,4.64-.92V89.36C73.05,89.69,71.51,90.09,70,90.53ZM61.44,74.14l-1,.34c-2.55.89-5.06,1.88-7.5,3l-1,.47a89,89,0,0,0-31.6,24.86l-1,1.27a88.75,88.75,0,0,0-6.09,9V99.68q2.88-3.72,6.09-7.16l1-1a96.33,96.33,0,0,1,31.6-21.76l1-.41c2.45-1,5-1.92,7.5-2.72l1-.31C63.7,65.58,66,65,68.3,64.46L74.14,71A86.75,86.75,0,0,0,61.44,74.14ZM-16.51,158A105.29,105.29,0,0,1,5.17,93.93V110a96.68,96.68,0,0,0,0,96V222.1A105.26,105.26,0,0,1-16.51,158ZM6.17,223.4V207.72a98,98,0,0,0,6.08,9v13.76C10.13,228.19,8.09,225.84,6.17,223.4Zm6.08,39.71L6.17,257V225q2.89,3.58,6.08,6.92Zm49.19-3.92-1,.63c-2.54-.72-5-1.54-7.5-2.44l-1-.38a106.1,106.1,0,0,1-31.6-18.8l-1-.88q-3.15-2.79-6.09-5.82V218q2.88,3.65,6.09,7l1,1a97.26,97.26,0,0,0,31.6,21.4l1,.41c2.45,1,5,1.9,7.5,2.7l1,.3c2,.6,4,1.15,6.09,1.62Zm27.85-5.3a95.58,95.58,0,0,1-19.86-2.07l5.88-6.54s.32-1,.31-1V226.61a69.38,69.38,0,0,0,27.34,0v17.71s.3,1,.31,1l5.88,6.54A95.58,95.58,0,0,1,89.29,253.89Zm70-16.57-1,.88a105.89,105.89,0,0,1-31.6,18.8l-1,.38c-2.46.9-5,1.72-7.5,2.44l-1-.63-6.09-6.76c2.06-.47,4.08-1,6.09-1.62l1-.3q3.83-1.2,7.5-2.7l1-.41a97.26,97.26,0,0,0,31.6-21.4l1-1q3.21-3.34,6.09-7V231.5C163.38,233.52,161.34,235.46,159.24,237.32ZM172.41,257l-6.08,6.09v-31.2q3.18-3.33,6.08-6.92Zm-6.08-26.56V216.69a97.24,97.24,0,0,0,6.08-9V223.4C170.49,225.84,168.45,228.19,166.33,230.46ZM195.09,158a105.26,105.26,0,0,1-21.68,64.08V206a96.7,96.7,0,0,0,0-96V93.93A105.26,105.26,0,0,1,195.09,158ZM172.41,92.63v15.68a96.06,96.06,0,0,0-6.08-9V85.58C168.45,87.84,170.49,90.19,172.41,92.63Zm-6.08-39.71L172.41,59V91q-2.9-3.58-6.08-6.92Zm-49.19,3.92,1-.63c2.54.72,5,1.54,7.5,2.44l1,.38a106.1,106.1,0,0,1,31.6,18.8l1,.88c2.1,1.86,4.14,3.8,6.09,5.82V98.05q-2.88-3.64-6.09-7l-1-1a97.26,97.26,0,0,0-31.6-21.4l-1-.41q-3.67-1.5-7.5-2.7l-1-.3c-2-.6-4-1.14-6.09-1.62Zm-27.85,5.3a96.26,96.26,0,0,1,19.86,2.07l-5.88,6.54s-.32,1-.31,1V89.15a69.89,69.89,0,0,0-27.34,0V71.71s-.3-1-.31-1l-5.88-6.54A96.26,96.26,0,0,1,89.29,62.14Zm-27.85-5.3,6.09,6.76q-3.07.72-6.09,1.62l-1,.3c-2.54.8-5,1.7-7.5,2.7l-1,.41A97.26,97.26,0,0,0,20.34,90l-1,1q-3.21,3.34-6.09,7V84.53q2.94-3,6.09-5.82l1-.87A105.92,105.92,0,0,1,51.94,59l1-.38c2.46-.9,5-1.72,7.5-2.44Z"/></g><rect class="cls-5" x="-5.67" y="-5.67" width="189.92" height="45.68"/><polygon class="cls-6" points="184.25 -5.67 121.97 -5.67 143.03 20.5 184.25 20.5 184.25 -5.67"/><polygon class="cls-6" points="-5.67 -5.67 56.62 -5.67 35.55 20.5 -5.67 20.5 -5.67 -5.67"/><polygon class="cls-3" points="122.48 -5.67 121.96 -5.67 121.5 -5.29 142.79 21 184.25 21 184.25 20 143.27 20 122.48 -5.67"/><polygon class="cls-3" points="56.1 -5.67 35.31 20 -5.67 20 -5.67 21 35.79 21 57.08 -5.29 56.62 -5.67 56.1 -5.67"/><path class="cls-3" d="M48.26,16.2h2.41v.57H48.81v.75H49.9v.57H48.81v.83H50.7v.63H48.26Z"/><path class="cls-3" d="M51.7,16.2h.44l1.11,2,1.09-2h.44v3.35h-.51V17.48c0-.07,0-.19,0-.36a2.78,2.78,0,0,1-.14.35l-.88,1.67h-.11l-.89-1.68a2.18,2.18,0,0,1-.14-.34c0,.14,0,.25,0,.36v2.07H51.7Z"/><path class="cls-3" d="M55.93,16.2h2.41v.57H56.48v.75h1.08v.57H56.48v.83h1.88v.63H55.93Z"/><path class="cls-3" d="M59.37,16.2h2c.36,0,.53.18.53.65v.78c0,.47-.17.65-.53.65h-.31l1.08,1.27h-.78l-1-1.27h-.52v1.27h-.54Zm.54.58v.93h1.23c.17,0,.25-.05.25-.27V17c0-.22-.08-.26-.25-.26Z"/><path class="cls-3" d="M63.53,16.8v2.12h1.71v-.75h-.9V17.6h1.43v1.15c0,.63-.14.8-.58.8H63.56c-.44,0-.58-.17-.58-.8V17c0-.63.14-.79.58-.79h1.63c.43,0,.58.15.58.76V17l-.53.13V16.8Z"/><path class="cls-3" d="M66.93,16.2h2.41v.57H67.48v.75h1.08v.57H67.48v.83h1.88v.63H66.93Z"/><path class="cls-3" d="M70.37,16.2h.37l1.66,2a3.32,3.32,0,0,1,.26.36c0-.28,0-.47,0-.57V16.2h.49v3.35h-.37L71,17.48a3.39,3.39,0,0,1-.2-.28q0,.39,0,.54v1.81h-.49Z"/><path class="cls-3" d="M74.83,16.8v2.12h1.48V18.2l.55.16v.39c0,.63-.15.8-.59.8h-1.4c-.45,0-.59-.17-.59-.8V17c0-.63.14-.79.59-.79h1.4c.44,0,.59.16.59.79v.32l-.55.12V16.8Z"/><path class="cls-3" d="M78.56,18.05,77.33,16.2h.73l.81,1.28.81-1.28h.65L79.11,18v1.52h-.55Z"/><path class="cls-3" d="M82.73,16.2h2c.36,0,.53.18.53.65v.78c0,.47-.17.65-.53.65h-.31l1.09,1.27h-.78l-.95-1.27h-.52v1.27h-.54Zm.54.58v.93H84.5c.17,0,.24-.05.24-.27V17c0-.22-.07-.26-.24-.26Z"/><path class="cls-3" d="M86.38,16.2h2.41v.57H86.93v.75H88v.57H86.93v.83h1.89v.63H86.38Z"/><path class="cls-3" d="M89.83,16.2h.54v3.35h-.54Z"/><path class="cls-3" d="M91.57,16.2H92l1.65,2a2.42,2.42,0,0,1,.27.36c0-.28,0-.47,0-.57V16.2h.49v3.35H94l-1.73-2.07a3.39,3.39,0,0,1-.2-.28q0,.39,0,.54v1.81h-.5Z"/><path class="cls-3" d="M95.54,16.2h2.38v.58H96.09v.88h1v.61h-1v1.28h-.55Z"/><path class="cls-3" d="M99.13,16.2h1.74c.44,0,.58.16.58.79v1.76c0,.63-.14.8-.58.8H99.13c-.44,0-.58-.17-.58-.8V17C98.55,16.36,98.69,16.2,99.13,16.2Zm1.77,2.72V16.8H99.1v2.12Z"/><path class="cls-3" d="M102.6,16.2h2c.36,0,.53.18.53.65v.78c0,.47-.17.65-.53.65h-.31l1.09,1.27h-.79l-1-1.27h-.52v1.27h-.54Zm.54.58v.93h1.23c.17,0,.25-.05.25-.27V17c0-.22-.08-.26-.25-.26Z"/><path class="cls-3" d="M106.76,16.8v2.12h1.48V18.2l.54.16v.39c0,.63-.14.8-.58.8h-1.41c-.44,0-.58-.17-.58-.8V17c0-.63.14-.79.58-.79h1.41c.44,0,.58.16.58.79v.32l-.54.12V16.8Z"/><path class="cls-3" d="M109.91,16.2h2.41v.57h-1.86v.75h1.09v.57h-1.09v.83h1.89v.63h-2.44Z"/><path class="cls-3" d="M113.35,16.2h.44l1.11,2,1.09-2h.44v3.35h-.51V17.48c0-.07,0-.19,0-.36a2.78,2.78,0,0,1-.14.35l-.88,1.67h-.11l-.89-1.68a2.18,2.18,0,0,1-.14-.34c0,.14,0,.25,0,.36v2.07h-.44Z"/><path class="cls-3" d="M117.58,16.2H120v.57h-1.86v.75h1.08v.57h-1.08v.83H120v.63h-2.43Z"/><path class="cls-3" d="M121,16.2h.37l1.66,2a3.38,3.38,0,0,1,.27.36q0-.42,0-.57V16.2h.5v3.35h-.38l-1.73-2.07c-.06-.09-.13-.17-.19-.28,0,.26,0,.44,0,.54v1.81H121Z"/><path class="cls-3" d="M126.08,19.55h-.55V16.8h-1.08v-.6h2.71v.6h-1.08Z"/><path class="cls-3" d="M128.33,16.78v.72h1.47c.44,0,.59.16.59.79v.46c0,.63-.15.8-.59.8h-1.45c-.45,0-.59-.17-.59-.8v-.09l.48-.14v.4h1.67v-.77h-1.47c-.45,0-.59-.16-.59-.79V17c0-.63.14-.79.59-.79h1.33c.42,0,.59.15.59.73V17l-.49.17v-.39Z"/><path class="cls-3" d="M47.66,20.31v-.45h83.26v.45Z"/><path class="cls-7" d="M71.21,32,69.82,28.4h.87l.92,2.43,1-2.43h.59l1,2.43L75,28.4h.75L74.37,32H73.8l-1-2.5-1,2.5Z"/><path class="cls-7" d="M76.69,32v-3h.72v3Z"/><path class="cls-7" d="M78.73,32v-3h.73v2.4h2.32V32Z"/><path class="cls-7" d="M82.59,32v-3h2a2.61,2.61,0,0,1,1,.17,1.37,1.37,0,0,1,.6.51,1.52,1.52,0,0,1,.2.79,1.29,1.29,0,0,1-.49,1.11A2.37,2.37,0,0,1,84.4,32Zm.73-.56h.93a2.8,2.8,0,0,0,.77-.08.82.82,0,0,0,.45-.3,1,1,0,0,0,.15-.59c0-.6-.34-.9-1-.9H83.32Z"/><path class="cls-7" d="M93.45,29.05H91.19v2.29h2.26v-.78l.84.18v.42a1.25,1.25,0,0,1-.08.53.45.45,0,0,1-.27.25,1.54,1.54,0,0,1-.54.08H91.24A1.86,1.86,0,0,1,90.7,32a.46.46,0,0,1-.27-.26,1.25,1.25,0,0,1-.08-.53v-1.9a1.25,1.25,0,0,1,.08-.53.42.42,0,0,1,.27-.25,1.54,1.54,0,0,1,.54-.08H93.4a1.54,1.54,0,0,1,.54.08.45.45,0,0,1,.27.25,1.25,1.25,0,0,1,.08.53v.34l-.84.14Z"/><path class="cls-7" d="M95.31,32l1.76-3h.69l1.79,3h-.81l-.38-.65h-2L96,32Zm1.4-1.19h1.36l-.69-1.24Z"/><path class="cls-7" d="M100.28,32v-3H103a.84.84,0,0,1,.53.13.54.54,0,0,1,.16.44v.7a.54.54,0,0,1-.16.44.86.86,0,0,1-.53.13h-.41L104,32h-1l-1.24-1.12H101V32Zm2.36-2.45H101v.82h1.64a.49.49,0,0,0,.25-.05.2.2,0,0,0,.08-.19v-.34c0-.1,0-.16-.08-.19A.49.49,0,0,0,102.64,29.57Z"/><path class="cls-7" d="M104.83,32v-3h2a2.55,2.55,0,0,1,1,.17,1.27,1.27,0,0,1,.6.51,1.43,1.43,0,0,1,.2.79,1.31,1.31,0,0,1-.48,1.11,2.42,2.42,0,0,1-1.48.38Zm.73-.56h.93a2.8,2.8,0,0,0,.77-.08.82.82,0,0,0,.45-.3,1,1,0,0,0,.15-.59c0-.6-.34-.9-1-.9h-1.27Z"/><path class="cls-5" d="M10.3,47.74H7.6v1.11h2.57a1.5,1.5,0,0,1,.62.11.58.58,0,0,1,.32.36,2.42,2.42,0,0,1,.09.75v.71a2.49,2.49,0,0,1-.09.76.6.6,0,0,1-.32.36,1.51,1.51,0,0,1-.62.1H7.62A1.46,1.46,0,0,1,7,51.9a.6.6,0,0,1-.32-.36,2.18,2.18,0,0,1-.1-.76v-.14l.85-.22V51h2.92V49.85H7.78a1.46,1.46,0,0,1-.61-.1.63.63,0,0,1-.32-.37,2.38,2.38,0,0,1-.09-.75v-.57a2.38,2.38,0,0,1,.09-.75.63.63,0,0,1,.32-.37,1.65,1.65,0,0,1,.61-.1h2.35a1.44,1.44,0,0,1,.6.1.63.63,0,0,1,.32.34,1.8,1.8,0,0,1,.1.69v.11l-.85.25Z"/><path class="cls-5" d="M12.9,52V47.77h3.63v.76h-2.8v.91h1.63v.74H13.73v1h2.84V52Z"/><path class="cls-5" d="M19.78,48.54V52H19V48.54H17.32v-.77h4.09v.77Z"/><path class="cls-5" d="M23.3,47.77v3.44h2.35V47.77h.84V51a1.6,1.6,0,0,1-.09.61.49.49,0,0,1-.27.31,1.54,1.54,0,0,1-.54.08H23.35a1.52,1.52,0,0,1-.53-.08.52.52,0,0,1-.27-.31,1.87,1.87,0,0,1-.08-.61V47.77Z"/><path class="cls-5" d="M28,52V47.77H31a.86.86,0,0,1,.6.19.88.88,0,0,1,.19.64v.94a.7.7,0,0,1-.79.82H28.8V52Zm2.7-3.49H28.8v1.12h1.89a.41.41,0,0,0,.28-.08q.09-.06.09-.27v-.43a.35.35,0,0,0-.09-.28A.51.51,0,0,0,30.69,48.51Z"/><path class="cls-5" d="M33.87,47.76H34a.14.14,0,0,1,.15.09.63.63,0,0,1,0,.28v.81c0,.18,0,.28-.05.32a.55.55,0,0,1-.28.05h-.72a.14.14,0,0,1-.15-.08.68.68,0,0,1,0-.29v-.81c0-.17,0-.28.06-.31a.42.42,0,0,1,.28-.06Zm0,2.7H34c.08,0,.13,0,.15.08a.63.63,0,0,1,0,.28v.81c0,.18,0,.28-.05.32a.55.55,0,0,1-.28,0h-.72a.14.14,0,0,1-.15-.08.71.71,0,0,1,0-.29v-.81c0-.17,0-.28.06-.31s.13,0,.28,0Z"/><path class="cls-5" d="M39.21,46.93h2c.95,0,1.14.39,1.14,1.21,0,.63-.05,1-.52,1.18h0c.55.14.62.52.62,1.34S42.17,52,41.2,52h-2Zm.49,2.2h1.49c.56,0,.66-.33.66-.85s0-.86-.63-.86H39.7Zm0,2.38h1.4c.75,0,.85-.22.85-.94s-.1-1-.85-1H39.7Z"/><path class="cls-5" d="M43.6,50.32v.33c0,.78.13,1,.75,1s.87,0,.87-.71h.45v.13c0,.72-.18,1-1.25,1s-1.31-.39-1.31-1.84.23-1.84,1.31-1.84,1.25.43,1.25,1.4v.54Zm1.62-.45c0-.75,0-1.09-.81-1.09s-.81.34-.81,1.09Z"/><path class="cls-5" d="M46.66,48.84h-.45v-.41h.45v-.64c0-.66.3-.91.93-.91h.31v.4h-.29c-.3,0-.51.1-.51.51v.64h.79v.41H47.1V52h-.44Z"/><path class="cls-5" d="M49.48,48.38c1.17,0,1.31.42,1.31,1.84s-.15,1.84-1.31,1.84-1.32-.37-1.32-1.84S48.3,48.38,49.48,48.38Zm0,3.27c.71,0,.82-.1.82-1.43s-.11-1.44-.82-1.44-.83.11-.83,1.44S48.76,51.65,49.48,51.65Z"/><path class="cls-5" d="M51.47,48.43h.45v.44h0a.78.78,0,0,1,.83-.49c.57,0,.83.24.83.95v.29h-.41c0-.66-.07-.84-.58-.84s-.68.25-.68.74V52h-.45Z"/><path class="cls-5" d="M54.49,50.32v.33c0,.78.13,1,.75,1s.87,0,.87-.71h.45v.13c0,.72-.17,1-1.25,1S54,51.67,54,50.22s.24-1.84,1.31-1.84,1.25.43,1.25,1.4v.54Zm1.62-.45c0-.75,0-1.09-.81-1.09s-.81.34-.81,1.09Z"/><path class="cls-5" d="M59.29,48.43h.45v.45h0a1,1,0,0,1,1-.5c.92,0,1.2.44,1.2,1.84s-.28,1.84-1.27,1.84a.86.86,0,0,1-.92-.51h0v1.7h-.45Zm1.3.39c-.64,0-.85.31-.85,1.19,0,1.33.1,1.6.85,1.6s.86-.16.86-1.39S61.29,48.82,60.59,48.82Z"/><path class="cls-5" d="M62.73,46.93h.45V52h-.45Z"/><path class="cls-5" d="M66.14,51.69a1.19,1.19,0,0,1-1,.37c-.91,0-1.11-.44-1.11-1.12s.16-1.12,1.11-1.12c.68,0,.83.08,1,.32h0v-.65c0-.53,0-.71-.79-.71s-.75.18-.75.64h-.44v-.19c0-.43.1-.85,1.22-.85s1.21.32,1.21,1V52h-.4Zm-.86-.08c.6,0,.86-.15.86-.69s-.26-.7-.86-.7-.85.15-.85.7S64.69,51.61,65.28,51.61Z"/><path class="cls-5" d="M69.26,49.62c0-.65-.13-.84-.72-.84s-.83.11-.83,1.44.11,1.43.83,1.43.78-.17.78-.94h.45v.23c0,.92-.43,1.12-1.23,1.12-1.18,0-1.32-.39-1.32-1.84s.24-1.84,1.32-1.84,1.17.3,1.17,1.24Z"/><path class="cls-5" d="M70.51,46.93H71v.6h-.45Zm0,1.5H71V52h-.45Z"/><path class="cls-5" d="M71.82,48.43h.45v.46h0a1,1,0,0,1,1-.51c.83,0,1,.41,1,1.1V52h-.45V49.59c0-.42-.09-.81-.68-.81s-.92.21-.92,1V52h-.45Z"/><path class="cls-5" d="M77.24,51.36h0a.88.88,0,0,1-.93.52c-1.15,0-1.23-.77-1.23-1.75s.08-1.75,1.23-1.75a.86.86,0,0,1,.93.53h0v-.48h.45V52c0,1.06-.33,1.35-1.42,1.35-.7,0-1.13-.25-1.11-1h.45c0,.42.18.54.75.54.73,0,.88-.15.88-1Zm-.91.07c.73,0,.91-.29.91-1.3s-.18-1.31-.91-1.31-.78.36-.78,1.31S75.61,51.43,76.33,51.43Z"/><path class="cls-5" d="M80.62,48.84h-.44v-.41h.44v-.64c0-.66.31-.91.93-.91h.32v.4h-.3c-.29,0-.5.1-.5.51v.64h.78v.41h-.78V52h-.45Z"/><path class="cls-5" d="M83.44,48.38c1.18,0,1.32.42,1.32,1.84s-.16,1.84-1.32,1.84-1.32-.37-1.32-1.84S82.26,48.38,83.44,48.38Zm0,3.27c.71,0,.83-.1.83-1.43s-.12-1.44-.83-1.44-.83.11-.83,1.44S82.73,51.65,83.44,51.65Z"/><path class="cls-5" d="M85.43,48.43h.45v.44h0a.77.77,0,0,1,.82-.49c.57,0,.83.24.83.95v.29h-.41c0-.66-.07-.84-.58-.84s-.68.25-.68.74V52h-.45Z"/><path class="cls-5" d="M90,49.62c0-.65-.13-.84-.72-.84s-.83.11-.83,1.44.11,1.43.83,1.43.78-.17.78-.94h.45v.23c0,.92-.43,1.12-1.23,1.12-1.18,0-1.32-.39-1.32-1.84s.24-1.84,1.32-1.84,1.17.3,1.17,1.24Z"/><path class="cls-5" d="M91.56,50.32v.33c0,.78.13,1,.75,1s.87,0,.87-.71h.45v.13c0,.72-.17,1-1.24,1s-1.32-.39-1.32-1.84.24-1.84,1.32-1.84,1.24.43,1.24,1.4v.54Zm1.62-.45c0-.75,0-1.09-.81-1.09s-.81.34-.81,1.09Z"/><path class="cls-5" d="M94.81,50.9c0,.61.1.75.77.75s.85-.1.85-.7-.05-.51-.89-.56-1.15-.18-1.15-1,.14-1,1.21-1,1.25.23,1.25,1H96.4c0-.54-.15-.58-.82-.58s-.74.06-.74.62.07.54.82.59c1.06.06,1.22.14,1.22.93s-.16,1.14-1.32,1.14c-.82,0-1.19-.1-1.19-1.16Z"/><path class="cls-5" d="M98,51.36h.49v.76c0,.6-.17.64-.53.64v-.28c.19,0,.25,0,.25-.48H98Z"/><path class="cls-5" d="M101.93,50.32v.33c0,.78.14,1,.75,1s.88,0,.88-.71H104v.13c0,.72-.18,1-1.25,1s-1.32-.39-1.32-1.84.24-1.84,1.32-1.84,1.25.43,1.25,1.4v.54Zm1.63-.45c0-.75,0-1.09-.81-1.09s-.82.34-.82,1.09Z"/><path class="cls-5" d="M106.84,51.69a1.18,1.18,0,0,1-1,.37c-.91,0-1.11-.44-1.11-1.12s.16-1.12,1.11-1.12c.68,0,.82.08,1,.32h0v-.65c0-.53,0-.71-.79-.71s-.75.18-.75.64h-.45v-.19c0-.43.11-.85,1.22-.85s1.22.32,1.22,1V52h-.41Zm-.85-.08c.59,0,.85-.15.85-.69s-.26-.7-.85-.7-.86.15-.86.7S105.39,51.61,106,51.61Z"/><path class="cls-5" d="M110,49.62c0-.65-.12-.84-.72-.84s-.82.11-.82,1.44.11,1.43.82,1.43.79-.17.79-.94h.45v.23c0,.92-.44,1.12-1.24,1.12-1.17,0-1.31-.39-1.31-1.84s.23-1.84,1.31-1.84,1.17.3,1.17,1.24Z"/><path class="cls-5" d="M111.1,46.93h.44v2h0a1,1,0,0,1,1-.51c.82,0,1,.41,1,1.1V52h-.45V49.59c0-.42-.09-.81-.68-.81s-.93.21-.93,1V52h-.44Z"/><path class="cls-5" d="M116.33,48.43h.44v.45h0a1,1,0,0,1,1-.5c.92,0,1.19.44,1.19,1.84s-.27,1.84-1.26,1.84a.85.85,0,0,1-.92-.51h0v1.7h-.44Zm1.3.39c-.65,0-.86.31-.86,1.19,0,1.33.11,1.6.86,1.6s.85-.16.85-1.39S118.33,48.82,117.63,48.82Z"/><path class="cls-5" d="M119.77,46.93h.45V52h-.45Z"/><path class="cls-5" d="M123.17,51.69a1.17,1.17,0,0,1-1,.37c-.91,0-1.11-.44-1.11-1.12s.16-1.12,1.11-1.12c.68,0,.83.08,1,.32h0v-.65c0-.53,0-.71-.79-.71s-.75.18-.75.64h-.45v-.19c0-.43.11-.85,1.22-.85s1.22.32,1.22,1V52h-.41Zm-.85-.08c.59,0,.85-.15.85-.69s-.26-.7-.85-.7-.86.15-.86.7S121.72,51.61,122.32,51.61Z"/><path class="cls-5" d="M124.44,52.87c.57,0,.66-.11.83-.87h-.2l-1-3.57h.44l.91,3.12h0l.77-3.12h.44l-1,3.94c-.15.63-.42,1-1,1a.66.66,0,0,1-.21,0Z"/><path class="cls-5" d="M127.48,50.32v.33c0,.78.13,1,.75,1s.87,0,.87-.71h.45v.13c0,.72-.17,1-1.25,1S127,51.67,127,50.22s.24-1.84,1.31-1.84,1.25.43,1.25,1.4v.54Zm1.62-.45c0-.75,0-1.09-.81-1.09s-.81.34-.81,1.09Z"/><path class="cls-5" d="M130.29,48.43h.45v.44h0a.78.78,0,0,1,.83-.49c.57,0,.83.24.83.95v.29H132c0-.66-.07-.84-.58-.84s-.68.25-.68.74V52h-.45Z"/><path class="cls-5" d="M136.8,49.62c0-.65-.12-.84-.72-.84s-.82.11-.82,1.44.11,1.43.82,1.43.79-.17.79-.94h.44v.23c0,.92-.43,1.12-1.23,1.12-1.17,0-1.31-.39-1.31-1.84s.23-1.84,1.31-1.84,1.17.3,1.17,1.24Z"/><path class="cls-5" d="M137.94,46.93h.44v2h0a1,1,0,0,1,1-.51c.82,0,1.05.41,1.05,1.1V52H140V49.59c0-.42-.09-.81-.68-.81s-.93.21-.93,1V52h-.44Z"/><path class="cls-5" d="M142.43,48.38c1.18,0,1.32.42,1.32,1.84s-.16,1.84-1.32,1.84-1.32-.37-1.32-1.84S141.25,48.38,142.43,48.38Zm0,3.27c.71,0,.83-.1.83-1.43s-.12-1.44-.83-1.44-.83.11-.83,1.44S141.72,51.65,142.43,51.65Z"/><path class="cls-5" d="M145.68,48.38c1.18,0,1.31.42,1.31,1.84s-.15,1.84-1.31,1.84-1.32-.37-1.32-1.84S144.5,48.38,145.68,48.38Zm0,3.27c.71,0,.82-.1.82-1.43s-.11-1.44-.82-1.44-.83.11-.83,1.44S145,51.65,145.68,51.65Z"/><path class="cls-5" d="M148.11,50.9c0,.61.1.75.77.75s.85-.1.85-.7,0-.51-.89-.56-1.15-.18-1.15-1,.14-1,1.21-1,1.25.23,1.25,1h-.45c0-.54-.15-.58-.82-.58s-.74.06-.74.62.06.54.82.59c1.06.06,1.22.14,1.22.93s-.16,1.14-1.32,1.14c-.82,0-1.19-.1-1.19-1.16Z"/><path class="cls-5" d="M151.34,50.32v.33c0,.78.13,1,.75,1s.88,0,.88-.71h.44v.13c0,.72-.17,1-1.24,1s-1.32-.39-1.32-1.84.24-1.84,1.32-1.84,1.24.43,1.24,1.4v.54Zm1.63-.45c0-.75,0-1.09-.82-1.09s-.81.34-.81,1.09Z"/><path class="cls-5" d="M154.6,50.9c0,.61.09.75.76.75s.85-.1.85-.7-.05-.51-.89-.56-1.14-.18-1.14-1,.14-1,1.2-1,1.25.23,1.25,1h-.45c0-.54-.15-.58-.82-.58s-.74.06-.74.62.07.54.82.59c1.06.06,1.22.14,1.22.93s-.16,1.14-1.31,1.14c-.82,0-1.2-.1-1.2-1.16Z"/><path class="cls-5" d="M160.93,47.42h0l-1,1.33-.33-.31,1.22-1.51h.65V52h-.49Z"/><path class="cls-5" d="M6.48,59.3c0,.61.1.75.77.75s.85-.1.85-.7,0-.51-.9-.56-1.14-.18-1.14-1,.14-1,1.21-1,1.24.23,1.24,1H8.07c0-.54-.15-.58-.82-.58s-.74.06-.74.62.06.54.82.59c1.06.06,1.22.14,1.22.93s-.16,1.14-1.32,1.14c-.82,0-1.2-.1-1.2-1.16Z"/><path class="cls-5" d="M9.28,56.83h.45v.53h0a1,1,0,0,1,.95-.58c.48,0,.84.1,1,.58a1.1,1.1,0,0,1,1.07-.58.93.93,0,0,1,1.07,1V60.4H13.4V58.09c0-.71-.29-.87-.75-.87s-.86.23-.86.93V60.4h-.45V57.93c0-.53-.22-.71-.71-.71-.65,0-.9.4-.9,1.14v2H9.28Z"/><path class="cls-5" d="M16.68,60.09a1.18,1.18,0,0,1-1,.37c-.91,0-1.11-.44-1.11-1.12s.16-1.12,1.11-1.12c.68,0,.82.08,1,.32h0v-.65c0-.53-.05-.71-.79-.71s-.75.18-.75.64h-.45v-.19c0-.43.11-.85,1.22-.85s1.22.32,1.22,1V60.4h-.41ZM15.83,60c.59,0,.85-.15.85-.69s-.26-.7-.85-.7-.86.15-.86.7S15.23,60,15.83,60Z"/><path class="cls-5" d="M18,55.33h.45V60.4H18Z"/><path class="cls-5" d="M19.38,55.33h.44V60.4h-.44Z"/><path class="cls-5" d="M23.88,56.78c1.18,0,1.32.42,1.32,1.84s-.15,1.84-1.32,1.84-1.31-.37-1.31-1.84S22.71,56.78,23.88,56.78Zm0,3.27c.72,0,.83-.1.83-1.43s-.11-1.44-.83-1.44-.82.11-.82,1.44S23.17,60.05,23.88,60.05Z"/><path class="cls-5" d="M25.88,56.83h.45v.44h0a.78.78,0,0,1,.83-.49c.57,0,.82.24.82.95V58h-.4c0-.66-.07-.84-.58-.84s-.68.25-.68.74V60.4h-.45Z"/><path class="cls-5" d="M30.41,56.83h.45v.53h0a1,1,0,0,1,.94-.58c.48,0,.84.1,1,.58a1.08,1.08,0,0,1,1.07-.58.93.93,0,0,1,1.06,1V60.4h-.45V58.09c0-.71-.29-.87-.75-.87s-.86.23-.86.93V60.4h-.45V57.93c0-.53-.21-.71-.7-.71-.65,0-.91.4-.91,1.14v2h-.45Z"/><path class="cls-5" d="M36.15,58.72v.33c0,.78.13,1,.75,1s.87,0,.87-.71h.45v.13c0,.72-.17,1-1.25,1s-1.31-.39-1.31-1.84.24-1.84,1.31-1.84,1.25.43,1.25,1.4v.54Zm1.62-.45c0-.75,0-1.09-.81-1.09s-.81.34-.81,1.09Z"/><path class="cls-5" d="M41.1,60h0a.84.84,0,0,1-.91.51c-1,0-1.27-.44-1.27-1.84s.27-1.84,1.2-1.84a1,1,0,0,1,1,.5h0v-2h.45V60.4H41.1Zm-.86.06c.75,0,.86-.27.86-1.6,0-.88-.21-1.19-.86-1.19s-.85.16-.85,1.4S39.54,60,40.24,60Z"/><path class="cls-5" d="M42.45,55.33h.45v.6h-.45Zm0,1.5h.45V60.4h-.45Z"/><path class="cls-5" d="M46.26,60.4h-.45v-.46h0a.93.93,0,0,1-1,.52c-.83,0-1.05-.41-1.05-1.11V56.83h.44v2.42c0,.41.1.8.68.8s.93-.21.93-1V56.83h.45Z"/><path class="cls-5" d="M47,56.83h.45v.53h0a1,1,0,0,1,.95-.58c.47,0,.84.1,1,.58a1.09,1.09,0,0,1,1.07-.58.93.93,0,0,1,1.06,1V60.4h-.44V58.09c0-.71-.3-.87-.75-.87s-.86.23-.86.93V60.4h-.45V57.93c0-.53-.22-.71-.71-.71-.65,0-.9.4-.9,1.14v2H47Z"/><path class="cls-5" d="M54.69,59.3c0,.61.1.75.76.75s.86-.1.86-.7-.05-.51-.9-.56-1.14-.18-1.14-1,.14-1,1.21-1,1.24.23,1.24,1h-.45c0-.54-.14-.58-.82-.58s-.73.06-.73.62.06.54.82.59c1.06.06,1.22.14,1.22.93s-.16,1.14-1.32,1.14c-.82,0-1.2-.1-1.2-1.16Z"/><path class="cls-5" d="M57.49,55.33h.45v2h0a1,1,0,0,1,1-.51c.83,0,1.05.41,1.05,1.1V60.4h-.45V58c0-.42-.09-.81-.68-.81s-.92.21-.92,1V60.4h-.45Z"/><path class="cls-5" d="M60.85,55.33h.45v.6h-.45Zm0,1.5h.45V60.4h-.45Z"/><path class="cls-5" d="M62.2,56.83h.45v.45h0a1,1,0,0,1,1-.5c.93,0,1.2.44,1.2,1.84s-.27,1.84-1.27,1.84a.86.86,0,0,1-.92-.51h0v1.7H62.2Zm1.3.39c-.64,0-.85.31-.85,1.19,0,1.33.11,1.6.85,1.6s.86-.16.86-1.39S64.2,57.22,63.5,57.22Z"/><path class="cls-5" d="M69.57,60.09a1.19,1.19,0,0,1-1,.37c-.91,0-1.11-.44-1.11-1.12s.16-1.12,1.11-1.12c.68,0,.83.08,1,.32h0v-.65c0-.53,0-.71-.8-.71s-.74.18-.74.64h-.45v-.19c0-.43.1-.85,1.22-.85s1.21.32,1.21,1V60.4h-.4ZM68.71,60c.6,0,.86-.15.86-.69s-.26-.7-.86-.7-.85.15-.85.7S68.12,60,68.71,60Z"/><path class="cls-5" d="M70.71,56.83h.45v.46h0a1,1,0,0,1,1-.51c.83,0,1,.41,1,1.1V60.4h-.44V58c0-.42-.09-.81-.68-.81s-.93.21-.93,1V60.4h-.45Z"/><path class="cls-5" d="M76.09,60h0a.86.86,0,0,1-.92.51c-1,0-1.27-.44-1.27-1.84s.28-1.84,1.2-1.84a1,1,0,0,1,1,.5h0v-2h.45V60.4h-.45Zm-.85.06c.75,0,.85-.27.85-1.6,0-.88-.21-1.19-.85-1.19s-.86.16-.86,1.4S74.54,60,75.24,60Z"/><path class="cls-5" d="M79.31,56.83h.45v.45h0a1,1,0,0,1,1-.5c.93,0,1.2.44,1.2,1.84s-.27,1.84-1.27,1.84a.86.86,0,0,1-.92-.51h0v1.7h-.45Zm1.3.39c-.64,0-.85.31-.85,1.19,0,1.33.11,1.6.85,1.6s.86-.16.86-1.39S81.31,57.22,80.61,57.22Z"/><path class="cls-5" d="M82.76,55.33h.44V60.4h-.44Z"/><path class="cls-5" d="M86.16,60.09a1.18,1.18,0,0,1-1,.37C84.2,60.46,84,60,84,59.34s.16-1.12,1.12-1.12c.67,0,.82.08,1,.32h0v-.65c0-.53-.05-.71-.79-.71s-.75.18-.75.64h-.45v-.19c0-.43.1-.85,1.22-.85s1.21.32,1.21,1V60.4h-.4ZM85.3,60c.6,0,.86-.15.86-.69s-.26-.7-.86-.7-.85.15-.85.7S84.71,60,85.3,60Z"/><path class="cls-5" d="M89.28,58c0-.65-.13-.84-.72-.84s-.83.11-.83,1.44.11,1.43.83,1.43.78-.17.78-.94h.45v.23c0,.92-.43,1.12-1.23,1.12-1.18,0-1.32-.39-1.32-1.84s.24-1.84,1.32-1.84,1.17.3,1.17,1.24Z"/><path class="cls-5" d="M90.84,58.72v.33c0,.78.13,1,.75,1s.87,0,.87-.71h.45v.13c0,.72-.17,1-1.24,1s-1.32-.39-1.32-1.84.24-1.84,1.32-1.84,1.24.43,1.24,1.4v.54Zm1.62-.45c0-.75,0-1.09-.81-1.09s-.81.34-.81,1.09Z"/><path class="cls-5" d="M94.1,59.3c0,.61.09.75.76.75s.85-.1.85-.7,0-.51-.89-.56-1.14-.18-1.14-1,.14-1,1.2-1,1.25.23,1.25,1h-.45c0-.54-.15-.58-.82-.58s-.74.06-.74.62.07.54.82.59c1.06.06,1.22.14,1.22.93s-.16,1.14-1.32,1.14c-.81,0-1.19-.1-1.19-1.16Z"/><path class="cls-5" d="M99,55.33h.45v.6H99Zm0,1.5h.45V60.4H99Z"/><path class="cls-5" d="M100.39,57.24H100v-.41h.37V56h.45v.83H102v.41h-1.15v2.39c0,.29.09.42.38.42s.48-.06.48-.85h.41c0,1.14-.36,1.26-.88,1.26s-.84-.2-.84-.74Z"/><path class="cls-5" d="M104.67,55.33h.44v.6h-.44Zm0,1.5h.44V60.4h-.44Z"/><path class="cls-5" d="M106,56.83h.45v.46h0a1,1,0,0,1,1-.51c.83,0,1,.41,1,1.1V60.4H108V58c0-.42-.09-.81-.68-.81s-.93.21-.93,1V60.4H106Z"/><path class="cls-5" d="M111.16,56.83h.45v.44h0a.78.78,0,0,1,.83-.49c.57,0,.83.24.83.95V58h-.41c0-.66-.07-.84-.58-.84s-.68.25-.68.74V60.4h-.45Z"/><path class="cls-5" d="M114.18,58.72v.33c0,.78.13,1,.75,1s.87,0,.87-.71h.45v.13c0,.72-.17,1-1.24,1s-1.32-.39-1.32-1.84.24-1.84,1.32-1.84,1.24.43,1.24,1.4v.54Zm1.62-.45c0-.75,0-1.09-.81-1.09s-.81.34-.81,1.09Z"/><path class="cls-5" d="M117.43,59.3c0,.61.1.75.77.75s.85-.1.85-.7,0-.51-.89-.56-1.15-.18-1.15-1,.14-1,1.21-1,1.25.23,1.25,1H119c0-.54-.15-.58-.82-.58s-.74.06-.74.62.07.54.82.59c1.06.06,1.22.14,1.22.93s-.16,1.14-1.32,1.14c-.82,0-1.19-.1-1.19-1.16Z"/><path class="cls-5" d="M120.66,58.72v.33c0,.78.13,1,.75,1s.88,0,.88-.71h.44v.13c0,.72-.17,1-1.24,1s-1.32-.39-1.32-1.84.24-1.84,1.32-1.84,1.24.43,1.24,1.4v.54Zm1.63-.45c0-.75,0-1.09-.82-1.09s-.81.34-.81,1.09Z"/><path class="cls-5" d="M123.48,56.83h.44v.44h0a.77.77,0,0,1,.82-.49c.57,0,.83.24.83.95V58h-.41c0-.66-.07-.84-.58-.84s-.68.25-.68.74V60.4h-.44Z"/><path class="cls-5" d="M125.74,56.83h.47l.84,3.12h0l.84-3.12h.47l-1,3.57h-.63Z"/><path class="cls-5" d="M129.22,58.72v.33c0,.78.14,1,.75,1s.88,0,.88-.71h.45v.13c0,.72-.18,1-1.25,1s-1.32-.39-1.32-1.84.24-1.84,1.32-1.84,1.25.43,1.25,1.4v.54Zm1.63-.45c0-.75,0-1.09-.81-1.09s-.82.34-.82,1.09Z"/><path class="cls-5" d="M132.48,59.3c0,.61.1.75.76.75s.86-.1.86-.7,0-.51-.9-.56-1.14-.18-1.14-1,.14-1,1.2-1,1.25.23,1.25,1h-.45c0-.54-.15-.58-.82-.58s-.73.06-.73.62.06.54.82.59c1,.06,1.21.14,1.21.93s-.16,1.14-1.31,1.14c-.82,0-1.2-.1-1.2-1.16Z"/><path class="cls-5" d="M135.64,59.76h.49v.64h-.49Z"/><path class="cls-5" d="M8.77,76.13H6.59L6.26,77.2H5.75l1.59-5.07H8L9.61,77.2H9.1ZM7.71,72.62H7.64l-.9,3H8.62Z"/><path class="cls-5" d="M10.3,74H9.86v-.41h.44V73c0-.66.31-.91.94-.91h.31v.4h-.29c-.3,0-.51.1-.51.51v.64h.79V74h-.79V77.2H10.3Z"/><path class="cls-5" d="M12,74h-.37v-.41H12V72.8h.45v.83h1.15V74H12.44v2.39c0,.29.09.42.38.42s.49-.06.49-.85h.4c0,1.14-.36,1.26-.88,1.26s-.84-.2-.84-.74Z"/><path class="cls-5" d="M14.63,75.52v.33c0,.78.13,1,.75,1s.87,0,.87-.71h.45v.13c0,.72-.17,1-1.24,1s-1.32-.39-1.32-1.84.24-1.84,1.32-1.84S16.7,74,16.7,75v.54Zm1.62-.45c0-.75,0-1.09-.81-1.09s-.81.34-.81,1.09Z"/><path class="cls-5" d="M17.44,73.63h.45v.44h0a.76.76,0,0,1,.82-.49c.57,0,.83.24.83,1v.29h-.41c0-.66-.07-.84-.58-.84s-.68.25-.68.74V77.2h-.45Z"/><path class="cls-5" d="M24.07,76.9a1.2,1.2,0,0,1-1,.36c-.91,0-1.11-.44-1.11-1.12S22.08,75,23,75c.68,0,.83.08,1,.32h0v-.65c0-.53-.05-.71-.79-.71s-.75.18-.75.64H22v-.19c0-.43.11-.85,1.22-.85s1.22.32,1.22,1V77.2h-.41Zm-.85-.09c.59,0,.85-.15.85-.69s-.26-.7-.85-.7-.85.15-.85.7S22.62,76.81,23.22,76.81Z"/><path class="cls-5" d="M27.41,74H27v-.41h.44V73c0-.66.31-.91.93-.91h.32v.4h-.3c-.29,0-.5.1-.5.51v.64h.78V74h-.78V77.2h-.45Z"/><path class="cls-5" d="M29,73.63h.45v.44h0a.78.78,0,0,1,.83-.49c.57,0,.82.24.82,1v.29h-.4c0-.66-.07-.84-.58-.84s-.68.25-.68.74V77.2H29Z"/><path class="cls-5" d="M31.69,72.13h.45v.6h-.45Zm0,1.5h.45V77.2h-.45Z"/><path class="cls-5" d="M33.42,75.52v.33c0,.78.14,1,.75,1s.88,0,.88-.71h.45v.13c0,.72-.18,1-1.25,1s-1.32-.39-1.32-1.84.24-1.84,1.32-1.84S35.5,74,35.5,75v.54Zm1.63-.45c0-.75,0-1.09-.81-1.09s-.82.34-.82,1.09Z"/><path class="cls-5" d="M36.24,73.63h.45v.46h0a1,1,0,0,1,1-.51c.82,0,1.05.41,1.05,1.1V77.2h-.45V74.79c0-.42-.09-.81-.68-.81s-.92.21-.92,1V77.2h-.45Z"/><path class="cls-5" d="M41.62,76.75h0a.85.85,0,0,1-.92.51c-1,0-1.26-.44-1.26-1.84s.27-1.84,1.19-1.84a1,1,0,0,1,1,.5h0v-2h.44V77.2h-.44Zm-.86.06c.75,0,.86-.26.86-1.6,0-.88-.21-1.19-.86-1.19s-.85.16-.85,1.4S40.06,76.81,40.76,76.81Z"/><path class="cls-5" d="M43,72.13h.44V77.2H43Z"/><path class="cls-5" d="M44.39,78.07c.57,0,.67-.11.84-.87H45l-1-3.57h.44l.91,3.12h0l.76-3.12h.45l-1,3.94c-.16.63-.43,1-1,1a.66.66,0,0,1-.21,0Z"/><path class="cls-5" d="M49.39,76.1c0,.61.1.75.77.75s.85-.1.85-.7,0-.51-.9-.56-1.14-.18-1.14-1,.14-1,1.21-1,1.24.23,1.24,1H51c0-.54-.15-.58-.82-.58s-.74.06-.74.62.06.54.82.59c1.06.06,1.22.14,1.22.93s-.16,1.14-1.32,1.14c-.82,0-1.2-.1-1.2-1.16Z"/><path class="cls-5" d="M52.19,72.13h.45v2h0a1,1,0,0,1,1-.51c.83,0,1,.41,1,1.1V77.2h-.45V74.79c0-.42-.09-.81-.67-.81s-.93.21-.93,1V77.2h-.45Z"/><path class="cls-5" d="M55.55,72.13H56v.6h-.45Zm0,1.5H56V77.2h-.45Z"/><path class="cls-5" d="M56.9,73.63h.45v.45h0a1,1,0,0,1,1-.5c.93,0,1.2.44,1.2,1.84s-.27,1.84-1.27,1.84a.84.84,0,0,1-.91-.51h0v1.7H56.9Zm1.31.39c-.65,0-.86.31-.86,1.19,0,1.34.11,1.6.86,1.6s.85-.16.85-1.39S58.91,74,58.21,74Z"/><path class="cls-5" d="M62.29,72.13h.45v.6h-.45Zm0,1.5h.45V77.2h-.45Z"/><path class="cls-5" d="M64,76.1c0,.61.1.75.77.75s.85-.1.85-.7,0-.51-.89-.56-1.15-.18-1.15-1,.14-1,1.21-1,1.25.23,1.25,1h-.45c0-.54-.15-.58-.82-.58s-.74.06-.74.62.06.54.82.59c1.06.06,1.22.14,1.22.93s-.16,1.14-1.32,1.14c-.82,0-1.19-.1-1.19-1.16Z"/><path class="cls-5" d="M70.93,76.75h0a.85.85,0,0,1-.92.51c-1,0-1.26-.44-1.26-1.84s.27-1.84,1.19-1.84a1,1,0,0,1,1,.5h0v-2h.44V77.2h-.44Zm-.86.06c.75,0,.86-.26.86-1.6,0-.88-.21-1.19-.86-1.19s-.85.16-.85,1.4S69.37,76.81,70.07,76.81Z"/><path class="cls-5" d="M74.25,76.9a1.21,1.21,0,0,1-1,.36c-.91,0-1.12-.44-1.12-1.12S72.26,75,73.21,75c.68,0,.82.08,1,.32h0v-.65c0-.53,0-.71-.79-.71s-.75.18-.75.64h-.45v-.19c0-.43.11-.85,1.22-.85s1.22.32,1.22,1V77.2h-.41Zm-.85-.09c.59,0,.85-.15.85-.69s-.26-.7-.85-.7-.86.15-.86.7S72.8,76.81,73.4,76.81Z"/><path class="cls-5" d="M75.4,73.63h.45v.53h0a1,1,0,0,1,1-.58c.47,0,.84.1,1,.58a1.09,1.09,0,0,1,1.07-.58.93.93,0,0,1,1.06,1V77.2h-.44V74.89c0-.71-.3-.87-.75-.87s-.86.23-.86.94V77.2h-.45V74.73c0-.53-.22-.71-.71-.71-.65,0-.9.4-.9,1.14v2H75.4Z"/><path class="cls-5" d="M82.8,76.9a1.22,1.22,0,0,1-1,.36c-.91,0-1.11-.44-1.11-1.12S80.8,75,81.75,75c.68,0,.83.08,1,.32h0v-.65c0-.53-.05-.71-.8-.71s-.74.18-.74.64h-.45v-.19c0-.43.1-.85,1.22-.85s1.21.32,1.21,1V77.2h-.4Zm-.86-.09c.6,0,.86-.15.86-.69s-.26-.7-.86-.7-.85.15-.85.7S81.35,76.81,81.94,76.81Z"/><path class="cls-5" d="M86.12,76.56h0a.89.89,0,0,1-.93.52C84,77.08,84,76.31,84,75.33s.07-1.75,1.23-1.75a.87.87,0,0,1,.93.53h0v-.48h.45v3.54c0,1.06-.33,1.35-1.42,1.35-.69,0-1.12-.24-1.11-1h.45c0,.42.18.54.76.54.73,0,.87-.15.87-1Zm-.9.07c.73,0,.9-.29.9-1.3S86,74,85.22,74s-.78.36-.78,1.31S84.5,76.63,85.22,76.63Z"/><path class="cls-5" d="M87.74,75.52v.33c0,.78.13,1,.75,1s.87,0,.87-.71h.45v.13c0,.72-.17,1-1.24,1s-1.32-.39-1.32-1.84.24-1.84,1.32-1.84,1.24.43,1.24,1.4v.54Zm1.62-.45c0-.75,0-1.09-.81-1.09s-.81.34-.81,1.09Z"/><path class="cls-5" d="M92.69,76.75h0a.86.86,0,0,1-.92.51c-1,0-1.27-.44-1.27-1.84s.27-1.84,1.2-1.84a1,1,0,0,1,1,.5h0v-2h.45V77.2h-.45Zm-.85.06c.74,0,.85-.26.85-1.6,0-.88-.21-1.19-.85-1.19s-.86.16-.86,1.4S91.13,76.81,91.84,76.81Z"/><path class="cls-5" d="M94.28,76.56h.49v.76c0,.6-.18.64-.53.64v-.28c.18,0,.25-.05.25-.48h-.21Z"/><path class="cls-5" d="M97.93,78.07c.57,0,.67-.11.84-.87h-.21l-1-3.57H98l.91,3.12h0l.77-3.12h.45l-1,3.94c-.16.63-.43,1-1,1a.66.66,0,0,1-.21,0Z"/><path class="cls-5" d="M101.8,73.58c1.17,0,1.31.42,1.31,1.84s-.15,1.84-1.31,1.84-1.32-.36-1.32-1.84S100.62,73.58,101.8,73.58Zm0,3.27c.71,0,.82-.1.82-1.43S102.51,74,101.8,74s-.83.11-.83,1.44S101.08,76.85,101.8,76.85Z"/><path class="cls-5" d="M106.29,77.2h-.45v-.46h0a1,1,0,0,1-1,.52c-.82,0-1-.41-1-1.11V73.63h.45v2.42c0,.41.09.8.68.8s.92-.21.92-1V73.63h.45Z"/><path class="cls-5" d="M109,73.63h.45v.53h0a1,1,0,0,1,1-.58c.47,0,.84.1,1,.58a1.09,1.09,0,0,1,1.07-.58.93.93,0,0,1,1.07,1V77.2h-.45V74.89c0-.71-.3-.87-.75-.87s-.86.23-.86.94V77.2H111V74.73c0-.53-.22-.71-.71-.71-.65,0-.9.4-.9,1.14v2H109Z"/><path class="cls-5" d="M116.38,76.9a1.21,1.21,0,0,1-1,.36c-.91,0-1.12-.44-1.12-1.12s.16-1.12,1.12-1.12c.68,0,.82.08,1,.32h0v-.65c0-.53,0-.71-.79-.71s-.75.18-.75.64h-.45v-.19c0-.43.1-.85,1.22-.85s1.22.32,1.22,1V77.2h-.41Zm-.85-.09c.59,0,.85-.15.85-.69s-.26-.7-.85-.7-.86.15-.86.7S114.93,76.81,115.53,76.81Z"/><path class="cls-5" d="M117.65,78.07c.56,0,.66-.11.83-.87h-.2l-1-3.57h.44l.91,3.12h0l.76-3.12h.45l-1,3.94c-.15.63-.43,1-1,1a.62.62,0,0,1-.21,0Z"/><path class="cls-5" d="M124.34,76.75h0a.86.86,0,0,1-.92.51c-1,0-1.27-.44-1.27-1.84s.27-1.84,1.2-1.84a1,1,0,0,1,1,.5h0v-2h.45V77.2h-.45Zm-.85.06c.74,0,.85-.26.85-1.6,0-.88-.21-1.19-.85-1.19s-.86.16-.86,1.4S122.78,76.81,123.49,76.81Z"/><path class="cls-5" d="M126,75.52v.33c0,.78.13,1,.75,1s.87,0,.87-.71h.45v.13c0,.72-.17,1-1.25,1s-1.31-.39-1.31-1.84.23-1.84,1.31-1.84,1.25.43,1.25,1.4v.54Zm1.62-.45c0-.75,0-1.09-.81-1.09s-.81.34-.81,1.09Z"/><path class="cls-5" d="M128.85,73.63h.45v.45h0a1,1,0,0,1,1-.5c.93,0,1.2.44,1.2,1.84s-.27,1.84-1.27,1.84a.84.84,0,0,1-.91-.51h0v1.7h-.45Zm1.31.39c-.65,0-.86.31-.86,1.19,0,1.34.11,1.6.86,1.6s.85-.16.85-1.39S130.86,74,130.16,74Z"/><path class="cls-5" d="M132.3,72.13h.45V77.2h-.45Z"/><path class="cls-5" d="M134.86,73.58c1.18,0,1.32.42,1.32,1.84s-.16,1.84-1.32,1.84-1.32-.36-1.32-1.84S133.68,73.58,134.86,73.58Zm0,3.27c.71,0,.83-.1.83-1.43s-.12-1.44-.83-1.44-.83.11-.83,1.44S134.15,76.85,134.86,76.85Z"/><path class="cls-5" d="M137,78.07c.57,0,.67-.11.84-.87h-.21l-1-3.57H137l.91,3.12h0l.76-3.12h.45l-1,3.94c-.16.63-.43,1-1,1a.66.66,0,0,1-.21,0Z"/><path class="cls-5" d="M143.63,76.9a1.22,1.22,0,0,1-1,.36c-.91,0-1.11-.44-1.11-1.12s.16-1.12,1.11-1.12c.68,0,.83.08,1,.32h0v-.65c0-.53-.05-.71-.79-.71s-.75.18-.75.64h-.45v-.19c0-.43.11-.85,1.22-.85s1.22.32,1.22,1V77.2h-.4Zm-.86-.09c.6,0,.86-.15.86-.69s-.26-.7-.86-.7-.85.15-.85.7S142.18,76.81,142.77,76.81Z"/><path class="cls-5" d="M147.16,76.1c0,.61.1.75.76.75s.86-.1.86-.7-.05-.51-.9-.56-1.14-.18-1.14-1,.14-1,1.2-1,1.25.23,1.25,1h-.45c0-.54-.14-.58-.82-.58s-.73.06-.73.62.06.54.82.59c1.06.06,1.22.14,1.22.93s-.16,1.14-1.32,1.14c-.82,0-1.2-.1-1.2-1.16Z"/><path class="cls-5" d="M150,72.13h.45v2h0a1,1,0,0,1,1-.51c.83,0,1.05.41,1.05,1.1V77.2H152V74.79c0-.42-.09-.81-.68-.81s-.92.21-.92,1V77.2H150Z"/><path class="cls-5" d="M153.32,72.13h.45v.6h-.45Zm0,1.5h.45V77.2h-.45Z"/><path class="cls-5" d="M154.67,73.63h.45v.45h0a1,1,0,0,1,1-.5c.92,0,1.2.44,1.2,1.84s-.28,1.84-1.27,1.84a.86.86,0,0,1-.92-.51h0v1.7h-.45ZM156,74c-.64,0-.85.31-.85,1.19,0,1.34.1,1.6.85,1.6s.86-.16.86-1.39S156.67,74,156,74Z"/><path class="cls-5" d="M160.19,74h-.44v-.41h.44V73c0-.66.31-.91.93-.91h.31v.4h-.29c-.29,0-.5.1-.5.51v.64h.78V74h-.78V77.2h-.45Z"/><path class="cls-5" d="M161.75,73.63h.45v.44h0a.77.77,0,0,1,.82-.49c.57,0,.83.24.83,1v.29h-.41c0-.66-.07-.84-.58-.84s-.68.25-.68.74V77.2h-.45Z"/><path class="cls-5" d="M165.6,73.58c1.18,0,1.31.42,1.31,1.84s-.15,1.84-1.31,1.84-1.32-.36-1.32-1.84S164.42,73.58,165.6,73.58Zm0,3.27c.71,0,.82-.1.82-1.43S166.31,74,165.6,74s-.83.11-.83,1.44S164.88,76.85,165.6,76.85Z"/><path class="cls-5" d="M167.59,73.63H168v.53h0a1,1,0,0,1,.95-.58c.48,0,.84.1,1,.58a1.1,1.1,0,0,1,1.07-.58.93.93,0,0,1,1.07,1V77.2h-.45V74.89c0-.71-.29-.87-.75-.87s-.86.23-.86.94V77.2h-.45V74.73c0-.53-.22-.71-.71-.71-.65,0-.9.4-.9,1.14v2h-.45Z"/><path class="cls-5" d="M6.16,86.47c.57,0,.67-.11.83-.87h-.2L5.75,82h.44l.91,3.12h0L7.88,82h.44L7.37,86c-.16.63-.43,1-1,1a.66.66,0,0,1-.21,0Z"/><path class="cls-5" d="M10,82c1.17,0,1.31.42,1.31,1.84s-.15,1.84-1.31,1.84-1.32-.36-1.32-1.84S8.85,82,10,82Zm0,3.27c.71,0,.82-.1.82-1.43s-.11-1.44-.82-1.44-.83.11-.83,1.44S9.31,85.25,10,85.25Z"/><path class="cls-5" d="M14.52,85.6h-.45v-.46h0a1,1,0,0,1-1,.52c-.83,0-1.05-.41-1.05-1.11V82h.45v2.42c0,.41.09.8.68.8s.92-.21.92-1V82h.45Z"/><path class="cls-5" d="M15.26,82h.45v.44h0a.78.78,0,0,1,.83-.49c.57,0,.83.24.83,1v.29H17c0-.66-.07-.84-.58-.84s-.68.25-.68.74V85.6h-.45Z"/><path class="cls-5" d="M19.8,82h.44v.44h0a.78.78,0,0,1,.83-.49c.56,0,.82.24.82,1v.29h-.4c0-.66-.07-.84-.59-.84s-.68.25-.68.74V85.6H19.8Z"/><path class="cls-5" d="M22.81,83.92v.33c0,.78.14,1,.75,1s.88,0,.88-.71h.45v.13c0,.72-.18,1-1.25,1s-1.32-.39-1.32-1.84S22.56,82,23.64,82s1.25.43,1.25,1.4v.54Zm1.63-.45c0-.75,0-1.09-.81-1.09s-.82.34-.82,1.09Z"/><path class="cls-5" d="M26.07,84.5c0,.61.1.75.76.75s.86-.1.86-.7-.05-.51-.9-.56-1.14-.18-1.14-1,.14-1,1.2-1,1.25.23,1.25,1h-.45c0-.54-.15-.58-.82-.58s-.73.06-.73.62.06.54.82.59c1,.06,1.22.14,1.22.93s-.17,1.14-1.32,1.14c-.82,0-1.2-.1-1.2-1.16Z"/><path class="cls-5" d="M29.3,83.92v.33c0,.78.13,1,.75,1s.87,0,.87-.71h.45v.13c0,.72-.18,1-1.25,1s-1.31-.39-1.31-1.84S29,82,30.12,82s1.25.43,1.25,1.4v.54Zm1.62-.45c0-.75,0-1.09-.81-1.09s-.81.34-.81,1.09Z"/><path class="cls-5" d="M32.11,82h.45v.44h0A.78.78,0,0,1,33.4,82c.57,0,.83.24.83,1v.29h-.41c0-.66-.07-.84-.58-.84s-.68.25-.68.74V85.6h-.45Z"/><path class="cls-5" d="M34.38,82h.46l.85,3.12h0L36.55,82H37L36,85.6h-.63Z"/><path class="cls-5" d="M37.86,83.92v.33c0,.78.13,1,.75,1s.87,0,.87-.71h.45v.13c0,.72-.17,1-1.25,1s-1.31-.39-1.31-1.84S37.61,82,38.68,82s1.25.43,1.25,1.4v.54Zm1.62-.45c0-.75,0-1.09-.81-1.09s-.81.34-.81,1.09Z"/><path class="cls-5" d="M41.11,84.5c0,.61.1.75.77.75s.85-.1.85-.7,0-.51-.9-.56-1.14-.18-1.14-1,.14-1,1.21-1,1.24.23,1.24,1H42.7c0-.54-.15-.58-.82-.58s-.74.06-.74.62.06.54.82.59c1.06.06,1.22.14,1.22.93s-.16,1.14-1.32,1.14c-.82,0-1.2-.1-1.2-1.16Z"/><path class="cls-5" d="M46,82.44h-.37V82H46V81.2h.45V82h1.15v.41H46.43v2.39c0,.29.09.42.38.42s.48-.06.48-.85h.41c0,1.14-.36,1.26-.88,1.26s-.84-.2-.84-.74Z"/><path class="cls-5" d="M49.44,82c1.18,0,1.32.42,1.32,1.84s-.15,1.84-1.32,1.84-1.31-.36-1.31-1.84S48.27,82,49.44,82Zm0,3.27c.72,0,.83-.1.83-1.43s-.11-1.44-.83-1.44-.82.11-.82,1.44S48.73,85.25,49.44,85.25Z"/><path class="cls-5" d="M53.38,82h.45v.44h0a.77.77,0,0,1,.82-.49c.57,0,.83.24.83,1v.29h-.41c0-.66-.07-.84-.58-.84s-.68.25-.68.74V85.6h-.45Z"/><path class="cls-5" d="M58.07,85.3a1.21,1.21,0,0,1-1,.36c-.91,0-1.12-.44-1.12-1.12s.16-1.12,1.12-1.12c.67,0,.82.08,1,.32h0v-.65c0-.53-.05-.71-.79-.71s-.75.18-.75.64H56v-.19c0-.43.1-.85,1.22-.85s1.21.32,1.21,1V85.6h-.4Zm-.86-.09c.6,0,.86-.15.86-.69s-.26-.7-.86-.7-.85.15-.85.7S56.62,85.21,57.21,85.21Z"/><path class="cls-5" d="M59.22,82h.44v.46h0a1,1,0,0,1,1-.51c.82,0,1,.41,1,1.1V85.6h-.45V83.19c0-.42-.09-.81-.68-.81s-.93.21-.93,1V85.6h-.44Z"/><path class="cls-5" d="M64.64,85h0a.89.89,0,0,1-.93.52c-1.16,0-1.23-.77-1.23-1.75S62.53,82,63.69,82a.87.87,0,0,1,.93.53h0V82h.44v3.54c0,1.06-.33,1.35-1.42,1.35-.69,0-1.12-.25-1.1-1H63c0,.42.19.54.76.54.73,0,.88-.15.88-1Zm-.91.07c.73,0,.91-.29.91-1.3s-.18-1.31-.91-1.31-.78.36-.78,1.31S63,85,63.73,85Z"/><path class="cls-5" d="M66.25,83.92v.33c0,.78.13,1,.75,1s.88,0,.88-.71h.44v.13c0,.72-.17,1-1.24,1s-1.32-.39-1.32-1.84S66,82,67.08,82s1.24.43,1.24,1.4v.54Zm1.63-.45c0-.75,0-1.09-.82-1.09s-.81.34-.81,1.09Z"/><path class="cls-5" d="M72.6,81h0l-1,1.33-.33-.3,1.22-1.52h.65V85.6H72.6Z"/><path class="cls-5" d="M78.1,82c1.18,0,1.32.42,1.32,1.84s-.15,1.84-1.32,1.84-1.31-.36-1.31-1.84S76.93,82,78.1,82Zm0,3.27c.72,0,.83-.1.83-1.43s-.11-1.44-.83-1.44-.82.11-.82,1.44S77.39,85.25,78.1,85.25Z"/><path class="cls-5" d="M80.34,82.44H79.9V82h.44v-.64c0-.66.31-.91.93-.91h.32v.4H81.3c-.3,0-.51.1-.51.51V82h.79v.41h-.79V85.6h-.45Z"/><path class="cls-5" d="M84,82.44H83.6V82H84V81.2h.44V82h1.16v.41H84.42v2.39c0,.29.09.42.39.42s.48-.06.48-.85h.41c0,1.14-.37,1.26-.88,1.26s-.84-.2-.84-.74Z"/><path class="cls-5" d="M86.19,80.53h.45v2h0a1,1,0,0,1,1-.51c.82,0,1,.41,1,1.1V85.6h-.45V83.19c0-.42-.09-.81-.68-.81s-.92.21-.92,1V85.6h-.45Z"/><path class="cls-5" d="M89.86,83.92v.33c0,.78.13,1,.75,1s.87,0,.87-.71h.45v.13c0,.72-.18,1-1.25,1s-1.31-.39-1.31-1.84S89.6,82,90.68,82s1.25.43,1.25,1.4v.54Zm1.62-.45c0-.75,0-1.09-.81-1.09s-.81.34-.81,1.09Z"/><path class="cls-5" d="M94.66,80.53h.45v2h0a1,1,0,0,1,1-.5c.92,0,1.2.44,1.2,1.84S97,85.66,96,85.66a.85.85,0,0,1-.92-.51h0v.45h-.45ZM96,82.42c-.64,0-.85.31-.85,1.19,0,1.33.1,1.6.85,1.6s.86-.16.86-1.39S96.66,82.42,96,82.42Z"/><path class="cls-5" d="M99.24,82c1.17,0,1.31.42,1.31,1.84s-.15,1.84-1.31,1.84-1.32-.36-1.32-1.84S98.06,82,99.24,82Zm0,3.27c.71,0,.82-.1.82-1.43s-.11-1.44-.82-1.44-.83.11-.83,1.44S98.52,85.25,99.24,85.25Z"/><path class="cls-5" d="M103.33,85.3a1.22,1.22,0,0,1-1,.36c-.91,0-1.11-.44-1.11-1.12s.16-1.12,1.11-1.12c.68,0,.83.08,1,.32h0v-.65c0-.53,0-.71-.79-.71s-.75.18-.75.64h-.45v-.19c0-.43.11-.85,1.22-.85s1.22.32,1.22,1V85.6h-.4Zm-.86-.09c.6,0,.86-.15.86-.69s-.26-.7-.86-.7-.85.15-.85.7S101.88,85.21,102.47,85.21Z"/><path class="cls-5" d="M104.47,82h.45v.44h0a.78.78,0,0,1,.83-.49c.57,0,.83.24.83,1v.29h-.41c0-.66-.07-.84-.58-.84s-.68.25-.68.74V85.6h-.45Z"/><path class="cls-5" d="M109.2,85.15h0a.84.84,0,0,1-.91.51c-1,0-1.27-.44-1.27-1.84s.27-1.84,1.2-1.84a1,1,0,0,1,1,.5h0v-2h.45V85.6h-.45Zm-.86.06c.75,0,.86-.27.86-1.6,0-.88-.21-1.19-.86-1.19s-.85.16-.85,1.4S107.64,85.21,108.34,85.21Z"/><path class="cls-5" d="M112.8,83.92v.33c0,.78.14,1,.75,1s.88,0,.88-.71h.45v.13c0,.72-.18,1-1.25,1s-1.32-.39-1.32-1.84.24-1.84,1.32-1.84,1.25.43,1.25,1.4v.54Zm1.63-.45c0-.75,0-1.09-.81-1.09s-.82.34-.82,1.09Z"/><path class="cls-5" d="M117.75,85.15h0a.85.85,0,0,1-.92.51c-1,0-1.27-.44-1.27-1.84s.28-1.84,1.2-1.84a1,1,0,0,1,1,.5h0v-2h.45V85.6h-.45Zm-.85.06c.75,0,.85-.27.85-1.6,0-.88-.21-1.19-.85-1.19s-.86.16-.86,1.4S116.2,85.21,116.9,85.21Z"/><path class="cls-5" d="M121.16,85h0a.89.89,0,0,1-.93.52c-1.16,0-1.24-.77-1.24-1.75s.08-1.75,1.24-1.75a.87.87,0,0,1,.93.53h0V82h.45v3.54c0,1.06-.33,1.35-1.42,1.35-.69,0-1.12-.25-1.11-1h.45c0,.42.18.54.76.54s.87-.15.87-1Zm-.9.07c.73,0,.9-.29.9-1.3s-.17-1.31-.9-1.31-.79.36-.79,1.31S119.54,85,120.26,85Z"/><path class="cls-5" d="M122.78,83.92v.33c0,.78.13,1,.75,1s.87,0,.87-.71h.45v.13c0,.72-.17,1-1.24,1s-1.32-.39-1.32-1.84.24-1.84,1.32-1.84,1.24.43,1.24,1.4v.54Zm1.62-.45c0-.75,0-1.09-.81-1.09s-.81.34-.81,1.09Z"/><path class="cls-5" d="M126,85h.49v.76c0,.6-.17.64-.53.64v-.28c.19,0,.25,0,.25-.48H126Z"/><path class="cls-5" d="M129.53,80.53H130v2h0a1,1,0,0,1,1-.5c.92,0,1.19.44,1.19,1.84s-.27,1.84-1.26,1.84a.85.85,0,0,1-.92-.51h0v.45h-.45Zm1.3,1.89c-.64,0-.85.31-.85,1.19,0,1.33.1,1.6.85,1.6s.85-.16.85-1.39S131.53,82.42,130.83,82.42Z"/><path class="cls-5" d="M133.28,83.92v.33c0,.78.13,1,.75,1s.87,0,.87-.71h.45v.13c0,.72-.17,1-1.24,1s-1.32-.39-1.32-1.84S133,82,134.11,82s1.24.43,1.24,1.4v.54Zm1.62-.45c0-.75,0-1.09-.81-1.09s-.81.34-.81,1.09Z"/><path class="cls-5" d="M136.21,86.47c.57,0,.67-.11.84-.87h-.21l-1-3.57h.44l.91,3.12h0l.77-3.12h.45l-1,3.94c-.16.63-.43,1-1,1a.66.66,0,0,1-.21,0Z"/><path class="cls-5" d="M140.08,82c1.17,0,1.31.42,1.31,1.84s-.15,1.84-1.31,1.84-1.32-.36-1.32-1.84S138.9,82,140.08,82Zm0,3.27c.71,0,.82-.1.82-1.43s-.11-1.44-.82-1.44-.83.11-.83,1.44S139.36,85.25,140.08,85.25Z"/><path class="cls-5" d="M142.07,82h.45v.46h0a1,1,0,0,1,1-.51c.83,0,1,.41,1,1.1V85.6h-.45V83.19c0-.42-.09-.81-.67-.81s-.93.21-.93,1V85.6h-.45Z"/><path class="cls-5" d="M147.45,85.15h0a.86.86,0,0,1-.92.51c-1,0-1.27-.44-1.27-1.84s.27-1.84,1.2-1.84a1,1,0,0,1,1,.5h0v-2h.45V85.6h-.45Zm-.85.06c.74,0,.85-.27.85-1.6,0-.88-.21-1.19-.85-1.19s-.86.16-.86,1.4S145.89,85.21,146.6,85.21Z"/><path class="cls-5" d="M150.63,82h.45v.44h0a.78.78,0,0,1,.83-.49c.56,0,.82.24.82,1v.29h-.4c0-.66-.07-.84-.59-.84s-.67.25-.67.74V85.6h-.45Z"/><path class="cls-5" d="M155.31,85.3a1.21,1.21,0,0,1-1,.36c-.91,0-1.12-.44-1.12-1.12s.17-1.12,1.12-1.12c.68,0,.82.08,1,.32h0v-.65c0-.53-.05-.71-.79-.71s-.75.18-.75.64h-.45v-.19c0-.43.1-.85,1.22-.85s1.22.32,1.22,1V85.6h-.41Zm-.85-.09c.59,0,.85-.15.85-.69s-.26-.7-.85-.7-.86.15-.86.7S153.86,85.21,154.46,85.21Z"/><path class="cls-5" d="M156.46,82h.45v.46h0a1,1,0,0,1,1-.51c.82,0,1.05.41,1.05,1.1V85.6h-.45V83.19c0-.42-.09-.81-.68-.81s-.92.21-.92,1V85.6h-.45Z"/><path class="cls-5" d="M161.88,85h0a.88.88,0,0,1-.93.52c-1.15,0-1.23-.77-1.23-1.75s.08-1.75,1.23-1.75a.86.86,0,0,1,.93.53h0V82h.45v3.54c0,1.06-.33,1.35-1.43,1.35-.69,0-1.12-.25-1.1-1h.45c0,.42.18.54.75.54.73,0,.88-.15.88-1ZM161,85c.73,0,.91-.29.91-1.3s-.18-1.31-.91-1.31-.78.36-.78,1.31S160.25,85,161,85Z"/><path class="cls-5" d="M163.49,83.92v.33c0,.78.14,1,.75,1s.88,0,.88-.71h.45v.13c0,.72-.18,1-1.25,1S163,85.27,163,83.82s.24-1.84,1.32-1.84,1.25.43,1.25,1.4v.54Zm1.63-.45c0-.75,0-1.09-.81-1.09s-.82.34-.82,1.09Z"/><path class="cls-5" d="M169.53,82.81c1.22,0,1.39,0,1.39-1,0-.66,0-.85-1-.85-.77,0-1.09,0-1.09.72v.39h-.45v-.44c0-1.08.6-1.16,1.48-1.16,1.48,0,1.6.37,1.6,1.37,0,.64-.12,1-.6,1.15v0c.39.12.63.26.63,1.12,0,1.18-.1,1.52-1.57,1.52s-1.65-.24-1.65-1.34V84h.45c0,1.06,0,1.2,1.15,1.2s1.13-.13,1.13-1-.15-.91-1.42-.91Z"/><path class="cls-5" d="M7.29,90.38c1.18,0,1.32.42,1.32,1.84s-.15,1.84-1.32,1.84S6,93.69,6,92.22,6.12,90.38,7.29,90.38Zm0,3.27c.72,0,.83-.1.83-1.43S8,90.78,7.29,90.78s-.82.11-.82,1.44S6.58,93.65,7.29,93.65Z"/><path class="cls-5" d="M9.53,90.84H9.09v-.41h.44v-.64c0-.66.31-.91.94-.91h.31v.4h-.29c-.3,0-.51.1-.51.51v.64h.79v.41H10V94H9.53Z"/><path class="cls-5" d="M15.14,93.69a1.18,1.18,0,0,1-1,.37c-.91,0-1.11-.44-1.11-1.12s.16-1.12,1.11-1.12c.68,0,.82.08,1,.32h0v-.65c0-.53,0-.71-.79-.71s-.75.18-.75.64h-.45v-.19c0-.43.11-.85,1.22-.85s1.22.32,1.22,1V94h-.41Zm-.85-.08c.59,0,.85-.15.85-.69s-.26-.7-.85-.7-.86.15-.86.7S13.69,93.61,14.29,93.61Z"/><path class="cls-5" d="M16.29,90.43h.45v.46h0a1,1,0,0,1,1-.51c.83,0,1.05.41,1.05,1.1V94h-.45V91.59c0-.42-.09-.81-.68-.81s-.92.21-.92,1V94h-.45Z"/><path class="cls-5" d="M19.65,94.87c.57,0,.66-.11.83-.87h-.2l-1-3.57h.44l.91,3.12h0l.77-3.12h.44l-1,3.94c-.15.63-.42.95-1,.95a.66.66,0,0,1-.21,0Z"/><path class="cls-5" d="M24.63,92.32v.33c0,.78.14,1,.75,1s.88,0,.88-.71h.45v.13c0,.72-.18,1-1.25,1s-1.32-.39-1.32-1.84.24-1.84,1.32-1.84,1.25.43,1.25,1.4v.54Zm1.63-.45c0-.75,0-1.09-.81-1.09s-.82.34-.82,1.09Z"/><path class="cls-5" d="M27.45,90.43h.45v.46h0a1,1,0,0,1,1-.51c.82,0,1.05.41,1.05,1.1V94H29.5V91.59c0-.42-.09-.81-.68-.81s-.92.21-.92,1V94h-.45Z"/><path class="cls-5" d="M31.12,92.32v.33c0,.78.13,1,.75,1s.87,0,.87-.71h.45v.13c0,.72-.18,1-1.25,1s-1.31-.39-1.31-1.84.23-1.84,1.31-1.84,1.25.43,1.25,1.4v.54Zm1.62-.45c0-.75,0-1.09-.81-1.09s-.81.34-.81,1.09Z"/><path class="cls-5" d="M33.93,90.43h.45V91h0a1,1,0,0,1,1-.58c.47,0,.84.1,1,.58a1.09,1.09,0,0,1,1.07-.58.93.93,0,0,1,1.07,1.05V94h-.45V91.69c0-.71-.3-.87-.75-.87s-.86.23-.86.93V94H36V91.53c0-.53-.22-.71-.71-.71-.65,0-.9.4-.9,1.14v2h-.45Z"/><path class="cls-5" d="M39.36,94.87c.56,0,.66-.11.83-.87H40l-1.05-3.57h.44l.91,3.12h0l.76-3.12h.45l-1,3.94c-.15.63-.43.95-1,.95a.58.58,0,0,1-.21,0Z"/><path class="cls-5" d="M44.35,92.9c0,.61.1.75.77.75s.85-.1.85-.7,0-.51-.89-.56-1.15-.18-1.15-1,.14-1,1.21-1,1.25.23,1.25,1h-.45c0-.54-.15-.58-.82-.58s-.74.06-.74.62.07.54.82.59c1.06.06,1.22.14,1.22.93s-.16,1.14-1.32,1.14c-.82,0-1.19-.1-1.19-1.16Z"/><path class="cls-5" d="M47.15,88.93h.45v2h0a1,1,0,0,1,1-.51c.83,0,1,.41,1,1.1V94h-.44V91.59c0-.42-.09-.81-.68-.81s-.93.21-.93,1V94h-.45Z"/><path class="cls-5" d="M50.51,88.93H51v.6h-.45Zm0,1.5H51V94h-.45Z"/><path class="cls-5" d="M51.87,90.43h.44v.45h0a1,1,0,0,1,1-.5c.92,0,1.19.44,1.19,1.84s-.27,1.84-1.27,1.84a.85.85,0,0,1-.91-.51h0v1.7h-.44Zm1.3.39c-.65,0-.86.31-.86,1.19,0,1.33.11,1.6.86,1.6s.85-.16.85-1.39S53.87,90.82,53.17,90.82Z"/><path class="cls-5" d="M55.63,92.9c0,.61.1.75.77.75s.85-.1.85-.7,0-.51-.9-.56-1.14-.18-1.14-1,.14-1,1.21-1,1.24.23,1.24,1h-.45c0-.54-.14-.58-.81-.58s-.74.06-.74.62.06.54.82.59c1.06.06,1.22.14,1.22.93s-.16,1.14-1.32,1.14c-.82,0-1.2-.1-1.2-1.16Z"/><path class="cls-5" d="M58.79,93.36h.49V94h-.49Z"/></svg>