<svg id="Layer_1" data-name="Layer 1" xmlns="http://www.w3.org/2000/svg" xmlns:xlink="http://www.w3.org/1999/xlink" viewBox="0 0 178.58 249.45"><defs><style>.cls-1{fill:none;}.cls-2{clip-path:url(#clip-path);}.cls-3{opacity:0.4;}.cls-4,.cls-6,.cls-7{fill:#090400;}.cls-4{opacity:0.05;}.cls-5{fill:#fff;}.cls-6{opacity:0.1;}</style><clipPath id="clip-path"><rect class="cls-1" x="-5.67" y="-5.67" width="189.92" height="260.79"/></clipPath></defs><g class="cls-2"><g class="cls-3"><g class="cls-2"><path class="cls-4" d="M61.44,54.91V-3.83h-1v59c-2.54.71-5,1.52-7.5,2.41V-1.49h-1V58a107.06,107.06,0,0,0-31.6,18.57l-1,.85q-3.15,2.73-6.09,5.72V51.92l6.09-6.08,1-1.05V-1.49h-1V44.42l-6.09,6.09v-52h-1v53L6.17,57.6l-1,.9V92.29a106.57,106.57,0,0,0,0,131.45V257.4l1,1,6.08,6.08v53h1v-52l6.09,6.09v45.92h1v-46.3l-1-1-6.09-6.08V232.93q2.94,3,6.09,5.73l1,.85a107,107,0,0,0,31.6,18.56v59.46h1V258.44c2.46.89,5,1.7,7.5,2.41v58.47h1v-58.2l.44-.91,6.78-7.54a97,97,0,0,0,41.26,0l6.79,7.54.43.92v58.19h1V260.85q3.81-1.07,7.5-2.41v59.09h1V258.07a106.9,106.9,0,0,0,31.6-18.56l1-.85q3.15-2.74,6.09-5.73v31.18l-6.09,6.08-1,1.08v46.26h1V271.61l6.09-6.09v52h1v-53l6.08-6.08,1-1V223.74a106.57,106.57,0,0,0,0-131.45V58.62l-1-1-6.08-6.09v-53h-1v52l-6.09-6.09V-1.49h-1V44.78l1,1.06,6.09,6.08V83.1q-2.94-3-6.09-5.73l-1-.84A106.72,106.72,0,0,0,126.64,58V-1.49h-1V57.59c-2.46-.89-5-1.7-7.5-2.41v-59h-1V54.91a9.65,9.65,0,0,0-.43.92l-6.79,7.53a97,97,0,0,0-41.26,0l-6.78-7.53S61.45,54.9,61.44,54.91ZM6.17,59l6.08-6.09v31.2Q9.07,87.45,6.17,91Zm6.08,26.57V99.35a96.54,96.54,0,0,0-6.08,9V92.63C8.09,90.19,10.13,87.84,12.25,85.58ZM172.41,185a87,87,0,0,1-6.08,14.26V116.82a87,87,0,0,1,6.08,14.26Zm1-50.58a87.38,87.38,0,0,1,0,47.29ZM165.33,201a88.52,88.52,0,0,1-6.09,9.3l-1,1.3A87.83,87.83,0,0,1,126.64,237l-1,.47c-2.44,1.12-5,2.13-7.5,3l-1,.35c-2.46.83-5,1.55-7.51,2.16V224.94a69.47,69.47,0,0,0,7.51-2.77l1-.46a69.56,69.56,0,0,0,7.5-4l1-.65a70,70,0,0,0,31.6-47.38l0-.51a70,70,0,0,0,.95-11.1V158c0-.07,0-.14,0-.22a70.07,70.07,0,0,0-49.61-66.92V73c2.54.61,5.05,1.32,7.51,2.15l1,.35c2.55.9,5.06,1.91,7.5,3l1,.47a87.94,87.94,0,0,1,31.6,25.37l1,1.3a88.52,88.52,0,0,1,6.09,9.3Zm-145-43.68c0-.74,0-1.48.06-2.21a69,69,0,0,1,31.53-55l1-.65a67.58,67.58,0,0,1,7.5-4l1-.46A70.35,70.35,0,0,1,69,92.12l1-.28c1.52-.45,3.07-.84,4.64-1.19l1-.22a69.38,69.38,0,0,1,27.34,0l1,.22c1.58.35,3.13.75,4.67,1.2l1,.28A69.8,69.8,0,0,1,117.14,95l1,.45a69.36,69.36,0,0,1,7.5,4l1,.65a69,69,0,0,1,31.54,55.08c0,.66,0,1.32,0,2,0,.24,0,.47,0,.7a69,69,0,0,1-137.9,0C20.35,157.67,20.35,157.51,20.35,157.34Zm-1,.4c0,.07,0,.14,0,.21v.19a69.44,69.44,0,0,0,.95,11.06l0,.53a70.08,70.08,0,0,0,31.6,47.38l1,.65a69.56,69.56,0,0,0,7.5,4l1,.46A72.22,72.22,0,0,0,69,225V243q-3.84-.92-7.54-2.16l-1-.35c-2.55-.9-5.06-1.91-7.5-3l-1-.47a87.83,87.83,0,0,1-31.6-25.37l-1-1.3a88.52,88.52,0,0,1-6.09-9.3V115a88.65,88.65,0,0,1,6.09-9.31l1-1.3A87.94,87.94,0,0,1,51.94,79l1-.47c2.44-1.12,5-2.13,7.5-3l1-.35Q65.15,73.94,69,73V90.81A70.08,70.08,0,0,0,19.34,157.74ZM6.17,131.09a87,87,0,0,1,6.08-14.26v82.38a86.7,86.7,0,0,1-6.08-14.27Zm-1,50.56a87.57,87.57,0,0,1,0-47.27Zm1-53.65V110.27A98.57,98.57,0,0,1,12.25,101v13.75A89.29,89.29,0,0,0,6.17,128Zm-1,2.93a88.43,88.43,0,0,0,0,54.17V204a95.69,95.69,0,0,1,0-91.92Zm1,57.1a88.83,88.83,0,0,0,6.08,13.25V215a98.57,98.57,0,0,1-6.08-9.27Zm7.08,15a88.75,88.75,0,0,0,6.09,9l1,1.27a89,89,0,0,0,31.6,24.87l1,.46c2.44,1.11,5,2.11,7.5,3l1,.34a88.06,88.06,0,0,0,12.7,3.2l-5.84,6.48c-2.32-.52-4.6-1.12-6.86-1.81l-1-.3c-2.54-.81-5-1.72-7.5-2.73l-1-.41a96.3,96.3,0,0,1-31.6-21.75l-1-1.06q-3.21-3.42-6.09-7.16ZM70,243.24v-18c1.53.44,3.07.84,4.64,1.17v17.75C73.06,243.89,71.51,243.58,70,243.24Zm38.65-18v18c-1.54.35-3.1.66-4.67.92V226.4C105.54,226.07,107.09,225.67,108.63,225.23Zm8.51,16.66,1-.34c2.55-.88,5.06-1.88,7.5-3l1-.46a89,89,0,0,0,31.6-24.87l1-1.27a89.75,89.75,0,0,0,6.09-9v13.34q-2.88,3.74-6.09,7.16l-1,1.06a96.2,96.2,0,0,1-31.6,21.75l-1,.41q-3.67,1.52-7.5,2.73l-1,.31c-2.26.68-4.54,1.28-6.86,1.8l-5.84-6.48A88.06,88.06,0,0,0,117.14,241.89Zm49.19-40.61A88.72,88.72,0,0,0,172.41,188v17.72a95.4,95.4,0,0,1-6.08,9.27Zm7.08-16.17a88.26,88.26,0,0,0,0-54.18V112.05a95.71,95.71,0,0,1,0,91.93Zm-1-57.11a88.83,88.83,0,0,0-6.08-13.25V101a96.63,96.63,0,0,1,6.08,9.27Zm-7.08-15a88.75,88.75,0,0,0-6.09-9l-1-1.27a89,89,0,0,0-31.6-24.86l-1-.47c-2.44-1.11-5-2.1-7.5-3l-1-.34A86.75,86.75,0,0,0,104.44,71l5.84-6.49c2.32.52,4.6,1.12,6.86,1.81l1,.3q3.83,1.22,7.5,2.73l1,.41a96.2,96.2,0,0,1,31.6,21.75l1,1.06c2.14,2.28,4.17,4.68,6.09,7.16ZM108.63,72.8V90.53c-1.54-.44-3.09-.84-4.67-1.17V71.88C105.53,72.15,107.09,72.45,108.63,72.8ZM70,90.53V72.8c1.53-.35,3.08-.65,4.64-.92V89.36C73.05,89.69,71.51,90.09,70,90.53ZM61.44,74.14l-1,.34c-2.55.89-5.06,1.88-7.5,3l-1,.47a89,89,0,0,0-31.6,24.86l-1,1.27a88.75,88.75,0,0,0-6.09,9V99.68q2.88-3.72,6.09-7.16l1-1a96.33,96.33,0,0,1,31.6-21.76l1-.41c2.45-1,5-1.92,7.5-2.72l1-.31C63.7,65.58,66,65,68.3,64.46L74.14,71A86.75,86.75,0,0,0,61.44,74.14ZM-16.51,158A105.29,105.29,0,0,1,5.17,93.93V110a96.68,96.68,0,0,0,0,96V222.1A105.26,105.26,0,0,1-16.51,158ZM6.17,223.4V207.72a98,98,0,0,0,6.08,9v13.76C10.13,228.19,8.09,225.84,6.17,223.4Zm6.08,39.71L6.17,257V225q2.89,3.58,6.08,6.92Zm49.19-3.92-1,.63c-2.54-.72-5-1.54-7.5-2.44l-1-.38a106.1,106.1,0,0,1-31.6-18.8l-1-.88q-3.15-2.79-6.09-5.82V218q2.88,3.65,6.09,7l1,1a97.26,97.26,0,0,0,31.6,21.4l1,.41c2.45,1,5,1.9,7.5,2.7l1,.3c2,.6,4,1.15,6.09,1.62Zm27.85-5.3a95.58,95.58,0,0,1-19.86-2.07l5.88-6.54s.32-1,.31-1V226.61a69.38,69.38,0,0,0,27.34,0v17.71s.3,1,.31,1l5.88,6.54A95.58,95.58,0,0,1,89.29,253.89Zm70-16.57-1,.88a105.89,105.89,0,0,1-31.6,18.8l-1,.38c-2.46.9-5,1.72-7.5,2.44l-1-.63-6.09-6.76c2.06-.47,4.08-1,6.09-1.62l1-.3q3.83-1.2,7.5-2.7l1-.41a97.26,97.26,0,0,0,31.6-21.4l1-1q3.21-3.34,6.09-7V231.5C163.38,233.52,161.34,235.46,159.24,237.32ZM172.41,257l-6.08,6.09v-31.2q3.18-3.33,6.08-6.92Zm-6.08-26.56V216.69a97.24,97.24,0,0,0,6.08-9V223.4C170.49,225.84,168.45,228.19,166.33,230.46ZM195.09,158a105.26,105.26,0,0,1-21.68,64.08V206a96.7,96.7,0,0,0,0-96V93.93A105.26,105.26,0,0,1,195.09,158ZM172.41,92.63v15.68a96.06,96.06,0,0,0-6.08-9V85.58C168.45,87.84,170.49,90.19,172.41,92.63Zm-6.08-39.71L172.41,59V91q-2.9-3.58-6.08-6.92Zm-49.19,3.92,1-.63c2.54.72,5,1.54,7.5,2.44l1,.38a106.1,106.1,0,0,1,31.6,18.8l1,.88c2.1,1.86,4.14,3.8,6.09,5.82V98.05q-2.88-3.64-6.09-7l-1-1a97.26,97.26,0,0,0-31.6-21.4l-1-.41q-3.67-1.5-7.5-2.7l-1-.3c-2-.6-4-1.14-6.09-1.62Zm-27.85,5.3a96.26,96.26,0,0,1,19.86,2.07l-5.88,6.54s-.32,1-.31,1V89.15a69.89,69.89,0,0,0-27.34,0V71.71s-.3-1-.31-1l-5.88-6.54A96.26,96.26,0,0,1,89.29,62.14Zm-27.85-5.3,6.09,6.76q-3.07.72-6.09,1.62l-1,.3c-2.54.8-5,1.7-7.5,2.7l-1,.41A97.26,97.26,0,0,0,20.34,90l-1,1q-3.21,3.34-6.09,7V84.53q2.94-3,6.09-5.82l1-.87A105.92,105.92,0,0,1,51.94,59l1-.38c2.46-.9,5-1.72,7.5-2.44Z"/></g></g><rect class="cls-1" x="-5.67" y="-5.67" width="189.92" height="260.79"/><rect class="cls-1" x="-5.67" y="-5.67" width="189.92" height="260.79"/><path class="cls-1" d="M61.44,54.91V-3.83h-1v59c-2.54.71-5,1.52-7.5,2.41V-1.49h-1V58a107.06,107.06,0,0,0-31.6,18.57l-1,.85q-3.15,2.73-6.09,5.72V51.92l6.09-6.08,1-1.05V-1.49h-1V44.42l-6.09,6.09v-52h-1v53L6.17,57.6l-1,.9V92.29a106.57,106.57,0,0,0,0,131.45V257.4l1,1,6.08,6.08v53h1v-52l6.09,6.09v45.92h1v-46.3l-1-1-6.09-6.08V232.93q2.94,3,6.09,5.73l1,.85a107,107,0,0,0,31.6,18.56v59.46h1V258.44c2.46.89,5,1.7,7.5,2.41v58.47h1v-58.2l.44-.91,6.78-7.54a97,97,0,0,0,41.26,0l6.79,7.54.43.92v58.19h1V260.85q3.81-1.07,7.5-2.41v59.09h1V258.07a106.9,106.9,0,0,0,31.6-18.56l1-.85q3.15-2.74,6.09-5.73v31.18l-6.09,6.08-1,1.08v46.26h1V271.61l6.09-6.09v52h1v-53l6.08-6.08,1-1V223.74a106.57,106.57,0,0,0,0-131.45V58.62l-1-1-6.08-6.09v-53h-1v52l-6.09-6.09V-1.49h-1V44.78l1,1.06,6.09,6.08V83.1q-2.94-3-6.09-5.73l-1-.84A106.72,106.72,0,0,0,126.64,58V-1.49h-1V57.59c-2.46-.89-5-1.7-7.5-2.41v-59h-1V54.91a9.65,9.65,0,0,0-.43.92l-6.79,7.53a97,97,0,0,0-41.26,0l-6.78-7.53S61.45,54.9,61.44,54.91ZM6.17,59l6.08-6.09v31.2Q9.07,87.45,6.17,91Zm6.08,26.57V99.35a96.54,96.54,0,0,0-6.08,9V92.63C8.09,90.19,10.13,87.84,12.25,85.58ZM172.41,185a87,87,0,0,1-6.08,14.26V116.82a87,87,0,0,1,6.08,14.26Zm1-50.58a87.38,87.38,0,0,1,0,47.29ZM165.33,201a88.52,88.52,0,0,1-6.09,9.3l-1,1.3A87.83,87.83,0,0,1,126.64,237l-1,.47c-2.44,1.12-5,2.13-7.5,3l-1,.35c-2.46.83-5,1.55-7.51,2.16V224.94a69.47,69.47,0,0,0,7.51-2.77l1-.46a69.56,69.56,0,0,0,7.5-4l1-.65a70,70,0,0,0,31.6-47.38l0-.51a70,70,0,0,0,.95-11.1V158c0-.07,0-.14,0-.22a70.07,70.07,0,0,0-49.61-66.92V73c2.54.61,5.05,1.32,7.51,2.15l1,.35c2.55.9,5.06,1.91,7.5,3l1,.47a87.94,87.94,0,0,1,31.6,25.37l1,1.3a88.52,88.52,0,0,1,6.09,9.3Zm-145-43.68c0-.74,0-1.48.06-2.21a69,69,0,0,1,31.53-55l1-.65a67.58,67.58,0,0,1,7.5-4l1-.46A70.35,70.35,0,0,1,69,92.12l1-.28c1.52-.45,3.07-.84,4.64-1.19l1-.22a69.38,69.38,0,0,1,27.34,0l1,.22c1.58.35,3.13.75,4.67,1.2l1,.28A69.8,69.8,0,0,1,117.14,95l1,.45a69.36,69.36,0,0,1,7.5,4l1,.65a69,69,0,0,1,31.54,55.08c0,.66,0,1.32,0,2,0,.24,0,.47,0,.7a69,69,0,0,1-137.9,0C20.35,157.67,20.35,157.51,20.35,157.34Zm-1,.4c0,.07,0,.14,0,.21v.19a69.44,69.44,0,0,0,.95,11.06l0,.53a70.08,70.08,0,0,0,31.6,47.38l1,.65a69.56,69.56,0,0,0,7.5,4l1,.46A72.22,72.22,0,0,0,69,225V243q-3.84-.92-7.54-2.16l-1-.35c-2.55-.9-5.06-1.91-7.5-3l-1-.47a87.83,87.83,0,0,1-31.6-25.37l-1-1.3a88.52,88.52,0,0,1-6.09-9.3V115a88.65,88.65,0,0,1,6.09-9.31l1-1.3A87.94,87.94,0,0,1,51.94,79l1-.47c2.44-1.12,5-2.13,7.5-3l1-.35Q65.15,73.94,69,73V90.81A70.08,70.08,0,0,0,19.34,157.74ZM6.17,131.09a87,87,0,0,1,6.08-14.26v82.38a86.7,86.7,0,0,1-6.08-14.27Zm-1,50.56a87.57,87.57,0,0,1,0-47.27Zm1-53.65V110.27A98.57,98.57,0,0,1,12.25,101v13.75A89.29,89.29,0,0,0,6.17,128Zm-1,2.93a88.43,88.43,0,0,0,0,54.17V204a95.69,95.69,0,0,1,0-91.92Zm1,57.1a88.83,88.83,0,0,0,6.08,13.25V215a98.57,98.57,0,0,1-6.08-9.27Zm7.08,15a88.75,88.75,0,0,0,6.09,9l1,1.27a89,89,0,0,0,31.6,24.87l1,.46c2.44,1.11,5,2.11,7.5,3l1,.34a88.06,88.06,0,0,0,12.7,3.2l-5.84,6.48c-2.32-.52-4.6-1.12-6.86-1.81l-1-.3c-2.54-.81-5-1.72-7.5-2.73l-1-.41a96.3,96.3,0,0,1-31.6-21.75l-1-1.06q-3.21-3.42-6.09-7.16ZM70,243.24v-18c1.53.44,3.07.84,4.64,1.17v17.75C73.06,243.89,71.51,243.58,70,243.24Zm38.65-18v18c-1.54.35-3.1.66-4.67.92V226.4C105.54,226.07,107.09,225.67,108.63,225.23Zm8.51,16.66,1-.34c2.55-.88,5.06-1.88,7.5-3l1-.46a89,89,0,0,0,31.6-24.87l1-1.27a89.75,89.75,0,0,0,6.09-9v13.34q-2.88,3.74-6.09,7.16l-1,1.06a96.2,96.2,0,0,1-31.6,21.75l-1,.41q-3.67,1.52-7.5,2.73l-1,.31c-2.26.68-4.54,1.28-6.86,1.8l-5.84-6.48A88.06,88.06,0,0,0,117.14,241.89Zm49.19-40.61A88.72,88.72,0,0,0,172.41,188v17.72a95.4,95.4,0,0,1-6.08,9.27Zm7.08-16.17a88.26,88.26,0,0,0,0-54.18V112.05a95.71,95.71,0,0,1,0,91.93Zm-1-57.11a88.83,88.83,0,0,0-6.08-13.25V101a96.63,96.63,0,0,1,6.08,9.27Zm-7.08-15a88.75,88.75,0,0,0-6.09-9l-1-1.27a89,89,0,0,0-31.6-24.86l-1-.47c-2.44-1.11-5-2.1-7.5-3l-1-.34A86.75,86.75,0,0,0,104.44,71l5.84-6.49c2.32.52,4.6,1.12,6.86,1.81l1,.3q3.83,1.22,7.5,2.73l1,.41a96.2,96.2,0,0,1,31.6,21.75l1,1.06c2.14,2.28,4.17,4.68,6.09,7.16ZM108.63,72.8V90.53c-1.54-.44-3.09-.84-4.67-1.17V71.88C105.53,72.15,107.09,72.45,108.63,72.8ZM70,90.53V72.8c1.53-.35,3.08-.65,4.64-.92V89.36C73.05,89.69,71.51,90.09,70,90.53ZM61.44,74.14l-1,.34c-2.55.89-5.06,1.88-7.5,3l-1,.47a89,89,0,0,0-31.6,24.86l-1,1.27a88.75,88.75,0,0,0-6.09,9V99.68q2.88-3.72,6.09-7.16l1-1a96.33,96.33,0,0,1,31.6-21.76l1-.41c2.45-1,5-1.92,7.5-2.72l1-.31C63.7,65.58,66,65,68.3,64.46L74.14,71A86.75,86.75,0,0,0,61.44,74.14ZM-16.51,158A105.29,105.29,0,0,1,5.17,93.93V110a96.68,96.68,0,0,0,0,96V222.1A105.26,105.26,0,0,1-16.51,158ZM6.17,223.4V207.72a98,98,0,0,0,6.08,9v13.76C10.13,228.19,8.09,225.84,6.17,223.4Zm6.08,39.71L6.17,257V225q2.89,3.58,6.08,6.92Zm49.19-3.92-1,.63c-2.54-.72-5-1.54-7.5-2.44l-1-.38a106.1,106.1,0,0,1-31.6-18.8l-1-.88q-3.15-2.79-6.09-5.82V218q2.88,3.65,6.09,7l1,1a97.26,97.26,0,0,0,31.6,21.4l1,.41c2.45,1,5,1.9,7.5,2.7l1,.3c2,.6,4,1.15,6.09,1.62Zm27.85-5.3a95.58,95.58,0,0,1-19.86-2.07l5.88-6.54s.32-1,.31-1V226.61a69.38,69.38,0,0,0,27.34,0v17.71s.3,1,.31,1l5.88,6.54A95.58,95.58,0,0,1,89.29,253.89Zm70-16.57-1,.88a105.89,105.89,0,0,1-31.6,18.8l-1,.38c-2.46.9-5,1.72-7.5,2.44l-1-.63-6.09-6.76c2.06-.47,4.08-1,6.09-1.62l1-.3q3.83-1.2,7.5-2.7l1-.41a97.26,97.26,0,0,0,31.6-21.4l1-1q3.21-3.34,6.09-7V231.5C163.38,233.52,161.34,235.46,159.24,237.32ZM172.41,257l-6.08,6.09v-31.2q3.18-3.33,6.08-6.92Zm-6.08-26.56V216.69a97.24,97.24,0,0,0,6.08-9V223.4C170.49,225.84,168.45,228.19,166.33,230.46ZM195.09,158a105.26,105.26,0,0,1-21.68,64.08V206a96.7,96.7,0,0,0,0-96V93.93A105.26,105.26,0,0,1,195.09,158ZM172.41,92.63v15.68a96.06,96.06,0,0,0-6.08-9V85.58C168.45,87.84,170.49,90.19,172.41,92.63Zm-6.08-39.71L172.41,59V91q-2.9-3.58-6.08-6.92Zm-49.19,3.92,1-.63c2.54.72,5,1.54,7.5,2.44l1,.38a106.1,106.1,0,0,1,31.6,18.8l1,.88c2.1,1.86,4.14,3.8,6.09,5.82V98.05q-2.88-3.64-6.09-7l-1-1a97.26,97.26,0,0,0-31.6-21.4l-1-.41q-3.67-1.5-7.5-2.7l-1-.3c-2-.6-4-1.14-6.09-1.62Zm-27.85,5.3a96.26,96.26,0,0,1,19.86,2.07l-5.88,6.54s-.32,1-.31,1V89.15a69.89,69.89,0,0,0-27.34,0V71.71s-.3-1-.31-1l-5.88-6.54A96.26,96.26,0,0,1,89.29,62.14Zm-27.85-5.3,6.09,6.76q-3.07.72-6.09,1.62l-1,.3c-2.54.8-5,1.7-7.5,2.7l-1,.41A97.26,97.26,0,0,0,20.34,90l-1,1q-3.21,3.34-6.09,7V84.53q2.94-3,6.09-5.82l1-.87A105.92,105.92,0,0,1,51.94,59l1-.38c2.46-.9,5-1.72,7.5-2.44Z"/><rect class="cls-5" x="-5.67" y="-5.67" width="189.92" height="260.79"/><path class="cls-6" d="M173.41,92.29V58.62l-1-1-6.08-6.09v-53h-1v52l-6.09-6.09V-1.49h-1V44.78l1,1.06,6.09,6.08V83.1q-2.94-3-6.09-5.73l-1-.84A106.72,106.72,0,0,0,126.64,58V-1.49h-1V57.59c-2.46-.89-5-1.7-7.5-2.41v-59h-1V54.91a9.65,9.65,0,0,0-.43.92l-6.79,7.53a97,97,0,0,0-41.26,0l-6.78-7.53s-.43-.93-.44-.92V-3.83h-1v59c-2.54.71-5,1.52-7.5,2.41V-1.49h-1V58a107.06,107.06,0,0,0-31.6,18.57l-1,.85q-3.15,2.73-6.09,5.72V51.92l6.09-6.08,1-1.05V-1.49h-1V44.42l-6.09,6.09v-52h-1v53L6.17,57.6l-1,.9V92.29a106.57,106.57,0,0,0,0,131.45V257.4l1,1,6.08,6.08v53h1v-52l6.09,6.09v45.92h1v-46.3l-1-1-6.09-6.08V232.93q2.94,3,6.09,5.73l1,.85a107,107,0,0,0,31.6,18.56v59.46h1V258.44c2.46.89,5,1.7,7.5,2.41v58.47h1v-58.2l.44-.91,6.78-7.54a97,97,0,0,0,41.26,0l6.79,7.54.43.92v58.19h1V260.85q3.81-1.07,7.5-2.41v59.09h1V258.07a106.9,106.9,0,0,0,31.6-18.56l1-.85q3.15-2.74,6.09-5.73v31.18l-6.09,6.08-1,1.08v46.26h1V271.61l6.09-6.09v52h1v-53l6.08-6.08,1-1V223.74a106.57,106.57,0,0,0,0-131.45ZM5.17,181.65a87.57,87.57,0,0,1,0-47.27Zm0-50.72a88.43,88.43,0,0,0,0,54.17V204a95.69,95.69,0,0,1,0-91.92Zm0-20.92a96.68,96.68,0,0,0,0,96V222.1a105.56,105.56,0,0,1,0-128.17Zm7.08,153.1L6.17,257V225q2.89,3.58,6.08,6.92Zm0-32.66c-2.12-2.26-4.16-4.61-6.08-7V207.72a98,98,0,0,0,6.08,9Zm0-15.42a98.57,98.57,0,0,1-6.08-9.27V188a88.83,88.83,0,0,0,6.08,13.25Zm0-15.82a86.7,86.7,0,0,1-6.08-14.27V131.09a87,87,0,0,1,6.08-14.26Zm0-84.46A89.29,89.29,0,0,0,6.17,128V110.27A98.57,98.57,0,0,1,12.25,101Zm0-15.4a96.54,96.54,0,0,0-6.08,9V92.63c1.92-2.44,4-4.79,6.08-7Zm0-15.23Q9.07,87.45,6.17,91V59l6.08-6.09Zm77-22a96.26,96.26,0,0,1,19.86,2.07l-5.88,6.54s-.32,1-.31,1V89.15a69.89,69.89,0,0,0-27.34,0V71.71s-.3-1-.31-1l-5.88-6.54A96.26,96.26,0,0,1,89.29,62.14Zm0,164.55a69,69,0,0,1-68.95-68.86c0-.16,0-.32,0-.49,0-.74,0-1.48.06-2.21a69,69,0,0,1,31.53-55l1-.65a67.58,67.58,0,0,1,7.5-4l1-.46A70.35,70.35,0,0,1,69,92.12l1-.28c1.52-.45,3.07-.84,4.64-1.19l1-.22a69.38,69.38,0,0,1,27.34,0l1,.22c1.58.35,3.13.75,4.67,1.2l1,.28A69.8,69.8,0,0,1,117.14,95l1,.45a69.36,69.36,0,0,1,7.5,4l1,.65a69,69,0,0,1,31.54,55.08c0,.66,0,1.32,0,2,0,.24,0,.47,0,.7A69,69,0,0,1,89.29,226.69Zm19.34-1.46v18c-1.54.35-3.1.66-4.67.92V226.4C105.54,226.07,107.09,225.67,108.63,225.23Zm-34,1.17v17.75c-1.56-.26-3.11-.57-4.64-.91v-18C71.51,225.67,73.05,226.07,74.62,226.4ZM70,90.53V72.8c1.53-.35,3.08-.65,4.64-.92V89.36C73.05,89.69,71.51,90.09,70,90.53Zm38.65,0c-1.54-.44-3.09-.84-4.67-1.17V71.88c1.57.27,3.13.57,4.67.92Zm-95.38-6q2.94-3,6.09-5.82l1-.87A105.92,105.92,0,0,1,51.94,59l1-.38c2.46-.9,5-1.72,7.5-2.44l1,.63,6.09,6.76q-3.07.72-6.09,1.62l-1,.3c-2.54.8-5,1.7-7.5,2.7l-1,.41A97.26,97.26,0,0,0,20.34,90l-1,1q-3.21,3.34-6.09,7Zm0,15.15q2.88-3.72,6.09-7.16l1-1a96.33,96.33,0,0,1,31.6-21.76l1-.41c2.45-1,5-1.92,7.5-2.72l1-.31C63.7,65.58,66,65,68.3,64.46L74.14,71a86.75,86.75,0,0,0-12.7,3.19l-1,.34c-2.55.89-5.06,1.88-7.5,3l-1,.47a89,89,0,0,0-31.6,24.86l-1,1.27a88.75,88.75,0,0,0-6.09,9Zm0,15.34a88.65,88.65,0,0,1,6.09-9.31l1-1.3A87.94,87.94,0,0,1,51.94,79l1-.47c2.44-1.12,5-2.13,7.5-3l1-.35Q65.15,73.94,69,73V90.81a70.08,70.08,0,0,0-49.64,66.93c0,.07,0,.14,0,.21v.19a69.44,69.44,0,0,0,.95,11.06l0,.53a70,70,0,0,0,31.6,47.38l1,.65a69.56,69.56,0,0,0,7.5,4l1,.46A72.22,72.22,0,0,0,69,225V243q-3.84-.92-7.54-2.16l-1-.35c-2.55-.9-5.06-1.91-7.5-3l-1-.47a87.83,87.83,0,0,1-31.6-25.37l-1-1.3a88.52,88.52,0,0,1-6.09-9.3ZM61.44,259.19l-1,.63c-2.54-.72-5-1.54-7.5-2.44l-1-.38a106.1,106.1,0,0,1-31.6-18.8l-1-.88q-3.15-2.79-6.09-5.82V218q2.88,3.65,6.09,7l1,1a97.26,97.26,0,0,0,31.6,21.4l1,.41c2.45,1,5,1.9,7.5,2.7l1,.3c2,.6,4,1.15,6.09,1.62Zm6.86-7.62c-2.32-.52-4.6-1.12-6.86-1.81l-1-.3c-2.54-.81-5-1.72-7.5-2.73l-1-.41a96.3,96.3,0,0,1-31.6-21.75l-1-1.06q-3.21-3.42-6.09-7.16V203a88.75,88.75,0,0,0,6.09,9l1,1.27a89,89,0,0,0,31.6,24.87l1,.46c2.44,1.11,5,2.11,7.5,3l1,.34a88.06,88.06,0,0,0,12.7,3.2Zm21,2.32a95.58,95.58,0,0,1-19.86-2.07l5.88-6.54s.32-1,.31-1V226.61a69.38,69.38,0,0,0,27.34,0v17.71s.3,1,.31,1l5.88,6.54A95.58,95.58,0,0,1,89.29,253.89Zm76-22.39c-2,2-4,4-6.09,5.82l-1,.88a105.89,105.89,0,0,1-31.6,18.8l-1,.38c-2.46.9-5,1.72-7.5,2.44l-1-.63-6.09-6.76c2.06-.47,4.08-1,6.09-1.62l1-.3q3.83-1.2,7.5-2.7l1-.41a97.26,97.26,0,0,0,31.6-21.4l1-1q3.21-3.34,6.09-7Zm0-15.15q-2.88,3.74-6.09,7.16l-1,1.06a96.2,96.2,0,0,1-31.6,21.75l-1,.41q-3.67,1.52-7.5,2.73l-1,.31c-2.26.68-4.54,1.28-6.86,1.8l-5.84-6.48a88.06,88.06,0,0,0,12.7-3.2l1-.34c2.55-.88,5.06-1.88,7.5-3l1-.46a89,89,0,0,0,31.6-24.87l1-1.27a89.75,89.75,0,0,0,6.09-9Zm0-15.33a88.52,88.52,0,0,1-6.09,9.3l-1,1.3A87.83,87.83,0,0,1,126.64,237l-1,.47c-2.44,1.12-5,2.13-7.5,3l-1,.35c-2.46.83-5,1.55-7.51,2.16V224.94a69.47,69.47,0,0,0,7.51-2.77l1-.46a69.56,69.56,0,0,0,7.5-4l1-.65a70,70,0,0,0,31.6-47.38l0-.51a70,70,0,0,0,.95-11.1V158c0-.07,0-.14,0-.22a70.07,70.07,0,0,0-49.61-66.92V73c2.54.61,5.05,1.32,7.51,2.15l1,.35c2.55.9,5.06,1.91,7.5,3l1,.47a87.94,87.94,0,0,1,31.6,25.37l1,1.3a88.52,88.52,0,0,1,6.09,9.3Zm0-88a88.75,88.75,0,0,0-6.09-9l-1-1.27a89,89,0,0,0-31.6-24.86l-1-.47c-2.44-1.11-5-2.1-7.5-3l-1-.34A86.75,86.75,0,0,0,104.44,71l5.84-6.49c2.32.52,4.6,1.12,6.86,1.81l1,.3q3.83,1.22,7.5,2.73l1,.41a96.2,96.2,0,0,1,31.6,21.75l1,1.06c2.14,2.28,4.17,4.68,6.09,7.16Zm0-15q-2.88-3.64-6.09-7l-1-1a97.26,97.26,0,0,0-31.6-21.4l-1-.41q-3.67-1.5-7.5-2.7l-1-.3c-2-.6-4-1.14-6.09-1.62l6.09-6.76,1-.63c2.54.72,5,1.54,7.5,2.44l1,.38a106.1,106.1,0,0,1,31.6,18.8l1,.88c2.1,1.86,4.14,3.8,6.09,5.82Zm7.08,159-6.08,6.09v-31.2q3.18-3.33,6.08-6.92Zm0-33.62c-1.92,2.44-4,4.79-6.08,7.06V216.69a99.28,99.28,0,0,0,6.08-9Zm0-17.64a95.4,95.4,0,0,1-6.08,9.27V201.28A88.72,88.72,0,0,0,172.41,188Zm0-20.81a87,87,0,0,1-6.08,14.26V116.82a87,87,0,0,1,6.08,14.26Zm0-56.95a88.83,88.83,0,0,0-6.08-13.25V101a96.63,96.63,0,0,1,6.08,9.27Zm0-19.69a98,98,0,0,0-6.08-9V85.58c2.12,2.26,4.16,4.61,6.08,7Zm0-17.27q-2.9-3.58-6.08-6.92V52.92L172.41,59Zm1,43.33a87.38,87.38,0,0,1,0,47.29Zm0,50.74a88.26,88.26,0,0,0,0-54.18V112.05a95.71,95.71,0,0,1,0,91.93Zm0,20.92a96.7,96.7,0,0,0,0-96V93.93a105.56,105.56,0,0,1,0,128.17Z"/><path class="cls-6" d="M7.52,239.49v2l-.5-.44-.16.19,3,2.59.17-.18L9.25,243v-2.41h1.23v1.12l-.66.57.17.18,1.43-1.25-.17-.18-.52.46v-2l.52.46.17-.18-1.5-1.32-.16.19.72.63v1.11H9.25V238l.69-.61-.16-.18-3,2.6L7,240Zm.25-.22L9,238.2v2.18H7.77Zm0,1.36H9v2.19l-1.23-1.07Z"/></g><path id="path25903" class="cls-7" d="M89,198.78c-3-1.23-4.24-3.84-6.69-13.77-1.14-4.61-1.57-5.1-5-5.81-1.46-.3-3.35-1.65-6.17-4.42l-4-4L64.74,173a10.22,10.22,0,0,1-2.89,2.23c-.78,0-8.08-7.38-8.08-8.17,0-1,4.29-4.81,8.73-7.66,5.65-3.64,19.3-17.36,18.73-18.84s3-5.07,5-5.07c1.09,0,2.54-1,4.83-3.31s3.75-3.31,4.76-3.31c1.65,0,4.87,2.72,4.87,4.12,0,.49-3.11,4-6.92,7.89-6.23,6.31-7.87,8.46-6.46,8.46,1.11,0,23.54-23.4,25.11-26.19,1.93-3.44,3.26-5.12,4.07-5.12s8.29,7.32,8.29,8.2c0,.43-2,1.93-4.37,3.35-4.48,2.64-19.12,16.27-19.12,17.81,0,.42,2.17,2.93,4.82,5.56s4.82,5.13,4.82,5.53-3.6,4.35-8,8.75c-7.39,7.39-8.17,8-10.23,8-2.64,0-2.73.45-.74,3.6,3.76,5.95,6.33,11.79,6.33,14.36,0,4.74-4.63,7.5-9.33,5.55Zm5.6-3.16c1.53-1.53.74-4.58-2.87-11.08-2-3.55-3.87-6.74-4.21-7.07-.86-.87-3.79,2-3.31,3.19.2.51.77,2.56,1.27,4.55,2.09,8.29,2.65,9.76,4,10.41,1.82.88,4.25.88,5.13,0ZM84.06,175.39a6.48,6.48,0,0,0,1.62-2.28c0-.32-1.9-2.47-4.22-4.77l-4.22-4.19L74.1,167.3,71,170.44l2.69,2.73c4,4.13,7.81,4.93,10.41,2.22Zm9.7-3.5c1.45-.55,1.14-1.25-.86-1.95-1.56-.54-1.8-.49-1.8.44C91.1,172.14,91.91,172.6,93.76,171.89Zm-27.35-6.25A30,30,0,0,1,70,160.57c1.38-1.25,1.69-2.76.55-2.76a5,5,0,0,0-2.15,1.35A43.45,43.45,0,0,1,63,162.93c-5.43,3.3-5.75,3.95-3.19,6.6,2,2,2.1,2.07,3.21,1.07a30.46,30.46,0,0,0,3.44-5ZM91,165.1l2-2-3.68-3.67-3.67-3.67-3.15,3.14L79.38,162l3.9,4,3.9,3.94.91-1.38A28.81,28.81,0,0,1,91,165.1ZM97.44,168c.57-1.79-1.1-3.45-2.38-2.38-.82.68-.81.91.12,2.19,1.29,1.77,1.75,1.81,2.26.19Zm-24.88-3.37c2.44-2.39,2.8-3.19,1.41-3.19-.76,0-2.9,2.38-4.19,4.67-.82,1.44.51.74,2.78-1.48Zm32-3.19,2.81-3-4.26-4.21A37.18,37.18,0,0,0,98.47,150c-.65,0-6.77,6.22-6.77,6.88S96,162,96.79,162a5.89,5.89,0,0,1,2.14,1.19,5.72,5.72,0,0,0,2.17,1.19c.37,0,1.94-1.34,3.49-3Zm-23.13-5.71,3.87-3.91-2-2.11a8.57,8.57,0,0,0-2.67-2.12c-.71,0-7.58,6.66-7.58,7.34s3.63,4.71,4.15,4.71a32.4,32.4,0,0,0,4.28-3.91Zm15.22-8.6a91.36,91.36,0,0,0,7.06-7.52c0-1.47-2.38.38-8.61,6.68a102.55,102.55,0,0,0-7,7.53C88.09,155.19,90.47,153.34,96.68,147.11Zm-5.59-7.66c5-5,6.14-6.46,5.54-7.06s-2,.53-7.06,5.69c-3.46,3.54-6.3,6.72-6.3,7.06C83.27,146.74,85.28,145.28,91.09,139.45Zm18.2-4.95c2.94-2.9,3.45-3.79,2.15-3.79-1,0-5.89,4.87-5.89,5.85,0,1.3.74.9,3.74-2.06Zm9.12-7.16,2.3-1.56L119,124a7.32,7.32,0,0,0-2.13-1.75,7.67,7.67,0,0,0-1.94,2.5c-2.48,4.15-.77,5.42,3.44,2.56Z"/><rect class="cls-7" x="-5.67" y="-5.67" width="189.92" height="45.68"/><polygon class="cls-7" points="184.25 -5.67 121.97 -5.67 143.03 20.5 184.25 20.5 184.25 -5.67"/><polygon class="cls-7" points="-5.67 -5.67 56.62 -5.67 35.55 20.5 -5.67 20.5 -5.67 -5.67"/><polygon class="cls-5" points="122.48 -5.67 121.96 -5.67 121.5 -5.29 142.79 21 184.25 21 184.25 20 143.27 20 122.48 -5.67"/><polygon class="cls-5" points="56.1 -5.67 35.31 20 -5.67 20 -5.67 21 35.79 21 57.08 -5.29 56.62 -5.67 56.1 -5.67"/></svg>