<svg id="Layer_1" data-name="Layer 1" xmlns="http://www.w3.org/2000/svg" xmlns:xlink="http://www.w3.org/1999/xlink" viewBox="0 0 178.58 249.45"><defs><style>.cls-1{fill:none;}.cls-2{clip-path:url(#clip-path);}.cls-3{fill:#fff;}.cls-4{opacity:0.02;}.cls-5{fill:#090400;}.cls-6{fill:#e52722;}.cls-7{fill:#fbfbfb;}</style><clipPath id="clip-path"><rect class="cls-1" x="-5.67" y="-5.67" width="189.92" height="260.79"/></clipPath></defs><g class="cls-2"><rect class="cls-3" x="-5.67" y="-5.67" width="189.92" height="260.79"/><g class="cls-4"><path class="cls-5" d="M173.41,92.29V58.62l-1-1-6.08-6.09v-53h-1v52l-6.09-6.09V-1.49h-1V44.78l1,1.06,6.09,6.08V83.1q-2.94-3-6.09-5.73l-1-.84A106.72,106.72,0,0,0,126.64,58V-1.49h-1V57.59c-2.46-.89-5-1.7-7.5-2.41v-59h-1V54.91a9.65,9.65,0,0,0-.43.92l-6.79,7.53a97,97,0,0,0-41.26,0l-6.78-7.53s-.43-.93-.44-.92V-3.83h-1v59c-2.54.71-5,1.52-7.5,2.41V-1.49h-1V58a107.06,107.06,0,0,0-31.6,18.57l-1,.85q-3.15,2.73-6.09,5.72V51.92l6.09-6.08,1-1.05V-1.49h-1V44.42l-6.09,6.09v-52h-1v53L6.17,57.6l-1,.9V92.29a106.57,106.57,0,0,0,0,131.45V257.4l1,1,6.08,6.08v53h1v-52l6.09,6.09v45.92h1v-46.3l-1-1-6.09-6.08V232.93q2.94,3,6.09,5.73l1,.85a107,107,0,0,0,31.6,18.56v59.46h1V258.44c2.46.89,5,1.7,7.5,2.41v58.47h1v-58.2l.44-.91,6.78-7.54a97,97,0,0,0,41.26,0l6.79,7.54.43.92v58.19h1V260.85q3.81-1.07,7.5-2.41v59.09h1V258.07a106.9,106.9,0,0,0,31.6-18.56l1-.85q3.15-2.74,6.09-5.73v31.18l-6.09,6.08-1,1.08v46.26h1V271.61l6.09-6.09v52h1v-53l6.08-6.08,1-1V223.74a106.57,106.57,0,0,0,0-131.45ZM5.17,181.65a87.57,87.57,0,0,1,0-47.27Zm0-50.72a88.43,88.43,0,0,0,0,54.17V204a95.69,95.69,0,0,1,0-91.92Zm0-20.92a96.68,96.68,0,0,0,0,96V222.1a105.56,105.56,0,0,1,0-128.17Zm7.08,153.1L6.17,257V225q2.89,3.58,6.08,6.92Zm0-32.66c-2.12-2.26-4.16-4.61-6.08-7V207.72a98,98,0,0,0,6.08,9Zm0-15.42a98.57,98.57,0,0,1-6.08-9.27V188a88.83,88.83,0,0,0,6.08,13.25Zm0-15.82a86.7,86.7,0,0,1-6.08-14.27V131.09a87,87,0,0,1,6.08-14.26Zm0-84.46A89.29,89.29,0,0,0,6.17,128V110.27A98.57,98.57,0,0,1,12.25,101Zm0-15.4a96.54,96.54,0,0,0-6.08,9V92.63c1.92-2.44,4-4.79,6.08-7Zm0-15.23Q9.07,87.45,6.17,91V59l6.08-6.09Zm77-22a96.26,96.26,0,0,1,19.86,2.07l-5.88,6.54s-.32,1-.31,1V89.15a69.89,69.89,0,0,0-27.34,0V71.71s-.3-1-.3-1l-5.89-6.54A96.26,96.26,0,0,1,89.29,62.14Zm0,164.55a69,69,0,0,1-68.95-68.86c0-.16,0-.32,0-.49,0-.74,0-1.48.06-2.21a69,69,0,0,1,31.53-55l1-.65a67.58,67.58,0,0,1,7.5-4l1-.46A70.35,70.35,0,0,1,69,92.12l1-.28c1.52-.45,3.07-.84,4.64-1.19l1-.22a69.38,69.38,0,0,1,27.34,0l1,.22c1.58.35,3.13.75,4.67,1.2l1,.28A69.8,69.8,0,0,1,117.14,95l1,.45a69.36,69.36,0,0,1,7.5,4l1,.65a69,69,0,0,1,31.54,55.08c0,.66,0,1.32,0,2,0,.24,0,.47,0,.7A69,69,0,0,1,89.29,226.69Zm19.34-1.46v18c-1.54.35-3.1.66-4.67.92V226.4C105.54,226.07,107.09,225.67,108.63,225.23Zm-34,1.17v17.75c-1.56-.26-3.11-.57-4.64-.91v-18C71.51,225.67,73.05,226.07,74.62,226.4ZM70,90.53V72.8c1.53-.35,3.08-.65,4.64-.92V89.36C73.05,89.69,71.51,90.09,70,90.53Zm38.65,0c-1.54-.44-3.09-.84-4.67-1.17V71.88c1.57.27,3.13.57,4.67.92Zm-95.38-6q2.94-3,6.09-5.82l1-.87A105.92,105.92,0,0,1,51.94,59l1-.38c2.46-.9,5-1.72,7.5-2.44l1,.63,6.09,6.76q-3.07.72-6.09,1.62l-1,.3c-2.54.8-5,1.7-7.5,2.7l-1,.41A97.26,97.26,0,0,0,20.34,90l-1,1q-3.21,3.34-6.09,7Zm0,15.15q2.88-3.72,6.09-7.16l1-1a96.33,96.33,0,0,1,31.6-21.76l1-.41c2.45-1,5-1.92,7.5-2.72l1-.31C63.7,65.58,66,65,68.3,64.46L74.14,71a86.75,86.75,0,0,0-12.7,3.19l-1,.34c-2.55.89-5.06,1.88-7.5,3l-1,.47a89,89,0,0,0-31.6,24.86l-1,1.27a88.75,88.75,0,0,0-6.09,9Zm0,15.34a88.65,88.65,0,0,1,6.09-9.31l1-1.3A87.94,87.94,0,0,1,51.94,79l1-.47c2.44-1.12,5-2.13,7.5-3l1-.35Q65.15,73.94,69,73V90.81a70.08,70.08,0,0,0-49.64,66.93c0,.07,0,.14,0,.21v.19a69.44,69.44,0,0,0,.95,11.06l0,.53a70,70,0,0,0,31.6,47.38l1,.65a69.56,69.56,0,0,0,7.5,4l1,.46A72.22,72.22,0,0,0,69,225V243q-3.84-.92-7.54-2.16l-1-.35c-2.55-.9-5.06-1.91-7.5-3l-1-.47a87.83,87.83,0,0,1-31.6-25.37l-1-1.3a88.52,88.52,0,0,1-6.09-9.3ZM61.44,259.19l-1,.63c-2.54-.72-5-1.54-7.5-2.44l-1-.38a106.1,106.1,0,0,1-31.6-18.8l-1-.88q-3.15-2.79-6.09-5.82V218q2.88,3.65,6.09,7l1,1a97.26,97.26,0,0,0,31.6,21.4l1,.41c2.45,1,5,1.9,7.5,2.7l1,.3c2,.6,4,1.15,6.09,1.62Zm6.86-7.62c-2.32-.52-4.6-1.12-6.86-1.81l-1-.3c-2.54-.81-5-1.72-7.5-2.73l-1-.41a96.3,96.3,0,0,1-31.6-21.75l-1-1.06q-3.21-3.42-6.09-7.16V203a88.75,88.75,0,0,0,6.09,9l1,1.27a89,89,0,0,0,31.6,24.87l1,.46c2.44,1.11,5,2.11,7.5,3l1,.34a88.06,88.06,0,0,0,12.7,3.2Zm21,2.32a95.58,95.58,0,0,1-19.86-2.07l5.88-6.54s.32-1,.31-1V226.61a69.38,69.38,0,0,0,27.34,0v17.71s.3,1,.31,1l5.88,6.54A95.58,95.58,0,0,1,89.29,253.89Zm76-22.39c-2,2-4,4-6.09,5.82l-1,.88a105.89,105.89,0,0,1-31.6,18.8l-1,.38c-2.46.9-5,1.72-7.5,2.44l-1-.63-6.09-6.76c2.06-.47,4.08-1,6.09-1.62l1-.3q3.83-1.2,7.5-2.7l1-.41a97.26,97.26,0,0,0,31.6-21.4l1-1q3.21-3.34,6.09-7Zm0-15.15q-2.88,3.74-6.09,7.16l-1,1.06a96.2,96.2,0,0,1-31.6,21.75l-1,.41q-3.67,1.52-7.5,2.73l-1,.31c-2.26.68-4.54,1.28-6.86,1.8l-5.84-6.48a88.06,88.06,0,0,0,12.7-3.2l1-.34c2.55-.88,5.06-1.88,7.5-3l1-.46a89,89,0,0,0,31.6-24.87l1-1.27a89.75,89.75,0,0,0,6.09-9Zm0-15.33a88.52,88.52,0,0,1-6.09,9.3l-1,1.3A87.83,87.83,0,0,1,126.64,237l-1,.47c-2.44,1.12-5,2.13-7.5,3l-1,.35c-2.46.83-5,1.55-7.51,2.16V224.94a69.47,69.47,0,0,0,7.51-2.77l1-.46a69.56,69.56,0,0,0,7.5-4l1-.65a70,70,0,0,0,31.6-47.38l0-.51a70,70,0,0,0,.95-11.1V158c0-.07,0-.14,0-.22a70.07,70.07,0,0,0-49.61-66.92V73c2.54.61,5.05,1.32,7.51,2.15l1,.35c2.55.9,5.06,1.91,7.5,3l1,.47a87.94,87.94,0,0,1,31.6,25.37l1,1.3a88.52,88.52,0,0,1,6.09,9.3Zm0-88a88.75,88.75,0,0,0-6.09-9l-1-1.27a89,89,0,0,0-31.6-24.86l-1-.47c-2.44-1.11-5-2.1-7.5-3l-1-.34A86.75,86.75,0,0,0,104.44,71l5.84-6.49c2.32.52,4.6,1.12,6.86,1.81l1,.3q3.83,1.22,7.5,2.73l1,.41a96.2,96.2,0,0,1,31.6,21.75l1,1.06c2.14,2.28,4.17,4.68,6.09,7.16Zm0-15q-2.88-3.64-6.09-7l-1-1a97.26,97.26,0,0,0-31.6-21.4l-1-.41q-3.67-1.5-7.5-2.7l-1-.3c-2-.6-4-1.14-6.09-1.62l6.09-6.76,1-.63c2.54.72,5,1.54,7.5,2.44l1,.38a106.1,106.1,0,0,1,31.6,18.8l1,.88c2.1,1.86,4.14,3.8,6.09,5.82Zm7.08,159-6.08,6.09v-31.2q3.18-3.33,6.08-6.92Zm0-33.62c-1.92,2.44-4,4.79-6.08,7.06V216.69a99.28,99.28,0,0,0,6.08-9Zm0-17.64a95.4,95.4,0,0,1-6.08,9.27V201.28A88.72,88.72,0,0,0,172.41,188Zm0-20.81a87,87,0,0,1-6.08,14.26V116.82a87,87,0,0,1,6.08,14.26Zm0-56.95a88.83,88.83,0,0,0-6.08-13.25V101a96.63,96.63,0,0,1,6.08,9.27Zm0-19.69a98,98,0,0,0-6.08-9V85.58c2.12,2.26,4.16,4.61,6.08,7Zm0-17.27q-2.9-3.58-6.08-6.92V52.92L172.41,59Zm1,43.33a87.38,87.38,0,0,1,0,47.29Zm0,50.74a88.26,88.26,0,0,0,0-54.18V112.05a95.71,95.71,0,0,1,0,91.93Zm0,20.92a96.7,96.7,0,0,0,0-96V93.93a105.56,105.56,0,0,1,0,128.17Z"/><path class="cls-5" d="M120.92,166.38c-2.32,3.91-10,15.69-14.58,18.7a23.33,23.33,0,0,1-11.64,3.51,8.9,8.9,0,0,1-5.85-1.75c-1.92-1.59-3.18-5.2-3.07-8.8.07-2.69.93-4.77,2.43-5.85a.91.91,0,0,1,.33-.15c1.47-.2,2.73-.43,3.31-.55a.76.76,0,0,1,.91.6c.69,3.33,1.81,5.12,4.11,6.44,4.29-3.31,7.16-7,8.32-10.77l.24-.75c1.17-3.54,3.13-9.46-2.9-15.74-8-8.39-15.35-11.25-21.68-8.42-6.93,3.09-10.13,6.89-10.72,7.63a.76.76,0,0,1-1.07.12A7.56,7.56,0,0,1,66.2,147a.77.77,0,0,1,.21-.78c.57-.52,14.08-12.66,29.73-12.66a27.31,27.31,0,0,1,16.14,5.18,1.54,1.54,0,0,0,1.21-.56c.57-.62,1.5-2.23,1.2-6.11-.43-5.65-2.26-9.31-17-18.18C91.85,119.6,84.53,126,79.16,126a5.63,5.63,0,0,1-3.89-1.46,9.14,9.14,0,0,1-3-6.92c0-4.06,2.28-8.63,6.17-12.21a14.84,14.84,0,0,0,1.09-1.11,15,15,0,0,0-1.94.71c-4.67,2-13.92,11.61-14.92,22.93-1,11.61,3.11,18.86,3.14,18.93l.31.61a.77.77,0,0,1-.23,1c-2.82,2.11-16.58,13.81-11.75,37C58.8,208,89,215,99.4,215A12.15,12.15,0,0,0,101,215a17.75,17.75,0,0,0,2.37-.38c-.94-.46-2.78-1.08-4.44-1.65l-3.48-1.21c-8.17-3-23-10.19-30.22-25-6.4-13,.53-28.34,2.83-32.74a3,3,0,0,1,.18-.36.91.91,0,0,1,.62-.44c.24,0,.33.14.49.32l.24.25,3.89,4.16c.17.17.45.49.4.72a18.71,18.71,0,0,0,.71,8.07,3.32,3.32,0,0,0,.22.53.77.77,0,0,1,.09.36c0,2.26.08,13.92,3.06,20.79,3.14,7.23,5.92,12,15.71,12,11.5,0,20-6.07,26.74-19.12,4.93-9.52,5.37-22.39,5-29.58C124.64,156.2,123.28,162.41,120.92,166.38Zm-45.37-9.49c3.16-3.55,11.1-8,16.79-5.43,6.9,3.18,10.6,12,5.43,16.32-3.51,2.9-11.09,4.17-14,3.12C80,169.53,73.19,167.27,75.55,156.89Z"/><path class="cls-5" d="M7.72,239.49v2l-.5-.44-.16.19,3,2.59.17-.18L9.45,243v-2.41h1.23v1.12l-.66.57.17.18,1.43-1.25-.17-.18-.52.46v-2l.52.46.17-.18-1.5-1.32-.16.19.72.63v1.11H9.45V238l.69-.61-.16-.18-3,2.6.17.19Zm1.48,3.33L8,241.75v-1.12H9.2Zm0-2.44H8v-1.11L9.2,238.2Z"/></g></g><g class="cls-2"><path class="cls-1" d="M61.44,54.91V-3.83h-1v59c-2.54.71-5,1.52-7.5,2.41V-1.49h-1V58a107.06,107.06,0,0,0-31.6,18.57l-1,.85q-3.15,2.73-6.09,5.72V51.92l6.09-6.08,1-1.05V-1.49h-1V44.42l-6.09,6.09v-52h-1v53L6.17,57.6l-1,.9V92.29a106.57,106.57,0,0,0,0,131.45V257.4l1,1,6.08,6.08v53h1v-52l6.09,6.09v45.92h1v-46.3l-1-1-6.09-6.08V232.93q2.94,3,6.09,5.73l1,.85a107,107,0,0,0,31.6,18.56v59.46h1V258.44c2.46.89,5,1.7,7.5,2.41v58.47h1v-58.2l.44-.91,6.78-7.54a97,97,0,0,0,41.26,0l6.79,7.54.43.92v58.19h1V260.85q3.81-1.07,7.5-2.41v59.09h1V258.07a106.9,106.9,0,0,0,31.6-18.56l1-.85q3.15-2.74,6.09-5.73v31.18l-6.09,6.08-1,1.08v46.26h1V271.61l6.09-6.09v52h1v-53l6.08-6.08,1-1V223.74a106.57,106.57,0,0,0,0-131.45V58.62l-1-1-6.08-6.09v-53h-1v52l-6.09-6.09V-1.49h-1V44.78l1,1.06,6.09,6.08V83.1q-2.94-3-6.09-5.73l-1-.84A106.72,106.72,0,0,0,126.64,58V-1.49h-1V57.59c-2.46-.89-5-1.7-7.5-2.41v-59h-1V54.91a9.65,9.65,0,0,0-.43.92l-6.79,7.53a97,97,0,0,0-41.26,0l-6.78-7.53S61.45,54.9,61.44,54.91ZM6.17,59l6.08-6.09v31.2Q9.07,87.45,6.17,91Zm6.08,26.57V99.35a96.54,96.54,0,0,0-6.08,9V92.63C8.09,90.19,10.13,87.84,12.25,85.58ZM172.41,185a87,87,0,0,1-6.08,14.26V116.82a87,87,0,0,1,6.08,14.26Zm1-50.58a87.38,87.38,0,0,1,0,47.29ZM165.33,201a88.52,88.52,0,0,1-6.09,9.3l-1,1.3A87.83,87.83,0,0,1,126.64,237l-1,.47c-2.44,1.12-5,2.13-7.5,3l-1,.35c-2.46.83-5,1.55-7.51,2.16V224.94a69.47,69.47,0,0,0,7.51-2.77l1-.46a69.56,69.56,0,0,0,7.5-4l1-.65a70,70,0,0,0,31.6-47.38l0-.51a70,70,0,0,0,.95-11.1V158c0-.07,0-.14,0-.22a70.07,70.07,0,0,0-49.61-66.92V73c2.54.61,5.05,1.32,7.51,2.15l1,.35c2.55.9,5.06,1.91,7.5,3l1,.47a87.94,87.94,0,0,1,31.6,25.37l1,1.3a88.52,88.52,0,0,1,6.09,9.3Zm-145-43.68c0-.74,0-1.48.06-2.21a69,69,0,0,1,31.53-55l1-.65a67.58,67.58,0,0,1,7.5-4l1-.46A70.35,70.35,0,0,1,69,92.12l1-.28c1.52-.45,3.07-.84,4.64-1.19l1-.22a69.38,69.38,0,0,1,27.34,0l1,.22c1.58.35,3.13.75,4.67,1.2l1,.28A69.8,69.8,0,0,1,117.14,95l1,.45a69.36,69.36,0,0,1,7.5,4l1,.65a69,69,0,0,1,31.54,55.08c0,.66,0,1.32,0,2,0,.24,0,.47,0,.7a69,69,0,0,1-137.9,0C20.35,157.67,20.35,157.51,20.35,157.34Zm-1,.4c0,.07,0,.14,0,.21v.19a69.44,69.44,0,0,0,.95,11.06l0,.53a70.08,70.08,0,0,0,31.6,47.38l1,.65a69.56,69.56,0,0,0,7.5,4l1,.46A72.22,72.22,0,0,0,69,225V243q-3.84-.92-7.54-2.16l-1-.35c-2.55-.9-5.06-1.91-7.5-3l-1-.47a87.83,87.83,0,0,1-31.6-25.37l-1-1.3a88.52,88.52,0,0,1-6.09-9.3V115a88.65,88.65,0,0,1,6.09-9.31l1-1.3A87.94,87.94,0,0,1,51.94,79l1-.47c2.44-1.12,5-2.13,7.5-3l1-.35Q65.15,73.94,69,73V90.81A70.08,70.08,0,0,0,19.34,157.74ZM6.17,131.09a87,87,0,0,1,6.08-14.26v82.38a86.7,86.7,0,0,1-6.08-14.27Zm-1,50.56a87.57,87.57,0,0,1,0-47.27Zm1-53.65V110.27A98.57,98.57,0,0,1,12.25,101v13.75A89.29,89.29,0,0,0,6.17,128Zm-1,2.93a88.43,88.43,0,0,0,0,54.17V204a95.69,95.69,0,0,1,0-91.92Zm1,57.1a88.83,88.83,0,0,0,6.08,13.25V215a98.57,98.57,0,0,1-6.08-9.27Zm7.08,15a88.75,88.75,0,0,0,6.09,9l1,1.27a89,89,0,0,0,31.6,24.87l1,.46c2.44,1.11,5,2.11,7.5,3l1,.34a88.06,88.06,0,0,0,12.7,3.2l-5.84,6.48c-2.32-.52-4.6-1.12-6.86-1.81l-1-.3c-2.54-.81-5-1.72-7.5-2.73l-1-.41a96.3,96.3,0,0,1-31.6-21.75l-1-1.06q-3.21-3.42-6.09-7.16ZM70,243.24v-18c1.53.44,3.07.84,4.64,1.17v17.75C73.06,243.89,71.51,243.58,70,243.24Zm38.65-18v18c-1.54.35-3.1.66-4.67.92V226.4C105.54,226.07,107.09,225.67,108.63,225.23Zm8.51,16.66,1-.34c2.55-.88,5.06-1.88,7.5-3l1-.46a89,89,0,0,0,31.6-24.87l1-1.27a89.75,89.75,0,0,0,6.09-9v13.34q-2.88,3.74-6.09,7.16l-1,1.06a96.2,96.2,0,0,1-31.6,21.75l-1,.41q-3.67,1.52-7.5,2.73l-1,.31c-2.26.68-4.54,1.28-6.86,1.8l-5.84-6.48A88.06,88.06,0,0,0,117.14,241.89Zm49.19-40.61A88.72,88.72,0,0,0,172.41,188v17.72a95.4,95.4,0,0,1-6.08,9.27Zm7.08-16.17a88.26,88.26,0,0,0,0-54.18V112.05a95.71,95.71,0,0,1,0,91.93Zm-1-57.11a88.83,88.83,0,0,0-6.08-13.25V101a96.63,96.63,0,0,1,6.08,9.27Zm-7.08-15a88.75,88.75,0,0,0-6.09-9l-1-1.27a89,89,0,0,0-31.6-24.86l-1-.47c-2.44-1.11-5-2.1-7.5-3l-1-.34A86.75,86.75,0,0,0,104.44,71l5.84-6.49c2.32.52,4.6,1.12,6.86,1.81l1,.3q3.83,1.22,7.5,2.73l1,.41a96.2,96.2,0,0,1,31.6,21.75l1,1.06c2.14,2.28,4.17,4.68,6.09,7.16ZM108.63,72.8V90.53c-1.54-.44-3.09-.84-4.67-1.17V71.88C105.53,72.15,107.09,72.45,108.63,72.8ZM70,90.53V72.8c1.53-.35,3.08-.65,4.64-.92V89.36C73.05,89.69,71.51,90.09,70,90.53ZM61.44,74.14l-1,.34c-2.55.89-5.06,1.88-7.5,3l-1,.47a89,89,0,0,0-31.6,24.86l-1,1.27a88.75,88.75,0,0,0-6.09,9V99.68q2.88-3.72,6.09-7.16l1-1a96.33,96.33,0,0,1,31.6-21.76l1-.41c2.45-1,5-1.92,7.5-2.72l1-.31C63.7,65.58,66,65,68.3,64.46L74.14,71A86.75,86.75,0,0,0,61.44,74.14ZM-16.51,158A105.29,105.29,0,0,1,5.17,93.93V110a96.68,96.68,0,0,0,0,96V222.1A105.26,105.26,0,0,1-16.51,158ZM6.17,223.4V207.72a98,98,0,0,0,6.08,9v13.76C10.13,228.19,8.09,225.84,6.17,223.4Zm6.08,39.71L6.17,257V225q2.89,3.58,6.08,6.92Zm49.19-3.92-1,.63c-2.54-.72-5-1.54-7.5-2.44l-1-.38a106.1,106.1,0,0,1-31.6-18.8l-1-.88q-3.15-2.79-6.09-5.82V218q2.88,3.65,6.09,7l1,1a97.26,97.26,0,0,0,31.6,21.4l1,.41c2.45,1,5,1.9,7.5,2.7l1,.3c2,.6,4,1.15,6.09,1.62Zm27.85-5.3a95.58,95.58,0,0,1-19.86-2.07l5.88-6.54s.32-1,.31-1V226.61a69.38,69.38,0,0,0,27.34,0v17.71s.3,1,.31,1l5.88,6.54A95.58,95.58,0,0,1,89.29,253.89Zm70-16.57-1,.88a105.89,105.89,0,0,1-31.6,18.8l-1,.38c-2.46.9-5,1.72-7.5,2.44l-1-.63-6.09-6.76c2.06-.47,4.08-1,6.09-1.62l1-.3q3.83-1.2,7.5-2.7l1-.41a97.26,97.26,0,0,0,31.6-21.4l1-1q3.21-3.34,6.09-7V231.5C163.38,233.52,161.34,235.46,159.24,237.32ZM172.41,257l-6.08,6.09v-31.2q3.18-3.33,6.08-6.92Zm-6.08-26.56V216.69a97.24,97.24,0,0,0,6.08-9V223.4C170.49,225.84,168.45,228.19,166.33,230.46ZM195.09,158a105.26,105.26,0,0,1-21.68,64.08V206a96.7,96.7,0,0,0,0-96V93.93A105.26,105.26,0,0,1,195.09,158ZM172.41,92.63v15.68a96.06,96.06,0,0,0-6.08-9V85.58C168.45,87.84,170.49,90.19,172.41,92.63Zm-6.08-39.71L172.41,59V91q-2.9-3.58-6.08-6.92Zm-49.19,3.92,1-.63c2.54.72,5,1.54,7.5,2.44l1,.38a106.1,106.1,0,0,1,31.6,18.8l1,.88c2.1,1.86,4.14,3.8,6.09,5.82V98.05q-2.88-3.64-6.09-7l-1-1a97.26,97.26,0,0,0-31.6-21.4l-1-.41q-3.67-1.5-7.5-2.7l-1-.3c-2-.6-4-1.14-6.09-1.62Zm-27.85,5.3a96.26,96.26,0,0,1,19.86,2.07l-5.88,6.54s-.32,1-.31,1V89.15a69.89,69.89,0,0,0-27.34,0V71.71s-.3-1-.31-1l-5.88-6.54A96.26,96.26,0,0,1,89.29,62.14Zm-27.85-5.3,6.09,6.76q-3.07.72-6.09,1.62l-1,.3c-2.54.8-5,1.7-7.5,2.7l-1,.41A97.26,97.26,0,0,0,20.34,90l-1,1q-3.21,3.34-6.09,7V84.53q2.94-3,6.09-5.82l1-.87A105.92,105.92,0,0,1,51.94,59l1-.38c2.46-.9,5-1.72,7.5-2.44Z"/></g><rect class="cls-5" x="-5.67" y="-5.67" width="189.92" height="45.68"/><polygon class="cls-6" points="184.25 -5.67 121.97 -5.67 143.03 20.5 184.25 20.5 184.25 -5.67"/><polygon class="cls-6" points="-5.67 -5.67 56.62 -5.67 35.55 20.5 -5.67 20.5 -5.67 -5.67"/><polygon class="cls-3" points="122.48 -5.67 121.96 -5.67 121.5 -5.29 142.79 21 184.25 21 184.25 20 143.27 20 122.48 -5.67"/><polygon class="cls-3" points="56.1 -5.67 35.31 20 -5.67 20 -5.67 21 35.79 21 57.08 -5.29 56.62 -5.67 56.1 -5.67"/><path class="cls-3" d="M62.17,18.71h2.08V15.09H65v3.4c0,.84-.19,1.06-.78,1.06h-2c-.59,0-.78-.22-.78-1.06v-3.4h.73Z"/><path class="cls-3" d="M66.58,15.09h.5l2.2,2.62a3.64,3.64,0,0,1,.36.49c0-.37,0-.63,0-.77V15.09h.66v4.46h-.5l-2.3-2.76a2.56,2.56,0,0,1-.26-.36c0,.34,0,.58,0,.71v2.41h-.66Z"/><path class="cls-3" d="M72.53,15.87v1h2c.59,0,.78.22.78,1.06v.61c0,.84-.19,1.06-.78,1.06H72.55c-.59,0-.78-.22-.78-1.06v-.12l.64-.19v.53h2.22v-1h-2c-.59,0-.77-.22-.77-1.06v-.49c0-.84.18-1.05.77-1.05h1.78c.56,0,.78.21.78,1v.1l-.64.22v-.51Z"/><path class="cls-3" d="M78.25,19.55h-.73V15.88H76.08v-.79h3.61v.79H78.25Z"/><path class="cls-3" d="M81.34,15.09H82l1.8,4.46H83l-.38-1h-2l-.37,1h-.73Zm1,2.68L81.66,16,81,17.77Z"/><path class="cls-3" d="M84.85,15.09h2.69c.48,0,.7.24.7.86v.55c0,.43-.19.69-.54.75.37.07.57.38.57.85v.57c0,.6-.31.88-.93.88H84.85Zm.72.72v1.07h1.66c.23,0,.34-.06.34-.32v-.43c0-.26-.11-.32-.34-.32Zm0,1.8v1.13h1.66c.25,0,.36-.07.36-.4V18c0-.33-.11-.4-.36-.4Z"/><path class="cls-3" d="M89.68,15.09h.73v3.62h2.35v.84H89.68Z"/><path class="cls-3" d="M93.83,15.09H97v.76H94.56v1H96v.76H94.56v1.11h2.51v.84H93.83Z"/><path class="cls-3" d="M100.78,15.09H104v.78H101.5V17h1.32v.81H101.5v1.7h-.72Z"/><path class="cls-3" d="M105.58,18.71h2.08V15.09h.73v3.4c0,.84-.19,1.06-.78,1.06h-2c-.59,0-.77-.22-.77-1.06v-3.4h.72Z"/><path class="cls-3" d="M110,15.09h3.21v.76h-2.48v1h1.44v.76h-1.44v1.11h2.51v.84H110Z"/><path class="cls-3" d="M114.59,15.09h.73v3.62h2.35v.84h-3.08Z"/><path class="cls-3" d="M60.64,20.56V20h57.3v.6Z"/><path class="cls-7" d="M71.22,32l-1.4-3.62h.87l.92,2.43,1-2.43h.59l1,2.43L75,28.4h.75L74.37,32H73.8l-1-2.5-1,2.5Z"/><path class="cls-7" d="M76.69,32v-3h.72v3Z"/><path class="cls-7" d="M78.73,32v-3h.73v2.4h2.32V32Z"/><path class="cls-7" d="M82.59,32v-3h2a2.61,2.61,0,0,1,1,.17,1.32,1.32,0,0,1,.6.51,1.52,1.52,0,0,1,.2.79,1.29,1.29,0,0,1-.49,1.11A2.37,2.37,0,0,1,84.4,32Zm.73-.56h.93a2.8,2.8,0,0,0,.77-.08.82.82,0,0,0,.45-.3,1,1,0,0,0,.15-.59c0-.6-.34-.9-1-.9H83.32Z"/><path class="cls-7" d="M93.45,29.05H91.19v2.29h2.26v-.78l.84.18v.42a1.25,1.25,0,0,1-.08.53.45.45,0,0,1-.27.25,1.54,1.54,0,0,1-.54.08H91.24a1.74,1.74,0,0,1-.53-.07.45.45,0,0,1-.28-.26,1.25,1.25,0,0,1-.08-.53v-1.9a1.25,1.25,0,0,1,.08-.53.41.41,0,0,1,.28-.25,1.44,1.44,0,0,1,.53-.08H93.4a1.54,1.54,0,0,1,.54.08.45.45,0,0,1,.27.25,1.25,1.25,0,0,1,.08.53v.34l-.84.14Z"/><path class="cls-7" d="M95.31,32l1.76-3h.69l1.79,3h-.81l-.38-.65h-2L96,32Zm1.4-1.19h1.36l-.69-1.24Z"/><path class="cls-7" d="M100.28,32v-3H103a.84.84,0,0,1,.53.13.54.54,0,0,1,.17.44v.7a.54.54,0,0,1-.17.44.86.86,0,0,1-.53.13h-.41L104,32h-1l-1.24-1.12H101V32Zm2.36-2.45H101v.82h1.64a.57.57,0,0,0,.26-.05.22.22,0,0,0,.07-.19v-.34c0-.1,0-.16-.07-.19A.57.57,0,0,0,102.64,29.57Z"/><path class="cls-7" d="M104.83,32v-3h2a2.55,2.55,0,0,1,1,.17,1.27,1.27,0,0,1,.6.51,1.43,1.43,0,0,1,.2.79,1.31,1.31,0,0,1-.48,1.11,2.41,2.41,0,0,1-1.47.38Zm.73-.56h.93a2.8,2.8,0,0,0,.77-.08.82.82,0,0,0,.45-.3,1,1,0,0,0,.15-.59c0-.6-.34-.9-1-.9h-1.27Z"/><path class="cls-5" d="M8.77,50.93H6.59L6.26,52H5.75l1.59-5.07H8L9.61,52H9.1ZM7.71,47.42H7.64l-.9,3H8.62Z"/><path class="cls-5" d="M10.3,48.84H9.86v-.41h.44v-.64c0-.66.31-.91.93-.91h.32v.4h-.29c-.3,0-.51.1-.51.51v.64h.79v.41h-.79V52H10.3Z"/><path class="cls-5" d="M12,48.84h-.37v-.41H12V47.6h.45v.83h1.15v.41H12.44v2.39c0,.29.09.42.38.42s.49-.06.49-.85h.4c0,1.14-.36,1.26-.88,1.26s-.84-.2-.84-.74Z"/><path class="cls-5" d="M14.63,50.32v.33c0,.78.13,1,.75,1s.87,0,.87-.71h.45v.13c0,.72-.17,1-1.24,1s-1.32-.39-1.32-1.84.24-1.84,1.32-1.84,1.24.43,1.24,1.4v.54Zm1.62-.45c0-.75,0-1.09-.81-1.09s-.81.34-.81,1.09Z"/><path class="cls-5" d="M17.44,48.43h.45v.44h0a.78.78,0,0,1,.83-.49c.57,0,.83.24.83.95v.29h-.41c0-.66-.07-.84-.58-.84s-.68.25-.68.74V52h-.45Z"/><path class="cls-5" d="M24.07,51.69a1.17,1.17,0,0,1-1,.37c-.91,0-1.11-.44-1.11-1.12s.16-1.12,1.11-1.12c.68,0,.83.08,1,.32h0v-.65c0-.53-.05-.71-.79-.71s-.75.18-.75.64H22v-.19c0-.43.11-.85,1.22-.85s1.22.32,1.22,1V52h-.41Zm-.85-.08c.59,0,.85-.15.85-.69s-.26-.7-.85-.7-.86.15-.86.7S22.62,51.61,23.22,51.61Z"/><path class="cls-5" d="M27.61,50.9c0,.61.1.75.76.75s.86-.1.86-.7-.05-.51-.9-.56-1.14-.18-1.14-1,.14-1,1.2-1,1.25.23,1.25,1h-.45c0-.54-.15-.58-.82-.58s-.73.06-.73.62.06.54.82.59c1.05.06,1.21.14,1.21.93s-.16,1.14-1.31,1.14c-.82,0-1.2-.1-1.2-1.16Z"/><path class="cls-5" d="M30.41,46.93h.45v2h0a1,1,0,0,1,1-.51c.82,0,1,.41,1,1.1V52h-.45V49.59c0-.42-.09-.81-.68-.81s-.92.21-.92,1V52h-.45Z"/><path class="cls-5" d="M33.77,46.93h.45v.6h-.45Zm0,1.5h.45V52h-.45Z"/><path class="cls-5" d="M35.12,48.43h.45v.45h0a1,1,0,0,1,1-.5c.92,0,1.2.44,1.2,1.84s-.28,1.84-1.27,1.84a.85.85,0,0,1-.92-.51h0v1.7h-.45Zm1.3.39c-.64,0-.85.31-.85,1.19,0,1.33.1,1.6.85,1.6s.86-.16.86-1.39S37.12,48.82,36.42,48.82Z"/><path class="cls-5" d="M40.51,46.93H41v.6h-.45Zm0,1.5H41V52h-.45Z"/><path class="cls-5" d="M42.26,50.9c0,.61.1.75.76.75s.86-.1.86-.7-.05-.51-.9-.56-1.14-.18-1.14-1,.14-1,1.2-1,1.25.23,1.25,1h-.45c0-.54-.15-.58-.82-.58s-.73.06-.73.62.06.54.82.59c1,.06,1.22.14,1.22.93s-.17,1.14-1.32,1.14c-.82,0-1.2-.1-1.2-1.16Z"/><path class="cls-5" d="M49.14,51.55h0a.86.86,0,0,1-.92.51c-1,0-1.27-.44-1.27-1.84s.28-1.84,1.2-1.84a1,1,0,0,1,1,.5h0v-2h.45V52h-.45Zm-.85.06c.75,0,.85-.27.85-1.6,0-.88-.21-1.19-.85-1.19s-.86.16-.86,1.4S47.59,51.61,48.29,51.61Z"/><path class="cls-5" d="M50.8,50.32v.33c0,.78.13,1,.75,1s.87,0,.87-.71h.45v.13c0,.72-.17,1-1.24,1s-1.32-.39-1.32-1.84.24-1.84,1.32-1.84,1.24.43,1.24,1.4v.54Zm1.62-.45c0-.75,0-1.09-.81-1.09s-.81.34-.81,1.09Z"/><path class="cls-5" d="M54.06,50.9c0,.61.09.75.76.75s.85-.1.85-.7-.05-.51-.89-.56-1.14-.18-1.14-1,.14-1,1.2-1,1.25.23,1.25,1h-.45c0-.54-.15-.58-.82-.58s-.74.06-.74.62.07.54.82.59c1.06.06,1.22.14,1.22.93S56,52.06,54.8,52.06c-.82,0-1.19-.1-1.19-1.16Z"/><path class="cls-5" d="M57,48.84H56.6v-.41H57V47.6h.45v.83h1.16v.41H57.42v2.39c0,.29.09.42.39.42s.48-.06.48-.85h.41c0,1.14-.37,1.26-.88,1.26-.66,0-.85-.2-.85-.74Z"/><path class="cls-5" d="M59.19,48.43h.44v.44h0a.78.78,0,0,1,.83-.49c.56,0,.82.24.82.95v.29h-.4c0-.66-.08-.84-.59-.84s-.68.25-.68.74V52h-.44Z"/><path class="cls-5" d="M63,48.38c1.18,0,1.32.42,1.32,1.84s-.16,1.84-1.32,1.84-1.32-.37-1.32-1.84S61.85,48.38,63,48.38Zm0,3.27c.71,0,.83-.1.83-1.43s-.12-1.44-.83-1.44-.83.11-.83,1.44S62.32,51.65,63,51.65Z"/><path class="cls-5" d="M65.14,52.87c.57,0,.67-.11.84-.87h-.21l-1-3.57h.44l.91,3.12h0l.76-3.12h.45l-1,3.94c-.16.63-.43,1-1,1a.66.66,0,0,1-.21,0Z"/><path class="cls-5" d="M68.18,50.32v.33c0,.78.14,1,.75,1s.88,0,.88-.71h.44v.13c0,.72-.17,1-1.24,1s-1.32-.39-1.32-1.84.24-1.84,1.32-1.84,1.24.43,1.24,1.4v.54Zm1.63-.45c0-.75,0-1.09-.82-1.09s-.81.34-.81,1.09Z"/><path class="cls-5" d="M73.13,51.55h0a.86.86,0,0,1-.92.51c-1,0-1.27-.44-1.27-1.84s.28-1.84,1.2-1.84a1,1,0,0,1,1,.5h0v-2h.45V52h-.45Zm-.85.06c.75,0,.85-.27.85-1.6,0-.88-.21-1.19-.85-1.19s-.86.16-.86,1.4S71.58,51.61,72.28,51.61Z"/><path class="cls-5" d="M74.72,51.36h.49v.76c0,.6-.17.64-.53.64v-.28c.19,0,.25,0,.25-.48h-.21Z"/><path class="cls-5" d="M78.68,50.32v.33c0,.78.14,1,.75,1s.88,0,.88-.71h.45v.13c0,.72-.18,1-1.25,1s-1.32-.39-1.32-1.84.24-1.84,1.32-1.84,1.25.43,1.25,1.4v.54Zm1.63-.45c0-.75,0-1.09-.81-1.09s-.82.34-.82,1.09Z"/><path class="cls-5" d="M81.17,48.43h.47l.84,3.12h0l.85-3.12h.46l-1,3.57h-.63Z"/><path class="cls-5" d="M84.65,50.32v.33c0,.78.14,1,.75,1s.88,0,.88-.71h.45v.13c0,.72-.18,1-1.25,1s-1.32-.39-1.32-1.84.24-1.84,1.32-1.84,1.25.43,1.25,1.4v.54Zm1.63-.45c0-.75,0-1.09-.81-1.09s-.82.34-.82,1.09Z"/><path class="cls-5" d="M87.47,48.43h.45v.44h0a.78.78,0,0,1,.83-.49c.56,0,.82.24.82.95v.29h-.4c0-.66-.07-.84-.58-.84s-.68.25-.68.74V52h-.45Z"/><path class="cls-5" d="M90.18,52.87c.56,0,.66-.11.83-.87h-.2l-1-3.57h.45l.91,3.12h0l.76-3.12h.45l-1,3.94c-.15.63-.43,1-1,1a.66.66,0,0,1-.21,0Z"/><path class="cls-5" d="M95.18,50.9c0,.61.09.75.76.75s.85-.1.85-.7-.05-.51-.89-.56-1.14-.18-1.14-1,.14-1,1.2-1,1.25.23,1.25,1h-.45c0-.54-.15-.58-.82-.58s-.74.06-.74.62.07.54.82.59c1.06.06,1.22.14,1.22.93s-.16,1.14-1.31,1.14c-.82,0-1.2-.1-1.2-1.16Z"/><path class="cls-5" d="M98,46.93h.44v2h0a1,1,0,0,1,1-.51c.82,0,1,.41,1,1.1V52H100V49.59c0-.42-.09-.81-.68-.81s-.93.21-.93,1V52H98Z"/><path class="cls-5" d="M101.34,46.93h.44v.6h-.44Zm0,1.5h.44V52h-.44Z"/><path class="cls-5" d="M102.69,48.43h.45v.45h0a1,1,0,0,1,1-.5c.92,0,1.19.44,1.19,1.84s-.27,1.84-1.26,1.84a.85.85,0,0,1-.92-.51h0v1.7h-.45Zm1.3.39c-.64,0-.85.31-.85,1.19,0,1.33.1,1.6.85,1.6s.85-.16.85-1.39S104.69,48.82,104,48.82Z"/><path class="cls-5" d="M110.05,51.69a1.18,1.18,0,0,1-1,.37c-.91,0-1.11-.44-1.11-1.12s.16-1.12,1.11-1.12c.68,0,.83.08,1,.32h0v-.65c0-.53-.05-.71-.79-.71s-.75.18-.75.64H108v-.19c0-.43.11-.85,1.22-.85s1.22.32,1.22,1V52h-.41Zm-.85-.08c.59,0,.85-.15.85-.69s-.26-.7-.85-.7-.86.15-.86.7S108.6,51.61,109.2,51.61Z"/><path class="cls-5" d="M111.32,48.84H111v-.41h.37V47.6h.45v.83h1.15v.41h-1.15v2.39c0,.29.09.42.38.42s.49-.06.49-.85h.4c0,1.14-.36,1.26-.88,1.26s-.84-.2-.84-.74Z"/><path class="cls-5" d="M115.48,48.43h.45v.44h0a.78.78,0,0,1,.83-.49c.56,0,.82.24.82.95v.29h-.4c0-.66-.07-.84-.58-.84s-.68.25-.68.74V52h-.45Z"/><path class="cls-5" d="M120.16,51.69a1.18,1.18,0,0,1-1,.37c-.91,0-1.12-.44-1.12-1.12s.17-1.12,1.12-1.12c.68,0,.82.08,1,.32h0v-.65c0-.53-.05-.71-.79-.71s-.75.18-.75.64h-.45v-.19c0-.43.1-.85,1.22-.85s1.22.32,1.22,1V52h-.41Zm-.85-.08c.59,0,.85-.15.85-.69s-.26-.7-.85-.7-.86.15-.86.7S118.71,51.61,119.31,51.61Z"/><path class="cls-5" d="M121.31,48.43h.45v.46h0a1,1,0,0,1,1-.51c.82,0,1,.41,1,1.1V52h-.45V49.59c0-.42-.09-.81-.68-.81s-.92.21-.92,1V52h-.45Z"/><path class="cls-5" d="M126.73,51.36h0a.88.88,0,0,1-.93.52c-1.15,0-1.23-.77-1.23-1.75s.08-1.75,1.23-1.75a.86.86,0,0,1,.93.53h0v-.48h.45V52c0,1.06-.33,1.35-1.43,1.35-.69,0-1.12-.25-1.1-1h.45c0,.42.18.54.75.54.73,0,.88-.15.88-1Zm-.91.07c.73,0,.91-.29.91-1.3s-.18-1.31-.91-1.31-.78.36-.78,1.31S125.1,51.43,125.82,51.43Z"/><path class="cls-5" d="M128.34,50.32v.33c0,.78.14,1,.75,1s.88,0,.88-.71h.45v.13c0,.72-.18,1-1.25,1s-1.32-.39-1.32-1.84.24-1.84,1.32-1.84,1.25.43,1.25,1.4v.54Zm1.63-.45c0-.75,0-1.09-.81-1.09s-.82.34-.82,1.09Z"/><path class="cls-5" d="M136.29,50.48c0,1.39-.45,1.58-1.61,1.58s-1.61-.19-1.61-1.58v-2c0-1.38.45-1.57,1.61-1.57s1.61.19,1.61,1.57Zm-.49-2.18c0-.92-.23-.93-1.12-.93s-1.12,0-1.12.93v2.33c0,.92.23.94,1.12.94s1.12,0,1.12-.94Z"/><path class="cls-5" d="M136.89,49.94h1.54v.41h-1.54Z"/><path class="cls-5" d="M140.66,47.42h0l-1,1.33-.33-.31,1.22-1.51h.65V52h-.49Z"/><path class="cls-5" d="M144.91,48.43h.44V49h0a1,1,0,0,1,.94-.58c.48,0,.84.1,1,.58a1.08,1.08,0,0,1,1.07-.58.93.93,0,0,1,1.06,1V52H149V49.69c0-.71-.29-.87-.74-.87s-.87.23-.87.93V52H147V49.53c0-.53-.22-.71-.71-.71-.65,0-.91.4-.91,1.14v2h-.44Z"/><path class="cls-5" d="M152.71,52h-.45v-.46h0a1,1,0,0,1-1,.52c-.82,0-1-.41-1-1.11V48.43h.45v2.42c0,.41.09.8.68.8s.92-.21.92-1V48.43h.45Z"/><path class="cls-5" d="M153.89,50.9c0,.61.1.75.77.75s.85-.1.85-.7,0-.51-.89-.56-1.15-.18-1.15-1,.14-1,1.21-1,1.25.23,1.25,1h-.45c0-.54-.15-.58-.82-.58s-.74.06-.74.62.06.54.82.59c1.06.06,1.22.14,1.22.93s-.16,1.14-1.32,1.14c-.82,0-1.19-.1-1.19-1.16Z"/><path class="cls-5" d="M156.81,48.84h-.37v-.41h.37V47.6h.45v.83h1.16v.41h-1.16v2.39c0,.29.09.42.39.42s.48-.06.48-.85h.41c0,1.14-.37,1.26-.89,1.26s-.84-.2-.84-.74Z"/><path class="cls-5" d="M161,48.43h.45v.44h0a.78.78,0,0,1,.83-.49c.57,0,.83.24.83.95v.29h-.41c0-.66-.07-.84-.58-.84s-.68.25-.68.74V52H161Z"/><path class="cls-5" d="M164.82,48.38c1.17,0,1.31.42,1.31,1.84s-.15,1.84-1.31,1.84-1.32-.37-1.32-1.84S163.64,48.38,164.82,48.38Zm0,3.27c.71,0,.82-.1.82-1.43s-.11-1.44-.82-1.44-.83.11-.83,1.44S164.1,51.65,164.82,51.65Z"/><path class="cls-5" d="M166.93,46.93h.45V52h-.45Z"/><path class="cls-5" d="M168.36,46.93h.44V52h-.44Z"/><path class="cls-5" d="M7.63,55.82h0l-1,1.33-.33-.31,1.22-1.51h.65V60.4H7.63Z"/><path class="cls-5" d="M14,60.09a1.18,1.18,0,0,1-1,.37c-.91,0-1.11-.44-1.11-1.12s.16-1.12,1.11-1.12c.68,0,.83.08,1,.32h0v-.65c0-.53,0-.71-.79-.71s-.75.18-.75.64h-.45v-.19c0-.43.11-.86,1.22-.86s1.22.33,1.22,1V60.4H14ZM13.12,60c.59,0,.85-.15.85-.69s-.26-.7-.85-.7-.86.15-.86.7S12.52,60,13.12,60Z"/><path class="cls-5" d="M15.24,57.24h-.37v-.41h.37V56h.45v.83h1.15v.41H15.69v2.39c0,.29.09.42.38.42s.49-.06.49-.85H17c0,1.14-.36,1.26-.88,1.26s-.84-.2-.84-.74Z"/><path class="cls-5" d="M17.57,57.24H17.2v-.41h.37V56H18v.83h1.15v.41H18v2.39c0,.29.09.42.38.42s.49-.06.49-.85h.4c0,1.14-.36,1.26-.88,1.26s-.84-.2-.84-.74Z"/><path class="cls-5" d="M21.88,60.09a1.19,1.19,0,0,1-1.05.37c-.91,0-1.11-.44-1.11-1.12s.16-1.12,1.11-1.12c.68,0,.83.08,1,.32h0v-.65c0-.53,0-.71-.79-.71s-.75.18-.75.64h-.44v-.19c0-.43.1-.86,1.21-.86s1.22.33,1.22,1V60.4h-.4ZM21,60c.6,0,.86-.15.86-.69s-.26-.7-.86-.7-.85.15-.85.7S20.43,60,21,60Z"/><path class="cls-5" d="M25,58c0-.65-.13-.84-.72-.84s-.83.11-.83,1.44.11,1.43.83,1.43.78-.17.78-.94h.45v.23c0,.92-.44,1.12-1.23,1.12-1.18,0-1.32-.39-1.32-1.84s.24-1.85,1.32-1.85,1.17.31,1.17,1.25Z"/><path class="cls-5" d="M26.78,58.72h-.2V60.4h-.45V55.33h.45v2.94h.21l1.06-1.44h.55l-1.25,1.65,1.44,1.92H28Z"/><path class="cls-5" d="M32.94,60h0a.85.85,0,0,1-.92.51c-1,0-1.26-.44-1.26-1.84s.27-1.85,1.19-1.85a1,1,0,0,1,1,.51h0v-2h.44V60.4h-.44Zm-.86.06c.75,0,.86-.27.86-1.6,0-.88-.21-1.19-.86-1.19s-.85.16-.85,1.4S31.38,60,32.08,60Z"/><path class="cls-5" d="M34.29,55.33h.44v.6h-.44Zm0,1.5h.44V60.4h-.44Z"/><path class="cls-5" d="M36,58.72v.33c0,.78.13,1,.75,1s.88,0,.88-.71h.44v.13c0,.72-.17,1-1.24,1s-1.32-.39-1.32-1.84.24-1.85,1.32-1.85,1.24.44,1.24,1.41v.54Zm1.63-.45c0-.75,0-1.09-.82-1.09s-.81.34-.81,1.09Z"/><path class="cls-5" d="M39.19,59.76h.49v.64h-.49Z"/><path class="cls-5" d="M42.71,57c0-1.48.46-1.73,1.79-1.73s1.79.25,1.79,1.73v1.71c0,1.49-.46,1.74-1.79,1.74s-1.79-.25-1.79-1.74Zm3.09,0c0-1.12-.15-1.27-1.3-1.27s-1.3.15-1.3,1.27v1.65c0,1.12.15,1.28,1.3,1.28s1.3-.16,1.3-1.28Z"/><path class="cls-5" d="M47,56.83h.45v.46h0a1,1,0,0,1,1-.52c.83,0,1,.42,1,1.11V60.4h-.45V58c0-.42-.09-.81-.67-.81s-.93.21-.93,1V60.4H47Z"/><path class="cls-5" d="M54.29,60.09a1.17,1.17,0,0,1-1,.37c-.91,0-1.11-.44-1.11-1.12s.16-1.12,1.11-1.12c.68,0,.83.08,1,.32h0v-.65c0-.53,0-.71-.79-.71s-.75.18-.75.64h-.45v-.19c0-.43.11-.86,1.22-.86s1.22.33,1.22,1V60.4h-.41ZM53.44,60c.59,0,.85-.15.85-.69s-.26-.7-.85-.7-.85.15-.85.7S52.84,60,53.44,60Z"/><path class="cls-5" d="M64.42,60.42l-2.31-.7.16,1.79-1.05-1.46-1.54,2.14.64-2.46-2.3.78,1.84-1.6-1.52-.71L60,58l-1.18-2.14,1.9,1.53.48-2.4.47,2.4,1.9-1.53L62.42,58l1.92.19-1.77.75Z"/><path class="cls-5" d="M67.74,56.83h.45v.44h0a.79.79,0,0,1,.83-.5c.57,0,.83.25.83,1V58h-.41c0-.66-.07-.84-.58-.84s-.68.25-.68.74V60.4h-.45Z"/><path class="cls-5" d="M70.76,58.72v.33c0,.78.13,1,.75,1s.87,0,.87-.71h.45v.13c0,.72-.17,1-1.25,1s-1.31-.39-1.31-1.84.24-1.85,1.31-1.85,1.25.44,1.25,1.41v.54Zm1.62-.45c0-.75,0-1.09-.81-1.09s-.81.34-.81,1.09Z"/><path class="cls-5" d="M74,59.3c0,.61.1.75.77.75s.85-.1.85-.7,0-.51-.9-.56-1.14-.18-1.14-1,.14-1,1.21-1S76,57,76,57.76H75.6c0-.54-.15-.58-.82-.58s-.74.06-.74.62.06.54.82.59c1.06.06,1.22.14,1.22.93s-.16,1.14-1.32,1.14c-.82,0-1.19-.1-1.19-1.16Z"/><path class="cls-5" d="M79.31,60.4h-.45v-.46h0a1,1,0,0,1-1,.52c-.82,0-1-.41-1-1.11V56.83h.45v2.42c0,.41.09.8.68.8s.92-.21.92-1V56.83h.45Z"/><path class="cls-5" d="M80.17,55.33h.45V60.4h-.45Z"/><path class="cls-5" d="M81.6,57.24h-.37v-.41h.37V56h.45v.83H83.2v.41H82.05v2.39c0,.29.09.42.38.42s.49-.06.49-.85h.4c0,1.14-.36,1.26-.88,1.26s-.84-.2-.84-.74Z"/><path class="cls-5" d="M84.17,59.76h.49v.76c0,.6-.17.64-.53.64v-.28c.19,0,.25-.05.25-.48h-.21Z"/><path class="cls-5" d="M87.82,57.24h-.37v-.41h.37V56h.45v.83h1.16v.41H88.27v2.39c0,.29.09.42.39.42s.48-.06.48-.85h.41c0,1.14-.37,1.26-.88,1.26s-.85-.2-.85-.74Z"/><path class="cls-5" d="M90,55.33h.44v2h0a1,1,0,0,1,1-.52c.82,0,1.05.42,1.05,1.11V60.4h-.45V58c0-.42-.09-.81-.68-.81s-.93.21-.93,1V60.4H90Z"/><path class="cls-5" d="M95.37,60.09a1.18,1.18,0,0,1-1,.37c-.91,0-1.11-.44-1.11-1.12s.16-1.12,1.11-1.12c.68,0,.82.08,1,.32h0v-.65c0-.53,0-.71-.79-.71s-.75.18-.75.64h-.45v-.19c0-.43.11-.86,1.22-.86s1.22.33,1.22,1V60.4h-.41ZM94.52,60c.59,0,.85-.15.85-.69s-.26-.7-.85-.7-.86.15-.86.7S93.92,60,94.52,60Z"/><path class="cls-5" d="M96.64,57.24h-.37v-.41h.37V56h.45v.83h1.15v.41H97.09v2.39c0,.29.09.42.38.42S98,60,98,59.2h.41c0,1.14-.36,1.26-.88,1.26s-.84-.2-.84-.74Z"/><path class="cls-5" d="M101.24,59.3c0,.61.1.75.76.75s.86-.1.86-.7,0-.51-.9-.56-1.14-.18-1.14-1,.14-1,1.2-1,1.25.24,1.25,1h-.45c0-.54-.15-.58-.82-.58s-.73.06-.73.62.06.54.82.59c1,.06,1.21.14,1.21.93s-.16,1.14-1.31,1.14c-.82,0-1.2-.1-1.2-1.16Z"/><path class="cls-5" d="M104,55.33h.45v2h0a1,1,0,0,1,1-.52c.82,0,1.05.42,1.05,1.11V60.4h-.45V58c0-.42-.09-.81-.68-.81s-.92.21-.92,1V60.4H104Z"/><path class="cls-5" d="M107.4,55.33h.45v.6h-.45Zm0,1.5h.45V60.4h-.45Z"/><path class="cls-5" d="M108.75,56.83h.45v.45h0a1,1,0,0,1,1-.51c.92,0,1.2.45,1.2,1.85s-.28,1.84-1.27,1.84a.85.85,0,0,1-.92-.51h0v1.7h-.45Zm1.3.39c-.64,0-.85.31-.85,1.19,0,1.33.1,1.6.85,1.6s.86-.16.86-1.39S110.75,57.22,110.05,57.22Z"/><path class="cls-5" d="M114.46,59.3c0,.61.1.75.77.75s.85-.1.85-.7,0-.51-.9-.56-1.14-.18-1.14-1,.14-1,1.21-1,1.24.24,1.24,1H116c0-.54-.14-.58-.81-.58s-.74.06-.74.62.06.54.82.59c1.06.06,1.22.14,1.22.93s-.16,1.14-1.32,1.14c-.82,0-1.2-.1-1.2-1.16Z"/><path class="cls-5" d="M119.76,60.4h-.45v-.46h0a1,1,0,0,1-1,.52c-.82,0-1-.41-1-1.11V56.83h.45v2.42c0,.41.09.8.68.8s.92-.21.92-1V56.83h.45Z"/><path class="cls-5" d="M120.75,57.24h-.44v-.41h.44v-.64c0-.66.31-.91.93-.91H122v.4h-.29c-.29,0-.5.1-.5.51v.64H122v.41h-.78V60.4h-.45Z"/><path class="cls-5" d="M122.56,57.24h-.44v-.41h.44v-.64c0-.66.31-.91.93-.91h.32v.4h-.3c-.29,0-.5.1-.5.51v.64h.78v.41H123V60.4h-.45Z"/><path class="cls-5" d="M124.56,58.72v.33c0,.78.13,1,.74,1s.88,0,.88-.71h.45v.13c0,.72-.18,1-1.25,1s-1.31-.39-1.31-1.84.23-1.85,1.31-1.85,1.25.44,1.25,1.41v.54Zm1.62-.45c0-.75,0-1.09-.81-1.09s-.81.34-.81,1.09Z"/><path class="cls-5" d="M127.37,56.83h.45v.44h0a.79.79,0,0,1,.83-.5c.57,0,.82.25.82,1V58h-.4c0-.66-.07-.84-.58-.84s-.68.25-.68.74V60.4h-.45Z"/><path class="cls-5" d="M130.4,59.3c0,.61.1.75.76.75s.86-.1.86-.7-.05-.51-.9-.56-1.14-.18-1.14-1,.14-1,1.2-1,1.25.24,1.25,1H132c0-.54-.14-.58-.82-.58s-.73.06-.73.62.06.54.82.59c1.06.06,1.22.14,1.22.93s-.16,1.14-1.32,1.14c-.82,0-1.2-.1-1.2-1.16Z"/><path class="cls-5" d="M136.74,55.82h0l-1,1.33-.33-.31,1.21-1.51h.66V60.4h-.49Z"/><path class="cls-5" d="M143.12,60h0a.86.86,0,0,1-.92.51c-1,0-1.27-.44-1.27-1.84s.27-1.85,1.2-1.85a1,1,0,0,1,1,.51h0v-2h.45V60.4h-.45Zm-.85.06c.75,0,.85-.27.85-1.6,0-.88-.21-1.19-.85-1.19s-.86.16-.86,1.4S141.57,60,142.27,60Z"/><path class="cls-5" d="M146.45,60.09a1.19,1.19,0,0,1-1,.37c-.91,0-1.11-.44-1.11-1.12s.16-1.12,1.11-1.12c.68,0,.83.08,1,.32h0v-.65c0-.53-.05-.71-.79-.71s-.75.18-.75.64h-.45v-.19c0-.43.11-.86,1.22-.86s1.22.33,1.22,1V60.4h-.4Zm-.86-.08c.6,0,.86-.15.86-.69s-.26-.7-.86-.7-.85.15-.85.7S145,60,145.59,60Z"/><path class="cls-5" d="M147.59,56.83H148v.53h0a1,1,0,0,1,.95-.59.92.92,0,0,1,1,.59,1.1,1.1,0,0,1,1.07-.59.94.94,0,0,1,1.07,1.06V60.4h-.45V58.09c0-.71-.29-.87-.75-.87s-.86.23-.86.93V60.4h-.45V57.93c0-.53-.22-.71-.71-.71-.65,0-.9.4-.9,1.14v2h-.45Z"/><path class="cls-5" d="M155,60.09a1.18,1.18,0,0,1-1,.37c-.91,0-1.11-.44-1.11-1.12s.16-1.12,1.11-1.12c.68,0,.83.08,1,.32h0v-.65c0-.53,0-.71-.79-.71s-.75.18-.75.64H153v-.19c0-.43.11-.86,1.22-.86s1.22.33,1.22,1V60.4H155Zm-.85-.08c.59,0,.85-.15.85-.69s-.26-.7-.85-.7-.86.15-.86.7S153.54,60,154.14,60Z"/><path class="cls-5" d="M158.32,59.76h0a.88.88,0,0,1-.93.52c-1.15,0-1.23-.77-1.23-1.75s.08-1.76,1.23-1.76a.87.87,0,0,1,.93.54h0v-.48h.45v3.54c0,1.06-.33,1.35-1.43,1.35-.69,0-1.12-.25-1.1-1h.45c0,.42.18.54.75.54.73,0,.88-.15.88-1Zm-.91.07c.73,0,.91-.29.91-1.3s-.18-1.31-.91-1.31-.78.36-.78,1.31S156.69,59.83,157.41,59.83Z"/><path class="cls-5" d="M159.93,58.72v.33c0,.78.14,1,.75,1s.88,0,.88-.71H162v.13c0,.72-.18,1-1.25,1s-1.32-.39-1.32-1.84.24-1.85,1.32-1.85,1.25.44,1.25,1.41v.54Zm1.63-.45c0-.75,0-1.09-.81-1.09s-.82.34-.82,1.09Z"/><path class="cls-5" d="M163.11,59.76h.49v.64h-.49Z"/></svg>