<svg id="Layer_1" data-name="Layer 1" xmlns="http://www.w3.org/2000/svg" xmlns:xlink="http://www.w3.org/1999/xlink" viewBox="0 0 841.89 595.28"><defs><style>.cls-1{fill:none;}.cls-2{clip-path:url(#clip-path);}.cls-3{opacity:0.15;}.cls-10,.cls-4{fill:#fff;}.cls-5{clip-path:url(#clip-path-2);}.cls-6{clip-path:url(#clip-path-3);}.cls-7{clip-path:url(#clip-path-4);}.cls-8,.cls-9{fill:#090400;}.cls-10,.cls-9{stroke:#090400;stroke-miterlimit:10;stroke-width:0.25px;}.cls-11{fill:#fbfbfb;}</style><clipPath id="clip-path"><rect class="cls-1" x="685.88" y="-315.95" width="189.92" height="260.79"/></clipPath><clipPath id="clip-path-2"><rect class="cls-1" x="458.45" y="-315.95" width="189.92" height="260.79"/></clipPath><clipPath id="clip-path-3"><rect class="cls-1" x="231.02" y="-315.95" width="189.92" height="260.79"/></clipPath><clipPath id="clip-path-4"><rect class="cls-1" x="3.59" y="-315.95" width="189.92" height="260.79"/></clipPath></defs><g class="cls-2"><g class="cls-3"><path class="cls-4" d="M865-218v-33.67l-1-1-6.08-6.09v-53h-1v52l-6.09-6.08v-45.92h-1v46.27l1,1.06,6.09,6.09v31.17c-2-2-4-3.9-6.09-5.72l-1-.85a106.93,106.93,0,0,0-31.6-18.57v-59.45h-1v59.08c-2.46-.89-5-1.7-7.5-2.41v-59h-1v58.74s-.45.91-.43.92l-6.78,7.53a96.9,96.9,0,0,0-20.64-2.22,96.73,96.73,0,0,0-20.63,2.22l-6.78-7.53s-.43-.92-.43-.92v-58.74h-1v59c-2.54.71-5,1.52-7.51,2.41v-59.08h-1v59.45a107.06,107.06,0,0,0-31.6,18.57l-1,.85q-3.15,2.75-6.08,5.72v-31.17l6.08-6.09,1-1.05v-46.28h-1v45.92l-6.08,6.08v-52h-1v53l-6.09,6.09-1,.91V-218A106.29,106.29,0,0,0,674-152.26a106.26,106.26,0,0,0,22.68,65.72v33.66l1,1,6.09,6.08v53h1v-52l6.08,6.09V7.25h1V-39l-1-1-6.08-6.09V-77.35q2.93,3,6.08,5.73l1,.85a107,107,0,0,0,31.6,18.56V7.25h1V-51.84c2.46.9,5,1.7,7.51,2.42V9h1V-49.15l.43-.92,6.78-7.53a96.73,96.73,0,0,0,20.63,2.22,96.9,96.9,0,0,0,20.64-2.22l6.78,7.53.43.92V9h1V-49.42c2.54-.72,5-1.52,7.5-2.42V7.25h1V-52.21a106.9,106.9,0,0,0,31.6-18.56l1-.85q3.15-2.75,6.09-5.72v31.17l-6.09,6.09-1,1.08V7.25h1V-38.67l6.09-6.09v52h1v-53L864-51.84l1-1V-86.53a106.23,106.23,0,0,0,22.68-65.73A106.23,106.23,0,0,0,865-218ZM696.72-128.62a87.06,87.06,0,0,1-3.25-23.64,87,87,0,0,1,3.25-23.64Zm0-50.73a87.93,87.93,0,0,0-4.25,27.09,87.91,87.91,0,0,0,4.25,27.08v18.88a95.3,95.3,0,0,1-11.75-46,95.27,95.27,0,0,1,11.75-46Zm0-20.92a96.3,96.3,0,0,0-12.75,48,96.33,96.33,0,0,0,12.75,48v16.07A105.26,105.26,0,0,1,675-152.26a105.29,105.29,0,0,1,21.68-64.09Zm7.09,153.1-6.09-6.09v-32q2.89,3.58,6.09,6.92Zm0-32.65q-3.19-3.41-6.09-7.06v-15.67a97.34,97.34,0,0,0,6.09,9Zm0-15.43a95.49,95.49,0,0,1-6.09-9.27v-17.73A87.88,87.88,0,0,0,703.81-109Zm0-15.82a85.89,85.89,0,0,1-6.09-14.27v-53.85a86.15,86.15,0,0,1,6.09-14.26Zm0-84.45a87.77,87.77,0,0,0-6.09,13.24V-200a95.35,95.35,0,0,1,6.09-9.26Zm0-15.41a96,96,0,0,0-6.09,9v-15.67q2.89-3.68,6.09-7.06Zm0-15.23q-3.19,3.33-6.09,6.92v-32l6.09-6.08Zm77-22a96.43,96.43,0,0,1,19.87,2.07l-5.89,6.54s-.32,1-.3,1v17.43a70.13,70.13,0,0,0-13.68-1.35,70,70,0,0,0-13.67,1.35v-17.43s-.3-1-.3-1L761-246.07A96.26,96.26,0,0,1,780.84-248.14Zm0,164.55a69,69,0,0,1-68.94-68.86v-.49c0-.74,0-1.48.06-2.21a69,69,0,0,1,31.53-55l1-.64a68.57,68.57,0,0,1,7.51-4.05l1-.46a67.32,67.32,0,0,1,7.53-2.83l1-.29c1.53-.44,3.07-.84,4.64-1.18l1-.22a68.45,68.45,0,0,1,13.67-1.37,68.62,68.62,0,0,1,13.68,1.37l1,.22c1.57.34,3.12.74,4.66,1.19l1,.28a69.8,69.8,0,0,1,7.51,2.83l1,.46a68.43,68.43,0,0,1,7.5,4.05l1,.64a69,69,0,0,1,31.54,55.08c0,.66,0,1.32,0,2,0,.23,0,.46,0,.69A69,69,0,0,1,780.84-83.59ZM800.18-85v18c-1.54.35-3.1.66-4.66.92V-83.87C797.09-84.21,798.64-84.61,800.18-85Zm-34,1.18v17.74c-1.56-.26-3.11-.57-4.64-.91V-85C763.06-84.61,764.6-84.21,766.17-83.87Zm-4.64-135.88v-17.73c1.53-.35,3.08-.65,4.64-.92v17.48C764.6-220.59,763.06-220.19,761.53-219.75Zm38.65,0c-1.54-.45-3.09-.84-4.66-1.18V-238.4c1.56.27,3.12.57,4.66.92Zm-95.37-6q2.93-3,6.08-5.82l1-.87a105.92,105.92,0,0,1,31.6-18.81l1-.38c2.46-.9,5-1.71,7.51-2.43l1,.62,6.08,6.76Q756-246,753-245l-1,.3c-2.55.79-5,1.7-7.51,2.69l-1,.41a97.28,97.28,0,0,0-31.6,21.41l-1,1c-2.13,2.23-4.16,4.57-6.08,7Zm0,15.16q2.87-3.74,6.08-7.17l1-1.05a96.3,96.3,0,0,1,31.6-21.75l1-.42c2.46-1,5-1.92,7.51-2.72l1-.31c2.25-.69,4.54-1.29,6.85-1.81l5.85,6.49a87.71,87.71,0,0,0-12.7,3.19l-1,.34c-2.56.89-5.06,1.88-7.51,3l-1,.47a88.87,88.87,0,0,0-31.6,24.87l-1,1.26a91,91,0,0,0-6.08,9Zm0,15.33a85.89,85.89,0,0,1,6.08-9.3l1-1.31a88.13,88.13,0,0,1,31.6-25.37l1-.47q3.68-1.68,7.51-3l1-.35q3.69-1.24,7.53-2.16v17.79a70.07,70.07,0,0,0-49.64,66.93c0,.06,0,.13,0,.2v.2a70.6,70.6,0,0,0,1,11l0,.53a70.13,70.13,0,0,0,31.6,47.39l1,.64a70.63,70.63,0,0,0,7.51,4l1,.45a69.08,69.08,0,0,0,7.53,2.78v18q-3.84-.91-7.53-2.16l-1-.35c-2.56-.89-5.06-1.91-7.51-3l-1-.47a87.92,87.92,0,0,1-31.6-25.37l-1-1.3a86.88,86.88,0,0,1-6.08-9.3ZM753-51.09l-1,.63c-2.54-.72-5-1.53-7.51-2.44l-1-.38a105.89,105.89,0,0,1-31.6-18.8l-1-.88q-3.15-2.79-6.08-5.82V-92.3q2.88,3.64,6.08,7l1,1a97.1,97.1,0,0,0,31.6,21.4l1,.41q3.69,1.5,7.51,2.7l1,.3c2,.6,4,1.15,6.08,1.62Zm6.85-7.61c-2.31-.52-4.6-1.13-6.85-1.81l-1-.31q-3.82-1.22-7.51-2.73l-1-.41a96.3,96.3,0,0,1-31.6-21.75l-1-1.05q-3.21-3.43-6.08-7.17v-13.34a89.66,89.66,0,0,0,6.08,9l1,1.27a89,89,0,0,0,31.6,24.87l1,.47c2.45,1.1,5,2.1,7.51,3l1,.34a87.73,87.73,0,0,0,12.7,3.2Zm21,2.32A95.58,95.58,0,0,1,761-58.46L766.87-65s.31-1,.3-1v-17.7a70,70,0,0,0,13.67,1.35,70.13,70.13,0,0,0,13.68-1.35V-66s.29,1,.3,1l5.89,6.54A95.75,95.75,0,0,1,780.84-56.38Zm76-22.39q-2.93,3-6.09,5.81l-1,.88a105.89,105.89,0,0,1-31.6,18.8l-1,.38q-3.69,1.36-7.5,2.44l-1-.63-6.09-6.76c2.06-.47,4.09-1,6.09-1.62l1-.3q3.82-1.2,7.5-2.7l1-.41a97.1,97.1,0,0,0,31.6-21.4l1-1q3.21-3.36,6.09-7Zm0-15.16c-1.91,2.49-4,4.88-6.09,7.17l-1,1.05A96.2,96.2,0,0,1,818.19-64l-1,.41q-3.68,1.52-7.5,2.73l-1,.31c-2.25.68-4.54,1.29-6.86,1.81L796-65.19a88.06,88.06,0,0,0,12.7-3.2l1-.34c2.55-.88,5.06-1.88,7.5-3l1-.47A88.87,88.87,0,0,0,849.79-97l1-1.27a88.08,88.08,0,0,0,6.09-9Zm0-15.33a88.52,88.52,0,0,1-6.09,9.3l-1,1.3a88,88,0,0,1-31.6,25.38l-1,.46c-2.44,1.12-4.94,2.14-7.5,3l-1,.35q-3.69,1.25-7.51,2.16V-85.34a69.47,69.47,0,0,0,7.51-2.77l1-.45a70.48,70.48,0,0,0,7.5-4l1-.64a70.06,70.06,0,0,0,31.6-47.39l0-.51a70,70,0,0,0,.95-11.1v-.37a70.07,70.07,0,0,0-49.61-66.93v-17.78q3.83.92,7.51,2.15l1,.35q3.84,1.35,7.5,3l1,.47a87.94,87.94,0,0,1,31.6,25.37l1,1.31a87.49,87.49,0,0,1,6.09,9.3Zm0-88a89.35,89.35,0,0,0-6.09-9l-1-1.27a89,89,0,0,0-31.6-24.86l-1-.47c-2.44-1.11-5-2.1-7.5-3l-1-.34a88,88,0,0,0-12.7-3.19l5.84-6.49q3.48.78,6.86,1.81l1,.31c2.55.8,5,1.72,7.5,2.72l1,.42a96.2,96.2,0,0,1,31.6,21.75l1,1.05c2.14,2.29,4.18,4.68,6.09,7.16Zm0-15q-2.88-3.65-6.09-7l-1-1a97.28,97.28,0,0,0-31.6-21.41l-1-.41c-2.45-1-5-1.9-7.5-2.69l-1-.3q-3-.91-6.09-1.63l6.09-6.76,1-.62q3.81,1.08,7.5,2.43l1,.38a105.92,105.92,0,0,1,31.6,18.81l1,.87q3.16,2.79,6.09,5.82Zm7.08,159-6.08,6.09v-31.2q3.18-3.31,6.08-6.92Zm0-33.62q-2.88,3.66-6.08,7.06V-93.59a97.24,97.24,0,0,0,6.08-9Zm0-17.64a94.2,94.2,0,0,1-6.08,9.27V-109A87.72,87.72,0,0,0,864-122.24Zm0-20.81a87,87,0,0,1-6.08,14.26v-82.38A86.6,86.6,0,0,1,864-179.19Zm0-56.95a87.83,87.83,0,0,0-6.08-13.25v-13.75A96.63,96.63,0,0,1,864-200ZM864-202a94.61,94.61,0,0,0-6.08-9V-224.7q3.2,3.39,6.08,7Zm0-17.27q-2.9-3.58-6.08-6.92v-31.19l6.08,6.08Zm1,43.33a87.14,87.14,0,0,1,3.26,23.65A87,87,0,0,1,865-128.62Zm0,50.74a88,88,0,0,0,4.26-27.09A87.93,87.93,0,0,0,865-179.35v-18.88a95.21,95.21,0,0,1,11.76,46,95.17,95.17,0,0,1-11.76,46Zm0,20.92a96.21,96.21,0,0,0,12.76-48,96.21,96.21,0,0,0-12.76-48v-16.08a105.22,105.22,0,0,1,21.68,64.09A105.17,105.17,0,0,1,865-88.18Z"/></g></g><g class="cls-5"><g class="cls-3"><path class="cls-4" d="M637.53-218v-33.67l-1-1-6.08-6.09v-53h-1v52l-6.09-6.08v-45.92h-1v46.27l1,1.06,6.09,6.09v31.17c-2-2-4-3.9-6.09-5.72l-1-.85a106.81,106.81,0,0,0-31.6-18.57v-59.45h-1v59.08c-2.46-.89-5-1.7-7.5-2.41v-59h-1v58.74s-.44.91-.43.92l-6.78,7.53a96.83,96.83,0,0,0-20.64-2.22,96.73,96.73,0,0,0-20.63,2.22L526-254.45s-.43-.92-.43-.92v-58.74h-1v59c-2.54.71-5.05,1.52-7.51,2.41v-59.08h-1v59.45a107.06,107.06,0,0,0-31.6,18.57l-1,.85q-3.15,2.75-6.08,5.72v-31.17l6.08-6.09,1-1.05v-46.28h-1v45.92l-6.08,6.08v-52h-1v53l-6.09,6.09-1,.91V-218a106.29,106.29,0,0,0-22.68,65.73,106.26,106.26,0,0,0,22.68,65.72v33.66l1,1,6.09,6.08v53h1v-52l6.08,6.09V7.25h1V-39l-1-1-6.08-6.09V-77.35q2.92,3,6.08,5.73l1,.85a107,107,0,0,0,31.6,18.56V7.25h1V-51.84c2.46.9,5,1.7,7.51,2.42V9h1V-49.15l.43-.92,6.78-7.53a96.73,96.73,0,0,0,20.63,2.22,96.83,96.83,0,0,0,20.64-2.22l6.78,7.53.43.92V9h1V-49.42c2.54-.72,5-1.52,7.5-2.42V7.25h1V-52.21a106.78,106.78,0,0,0,31.6-18.56l1-.85c2.11-1.83,4.13-3.74,6.09-5.72v31.17l-6.09,6.09-1,1.08V7.25h1V-38.67l6.09-6.09v52h1v-53l6.08-6.08,1-1V-86.53a106.23,106.23,0,0,0,22.68-65.73A106.23,106.23,0,0,0,637.53-218ZM469.29-128.62A87.06,87.06,0,0,1,466-152.26a87,87,0,0,1,3.25-23.64Zm0-50.73A87.93,87.93,0,0,0,465-152.26a87.91,87.91,0,0,0,4.25,27.08v18.88a95.3,95.3,0,0,1-11.75-46,95.27,95.27,0,0,1,11.75-46Zm0-20.92a96.3,96.3,0,0,0-12.75,48,96.33,96.33,0,0,0,12.75,48v16.07a105.26,105.26,0,0,1-21.68-64.08,105.29,105.29,0,0,1,21.68-64.09Zm7.09,153.1-6.09-6.09v-32q2.9,3.58,6.09,6.92Zm0-32.65q-3.19-3.41-6.09-7.06v-15.67a97.34,97.34,0,0,0,6.09,9Zm0-15.43a95.49,95.49,0,0,1-6.09-9.27v-17.73A87.88,87.88,0,0,0,476.38-109Zm0-15.82a85.89,85.89,0,0,1-6.09-14.27v-53.85a86.15,86.15,0,0,1,6.09-14.26Zm0-84.45a87.77,87.77,0,0,0-6.09,13.24V-200a95.35,95.35,0,0,1,6.09-9.26Zm0-15.41a96,96,0,0,0-6.09,9v-15.67q2.9-3.68,6.09-7.06Zm0-15.23q-3.19,3.33-6.09,6.92v-32l6.09-6.08Zm77-22a96.36,96.36,0,0,1,19.87,2.07l-5.89,6.54s-.32,1-.3,1v17.43a70.13,70.13,0,0,0-13.68-1.35,70,70,0,0,0-13.67,1.35v-17.43s-.3-1-.3-1l-5.89-6.54A96.26,96.26,0,0,1,553.41-248.14Zm0,164.55a69,69,0,0,1-68.94-68.86c0-.16,0-.32,0-.49,0-.74,0-1.48,0-2.21a69,69,0,0,1,31.53-55l1-.64a69.5,69.5,0,0,1,7.51-4.05l1-.46a67.32,67.32,0,0,1,7.53-2.83l1-.29c1.53-.44,3.07-.84,4.64-1.18l1-.22a68.45,68.45,0,0,1,13.67-1.37,68.55,68.55,0,0,1,13.68,1.37l1,.22c1.57.34,3.13.74,4.66,1.19l1,.28a69.8,69.8,0,0,1,7.51,2.83l1,.46a68.43,68.43,0,0,1,7.5,4.05l1,.64a69,69,0,0,1,31.54,55.08c0,.66,0,1.32.05,2,0,.23,0,.46,0,.69A69,69,0,0,1,553.41-83.59ZM572.75-85v18c-1.54.35-3.1.66-4.66.92V-83.87C569.66-84.21,571.21-84.61,572.75-85Zm-34,1.18v17.74c-1.56-.26-3.11-.57-4.64-.91V-85C535.63-84.61,537.17-84.21,538.74-83.87ZM534.1-219.75v-17.73c1.53-.35,3.08-.65,4.64-.92v17.48C537.17-220.59,535.63-220.19,534.1-219.75Zm38.65,0c-1.54-.45-3.09-.84-4.66-1.18V-238.4c1.56.27,3.12.57,4.66.92Zm-95.37-6q2.92-3,6.08-5.82l1-.87a106,106,0,0,1,31.6-18.81l1-.38c2.46-.9,5-1.71,7.51-2.43l1,.62,6.08,6.76q-3.07.72-6.08,1.63l-1,.3c-2.55.79-5.05,1.7-7.51,2.69l-1,.41a97.28,97.28,0,0,0-31.6,21.41l-1,1c-2.13,2.23-4.16,4.57-6.08,7Zm0,15.16q2.87-3.74,6.08-7.17l1-1.05a96.3,96.3,0,0,1,31.6-21.75l1-.42c2.46-1,5-1.92,7.51-2.72l1-.31q3.38-1,6.86-1.81l5.84,6.49a88,88,0,0,0-12.7,3.19l-1,.34c-2.56.89-5.06,1.88-7.51,3l-1,.47a88.87,88.87,0,0,0-31.6,24.87l-1,1.26a91,91,0,0,0-6.08,9Zm0,15.33a87.41,87.41,0,0,1,6.08-9.3l1-1.31a88.13,88.13,0,0,1,31.6-25.37l1-.47q3.68-1.68,7.51-3l1-.35q3.69-1.24,7.53-2.16v17.79a70.06,70.06,0,0,0-49.63,66.93v.27l0,.13a69.42,69.42,0,0,0,.94,11l0,.53a70.13,70.13,0,0,0,31.6,47.39l1,.64a70.63,70.63,0,0,0,7.51,4l1,.45a69.08,69.08,0,0,0,7.53,2.78v18q-3.84-.91-7.53-2.16l-1-.35c-2.56-.89-5.06-1.91-7.51-3l-1-.47a87.92,87.92,0,0,1-31.6-25.37l-1-1.3a88.43,88.43,0,0,1-6.08-9.3ZM525.57-51.09l-1,.63c-2.54-.72-5.05-1.53-7.51-2.44l-1-.38a106,106,0,0,1-31.6-18.8l-1-.88q-3.15-2.79-6.08-5.82V-92.3q2.88,3.64,6.08,7l1,1a97.1,97.1,0,0,0,31.6,21.4l1,.41q3.69,1.5,7.51,2.7l1,.3c2,.6,4,1.15,6.08,1.62Zm6.85-7.61c-2.31-.52-4.6-1.13-6.85-1.81l-1-.31q-3.83-1.22-7.51-2.73l-1-.41a96.3,96.3,0,0,1-31.6-21.75l-1-1.05q-3.21-3.43-6.08-7.17v-13.34a89.66,89.66,0,0,0,6.08,9l1,1.27a89,89,0,0,0,31.6,24.87l1,.47c2.45,1.1,5,2.1,7.51,3l1,.34a88.06,88.06,0,0,0,12.7,3.2Zm21,2.32a95.58,95.58,0,0,1-19.86-2.08L539.44-65s.31-1,.3-1v-17.7a70,70,0,0,0,13.67,1.35,70.13,70.13,0,0,0,13.68-1.35V-66s.29,1,.3,1l5.89,6.54A95.68,95.68,0,0,1,553.41-56.38Zm76-22.39q-2.93,3-6.09,5.81l-1,.88a105.89,105.89,0,0,1-31.6,18.8l-1,.38q-3.69,1.36-7.5,2.44l-1-.63-6.09-6.76c2.06-.47,4.09-1,6.09-1.62l1-.3q3.82-1.2,7.5-2.7l1-.41a97.1,97.1,0,0,0,31.6-21.4l1-1q3.21-3.36,6.09-7Zm0-15.16c-1.91,2.49-4,4.88-6.09,7.17l-1,1.05A96.2,96.2,0,0,1,590.76-64l-1,.41q-3.68,1.52-7.5,2.73l-1,.31c-2.25.68-4.54,1.29-6.86,1.81l-5.84-6.49a88.06,88.06,0,0,0,12.7-3.2l1-.34c2.55-.88,5.06-1.88,7.5-3l1-.47A88.79,88.79,0,0,0,622.36-97l1-1.27a88.08,88.08,0,0,0,6.09-9Zm0-15.33a88.52,88.52,0,0,1-6.09,9.3l-1,1.3a88,88,0,0,1-31.6,25.38l-1,.46c-2.44,1.12-4.94,2.14-7.5,3l-1,.35q-3.69,1.25-7.51,2.16V-85.34a69.47,69.47,0,0,0,7.51-2.77l1-.45a69.53,69.53,0,0,0,7.5-4l1-.64a70.06,70.06,0,0,0,31.6-47.39l0-.51a71.24,71.24,0,0,0,.94-11.1v-.37a70.07,70.07,0,0,0-49.61-66.93v-17.78q3.82.92,7.51,2.15l1,.35q3.84,1.35,7.5,3l1,.47a87.94,87.94,0,0,1,31.6,25.37l1,1.31a87.49,87.49,0,0,1,6.09,9.3Zm0-88a89.35,89.35,0,0,0-6.09-9l-1-1.27a88.87,88.87,0,0,0-31.6-24.86l-1-.47c-2.44-1.11-5-2.1-7.5-3l-1-.34a88,88,0,0,0-12.7-3.19l5.84-6.49q3.48.78,6.86,1.81l1,.31c2.55.8,5,1.72,7.5,2.72l1,.42a96.2,96.2,0,0,1,31.6,21.75l1,1.05c2.14,2.29,4.18,4.68,6.09,7.16Zm0-15q-2.88-3.65-6.09-7l-1-1a97.28,97.28,0,0,0-31.6-21.41l-1-.41c-2.45-1-5-1.9-7.5-2.69l-1-.3q-3-.91-6.09-1.63l6.09-6.76,1-.62q3.81,1.08,7.5,2.43l1,.38a105.92,105.92,0,0,1,31.6,18.81l1,.87q3.17,2.79,6.09,5.82Zm7.08,159-6.08,6.09v-31.2q3.18-3.31,6.08-6.92Zm0-33.62q-2.88,3.66-6.08,7.06V-93.59a97.24,97.24,0,0,0,6.08-9Zm0-17.64a94.2,94.2,0,0,1-6.08,9.27V-109a87.72,87.72,0,0,0,6.08-13.24Zm0-20.81a87,87,0,0,1-6.08,14.26v-82.38a86.6,86.6,0,0,1,6.08,14.26Zm0-56.95a87.83,87.83,0,0,0-6.08-13.25v-13.75a96.63,96.63,0,0,1,6.08,9.27Zm0-19.69a94.61,94.61,0,0,0-6.08-9V-224.7q3.19,3.39,6.08,7Zm0-17.27q-2.89-3.58-6.08-6.92v-31.19l6.08,6.08Zm1,43.33a87.14,87.14,0,0,1,3.26,23.65,87,87,0,0,1-3.26,23.64Zm0,50.74a88,88,0,0,0,4.26-27.09,87.93,87.93,0,0,0-4.26-27.09v-18.88a95.21,95.21,0,0,1,11.76,46,95.17,95.17,0,0,1-11.76,46Zm0,20.92a96.21,96.21,0,0,0,12.76-48,96.21,96.21,0,0,0-12.76-48v-16.08a105.22,105.22,0,0,1,21.68,64.09,105.17,105.17,0,0,1-21.68,64.08Z"/></g></g><g class="cls-6"><g class="cls-3"><path class="cls-4" d="M410.11-218v-33.67l-1-1L403-258.77v-53h-1v52l-6.09-6.08v-45.92h-1v46.27l1,1.06,6.09,6.09v31.17c-2-2-4-3.9-6.09-5.72l-1-.85a106.81,106.81,0,0,0-31.6-18.57v-59.45h-1v59.08c-2.46-.89-5-1.7-7.5-2.41v-59h-1v58.74s-.44.91-.43.92l-6.78,7.53A96.83,96.83,0,0,0,326-249.14a96.73,96.73,0,0,0-20.63,2.22l-6.78-7.53s-.43-.92-.43-.92v-58.74h-1v59c-2.54.71-5.05,1.52-7.51,2.41v-59.08h-1v59.45A107.06,107.06,0,0,0,257-233.75l-1,.85q-3.15,2.75-6.08,5.72v-31.17l6.08-6.09,1-1.05v-46.28h-1v45.92L250-259.77v-52h-1v53l-6.09,6.09-1,.91V-218a106.29,106.29,0,0,0-22.68,65.73,106.26,106.26,0,0,0,22.68,65.72v33.66l1,1L249-45.76v53h1v-52L256-38.67V7.25h1V-39l-1-1L250-46.17V-77.35q2.93,3,6.08,5.73l1,.85a107,107,0,0,0,31.6,18.56V7.25h1V-51.84c2.46.9,5,1.7,7.51,2.42V9h1V-49.15l.43-.92,6.78-7.53A96.73,96.73,0,0,0,326-55.38a96.83,96.83,0,0,0,20.64-2.22l6.78,7.53.43.92V9h1V-49.42c2.54-.72,5-1.52,7.5-2.42V7.25h1V-52.21a106.78,106.78,0,0,0,31.6-18.56l1-.85c2.11-1.83,4.13-3.74,6.09-5.72v31.17l-6.09,6.09-1,1.08V7.25h1V-38.67L402-44.76v52h1v-53l6.09-6.08,1-1V-86.53a106.28,106.28,0,0,0,22.67-65.73A106.28,106.28,0,0,0,410.11-218ZM241.86-128.62a87.45,87.45,0,0,1-3.25-23.64,87.4,87.4,0,0,1,3.25-23.64Zm0-50.73a88.23,88.23,0,0,0-4.25,27.09,88.21,88.21,0,0,0,4.25,27.08v18.88a95.3,95.3,0,0,1-11.75-46,95.27,95.27,0,0,1,11.75-46Zm0-20.92a96.3,96.3,0,0,0-12.75,48,96.33,96.33,0,0,0,12.75,48v16.07a105.26,105.26,0,0,1-21.68-64.08,105.29,105.29,0,0,1,21.68-64.09ZM249-47.17l-6.09-6.09v-32q2.89,3.58,6.09,6.92Zm0-32.65q-3.19-3.41-6.09-7.06v-15.67a99.39,99.39,0,0,0,6.09,9Zm0-15.43a95.49,95.49,0,0,1-6.09-9.27v-17.73A87.88,87.88,0,0,0,249-109Zm0-15.82a86.74,86.74,0,0,1-6.09-14.27v-53.85A87,87,0,0,1,249-193.45Zm0-84.45a87.77,87.77,0,0,0-6.09,13.24V-200a95.35,95.35,0,0,1,6.09-9.26Zm0-15.41a98,98,0,0,0-6.09,9v-15.67q2.89-3.68,6.09-7.06Zm0-15.23q-3.19,3.33-6.09,6.92v-32l6.09-6.08Zm77-22a96.36,96.36,0,0,1,19.87,2.07L340-239.53s-.32,1-.3,1v17.43A70.13,70.13,0,0,0,326-222.48a70,70,0,0,0-13.67,1.35v-17.43s-.3-1-.3-1l-5.89-6.54A96.34,96.34,0,0,1,326-248.14Zm0,164.55A69,69,0,0,1,257-152.45c0-.16,0-.32,0-.49,0-.74,0-1.48.05-2.21a69,69,0,0,1,31.53-55l1-.64a69.5,69.5,0,0,1,7.51-4.05l1-.46a67.32,67.32,0,0,1,7.53-2.83l1-.29c1.53-.44,3.07-.84,4.64-1.18l1-.22A68.45,68.45,0,0,1,326-221.21a68.55,68.55,0,0,1,13.68,1.37l1,.22c1.57.34,3.13.74,4.66,1.19l1,.28a69.8,69.8,0,0,1,7.51,2.83l1,.46a68.43,68.43,0,0,1,7.5,4.05l1,.64a69,69,0,0,1,31.54,55.08c0,.66,0,1.32.05,2,0,.23,0,.46,0,.69A69,69,0,0,1,326-83.59ZM345.32-85v18c-1.54.35-3.09.66-4.66.92V-83.87C342.23-84.21,343.78-84.61,345.32-85Zm-34,1.18v17.74c-1.56-.26-3.11-.57-4.64-.91V-85C308.2-84.61,309.74-84.21,311.31-83.87Zm-4.64-135.88v-17.73c1.53-.35,3.08-.65,4.64-.92v17.48C309.74-220.59,308.2-220.19,306.67-219.75Zm38.65,0c-1.54-.45-3.09-.84-4.66-1.18V-238.4c1.57.27,3.12.57,4.66.92Zm-95.37-6q2.93-3,6.08-5.82l1-.87a106,106,0,0,1,31.6-18.81l1-.38c2.46-.9,5-1.71,7.51-2.43l1,.62,6.09,6.76q-3.09.72-6.09,1.63l-1,.3c-2.55.79-5.05,1.7-7.51,2.69l-1,.41A97.39,97.39,0,0,0,257-220.24l-1,1c-2.13,2.23-4.16,4.57-6.08,7Zm0,15.16q2.87-3.74,6.08-7.17l1-1.05a96.41,96.41,0,0,1,31.6-21.75l1-.42c2.46-1,5-1.92,7.51-2.72l1-.31q3.38-1,6.86-1.81l5.84,6.49a88,88,0,0,0-12.7,3.19l-1,.34c-2.56.89-5.06,1.88-7.51,3l-1,.47A88.87,88.87,0,0,0,257-207.47l-1,1.26a91,91,0,0,0-6.08,9Zm0,15.33a87.41,87.41,0,0,1,6.08-9.3l1-1.31a88.13,88.13,0,0,1,31.6-25.37l1-.47q3.67-1.68,7.51-3l1-.35c2.46-.83,5-1.55,7.53-2.16v17.79A70.06,70.06,0,0,0,256-152.53v.27l0,.13a69.42,69.42,0,0,0,.94,11l0,.53a70.13,70.13,0,0,0,31.6,47.39l1,.64a70.63,70.63,0,0,0,7.51,4l1,.45a69.08,69.08,0,0,0,7.53,2.78v18c-2.55-.61-5.07-1.33-7.53-2.16l-1-.35c-2.56-.89-5.06-1.91-7.51-3l-1-.47A87.92,87.92,0,0,1,257-98.66l-1-1.3a88.43,88.43,0,0,1-6.08-9.3ZM298.14-51.09l-1,.63c-2.54-.72-5.05-1.53-7.51-2.44l-1-.38A106,106,0,0,1,257-72.08L256-73q-3.15-2.79-6.08-5.82V-92.3q2.88,3.64,6.08,7l1,1a97.21,97.21,0,0,0,31.6,21.4l1,.41q3.69,1.5,7.51,2.7l1,.3c2,.6,4,1.15,6.09,1.62ZM305-58.7c-2.32-.52-4.61-1.13-6.86-1.81l-1-.31q-3.83-1.22-7.51-2.73l-1-.41A96.41,96.41,0,0,1,257-85.71l-1-1.05q-3.21-3.43-6.08-7.17v-13.34a89.66,89.66,0,0,0,6.08,9L257-97a89,89,0,0,0,31.6,24.87l1,.47c2.45,1.1,4.95,2.1,7.51,3l1,.34a88.06,88.06,0,0,0,12.7,3.2Zm21,2.32a95.58,95.58,0,0,1-19.86-2.08L312-65s.31-1,.3-1v-17.7A70,70,0,0,0,326-82.31a70.13,70.13,0,0,0,13.68-1.35V-66s.29,1,.3,1l5.89,6.54A95.68,95.68,0,0,1,326-56.38Zm76-22.39q-2.92,3-6.09,5.81l-1,.88a105.77,105.77,0,0,1-31.6,18.8l-1,.38q-3.69,1.36-7.5,2.44l-1-.63-6.09-6.76c2.06-.47,4.09-1,6.09-1.62l1-.3q3.82-1.2,7.5-2.7l1-.41a97.1,97.1,0,0,0,31.6-21.4l1-1q3.21-3.36,6.09-7Zm0-15.16c-1.91,2.49-3.95,4.88-6.09,7.17l-1,1.05A96.2,96.2,0,0,1,363.33-64l-1,.41q-3.68,1.52-7.5,2.73l-1,.31c-2.25.68-4.54,1.29-6.86,1.81l-5.84-6.49a88.06,88.06,0,0,0,12.7-3.2l1-.34c2.56-.88,5.06-1.88,7.5-3l1-.47A88.79,88.79,0,0,0,394.93-97l1-1.27a88.08,88.08,0,0,0,6.09-9Zm0-15.33a88.52,88.52,0,0,1-6.09,9.3l-1,1.3a87.88,87.88,0,0,1-31.6,25.38l-1,.46c-2.44,1.12-4.94,2.14-7.5,3l-1,.35q-3.69,1.25-7.51,2.16V-85.34a69.47,69.47,0,0,0,7.51-2.77l1-.45a69.53,69.53,0,0,0,7.5-4l1-.64a70.06,70.06,0,0,0,31.6-47.39l.05-.51a70,70,0,0,0,.94-11.1v-.37a70.07,70.07,0,0,0-49.61-66.93v-17.78q3.82.92,7.51,2.15l1,.35q3.84,1.35,7.5,3l1,.47a87.85,87.85,0,0,1,31.6,25.37l1,1.31a87.49,87.49,0,0,1,6.09,9.3Zm0-88a89.35,89.35,0,0,0-6.09-9l-1-1.27a88.87,88.87,0,0,0-31.6-24.86l-1-.47c-2.44-1.11-4.94-2.1-7.5-3l-1-.34a88,88,0,0,0-12.7-3.19l5.84-6.49q3.48.78,6.86,1.81l1,.31c2.55.8,5.05,1.72,7.5,2.72l1,.42a96.2,96.2,0,0,1,31.6,21.75l1,1.05c2.14,2.29,4.18,4.68,6.09,7.16Zm0-15q-2.88-3.65-6.09-7l-1-1a97.28,97.28,0,0,0-31.6-21.41l-1-.41c-2.45-1-4.95-1.9-7.5-2.69l-1-.3q-3-.91-6.09-1.63l6.09-6.76,1-.62q3.81,1.08,7.5,2.43l1,.38a105.79,105.79,0,0,1,31.6,18.81l1,.87q3.17,2.79,6.09,5.82Zm7.09,159L403-47.17v-31.2c2.13-2.21,4.15-4.52,6.09-6.92Zm0-33.62q-2.89,3.66-6.09,7.06V-93.59a99.39,99.39,0,0,0,6.09-9Zm0-17.64A96.13,96.13,0,0,1,403-95.25V-109a87.77,87.77,0,0,0,6.09-13.24Zm0-20.81A87.88,87.88,0,0,1,403-111.07v-82.38a87.5,87.5,0,0,1,6.09,14.26Zm0-56.95A87.88,87.88,0,0,0,403-195.53v-13.75a98.67,98.67,0,0,1,6.09,9.27Zm0-19.69a96.63,96.63,0,0,0-6.09-9V-224.7q3.19,3.39,6.09,7Zm0-17.27c-1.94-2.39-4-4.7-6.09-6.92v-31.19l6.09,6.08Zm1,43.33a87.53,87.53,0,0,1,3.25,23.65,87.4,87.4,0,0,1-3.25,23.64Zm0,50.74a88.27,88.27,0,0,0,4.25-27.09,88.23,88.23,0,0,0-4.25-27.09v-18.88a95.31,95.31,0,0,1,11.75,46,95.27,95.27,0,0,1-11.75,46Zm0,20.92a96.3,96.3,0,0,0,12.75-48,96.3,96.3,0,0,0-12.75-48v-16.08a105.28,105.28,0,0,1,21.67,64.09,105.23,105.23,0,0,1-21.67,64.08Z"/></g></g><g class="cls-7"><g class="cls-3"><path class="cls-4" d="M182.68-218v-33.67l-1-1-6.09-6.09v-53h-1v52l-6.09-6.08v-45.92h-1v46.27l1,1.06,6.09,6.09v31.17c-2-2-4-3.9-6.09-5.72l-1-.85a106.81,106.81,0,0,0-31.6-18.57v-59.45h-1v59.08c-2.46-.89-5-1.7-7.5-2.41v-59h-1v58.74s-.44.91-.43.92l-6.78,7.53a96.83,96.83,0,0,0-20.64-2.22,96.73,96.73,0,0,0-20.63,2.22l-6.78-7.53s-.43-.92-.43-.92v-58.74h-1v59c-2.54.71-5,1.52-7.51,2.41v-59.08h-1v59.45a106.88,106.88,0,0,0-31.59,18.57l-1,.85q-3.16,2.75-6.09,5.72v-31.17l6.09-6.09,1-1.05v-46.28h-1v45.92l-6.09,6.08v-52h-1v53l-6.09,6.09-1,.91V-218A106.28,106.28,0,0,0-8.24-152.26,106.26,106.26,0,0,0,14.43-86.54v33.66l1,1,6.09,6.08v53h1v-52l6.09,6.09V7.25h1V-39l-1-1-6.09-6.09V-77.35q2.93,3,6.09,5.73l1,.85A106.85,106.85,0,0,0,61.2-52.21V7.25h1V-51.84c2.46.9,5,1.7,7.51,2.42V9h1V-49.15l.43-.92,6.78-7.53a96.73,96.73,0,0,0,20.63,2.22,96.83,96.83,0,0,0,20.64-2.22L126-50.07l.43.92V9h1V-49.42c2.54-.72,5-1.52,7.5-2.42V7.25h1V-52.21a106.78,106.78,0,0,0,31.6-18.56l1-.85c2.11-1.83,4.13-3.74,6.09-5.72v31.17l-6.09,6.09-1,1.08V7.25h1V-38.67l6.09-6.09v52h1v-53l6.09-6.08,1-1V-86.53a106.28,106.28,0,0,0,22.67-65.73A106.28,106.28,0,0,0,182.68-218ZM14.43-128.62a87.45,87.45,0,0,1-3.25-23.64,87.4,87.4,0,0,1,3.25-23.64Zm0-50.73a88.23,88.23,0,0,0-4.25,27.09,88.21,88.21,0,0,0,4.25,27.08v18.88a95.3,95.3,0,0,1-11.75-46,95.27,95.27,0,0,1,11.75-46Zm0-20.92a96.3,96.3,0,0,0-12.75,48,96.33,96.33,0,0,0,12.75,48v16.07A105.25,105.25,0,0,1-7.24-152.26a105.28,105.28,0,0,1,21.67-64.09Zm7.09,153.1-6.09-6.09v-32q2.89,3.58,6.09,6.92Zm0-32.65q-3.19-3.41-6.09-7.06v-15.67a99.39,99.39,0,0,0,6.09,9Zm0-15.43a95.49,95.49,0,0,1-6.09-9.27v-17.73A87.88,87.88,0,0,0,21.52-109Zm0-15.82a86.74,86.74,0,0,1-6.09-14.27v-53.85a87,87,0,0,1,6.09-14.26Zm0-84.45a87.77,87.77,0,0,0-6.09,13.24V-200a95.35,95.35,0,0,1,6.09-9.26Zm0-15.41a98,98,0,0,0-6.09,9v-15.67q2.89-3.68,6.09-7.06Zm0-15.23q-3.19,3.33-6.09,6.92v-32l6.09-6.08Zm77-22a96.36,96.36,0,0,1,19.87,2.07l-5.89,6.54s-.32,1-.3,1v17.43a70.13,70.13,0,0,0-13.68-1.35,70,70,0,0,0-13.67,1.35v-17.43s-.3-1-.3-1l-5.89-6.54A96.34,96.34,0,0,1,98.55-248.14Zm0,164.55a69,69,0,0,1-68.94-68.86c0-.16,0-.32,0-.49,0-.74,0-1.48.05-2.21a69,69,0,0,1,31.53-55l1-.64a69.5,69.5,0,0,1,7.51-4.05l1-.46a67.32,67.32,0,0,1,7.53-2.83l1-.29c1.53-.44,3.07-.84,4.64-1.18l1-.22a68.45,68.45,0,0,1,13.67-1.37,68.55,68.55,0,0,1,13.68,1.37l1,.22c1.57.34,3.13.74,4.66,1.19l1,.28a69.8,69.8,0,0,1,7.51,2.83l1,.46a68.43,68.43,0,0,1,7.5,4.05l1,.64a69,69,0,0,1,31.54,55.08c0,.66,0,1.32.05,2,0,.23,0,.46,0,.69A69,69,0,0,1,98.55-83.59ZM117.89-85v18c-1.54.35-3.09.66-4.66.92V-83.87C114.8-84.21,116.35-84.61,117.89-85Zm-34,1.18v17.74c-1.56-.26-3.11-.57-4.64-.91V-85C80.77-84.61,82.31-84.21,83.88-83.87ZM79.24-219.75v-17.73c1.53-.35,3.08-.65,4.64-.92v17.48C82.31-220.59,80.77-220.19,79.24-219.75Zm38.65,0c-1.53-.45-3.09-.84-4.66-1.18V-238.4c1.57.27,3.12.57,4.66.92Zm-95.37-6q2.93-3,6.09-5.82l1-.87A105.87,105.87,0,0,1,61.2-251.25l1-.38c2.46-.9,5-1.71,7.51-2.43l1,.62,6.09,6.76q-3.09.72-6.09,1.63l-1,.3c-2.55.79-5,1.7-7.51,2.69l-1,.41a97.35,97.35,0,0,0-31.59,21.41l-1,1c-2.14,2.23-4.17,4.57-6.09,7Zm0,15.16q2.86-3.74,6.09-7.17l1-1.05A96.26,96.26,0,0,1,61.2-240.56l1-.42c2.46-1,5-1.92,7.51-2.72l1-.31q3.38-1,6.86-1.81l5.84,6.49a88,88,0,0,0-12.7,3.19l-1,.34c-2.56.89-5.06,1.88-7.51,3l-1,.47a88.75,88.75,0,0,0-31.59,24.87l-1,1.26a89.35,89.35,0,0,0-6.09,9Zm0,15.33a86,86,0,0,1,6.09-9.3l1-1.31A88,88,0,0,1,61.2-231.24l1-.47q3.67-1.68,7.51-3l1-.35c2.46-.83,5-1.55,7.53-2.16v17.79a70.06,70.06,0,0,0-49.63,66.93v.4a69.42,69.42,0,0,0,.94,11l.05.53A70.08,70.08,0,0,0,61.2-93.16l1,.64a70.63,70.63,0,0,0,7.51,4l1,.45a69.08,69.08,0,0,0,7.53,2.78v18c-2.55-.61-5.07-1.33-7.53-2.16l-1-.35c-2.56-.89-5.06-1.91-7.51-3l-1-.47A87.8,87.8,0,0,1,29.61-98.66l-1-1.3a87,87,0,0,1-6.09-9.3ZM70.71-51.09l-1,.63c-2.54-.72-5-1.53-7.51-2.44l-1-.38a105.84,105.84,0,0,1-31.59-18.8l-1-.88q-3.16-2.79-6.09-5.82V-92.3q2.88,3.64,6.09,7l1,1A97.16,97.16,0,0,0,61.2-62.88l1,.41q3.69,1.5,7.51,2.7l1,.3c2,.6,4,1.15,6.09,1.62Zm6.86-7.61c-2.32-.52-4.61-1.13-6.86-1.81l-1-.31Q65.88-62,62.2-63.55l-1-.41A96.26,96.26,0,0,1,29.61-85.71l-1-1.05q-3.22-3.43-6.09-7.17v-13.34a88.08,88.08,0,0,0,6.09,9l1,1.27A88.86,88.86,0,0,0,61.2-72.18l1,.47c2.45,1.1,5,2.1,7.51,3l1,.34a88.06,88.06,0,0,0,12.7,3.2Zm21,2.32a95.65,95.65,0,0,1-19.86-2.08L84.58-65s.31-1,.3-1v-17.7a70.1,70.1,0,0,0,13.67,1.35,70.13,70.13,0,0,0,13.68-1.35V-66s.29,1,.3,1l5.89,6.54A95.68,95.68,0,0,1,98.55-56.38Zm76-22.39q-2.93,3-6.09,5.81l-1,.88a105.77,105.77,0,0,1-31.6,18.8l-1,.38q-3.69,1.36-7.5,2.44l-1-.63-6.09-6.76c2.06-.47,4.09-1,6.09-1.62l1-.3q3.82-1.2,7.5-2.7l1-.41a97.1,97.1,0,0,0,31.6-21.4l1-1q3.21-3.36,6.09-7Zm0-15.16q-2.86,3.74-6.09,7.17l-1,1.05A96.2,96.2,0,0,1,135.9-64l-1,.41q-3.68,1.52-7.5,2.73l-1,.31c-2.25.68-4.54,1.29-6.86,1.81l-5.84-6.49a88.06,88.06,0,0,0,12.7-3.2l1-.34c2.56-.88,5.06-1.88,7.5-3l1-.47A88.7,88.7,0,0,0,167.5-97l1-1.27a88.08,88.08,0,0,0,6.09-9Zm0-15.33a88.52,88.52,0,0,1-6.09,9.3l-1,1.3a87.88,87.88,0,0,1-31.6,25.38l-1,.46c-2.44,1.12-4.94,2.14-7.5,3l-1,.35q-3.69,1.25-7.51,2.16V-85.34a69.47,69.47,0,0,0,7.51-2.77l1-.45a69.53,69.53,0,0,0,7.5-4l1-.64a70.06,70.06,0,0,0,31.6-47.39l.05-.51a70,70,0,0,0,.94-11.1v-.37a70.07,70.07,0,0,0-49.61-66.93v-17.78q3.83.92,7.51,2.15l1,.35q3.84,1.35,7.5,3l1,.47a87.85,87.85,0,0,1,31.6,25.37l1,1.31a87.49,87.49,0,0,1,6.09,9.3Zm0-88a89.35,89.35,0,0,0-6.09-9l-1-1.27a88.78,88.78,0,0,0-31.6-24.86l-1-.47c-2.44-1.11-4.94-2.1-7.5-3l-1-.34a88,88,0,0,0-12.7-3.19l5.84-6.49Q123-245,126.4-244l1,.31c2.55.8,5,1.72,7.5,2.72l1,.42a96.2,96.2,0,0,1,31.6,21.75l1,1.05q3.23,3.44,6.09,7.16Zm0-15q-2.88-3.65-6.09-7l-1-1a97.28,97.28,0,0,0-31.6-21.41l-1-.41c-2.45-1-5-1.9-7.5-2.69l-1-.3q-3-.91-6.09-1.63l6.09-6.76,1-.62q3.81,1.08,7.5,2.43l1,.38a105.79,105.79,0,0,1,31.6,18.81l1,.87q3.17,2.79,6.09,5.82Zm7.09,159-6.09,6.09v-31.2c2.13-2.21,4.15-4.52,6.09-6.92Zm0-33.62q-2.9,3.66-6.09,7.06V-93.59a99.39,99.39,0,0,0,6.09-9Zm0-17.64a96.13,96.13,0,0,1-6.09,9.27V-109a87.77,87.77,0,0,0,6.09-13.24Zm0-20.81a87.88,87.88,0,0,1-6.09,14.26v-82.38a87.5,87.5,0,0,1,6.09,14.26Zm0-56.95a87.88,87.88,0,0,0-6.09-13.25v-13.75a98.67,98.67,0,0,1,6.09,9.27Zm0-19.69a96.63,96.63,0,0,0-6.09-9V-224.7q3.19,3.39,6.09,7Zm0-17.27c-1.94-2.39-4-4.7-6.09-6.92v-31.19l6.09,6.08Zm1,43.33a87.53,87.53,0,0,1,3.25,23.65,87.4,87.4,0,0,1-3.25,23.64Zm0,50.74a88.27,88.27,0,0,0,4.25-27.09,88.23,88.23,0,0,0-4.25-27.09v-18.88a95.31,95.31,0,0,1,11.75,46,95.27,95.27,0,0,1-11.75,46Zm0,20.92a96.3,96.3,0,0,0,12.75-48,96.3,96.3,0,0,0-12.75-48v-16.08a105.28,105.28,0,0,1,21.67,64.09,105.23,105.23,0,0,1-21.67,64.08Z"/></g></g><path class="cls-4" d="M162.27,42.52h-7.09a4.25,4.25,0,0,0-4.25,4.25v3.54H91.4V46.77a4.25,4.25,0,0,0-4.25-4.25H80.06l-9.92,9.92v82.21l9.92,9.92h7.09a4.25,4.25,0,0,0,4.25-4.26v-3.54h59.53v3.54a4.25,4.25,0,0,0,4.25,4.26h7.09l9.92-9.92V52.44Z"/><path class="cls-8" d="M159.11,132.9l1.52-1.31,7.3,7.31,4.26-4.25V94.54h-8.5v-2h8.5V52.44l-4.26-4.25-7.3,7.3-1.52-1.3,7.41-7.42-4.25-4.25h-7.09a4.25,4.25,0,0,0-4.25,4.25v3.55H122.17v8h-2v-8H91.4V46.77a4.25,4.25,0,0,0-4.25-4.25H80.06l-4.25,4.25,7.41,7.42-1.52,1.3-7.3-7.3-4.26,4.25v40.1h8.51v2H70.14v40.11l4.26,4.25,7.3-7.31,1.52,1.31-7.41,7.41,4.25,4.26h7.09a4.25,4.25,0,0,0,4.25-4.25v-3.55h28.77v-8h2v8h28.76v3.55a4.25,4.25,0,0,0,4.25,4.25h7.09l4.25-4.26Z"/><path class="cls-4" d="M141.63,81.51a.49.49,0,0,0,0-.12h0a1.88,1.88,0,0,0-1-1.67v0h0a1.89,1.89,0,0,0-1.89-1.88h-.63a1.89,1.89,0,0,0-1.76-1.2h-.29a1.87,1.87,0,0,0-1.75-1.21h-.41a1.89,1.89,0,0,0-1.64-1h-1.66a1.88,1.88,0,0,0-1.75-1.2h-1.6a1.4,1.4,0,0,0-1.33-1h-9.49a1.4,1.4,0,0,0-1.33,1h-1.6a1.88,1.88,0,0,0-1.75,1.2h-1.66a1.88,1.88,0,0,0-1.64,1H108a1.87,1.87,0,0,0-1.75,1.21H106a1.88,1.88,0,0,0-1.76,1.2h-.63a1.89,1.89,0,0,0-1.89,1.88h0v0a1.88,1.88,0,0,0-1,1.67h0a.49.49,0,0,0,0,.12,1.87,1.87,0,0,0-1.38,1.81h0a1.89,1.89,0,0,0,1.34,1.8,17.81,17.81,0,0,0,5.42,1.4,37.17,37.17,0,0,0,8.39,1.4,7.66,7.66,0,0,0,3,1.3,4.73,4.73,0,0,0,2.31,1.21v18.42l-1.34.83v3.42l2.73,1.7,2.73-1.7v-3.42l-1.39-.86V90.43a4.73,4.73,0,0,0,2.31-1.21,7.66,7.66,0,0,0,3-1.3,37.17,37.17,0,0,0,8.39-1.4,17.81,17.81,0,0,0,5.42-1.4,1.88,1.88,0,0,0,1.33-1.8h0A1.87,1.87,0,0,0,141.63,81.51ZM125.92,74h2a.35.35,0,0,1,.35.34.35.35,0,0,1-.35.34h-2a.34.34,0,0,1-.34-.34A.34.34,0,0,1,125.92,74Zm-11.61,0h2a.34.34,0,0,1,.34.34.34.34,0,0,1-.34.34h-2a.34.34,0,0,1-.34-.34A.34.34,0,0,1,114.31,74Zm-6.14,2.17h1.76a.93.93,0,0,1-.05-.29.9.9,0,0,1,.91-.91h2.27a.91.91,0,0,1,.91.91.93.93,0,0,1,0,.29h14.44a.94.94,0,0,1-.06-.29.91.91,0,0,1,.92-.91h2.27a.91.91,0,0,1,.91.91.93.93,0,0,1-.05.29h1.76a.34.34,0,0,1,0,.68H108.17a.34.34,0,1,1,0-.68Zm25.59,1.79a.34.34,0,0,1-.34.34H108.85a.35.35,0,0,1,0-.69h24.57A.35.35,0,0,1,133.76,77.91Zm5.81,5.15H102.71a.34.34,0,1,1,0-.68h.69s0,0,0-.08v-.68a.69.69,0,0,1,.69-.69H138.2a.68.68,0,0,1,.68.69v.76h.69a.34.34,0,1,1,0,.68Z"/><path class="cls-4" d="M312.16,42.52h-7.09a4.25,4.25,0,0,0-4.25,4.25v3.54H241.29V46.77A4.25,4.25,0,0,0,237,42.52H230L220,52.44v82.21l9.92,9.92H237a4.25,4.25,0,0,0,4.25-4.26v-3.54h59.53v3.54a4.25,4.25,0,0,0,4.25,4.26h7.09l9.92-9.92V52.44Z"/><path class="cls-8" d="M309,132.9l1.52-1.31,7.3,7.31,4.26-4.25V94.54h-8.5v-2h8.5V52.44l-4.25-4.25-7.31,7.3L309,54.19l7.41-7.42-4.25-4.25h-7.09a4.25,4.25,0,0,0-4.25,4.25v3.55H272.06v8h-2v-8H241.29V46.77A4.25,4.25,0,0,0,237,42.52H230l-4.25,4.25,7.41,7.42-1.52,1.3-7.3-7.3L220,52.44v40.1h8.51v2H220v40.11l4.26,4.25,7.3-7.31,1.52,1.31-7.41,7.41,4.25,4.26H237a4.25,4.25,0,0,0,4.25-4.25v-3.55h28.77v-8h2v8h28.76v3.55a4.25,4.25,0,0,0,4.25,4.25h7.09l4.25-4.26Z"/><path id="path25903" class="cls-4" d="M270.9,113.56c-1.48-.61-2.12-1.92-3.34-6.88-.57-2.3-.79-2.55-2.53-2.91-.73-.15-1.67-.82-3.08-2.21l-2-2-1.14,1.12a5,5,0,0,1-1.44,1.12,19.63,19.63,0,0,1-4-4.09c0-.52,2.15-2.4,4.37-3.83,2.82-1.81,9.65-8.68,9.36-9.42s1.49-2.53,2.52-2.53c.55,0,1.27-.5,2.42-1.66s1.87-1.65,2.38-1.65c.82,0,2.43,1.36,2.43,2.06a24.81,24.81,0,0,1-3.46,4c-3.11,3.15-3.93,4.22-3.22,4.22.55,0,11.76-11.7,12.55-13.09,1-1.72,1.63-2.56,2-2.56s4.14,3.66,4.14,4.1A6.69,6.69,0,0,1,286.63,79c-2.24,1.32-9.55,8.14-9.55,8.91a14.5,14.5,0,0,0,2.4,2.78,14.42,14.42,0,0,1,2.41,2.77,37,37,0,0,1-4,4.37c-3.69,3.69-4.09,4-5.12,4-1.31,0-1.36.22-.37,1.8,1.88,3,3.17,5.89,3.17,7.18,0,2.37-2.31,3.75-4.67,2.77Zm2.8-1.58c.77-.76.38-2.29-1.43-5.54-1-1.77-1.94-3.36-2.1-3.53-.44-.44-1.9,1-1.66,1.59.1.26.39,1.28.64,2.28,1,4.14,1.32,4.88,2,5.2a2.6,2.6,0,0,0,2.56,0Zm-5.26-10.11a3.41,3.41,0,0,0,.81-1.14,14.28,14.28,0,0,0-2.11-2.39L265,96.25l-1.57,1.57-1.57,1.57,1.34,1.37c2,2.06,3.91,2.46,5.21,1.11Zm4.85-1.75c.72-.28.57-.63-.43-1-.78-.27-.9-.24-.9.23C272,100.24,272.36,100.47,273.29,100.12ZM259.61,97a14.4,14.4,0,0,1,1.78-2.53c.69-.63.84-1.38.28-1.38a2.45,2.45,0,0,0-1.08.68,23.71,23.71,0,0,1-2.7,1.88c-2.72,1.65-2.88,2-1.6,3.3,1,1,1,1,1.6.53A14.48,14.48,0,0,0,259.61,97Zm12.3-.26,1-1-1.83-1.84L269.25,92l-1.58,1.58-1.57,1.57,1.95,2,1.95,2,.45-.69a15,15,0,0,1,1.46-1.71Zm3.22,1.43c.28-.89-.55-1.72-1.19-1.19-.41.34-.4.46.06,1.1.64.88.87.9,1.13.09Zm-12.44-1.68c1.22-1.2,1.4-1.6.7-1.6-.38,0-1.45,1.2-2.09,2.34-.41.72.25.37,1.39-.74Zm16-1.59,1.41-1.51L278,91.27a18.07,18.07,0,0,0-2.34-2.11,17,17,0,0,0-3.38,3.44,8,8,0,0,0,2.54,2.59,2.9,2.9,0,0,1,1.07.6,3,3,0,0,0,1.09.59,6.41,6.41,0,0,0,1.74-1.49ZM267.14,92l1.93-2-1-1A4.34,4.34,0,0,0,266.71,88a19.06,19.06,0,0,0-3.78,3.67A8.52,8.52,0,0,0,265,94a16.74,16.74,0,0,0,2.14-2Zm7.61-4.3A46.62,46.62,0,0,0,278.28,84c0-.74-1.19.19-4.31,3.34-1.93,2-3.52,3.65-3.52,3.76C270.45,91.77,271.64,90.84,274.75,87.73ZM272,83.9c2.52-2.52,3.07-3.23,2.77-3.53s-1,.27-3.53,2.84A28.57,28.57,0,0,0,268,86.74C268,87.55,269.05,86.81,272,83.9Zm9.1-2.48c1.47-1.44,1.73-1.89,1.08-1.89a8.42,8.42,0,0,0-2.95,2.92c0,.66.37.45,1.87-1Zm4.56-3.58,1.16-.78-.84-.87a3.54,3.54,0,0,0-1.07-.87,3.88,3.88,0,0,0-1,1.24c-1.24,2.08-.38,2.72,1.72,1.28Z"/><path class="cls-4" d="M462.05,42.52H455a4.25,4.25,0,0,0-4.25,4.25v3.54H391.18V46.77a4.25,4.25,0,0,0-4.25-4.25h-7.09l-9.92,9.92v82.21l9.92,9.92h7.09a4.25,4.25,0,0,0,4.25-4.26v-3.54h59.53v3.54a4.25,4.25,0,0,0,4.25,4.26h7.09l9.92-9.92V52.44Z"/><path class="cls-8" d="M458.89,132.9l1.52-1.31,7.3,7.31,4.26-4.25V94.54h-8.5v-2H472V52.44l-4.25-4.25-7.31,7.3-1.52-1.3,7.41-7.42-4.25-4.25H455a4.25,4.25,0,0,0-4.25,4.25v3.55H422v8h-2v-8H391.18V46.77a4.25,4.25,0,0,0-4.25-4.25h-7.09l-4.25,4.25L383,54.19l-1.52,1.3-7.3-7.3-4.26,4.25v40.1h8.51v2h-8.51v40.11l4.26,4.25,7.3-7.31L383,132.9l-7.41,7.41,4.25,4.26h7.09a4.25,4.25,0,0,0,4.25-4.25v-3.55H420v-8h2v8h28.76v3.55a4.25,4.25,0,0,0,4.25,4.25h7.09l4.25-4.26Z"/><path id="path6627-6-1" class="cls-4" d="M402.24,113.68a8.14,8.14,0,0,1-1.74-1.44c-1-1-1.11-1.32-1.11-3a3.61,3.61,0,0,1,.55-2.44,1.42,1.42,0,0,0,.34-1.34c-.16-.63.6-1.5,5.42-6.24,4.47-4.37,5.74-5.46,6.24-5.31a1.74,1.74,0,0,0,1.84-1.27,3.35,3.35,0,0,0-.95-1.27,3.1,3.1,0,0,1-.95-1.41,13.86,13.86,0,0,1,2.61-3.1c2.78-2.77,4-3.27,4.65-2a2,2,0,0,0,1,.82c.54.17,1.18-.3,3.48-2.59s2.79-2.92,2.64-3.54c-.27-1.07,3.27-4.64,4.31-4.37.52.14,1-.11,1.91-.91a4.58,4.58,0,0,1,1.6-1.07c.22,0,2.18.62,4.35,1.36,2.91,1,4,1.5,4.06,1.92s-.71,1.41-2.28,3c-1.84,1.84-2.36,2.56-2.23,3,.26,1-3.49,4.68-4.49,4.43s-1.22.32-.45,1.14a2.45,2.45,0,0,1,.65,1.05,12.17,12.17,0,0,1-3.35,3.32,2.57,2.57,0,0,1-1-.67l-.72-.68-4.72,4.71c-3.85,3.84-4.69,4.83-4.55,5.39.24,1-10.67,11.93-11.65,11.68a1.46,1.46,0,0,0-1.21.33,5.93,5.93,0,0,1-4.2.45Zm3.18-1.74c.58-.43.51-.56-1.55-2.61s-2.18-2.13-2.6-1.55c-.78,1.07-.55,2.35.62,3.53s2.46,1.41,3.53.63Zm7.24-5.4a52,52,0,0,0,4.59-4.9c0-.87-1.18.06-5.34,4.23-2.63,2.64-4.44,4.7-4.32,4.9s.28.35.35.35S410.14,109.06,412.66,106.54Zm-1.61-2c3.14-3.14,4.56-4.78,4.31-4.94s-2,1.37-4.94,4.31c-4.05,4-5.09,5.34-4.31,5.34.14,0,2.36-2.12,4.94-4.71Zm-1.7-1.77c3.31-3.32,4.47-4.67,4.22-4.92s-1.62.92-5,4.26A56.46,56.46,0,0,0,404,107C404,107.88,405.16,106.94,409.35,102.75Zm-2-1.49a39.33,39.33,0,0,0,4.54-4.93c0-.24-.12-.39-.28-.33s-2.36,2.13-4.92,4.6c-4,3.84-5,5.15-4.06,5.15.1,0,2.22-2,4.72-4.49ZM419.15,98c0-.45-3.52-4-4-4a1.93,1.93,0,0,0-.95.66c-.59.65-.58.67,1.54,2.73s2.15,2.06,2.76,1.51a1.91,1.91,0,0,0,.62-.91Zm3.57-3.28a10.23,10.23,0,0,0,1.8-2.16,18.82,18.82,0,0,0-4-3.92,13.05,13.05,0,0,0-2.26,2l-2,2,1.93,2a10,10,0,0,0,2.31,2,9.19,9.19,0,0,0,2.19-1.82Zm-5.38-5.38a10.21,10.21,0,0,0,1.81-2.14,1.87,1.87,0,0,0-.68-.89c-.66-.58-.69-.56-2.74,1.49s-2.07,2.09-1.49,2.72a1.88,1.88,0,0,0,.94.65A9.42,9.42,0,0,0,417.34,89.38ZM429,88.44l2.76-2.78-2.17-2.16c-1.34-1.32-2.26-2-2.39-1.8s0,.57.28.84c.65.66.63,1.72,0,1.72a1.39,1.39,0,0,1-.93-.56c-.32-.43-.53-.47-1-.21-1,.61-1.29,1.39-.67,1.85a1.37,1.37,0,0,1,.55.93c0,.67-1.06.67-1.74,0-.48-.48-.58-.47-1.31.27l-.8.8,1.94,1.94a10.2,10.2,0,0,0,2.32,1.94A17.88,17.88,0,0,0,429,88.43Zm2,1.45c.8-.75.94-1.21.36-1.21a2.2,2.2,0,0,0-1.52,1.47c0,.6.32.53,1.16-.26Zm2.19-10-3-3L429,78l-1.19,1.19,3.05,3,3.06,3,1.17-1.17,1.16-1.17Zm5.25-.9A6.88,6.88,0,0,0,440,77.12a8.16,8.16,0,0,0-2.92-1.34l-2.93-1-.87.83-.88.84,2,2a11.69,11.69,0,0,0,2.28,2A7.61,7.61,0,0,0,438.5,79Z"/><path class="cls-4" d="M611.94,42.52h-7.09a4.25,4.25,0,0,0-4.25,4.25v3.54H541.07V46.77a4.25,4.25,0,0,0-4.25-4.25h-7.09l-9.92,9.92v82.21l9.92,9.92h7.09a4.25,4.25,0,0,0,4.25-4.26v-3.54H600.6v3.54a4.25,4.25,0,0,0,4.25,4.26h7.09l9.92-9.92V52.44Z"/><path class="cls-8" d="M608.78,132.9l1.52-1.31,7.3,7.31,4.26-4.25V94.54h-8.5v-2h8.5V52.44l-4.25-4.25-7.31,7.3-1.52-1.3,7.41-7.42-4.25-4.25h-7.09a4.25,4.25,0,0,0-4.25,4.25v3.55H571.84v8h-2v-8H541.07V46.77a4.25,4.25,0,0,0-4.25-4.25h-7.09l-4.25,4.25,7.41,7.42-1.52,1.3-7.3-7.3-4.26,4.25v40.1h8.51v2h-8.51v40.11l4.26,4.25,7.3-7.31,1.52,1.31-7.41,7.41,4.25,4.26h7.09a4.25,4.25,0,0,0,4.25-4.25v-3.55h28.77v-8h2v8H600.6v3.55a4.25,4.25,0,0,0,4.25,4.25h7.09l4.25-4.26Z"/><path id="path25239" class="cls-4" d="M570.37,73.21A13.12,13.12,0,0,0,561,77.06a16.09,16.09,0,0,0-4,6c-.55,2.31-2.67,4.59-4.26,4.59a2.32,2.32,0,0,0-2,2c-.29,1.56,0,2.46,1.14,3a28.32,28.32,0,0,0,8,1.84,7.65,7.65,0,0,1,2.74.55c.14.19.82,1.83,1.51,3.66,1.64,4.32,1.9,4.8,2.7,4.92.64.09.67.23.67,3v2.91l-.87-1-.87-1-3.81-.1c-3.43-.09-3.9,0-4.82.54a3.35,3.35,0,0,0,.53,5.75c1,.42,9.05.36,9.48-.06a2.24,2.24,0,0,0,.37-1.28v-.92l.49.79a3.93,3.93,0,0,0,2.85,1.77,4.08,4.08,0,0,0,3-1.89c.29-.74.52-.41.69,1l.09.76,4.37.09c4.86.1,5.79-.14,6.74-1.74a2.82,2.82,0,0,0-.1-3.26c-.83-1.36-1.61-1.58-5.63-1.58h-3.48l-1,1c-.55.56-1.08.94-1.17.85a13.77,13.77,0,0,1-.16-2.82c0-2.45,0-2.67.59-2.67.74,0,1.14-.6,3.45-5.22l1.84-3.67,1.81-.24a35,35,0,0,0,7.71-1.75c1.6-.79,1.88-1.26,1.64-2.71s-1.06-2.39-2-2.39a5.07,5.07,0,0,1-1.8-.66l-1.17-.65L586,79.82c-.08-6.28-.1-6.51-.68-6.51s-.61.23-.68,3.92a37.87,37.87,0,0,1-.25,4.36c-.1.29-.39,0-.82-.88A16.71,16.71,0,0,0,577,74.54a10.18,10.18,0,0,0-5-1.29c-.58,0-1.14,0-1.68,0Zm.34,1.62c3.33,0,3.55,0,5.52,1a13.94,13.94,0,0,1,6.38,6.49,14.13,14.13,0,0,1,1.07,2.63c0,.87,1.68,2.77,3.06,3.47a6.92,6.92,0,0,0,1.9.73c.26,0,.47.16.47.35,0,.35-.55.31-4.68-.34-3.58-.56-3.37-.44-3.58-2.08a13.21,13.21,0,0,0-1.11-3.3,10,10,0,0,0-11.41-5.22A9.86,9.86,0,0,0,561,86.21a9.16,9.16,0,0,1-.58,2.16,9.27,9.27,0,0,1-2.59.67c-3.85.66-5.51.81-5.51.51,0-.15.6-.44,1.34-.64a6.07,6.07,0,0,0,3.92-3.45c1.73-4.15,2.64-5.65,4.35-7.24a18.05,18.05,0,0,1,3.54-2.51c1.64-.8,2-.87,5.25-.88Zm-.45,5a8.54,8.54,0,0,1,9.19,8.48,9.6,9.6,0,0,1-5.88,8.17,8.52,8.52,0,0,1-10.11-3.7,9.1,9.1,0,0,1-.74-7.46,10,10,0,0,1,4.74-4.91,8,8,0,0,1,2.8-.58Zm.57,1.83h-.27a6.58,6.58,0,0,0-5.77,3.82,4.82,4.82,0,0,0-.64,3.35A6.59,6.59,0,0,0,569,94.74c1.67.53,1.84.52,3.75-.08a6.47,6.47,0,0,0,4.42-4.53,4.54,4.54,0,0,0,.18-3.11,6.9,6.9,0,0,0-6.52-5.38Zm-.05,1.49a5.19,5.19,0,0,1,4.2,2.16c.58.82.7,1.37.7,3.16,0,2.07,0,2.22-1,3.27A6.84,6.84,0,0,1,573,93.06a5.22,5.22,0,0,1-7.33-4.35c-.16-2,.55-3.35,2.44-4.72a4.63,4.63,0,0,1,2.7-.86ZM570.41,85c-1.52.06-3.69,2.5-2.71,3.69.48.57,1,.41,1.15-.34s1.25-1.94,1.89-1.94,1-.58.5-1.1A1.06,1.06,0,0,0,570.41,85Zm11.06,5.09.19,0c.36.09,2,.39,3.6.67a12.23,12.23,0,0,1,2.94.72,7.11,7.11,0,0,1-2.2.72c-1.21.28-3,.6-4.07.71-2.12.22-2.21.1-1.4-1.85.33-.8.53-1,.94-1Zm-21.08.15c.43,0,.54.24.68.85a12.8,12.8,0,0,0,.43,1.43c.19.45.06.52-.94.48-2-.07-7-1.07-7.19-1.46-.15-.23,4.42-1.14,6.46-1.29a5.57,5.57,0,0,1,.56,0Zm16.85,6.23A18.12,18.12,0,0,1,576,99.35c-1.49,2.93-2,3.28-3.26,2.3a4.48,4.48,0,0,0-3.79,0h0c-1.34.77-1.77.57-2.54-1.17a18.46,18.46,0,0,1-.92-2.56l-.21-.94,1.46.65a9,9,0,0,0,4,.68,7.18,7.18,0,0,0,4.5-1,9.91,9.91,0,0,1,2-.88Zm-6.31,6.23c1.46,0,1.59.38,1.59,4.72,0,3.78,0,4-.67,4.46a1.48,1.48,0,0,1-2.3-.23c-.6-.64-.65-1-.65-4.51,0-4.21.11-4.44,2-4.44Zm-9.57,6c1.7,0,3.4.17,3.75.52a3.08,3.08,0,0,1,.72,2.44h0c-.1.49-.5.56-3.89.63s-3.85,0-4.3-.47a2,2,0,0,1,0-2.6c.34-.35,2-.52,3.75-.52Zm18.93,0c3.12,0,3.39,0,3.82.67a1.49,1.49,0,0,1-.22,2.3c-.64.59-1,.65-4.38.65h-3.67v-1.31C575.84,109,576.31,108.75,580.29,108.75Z"/><path class="cls-4" d="M761.83,42.52h-7.09a4.25,4.25,0,0,0-4.25,4.25v3.54H691V46.77a4.25,4.25,0,0,0-4.25-4.25h-7.09l-9.92,9.92v82.21l9.92,9.92h7.09a4.25,4.25,0,0,0,4.25-4.26v-3.54h59.53v3.54a4.25,4.25,0,0,0,4.25,4.26h7.09l9.92-9.92V52.44Z"/><path class="cls-8" d="M758.67,132.9l1.52-1.31,7.3,7.31,4.26-4.25V94.54h-8.5v-2h8.5V52.44l-4.25-4.25-7.31,7.3-1.52-1.3,7.41-7.42-4.25-4.25h-7.09a4.25,4.25,0,0,0-4.25,4.25v3.55H721.73v8h-2v-8H691V46.77a4.25,4.25,0,0,0-4.25-4.25h-7.09l-4.25,4.25,7.41,7.42-1.52,1.3-7.3-7.3-4.26,4.25v40.1h8.51v2H669.7v40.11L674,138.9l7.3-7.31,1.52,1.31-7.41,7.41,4.25,4.26h7.09a4.25,4.25,0,0,0,4.25-4.25v-3.55h28.77v-8h2v8h28.76v3.55a4.25,4.25,0,0,0,4.25,4.25h7.09l4.25-4.26Z"/><path id="path200948-4" class="cls-4" d="M715.7,73.21c-2,.61-3.62,2.21-5.45,3.23-2.34,1.5-4.74,2.94-7,4.56-2.35.57-1.07,3.31-1.27,5,.24,6.68.57,13.35.82,20-.48,2.29,2.47,1.61,3.82,2.29q10.61,2.8,21.23,5.54c1.46-.89,2.28-2.74,3.45-4,2.16-2.84,4.39-5.63,6.49-8.5a52.27,52.27,0,0,0,.53-5.33c.37-6,1-12,1.26-18.07-1.39-.52-3.22-.67-4.77-1.07-1.82-.51-3.65-.43-5.3-1-4.62-.87-9.21-1.82-13.84-2.65Zm.45.66c1,.27,3.86.45,3.72.94a43.2,43.2,0,0,0-6.12.65,6.23,6.23,0,0,1,2.4-1.59Zm4.23,1.39c.77-.08,3.79.1,1.36.29-3,.2-5.91.67-8.86.73A22.09,22.09,0,0,1,720.38,75.26Zm6.17.33c2,.67,3.16,2.89,4.89,4.1.72.8,3.79,2.86,1.18,2.7-5.61.69-11.21,1.48-16.84,2.06-1.63-1-2.59-3-3.94-4.42-.58-1-3.42-3.15-.71-2.9,5.14-.54,10.28-1.08,15.42-1.54Zm-.75.78c-2.66.28-5.33.49-8,.7a23.55,23.55,0,0,0-5.29.85c1.6,1.75,2.93,3.79,4.72,5.35,1.94-.09,3.81-.59,5.76-.66,2.69-.3,5.39-.56,8.06-1-1.22-1.56-2.94-2.9-4.35-4.37Zm4.2.33c2,.45,4.27,1.78,4.76,3.92-.65,1-2-1.6-2.89-2-.54-.55-1.83-1.34-1.87-2Zm-5.83.16a2.29,2.29,0,0,1,2.39,1.34c-1.1-.75-3.62-.76-4.08-1A6.3,6.3,0,0,0,724.17,76.86Zm8.76.31c1.37.4,3.65.37,4.47,1.1-.91,1.18-2,2.49-2.76.53C734.2,78.16,733.32,77.69,732.93,77.17Zm-11.79.41c2.06,0,4.36.24,6,1.6,1.25,2-2.22,2.44-3.53,2.8a13.07,13.07,0,0,1-4.89-.47c-1.45-.05-4.37-1.84-2.05-3.06A9.72,9.72,0,0,1,721.14,77.58Zm-5.65.15c1.63-.16-.6,1.58-.55,1.88-.56-.64-2.21-1.85-.33-1.75a3,3,0,0,1,.88-.13ZM709,78.5c1.41,1.51,2.62,3.21,3.89,4.84a6.09,6.09,0,0,1-4.5-3.16A1.52,1.52,0,0,1,709,78.5Zm-1.41,1c-.18,1.42,1.53,2.56,1.9,3.31-1.54-.5-4-.5-5-1.31a19.87,19.87,0,0,1,3.06-2Zm20.65.22c.78.77,2.52,2,.24,1.87-.76,0-2.9.45-1.2-.32A1.57,1.57,0,0,0,728.22,79.68Zm10.55.41c.1,1.08.14,3.28-.34,4,.15-1.2-2.28-1.92-1-2.8A7.58,7.58,0,0,1,738.77,80.09Zm-22.43,1.06c1,.91,3.83.73,4.13,1.28-1.75.41-3.32.63-4.13-1.28Zm20,1.44c1.82.36,2.25,3.75,1.78,4.61C737.68,85.84,735.54,83.7,736.32,82.59Zm-1.49.68c1.37,1.44,1.93,3.52,2.95,5.22,1.37,1.71.22,3.61-.28,5.4-1.3,4.14-2.55,8.32-3.91,12.43-1.25-.08-2.4-2.75-3.64-3.84-1.85-1.3,0-3.07.27-4.61.8-2.43,1.4-4.88,2.2-7.33s1.65-4.82,2.37-7.26Zm-4.07.25c.94.24-1.89.76-2.42.93a30.45,30.45,0,0,1-5.8.44c-.85.11-3,0-1-.29,3.06-.34,6.11-.79,9.18-1.08Zm-27.28.19a58.79,58.79,0,0,1,5.94,1.35c-1.47.85-3.22,1.52-4.33,2.93-.62.69-1.72,2.67-1.6.58a27.23,27.23,0,0,1,0-4.86Zm27.14.87a3.3,3.3,0,0,1-4.57,1.67c-1-.17-4-.76-1.4-.78A38.92,38.92,0,0,0,730.62,84.58Zm-15.36.94c2.45,2.72,4.6,5.71,7,8.48,1.83,2.34,3.78,4.6,5.57,7-.48,1.45-2.76,2.06-3.92,3.17-2.9,1.9-5.71,4-8.69,5.74-3.41-3.8-6.54-7.83-9.87-11.71-.64-1.24-3.6-2.84-1.26-3.86q5.25-4.16,10.44-8.4a2.82,2.82,0,0,1,.72-.4Zm-3.23.1c-.25,1.11-2.39,2.17-3.43,3.21-1.57,1.27-3.08,2.64-4.75,3.76-.23-1.56,1-3.39,2.16-4.58a8.5,8.5,0,0,1,6-2.39Zm22.72.71c-.67,1.88-1.24,3.81-1.87,5.7-.83,2.53-1.62,5.06-2.47,7.58,1.05,1.41,2.1,2.84,3.22,4.18a22.73,22.73,0,0,0,.89-2.64c.8-2.55,1.6-5.09,2.41-7.65a9.43,9.43,0,0,0,.56-2.24c-.82-1.64-1.76-3.22-2.62-4.83Zm-1.85.09a26.46,26.46,0,0,1-1.37,4.8c-.51,1.23-.89,3.6-1.6,4.12A34.92,34.92,0,0,1,732.9,86.42Zm-.93.3c-.22,1.41-1.11,3-1.47,4.49-.09.72-.94,3.05-.73,1,.07-1.19.11-2.38.15-3.56.68-.65,1.33-1.33,2-1.93ZM718.43,87a16.92,16.92,0,0,1,8,7.91c.22.91,1.21,2.47.78,3-2.9-3.24-5.49-6.74-8.26-10.1-.14-.26-.54-.54-.48-.86Zm16.25.26a5.58,5.58,0,0,1,1,1.73c-.3.21-1.15.21-1.36.87-.34.42-.59,1-.89,1.37a28,28,0,0,1,1.08-3.64c.07-.1.06-.25.16-.33Zm-13.53.29c2.2.38,4.39.84,6.54,1.4a44.59,44.59,0,0,1-.25,6.23,38.32,38.32,0,0,0-3.1-4.5c-.91-1.17-2.33-2.09-3.19-3.13Zm-5.93,1.23C712.07,91.1,709,93.55,706,96c3,3.72,6.08,7.42,9.2,11,3.18-2,6.24-4.28,9.36-6.4-.35-1.7-2.48-3.15-3.46-4.76-2-2.37-3.83-4.83-5.85-7.14Zm20,.82c.75,0,.86,1.09,1,1.68a16.61,16.61,0,0,1-1.7,8.18c-.38.66-.95,1.75-1.84,1.45-.89-.84-.63-2.26-.66-3.36a15.73,15.73,0,0,1,2.33-7.42,1.53,1.53,0,0,1,.92-.53Zm-20.14.19c.82.82,3.16,3.23,2.75,3.61a7.28,7.28,0,0,0-5.81-1.11A12.09,12.09,0,0,1,715.13,89.79Zm21.19.42a7.14,7.14,0,0,1,1,1.63c-.43,1.15-.63,2.37-1.16,3.46a36.89,36.89,0,0,0,.29-3.72c.05-.46-.13-1-.09-1.37ZM714,92.59c4.09.12,7.78,4.55,6.43,8.59-.92,2.59-4.3,3-6.49,1.85-3-1.36-5.23-5.15-3.74-8.37a4.1,4.1,0,0,1,3.8-2.07Zm-4,1.16a6.23,6.23,0,0,0-.42,5c.83,2.3-1.38-.94-1.9-1.47-2.09-1.53,1.38-2.54,2.32-3.55Zm22.06,1.51c.08.94-.29,2-.28,3a8.53,8.53,0,0,0,.18,2.12c-.35.17-1.11-1-1.12-1.52.46-1.2.74-2.47,1.22-3.64Zm5.3.42a17.62,17.62,0,0,1-1.14,4.63c-.16.9-1.55,3.65-.8,1.24C736.12,99.6,736.6,97.58,737.39,95.68Zm-16.82.75c.91,1.25,3.33,2.85,2.76,4.26-.93.54-2.33,1.85-3.07,1.87,1.41-1.76,1.1-4.19.31-6.13Zm17,1c.06,1.7.09,3.85-1.55,4.82C736.5,100.64,737,99,737.59,97.43Zm-33.5,1c2.77,3,5.27,6.25,7.9,9.37.59,1.33-2.18-.87-2.7-1.31A15.45,15.45,0,0,1,704,98.66l0-.13Zm30.79.66c.07.68-.44,1.44-.55,2.17-.25.53-.26,1.21-.64,1.66a9.1,9.1,0,0,1-1.11-1.45c1.2-.12,1.74-1.38,2.24-2.34Zm-30.73,2.15a25.87,25.87,0,0,0,5,5.89c1.68,1.21-1.68,0-2.33-.07-1.78-.11-3.22-.91-2.72-2.92.09-.89-.33-2.15.1-2.9Zm8.25,1.4a7.13,7.13,0,0,0,6.15,1.15c-1.07.71-3.18,3.51-4.23,1.37-.58-.82-1.65-1.69-1.92-2.52Zm17,1.12c.75,1.15,2.89,2.43,2.57,3.75C729.89,108.69,729.19,105.1,729.38,103.81Zm-2.41.1c.22,1.39-1.11,2.81-2.08,3.81a9,9,0,0,1-6.62,2.28c.89-1.35,2.75-2.08,4.07-3.11,1.54-1,3-2.07,4.63-3Zm0,2.61c-.12,1.83.33,4.13-.45,5.66a43.87,43.87,0,0,1-5.73-1.57,11.71,11.71,0,0,0,5.14-3.08C726.32,107.19,726.65,106.83,727,106.52Zm2.18.52c.42,1.29,3.12,1.36,1.19,2.72-.51.72-1.93,2.6-1.48.49A24.08,24.08,0,0,1,729.2,107Z"/><path class="cls-9" d="M162.27,178.51h-7.09a4.25,4.25,0,0,0-4.25,4.25v3.54H91.4v-3.54a4.25,4.25,0,0,0-4.25-4.25H80.06l-9.92,9.92v82.2l9.92,9.92h7.09a4.25,4.25,0,0,0,4.25-4.25v-3.54h59.53v3.54a4.25,4.25,0,0,0,4.25,4.25h7.09l9.92-9.92v-82.2Z"/><path class="cls-10" d="M159.11,268.89l1.52-1.31,7.3,7.31,4.26-4.26v-40.1h-8.5v-2h8.5v-40.1l-4.26-4.25-7.3,7.3-1.52-1.31,7.41-7.41-4.25-4.25h-7.09a4.25,4.25,0,0,0-4.25,4.25v3.54H122.17v8h-2v-8H91.4v-3.54a4.25,4.25,0,0,0-4.25-4.25H80.06l-4.25,4.25,7.41,7.41-1.52,1.31-7.3-7.3-4.26,4.25v40.1h8.51v2H70.14v40.1l4.26,4.26,7.3-7.31,1.52,1.31-7.41,7.41,4.25,4.25h7.09a4.25,4.25,0,0,0,4.25-4.25v-3.54h28.77v-8h2v8h28.76v3.54a4.25,4.25,0,0,0,4.25,4.25h7.09l4.25-4.25Z"/><path class="cls-9" d="M141.63,217.49a.41.41,0,0,0,0-.11h0a1.91,1.91,0,0,0-1-1.68h0a1.89,1.89,0,0,0-1.89-1.88h-.63a1.89,1.89,0,0,0-1.76-1.2h-.29a1.87,1.87,0,0,0-1.75-1.21h-.41a1.89,1.89,0,0,0-1.64-1h-1.66a1.87,1.87,0,0,0-1.75-1.21h-1.6a1.41,1.41,0,0,0-1.33-1h-9.49a1.41,1.41,0,0,0-1.33,1h-1.6a1.87,1.87,0,0,0-1.75,1.21h-1.66a1.88,1.88,0,0,0-1.64,1H108a1.87,1.87,0,0,0-1.75,1.21H106a1.88,1.88,0,0,0-1.76,1.2h-.63a1.89,1.89,0,0,0-1.89,1.88h0a1.91,1.91,0,0,0-1,1.68h0a.41.41,0,0,0,0,.11,1.89,1.89,0,0,0-1.38,1.81h0a1.91,1.91,0,0,0,1.34,1.81,18.11,18.11,0,0,0,5.42,1.4,37.75,37.75,0,0,0,8.39,1.4,7.66,7.66,0,0,0,3,1.29,4.58,4.58,0,0,0,2.31,1.21v18.42l-1.34.84v3.41l2.73,1.71,2.73-1.71v-3.41l-1.39-.87V226.41a4.58,4.58,0,0,0,2.31-1.21,7.66,7.66,0,0,0,3-1.29,37.75,37.75,0,0,0,8.39-1.4,18.11,18.11,0,0,0,5.42-1.4A1.9,1.9,0,0,0,143,219.3h0A1.89,1.89,0,0,0,141.63,217.49Zm-15.71-7.55h2a.34.34,0,1,1,0,.68h-2a.34.34,0,1,1,0-.68Zm-11.61,0h2a.34.34,0,0,1,0,.68h-2a.34.34,0,1,1,0-.68Zm-6.14,2.17h1.76a.93.93,0,0,1-.05-.29.91.91,0,0,1,.91-.92h2.27a.92.92,0,0,1,.91.92.93.93,0,0,1,0,.29h14.44a.94.94,0,0,1-.06-.29.92.92,0,0,1,.92-.92h2.27a.92.92,0,0,1,.91.92.93.93,0,0,1-.05.29h1.76a.34.34,0,1,1,0,.68H108.17a.34.34,0,1,1,0-.68Zm25.59,1.78a.34.34,0,0,1-.34.34H108.85a.34.34,0,0,1,0-.68h24.57A.34.34,0,0,1,133.76,213.89Zm5.81,5.16H102.71a.34.34,0,0,1,0-.68h.69s0-.05,0-.08v-.68a.69.69,0,0,1,.69-.69H138.2a.68.68,0,0,1,.68.69v.76h.69a.34.34,0,1,1,0,.68Z"/><path class="cls-9" d="M312.16,178.51h-7.09a4.25,4.25,0,0,0-4.25,4.25v3.54H241.29v-3.54a4.25,4.25,0,0,0-4.25-4.25H230L220,188.43v82.2l9.92,9.92H237a4.25,4.25,0,0,0,4.25-4.25v-3.54h59.53v3.54a4.25,4.25,0,0,0,4.25,4.25h7.09l9.92-9.92v-82.2Z"/><path class="cls-10" d="M309,268.89l1.52-1.31,7.3,7.31,4.26-4.26v-40.1h-8.5v-2h8.5v-40.1l-4.25-4.25-7.31,7.3L309,190.17l7.41-7.41-4.25-4.25h-7.09a4.25,4.25,0,0,0-4.25,4.25v3.54H272.06v8h-2v-8H241.29v-3.54a4.25,4.25,0,0,0-4.25-4.25H230l-4.25,4.25,7.41,7.41-1.52,1.31-7.3-7.3L220,188.43v40.1h8.51v2H220v40.1l4.26,4.26,7.3-7.31,1.52,1.31-7.41,7.41,4.25,4.25H237a4.25,4.25,0,0,0,4.25-4.25v-3.54h28.77v-8h2v8h28.76v3.54a4.25,4.25,0,0,0,4.25,4.25h7.09l4.25-4.25Z"/><path id="path25903-2" data-name="path25903" class="cls-9" d="M270.9,249.55c-1.48-.61-2.12-1.92-3.34-6.89-.57-2.3-.79-2.54-2.53-2.9-.73-.15-1.67-.82-3.08-2.21l-2-2-1.14,1.12a5.25,5.25,0,0,1-1.44,1.12,19.63,19.63,0,0,1-4-4.09c0-.52,2.15-2.4,4.37-3.83,2.82-1.82,9.65-8.68,9.36-9.42s1.49-2.53,2.52-2.53c.55,0,1.27-.5,2.42-1.66s1.87-1.66,2.38-1.66c.82,0,2.43,1.37,2.43,2.07a24.49,24.49,0,0,1-3.46,3.94c-3.11,3.16-3.93,4.23-3.22,4.23.55,0,11.76-11.7,12.55-13.1,1-1.72,1.63-2.55,2-2.55s4.14,3.66,4.14,4.09a6.66,6.66,0,0,1-2.19,1.68c-2.24,1.32-9.55,8.14-9.55,8.9a14.1,14.1,0,0,0,2.4,2.79,14.51,14.51,0,0,1,2.41,2.76,36.63,36.63,0,0,1-4,4.38c-3.69,3.69-4.09,4-5.12,4-1.31,0-1.36.22-.37,1.8,1.88,3,3.17,5.89,3.17,7.18,0,2.37-2.31,3.74-4.67,2.77Zm2.8-1.58c.77-.76.38-2.29-1.43-5.54-1-1.77-1.94-3.37-2.1-3.54-.44-.43-1.9,1-1.66,1.6.1.26.39,1.28.64,2.27,1,4.15,1.32,4.89,2,5.21a2.6,2.6,0,0,0,2.56,0Zm-5.26-10.11a3.41,3.41,0,0,0,.81-1.14,13.86,13.86,0,0,0-2.11-2.39L265,232.24l-1.57,1.57-1.57,1.57,1.34,1.37c2,2.06,3.91,2.46,5.21,1.11Zm4.85-1.75c.72-.28.57-.63-.43-1-.78-.27-.9-.24-.9.22C272,236.23,272.36,236.46,273.29,236.11ZM259.61,233a14.4,14.4,0,0,1,1.78-2.53c.69-.63.84-1.38.28-1.38a2.5,2.5,0,0,0-1.08.67,21.37,21.37,0,0,1-2.7,1.88c-2.72,1.66-2.88,2-1.6,3.3,1,1,1,1,1.6.54a14.92,14.92,0,0,0,1.72-2.48Zm12.3-.27,1-1-1.83-1.83L269.25,228l-1.58,1.57-1.57,1.58,1.95,2,1.95,2,.45-.69a15,15,0,0,1,1.46-1.71Zm3.22,1.44c.28-.89-.55-1.72-1.19-1.19-.41.34-.4.46.06,1.09.64.89.87.91,1.13.1Zm-12.44-1.68c1.22-1.2,1.4-1.6.7-1.6-.38,0-1.45,1.19-2.09,2.34-.41.72.25.36,1.39-.74Zm16-1.6,1.41-1.5L278,227.26a18.07,18.07,0,0,0-2.34-2.11,17,17,0,0,0-3.38,3.44,8,8,0,0,0,2.54,2.59,2.9,2.9,0,0,1,1.07.6,3,3,0,0,0,1.09.59,6.33,6.33,0,0,0,1.74-1.5ZM267.14,228l1.93-2-1-1.05a4.18,4.18,0,0,0-1.34-1.06,18.79,18.79,0,0,0-3.78,3.67A8.52,8.52,0,0,0,265,230a16.74,16.74,0,0,0,2.14-1.95Zm7.61-4.3a44,44,0,0,0,3.53-3.77c0-.73-1.19.19-4.31,3.35-1.93,2-3.52,3.65-3.52,3.76C270.45,227.76,271.64,226.83,274.75,223.72Zm-2.8-3.83c2.52-2.53,3.07-3.23,2.77-3.53s-1,.26-3.53,2.84a28.57,28.57,0,0,0-3.15,3.53C268,223.53,269.05,222.8,272,219.89Zm9.1-2.48c1.47-1.45,1.73-1.89,1.08-1.89a8.42,8.42,0,0,0-2.95,2.92c0,.65.37.45,1.87-1Zm4.56-3.58,1.16-.78-.84-.87a3.64,3.64,0,0,0-1.07-.88,3.84,3.84,0,0,0-1,1.25c-1.24,2.08-.38,2.71,1.72,1.28Z"/><path class="cls-9" d="M462.05,178.51H455a4.25,4.25,0,0,0-4.25,4.25v3.54H391.18v-3.54a4.25,4.25,0,0,0-4.25-4.25h-7.09l-9.92,9.92v82.2l9.92,9.92h7.09a4.25,4.25,0,0,0,4.25-4.25v-3.54h59.53v3.54a4.25,4.25,0,0,0,4.25,4.25h7.09l9.92-9.92v-82.2Z"/><path class="cls-10" d="M458.89,268.89l1.52-1.31,7.3,7.31,4.26-4.26v-40.1h-8.5v-2H472v-40.1l-4.25-4.25-7.31,7.3-1.52-1.31,7.41-7.41-4.25-4.25H455a4.25,4.25,0,0,0-4.25,4.25v3.54H422v8h-2v-8H391.18v-3.54a4.25,4.25,0,0,0-4.25-4.25h-7.09l-4.25,4.25,7.41,7.41-1.52,1.31-7.3-7.3-4.26,4.25v40.1h8.51v2h-8.51v40.1l4.26,4.26,7.3-7.31,1.52,1.31-7.41,7.41,4.25,4.25h7.09a4.25,4.25,0,0,0,4.25-4.25v-3.54H420v-8h2v8h28.76v3.54a4.25,4.25,0,0,0,4.25,4.25h7.09l4.25-4.25Z"/><path id="path6627-6-1-2" data-name="path6627-6-1" class="cls-9" d="M402.24,249.67a8.14,8.14,0,0,1-1.74-1.44c-1-1-1.11-1.32-1.11-3a3.61,3.61,0,0,1,.55-2.44,1.43,1.43,0,0,0,.34-1.34c-.16-.63.6-1.51,5.42-6.24,4.47-4.38,5.74-5.46,6.24-5.31a1.74,1.74,0,0,0,1.84-1.27,3.36,3.36,0,0,0-.95-1.28,3,3,0,0,1-.95-1.4,13.81,13.81,0,0,1,2.61-3.11c2.78-2.76,4-3.27,4.65-2a2,2,0,0,0,1,.83c.54.17,1.18-.3,3.48-2.59s2.79-2.92,2.64-3.54c-.27-1.07,3.27-4.64,4.31-4.37.52.13,1-.11,1.91-.91a4.58,4.58,0,0,1,1.6-1.07c.22,0,2.18.62,4.35,1.36,2.91,1,4,1.5,4.06,1.92s-.71,1.4-2.28,3c-1.84,1.85-2.36,2.56-2.23,3.06.26,1-3.49,4.68-4.49,4.43s-1.22.31-.45,1.14a2.38,2.38,0,0,1,.65,1,12.07,12.07,0,0,1-3.35,3.33,2.57,2.57,0,0,1-1-.67l-.72-.68-4.72,4.71c-3.85,3.83-4.69,4.83-4.55,5.39.24,1-10.67,11.93-11.65,11.67a1.5,1.5,0,0,0-1.21.34,6,6,0,0,1-4.2.45Zm3.18-1.74c.58-.43.51-.56-1.55-2.61s-2.18-2.13-2.6-1.55c-.78,1.07-.55,2.35.62,3.53s2.46,1.4,3.53.63Zm7.24-5.4a52,52,0,0,0,4.59-4.9c0-.87-1.18.06-5.34,4.23-2.63,2.64-4.44,4.7-4.32,4.9s.28.35.35.35S410.14,245.05,412.66,242.53Zm-1.61-2c3.14-3.14,4.56-4.78,4.31-4.94s-2,1.37-4.94,4.3c-4.05,4-5.09,5.34-4.31,5.34a67.54,67.54,0,0,0,4.94-4.7Zm-1.7-1.77c3.31-3.32,4.47-4.67,4.22-4.92s-1.62.92-5,4.26A54.86,54.86,0,0,0,404,243C404,243.87,405.16,242.93,409.35,238.74Zm-2-1.49a39.33,39.33,0,0,0,4.54-4.93c0-.24-.12-.39-.28-.33s-2.36,2.13-4.92,4.6c-4,3.83-5,5.15-4.06,5.15.1,0,2.22-2,4.72-4.49ZM419.15,234c0-.45-3.52-4-4-4a1.93,1.93,0,0,0-.95.66c-.59.65-.58.67,1.54,2.73s2.15,2,2.76,1.5a1.85,1.85,0,0,0,.62-.9Zm3.57-3.29a10,10,0,0,0,1.8-2.15,18.82,18.82,0,0,0-4-3.92,12.57,12.57,0,0,0-2.26,2l-2,2,1.93,2a10,10,0,0,0,2.31,2,9.08,9.08,0,0,0,2.19-1.83Zm-5.38-5.37a10.21,10.21,0,0,0,1.81-2.14,1.88,1.88,0,0,0-.68-.9c-.66-.57-.69-.55-2.74,1.5s-2.07,2.08-1.49,2.72a1.88,1.88,0,0,0,.94.65A9.72,9.72,0,0,0,417.34,225.37Zm11.69-1,2.76-2.77-2.17-2.16c-1.34-1.32-2.26-2-2.39-1.81s0,.58.28.85c.65.65.63,1.71,0,1.71a1.42,1.42,0,0,1-.93-.55c-.32-.43-.53-.48-1-.22-1,.62-1.29,1.4-.67,1.85a1.42,1.42,0,0,1,.55.93c0,.68-1.06.68-1.74,0-.48-.49-.58-.47-1.31.27l-.8.79,1.94,1.94a9.91,9.91,0,0,0,2.32,1.94,17.6,17.6,0,0,0,3.16-2.77Zm2,1.46c.8-.75.94-1.21.36-1.21a2.18,2.18,0,0,0-1.52,1.47c0,.6.32.53,1.16-.26Zm2.19-10-3-3L429,214l-1.19,1.19,3.05,3,3.06,3,1.17-1.17,1.16-1.17Zm5.25-.9A6.7,6.7,0,0,0,440,213.1a8.24,8.24,0,0,0-2.92-1.33l-2.93-1-.87.84-.88.84,2,2a12.1,12.1,0,0,0,2.28,2A7.61,7.61,0,0,0,438.5,215Z"/><path class="cls-9" d="M611.94,178.51h-7.09a4.25,4.25,0,0,0-4.25,4.25v3.54H541.07v-3.54a4.25,4.25,0,0,0-4.25-4.25h-7.09l-9.92,9.92v82.2l9.92,9.92h7.09a4.25,4.25,0,0,0,4.25-4.25v-3.54H600.6v3.54a4.25,4.25,0,0,0,4.25,4.25h7.09l9.92-9.92v-82.2Z"/><path class="cls-10" d="M608.78,268.89l1.52-1.31,7.3,7.31,4.26-4.26v-40.1h-8.5v-2h8.5v-40.1l-4.25-4.25-7.31,7.3-1.52-1.31,7.41-7.41-4.25-4.25h-7.09a4.25,4.25,0,0,0-4.25,4.25v3.54H571.84v8h-2v-8H541.07v-3.54a4.25,4.25,0,0,0-4.25-4.25h-7.09l-4.25,4.25,7.41,7.41-1.52,1.31-7.3-7.3-4.26,4.25v40.1h8.51v2h-8.51v40.1l4.26,4.26,7.3-7.31,1.52,1.31-7.41,7.41,4.25,4.25h7.09a4.25,4.25,0,0,0,4.25-4.25v-3.54h28.77v-8h2v8H600.6v3.54a4.25,4.25,0,0,0,4.25,4.25h7.09l4.25-4.25Z"/><path id="path25239-2" data-name="path25239" class="cls-9" d="M570.37,209.2A13.15,13.15,0,0,0,561,213a16.2,16.2,0,0,0-4,6c-.55,2.3-2.67,4.58-4.26,4.58a2.32,2.32,0,0,0-2,2c-.29,1.56,0,2.45,1.14,3a28.32,28.32,0,0,0,8,1.84,7.65,7.65,0,0,1,2.74.55,39.14,39.14,0,0,1,1.51,3.65c1.64,4.33,1.9,4.81,2.7,4.93.64.09.67.23.67,3v2.91l-.87-1-.87-1.05-3.81-.1c-3.43-.09-3.9,0-4.82.53a3.36,3.36,0,0,0,.53,5.76c1,.42,9.05.36,9.48-.06a2.25,2.25,0,0,0,.37-1.29v-.92l.49.8a3.93,3.93,0,0,0,2.85,1.77,4.08,4.08,0,0,0,3-1.89c.29-.75.52-.42.69,1l.09.76,4.37.09c4.86.1,5.79-.14,6.74-1.74a2.82,2.82,0,0,0-.1-3.26c-.83-1.36-1.61-1.58-5.63-1.58h-3.48l-1,1c-.55.56-1.08.94-1.17.85a13.84,13.84,0,0,1-.16-2.82c0-2.46,0-2.67.59-2.67.74,0,1.14-.61,3.45-5.22l1.84-3.68,1.81-.23a34.35,34.35,0,0,0,7.71-1.76c1.6-.78,1.88-1.25,1.64-2.7s-1.06-2.39-2-2.39a5.07,5.07,0,0,1-1.8-.66l-1.17-.66-.08-6.5c-.08-6.28-.1-6.51-.68-6.51s-.61.22-.68,3.92a38.07,38.07,0,0,1-.25,4.36c-.1.29-.39,0-.82-.88a16.71,16.71,0,0,0-6.59-6.17,10.18,10.18,0,0,0-5-1.29c-.58,0-1.14-.05-1.68,0Zm.34,1.62c3.33,0,3.55,0,5.52,1a13.92,13.92,0,0,1,6.38,6.48,14.4,14.4,0,0,1,1.07,2.64c0,.86,1.68,2.77,3.06,3.47a7.28,7.28,0,0,0,1.9.73c.26,0,.47.16.47.34,0,.36-.55.32-4.68-.33-3.58-.56-3.37-.44-3.58-2.08a13.21,13.21,0,0,0-1.11-3.3,10,10,0,0,0-11.41-5.22A9.84,9.84,0,0,0,561,222.2a9.16,9.16,0,0,1-.58,2.16,9.67,9.67,0,0,1-2.59.67c-3.85.66-5.51.81-5.51.51s.6-.44,1.34-.64a6.09,6.09,0,0,0,3.92-3.45c1.73-4.15,2.64-5.66,4.35-7.24a18.05,18.05,0,0,1,3.54-2.51c1.64-.81,2-.87,5.25-.88Zm-.45,5a9.12,9.12,0,0,1,4.74,1,9.23,9.23,0,0,1,4.45,7.45,9.63,9.63,0,0,1-5.88,8.18,8.52,8.52,0,0,1-10.11-3.7,9.1,9.1,0,0,1-.74-7.46,10,10,0,0,1,4.74-4.91,8,8,0,0,1,2.8-.58Zm.57,1.82h-.27a6.58,6.58,0,0,0-5.77,3.82,4.82,4.82,0,0,0-.64,3.35,6.59,6.59,0,0,0,4.85,5.93c1.67.52,1.84.52,3.75-.08a6.47,6.47,0,0,0,4.42-4.53,4.54,4.54,0,0,0,.18-3.11,6.91,6.91,0,0,0-6.52-5.39Zm-.05,1.5a5.19,5.19,0,0,1,4.2,2.16c.58.81.7,1.37.7,3.16,0,2.07,0,2.22-1,3.27A6.74,6.74,0,0,1,573,229a5.22,5.22,0,0,1-7.33-4.34c-.16-2,.55-3.36,2.44-4.72a4.56,4.56,0,0,1,2.7-.86Zm-.37,1.89c-1.52.06-3.69,2.5-2.71,3.68.48.58,1,.42,1.15-.34s1.25-1.93,1.89-1.93,1-.58.5-1.1A1.06,1.06,0,0,0,570.41,221Zm11.06,5.09.19,0c.36.09,2,.39,3.6.67a11.71,11.71,0,0,1,2.94.72,7.11,7.11,0,0,1-2.2.72,38.68,38.68,0,0,1-4.07.7c-2.12.23-2.21.1-1.4-1.84.33-.8.53-1,.94-1Zm-21.08.15c.43,0,.54.24.68.84a12.41,12.41,0,0,0,.43,1.44c.19.45.06.52-.94.48-2-.07-7-1.07-7.19-1.46-.15-.23,4.42-1.14,6.46-1.29a5.57,5.57,0,0,1,.56,0Zm16.85,6.22a17.56,17.56,0,0,1-1.29,2.87c-1.49,2.93-2,3.27-3.26,2.3a4.48,4.48,0,0,0-3.79,0h0c-1.34.77-1.77.57-2.54-1.17a18.07,18.07,0,0,1-.92-2.57l-.21-.93,1.46.65a9.12,9.12,0,0,0,4,.68,7.18,7.18,0,0,0,4.5-1,9.91,9.91,0,0,1,2-.88Zm-6.31,6.24c1.46,0,1.59.38,1.59,4.71,0,3.79,0,4-.67,4.47a1.48,1.48,0,0,1-2.3-.23c-.6-.64-.65-1-.65-4.51,0-4.21.11-4.44,2-4.44Zm-9.57,6c1.7,0,3.4.17,3.75.51a3.1,3.1,0,0,1,.72,2.45h0c-.1.49-.5.56-3.89.63s-3.85,0-4.3-.47a2,2,0,0,1,0-2.61c.34-.34,2-.51,3.75-.51Zm18.93,0c3.12,0,3.39,0,3.82.67a1.48,1.48,0,0,1-.22,2.29c-.64.6-1,.66-4.38.66h-3.67v-1.31C575.84,245,576.31,244.74,580.29,244.74Z"/><path class="cls-9" d="M761.83,178.51h-7.09a4.25,4.25,0,0,0-4.25,4.25v3.54H691v-3.54a4.25,4.25,0,0,0-4.25-4.25h-7.09l-9.92,9.92v82.2l9.92,9.92h7.09A4.25,4.25,0,0,0,691,276.3v-3.54h59.53v3.54a4.25,4.25,0,0,0,4.25,4.25h7.09l9.92-9.92v-82.2Z"/><path class="cls-10" d="M758.67,268.89l1.52-1.31,7.3,7.31,4.26-4.26v-40.1h-8.5v-2h8.5v-40.1l-4.25-4.25-7.31,7.3-1.52-1.31,7.41-7.41-4.25-4.25h-7.09a4.25,4.25,0,0,0-4.25,4.25v3.54H721.73v8h-2v-8H691v-3.54a4.25,4.25,0,0,0-4.25-4.25h-7.09l-4.25,4.25,7.41,7.41-1.52,1.31-7.3-7.3-4.26,4.25v40.1h8.51v2H669.7v40.1l4.26,4.26,7.3-7.31,1.52,1.31-7.41,7.41,4.25,4.25h7.09A4.25,4.25,0,0,0,691,276.3v-3.54h28.77v-8h2v8h28.76v3.54a4.25,4.25,0,0,0,4.25,4.25h7.09l4.25-4.25Z"/><path id="path200948-4-2" data-name="path200948-4" class="cls-9" d="M715.7,209.2c-2,.61-3.62,2.21-5.45,3.23-2.34,1.49-4.74,2.94-7,4.56-2.35.57-1.07,3.3-1.27,5,.24,6.68.57,13.35.82,20-.48,2.29,2.47,1.61,3.82,2.29,7.07,1.87,14.15,3.7,21.23,5.54,1.46-.89,2.28-2.75,3.45-4,2.16-2.84,4.39-5.62,6.49-8.49a52.47,52.47,0,0,0,.53-5.34c.37-6,1-12,1.26-18.06-1.39-.52-3.22-.67-4.77-1.07-1.82-.51-3.65-.43-5.3-1-4.62-.87-9.21-1.82-13.84-2.65Zm.45.66c1,.27,3.86.45,3.72.94a40.46,40.46,0,0,0-6.12.65,6.23,6.23,0,0,1,2.4-1.59Zm4.23,1.38c.77-.08,3.79.11,1.36.3-3,.2-5.91.66-8.86.72A22.59,22.59,0,0,1,720.38,211.24Zm6.17.34c2,.66,3.16,2.89,4.89,4.1.72.8,3.79,2.85,1.18,2.69-5.61.69-11.21,1.49-16.84,2.07-1.63-1-2.59-3-3.94-4.42-.58-1-3.42-3.15-.71-2.9,5.14-.55,10.28-1.08,15.42-1.54Zm-.75.78c-2.66.27-5.33.49-8,.7a23.55,23.55,0,0,0-5.29.85c1.6,1.75,2.93,3.79,4.72,5.34,1.94-.08,3.81-.58,5.76-.65,2.69-.3,5.39-.57,8.06-1-1.22-1.56-2.94-2.9-4.35-4.37Zm4.2.33c2,.45,4.27,1.78,4.76,3.92-.65,1-2-1.6-2.89-2-.54-.55-1.83-1.34-1.87-1.95Zm-5.83.16a2.27,2.27,0,0,1,2.39,1.33c-1.1-.74-3.62-.75-4.08-1A6.3,6.3,0,0,0,724.17,212.85Zm8.76.3c1.37.4,3.65.38,4.47,1.1-.91,1.19-2,2.5-2.76.54C734.2,214.15,733.32,213.68,732.93,213.15Zm-11.79.42c2.06,0,4.36.24,6,1.6,1.25,2-2.22,2.44-3.53,2.8a13.07,13.07,0,0,1-4.89-.47c-1.45-.05-4.37-1.85-2.05-3.06A9.6,9.6,0,0,1,721.14,213.57Zm-5.65.15c1.63-.17-.6,1.58-.55,1.87-.56-.63-2.21-1.84-.33-1.74a2.44,2.44,0,0,1,.88-.13Zm-6.51.77c1.41,1.51,2.62,3.21,3.89,4.84a6.12,6.12,0,0,1-4.5-3.16,1.52,1.52,0,0,1,.61-1.68Zm-1.41,1c-.18,1.42,1.53,2.56,1.9,3.3-1.54-.49-4-.49-5-1.3a19.87,19.87,0,0,1,3.06-2Zm20.65.22c.78.77,2.52,2.05.24,1.87-.76,0-2.9.45-1.2-.32A1.58,1.58,0,0,0,728.22,215.67Zm10.55.4c.1,1.08.14,3.28-.34,4,.15-1.2-2.28-1.91-1-2.8A8,8,0,0,1,738.77,216.07Zm-22.43,1.06c1,.92,3.83.74,4.13,1.29-1.75.41-3.32.63-4.13-1.29Zm20,1.45c1.82.36,2.25,3.75,1.78,4.61C737.68,221.83,735.54,219.69,736.32,218.58Zm-1.49.67c1.37,1.45,1.93,3.52,2.95,5.23,1.37,1.71.22,3.61-.28,5.4-1.3,4.14-2.55,8.32-3.91,12.43-1.25-.08-2.4-2.76-3.64-3.84-1.85-1.3,0-3.07.27-4.61.8-2.43,1.4-4.89,2.2-7.34s1.65-4.81,2.37-7.25l0,0Zm-4.07.26c.94.24-1.89.76-2.42.93a31.29,31.29,0,0,1-5.8.44c-.85.11-3,0-1-.29,3.06-.34,6.11-.79,9.18-1.08Zm-27.28.19a56.19,56.19,0,0,1,5.94,1.35c-1.47.85-3.22,1.51-4.33,2.93-.62.69-1.72,2.67-1.6.58a27.23,27.23,0,0,1,0-4.86Zm27.14.87a3.3,3.3,0,0,1-4.57,1.67c-1-.17-4-.76-1.4-.78A41.54,41.54,0,0,0,730.62,220.57Zm-15.36.94c2.45,2.72,4.6,5.71,7,8.47,1.83,2.35,3.78,4.61,5.57,7-.48,1.45-2.76,2.07-3.92,3.18-2.9,1.9-5.71,4-8.69,5.74-3.41-3.8-6.54-7.84-9.87-11.71-.64-1.24-3.6-2.84-1.26-3.86q5.25-4.16,10.44-8.4a2.82,2.82,0,0,1,.72-.4Zm-3.23.09c-.25,1.12-2.39,2.18-3.43,3.22-1.57,1.26-3.08,2.64-4.75,3.76-.23-1.56,1-3.39,2.16-4.58a8.51,8.51,0,0,1,6-2.4Zm22.72.72c-.67,1.88-1.24,3.81-1.87,5.7-.83,2.53-1.62,5.06-2.47,7.57,1.05,1.41,2.1,2.85,3.22,4.19a23.38,23.38,0,0,0,.89-2.64c.8-2.55,1.6-5.09,2.41-7.65a9.43,9.43,0,0,0,.56-2.24c-.82-1.64-1.76-3.22-2.62-4.83Zm-1.85.09a26.46,26.46,0,0,1-1.37,4.8c-.51,1.23-.89,3.6-1.6,4.12A34.79,34.79,0,0,1,732.9,222.41Zm-.93.3c-.22,1.4-1.11,3-1.47,4.49-.09.71-.94,3.05-.73,1,.07-1.19.11-2.38.15-3.57.68-.64,1.33-1.32,2-1.92Zm-13.54.28a16.88,16.88,0,0,1,8,7.91c.22.91,1.21,2.47.78,3-2.9-3.24-5.49-6.74-8.26-10.1-.14-.27-.54-.54-.48-.86Zm16.25.26a5.58,5.58,0,0,1,1,1.73c-.3.2-1.15.21-1.36.87-.34.42-.59,1-.89,1.36a28.38,28.38,0,0,1,1.08-3.63c.07-.1.06-.25.16-.33Zm-13.53.29c2.2.38,4.39.84,6.54,1.4a44.59,44.59,0,0,1-.25,6.23,38.32,38.32,0,0,0-3.1-4.5c-.91-1.17-2.33-2.09-3.19-3.13Zm-5.93,1.23c-3.15,2.32-6.23,4.77-9.25,7.26q4.51,5.58,9.2,11c3.18-2,6.24-4.28,9.36-6.41-.35-1.69-2.48-3.14-3.46-4.75-2-2.37-3.83-4.83-5.85-7.14Zm20,.82c.75,0,.86,1.09,1,1.68a16.63,16.63,0,0,1-1.7,8.18c-.38.66-.95,1.75-1.84,1.45-.89-.85-.63-2.26-.66-3.36a15.76,15.76,0,0,1,2.33-7.43,1.51,1.51,0,0,1,.92-.52Zm-20.14.19c.82.82,3.16,3.23,2.75,3.61a7.32,7.32,0,0,0-5.81-1.12A12.27,12.27,0,0,1,715.13,225.78Zm21.19.42a7.14,7.14,0,0,1,1,1.63c-.43,1.15-.63,2.36-1.16,3.46,0-1.19.39-2.47.29-3.72.05-.46-.13-.95-.09-1.37ZM714,228.58c4.09.12,7.78,4.55,6.43,8.59-.92,2.59-4.3,3-6.49,1.85-3-1.36-5.23-5.16-3.74-8.38a4.09,4.09,0,0,1,3.8-2.06Zm-4,1.16a6.21,6.21,0,0,0-.42,5c.83,2.31-1.38-.93-1.9-1.46-2.09-1.54,1.38-2.54,2.32-3.55Zm22.06,1.51c.08.94-.29,2-.28,3a8.56,8.56,0,0,0,.18,2.13c-.35.17-1.11-1-1.12-1.52.46-1.2.74-2.47,1.22-3.64Zm5.3.42a17.46,17.46,0,0,1-1.14,4.62c-.16.91-1.55,3.66-.8,1.25C736.12,235.59,736.6,233.57,737.39,231.67Zm-16.82.74c.91,1.26,3.33,2.86,2.76,4.27-.93.54-2.33,1.85-3.07,1.87,1.41-1.76,1.1-4.19.31-6.14Zm17,1c.06,1.7.09,3.85-1.55,4.82C736.5,236.63,737,235,737.59,233.42Zm-33.5,1.05c2.77,3,5.27,6.24,7.9,9.37.59,1.32-2.18-.87-2.7-1.31a15.45,15.45,0,0,1-5.28-7.88l0-.13Zm30.79.66c.07.68-.44,1.44-.55,2.17-.25.53-.26,1.21-.64,1.66a9.1,9.1,0,0,1-1.11-1.45c1.2-.12,1.74-1.39,2.24-2.34Zm-30.73,2.15a26.09,26.09,0,0,0,5,5.89c1.68,1.21-1.68,0-2.33-.08-1.78-.1-3.22-.9-2.72-2.92.09-.88-.33-2.14.1-2.89Zm8.25,1.4a7.13,7.13,0,0,0,6.15,1.14c-1.07.71-3.18,3.52-4.23,1.38-.58-.82-1.65-1.69-1.92-2.52Zm17,1.12c.75,1.15,2.89,2.43,2.57,3.75C729.89,244.68,729.19,241.09,729.38,239.8Zm-2.41.09c.22,1.4-1.11,2.81-2.08,3.82a9.05,9.05,0,0,1-6.62,2.28c.89-1.35,2.75-2.08,4.07-3.11,1.54-1,3-2.07,4.63-3Zm0,2.62c-.12,1.82.33,4.13-.45,5.66a47.26,47.26,0,0,1-5.73-1.57,11.81,11.81,0,0,0,5.14-3.08C726.32,243.18,726.65,242.82,727,242.51Zm2.18.51c.42,1.29,3.12,1.36,1.19,2.73-.51.72-1.93,2.59-1.48.48A24.39,24.39,0,0,1,729.2,243Z"/><g id="g19030"><path id="path19016" class="cls-11" d="M484.34,408.73h24.74l12.37-21.42-12.37-21.42H484.34L472,387.31Z"/><path class="cls-8" d="M509.94,410.22H483.48l-13.23-22.91,13.23-22.91h26.46l13.23,22.91Zm-24.74-3h23l11.51-19.93-11.51-19.93h-23l-11.5,19.93Z"/><path id="path19018" class="cls-8" d="M486.31,405.43h20.63l10.31-17.86L506.94,369.7H486.31L476,387.57Z"/><path class="cls-8" d="M507.08,405.68H486.17l-.08-.12-10.38-18,.07-.13,10.39-18h20.91l.07.12,10.39,18-.07.12Zm-20.63-.5H506.8L517,387.57,506.8,370H486.45l-10.17,17.62Z"/></g><g id="g19026"><path id="path19020" class="cls-4" d="M310.26,384.49H285.52l-12.36-21.42,12.36-21.42h24.74l12.37,21.42Z"/><path class="cls-8" d="M311.12,386H284.66l-13.22-22.91,13.22-22.91h26.46l13.23,22.91Zm-24.74-3h23l11.51-19.93L309.4,343.14h-23l-11.5,19.93Z"/><path id="path19022" class="cls-4" d="M308.29,381.19H287.66l-10.31-17.87,10.31-17.86h20.63l10.32,17.86Z"/><path class="cls-8" d="M308.78,382h-21.6l-10.81-18.72,10.81-18.71h21.6l10.8,18.71Zm-20.63-1.69h19.66l9.82-17-9.82-17H288.15l-9.83,17Z"/></g><g id="g19036"><path id="path19032" class="cls-11" d="M531.63,384.91h24.74l12.36-21.42-12.36-21.42H531.63l-12.37,21.42Z"/><path class="cls-8" d="M557.23,386.4H530.77l-13.23-22.91,13.23-22.91h26.46l13.22,22.91Zm-24.74-3h23L567,363.49l-11.5-19.93h-23L521,363.49Z"/><path id="path19034" class="cls-8" d="M533.6,381.61h20.63l10.31-17.86-10.31-17.87H533.6l-10.32,17.87Z"/><path class="cls-8" d="M554.37,381.86H533.45l-.07-.12-10.39-18,.07-.13,10.39-18h20.92l.07.13,10.39,18-.07.12Zm-20.63-.5h20.34l10.17-17.61-10.17-17.62H533.74l-10.17,17.62Z"/></g><g id="g19048"><path id="path19044" class="cls-11" d="M531.63,433.89h24.74l12.36-21.42L556.37,391H531.63l-12.37,21.43Z"/><path class="cls-8" d="M557.23,435.38H530.77l-13.23-22.91,13.23-22.92h26.46l13.22,22.92Zm-24.74-3h23L567,412.47l-11.5-19.94h-23L521,412.47Z"/><path id="path19046" class="cls-8" d="M533.6,430.59h20.63l10.31-17.87-10.31-17.87H533.6l-10.32,17.87Z"/><path class="cls-8" d="M554.37,430.83H533.45l-.07-.12-10.39-18,.07-.12,10.39-18h20.92l.07.12,10.39,18-.07.12Zm-20.63-.49h20.34l10.17-17.62L554.08,395.1H533.74l-10.17,17.62Z"/></g><g id="g19066"><path id="path19062" class="cls-4" d="M310.26,532.51H285.52l-12.36-21.43,12.36-21.42h24.74l12.37,21.42Z"/><path class="cls-8" d="M311.12,534H284.66l-13.22-22.92,13.22-22.91h26.46l13.23,22.91Zm-24.74-3h23l11.51-19.94L309.4,491.15h-23l-11.5,19.93Z"/><path id="path19064" class="cls-4" d="M308.29,529.2H287.66l-10.31-17.86,10.31-17.87h20.63l10.32,17.87Z"/><path class="cls-8" d="M308.78,530.05h-21.6l-10.81-18.71,10.81-18.71h21.6l10.8,18.71Zm-20.63-1.69h19.66l9.82-17-9.82-17H288.15l-9.83,17Z"/></g><g id="g19072"><path id="path19068" class="cls-4" d="M310.26,433.34H285.52l-12.36-21.43,12.36-21.42h24.74l12.37,21.42Z"/><path class="cls-8" d="M311.12,434.83H284.66l-13.22-22.92L284.66,389h26.46l13.23,22.91Zm-24.74-3h23l11.51-19.94L309.4,392h-23l-11.5,19.93Z"/><path id="path19070" class="cls-4" d="M308.29,430H287.66l-10.31-17.87,10.31-17.87h20.63l10.32,17.87Z"/><path class="cls-8" d="M308.78,430.88h-21.6l-10.81-18.71,10.81-18.71h21.6l10.8,18.71Zm-20.63-1.69h19.66l9.82-17-9.82-17H288.15l-9.83,17Z"/></g><g id="g19078"><path id="path19074" class="cls-4" d="M358.41,457.88H333.67L321.3,436.46,333.67,415h24.74l12.37,21.42Z"/><path class="cls-8" d="M359.27,459.37H332.81l-13.23-22.91,13.23-22.91h26.46l13.23,22.91Zm-24.74-3h23l11.51-19.93-11.51-19.93h-23L323,436.46Z"/><path id="path19076" class="cls-4" d="M356.44,454.58H335.81L325.5,436.71l10.31-17.86h20.63l10.32,17.86Z"/><path class="cls-8" d="M356.93,455.42h-21.6l-10.81-18.71L335.33,418h21.6l10.8,18.71Zm-20.63-1.69H356l9.82-17-9.82-17H336.3l-9.83,17Z"/></g><g id="g19084"><path id="path19080" class="cls-4" d="M310.26,482.16H285.52l-12.36-21.42,12.36-21.42h24.74l12.37,21.42Z"/><path class="cls-8" d="M311.12,483.65H284.66l-13.22-22.91,13.22-22.91h26.46l13.23,22.91Zm-24.74-3h23l11.51-19.93L309.4,440.81h-23l-11.5,19.93Z"/><path id="path19082" class="cls-4" d="M308.29,478.86H287.66L277.35,461l10.31-17.86h20.63L318.61,461Z"/><path class="cls-8" d="M308.78,479.7h-21.6L276.37,461l10.81-18.71h21.6L319.58,461ZM288.15,478h19.66l9.82-17-9.82-17H288.15l-9.83,17Z"/></g><g id="g19090"><path id="path19086" class="cls-4" d="M358.41,508.21H333.67L321.3,486.78l12.37-21.42h24.74l12.37,21.42Z"/><path class="cls-8" d="M359.27,509.7H332.81l-13.23-22.92,13.23-22.91h26.46l13.23,22.91Zm-24.74-3h23l11.51-19.94-11.51-19.93h-23L323,486.78Z"/><path id="path19088" class="cls-4" d="M356.44,504.9H335.81L325.5,487l10.31-17.87h20.63L366.76,487Z"/><path class="cls-8" d="M356.93,505.75h-21.6L324.52,487l10.81-18.71h21.6L367.73,487Zm-20.63-1.69H356l9.82-17L356,470H336.3l-9.83,17Z"/></g><g id="g1625"><path id="path1621" class="cls-4" d="M358.41,406.88H333.67L321.3,385.46,333.67,364h24.74l12.37,21.42Z"/><path class="cls-8" d="M359.27,408.37H332.81l-13.23-22.91,13.23-22.91h26.46l13.23,22.91Zm-24.74-3h23l11.51-19.93-11.51-19.93h-23L323,385.46Z"/><path id="path1623" class="cls-4" d="M356.44,403.58H335.81L325.5,385.71l10.31-17.86h20.63l10.32,17.86Z"/><path class="cls-8" d="M356.93,404.42h-21.6l-10.81-18.71L335.33,367h21.6l10.8,18.71Zm-20.63-1.69H356l9.82-17-9.82-17H336.3l-9.83,17Z"/></g><g id="g1631"><path id="path1627" class="cls-4" d="M406.56,433.34H381.82l-12.37-21.43,12.37-21.42h24.74l12.37,21.42Z"/><path class="cls-8" d="M407.42,434.83H381l-13.23-22.92L381,389h26.46l13.23,22.91Zm-24.74-3h23l11.51-19.94L405.7,392h-23l-11.5,19.93Z"/><path id="path1629" class="cls-4" d="M404.59,430H384l-10.31-17.87L384,394.3h20.63l10.32,17.87Z"/><path class="cls-8" d="M405.08,430.88h-21.6l-10.81-18.71,10.81-18.71h21.6l10.8,18.71Zm-20.63-1.69h19.66l9.82-17-9.82-17H384.45l-9.83,17Z"/></g><g id="g1637"><path id="path1633" class="cls-4" d="M406.56,482.16H381.82l-12.37-21.42,12.37-21.42h24.74l12.37,21.42Z"/><path class="cls-8" d="M407.42,483.65H381l-13.23-22.91L381,437.83h26.46l13.23,22.91Zm-24.74-3h23l11.51-19.93L405.7,440.81h-23l-11.5,19.93Z"/><path id="path1635" class="cls-4" d="M404.59,478.86H384L373.65,461,384,443.13h20.63L414.91,461Z"/><path class="cls-8" d="M405.08,479.7h-21.6L372.67,461l10.81-18.71h21.6L415.88,461ZM384.45,478h19.66l9.82-17-9.82-17H384.45l-9.83,17Z"/></g><g id="g1643"><path id="path1639" class="cls-11" d="M484.34,506.23h24.74l12.37-21.42-12.37-21.42H484.34L472,484.81Z"/><path class="cls-8" d="M509.94,507.72H483.48l-13.23-22.91,13.23-22.91h26.46l13.23,22.91Zm-24.74-3h23l11.51-19.93-11.51-19.93h-23l-11.5,19.93Z"/><path id="path1641" class="cls-8" d="M486.31,502.93h20.63l10.31-17.86L506.94,467.2H486.31L476,485.07Z"/><path class="cls-8" d="M507.08,503.18H486.17l-.08-.12-10.38-18,.07-.13,10.39-18h20.91l.07.13,10.39,18-.07.12Zm-20.63-.5H506.8L517,485.07,506.8,467.45H486.45l-10.17,17.62Z"/></g><g id="g1649"><path id="path1645" class="cls-11" d="M531.63,482.41h24.74L568.73,461l-12.36-21.42H531.63L519.26,461Z"/><path class="cls-8" d="M557.23,483.9H530.77L517.54,461l13.23-22.91h26.46L570.45,461Zm-24.74-3h23L567,461l-11.5-19.93h-23L521,461Z"/><path id="path1647" class="cls-8" d="M533.6,479.11h20.63l10.31-17.86-10.31-17.87H533.6l-10.32,17.87Z"/><path class="cls-8" d="M554.37,479.36H533.45l-.07-.12-10.39-18,.07-.13,10.39-18h20.92l.07.13,10.39,18-.07.12Zm-20.63-.5h20.34l10.17-17.61-10.17-17.62H533.74l-10.17,17.62Z"/></g><g id="g1655"><path id="path1651" class="cls-11" d="M531.63,531.39h24.74L568.73,510l-12.36-21.43H531.63L519.26,510Z"/><path class="cls-8" d="M557.23,532.88H530.77L517.54,510l13.23-22.92h26.46L570.45,510Zm-24.74-3h23L567,510,555.51,490h-23L521,510Z"/><path id="path1653" class="cls-8" d="M533.6,528.09h20.63l10.31-17.87-10.31-17.87H533.6l-10.32,17.87Z"/><path class="cls-8" d="M554.37,528.33H533.45l-.07-.12-10.39-18,.07-.12,10.39-18h20.92l.07.12,10.39,18-.07.12Zm-20.63-.49h20.34l10.17-17.62L554.08,492.6H533.74l-10.17,17.62Z"/></g><g id="g1661"><path id="path1657" class="cls-11" d="M484.34,458.23h24.74l12.37-21.42-12.37-21.42H484.34L472,436.81Z"/><path class="cls-8" d="M509.94,459.72H483.48l-13.23-22.91,13.23-22.91h26.46l13.23,22.91Zm-24.74-3h23l11.51-19.93-11.51-19.93h-23l-11.5,19.93Z"/><path id="path1659" class="cls-8" d="M486.31,454.93h20.63l10.31-17.86L506.94,419.2H486.31L476,437.07Z"/><path class="cls-8" d="M507.08,455.18H486.17l-.08-.12-10.38-18,.07-.13,10.39-18h20.91l.07.12,10.39,18-.07.12Zm-20.63-.5H506.8L517,437.07,506.8,419.45H486.45l-10.17,17.62Z"/></g><g id="g1667"><path id="path1663" class="cls-11" d="M436.88,433.89h24.74L474,412.47,461.62,391H436.88l-12.37,21.43Z"/><path class="cls-8" d="M462.48,435.38H436l-13.23-22.91L436,389.55h26.46l13.23,22.92Zm-24.74-3h23l11.51-19.93-11.51-19.94h-23l-11.51,19.94Z"/><path id="path1665" class="cls-8" d="M438.85,430.59h20.63l10.31-17.87-10.31-17.87H438.85l-10.32,17.87Z"/><path class="cls-8" d="M459.62,430.83H438.7l-.07-.12-10.38-18,.07-.12,10.38-18h20.92l.07.12,10.39,18-.07.12ZM439,430.34h20.34l10.18-17.62L459.33,395.1H439l-10.17,17.62Z"/></g><g id="g1673"><path id="path1669" class="cls-11" d="M436.88,482.41h24.74L474,461l-12.37-21.42H436.88L424.51,461Z"/><path class="cls-8" d="M462.48,483.9H436L422.79,461,436,438.08h26.46L475.71,461Zm-24.74-3h23L472.27,461l-11.51-19.93h-23L426.23,461Z"/><path id="path1671" class="cls-8" d="M438.85,479.11h20.63l10.31-17.86-10.31-17.87H438.85l-10.32,17.87Z"/><path class="cls-8" d="M459.62,479.36H438.7l-.07-.12-10.38-18,.07-.13,10.38-18h20.92l.07.13,10.39,18-.07.12Zm-20.63-.5h20.34l10.18-17.61-10.18-17.62H439l-10.17,17.62Z"/></g><path class="cls-4" d="M162.27,316.51h-7.09a4.25,4.25,0,0,0-4.25,4.25v3.55H91.4v-3.55a4.25,4.25,0,0,0-4.25-4.25H80.06l-9.92,9.92v82.21l9.92,9.92h7.09a4.25,4.25,0,0,0,4.25-4.25v-3.55h59.53v3.55a4.25,4.25,0,0,0,4.25,4.25h7.09l9.92-9.92V326.43Z"/><path class="cls-8" d="M159.11,406.89l1.52-1.3,7.3,7.3,4.26-4.25v-40.1h-8.5v-2h8.5V326.43l-4.26-4.25-7.3,7.3-1.52-1.3,7.41-7.41-4.25-4.26h-7.09a4.25,4.25,0,0,0-4.25,4.25v3.55H122.17v8h-2v-8H91.4v-3.55a4.25,4.25,0,0,0-4.25-4.25H80.06l-4.25,4.25,7.41,7.42-1.52,1.3-7.3-7.3-4.26,4.25v40.11h8.51v2H70.14v40.1l4.26,4.25,7.3-7.3,1.52,1.3-7.41,7.42,4.25,4.25h7.09a4.25,4.25,0,0,0,4.25-4.25v-3.55h28.77v-8h2v8h28.76v3.55a4.25,4.25,0,0,0,4.25,4.25h7.09l4.25-4.26Z"/><path class="cls-4" d="M134.42,364.59a17.13,17.13,0,0,1-1.64,5.42c-.85,1.43-3.66,5.76-5.36,6.86a8.52,8.52,0,0,1-4.27,1.29,3.28,3.28,0,0,1-2.15-.64,4.28,4.28,0,0,1-1.13-3.23,2.66,2.66,0,0,1,.9-2.15.34.34,0,0,1,.12-.06c.54-.07,1-.15,1.21-.2a.29.29,0,0,1,.34.22,3.07,3.07,0,0,0,1.51,2.37,8.39,8.39,0,0,0,3-4l.09-.27a5.07,5.07,0,0,0-1.07-5.78c-3-3.08-5.63-4.13-8-3.1a10.37,10.37,0,0,0-3.94,2.81.28.28,0,0,1-.4,0,2.84,2.84,0,0,1-1-1.31.3.3,0,0,1,.08-.29c.21-.2,5.17-4.65,10.92-4.65a10,10,0,0,1,5.92,1.9.56.56,0,0,0,.45-.21,2.89,2.89,0,0,0,.44-2.24c-.16-2.07-.83-3.42-6.22-6.68-2.17,2.1-4.85,4.44-6.82,4.44a2,2,0,0,1-1.43-.54,3.35,3.35,0,0,1-1.12-2.54,6.38,6.38,0,0,1,2.27-4.48c.19-.18.31-.31.4-.41a5.72,5.72,0,0,0-.71.26c-1.72.73-5.11,4.26-5.48,8.42a12.84,12.84,0,0,0,1.15,6.95l.11.22a.27.27,0,0,1-.08.35c-1,.78-6.09,5.08-4.32,13.61,1.73,8.29,12.8,10.86,16.64,10.86a4.91,4.91,0,0,0,.59,0,6.48,6.48,0,0,0,.86-.14c-.34-.17-1-.39-1.63-.6l-1.27-.45c-3-1.09-8.43-3.74-11.1-9.18-2.35-4.77.2-10.41,1-12a.42.42,0,0,1,.07-.13.34.34,0,0,1,.22-.17c.09,0,.12.06.18.12l.09.09,1.43,1.53c.06.06.16.18.15.27a6.67,6.67,0,0,0,.26,3,.64.64,0,0,0,.08.2.28.28,0,0,1,0,.13c0,.83,0,5.11,1.12,7.63s2.18,4.4,5.77,4.4c4.23,0,7.34-2.23,9.82-7C134.4,372,134.56,367.23,134.42,364.59Zm-18.3,1.93c1.16-1.3,4.07-3,6.16-2,2.54,1.17,3.9,4.42,2,6a7,7,0,0,1-5.15,1.15C117.74,371.16,115.25,370.33,116.12,366.52Z"/><path class="cls-9" d="M761.83,316.51h-7.09a4.25,4.25,0,0,0-4.25,4.25v3.55H691v-3.55a4.25,4.25,0,0,0-4.25-4.25h-7.09l-9.92,9.92v82.21l9.92,9.92h7.09a4.25,4.25,0,0,0,4.25-4.25v-3.55h59.53v3.55a4.25,4.25,0,0,0,4.25,4.25h7.09l9.92-9.92V326.43Z"/><path class="cls-10" d="M758.67,406.89l1.52-1.3,7.3,7.3,4.26-4.25v-40.1h-8.5v-2h8.5V326.43l-4.25-4.25-7.31,7.3-1.52-1.3,7.41-7.41-4.25-4.26h-7.09a4.25,4.25,0,0,0-4.25,4.25v3.55H721.73v8h-2v-8H691v-3.55a4.25,4.25,0,0,0-4.25-4.25h-7.09l-4.25,4.25,7.41,7.42-1.52,1.3-7.3-7.3-4.26,4.25v40.11h8.51v2H669.7v40.1l4.26,4.25,7.3-7.3,1.52,1.3-7.41,7.42,4.25,4.25h7.09a4.25,4.25,0,0,0,4.25-4.25v-3.55h28.77v-8h2v8h28.76v3.55a4.25,4.25,0,0,0,4.25,4.25h7.09l4.25-4.26Z"/><path class="cls-8" d="M734,364.59a17.13,17.13,0,0,1-1.64,5.42c-.85,1.43-3.66,5.76-5.35,6.86a8.59,8.59,0,0,1-4.28,1.29,3.28,3.28,0,0,1-2.15-.64,4.28,4.28,0,0,1-1.13-3.23,2.66,2.66,0,0,1,.9-2.15.45.45,0,0,1,.12-.06c.54-.07,1-.15,1.22-.2a.29.29,0,0,1,.33.22,3.07,3.07,0,0,0,1.51,2.37,8.39,8.39,0,0,0,3-4l.09-.27a5.07,5.07,0,0,0-1.07-5.78c-3-3.08-5.63-4.13-8-3.1a10.47,10.47,0,0,0-3.94,2.81.28.28,0,0,1-.4,0,2.84,2.84,0,0,1-1-1.31.3.3,0,0,1,.08-.29c.21-.2,5.17-4.65,10.92-4.65a10.07,10.07,0,0,1,5.93,1.9.54.54,0,0,0,.44-.21,2.89,2.89,0,0,0,.44-2.24c-.16-2.07-.83-3.42-6.22-6.68-2.16,2.1-4.85,4.44-6.82,4.44a2,2,0,0,1-1.43-.54,3.35,3.35,0,0,1-1.12-2.54,6.38,6.38,0,0,1,2.27-4.48,4.64,4.64,0,0,0,.4-.41,5.72,5.72,0,0,0-.71.26c-1.72.73-5.11,4.26-5.48,8.42a12.84,12.84,0,0,0,1.15,6.95l.12.22a.28.28,0,0,1-.09.35c-1,.78-6.09,5.08-4.31,13.61,1.72,8.29,12.79,10.86,16.63,10.86a4.91,4.91,0,0,0,.59,0,7.07,7.07,0,0,0,.87-.14c-.35-.17-1-.39-1.64-.6l-1.27-.45c-3-1.09-8.43-3.74-11.1-9.18-2.35-4.77.2-10.41,1-12a.42.42,0,0,1,.07-.13.34.34,0,0,1,.22-.17c.09,0,.12.06.18.12l.09.09,1.43,1.53c.06.06.16.18.15.27a6.67,6.67,0,0,0,.26,3,1,1,0,0,0,.08.2.28.28,0,0,1,0,.13c0,.83,0,5.11,1.13,7.63s2.17,4.4,5.76,4.4c4.23,0,7.34-2.23,9.82-7C734,372,734.12,367.23,734,364.59Zm-18.3,1.93c1.16-1.3,4.07-3,6.17-2,2.53,1.17,3.89,4.42,2,6a7,7,0,0,1-5.15,1.15C717.3,371.16,714.81,370.33,715.68,366.52Z"/><path class="cls-8" d="M104.07,437.61a1.57,1.57,0,0,1,.38,1.24,2,2,0,0,1-.42,1.47,1.88,1.88,0,0,1-1.57.49H98.55a1,1,0,0,1-.79-.33,1.26,1.26,0,0,1-.26-.78v-4.76a1.14,1.14,0,0,1,.24-.78,1.08,1.08,0,0,1,.79-.35h3.8a2,2,0,0,1,1.52.46,2.15,2.15,0,0,1,.44,1.5,1.44,1.44,0,0,1-.35,1.09,1,1,0,0,1-.7.35v0A1.42,1.42,0,0,1,104.07,437.61Zm-4.31-1.11h1.68a.58.58,0,0,0,.54-.19.74.74,0,0,0,.07-.32.41.41,0,0,0-.11-.3.67.67,0,0,0-.51-.14h-1.29a.38.38,0,0,0-.29.08c-.11.09-.09.19-.09.3Zm0,2.05a.71.71,0,0,0,.08.42c.09.11.31.1.42.1h1.2c.43,0,.56-.09.6-.14a.71.71,0,0,0,.13-.41.49.49,0,0,0-.09-.3.66.66,0,0,0-.58-.2H99.76Z"/><path class="cls-8" d="M108.8,435.51a1.82,1.82,0,0,1,1.31.46,2,2,0,0,1,.5,1.49v2.22a1.15,1.15,0,0,1-.26.85,1.13,1.13,0,0,1-.9.28h-3.12a1.29,1.29,0,0,1-1-.28,2,2,0,0,1-.43-1.49,1.59,1.59,0,0,1,.46-1.34,1.41,1.41,0,0,1,.94-.23h2.32v-.08a.57.57,0,0,0-.1-.35.69.69,0,0,0-.6-.21h-2.66v-1.32Zm-1.54,3.22a.44.44,0,0,0-.29.09.33.33,0,0,0-.08.25.31.31,0,0,0,.35.32h1a.52.52,0,0,0,.29-.07.3.3,0,0,0,.1-.26v-.33Z"/><path class="cls-8" d="M113.18,440.81a2,2,0,0,1-1.62-.63,2.89,2.89,0,0,1-.47-1.95,3,3,0,0,1,.59-2.17,2.07,2.07,0,0,1,1.6-.55h2.85v1.34h-1.94c-.67,0-.9.29-1,.64a2.16,2.16,0,0,0-.09.7,1.79,1.79,0,0,0,.16.92.89.89,0,0,0,.79.36h2.2v1.34Z"/><path class="cls-8" d="M116.72,440.81v-7h2v7Zm4,0-1.44-1.9a1.34,1.34,0,0,1-.31-.85,1.3,1.3,0,0,1,.32-.83l1.21-1.72h2.12L121,437.62a.74.74,0,0,0-.14.38.9.9,0,0,0,.2.48l1.85,2.33Z"/><path class="cls-8" d="M125.34,439.39h2.89a.19.19,0,0,0,.12,0,.11.11,0,0,0,.05-.1c0-.07-.05-.09-.09-.12s-.19-.06-.6-.21l-1.14-.37a1.94,1.94,0,0,1-1.09-.7,1.87,1.87,0,0,1-.2-.89,1.67,1.67,0,0,1,.25-.95,1.26,1.26,0,0,1,1.23-.5h3.54v1.36h-2.88a.6.6,0,0,0-.23,0s-.09,0-.09.09,0,.09.11.12c.24.08.16.07.4.15l1.34.45a2.18,2.18,0,0,1,1.22.72,1.79,1.79,0,0,1,.27,1,1.39,1.39,0,0,1-.44,1.13,1.29,1.29,0,0,1-.87.25h-3.79Z"/><path class="cls-8" d="M130.92,435v-1.17h2V435Zm0,.53h2v5.3h-2Z"/><path class="cls-8" d="M138.81,440.45a1,1,0,0,1-.91.36h-2.63a1.64,1.64,0,0,1-1.67-1,4.67,4.67,0,0,1-.24-1.76,2.94,2.94,0,0,1,.39-1.77,2,2,0,0,1,1.76-.75H137v-1.7h2v5.88A1.44,1.44,0,0,1,138.81,440.45Zm-2.65-3.58a.74.74,0,0,0-.63.32,1.7,1.7,0,0,0-.21.95,2,2,0,0,0,.14.92.76.76,0,0,0,.7.39h.47a.38.38,0,0,0,.29-.08c.11-.09.1-.28.1-.36v-2.14Z"/><path class="cls-8" d="M141.61,440.81c-.8,0-1.45,0-1.88-.69a3.88,3.88,0,0,1-.27-1.9v-.69a2.12,2.12,0,0,1,.43-1.56c.48-.51,1.5-.52,2.5-.52s1.76,0,2.18.36a2.25,2.25,0,0,1,.58,1.78,1.13,1.13,0,0,1-.33,1,.67.67,0,0,1-.51.15h-2.89a.76.76,0,0,0,.09.43c.17.27.53.25.88.25H145v1.42Zm1.26-3.34c.28,0,.32-.17.32-.28s-.07-.29-.36-.36a3.46,3.46,0,0,0-.52,0,1.75,1.75,0,0,0-.68.09c-.2.11-.24.32-.21.59Z"/><path class="cls-8" d="M703.63,437.61a1.57,1.57,0,0,1,.38,1.24,2,2,0,0,1-.42,1.47,1.88,1.88,0,0,1-1.57.49h-3.91a1,1,0,0,1-.79-.33,1.26,1.26,0,0,1-.26-.78v-4.76a1.14,1.14,0,0,1,.24-.78,1.08,1.08,0,0,1,.79-.35h3.8a2,2,0,0,1,1.52.46,2.15,2.15,0,0,1,.44,1.5,1.44,1.44,0,0,1-.35,1.09,1,1,0,0,1-.7.35v0A1.42,1.42,0,0,1,703.63,437.61Zm-4.31-1.11H701a.58.58,0,0,0,.54-.19.74.74,0,0,0,.07-.32.41.41,0,0,0-.11-.3.67.67,0,0,0-.51-.14H699.7a.38.38,0,0,0-.29.08c-.11.09-.09.19-.09.3Zm0,2.05a.71.71,0,0,0,.08.42c.09.11.31.1.42.1H701c.43,0,.56-.09.6-.14a.71.71,0,0,0,.13-.41.49.49,0,0,0-.09-.3.66.66,0,0,0-.58-.2h-1.76Z"/><path class="cls-8" d="M708.36,435.51a1.82,1.82,0,0,1,1.31.46,2,2,0,0,1,.5,1.49v2.22a1.15,1.15,0,0,1-.26.85,1.13,1.13,0,0,1-.9.28h-3.12a1.29,1.29,0,0,1-1-.28,2,2,0,0,1-.43-1.49,1.59,1.59,0,0,1,.46-1.34,1.41,1.41,0,0,1,.94-.23h2.32v-.08a.57.57,0,0,0-.1-.35.69.69,0,0,0-.6-.21h-2.66v-1.32Zm-1.54,3.22a.44.44,0,0,0-.29.09.33.33,0,0,0-.08.25.31.31,0,0,0,.35.32h1a.52.52,0,0,0,.29-.07.3.3,0,0,0,.1-.26v-.33Z"/><path class="cls-8" d="M712.74,440.81a2,2,0,0,1-1.62-.63,2.89,2.89,0,0,1-.47-1.95,3,3,0,0,1,.59-2.17,2.07,2.07,0,0,1,1.6-.55h2.85v1.34h-1.94c-.67,0-.9.29-1,.64a2.16,2.16,0,0,0-.09.7,1.79,1.79,0,0,0,.16.92.89.89,0,0,0,.79.36h2.2v1.34Z"/><path class="cls-8" d="M716.28,440.81v-7h2v7Zm4,0-1.44-1.9a1.34,1.34,0,0,1-.31-.85,1.3,1.3,0,0,1,.32-.83l1.21-1.72h2.12l-1.61,2.11a.74.74,0,0,0-.14.38.9.9,0,0,0,.2.48l1.85,2.33Z"/><path class="cls-8" d="M724.9,439.39h2.89a.19.19,0,0,0,.12,0,.11.11,0,0,0,.05-.1c0-.07-.05-.09-.09-.12s-.19-.06-.6-.21l-1.14-.37a1.94,1.94,0,0,1-1.09-.7,1.87,1.87,0,0,1-.2-.89,1.67,1.67,0,0,1,.25-.95,1.26,1.26,0,0,1,1.23-.5h3.54v1.36H727a.6.6,0,0,0-.23,0s-.09,0-.09.09,0,.09.11.12c.24.08.16.07.4.15l1.34.45a2.18,2.18,0,0,1,1.22.72,1.79,1.79,0,0,1,.27,1,1.39,1.39,0,0,1-.44,1.13,1.29,1.29,0,0,1-.87.25H724.9Z"/><path class="cls-8" d="M730.48,435v-1.17h2V435Zm0,.53h2v5.3h-2Z"/><path class="cls-8" d="M738.37,440.45a1,1,0,0,1-.91.36h-2.63a1.64,1.64,0,0,1-1.67-1,4.67,4.67,0,0,1-.24-1.76,2.94,2.94,0,0,1,.39-1.77,2,2,0,0,1,1.76-.75h1.51v-1.7h2v5.88A1.35,1.35,0,0,1,738.37,440.45Zm-2.65-3.58a.74.74,0,0,0-.63.32,1.7,1.7,0,0,0-.21.95,2,2,0,0,0,.14.92.76.76,0,0,0,.7.39h.47a.38.38,0,0,0,.29-.08c.11-.09.1-.28.1-.36v-2.14Z"/><path class="cls-8" d="M741.17,440.81c-.8,0-1.45,0-1.88-.69a3.88,3.88,0,0,1-.27-1.9v-.69a2.12,2.12,0,0,1,.43-1.56c.48-.51,1.5-.52,2.5-.52s1.76,0,2.19.36a2.28,2.28,0,0,1,.57,1.78,1.12,1.12,0,0,1-.32,1,.68.68,0,0,1-.52.15H741a.76.76,0,0,0,.09.43c.17.27.53.25.88.25h2.57v1.42Zm1.26-3.34c.28,0,.32-.17.32-.28s-.07-.29-.36-.36a3.46,3.46,0,0,0-.52,0,1.75,1.75,0,0,0-.68.09c-.2.11-.24.32-.21.59Z"/></svg>