<svg id="Layer_1" data-name="Layer 1" xmlns="http://www.w3.org/2000/svg" xmlns:xlink="http://www.w3.org/1999/xlink" viewBox="0 0 178.58 249.45"><defs><style>.cls-1{fill:none;}.cls-2{clip-path:url(#clip-path);}.cls-3{opacity:0.4;}.cls-4,.cls-5,.cls-7{fill:#090400;}.cls-4{opacity:0.05;}.cls-5{opacity:0.1;}.cls-6{clip-path:url(#clip-path-3);}.cls-8{opacity:0.15;}.cls-9{fill:#fff;}</style><clipPath id="clip-path"><rect class="cls-1" y="-310.05" width="189.92" height="260.79"/></clipPath><clipPath id="clip-path-3"><rect class="cls-1" x="-5.67" y="-5.67" width="189.92" height="260.79"/></clipPath></defs><g class="cls-2"><g class="cls-3"><g class="cls-2"><path class="cls-4" d="M67.11-249.48v-58.73h-1v59c-2.54.72-5,1.52-7.5,2.42v-59.08h-1v59.45A107,107,0,0,0,26-227.86L25-227q-3.15,2.74-6.09,5.73v-31.18L25-258.55l1-1v-46.28H25V-260l-6.09,6.09v-52h-1v53l-6.08,6.08-1,.91v33.79a106.26,106.26,0,0,0-22.68,65.72A106.29,106.29,0,0,0,10.84-80.64V-47l1,1,6.08,6.09v53h1v-52L25-32.77V13.14h1V-33.15l-1-1-6.09-6.09V-71.45q2.94,3,6.09,5.72l1,.85a107.06,107.06,0,0,0,31.6,18.57V13.14h1V-45.94c2.46.89,5,1.7,7.5,2.41V14.94h1v-58.2l.43-.92,6.79-7.53A96.73,96.73,0,0,0,95-49.49a96.73,96.73,0,0,0,20.63-2.22l6.78,7.53.44.92v58.2h1V-43.53c2.54-.71,5-1.52,7.5-2.41V13.14h1V-46.31a107.06,107.06,0,0,0,31.6-18.57l1-.85c2.1-1.82,4.13-3.74,6.09-5.72v31.18l-6.09,6.08-1,1.08V13.14h1V-32.77L171-38.86v52h1v-53l6.08-6.09,1-1V-80.64a106.29,106.29,0,0,0,22.68-65.73,106.29,106.29,0,0,0-22.68-65.73v-33.67l-1-1L172-252.87v-53h-1v52L164.91-260v-45.91h-1v46.27l1,1.05,6.09,6.09v31.17q-2.94-3-6.09-5.72l-1-.85a107,107,0,0,0-31.6-18.56v-59.45h-1v59.08c-2.46-.9-5-1.7-7.5-2.42v-59h-1v58.73s-.45.92-.43.92L115.59-241A97.38,97.38,0,0,0,95-243.25,97.38,97.38,0,0,0,74.33-241l-6.78-7.53S67.12-249.48,67.11-249.48Zm-55.27,4.11,6.08-6.09v31.2q-3.18,3.33-6.08,6.92Zm6.08,26.56V-205a98,98,0,0,0-6.08,9v-15.68C13.76-214.19,15.8-216.54,17.92-218.81Zm160.16,99.37A87.07,87.07,0,0,1,172-105.17v-82.39a87,87,0,0,1,6.08,14.26Zm1-50.57a87,87,0,0,1,3.25,23.64,87.14,87.14,0,0,1-3.25,23.65ZM171-103.36a88.52,88.52,0,0,1-6.09,9.3l-1,1.3a87.94,87.94,0,0,1-31.6,25.37l-1,.47c-2.44,1.12-5,2.13-7.5,3l-1,.35c-2.46.82-5,1.54-7.51,2.15v-18a67.47,67.47,0,0,0,7.51-2.78l1-.45a69.63,69.63,0,0,0,7.5-4l1-.64a70.07,70.07,0,0,0,31.6-47.38l0-.52a69.94,69.94,0,0,0,1-11.1v-.15c0-.08,0-.15,0-.22a70.06,70.06,0,0,0-49.61-66.92v-17.79c2.54.61,5,1.33,7.51,2.16l1,.35c2.55.9,5.06,1.91,7.5,3l1,.47A87.83,87.83,0,0,1,163.91-200l1,1.3a88.52,88.52,0,0,1,6.09,9.3ZM26-147q0-1.11.06-2.22a69,69,0,0,1,31.53-55l1-.64a69.36,69.36,0,0,1,7.5-4.05l1-.45a70.35,70.35,0,0,1,7.54-2.84l1-.28c1.52-.45,3.07-.85,4.64-1.19l1-.22A69.19,69.19,0,0,1,95-215.32a69.19,69.19,0,0,1,13.67,1.37l1,.22c1.58.34,3.13.74,4.67,1.19l1,.29a67.74,67.74,0,0,1,7.51,2.83l1,.45a69.36,69.36,0,0,1,7.5,4.05l1,.64a69,69,0,0,1,31.53,55.09c0,.66,0,1.32,0,2,0,.23,0,.46,0,.7A69,69,0,0,1,95-77.69,69,69,0,0,1,26-146.55C26-146.71,26-146.88,26-147Zm-1,.4c0,.07,0,.14,0,.2v.2A69.54,69.54,0,0,0,26-135.18l0,.53a70.07,70.07,0,0,0,31.6,47.38l1,.64a69.63,69.63,0,0,0,7.5,4l1,.45a68,68,0,0,0,7.54,2.78v18.06q-3.84-.91-7.54-2.16l-1-.35c-2.55-.9-5.06-1.91-7.5-3l-1-.47A88,88,0,0,1,26-92.76l-1-1.31a87.49,87.49,0,0,1-6.09-9.3v-86a88.52,88.52,0,0,1,6.09-9.3l1-1.3a87.83,87.83,0,0,1,31.6-25.37l1-.47c2.44-1.12,5-2.13,7.5-3l1-.35q3.7-1.25,7.54-2.16v17.78A70.06,70.06,0,0,0,25-146.64ZM11.84-173.29a86.7,86.7,0,0,1,6.08-14.27v82.38a87,87,0,0,1-6.08-14.26Zm-1,50.56a87,87,0,0,1-3.25-23.64A87.06,87.06,0,0,1,10.84-170Zm1-53.65v-17.73a95.4,95.4,0,0,1,6.08-9.27v13.75A88.83,88.83,0,0,0,11.84-176.38Zm-1,2.93a87.91,87.91,0,0,0-4.25,27.08,87.93,87.93,0,0,0,4.25,27.09v18.87a95.25,95.25,0,0,1-11.76-46,95.31,95.31,0,0,1,11.76-46Zm1,57.1a88.72,88.72,0,0,0,6.08,13.24v13.76a96.63,96.63,0,0,1-6.08-9.27Zm7.08,15a91.06,91.06,0,0,0,6.09,9l1,1.27a89,89,0,0,0,31.6,24.86l1,.47c2.44,1.11,5,2.1,7.5,3l1,.34a86.75,86.75,0,0,0,12.7,3.19L74-52.81c-2.32-.52-4.6-1.12-6.86-1.81l-1-.31q-3.82-1.2-7.5-2.72l-1-.41A96.38,96.38,0,0,1,26-79.82l-1-1.05Q21.8-84.3,18.92-88ZM75.65-61.15v-18c1.52.44,3.07.83,4.64,1.17v17.75C78.73-60.5,77.18-60.8,75.65-61.15Zm38.65-18v18c-1.54.35-3.1.65-4.67.92V-78C111.21-78.32,112.76-78.72,114.3-79.16Zm8.51,16.67,1-.34c2.55-.89,5.06-1.88,7.5-3l1-.47a89,89,0,0,0,31.6-24.86l1-1.27a88.75,88.75,0,0,0,6.09-9V-88q-2.88,3.72-6.09,7.16l-1,1.05a96.23,96.23,0,0,1-31.6,21.76l-1,.41q-3.67,1.51-7.5,2.72l-1,.31c-2.26.69-4.54,1.29-6.86,1.81l-5.84-6.49A86.75,86.75,0,0,0,122.81-62.49ZM172-103.1a88.83,88.83,0,0,0,6.08-13.25v17.73A98.57,98.57,0,0,1,172-89.35Zm7.08-16.18a87.93,87.93,0,0,0,4.25-27.09,88,88,0,0,0-4.25-27.09v-18.87a95.28,95.28,0,0,1,11.76,46,95.32,95.32,0,0,1-11.76,46Zm-1-57.11A88.72,88.72,0,0,0,172-189.63v-13.75a97.29,97.29,0,0,1,6.08,9.27Zm-7.08-15a89.75,89.75,0,0,0-6.09-8.95l-1-1.27a89,89,0,0,0-31.6-24.87l-1-.47c-2.44-1.1-5-2.1-7.5-3l-1-.34a88.06,88.06,0,0,0-12.7-3.2l5.84-6.48c2.32.52,4.6,1.12,6.86,1.8l1,.31q3.82,1.22,7.5,2.73l1,.41a96.2,96.2,0,0,1,31.6,21.75l1,1q3.21,3.44,6.09,7.17Zm-56.7-40.22v17.73c-1.54-.44-3.09-.84-4.67-1.18V-232.5C111.2-232.24,112.76-231.93,114.3-231.58ZM75.65-213.85v-17.74c1.53-.34,3.08-.65,4.64-.91V-215C78.72-214.69,77.17-214.29,75.65-213.85Zm-8.54-16.39-1,.34c-2.55.88-5.06,1.88-7.5,3l-1,.47A89,89,0,0,0,26-201.58l-1,1.27a89.75,89.75,0,0,0-6.09,8.95V-204.7q2.88-3.74,6.09-7.16l1-1.06a96.2,96.2,0,0,1,31.6-21.75l1-.41q3.68-1.51,7.5-2.73l1-.31c2.26-.68,4.54-1.28,6.86-1.8l5.84,6.48A88.06,88.06,0,0,0,67.11-230.24Zm-77.95,83.87a105.26,105.26,0,0,1,21.68-64.08v16.07a96.34,96.34,0,0,0-12.76,48,96.31,96.31,0,0,0,12.76,48v16.08A105.29,105.29,0,0,1-10.84-146.37ZM11.84-81V-96.66a96.54,96.54,0,0,0,6.08,9v13.77C15.8-76.19,13.76-78.54,11.84-81Zm6.08,39.71-6.08-6.08v-32q2.89,3.58,6.08,6.92Zm49.19-3.91-1,.62Q62.3-45.65,58.61-47l-1-.38A105.92,105.92,0,0,1,26-66.19l-1-.87q-3.15-2.79-6.09-5.82V-86.4c1.92,2.42,3.95,4.76,6.09,7l1,1A97.28,97.28,0,0,0,57.61-57l1,.41c2.45,1,5,1.9,7.5,2.7l1,.3q3,.9,6.09,1.62ZM95-50.49A96.26,96.26,0,0,1,75.1-52.56L81-59.1s.32-1,.31-1v-17.7A70,70,0,0,0,95-76.42a70,70,0,0,0,13.67-1.35v17.7s.3,1,.31,1l5.88,6.54A96.26,96.26,0,0,1,95-50.49Zm70-16.57-1,.87a105.92,105.92,0,0,1-31.6,18.81l-1,.38q-3.69,1.35-7.5,2.43l-1-.62-6.09-6.76q3.07-.72,6.09-1.62l1-.3c2.54-.8,5.05-1.71,7.5-2.7l1-.41a97.26,97.26,0,0,0,31.6-21.4l1-1q3.21-3.34,6.09-7v13.52Q168.06-69.85,164.91-67.06Zm13.17,19.7L172-41.27v-31.2q3.18-3.33,6.08-6.92ZM172-73.93V-87.7a96.54,96.54,0,0,0,6.08-9V-81C176.16-78.54,174.12-76.19,172-73.93Zm28.76-72.44a105.26,105.26,0,0,1-21.68,64.09V-98.36a96.21,96.21,0,0,0,12.76-48,96.24,96.24,0,0,0-12.76-48v-16.07A105.26,105.26,0,0,1,200.76-146.37Zm-22.68-65.38v15.67a99.28,99.28,0,0,0-6.08-9v-13.77C174.12-216.54,176.16-214.19,178.08-211.75ZM172-251.46l6.08,6.09v32q-2.9-3.6-6.08-6.92Zm-49.19,3.92,1-.63q3.81,1.08,7.5,2.44l1,.38a105.89,105.89,0,0,1,31.6,18.8l1,.88q3.15,2.79,6.09,5.82v13.52q-2.88-3.64-6.09-7l-1-1a97.1,97.1,0,0,0-31.6-21.4l-1-.41c-2.45-1-5-1.9-7.5-2.7l-1-.3c-2-.6-4-1.15-6.09-1.62ZM95-242.25a95.58,95.58,0,0,1,19.86,2.08l-5.88,6.54s-.32,1-.31,1v17.43A70,70,0,0,0,95-216.59a70,70,0,0,0-13.67,1.35v-17.43s-.3-1-.31-1l-5.88-6.54A95.58,95.58,0,0,1,95-242.25Zm-27.85-5.29,6.09,6.76c-2,.47-4.08,1-6.09,1.62l-1,.3q-3.82,1.2-7.5,2.7l-1,.41A97.26,97.26,0,0,0,26-214.35l-1,1q-3.21,3.34-6.09,7v-13.52q2.94-3,6.09-5.82l1-.88a105.89,105.89,0,0,1,31.6-18.8l1-.38q3.69-1.36,7.5-2.44Z"/></g></g><path class="cls-1" d="M67.11-249.48v-58.73h-1v59c-2.54.72-5,1.52-7.5,2.42v-59.08h-1v59.45A107,107,0,0,0,26-227.86L25-227q-3.15,2.74-6.09,5.73v-31.18L25-258.55l1-1v-46.28H25V-260l-6.09,6.09v-52h-1v53l-6.08,6.08-1,.91v33.79a106.26,106.26,0,0,0-22.68,65.72A106.29,106.29,0,0,0,10.84-80.64V-47l1,1,6.08,6.09v53h1v-52L25-32.77V13.14h1V-33.15l-1-1-6.09-6.09V-71.45q2.94,3,6.09,5.72l1,.85a107.06,107.06,0,0,0,31.6,18.57V13.14h1V-45.94c2.46.89,5,1.7,7.5,2.41V14.94h1v-58.2l.43-.92,6.79-7.53A96.73,96.73,0,0,0,95-49.49a96.73,96.73,0,0,0,20.63-2.22l6.78,7.53.44.92v58.2h1V-43.53c2.54-.71,5-1.52,7.5-2.41V13.14h1V-46.31a107.06,107.06,0,0,0,31.6-18.57l1-.85c2.1-1.82,4.13-3.74,6.09-5.72v31.18l-6.09,6.08-1,1.08V13.14h1V-32.77L171-38.86v52h1v-53l6.08-6.09,1-1V-80.64a106.29,106.29,0,0,0,22.68-65.73,106.29,106.29,0,0,0-22.68-65.73v-33.67l-1-1L172-252.87v-53h-1v52L164.91-260v-45.91h-1v46.27l1,1.05,6.09,6.09v31.17q-2.94-3-6.09-5.72l-1-.85a107,107,0,0,0-31.6-18.56v-59.45h-1v59.08c-2.46-.9-5-1.7-7.5-2.42v-59h-1v58.73s-.45.92-.43.92L115.59-241A97.38,97.38,0,0,0,95-243.25,97.38,97.38,0,0,0,74.33-241l-6.78-7.53S67.12-249.48,67.11-249.48Zm-55.27,4.11,6.08-6.09v31.2q-3.18,3.33-6.08,6.92Zm6.08,26.56V-205a98,98,0,0,0-6.08,9v-15.68C13.76-214.19,15.8-216.54,17.92-218.81Zm160.16,99.37A87.07,87.07,0,0,1,172-105.17v-82.39a87,87,0,0,1,6.08,14.26Zm1-50.57a87,87,0,0,1,3.25,23.64,87.14,87.14,0,0,1-3.25,23.65ZM171-103.36a88.52,88.52,0,0,1-6.09,9.3l-1,1.3a87.94,87.94,0,0,1-31.6,25.37l-1,.47c-2.44,1.12-5,2.13-7.5,3l-1,.35c-2.46.82-5,1.54-7.51,2.15v-18a67.47,67.47,0,0,0,7.51-2.78l1-.45a69.63,69.63,0,0,0,7.5-4l1-.64a70.07,70.07,0,0,0,31.6-47.38l0-.52a69.94,69.94,0,0,0,1-11.1v-.15c0-.08,0-.15,0-.22a70.06,70.06,0,0,0-49.61-66.92v-17.79c2.54.61,5,1.33,7.51,2.16l1,.35c2.55.9,5.06,1.91,7.5,3l1,.47A87.83,87.83,0,0,1,163.91-200l1,1.3a88.52,88.52,0,0,1,6.09,9.3ZM26-147q0-1.11.06-2.22a69,69,0,0,1,31.53-55l1-.64a69.36,69.36,0,0,1,7.5-4.05l1-.45a70.35,70.35,0,0,1,7.54-2.84l1-.28c1.52-.45,3.07-.85,4.64-1.19l1-.22A69.19,69.19,0,0,1,95-215.32a69.19,69.19,0,0,1,13.67,1.37l1,.22c1.58.34,3.13.74,4.67,1.19l1,.29a67.74,67.74,0,0,1,7.51,2.83l1,.45a69.36,69.36,0,0,1,7.5,4.05l1,.64a69,69,0,0,1,31.53,55.09c0,.66,0,1.32,0,2,0,.23,0,.46,0,.7A69,69,0,0,1,95-77.69,69,69,0,0,1,26-146.55C26-146.71,26-146.88,26-147Zm-1,.4c0,.07,0,.14,0,.2v.2A69.54,69.54,0,0,0,26-135.18l0,.53a70.07,70.07,0,0,0,31.6,47.38l1,.64a69.63,69.63,0,0,0,7.5,4l1,.45a68,68,0,0,0,7.54,2.78v18.06q-3.84-.91-7.54-2.16l-1-.35c-2.55-.9-5.06-1.91-7.5-3l-1-.47A88,88,0,0,1,26-92.76l-1-1.31a87.49,87.49,0,0,1-6.09-9.3v-86a88.52,88.52,0,0,1,6.09-9.3l1-1.3a87.83,87.83,0,0,1,31.6-25.37l1-.47c2.44-1.12,5-2.13,7.5-3l1-.35q3.7-1.25,7.54-2.16v17.78A70.06,70.06,0,0,0,25-146.64ZM11.84-173.29a86.7,86.7,0,0,1,6.08-14.27v82.38a87,87,0,0,1-6.08-14.26Zm-1,50.56a87,87,0,0,1-3.25-23.64A87.06,87.06,0,0,1,10.84-170Zm1-53.65v-17.73a95.4,95.4,0,0,1,6.08-9.27v13.75A88.83,88.83,0,0,0,11.84-176.38Zm-1,2.93a87.91,87.91,0,0,0-4.25,27.08,87.93,87.93,0,0,0,4.25,27.09v18.87a95.25,95.25,0,0,1-11.76-46,95.31,95.31,0,0,1,11.76-46Zm1,57.1a88.72,88.72,0,0,0,6.08,13.24v13.76a96.63,96.63,0,0,1-6.08-9.27Zm7.08,15a91.06,91.06,0,0,0,6.09,9l1,1.27a89,89,0,0,0,31.6,24.86l1,.47c2.44,1.11,5,2.1,7.5,3l1,.34a86.75,86.75,0,0,0,12.7,3.19L74-52.81c-2.32-.52-4.6-1.12-6.86-1.81l-1-.31q-3.82-1.2-7.5-2.72l-1-.41A96.38,96.38,0,0,1,26-79.82l-1-1.05Q21.8-84.3,18.92-88ZM75.65-61.15v-18c1.52.44,3.07.83,4.64,1.17v17.75C78.73-60.5,77.18-60.8,75.65-61.15Zm38.65-18v18c-1.54.35-3.1.65-4.67.92V-78C111.21-78.32,112.76-78.72,114.3-79.16Zm8.51,16.67,1-.34c2.55-.89,5.06-1.88,7.5-3l1-.47a89,89,0,0,0,31.6-24.86l1-1.27a88.75,88.75,0,0,0,6.09-9V-88q-2.88,3.72-6.09,7.16l-1,1.05a96.23,96.23,0,0,1-31.6,21.76l-1,.41q-3.67,1.51-7.5,2.72l-1,.31c-2.26.69-4.54,1.29-6.86,1.81l-5.84-6.49A86.75,86.75,0,0,0,122.81-62.49ZM172-103.1a88.83,88.83,0,0,0,6.08-13.25v17.73A98.57,98.57,0,0,1,172-89.35Zm7.08-16.18a87.93,87.93,0,0,0,4.25-27.09,88,88,0,0,0-4.25-27.09v-18.87a95.28,95.28,0,0,1,11.76,46,95.32,95.32,0,0,1-11.76,46Zm-1-57.11A88.72,88.72,0,0,0,172-189.63v-13.75a97.29,97.29,0,0,1,6.08,9.27Zm-7.08-15a89.75,89.75,0,0,0-6.09-8.95l-1-1.27a89,89,0,0,0-31.6-24.87l-1-.47c-2.44-1.1-5-2.1-7.5-3l-1-.34a88.06,88.06,0,0,0-12.7-3.2l5.84-6.48c2.32.52,4.6,1.12,6.86,1.8l1,.31q3.82,1.22,7.5,2.73l1,.41a96.2,96.2,0,0,1,31.6,21.75l1,1q3.21,3.44,6.09,7.17Zm-56.7-40.22v17.73c-1.54-.44-3.09-.84-4.67-1.18V-232.5C111.2-232.24,112.76-231.93,114.3-231.58ZM75.65-213.85v-17.74c1.53-.34,3.08-.65,4.64-.91V-215C78.72-214.69,77.17-214.29,75.65-213.85Zm-8.54-16.39-1,.34c-2.55.88-5.06,1.88-7.5,3l-1,.47A89,89,0,0,0,26-201.58l-1,1.27a89.75,89.75,0,0,0-6.09,8.95V-204.7q2.88-3.74,6.09-7.16l1-1.06a96.2,96.2,0,0,1,31.6-21.75l1-.41q3.68-1.51,7.5-2.73l1-.31c2.26-.68,4.54-1.28,6.86-1.8l5.84,6.48A88.06,88.06,0,0,0,67.11-230.24Zm-77.95,83.87a105.26,105.26,0,0,1,21.68-64.08v16.07a96.34,96.34,0,0,0-12.76,48,96.31,96.31,0,0,0,12.76,48v16.08A105.29,105.29,0,0,1-10.84-146.37ZM11.84-81V-96.66a96.54,96.54,0,0,0,6.08,9v13.77C15.8-76.19,13.76-78.54,11.84-81Zm6.08,39.71-6.08-6.08v-32q2.89,3.58,6.08,6.92Zm49.19-3.91-1,.62Q62.3-45.65,58.61-47l-1-.38A105.92,105.92,0,0,1,26-66.19l-1-.87q-3.15-2.79-6.09-5.82V-86.4c1.92,2.42,3.95,4.76,6.09,7l1,1A97.28,97.28,0,0,0,57.61-57l1,.41c2.45,1,5,1.9,7.5,2.7l1,.3q3,.9,6.09,1.62ZM95-50.49A96.26,96.26,0,0,1,75.1-52.56L81-59.1s.32-1,.31-1v-17.7A70,70,0,0,0,95-76.42a70,70,0,0,0,13.67-1.35v17.7s.3,1,.31,1l5.88,6.54A96.26,96.26,0,0,1,95-50.49Zm70-16.57-1,.87a105.92,105.92,0,0,1-31.6,18.81l-1,.38q-3.69,1.35-7.5,2.43l-1-.62-6.09-6.76q3.07-.72,6.09-1.62l1-.3c2.54-.8,5.05-1.71,7.5-2.7l1-.41a97.26,97.26,0,0,0,31.6-21.4l1-1q3.21-3.34,6.09-7v13.52Q168.06-69.85,164.91-67.06Zm13.17,19.7L172-41.27v-31.2q3.18-3.33,6.08-6.92ZM172-73.93V-87.7a96.54,96.54,0,0,0,6.08-9V-81C176.16-78.54,174.12-76.19,172-73.93Zm28.76-72.44a105.26,105.26,0,0,1-21.68,64.09V-98.36a96.21,96.21,0,0,0,12.76-48,96.24,96.24,0,0,0-12.76-48v-16.07A105.26,105.26,0,0,1,200.76-146.37Zm-22.68-65.38v15.67a99.28,99.28,0,0,0-6.08-9v-13.77C174.12-216.54,176.16-214.19,178.08-211.75ZM172-251.46l6.08,6.09v32q-2.9-3.6-6.08-6.92Zm-49.19,3.92,1-.63q3.81,1.08,7.5,2.44l1,.38a105.89,105.89,0,0,1,31.6,18.8l1,.88q3.15,2.79,6.09,5.82v13.52q-2.88-3.64-6.09-7l-1-1a97.1,97.1,0,0,0-31.6-21.4l-1-.41c-2.45-1-5-1.9-7.5-2.7l-1-.3c-2-.6-4-1.15-6.09-1.62ZM95-242.25a95.58,95.58,0,0,1,19.86,2.08l-5.88,6.54s-.32,1-.31,1v17.43A70,70,0,0,0,95-216.59a70,70,0,0,0-13.67,1.35v-17.43s-.3-1-.31-1l-5.88-6.54A95.58,95.58,0,0,1,95-242.25Zm-27.85-5.29,6.09,6.76c-2,.47-4.08,1-6.09,1.62l-1,.3q-3.82,1.2-7.5,2.7l-1,.41A97.26,97.26,0,0,0,26-214.35l-1,1q-3.21,3.34-6.09,7v-13.52q2.94-3,6.09-5.82l1-.88a105.89,105.89,0,0,1,31.6-18.8l1-.38q3.69-1.36,7.5-2.44Z"/><path class="cls-5" d="M179.08-212.1v-33.67l-1-1L172-252.87v-53h-1v52L164.91-260v-45.91h-1v46.27l1,1.05,6.09,6.09v31.17q-2.94-3-6.09-5.72l-1-.85a107,107,0,0,0-31.6-18.56v-59.45h-1v59.08c-2.46-.9-5-1.7-7.5-2.42v-59h-1v58.73s-.45.92-.44.92L115.59-241A97.38,97.38,0,0,0,95-243.25,97.38,97.38,0,0,0,74.33-241l-6.78-7.53s-.43-.92-.44-.92v-58.73h-1v59c-2.54.72-5,1.52-7.5,2.42v-59.08h-1v59.45A107,107,0,0,0,26-227.86L25-227q-3.15,2.74-6.09,5.73v-31.18L25-258.55l1-1v-46.28H25V-260l-6.09,6.09v-52h-1v53l-6.08,6.08-1,.91v33.79a106.26,106.26,0,0,0-22.68,65.72A106.29,106.29,0,0,0,10.84-80.64V-47l1,1,6.08,6.09v53h1v-52L25-32.77V13.14h1V-33.15l-1-1-6.09-6.09V-71.45q2.94,3,6.09,5.72l1,.85a107.06,107.06,0,0,0,31.6,18.57V13.14h1V-45.94c2.46.89,5,1.7,7.5,2.41V14.94h1v-58.2l.43-.92,6.79-7.53A96.73,96.73,0,0,0,95-49.49a96.73,96.73,0,0,0,20.63-2.22l6.78,7.53.44.92v58.2h1V-43.53c2.54-.71,5-1.52,7.5-2.41V13.14h1V-46.31a107.06,107.06,0,0,0,31.6-18.57l1-.85c2.1-1.82,4.13-3.74,6.09-5.72v31.18l-6.09,6.08-1,1.08V13.14h1V-32.77L171-38.86v52h1v-53l6.08-6.09,1-1V-80.64a106.29,106.29,0,0,0,22.68-65.73A106.29,106.29,0,0,0,179.08-212.1ZM10.84-122.73a87,87,0,0,1-3.25-23.64A87.06,87.06,0,0,1,10.84-170Zm0-50.72a87.91,87.91,0,0,0-4.25,27.08,87.93,87.93,0,0,0,4.25,27.09v18.87a95.25,95.25,0,0,1-11.76-46,95.31,95.31,0,0,1,11.76-46Zm0-20.93a96.34,96.34,0,0,0-12.76,48,96.31,96.31,0,0,0,12.76,48v16.08a105.29,105.29,0,0,1-21.68-64.09,105.26,105.26,0,0,1,21.68-64.08Zm7.08,153.1-6.08-6.08v-32q2.89,3.58,6.08,6.92Zm0-32.65c-2.12-2.26-4.16-4.61-6.08-7.06V-96.66a96.54,96.54,0,0,0,6.08,9Zm0-15.42a96.63,96.63,0,0,1-6.08-9.27v-17.73a88.72,88.72,0,0,0,6.08,13.24Zm0-15.83a87,87,0,0,1-6.08-14.26v-53.85a86.7,86.7,0,0,1,6.08-14.27Zm0-84.45a88.83,88.83,0,0,0-6.08,13.25v-17.73a95.4,95.4,0,0,1,6.08-9.27Zm0-15.41a98,98,0,0,0-6.08,9v-15.68c1.92-2.44,4-4.79,6.08-7.06Zm0-15.22q-3.18,3.33-6.08,6.92v-32l6.08-6.09Zm77-22a95.58,95.58,0,0,1,19.86,2.08l-5.88,6.54s-.32,1-.31,1v17.43A70,70,0,0,0,95-216.59a70,70,0,0,0-13.67,1.35v-17.43s-.3-1-.31-1l-5.88-6.54A95.58,95.58,0,0,1,95-242.25ZM95-77.69A69,69,0,0,1,26-146.55c0-.16,0-.33,0-.49q0-1.11.06-2.22a69,69,0,0,1,31.53-55l1-.64a69.36,69.36,0,0,1,7.5-4.05l1-.45a70.35,70.35,0,0,1,7.54-2.84l1-.28c1.52-.45,3.07-.85,4.64-1.19l1-.22A69.19,69.19,0,0,1,95-215.32a69.19,69.19,0,0,1,13.67,1.37l1,.22c1.58.34,3.13.74,4.67,1.19l1,.29a67.74,67.74,0,0,1,7.51,2.83l1,.45a69.36,69.36,0,0,1,7.5,4.05l1,.64a69,69,0,0,1,31.53,55.09c0,.66,0,1.32,0,2,0,.23,0,.46,0,.7A69,69,0,0,1,95-77.69Zm19.34-1.47v18c-1.54.35-3.1.65-4.67.92V-78C111.21-78.32,112.76-78.72,114.3-79.16ZM80.29-78v17.75c-1.56-.27-3.11-.57-4.64-.92v-18C77.17-78.71,78.72-78.32,80.29-78ZM75.65-213.85v-17.74c1.53-.34,3.08-.65,4.64-.91V-215C78.72-214.69,77.17-214.29,75.65-213.85Zm38.65,0c-1.54-.44-3.09-.84-4.67-1.18V-232.5c1.57.26,3.13.57,4.67.92Zm-95.38-6q2.94-3,6.09-5.82l1-.88a105.89,105.89,0,0,1,31.6-18.8l1-.38q3.69-1.36,7.5-2.44l1,.63,6.09,6.76c-2,.47-4.08,1-6.09,1.62l-1,.3q-3.82,1.2-7.5,2.7l-1,.41A97.26,97.26,0,0,0,26-214.35l-1,1q-3.21,3.34-6.09,7Zm0,15.15q2.88-3.74,6.09-7.16l1-1.06a96.2,96.2,0,0,1,31.6-21.75l1-.41q3.68-1.51,7.5-2.73l1-.31c2.26-.68,4.54-1.28,6.86-1.8l5.84,6.48a88.06,88.06,0,0,0-12.7,3.2l-1,.34c-2.55.88-5.06,1.88-7.5,3l-1,.47A89,89,0,0,0,26-201.58l-1,1.27a89.75,89.75,0,0,0-6.09,8.95Zm0,15.33a88.52,88.52,0,0,1,6.09-9.3l1-1.3a87.83,87.83,0,0,1,31.6-25.37l1-.47c2.44-1.12,5-2.13,7.5-3l1-.35q3.7-1.25,7.54-2.16v17.78A70.06,70.06,0,0,0,25-146.64c0,.07,0,.14,0,.2v.2A69.54,69.54,0,0,0,26-135.18l0,.53a70.07,70.07,0,0,0,31.6,47.38l1,.64a69.63,69.63,0,0,0,7.5,4l1,.45a68,68,0,0,0,7.54,2.78v18.06q-3.84-.91-7.54-2.16l-1-.35c-2.55-.9-5.06-1.91-7.5-3l-1-.47A88,88,0,0,1,26-92.76l-1-1.31a87.49,87.49,0,0,1-6.09-9.3ZM67.11-45.19l-1,.62Q62.3-45.65,58.61-47l-1-.38A105.92,105.92,0,0,1,26-66.19l-1-.87q-3.15-2.79-6.09-5.82V-86.4c1.92,2.42,3.95,4.76,6.09,7l1,1A97.28,97.28,0,0,0,57.61-57l1,.41c2.45,1,5,1.9,7.5,2.7l1,.3q3,.9,6.09,1.62ZM74-52.81c-2.32-.52-4.6-1.12-6.86-1.81l-1-.31q-3.82-1.2-7.5-2.72l-1-.41A96.38,96.38,0,0,1,26-79.82l-1-1.05Q21.8-84.3,18.92-88v-13.34a91.06,91.06,0,0,0,6.09,9l1,1.27a89,89,0,0,0,31.6,24.86l1,.47c2.44,1.11,5,2.1,7.5,3l1,.34a86.75,86.75,0,0,0,12.7,3.19Zm21,2.32A96.26,96.26,0,0,1,75.1-52.56L81-59.1s.32-1,.31-1v-17.7A70,70,0,0,0,95-76.42a70,70,0,0,0,13.67-1.35v17.7s.3,1,.31,1l5.88,6.54A96.26,96.26,0,0,1,95-50.49Zm76-22.39q-2.94,3-6.09,5.82l-1,.87a105.92,105.92,0,0,1-31.6,18.81l-1,.38q-3.69,1.35-7.5,2.43l-1-.62-6.09-6.76q3.07-.72,6.09-1.62l1-.3c2.54-.8,5.05-1.71,7.5-2.7l1-.41a97.26,97.26,0,0,0,31.6-21.4l1-1q3.21-3.34,6.09-7ZM171-88q-2.88,3.72-6.09,7.16l-1,1.05a96.23,96.23,0,0,1-31.6,21.76l-1,.41q-3.67,1.51-7.5,2.72l-1,.31c-2.26.69-4.54,1.29-6.86,1.81l-5.84-6.49a86.75,86.75,0,0,0,12.7-3.19l1-.34c2.55-.89,5.06-1.88,7.5-3l1-.47a89,89,0,0,0,31.6-24.86l1-1.27a88.75,88.75,0,0,0,6.09-9Zm0-15.33a88.52,88.52,0,0,1-6.09,9.3l-1,1.3a87.94,87.94,0,0,1-31.6,25.37l-1,.47c-2.44,1.12-5,2.13-7.5,3l-1,.35c-2.46.82-5,1.54-7.51,2.15v-18a67.47,67.47,0,0,0,7.51-2.78l1-.45a69.63,69.63,0,0,0,7.5-4l1-.64a70.07,70.07,0,0,0,31.6-47.38l0-.52a69.94,69.94,0,0,0,1-11.1v-.15c0-.08,0-.15,0-.22a70.06,70.06,0,0,0-49.61-66.92v-17.79c2.54.61,5,1.33,7.51,2.16l1,.35c2.55.9,5.06,1.91,7.5,3l1,.47A87.83,87.83,0,0,1,163.91-200l1,1.3a88.52,88.52,0,0,1,6.09,9.3Zm0-88a89.75,89.75,0,0,0-6.09-8.95l-1-1.27a89,89,0,0,0-31.6-24.87l-1-.47c-2.44-1.1-5-2.1-7.5-3l-1-.34a88.06,88.06,0,0,0-12.7-3.2l5.84-6.48c2.32.52,4.6,1.12,6.86,1.8l1,.31q3.82,1.22,7.5,2.73l1,.41a96.2,96.2,0,0,1,31.6,21.75l1,1q3.21,3.44,6.09,7.17Zm0-15q-2.88-3.64-6.09-7l-1-1a97.1,97.1,0,0,0-31.6-21.4l-1-.41c-2.45-1-5-1.9-7.5-2.7l-1-.3c-2-.6-4-1.15-6.09-1.62l6.09-6.76,1-.63q3.81,1.08,7.5,2.44l1,.38a105.89,105.89,0,0,1,31.6,18.8l1,.88q3.15,2.79,6.09,5.82Zm7.08,159L172-41.27v-31.2q3.18-3.33,6.08-6.92Zm0-33.62c-1.92,2.44-4,4.79-6.08,7V-87.7a96.54,96.54,0,0,0,6.08-9Zm0-17.64A98.57,98.57,0,0,1,172-89.35V-103.1a88.83,88.83,0,0,0,6.08-13.25Zm0-20.82A87.07,87.07,0,0,1,172-105.17v-82.39a87,87,0,0,1,6.08,14.26Zm0-56.95A88.72,88.72,0,0,0,172-189.63v-13.75a97.29,97.29,0,0,1,6.08,9.27Zm0-19.69a99.28,99.28,0,0,0-6.08-9v-13.77c2.12,2.27,4.16,4.62,6.08,7.06Zm0-17.26q-2.9-3.6-6.08-6.92v-31.2l6.08,6.09Zm1,43.33a87,87,0,0,1,3.25,23.64,87.14,87.14,0,0,1-3.25,23.65Zm0,50.73a87.93,87.93,0,0,0,4.25-27.09,88,88,0,0,0-4.25-27.09v-18.87a95.28,95.28,0,0,1,11.76,46,95.32,95.32,0,0,1-11.76,46Zm0,20.92a96.31,96.31,0,0,0,12.76-48,96.34,96.34,0,0,0-12.76-48v-16.07a105.26,105.26,0,0,1,21.68,64.08,105.26,105.26,0,0,1-21.68,64.09Z"/></g><g class="cls-6"><rect class="cls-7" x="-5.67" y="-5.67" width="189.92" height="260.79"/><g class="cls-8"><path class="cls-9" d="M173.41,92.29V58.62l-1-1-6.08-6.09v-53h-1v52l-6.09-6.09V-1.49h-1V44.78l1,1.06,6.09,6.08V83.1q-2.94-3-6.09-5.73l-1-.84A106.72,106.72,0,0,0,126.64,58V-1.49h-1V57.59c-2.46-.89-5-1.7-7.5-2.41v-59h-1V54.91a9.65,9.65,0,0,0-.43.92l-6.79,7.53a97,97,0,0,0-41.26,0l-6.78-7.53s-.43-.93-.44-.92V-3.83h-1v59c-2.54.71-5,1.52-7.5,2.41V-1.49h-1V58a107.06,107.06,0,0,0-31.6,18.57l-1,.85q-3.15,2.73-6.08,5.72V51.92l6.08-6.08,1-1.05V-1.49h-1V44.42l-6.08,6.09v-52h-1v53L6.17,57.6l-1,.9V92.29a106.57,106.57,0,0,0,0,131.45V257.4l1,1,6.09,6.08v53h1v-52l6.08,6.09v45.92h1v-46.3l-1-1-6.08-6.08V232.93q2.93,3,6.08,5.73l1,.85a107,107,0,0,0,31.6,18.56v59.46h1V258.44c2.46.89,5,1.7,7.5,2.41v58.47h1v-58.2l.44-.91,6.78-7.54a97,97,0,0,0,41.26,0l6.79,7.54.43.92v58.19h1V260.85q3.81-1.07,7.5-2.41v59.09h1V258.07a106.9,106.9,0,0,0,31.6-18.56l1-.85q3.15-2.74,6.09-5.73v31.18l-6.09,6.08-1,1.08v46.26h1V271.61l6.09-6.09v52h1v-53l6.08-6.08,1-1V223.74a106.57,106.57,0,0,0,0-131.45ZM5.17,181.65a87.57,87.57,0,0,1,0-47.27Zm0-50.72a88.43,88.43,0,0,0,0,54.17V204a95.69,95.69,0,0,1,0-91.92Zm0-20.92a96.68,96.68,0,0,0,0,96V222.1a105.56,105.56,0,0,1,0-128.17Zm7.09,153.1L6.17,257V225q2.89,3.58,6.09,6.92Zm0-32.66c-2.13-2.26-4.17-4.61-6.09-7V207.72a96.15,96.15,0,0,0,6.09,9Zm0-15.42a96.73,96.73,0,0,1-6.09-9.27V188a87.88,87.88,0,0,0,6.09,13.25Zm0-15.82a85.89,85.89,0,0,1-6.09-14.27V131.09a86.15,86.15,0,0,1,6.09-14.26Zm0-84.46A88.33,88.33,0,0,0,6.17,128V110.27A96.73,96.73,0,0,1,12.26,101Zm0-15.4a94.7,94.7,0,0,0-6.09,9V92.63c1.92-2.44,4-4.79,6.09-7Zm0-15.23Q9.07,87.45,6.17,91V59l6.09-6.09Zm77-22a96.26,96.26,0,0,1,19.86,2.07l-5.88,6.54s-.32,1-.31,1V89.15a69.89,69.89,0,0,0-27.34,0V71.71s-.3-1-.31-1l-5.88-6.54A96.26,96.26,0,0,1,89.29,62.14Zm0,164.55a69,69,0,0,1-68.95-68.86c0-.16,0-.32,0-.49,0-.74,0-1.48.06-2.21a69,69,0,0,1,31.53-55l1-.65a67.58,67.58,0,0,1,7.5-4l1-.46A70.35,70.35,0,0,1,69,92.12l1-.28c1.52-.45,3.07-.84,4.64-1.19l1-.22a69.38,69.38,0,0,1,27.34,0l1,.22c1.58.35,3.13.75,4.67,1.2l1,.28A69.8,69.8,0,0,1,117.14,95l1,.45a69.36,69.36,0,0,1,7.5,4l1,.65a69,69,0,0,1,31.54,55.08c0,.66,0,1.32,0,2,0,.24,0,.47,0,.7A69,69,0,0,1,89.29,226.69Zm19.34-1.46v18c-1.54.35-3.1.66-4.67.92V226.4C105.54,226.07,107.09,225.67,108.63,225.23Zm-34,1.17v17.75c-1.56-.26-3.11-.57-4.64-.91v-18C71.51,225.67,73.05,226.07,74.62,226.4ZM70,90.53V72.8c1.53-.35,3.08-.65,4.64-.92V89.36C73.05,89.69,71.51,90.09,70,90.53Zm38.65,0c-1.54-.44-3.09-.84-4.67-1.17V71.88c1.57.27,3.13.57,4.67.92Zm-95.37-6q2.93-3,6.08-5.82l1-.87A105.92,105.92,0,0,1,51.94,59l1-.38c2.46-.9,5-1.72,7.5-2.44l1,.63,6.09,6.76q-3.07.72-6.09,1.62l-1,.3c-2.54.8-5,1.7-7.5,2.7l-1,.41A97.26,97.26,0,0,0,20.34,90l-1,1q-3.21,3.34-6.08,7Zm0,15.15q2.87-3.72,6.08-7.16l1-1a96.33,96.33,0,0,1,31.6-21.76l1-.41c2.45-1,5-1.92,7.5-2.72l1-.31C63.7,65.58,66,65,68.3,64.46L74.14,71a86.75,86.75,0,0,0-12.7,3.19l-1,.34c-2.55.89-5.06,1.88-7.5,3l-1,.47a89,89,0,0,0-31.6,24.86l-1,1.27a87,87,0,0,0-6.08,9Zm0,15.34a87,87,0,0,1,6.08-9.31l1-1.3A87.94,87.94,0,0,1,51.94,79l1-.47c2.44-1.12,5-2.13,7.5-3l1-.35Q65.15,73.94,69,73V90.81a70.08,70.08,0,0,0-49.64,66.93c0,.07,0,.14,0,.21v.19a69.44,69.44,0,0,0,.95,11.06l0,.53a70.08,70.08,0,0,0,31.6,47.38l1,.65a69.56,69.56,0,0,0,7.5,4l1,.46A72.22,72.22,0,0,0,69,225V243q-3.84-.92-7.54-2.16l-1-.35c-2.55-.9-5.06-1.91-7.5-3l-1-.47a87.83,87.83,0,0,1-31.6-25.37l-1-1.3a86.88,86.88,0,0,1-6.08-9.3ZM61.44,259.19l-1,.63c-2.54-.72-5-1.54-7.5-2.44l-1-.38a106.1,106.1,0,0,1-31.6-18.8l-1-.88q-3.15-2.79-6.08-5.82V218q2.87,3.65,6.08,7l1,1a97.26,97.26,0,0,0,31.6,21.4l1,.41c2.45,1,5,1.9,7.5,2.7l1,.3c2,.6,4,1.15,6.09,1.62Zm6.86-7.62c-2.32-.52-4.6-1.12-6.86-1.8l-1-.31c-2.54-.81-5-1.72-7.5-2.73l-1-.41a96.3,96.3,0,0,1-31.6-21.75l-1-1.06q-3.21-3.42-6.08-7.16V203a87,87,0,0,0,6.08,9l1,1.27a89,89,0,0,0,31.6,24.87l1,.46c2.44,1.11,5,2.11,7.5,3l1,.34a88.06,88.06,0,0,0,12.7,3.2Zm21,2.32a95.58,95.58,0,0,1-19.86-2.07l5.88-6.54s.32-1,.31-1V226.61a69.38,69.38,0,0,0,27.34,0v17.71s.3,1,.31,1l5.88,6.54A95.58,95.58,0,0,1,89.29,253.89Zm76-22.39c-2,2-4,4-6.09,5.82l-1,.88a105.89,105.89,0,0,1-31.6,18.8l-1,.38c-2.46.9-5,1.72-7.5,2.44l-1-.63-6.09-6.76c2.06-.47,4.08-1,6.09-1.62l1-.3q3.83-1.2,7.5-2.7l1-.41a97.26,97.26,0,0,0,31.6-21.4l1-1q3.21-3.34,6.09-7Zm0-15.15q-2.88,3.74-6.09,7.16l-1,1.06a96.2,96.2,0,0,1-31.6,21.75l-1,.41q-3.67,1.52-7.5,2.73l-1,.31c-2.26.68-4.54,1.28-6.86,1.8l-5.84-6.48a88.06,88.06,0,0,0,12.7-3.2l1-.34c2.55-.88,5.06-1.88,7.5-3l1-.46a89,89,0,0,0,31.6-24.87l1-1.27a89.75,89.75,0,0,0,6.09-9Zm0-15.33a88.52,88.52,0,0,1-6.09,9.3l-1,1.3A87.83,87.83,0,0,1,126.64,237l-1,.47c-2.44,1.12-5,2.13-7.5,3l-1,.35c-2.46.83-5,1.55-7.51,2.16V224.94a69.47,69.47,0,0,0,7.51-2.77l1-.46a69.56,69.56,0,0,0,7.5-4l1-.65a70,70,0,0,0,31.6-47.38l0-.51a70,70,0,0,0,.95-11.1V158c0-.07,0-.14,0-.22a70.07,70.07,0,0,0-49.61-66.92V73c2.54.61,5.05,1.32,7.51,2.15l1,.35c2.55.9,5.06,1.91,7.5,3l1,.47a87.94,87.94,0,0,1,31.6,25.37l1,1.3a88.52,88.52,0,0,1,6.09,9.3Zm0-88a88.75,88.75,0,0,0-6.09-9l-1-1.27a89,89,0,0,0-31.6-24.86l-1-.47c-2.44-1.11-5-2.1-7.5-3l-1-.34A86.75,86.75,0,0,0,104.44,71l5.84-6.49c2.32.52,4.6,1.12,6.86,1.81l1,.3q3.83,1.22,7.5,2.73l1,.41a96.2,96.2,0,0,1,31.6,21.75l1,1.06c2.14,2.28,4.17,4.68,6.09,7.16Zm0-15q-2.88-3.64-6.09-7l-1-1a97.26,97.26,0,0,0-31.6-21.4l-1-.41q-3.67-1.5-7.5-2.7l-1-.3c-2-.6-4-1.14-6.09-1.62l6.09-6.76,1-.63c2.54.72,5,1.54,7.5,2.44l1,.38a106.1,106.1,0,0,1,31.6,18.8l1,.88c2.1,1.86,4.14,3.8,6.09,5.82Zm7.08,159-6.08,6.09v-31.2q3.18-3.33,6.08-6.92Zm0-33.62c-1.92,2.44-4,4.79-6.08,7.06V216.69a97.24,97.24,0,0,0,6.08-9Zm0-17.64a95.4,95.4,0,0,1-6.08,9.27V201.28A88.72,88.72,0,0,0,172.41,188Zm0-20.81a87,87,0,0,1-6.08,14.26V116.82a87,87,0,0,1,6.08,14.26Zm0-56.95a88.83,88.83,0,0,0-6.08-13.25V101a96.63,96.63,0,0,1,6.08,9.27Zm0-19.69a96.06,96.06,0,0,0-6.08-9V85.58c2.12,2.26,4.16,4.61,6.08,7Zm0-17.27q-2.9-3.58-6.08-6.92V52.92L172.41,59Zm1,43.33a87.38,87.38,0,0,1,0,47.29Zm0,50.74a88.26,88.26,0,0,0,0-54.18V112.05a95.71,95.71,0,0,1,0,91.93Zm0,20.92a96.7,96.7,0,0,0,0-96V93.93a105.56,105.56,0,0,1,0,128.17Z"/><path class="cls-9" d="M7.52,239.49v2l-.5-.44-.16.19,3,2.59.17-.18L9.25,243v-2.41h1.23v1.12l-.66.57.17.18,1.43-1.25-.17-.18-.52.46v-2l.52.46.17-.18-1.5-1.32-.16.19.72.63v1.11H9.25V238l.69-.61-.16-.18-3,2.6L7,240ZM9,242.82l-1.23-1.07v-1.12H9Zm0-2.44H7.77v-1.11L9,238.2Z"/></g></g><path id="path25239" class="cls-9" d="M88.36,118.07a26.29,26.29,0,0,0-18.84,7.7c-3.55,3.38-7.29,9-8,12-1.11,4.61-5.35,9.18-8.52,9.18-1.87,0-3.71,1.76-4.11,3.93-.59,3.11.1,4.91,2.29,6,3,1.49,10.47,3.21,16,3.68,2.73.23,5.19.72,5.47,1.09s1.64,3.67,3,7.32c3.28,8.64,3.81,9.61,5.4,9.84,1.28.19,1.34.46,1.34,6v5.82l-1.74-2.09-1.75-2.09-7.6-.2c-6.87-.18-7.81-.08-9.66,1.06-4.17,2.59-3.51,9.67,1.08,11.52,2.05.83,18.1.72,19-.13a4.45,4.45,0,0,0,.74-2.56v-1.84l1,1.58a7.81,7.81,0,0,0,5.71,3.54c1.94,0,5.27-2.13,5.9-3.77.58-1.49,1-.83,1.37,2l.18,1.51,8.75.19c9.71.2,11.57-.28,13.46-3.48,1.33-2.26,1.28-4.11-.19-6.53-1.66-2.71-3.22-3.15-11.26-3.15h-7l-2,2c-1.12,1.12-2.18,1.89-2.35,1.71a27.36,27.36,0,0,1-.33-5.65c0-4.91.1-5.33,1.2-5.33,1.47,0,2.28-1.21,6.9-10.45l3.68-7.34,3.61-.47c6.09-.79,13.16-2.4,15.42-3.51,3.19-1.58,3.76-2.52,3.27-5.42s-2.1-4.78-4-4.78a10.11,10.11,0,0,1-3.61-1.31l-2.33-1.31-.16-13c-.16-12.56-.21-13-1.37-13s-1.22.46-1.37,7.84a73.25,73.25,0,0,1-.48,8.73c-.21.58-.78,0-1.65-1.76-2.15-4.28-8.06-9.82-13.17-12.34-3.84-1.9-5.3-2.28-9.92-2.58-1.15-.07-2.27-.1-3.35-.09Zm.68,3.24c6.65,0,7.1.06,11,2a27.78,27.78,0,0,1,12.75,13,29.17,29.17,0,0,1,2.15,5.27c0,1.74,3.36,5.55,6.13,6.95a14.08,14.08,0,0,0,3.8,1.46c.51,0,.93.31.93.68,0,.71-1.11.63-9.35-.66-7.17-1.13-6.74-.88-7.18-4.16a25.83,25.83,0,0,0-2.21-6.6c-4.2-8.4-13.18-12.51-22.82-10.44a19.72,19.72,0,0,0-14.69,15.31,16.77,16.77,0,0,1-1.15,4.32c-.27.3-2.6.91-5.18,1.35-7.7,1.31-11,1.62-11,1,0-.31,1.2-.89,2.68-1.28a12.16,12.16,0,0,0,7.84-6.9c3.47-8.3,5.28-11.32,8.7-14.48a36.4,36.4,0,0,1,7.08-5c3.29-1.61,4.09-1.75,10.5-1.77Zm-.9,10a18.28,18.28,0,0,1,9.49,2c5.12,2.93,8.9,9.27,8.9,14.91,0,6.49-5.52,14.18-11.76,16.35-7.6,2.65-15.66-.3-20.22-7.41a18.13,18.13,0,0,1-1.48-14.91,19.85,19.85,0,0,1,9.48-9.82,15.94,15.94,0,0,1,5.59-1.16Zm1.15,3.65h-.55a13.16,13.16,0,0,0-11.54,7.64,9.71,9.71,0,0,0-1.28,6.7,13.21,13.21,0,0,0,9.7,11.87c3.33,1,3.68,1,7.49-.16a13,13,0,0,0,8.85-9.06c.9-3,1-4,.36-6.22-1.82-6.93-7.39-10.68-13-10.77Zm-.12,3a10.39,10.39,0,0,1,8.41,4.32C98.74,143.87,99,145,99,148.55c0,4.14-.1,4.44-2.11,6.55a13.83,13.83,0,0,1-3.32,2.67c-7,2.7-14-1.5-14.65-8.69-.33-4,1.1-6.71,4.87-9.45a9.23,9.23,0,0,1,5.39-1.71Zm-.72,3.78c-3,.11-7.39,5-5.42,7.37,1,1.15,2,.83,2.3-.68s2.5-3.88,3.78-3.88c1.51,0,2-1.16,1-2.2A2.13,2.13,0,0,0,88.45,141.7Zm22.11,10.18.38.06c.73.17,4,.77,7.2,1.34s5.89,1.21,5.89,1.44-2,.87-4.4,1.43a81,81,0,0,1-8.15,1.42c-4.24.44-4.43.19-2.8-3.69.66-1.6,1.07-2.07,1.88-2Zm-42.16.3c.87.07,1.09.47,1.37,1.68a21.23,21.23,0,0,0,.86,2.87c.37.91.11,1-1.89,1-4-.14-13.91-2.15-14.39-2.92-.28-.46,8.85-2.29,12.93-2.58a8.8,8.8,0,0,1,1.12,0Zm33.71,12.44a37.45,37.45,0,0,1-2.6,5.74c-3,5.85-3.94,6.55-6.52,4.6-1.48-1.12-5.6-1.11-7.57,0h0c-2.68,1.53-3.54,1.14-5.08-2.35a35.9,35.9,0,0,1-1.85-5.13l-.41-1.87L81,166.94c2.21,1,4.17,1.31,8.05,1.35,4.64.05,5.49-.13,9-1.91a19.1,19.1,0,0,1,4.08-1.76ZM89.48,177.09c2.92,0,3.18.77,3.18,9.44,0,7.57-.07,8-1.34,8.93-1.86,1.29-3.06,1.17-4.59-.46-1.21-1.28-1.31-2-1.31-9,0-8.41.21-8.88,4.06-8.88Zm-19.14,12c3.4,0,6.8.35,7.49,1A6.14,6.14,0,0,1,79.28,195h0c-.19,1-1,1.12-7.79,1.27s-7.68.05-8.59-.95a4.08,4.08,0,0,1-.06-5.21c.69-.68,4.09-1,7.5-1Zm37.86.09c6.25,0,6.77.09,7.65,1.34,1.29,1.85,1.18,3.05-.46,4.58-1.27,1.2-2,1.32-8.75,1.32H99.29v-2.63C99.29,189.65,100.24,189.16,108.2,189.16Z"/><rect class="cls-9" x="-5.67" y="-5.67" width="189.92" height="45.68"/><polygon class="cls-9" points="184.25 -5.67 121.97 -5.67 143.03 20.5 184.25 20.5 184.25 -5.67"/><polygon class="cls-9" points="-5.67 -5.67 56.62 -5.67 35.55 20.5 -5.67 20.5 -5.67 -5.67"/><polygon class="cls-7" points="122.48 -5.67 121.96 -5.67 121.5 -5.29 142.79 21 184.25 21 184.25 20 143.27 20 122.48 -5.67"/><polygon class="cls-7" points="56.1 -5.67 35.31 20 -5.67 20 -5.67 21 35.79 21 57.08 -5.29 56.62 -5.67 56.1 -5.67"/></svg>