<svg id="Layer_1" data-name="Layer 1" xmlns="http://www.w3.org/2000/svg" xmlns:xlink="http://www.w3.org/1999/xlink" viewBox="0 0 178.58 249.45"><defs><style>.cls-1{fill:none;}.cls-2{clip-path:url(#clip-path);}.cls-3{opacity:0.4;}.cls-4,.cls-5,.cls-7{fill:#090400;}.cls-4{opacity:0.05;}.cls-5{opacity:0.1;}.cls-6{clip-path:url(#clip-path-3);}.cls-8{opacity:0.15;}.cls-9{fill:#fff;}</style><clipPath id="clip-path"><rect class="cls-1" y="-310.05" width="189.92" height="260.79"/></clipPath><clipPath id="clip-path-3"><rect class="cls-1" x="-5.67" y="-5.67" width="189.92" height="260.79"/></clipPath></defs><g class="cls-2"><g class="cls-3"><g class="cls-2"><path class="cls-4" d="M67.11-249.48v-58.73h-1v59c-2.54.72-5,1.52-7.5,2.42v-59.08h-1v59.45A107,107,0,0,0,26-227.86L25-227q-3.15,2.74-6.09,5.73v-31.18L25-258.55l1-1v-46.28H25V-260l-6.09,6.09v-52h-1v53l-6.08,6.08-1,.91v33.79a106.26,106.26,0,0,0-22.68,65.72A106.29,106.29,0,0,0,10.84-80.64V-47l1,1,6.08,6.09v53h1v-52L25-32.77V13.14h1V-33.15l-1-1-6.09-6.09V-71.45q2.94,3,6.09,5.72l1,.85a107.06,107.06,0,0,0,31.6,18.57V13.14h1V-45.94c2.46.89,5,1.7,7.5,2.41V14.94h1v-58.2l.43-.92,6.79-7.53A96.73,96.73,0,0,0,95-49.49a96.73,96.73,0,0,0,20.63-2.22l6.78,7.53.44.92v58.2h1V-43.53c2.54-.71,5-1.52,7.5-2.41V13.14h1V-46.31a107.06,107.06,0,0,0,31.6-18.57l1-.85c2.1-1.82,4.13-3.74,6.09-5.72v31.18l-6.09,6.08-1,1.08V13.14h1V-32.77L171-38.86v52h1v-53l6.08-6.09,1-1V-80.64a106.29,106.29,0,0,0,22.68-65.73,106.29,106.29,0,0,0-22.68-65.73v-33.67l-1-1L172-252.87v-53h-1v52L164.91-260v-45.91h-1v46.27l1,1.05,6.09,6.09v31.17q-2.94-3-6.09-5.72l-1-.85a107,107,0,0,0-31.6-18.56v-59.45h-1v59.08c-2.46-.9-5-1.7-7.5-2.42v-59h-1v58.73s-.45.92-.43.92L115.59-241A97.38,97.38,0,0,0,95-243.25,97.38,97.38,0,0,0,74.33-241l-6.78-7.53S67.12-249.48,67.11-249.48Zm-55.27,4.11,6.08-6.09v31.2q-3.18,3.33-6.08,6.92Zm6.08,26.56V-205a98,98,0,0,0-6.08,9v-15.68C13.76-214.19,15.8-216.54,17.92-218.81Zm160.16,99.37A87.07,87.07,0,0,1,172-105.17v-82.39a87,87,0,0,1,6.08,14.26Zm1-50.57a87,87,0,0,1,3.25,23.64,87.14,87.14,0,0,1-3.25,23.65ZM171-103.36a88.52,88.52,0,0,1-6.09,9.3l-1,1.3a87.94,87.94,0,0,1-31.6,25.37l-1,.47c-2.44,1.12-5,2.13-7.5,3l-1,.35c-2.46.82-5,1.54-7.51,2.15v-18a67.47,67.47,0,0,0,7.51-2.78l1-.45a69.63,69.63,0,0,0,7.5-4l1-.64a70.07,70.07,0,0,0,31.6-47.38l0-.52a69.94,69.94,0,0,0,1-11.1v-.15c0-.08,0-.15,0-.22a70.06,70.06,0,0,0-49.61-66.92v-17.79c2.54.61,5,1.33,7.51,2.16l1,.35c2.55.9,5.06,1.91,7.5,3l1,.47A87.83,87.83,0,0,1,163.91-200l1,1.3a88.52,88.52,0,0,1,6.09,9.3ZM26-147q0-1.11.06-2.22a69,69,0,0,1,31.53-55l1-.64a69.36,69.36,0,0,1,7.5-4.05l1-.45a70.35,70.35,0,0,1,7.54-2.84l1-.28c1.52-.45,3.07-.85,4.64-1.19l1-.22A69.19,69.19,0,0,1,95-215.32a69.19,69.19,0,0,1,13.67,1.37l1,.22c1.58.34,3.13.74,4.67,1.19l1,.29a67.74,67.74,0,0,1,7.51,2.83l1,.45a69.36,69.36,0,0,1,7.5,4.05l1,.64a69,69,0,0,1,31.53,55.09c0,.66,0,1.32,0,2,0,.23,0,.46,0,.7A69,69,0,0,1,95-77.69,69,69,0,0,1,26-146.55C26-146.71,26-146.88,26-147Zm-1,.4c0,.07,0,.14,0,.2v.2A69.54,69.54,0,0,0,26-135.18l0,.53a70.07,70.07,0,0,0,31.6,47.38l1,.64a69.63,69.63,0,0,0,7.5,4l1,.45a68,68,0,0,0,7.54,2.78v18.06q-3.84-.91-7.54-2.16l-1-.35c-2.55-.9-5.06-1.91-7.5-3l-1-.47A88,88,0,0,1,26-92.76l-1-1.31a87.49,87.49,0,0,1-6.09-9.3v-86a88.52,88.52,0,0,1,6.09-9.3l1-1.3a87.83,87.83,0,0,1,31.6-25.37l1-.47c2.44-1.12,5-2.13,7.5-3l1-.35q3.7-1.25,7.54-2.16v17.78A70.06,70.06,0,0,0,25-146.64ZM11.84-173.29a86.7,86.7,0,0,1,6.08-14.27v82.38a87,87,0,0,1-6.08-14.26Zm-1,50.56a87,87,0,0,1-3.25-23.64A87.06,87.06,0,0,1,10.84-170Zm1-53.65v-17.73a95.4,95.4,0,0,1,6.08-9.27v13.75A88.83,88.83,0,0,0,11.84-176.38Zm-1,2.93a87.91,87.91,0,0,0-4.25,27.08,87.93,87.93,0,0,0,4.25,27.09v18.87a95.25,95.25,0,0,1-11.76-46,95.31,95.31,0,0,1,11.76-46Zm1,57.1a88.72,88.72,0,0,0,6.08,13.24v13.76a96.63,96.63,0,0,1-6.08-9.27Zm7.08,15a91.06,91.06,0,0,0,6.09,9l1,1.27a89,89,0,0,0,31.6,24.86l1,.47c2.44,1.11,5,2.1,7.5,3l1,.34a86.75,86.75,0,0,0,12.7,3.19L74-52.81c-2.32-.52-4.6-1.12-6.86-1.81l-1-.31q-3.82-1.2-7.5-2.72l-1-.41A96.38,96.38,0,0,1,26-79.82l-1-1.05Q21.8-84.3,18.92-88ZM75.65-61.15v-18c1.52.44,3.07.83,4.64,1.17v17.75C78.73-60.5,77.18-60.8,75.65-61.15Zm38.65-18v18c-1.54.35-3.1.65-4.67.92V-78C111.21-78.32,112.76-78.72,114.3-79.16Zm8.51,16.67,1-.34c2.55-.89,5.06-1.88,7.5-3l1-.47a89,89,0,0,0,31.6-24.86l1-1.27a88.75,88.75,0,0,0,6.09-9V-88q-2.88,3.72-6.09,7.16l-1,1.05a96.23,96.23,0,0,1-31.6,21.76l-1,.41q-3.67,1.51-7.5,2.72l-1,.31c-2.26.69-4.54,1.29-6.86,1.81l-5.84-6.49A86.75,86.75,0,0,0,122.81-62.49ZM172-103.1a88.83,88.83,0,0,0,6.08-13.25v17.73A98.57,98.57,0,0,1,172-89.35Zm7.08-16.18a87.93,87.93,0,0,0,4.25-27.09,88,88,0,0,0-4.25-27.09v-18.87a95.28,95.28,0,0,1,11.76,46,95.32,95.32,0,0,1-11.76,46Zm-1-57.11A88.72,88.72,0,0,0,172-189.63v-13.75a97.29,97.29,0,0,1,6.08,9.27Zm-7.08-15a89.75,89.75,0,0,0-6.09-8.95l-1-1.27a89,89,0,0,0-31.6-24.87l-1-.47c-2.44-1.1-5-2.1-7.5-3l-1-.34a88.06,88.06,0,0,0-12.7-3.2l5.84-6.48c2.32.52,4.6,1.12,6.86,1.8l1,.31q3.82,1.22,7.5,2.73l1,.41a96.2,96.2,0,0,1,31.6,21.75l1,1q3.21,3.44,6.09,7.17Zm-56.7-40.22v17.73c-1.54-.44-3.09-.84-4.67-1.18V-232.5C111.2-232.24,112.76-231.93,114.3-231.58ZM75.65-213.85v-17.74c1.53-.34,3.08-.65,4.64-.91V-215C78.72-214.69,77.17-214.29,75.65-213.85Zm-8.54-16.39-1,.34c-2.55.88-5.06,1.88-7.5,3l-1,.47A89,89,0,0,0,26-201.58l-1,1.27a89.75,89.75,0,0,0-6.09,8.95V-204.7q2.88-3.74,6.09-7.16l1-1.06a96.2,96.2,0,0,1,31.6-21.75l1-.41q3.68-1.51,7.5-2.73l1-.31c2.26-.68,4.54-1.28,6.86-1.8l5.84,6.48A88.06,88.06,0,0,0,67.11-230.24Zm-77.95,83.87a105.26,105.26,0,0,1,21.68-64.08v16.07a96.34,96.34,0,0,0-12.76,48,96.31,96.31,0,0,0,12.76,48v16.08A105.29,105.29,0,0,1-10.84-146.37ZM11.84-81V-96.66a96.54,96.54,0,0,0,6.08,9v13.77C15.8-76.19,13.76-78.54,11.84-81Zm6.08,39.71-6.08-6.08v-32q2.89,3.58,6.08,6.92Zm49.19-3.91-1,.62Q62.3-45.65,58.61-47l-1-.38A105.92,105.92,0,0,1,26-66.19l-1-.87q-3.15-2.79-6.09-5.82V-86.4c1.92,2.42,3.95,4.76,6.09,7l1,1A97.28,97.28,0,0,0,57.61-57l1,.41c2.45,1,5,1.9,7.5,2.7l1,.3q3,.9,6.09,1.62ZM95-50.49A96.26,96.26,0,0,1,75.1-52.56L81-59.1s.32-1,.31-1v-17.7A70,70,0,0,0,95-76.42a70,70,0,0,0,13.67-1.35v17.7s.3,1,.31,1l5.88,6.54A96.26,96.26,0,0,1,95-50.49Zm70-16.57-1,.87a105.92,105.92,0,0,1-31.6,18.81l-1,.38q-3.69,1.35-7.5,2.43l-1-.62-6.09-6.76q3.07-.72,6.09-1.62l1-.3c2.54-.8,5.05-1.71,7.5-2.7l1-.41a97.26,97.26,0,0,0,31.6-21.4l1-1q3.21-3.34,6.09-7v13.52Q168.06-69.85,164.91-67.06Zm13.17,19.7L172-41.27v-31.2q3.18-3.33,6.08-6.92ZM172-73.93V-87.7a96.54,96.54,0,0,0,6.08-9V-81C176.16-78.54,174.12-76.19,172-73.93Zm28.76-72.44a105.26,105.26,0,0,1-21.68,64.09V-98.36a96.21,96.21,0,0,0,12.76-48,96.24,96.24,0,0,0-12.76-48v-16.07A105.26,105.26,0,0,1,200.76-146.37Zm-22.68-65.38v15.67a99.28,99.28,0,0,0-6.08-9v-13.77C174.12-216.54,176.16-214.19,178.08-211.75ZM172-251.46l6.08,6.09v32q-2.9-3.6-6.08-6.92Zm-49.19,3.92,1-.63q3.81,1.08,7.5,2.44l1,.38a105.89,105.89,0,0,1,31.6,18.8l1,.88q3.15,2.79,6.09,5.82v13.52q-2.88-3.64-6.09-7l-1-1a97.1,97.1,0,0,0-31.6-21.4l-1-.41c-2.45-1-5-1.9-7.5-2.7l-1-.3c-2-.6-4-1.15-6.09-1.62ZM95-242.25a95.58,95.58,0,0,1,19.86,2.08l-5.88,6.54s-.32,1-.31,1v17.43A70,70,0,0,0,95-216.59a70,70,0,0,0-13.67,1.35v-17.43s-.3-1-.31-1l-5.88-6.54A95.58,95.58,0,0,1,95-242.25Zm-27.85-5.29,6.09,6.76c-2,.47-4.08,1-6.09,1.62l-1,.3q-3.82,1.2-7.5,2.7l-1,.41A97.26,97.26,0,0,0,26-214.35l-1,1q-3.21,3.34-6.09,7v-13.52q2.94-3,6.09-5.82l1-.88a105.89,105.89,0,0,1,31.6-18.8l1-.38q3.69-1.36,7.5-2.44Z"/></g></g><path class="cls-1" d="M67.11-249.48v-58.73h-1v59c-2.54.72-5,1.52-7.5,2.42v-59.08h-1v59.45A107,107,0,0,0,26-227.86L25-227q-3.15,2.74-6.09,5.73v-31.18L25-258.55l1-1v-46.28H25V-260l-6.09,6.09v-52h-1v53l-6.08,6.08-1,.91v33.79a106.26,106.26,0,0,0-22.68,65.72A106.29,106.29,0,0,0,10.84-80.64V-47l1,1,6.08,6.09v53h1v-52L25-32.77V13.14h1V-33.15l-1-1-6.09-6.09V-71.45q2.94,3,6.09,5.72l1,.85a107.06,107.06,0,0,0,31.6,18.57V13.14h1V-45.94c2.46.89,5,1.7,7.5,2.41V14.94h1v-58.2l.43-.92,6.79-7.53A96.73,96.73,0,0,0,95-49.49a96.73,96.73,0,0,0,20.63-2.22l6.78,7.53.44.92v58.2h1V-43.53c2.54-.71,5-1.52,7.5-2.41V13.14h1V-46.31a107.06,107.06,0,0,0,31.6-18.57l1-.85c2.1-1.82,4.13-3.74,6.09-5.72v31.18l-6.09,6.08-1,1.08V13.14h1V-32.77L171-38.86v52h1v-53l6.08-6.09,1-1V-80.64a106.29,106.29,0,0,0,22.68-65.73,106.29,106.29,0,0,0-22.68-65.73v-33.67l-1-1L172-252.87v-53h-1v52L164.91-260v-45.91h-1v46.27l1,1.05,6.09,6.09v31.17q-2.94-3-6.09-5.72l-1-.85a107,107,0,0,0-31.6-18.56v-59.45h-1v59.08c-2.46-.9-5-1.7-7.5-2.42v-59h-1v58.73s-.45.92-.43.92L115.59-241A97.38,97.38,0,0,0,95-243.25,97.38,97.38,0,0,0,74.33-241l-6.78-7.53S67.12-249.48,67.11-249.48Zm-55.27,4.11,6.08-6.09v31.2q-3.18,3.33-6.08,6.92Zm6.08,26.56V-205a98,98,0,0,0-6.08,9v-15.68C13.76-214.19,15.8-216.54,17.92-218.81Zm160.16,99.37A87.07,87.07,0,0,1,172-105.17v-82.39a87,87,0,0,1,6.08,14.26Zm1-50.57a87,87,0,0,1,3.25,23.64,87.14,87.14,0,0,1-3.25,23.65ZM171-103.36a88.52,88.52,0,0,1-6.09,9.3l-1,1.3a87.94,87.94,0,0,1-31.6,25.37l-1,.47c-2.44,1.12-5,2.13-7.5,3l-1,.35c-2.46.82-5,1.54-7.51,2.15v-18a67.47,67.47,0,0,0,7.51-2.78l1-.45a69.63,69.63,0,0,0,7.5-4l1-.64a70.07,70.07,0,0,0,31.6-47.38l0-.52a69.94,69.94,0,0,0,1-11.1v-.15c0-.08,0-.15,0-.22a70.06,70.06,0,0,0-49.61-66.92v-17.79c2.54.61,5,1.33,7.51,2.16l1,.35c2.55.9,5.06,1.91,7.5,3l1,.47A87.83,87.83,0,0,1,163.91-200l1,1.3a88.52,88.52,0,0,1,6.09,9.3ZM26-147q0-1.11.06-2.22a69,69,0,0,1,31.53-55l1-.64a69.36,69.36,0,0,1,7.5-4.05l1-.45a70.35,70.35,0,0,1,7.54-2.84l1-.28c1.52-.45,3.07-.85,4.64-1.19l1-.22A69.19,69.19,0,0,1,95-215.32a69.19,69.19,0,0,1,13.67,1.37l1,.22c1.58.34,3.13.74,4.67,1.19l1,.29a67.74,67.74,0,0,1,7.51,2.83l1,.45a69.36,69.36,0,0,1,7.5,4.05l1,.64a69,69,0,0,1,31.53,55.09c0,.66,0,1.32,0,2,0,.23,0,.46,0,.7A69,69,0,0,1,95-77.69,69,69,0,0,1,26-146.55C26-146.71,26-146.88,26-147Zm-1,.4c0,.07,0,.14,0,.2v.2A69.54,69.54,0,0,0,26-135.18l0,.53a70.07,70.07,0,0,0,31.6,47.38l1,.64a69.63,69.63,0,0,0,7.5,4l1,.45a68,68,0,0,0,7.54,2.78v18.06q-3.84-.91-7.54-2.16l-1-.35c-2.55-.9-5.06-1.91-7.5-3l-1-.47A88,88,0,0,1,26-92.76l-1-1.31a87.49,87.49,0,0,1-6.09-9.3v-86a88.52,88.52,0,0,1,6.09-9.3l1-1.3a87.83,87.83,0,0,1,31.6-25.37l1-.47c2.44-1.12,5-2.13,7.5-3l1-.35q3.7-1.25,7.54-2.16v17.78A70.06,70.06,0,0,0,25-146.64ZM11.84-173.29a86.7,86.7,0,0,1,6.08-14.27v82.38a87,87,0,0,1-6.08-14.26Zm-1,50.56a87,87,0,0,1-3.25-23.64A87.06,87.06,0,0,1,10.84-170Zm1-53.65v-17.73a95.4,95.4,0,0,1,6.08-9.27v13.75A88.83,88.83,0,0,0,11.84-176.38Zm-1,2.93a87.91,87.91,0,0,0-4.25,27.08,87.93,87.93,0,0,0,4.25,27.09v18.87a95.25,95.25,0,0,1-11.76-46,95.31,95.31,0,0,1,11.76-46Zm1,57.1a88.72,88.72,0,0,0,6.08,13.24v13.76a96.63,96.63,0,0,1-6.08-9.27Zm7.08,15a91.06,91.06,0,0,0,6.09,9l1,1.27a89,89,0,0,0,31.6,24.86l1,.47c2.44,1.11,5,2.1,7.5,3l1,.34a86.75,86.75,0,0,0,12.7,3.19L74-52.81c-2.32-.52-4.6-1.12-6.86-1.81l-1-.31q-3.82-1.2-7.5-2.72l-1-.41A96.38,96.38,0,0,1,26-79.82l-1-1.05Q21.8-84.3,18.92-88ZM75.65-61.15v-18c1.52.44,3.07.83,4.64,1.17v17.75C78.73-60.5,77.18-60.8,75.65-61.15Zm38.65-18v18c-1.54.35-3.1.65-4.67.92V-78C111.21-78.32,112.76-78.72,114.3-79.16Zm8.51,16.67,1-.34c2.55-.89,5.06-1.88,7.5-3l1-.47a89,89,0,0,0,31.6-24.86l1-1.27a88.75,88.75,0,0,0,6.09-9V-88q-2.88,3.72-6.09,7.16l-1,1.05a96.23,96.23,0,0,1-31.6,21.76l-1,.41q-3.67,1.51-7.5,2.72l-1,.31c-2.26.69-4.54,1.29-6.86,1.81l-5.84-6.49A86.75,86.75,0,0,0,122.81-62.49ZM172-103.1a88.83,88.83,0,0,0,6.08-13.25v17.73A98.57,98.57,0,0,1,172-89.35Zm7.08-16.18a87.93,87.93,0,0,0,4.25-27.09,88,88,0,0,0-4.25-27.09v-18.87a95.28,95.28,0,0,1,11.76,46,95.32,95.32,0,0,1-11.76,46Zm-1-57.11A88.72,88.72,0,0,0,172-189.63v-13.75a97.29,97.29,0,0,1,6.08,9.27Zm-7.08-15a89.75,89.75,0,0,0-6.09-8.95l-1-1.27a89,89,0,0,0-31.6-24.87l-1-.47c-2.44-1.1-5-2.1-7.5-3l-1-.34a88.06,88.06,0,0,0-12.7-3.2l5.84-6.48c2.32.52,4.6,1.12,6.86,1.8l1,.31q3.82,1.22,7.5,2.73l1,.41a96.2,96.2,0,0,1,31.6,21.75l1,1q3.21,3.44,6.09,7.17Zm-56.7-40.22v17.73c-1.54-.44-3.09-.84-4.67-1.18V-232.5C111.2-232.24,112.76-231.93,114.3-231.58ZM75.65-213.85v-17.74c1.53-.34,3.08-.65,4.64-.91V-215C78.72-214.69,77.17-214.29,75.65-213.85Zm-8.54-16.39-1,.34c-2.55.88-5.06,1.88-7.5,3l-1,.47A89,89,0,0,0,26-201.58l-1,1.27a89.75,89.75,0,0,0-6.09,8.95V-204.7q2.88-3.74,6.09-7.16l1-1.06a96.2,96.2,0,0,1,31.6-21.75l1-.41q3.68-1.51,7.5-2.73l1-.31c2.26-.68,4.54-1.28,6.86-1.8l5.84,6.48A88.06,88.06,0,0,0,67.11-230.24Zm-77.95,83.87a105.26,105.26,0,0,1,21.68-64.08v16.07a96.34,96.34,0,0,0-12.76,48,96.31,96.31,0,0,0,12.76,48v16.08A105.29,105.29,0,0,1-10.84-146.37ZM11.84-81V-96.66a96.54,96.54,0,0,0,6.08,9v13.77C15.8-76.19,13.76-78.54,11.84-81Zm6.08,39.71-6.08-6.08v-32q2.89,3.58,6.08,6.92Zm49.19-3.91-1,.62Q62.3-45.65,58.61-47l-1-.38A105.92,105.92,0,0,1,26-66.19l-1-.87q-3.15-2.79-6.09-5.82V-86.4c1.92,2.42,3.95,4.76,6.09,7l1,1A97.28,97.28,0,0,0,57.61-57l1,.41c2.45,1,5,1.9,7.5,2.7l1,.3q3,.9,6.09,1.62ZM95-50.49A96.26,96.26,0,0,1,75.1-52.56L81-59.1s.32-1,.31-1v-17.7A70,70,0,0,0,95-76.42a70,70,0,0,0,13.67-1.35v17.7s.3,1,.31,1l5.88,6.54A96.26,96.26,0,0,1,95-50.49Zm70-16.57-1,.87a105.92,105.92,0,0,1-31.6,18.81l-1,.38q-3.69,1.35-7.5,2.43l-1-.62-6.09-6.76q3.07-.72,6.09-1.62l1-.3c2.54-.8,5.05-1.71,7.5-2.7l1-.41a97.26,97.26,0,0,0,31.6-21.4l1-1q3.21-3.34,6.09-7v13.52Q168.06-69.85,164.91-67.06Zm13.17,19.7L172-41.27v-31.2q3.18-3.33,6.08-6.92ZM172-73.93V-87.7a96.54,96.54,0,0,0,6.08-9V-81C176.16-78.54,174.12-76.19,172-73.93Zm28.76-72.44a105.26,105.26,0,0,1-21.68,64.09V-98.36a96.21,96.21,0,0,0,12.76-48,96.24,96.24,0,0,0-12.76-48v-16.07A105.26,105.26,0,0,1,200.76-146.37Zm-22.68-65.38v15.67a99.28,99.28,0,0,0-6.08-9v-13.77C174.12-216.54,176.16-214.19,178.08-211.75ZM172-251.46l6.08,6.09v32q-2.9-3.6-6.08-6.92Zm-49.19,3.92,1-.63q3.81,1.08,7.5,2.44l1,.38a105.89,105.89,0,0,1,31.6,18.8l1,.88q3.15,2.79,6.09,5.82v13.52q-2.88-3.64-6.09-7l-1-1a97.1,97.1,0,0,0-31.6-21.4l-1-.41c-2.45-1-5-1.9-7.5-2.7l-1-.3c-2-.6-4-1.15-6.09-1.62ZM95-242.25a95.58,95.58,0,0,1,19.86,2.08l-5.88,6.54s-.32,1-.31,1v17.43A70,70,0,0,0,95-216.59a70,70,0,0,0-13.67,1.35v-17.43s-.3-1-.31-1l-5.88-6.54A95.58,95.58,0,0,1,95-242.25Zm-27.85-5.29,6.09,6.76c-2,.47-4.08,1-6.09,1.62l-1,.3q-3.82,1.2-7.5,2.7l-1,.41A97.26,97.26,0,0,0,26-214.35l-1,1q-3.21,3.34-6.09,7v-13.52q2.94-3,6.09-5.82l1-.88a105.89,105.89,0,0,1,31.6-18.8l1-.38q3.69-1.36,7.5-2.44Z"/><path class="cls-5" d="M179.08-212.1v-33.67l-1-1L172-252.87v-53h-1v52L164.91-260v-45.91h-1v46.27l1,1.05,6.09,6.09v31.17q-2.94-3-6.09-5.72l-1-.85a107,107,0,0,0-31.6-18.56v-59.45h-1v59.08c-2.46-.9-5-1.7-7.5-2.42v-59h-1v58.73s-.45.92-.44.92L115.59-241A97.38,97.38,0,0,0,95-243.25,97.38,97.38,0,0,0,74.33-241l-6.78-7.53s-.43-.92-.44-.92v-58.73h-1v59c-2.54.72-5,1.52-7.5,2.42v-59.08h-1v59.45A107,107,0,0,0,26-227.86L25-227q-3.15,2.74-6.09,5.73v-31.18L25-258.55l1-1v-46.28H25V-260l-6.09,6.09v-52h-1v53l-6.08,6.08-1,.91v33.79a106.26,106.26,0,0,0-22.68,65.72A106.29,106.29,0,0,0,10.84-80.64V-47l1,1,6.08,6.09v53h1v-52L25-32.77V13.14h1V-33.15l-1-1-6.09-6.09V-71.45q2.94,3,6.09,5.72l1,.85a107.06,107.06,0,0,0,31.6,18.57V13.14h1V-45.94c2.46.89,5,1.7,7.5,2.41V14.94h1v-58.2l.43-.92,6.79-7.53A96.73,96.73,0,0,0,95-49.49a96.73,96.73,0,0,0,20.63-2.22l6.78,7.53.44.92v58.2h1V-43.53c2.54-.71,5-1.52,7.5-2.41V13.14h1V-46.31a107.06,107.06,0,0,0,31.6-18.57l1-.85c2.1-1.82,4.13-3.74,6.09-5.72v31.18l-6.09,6.08-1,1.08V13.14h1V-32.77L171-38.86v52h1v-53l6.08-6.09,1-1V-80.64a106.29,106.29,0,0,0,22.68-65.73A106.29,106.29,0,0,0,179.08-212.1ZM10.84-122.73a87,87,0,0,1-3.25-23.64A87.06,87.06,0,0,1,10.84-170Zm0-50.72a87.91,87.91,0,0,0-4.25,27.08,87.93,87.93,0,0,0,4.25,27.09v18.87a95.25,95.25,0,0,1-11.76-46,95.31,95.31,0,0,1,11.76-46Zm0-20.93a96.34,96.34,0,0,0-12.76,48,96.31,96.31,0,0,0,12.76,48v16.08a105.29,105.29,0,0,1-21.68-64.09,105.26,105.26,0,0,1,21.68-64.08Zm7.08,153.1-6.08-6.08v-32q2.89,3.58,6.08,6.92Zm0-32.65c-2.12-2.26-4.16-4.61-6.08-7.06V-96.66a96.54,96.54,0,0,0,6.08,9Zm0-15.42a96.63,96.63,0,0,1-6.08-9.27v-17.73a88.72,88.72,0,0,0,6.08,13.24Zm0-15.83a87,87,0,0,1-6.08-14.26v-53.85a86.7,86.7,0,0,1,6.08-14.27Zm0-84.45a88.83,88.83,0,0,0-6.08,13.25v-17.73a95.4,95.4,0,0,1,6.08-9.27Zm0-15.41a98,98,0,0,0-6.08,9v-15.68c1.92-2.44,4-4.79,6.08-7.06Zm0-15.22q-3.18,3.33-6.08,6.92v-32l6.08-6.09Zm77-22a95.58,95.58,0,0,1,19.86,2.08l-5.88,6.54s-.32,1-.31,1v17.43A70,70,0,0,0,95-216.59a70,70,0,0,0-13.67,1.35v-17.43s-.3-1-.31-1l-5.88-6.54A95.58,95.58,0,0,1,95-242.25ZM95-77.69A69,69,0,0,1,26-146.55c0-.16,0-.33,0-.49q0-1.11.06-2.22a69,69,0,0,1,31.53-55l1-.64a69.36,69.36,0,0,1,7.5-4.05l1-.45a70.35,70.35,0,0,1,7.54-2.84l1-.28c1.52-.45,3.07-.85,4.64-1.19l1-.22A69.19,69.19,0,0,1,95-215.32a69.19,69.19,0,0,1,13.67,1.37l1,.22c1.58.34,3.13.74,4.67,1.19l1,.29a67.74,67.74,0,0,1,7.51,2.83l1,.45a69.36,69.36,0,0,1,7.5,4.05l1,.64a69,69,0,0,1,31.53,55.09c0,.66,0,1.32,0,2,0,.23,0,.46,0,.7A69,69,0,0,1,95-77.69Zm19.34-1.47v18c-1.54.35-3.1.65-4.67.92V-78C111.21-78.32,112.76-78.72,114.3-79.16ZM80.29-78v17.75c-1.56-.27-3.11-.57-4.64-.92v-18C77.17-78.71,78.72-78.32,80.29-78ZM75.65-213.85v-17.74c1.53-.34,3.08-.65,4.64-.91V-215C78.72-214.69,77.17-214.29,75.65-213.85Zm38.65,0c-1.54-.44-3.09-.84-4.67-1.18V-232.5c1.57.26,3.13.57,4.67.92Zm-95.38-6q2.94-3,6.09-5.82l1-.88a105.89,105.89,0,0,1,31.6-18.8l1-.38q3.69-1.36,7.5-2.44l1,.63,6.09,6.76c-2,.47-4.08,1-6.09,1.62l-1,.3q-3.82,1.2-7.5,2.7l-1,.41A97.26,97.26,0,0,0,26-214.35l-1,1q-3.21,3.34-6.09,7Zm0,15.15q2.88-3.74,6.09-7.16l1-1.06a96.2,96.2,0,0,1,31.6-21.75l1-.41q3.68-1.51,7.5-2.73l1-.31c2.26-.68,4.54-1.28,6.86-1.8l5.84,6.48a88.06,88.06,0,0,0-12.7,3.2l-1,.34c-2.55.88-5.06,1.88-7.5,3l-1,.47A89,89,0,0,0,26-201.58l-1,1.27a89.75,89.75,0,0,0-6.09,8.95Zm0,15.33a88.52,88.52,0,0,1,6.09-9.3l1-1.3a87.83,87.83,0,0,1,31.6-25.37l1-.47c2.44-1.12,5-2.13,7.5-3l1-.35q3.7-1.25,7.54-2.16v17.78A70.06,70.06,0,0,0,25-146.64c0,.07,0,.14,0,.2v.2A69.54,69.54,0,0,0,26-135.18l0,.53a70.07,70.07,0,0,0,31.6,47.38l1,.64a69.63,69.63,0,0,0,7.5,4l1,.45a68,68,0,0,0,7.54,2.78v18.06q-3.84-.91-7.54-2.16l-1-.35c-2.55-.9-5.06-1.91-7.5-3l-1-.47A88,88,0,0,1,26-92.76l-1-1.31a87.49,87.49,0,0,1-6.09-9.3ZM67.11-45.19l-1,.62Q62.3-45.65,58.61-47l-1-.38A105.92,105.92,0,0,1,26-66.19l-1-.87q-3.15-2.79-6.09-5.82V-86.4c1.92,2.42,3.95,4.76,6.09,7l1,1A97.28,97.28,0,0,0,57.61-57l1,.41c2.45,1,5,1.9,7.5,2.7l1,.3q3,.9,6.09,1.62ZM74-52.81c-2.32-.52-4.6-1.12-6.86-1.81l-1-.31q-3.82-1.2-7.5-2.72l-1-.41A96.38,96.38,0,0,1,26-79.82l-1-1.05Q21.8-84.3,18.92-88v-13.34a91.06,91.06,0,0,0,6.09,9l1,1.27a89,89,0,0,0,31.6,24.86l1,.47c2.44,1.11,5,2.1,7.5,3l1,.34a86.75,86.75,0,0,0,12.7,3.19Zm21,2.32A96.26,96.26,0,0,1,75.1-52.56L81-59.1s.32-1,.31-1v-17.7A70,70,0,0,0,95-76.42a70,70,0,0,0,13.67-1.35v17.7s.3,1,.31,1l5.88,6.54A96.26,96.26,0,0,1,95-50.49Zm76-22.39q-2.94,3-6.09,5.82l-1,.87a105.92,105.92,0,0,1-31.6,18.81l-1,.38q-3.69,1.35-7.5,2.43l-1-.62-6.09-6.76q3.07-.72,6.09-1.62l1-.3c2.54-.8,5.05-1.71,7.5-2.7l1-.41a97.26,97.26,0,0,0,31.6-21.4l1-1q3.21-3.34,6.09-7ZM171-88q-2.88,3.72-6.09,7.16l-1,1.05a96.23,96.23,0,0,1-31.6,21.76l-1,.41q-3.67,1.51-7.5,2.72l-1,.31c-2.26.69-4.54,1.29-6.86,1.81l-5.84-6.49a86.75,86.75,0,0,0,12.7-3.19l1-.34c2.55-.89,5.06-1.88,7.5-3l1-.47a89,89,0,0,0,31.6-24.86l1-1.27a88.75,88.75,0,0,0,6.09-9Zm0-15.33a88.52,88.52,0,0,1-6.09,9.3l-1,1.3a87.94,87.94,0,0,1-31.6,25.37l-1,.47c-2.44,1.12-5,2.13-7.5,3l-1,.35c-2.46.82-5,1.54-7.51,2.15v-18a67.47,67.47,0,0,0,7.51-2.78l1-.45a69.63,69.63,0,0,0,7.5-4l1-.64a70.07,70.07,0,0,0,31.6-47.38l0-.52a69.94,69.94,0,0,0,1-11.1v-.15c0-.08,0-.15,0-.22a70.06,70.06,0,0,0-49.61-66.92v-17.79c2.54.61,5,1.33,7.51,2.16l1,.35c2.55.9,5.06,1.91,7.5,3l1,.47A87.83,87.83,0,0,1,163.91-200l1,1.3a88.52,88.52,0,0,1,6.09,9.3Zm0-88a89.75,89.75,0,0,0-6.09-8.95l-1-1.27a89,89,0,0,0-31.6-24.87l-1-.47c-2.44-1.1-5-2.1-7.5-3l-1-.34a88.06,88.06,0,0,0-12.7-3.2l5.84-6.48c2.32.52,4.6,1.12,6.86,1.8l1,.31q3.82,1.22,7.5,2.73l1,.41a96.2,96.2,0,0,1,31.6,21.75l1,1q3.21,3.44,6.09,7.17Zm0-15q-2.88-3.64-6.09-7l-1-1a97.1,97.1,0,0,0-31.6-21.4l-1-.41c-2.45-1-5-1.9-7.5-2.7l-1-.3c-2-.6-4-1.15-6.09-1.62l6.09-6.76,1-.63q3.81,1.08,7.5,2.44l1,.38a105.89,105.89,0,0,1,31.6,18.8l1,.88q3.15,2.79,6.09,5.82Zm7.08,159L172-41.27v-31.2q3.18-3.33,6.08-6.92Zm0-33.62c-1.92,2.44-4,4.79-6.08,7V-87.7a96.54,96.54,0,0,0,6.08-9Zm0-17.64A98.57,98.57,0,0,1,172-89.35V-103.1a88.83,88.83,0,0,0,6.08-13.25Zm0-20.82A87.07,87.07,0,0,1,172-105.17v-82.39a87,87,0,0,1,6.08,14.26Zm0-56.95A88.72,88.72,0,0,0,172-189.63v-13.75a97.29,97.29,0,0,1,6.08,9.27Zm0-19.69a99.28,99.28,0,0,0-6.08-9v-13.77c2.12,2.27,4.16,4.62,6.08,7.06Zm0-17.26q-2.9-3.6-6.08-6.92v-31.2l6.08,6.09Zm1,43.33a87,87,0,0,1,3.25,23.64,87.14,87.14,0,0,1-3.25,23.65Zm0,50.73a87.93,87.93,0,0,0,4.25-27.09,88,88,0,0,0-4.25-27.09v-18.87a95.28,95.28,0,0,1,11.76,46,95.32,95.32,0,0,1-11.76,46Zm0,20.92a96.31,96.31,0,0,0,12.76-48,96.34,96.34,0,0,0-12.76-48v-16.07a105.26,105.26,0,0,1,21.68,64.08,105.26,105.26,0,0,1-21.68,64.09Z"/></g><g class="cls-6"><rect class="cls-7" x="-5.67" y="-5.67" width="189.92" height="260.79"/><g class="cls-8"><path class="cls-9" d="M173.41,92.29V58.62l-1-1-6.08-6.09v-53h-1v52l-6.09-6.09V-1.49h-1V44.78l1,1.06,6.09,6.08V83.1q-2.94-3-6.09-5.73l-1-.84A106.72,106.72,0,0,0,126.64,58V-1.49h-1V57.59c-2.46-.89-5-1.7-7.5-2.41v-59h-1V54.91a9.65,9.65,0,0,0-.43.92l-6.79,7.53a97,97,0,0,0-41.26,0l-6.78-7.53s-.43-.93-.44-.92V-3.83h-1v59c-2.54.71-5,1.52-7.5,2.41V-1.49h-1V58a107.06,107.06,0,0,0-31.6,18.57l-1,.85q-3.15,2.73-6.08,5.72V51.92l6.08-6.08,1-1.05V-1.49h-1V44.42l-6.08,6.09v-52h-1v53L6.17,57.6l-1,.9V92.29a106.57,106.57,0,0,0,0,131.45V257.4l1,1,6.09,6.08v53h1v-52l6.08,6.09v45.92h1v-46.3l-1-1-6.08-6.08V232.93q2.93,3,6.08,5.73l1,.85a107,107,0,0,0,31.6,18.56v59.46h1V258.44c2.46.89,5,1.7,7.5,2.41v58.47h1v-58.2l.44-.91,6.78-7.54a97,97,0,0,0,41.26,0l6.79,7.54.43.92v58.19h1V260.85q3.81-1.07,7.5-2.41v59.09h1V258.07a106.9,106.9,0,0,0,31.6-18.56l1-.85q3.15-2.74,6.09-5.73v31.18l-6.09,6.08-1,1.08v46.26h1V271.61l6.09-6.09v52h1v-53l6.08-6.08,1-1V223.74a106.57,106.57,0,0,0,0-131.45ZM5.17,181.65a87.57,87.57,0,0,1,0-47.27Zm0-50.72a88.43,88.43,0,0,0,0,54.17V204a95.69,95.69,0,0,1,0-91.92Zm0-20.92a96.68,96.68,0,0,0,0,96V222.1a105.56,105.56,0,0,1,0-128.17Zm7.09,153.1L6.17,257V225q2.89,3.58,6.09,6.92Zm0-32.66c-2.13-2.26-4.17-4.61-6.09-7V207.72a96.15,96.15,0,0,0,6.09,9Zm0-15.42a96.73,96.73,0,0,1-6.09-9.27V188a87.88,87.88,0,0,0,6.09,13.25Zm0-15.82a85.89,85.89,0,0,1-6.09-14.27V131.09a86.15,86.15,0,0,1,6.09-14.26Zm0-84.46A88.33,88.33,0,0,0,6.17,128V110.27A96.73,96.73,0,0,1,12.26,101Zm0-15.4a94.7,94.7,0,0,0-6.09,9V92.63c1.92-2.44,4-4.79,6.09-7Zm0-15.23Q9.07,87.45,6.17,91V59l6.09-6.09Zm77-22a96.26,96.26,0,0,1,19.86,2.07l-5.88,6.54s-.32,1-.31,1V89.15a69.89,69.89,0,0,0-27.34,0V71.71s-.3-1-.31-1l-5.88-6.54A96.26,96.26,0,0,1,89.29,62.14Zm0,164.55a69,69,0,0,1-68.95-68.86c0-.16,0-.32,0-.49,0-.74,0-1.48.06-2.21a69,69,0,0,1,31.53-55l1-.65a67.58,67.58,0,0,1,7.5-4l1-.46A70.35,70.35,0,0,1,69,92.12l1-.28c1.52-.45,3.07-.84,4.64-1.19l1-.22a69.38,69.38,0,0,1,27.34,0l1,.22c1.58.35,3.13.75,4.67,1.2l1,.28A69.8,69.8,0,0,1,117.14,95l1,.45a69.36,69.36,0,0,1,7.5,4l1,.65a69,69,0,0,1,31.54,55.08c0,.66,0,1.32,0,2,0,.24,0,.47,0,.7A69,69,0,0,1,89.29,226.69Zm19.34-1.46v18c-1.54.35-3.1.66-4.67.92V226.4C105.54,226.07,107.09,225.67,108.63,225.23Zm-34,1.17v17.75c-1.56-.26-3.11-.57-4.64-.91v-18C71.51,225.67,73.05,226.07,74.62,226.4ZM70,90.53V72.8c1.53-.35,3.08-.65,4.64-.92V89.36C73.05,89.69,71.51,90.09,70,90.53Zm38.65,0c-1.54-.44-3.09-.84-4.67-1.17V71.88c1.57.27,3.13.57,4.67.92Zm-95.37-6q2.93-3,6.08-5.82l1-.87A105.92,105.92,0,0,1,51.94,59l1-.38c2.46-.9,5-1.72,7.5-2.44l1,.63,6.09,6.76q-3.07.72-6.09,1.62l-1,.3c-2.54.8-5,1.7-7.5,2.7l-1,.41A97.26,97.26,0,0,0,20.34,90l-1,1q-3.21,3.34-6.08,7Zm0,15.15q2.87-3.72,6.08-7.16l1-1a96.33,96.33,0,0,1,31.6-21.76l1-.41c2.45-1,5-1.92,7.5-2.72l1-.31C63.7,65.58,66,65,68.3,64.46L74.14,71a86.75,86.75,0,0,0-12.7,3.19l-1,.34c-2.55.89-5.06,1.88-7.5,3l-1,.47a89,89,0,0,0-31.6,24.86l-1,1.27a87,87,0,0,0-6.08,9Zm0,15.34a87,87,0,0,1,6.08-9.31l1-1.3A87.94,87.94,0,0,1,51.94,79l1-.47c2.44-1.12,5-2.13,7.5-3l1-.35Q65.15,73.94,69,73V90.81a70.08,70.08,0,0,0-49.64,66.93c0,.07,0,.14,0,.21v.19a69.44,69.44,0,0,0,.95,11.06l0,.53a70.08,70.08,0,0,0,31.6,47.38l1,.65a69.56,69.56,0,0,0,7.5,4l1,.46A72.22,72.22,0,0,0,69,225V243q-3.84-.92-7.54-2.16l-1-.35c-2.55-.9-5.06-1.91-7.5-3l-1-.47a87.83,87.83,0,0,1-31.6-25.37l-1-1.3a86.88,86.88,0,0,1-6.08-9.3ZM61.44,259.19l-1,.63c-2.54-.72-5-1.54-7.5-2.44l-1-.38a106.1,106.1,0,0,1-31.6-18.8l-1-.88q-3.15-2.79-6.08-5.82V218q2.87,3.65,6.08,7l1,1a97.26,97.26,0,0,0,31.6,21.4l1,.41c2.45,1,5,1.9,7.5,2.7l1,.3c2,.6,4,1.15,6.09,1.62Zm6.86-7.62c-2.32-.52-4.6-1.12-6.86-1.8l-1-.31c-2.54-.81-5-1.72-7.5-2.73l-1-.41a96.3,96.3,0,0,1-31.6-21.75l-1-1.06q-3.21-3.42-6.08-7.16V203a87,87,0,0,0,6.08,9l1,1.27a89,89,0,0,0,31.6,24.87l1,.46c2.44,1.11,5,2.11,7.5,3l1,.34a88.06,88.06,0,0,0,12.7,3.2Zm21,2.32a95.58,95.58,0,0,1-19.86-2.07l5.88-6.54s.32-1,.31-1V226.61a69.38,69.38,0,0,0,27.34,0v17.71s.3,1,.31,1l5.88,6.54A95.58,95.58,0,0,1,89.29,253.89Zm76-22.39c-2,2-4,4-6.09,5.82l-1,.88a105.89,105.89,0,0,1-31.6,18.8l-1,.38c-2.46.9-5,1.72-7.5,2.44l-1-.63-6.09-6.76c2.06-.47,4.08-1,6.09-1.62l1-.3q3.83-1.2,7.5-2.7l1-.41a97.26,97.26,0,0,0,31.6-21.4l1-1q3.21-3.34,6.09-7Zm0-15.15q-2.88,3.74-6.09,7.16l-1,1.06a96.2,96.2,0,0,1-31.6,21.75l-1,.41q-3.67,1.52-7.5,2.73l-1,.31c-2.26.68-4.54,1.28-6.86,1.8l-5.84-6.48a88.06,88.06,0,0,0,12.7-3.2l1-.34c2.55-.88,5.06-1.88,7.5-3l1-.46a89,89,0,0,0,31.6-24.87l1-1.27a89.75,89.75,0,0,0,6.09-9Zm0-15.33a88.52,88.52,0,0,1-6.09,9.3l-1,1.3A87.83,87.83,0,0,1,126.64,237l-1,.47c-2.44,1.12-5,2.13-7.5,3l-1,.35c-2.46.83-5,1.55-7.51,2.16V224.94a69.47,69.47,0,0,0,7.51-2.77l1-.46a69.56,69.56,0,0,0,7.5-4l1-.65a70,70,0,0,0,31.6-47.38l0-.51a70,70,0,0,0,.95-11.1V158c0-.07,0-.14,0-.22a70.07,70.07,0,0,0-49.61-66.92V73c2.54.61,5.05,1.32,7.51,2.15l1,.35c2.55.9,5.06,1.91,7.5,3l1,.47a87.94,87.94,0,0,1,31.6,25.37l1,1.3a88.52,88.52,0,0,1,6.09,9.3Zm0-88a88.75,88.75,0,0,0-6.09-9l-1-1.27a89,89,0,0,0-31.6-24.86l-1-.47c-2.44-1.11-5-2.1-7.5-3l-1-.34A86.75,86.75,0,0,0,104.44,71l5.84-6.49c2.32.52,4.6,1.12,6.86,1.81l1,.3q3.83,1.22,7.5,2.73l1,.41a96.2,96.2,0,0,1,31.6,21.75l1,1.06c2.14,2.28,4.17,4.68,6.09,7.16Zm0-15q-2.88-3.64-6.09-7l-1-1a97.26,97.26,0,0,0-31.6-21.4l-1-.41q-3.67-1.5-7.5-2.7l-1-.3c-2-.6-4-1.14-6.09-1.62l6.09-6.76,1-.63c2.54.72,5,1.54,7.5,2.44l1,.38a106.1,106.1,0,0,1,31.6,18.8l1,.88c2.1,1.86,4.14,3.8,6.09,5.82Zm7.08,159-6.08,6.09v-31.2q3.18-3.33,6.08-6.92Zm0-33.62c-1.92,2.44-4,4.79-6.08,7.06V216.69a97.24,97.24,0,0,0,6.08-9Zm0-17.64a95.4,95.4,0,0,1-6.08,9.27V201.28A88.72,88.72,0,0,0,172.41,188Zm0-20.81a87,87,0,0,1-6.08,14.26V116.82a87,87,0,0,1,6.08,14.26Zm0-56.95a88.83,88.83,0,0,0-6.08-13.25V101a96.63,96.63,0,0,1,6.08,9.27Zm0-19.69a96.06,96.06,0,0,0-6.08-9V85.58c2.12,2.26,4.16,4.61,6.08,7Zm0-17.27q-2.9-3.58-6.08-6.92V52.92L172.41,59Zm1,43.33a87.38,87.38,0,0,1,0,47.29Zm0,50.74a88.26,88.26,0,0,0,0-54.18V112.05a95.71,95.71,0,0,1,0,91.93Zm0,20.92a96.7,96.7,0,0,0,0-96V93.93a105.56,105.56,0,0,1,0,128.17Z"/><path class="cls-9" d="M7.52,239.49v2l-.5-.44-.16.19,3,2.59.17-.18L9.25,243v-2.41h1.23v1.12l-.66.57.17.18,1.43-1.25-.17-.18-.52.46v-2l.52.46.17-.18-1.5-1.32-.16.19.72.63v1.11H9.25V238l.69-.61-.16-.18-3,2.6L7,240ZM9,242.82l-1.23-1.07v-1.12H9Zm0-2.44H7.77v-1.11L9,238.2Z"/></g></g><path id="path200948-4" class="cls-9" d="M79.24,118.07c-4,1.23-7.24,4.42-10.91,6.46-4.67,3-9.47,5.89-13.93,9.13-4.7,1.13-2.14,6.61-2.55,10,.49,13.36,1.16,26.71,1.64,40.06-.94,4.58,4.95,3.22,7.66,4.59q21.21,5.59,42.45,11.07c2.92-1.78,4.57-5.48,6.91-8.07,4.3-5.67,8.76-11.25,13-17,.83-3.46.61-7.12,1.06-10.67.75-12,2-24.07,2.53-36.12-2.79-1-6.45-1.35-9.56-2.15-3.62-1-7.29-.85-10.58-2-9.24-1.74-18.43-3.64-27.69-5.31Zm.91,1.33c2,.53,7.72.89,7.43,1.87a83.74,83.74,0,0,0-12.24,1.31,12.39,12.39,0,0,1,4.81-3.18Zm8.45,2.77c1.54-.17,7.57.2,2.72.58-5.9.4-11.82,1.33-17.71,1.45C78.33,122.52,83.6,122.15,88.6,122.17Zm12.34.66c4,1.34,6.31,5.79,9.79,8.2,1.43,1.61,7.58,5.72,2.36,5.4-11.23,1.38-22.44,3-33.69,4.12-3.26-2-5.18-6-7.88-8.83-1.17-1.91-6.84-6.31-1.41-5.81,10.27-1.09,20.55-2.15,30.83-3.08Zm-1.51,1.56c-5.31.56-10.64,1-16,1.41a46.37,46.37,0,0,0-10.56,1.7c3.2,3.5,5.85,7.58,9.44,10.68C86.22,138,90,137,93.86,136.87c5.37-.6,10.79-1.12,16.12-2-2.44-3.13-5.89-5.8-8.71-8.75Zm8.4.66c4,.91,8.54,3.56,9.54,7.85-1.31,2.06-3.9-3.2-5.8-3.94-1.07-1.1-3.64-2.69-3.74-3.91Zm-11.65.32c2.1-.61,4.08,1.28,4.79,2.68-2.21-1.49-7.24-1.52-8.17-2.1C93.93,125.71,95.15,125.91,96.18,125.37Zm17.52.62c2.73.8,7.31.75,8.94,2.19-1.81,2.38-4,5-5.52,1.08C116.24,128,114.48,127,113.7,126Zm-23.58.82c4.13.09,8.73.49,12,3.21,2.5,3.93-4.44,4.87-7.06,5.59-3.3.63-6.55-.31-9.78-.93-2.9-.11-8.73-3.7-4.1-6.12A19.3,19.3,0,0,1,90.12,126.81Zm-11.29.31c3.25-.34-1.22,3.16-1.11,3.75-1.11-1.27-4.43-3.7-.65-3.5a5,5,0,0,1,1.76-.25Zm-13,1.54c2.82,3,5.23,6.41,7.77,9.67-3.34-.41-7.49-2.92-9-6.31-.33-1.05.15-2.94,1.23-3.36ZM63,130.58c-.35,2.83,3.06,5.12,3.81,6.61-3.07-1-8.08-1-9.92-2.62a40.84,40.84,0,0,1,6.11-4Zm41.31.43c1.55,1.55,5,4.1.47,3.75-1.5,0-5.79.89-2.39-.64A3.13,3.13,0,0,0,104.28,131Zm21.1.81c.21,2.17.29,6.56-.69,8,.31-2.39-4.56-3.83-2-5.59A15.63,15.63,0,0,1,125.38,131.82ZM80.52,134c2.1,1.82,7.66,1.46,8.27,2.56-3.51.83-6.65,1.27-8.27-2.56Zm40,2.88c3.64.73,4.51,7.51,3.56,9.23C123.21,143.34,118.93,139.05,120.48,136.83Zm-3,1.36c2.73,2.88,3.85,7,5.9,10.44,2.73,3.42.43,7.23-.55,10.81-2.6,8.27-5.11,16.63-7.83,24.86-2.5-.16-4.79-5.52-7.27-7.68-3.71-2.6-.09-6.15.53-9.23,1.6-4.86,2.81-9.76,4.41-14.66,1.43-4.89,3.28-9.64,4.72-14.51l.09,0Zm-8.14.51c1.89.48-3.79,1.51-4.85,1.86a62.3,62.3,0,0,1-11.58.88c-1.72.22-6.07-.1-1.93-.58,6.12-.68,12.22-1.59,18.36-2.16Zm-54.56.38a117.54,117.54,0,0,1,11.88,2.69c-2.94,1.7-6.44,3-8.67,5.87-1.23,1.38-3.44,5.34-3.18,1.16,0-3.19-.63-6.68,0-9.72Zm54.27,1.74c-1.75,3.41-5.45,5.29-9.13,3.34-2-.34-8-1.53-2.81-1.57A78.88,78.88,0,0,0,109.07,140.82Zm-30.71,1.87c4.91,5.44,9.21,11.42,14,17,3.66,4.68,7.55,9.21,11.15,13.95-1,2.9-5.53,4.14-7.85,6.36-5.8,3.8-11.41,7.94-17.37,11.47-6.82-7.59-13.09-15.66-19.74-23.41-1.29-2.49-7.22-5.68-2.53-7.72Q66.55,152,76.92,143.5a5.39,5.39,0,0,1,1.44-.81Zm-6.45.2c-.51,2.23-4.79,4.35-6.86,6.43-3.15,2.53-6.16,5.27-9.51,7.52-.45-3.12,2.05-6.78,4.33-9.17a17,17,0,0,1,12-4.78Zm45.44,1.42c-1.35,3.76-2.5,7.62-3.75,11.41-1.66,5.05-3.23,10.12-4.95,15.14,2.12,2.83,4.2,5.69,6.45,8.37.85-1.6,1.12-3.56,1.78-5.28,1.61-5.1,3.2-10.18,4.81-15.29.29-1.5,1.24-2.95,1.12-4.48-1.63-3.28-3.52-6.44-5.23-9.67Zm-3.7.19c-.26,3.14-1.84,6.44-2.75,9.6-1,2.46-1.78,7.19-3.2,8.23C109.05,156.23,110.67,150,113.65,144.5Zm-1.88.59c-.42,2.82-2.2,6-2.93,9-.18,1.43-1.88,6.1-1.45,2,.14-2.38.21-4.76.3-7.13,1.35-1.29,2.65-2.65,4.08-3.86Zm-27.07.57c7,3,12.43,9.12,15.92,15.81.43,1.83,2.41,4.94,1.56,6.11-5.8-6.48-11-13.48-16.51-20.21-.29-.53-1.09-1.08-1-1.71Zm32.51.52a11.3,11.3,0,0,1,2,3.46c-.58.41-2.3.42-2.71,1.73-.69.84-1.18,1.9-1.79,2.74.34-2.5,1.51-4.84,2.17-7.27.14-.21.12-.5.33-.66Zm-27.06.57c4.38.77,8.77,1.68,13.08,2.8a91,91,0,0,1-.51,12.47c-2-2.86-3.65-6.36-6.2-9-1.82-2.35-4.65-4.19-6.37-6.27Zm-11.87,2.46c-6.31,4.65-12.46,9.55-18.51,14.53,6,7.44,12.16,14.83,18.41,22.08,6.36-4.08,12.47-8.57,18.73-12.81-.72-3.39-5-6.29-6.94-9.52-3.92-4.74-7.64-9.65-11.69-14.28Zm40.1,1.65c1.5.08,1.73,2.17,1.91,3.36a33.21,33.21,0,0,1-3.41,16.35c-.75,1.32-1.89,3.51-3.68,2.91-1.77-1.7-1.27-4.52-1.33-6.73.51-5.19,1.71-10.5,4.68-14.84a2.89,2.89,0,0,1,1.83-1Zm-40.28.37c1.64,1.64,6.32,6.47,5.51,7.23A14.65,14.65,0,0,0,72,156.22C73.43,154.28,76,152.62,78.1,151.23Zm42.38.84a14.46,14.46,0,0,1,1.91,3.26c-.85,2.3-1.25,4.74-2.31,6.93,0-2.37.79-4.93.58-7.44.09-.92-.25-1.9-.18-2.75Zm-44.56,4.77c8.18.23,15.56,9.1,12.87,17.17-1.84,5.18-8.62,6.08-13,3.7C69.72,175,65.34,167.41,68.32,161a8.17,8.17,0,0,1,7.6-4.13Zm-8,2.31c-1.49,3-2.19,6.74-.85,10,1.66,4.6-2.75-1.87-3.8-2.93-4.18-3.07,2.76-5.09,4.65-7.11Zm44.11,3c.16,1.89-.59,4.06-.57,6.08a18,18,0,0,0,.37,4.24c-.71.34-2.22-2-2.24-3,.91-2.41,1.48-4.94,2.43-7.29Zm10.61.84c0,3.05-1.37,6.26-2.29,9.26-.31,1.8-3.11,7.3-1.59,2.48C120.08,170.85,121,166.81,122.63,163ZM89,164.51c1.82,2.51,6.66,5.71,5.53,8.52-1.86,1.08-4.67,3.7-6.15,3.74,2.82-3.51,2.21-8.38.62-12.26Zm34.05,2c.12,3.4.18,7.7-3.11,9.63C120.85,172.93,121.8,169.63,123,166.52Zm-67,2.1c5.56,6,10.56,12.49,15.81,18.73,1.18,2.65-4.37-1.73-5.39-2.61-4.83-4.14-9.09-9.47-10.57-15.76l0-.26Zm61.59,1.31c.13,1.37-.88,2.89-1.1,4.35-.5,1.06-.52,2.41-1.27,3.31A17.59,17.59,0,0,1,113,174.7c2.41-.24,3.49-2.77,4.48-4.69Zm-61.46,4.31A51.65,51.65,0,0,0,66,186c3.36,2.42-3.36.06-4.65-.14-3.57-.22-6.45-1.82-5.44-5.84.18-1.78-.68-4.29.19-5.79ZM72.65,177c3.58,2.32,8.07,3.78,12.29,2.3-2.15,1.42-6.36,7-8.46,2.74-1.16-1.64-3.31-3.38-3.83-5Zm34,2.25c1.49,2.3,5.77,4.86,5.13,7.49C107.62,189,106.23,181.86,106.61,179.28Zm-4.84.19c.46,2.79-2.22,5.61-4.14,7.62a18,18,0,0,1-13.25,4.56c1.78-2.69,5.51-4.15,8.15-6.21,3.08-2,6.06-4.15,9.24-6Zm.12,5.23c-.25,3.65.65,8.26-.92,11.32a95.38,95.38,0,0,1-11.45-3.14c3.76-1.31,7.57-3.07,10.28-6.16C100.49,186,101.14,185.32,101.89,184.7Zm4.35,1c.85,2.58,6.24,2.73,2.38,5.46-1,1.44-3.86,5.19-3,1A50.55,50.55,0,0,1,106.24,185.72Z"/><rect class="cls-9" x="-5.67" y="-5.67" width="189.92" height="45.68"/><polygon class="cls-9" points="184.25 -5.67 121.97 -5.67 143.03 20.5 184.25 20.5 184.25 -5.67"/><polygon class="cls-9" points="-5.67 -5.67 56.62 -5.67 35.55 20.5 -5.67 20.5 -5.67 -5.67"/><polygon class="cls-7" points="122.48 -5.67 121.96 -5.67 121.5 -5.29 142.79 21 184.25 21 184.25 20 143.27 20 122.48 -5.67"/><polygon class="cls-7" points="56.1 -5.67 35.31 20 -5.67 20 -5.67 21 35.79 21 57.08 -5.29 56.62 -5.67 56.1 -5.67"/></svg>