<svg id="Layer_1" data-name="Layer 1" xmlns="http://www.w3.org/2000/svg" xmlns:xlink="http://www.w3.org/1999/xlink" viewBox="0 0 178.58 249.45"><defs><style>.cls-1{fill:none;}.cls-2{clip-path:url(#clip-path);}.cls-3{fill:#fff;}.cls-4{opacity:0.02;}.cls-5{fill:#090400;}.cls-6{fill:#2baa54;}.cls-7{clip-path:url(#clip-path-2);}.cls-8{fill:#fbfbfb;}</style><clipPath id="clip-path"><rect class="cls-1" x="-5.67" y="-5.67" width="189.92" height="260.79"/></clipPath><clipPath id="clip-path-2"><rect class="cls-1" x="-5.67" y="-301.98" width="189.92" height="260.79"/></clipPath></defs><g class="cls-2"><rect class="cls-3" x="-5.67" y="-5.67" width="189.92" height="260.79"/><g class="cls-4"><path class="cls-5" d="M173.41,92.29V58.62l-1-1-6.08-6.09v-53h-1v52l-6.09-6.09V-1.49h-1V44.78l1,1.06,6.09,6.08V83.1q-2.94-3-6.09-5.73l-1-.84A106.72,106.72,0,0,0,126.64,58V-1.49h-1V57.59c-2.46-.89-5-1.7-7.5-2.41v-59h-1V54.91a9.65,9.65,0,0,0-.43.92l-6.79,7.53a97,97,0,0,0-41.26,0l-6.78-7.53s-.43-.93-.44-.92V-3.83h-1v59c-2.54.71-5,1.52-7.5,2.41V-1.49h-1V58a107.06,107.06,0,0,0-31.6,18.57l-1,.85q-3.15,2.73-6.09,5.72V51.92l6.09-6.08,1-1.05V-1.49h-1V44.42l-6.09,6.09v-52h-1v53L6.17,57.6l-1,.9V92.29a106.57,106.57,0,0,0,0,131.45V257.4l1,1,6.08,6.08v53h1v-52l6.09,6.09v45.92h1v-46.3l-1-1-6.09-6.08V232.93q2.94,3,6.09,5.73l1,.85a107,107,0,0,0,31.6,18.56v59.46h1V258.44c2.46.89,5,1.7,7.5,2.41v58.47h1v-58.2l.44-.91,6.78-7.54a97,97,0,0,0,41.26,0l6.79,7.54.43.92v58.19h1V260.85q3.81-1.07,7.5-2.41v59.09h1V258.07a106.9,106.9,0,0,0,31.6-18.56l1-.85q3.15-2.74,6.09-5.73v31.18l-6.09,6.08-1,1.08v46.26h1V271.61l6.09-6.09v52h1v-53l6.08-6.08,1-1V223.74a106.57,106.57,0,0,0,0-131.45ZM5.17,181.65a87.57,87.57,0,0,1,0-47.27Zm0-50.72a88.43,88.43,0,0,0,0,54.17V204a95.69,95.69,0,0,1,0-91.92Zm0-20.92a96.68,96.68,0,0,0,0,96V222.1a105.56,105.56,0,0,1,0-128.17Zm7.08,153.1L6.17,257V225q2.89,3.58,6.08,6.92Zm0-32.66c-2.12-2.26-4.16-4.61-6.08-7V207.72a98,98,0,0,0,6.08,9Zm0-15.42a98.57,98.57,0,0,1-6.08-9.27V188a88.83,88.83,0,0,0,6.08,13.25Zm0-15.82a86.7,86.7,0,0,1-6.08-14.27V131.09a87,87,0,0,1,6.08-14.26Zm0-84.46A89.29,89.29,0,0,0,6.17,128V110.27A98.57,98.57,0,0,1,12.25,101Zm0-15.4a96.54,96.54,0,0,0-6.08,9V92.63c1.92-2.44,4-4.79,6.08-7Zm0-15.23Q9.07,87.45,6.17,91V59l6.08-6.09Zm77-22a96.26,96.26,0,0,1,19.86,2.07l-5.88,6.54s-.32,1-.31,1V89.15a69.89,69.89,0,0,0-27.34,0V71.71s-.3-1-.3-1l-5.89-6.54A96.26,96.26,0,0,1,89.29,62.14Zm0,164.55a69,69,0,0,1-68.95-68.86c0-.16,0-.32,0-.49,0-.74,0-1.48.06-2.21a69,69,0,0,1,31.53-55l1-.65a67.58,67.58,0,0,1,7.5-4l1-.46A70.35,70.35,0,0,1,69,92.12l1-.28c1.52-.45,3.07-.84,4.64-1.19l1-.22a69.38,69.38,0,0,1,27.34,0l1,.22c1.58.35,3.13.75,4.67,1.2l1,.28A69.8,69.8,0,0,1,117.14,95l1,.45a69.36,69.36,0,0,1,7.5,4l1,.65a69,69,0,0,1,31.54,55.08c0,.66,0,1.32,0,2,0,.24,0,.47,0,.7A69,69,0,0,1,89.29,226.69Zm19.34-1.46v18c-1.54.35-3.1.66-4.67.92V226.4C105.54,226.07,107.09,225.67,108.63,225.23Zm-34,1.17v17.75c-1.56-.26-3.11-.57-4.64-.91v-18C71.51,225.67,73.05,226.07,74.62,226.4ZM70,90.53V72.8c1.53-.35,3.08-.65,4.64-.92V89.36C73.05,89.69,71.51,90.09,70,90.53Zm38.65,0c-1.54-.44-3.09-.84-4.67-1.17V71.88c1.57.27,3.13.57,4.67.92Zm-95.38-6q2.94-3,6.09-5.82l1-.87A105.92,105.92,0,0,1,51.94,59l1-.38c2.46-.9,5-1.72,7.5-2.44l1,.63,6.09,6.76q-3.07.72-6.09,1.62l-1,.3c-2.54.8-5,1.7-7.5,2.7l-1,.41A97.26,97.26,0,0,0,20.34,90l-1,1q-3.21,3.34-6.09,7Zm0,15.15q2.88-3.72,6.09-7.16l1-1a96.33,96.33,0,0,1,31.6-21.76l1-.41c2.45-1,5-1.92,7.5-2.72l1-.31C63.7,65.58,66,65,68.3,64.46L74.14,71a86.75,86.75,0,0,0-12.7,3.19l-1,.34c-2.55.89-5.06,1.88-7.5,3l-1,.47a89,89,0,0,0-31.6,24.86l-1,1.27a88.75,88.75,0,0,0-6.09,9Zm0,15.34a88.65,88.65,0,0,1,6.09-9.31l1-1.3A87.94,87.94,0,0,1,51.94,79l1-.47c2.44-1.12,5-2.13,7.5-3l1-.35Q65.15,73.94,69,73V90.81a70.08,70.08,0,0,0-49.64,66.93c0,.07,0,.14,0,.21v.19a69.44,69.44,0,0,0,.95,11.06l0,.53a70,70,0,0,0,31.6,47.38l1,.65a69.56,69.56,0,0,0,7.5,4l1,.46A72.22,72.22,0,0,0,69,225V243q-3.84-.92-7.54-2.16l-1-.35c-2.55-.9-5.06-1.91-7.5-3l-1-.47a87.83,87.83,0,0,1-31.6-25.37l-1-1.3a88.52,88.52,0,0,1-6.09-9.3ZM61.44,259.19l-1,.63c-2.54-.72-5-1.54-7.5-2.44l-1-.38a106.1,106.1,0,0,1-31.6-18.8l-1-.88q-3.15-2.79-6.09-5.82V218q2.88,3.65,6.09,7l1,1a97.26,97.26,0,0,0,31.6,21.4l1,.41c2.45,1,5,1.9,7.5,2.7l1,.3c2,.6,4,1.15,6.09,1.62Zm6.86-7.62c-2.32-.52-4.6-1.12-6.86-1.81l-1-.3c-2.54-.81-5-1.72-7.5-2.73l-1-.41a96.3,96.3,0,0,1-31.6-21.75l-1-1.06q-3.21-3.42-6.09-7.16V203a88.75,88.75,0,0,0,6.09,9l1,1.27a89,89,0,0,0,31.6,24.87l1,.46c2.44,1.11,5,2.11,7.5,3l1,.34a88.06,88.06,0,0,0,12.7,3.2Zm21,2.32a95.58,95.58,0,0,1-19.86-2.07l5.88-6.54s.32-1,.31-1V226.61a69.38,69.38,0,0,0,27.34,0v17.71s.3,1,.31,1l5.88,6.54A95.58,95.58,0,0,1,89.29,253.89Zm76-22.39c-2,2-4,4-6.09,5.82l-1,.88a105.89,105.89,0,0,1-31.6,18.8l-1,.38c-2.46.9-5,1.72-7.5,2.44l-1-.63-6.09-6.76c2.06-.47,4.08-1,6.09-1.62l1-.3q3.83-1.2,7.5-2.7l1-.41a97.26,97.26,0,0,0,31.6-21.4l1-1q3.21-3.34,6.09-7Zm0-15.15q-2.88,3.74-6.09,7.16l-1,1.06a96.2,96.2,0,0,1-31.6,21.75l-1,.41q-3.67,1.52-7.5,2.73l-1,.31c-2.26.68-4.54,1.28-6.86,1.8l-5.84-6.48a88.06,88.06,0,0,0,12.7-3.2l1-.34c2.55-.88,5.06-1.88,7.5-3l1-.46a89,89,0,0,0,31.6-24.87l1-1.27a89.75,89.75,0,0,0,6.09-9Zm0-15.33a88.52,88.52,0,0,1-6.09,9.3l-1,1.3A87.83,87.83,0,0,1,126.64,237l-1,.47c-2.44,1.12-5,2.13-7.5,3l-1,.35c-2.46.83-5,1.55-7.51,2.16V224.94a69.47,69.47,0,0,0,7.51-2.77l1-.46a69.56,69.56,0,0,0,7.5-4l1-.65a70,70,0,0,0,31.6-47.38l0-.51a70,70,0,0,0,.95-11.1V158c0-.07,0-.14,0-.22a70.07,70.07,0,0,0-49.61-66.92V73c2.54.61,5.05,1.32,7.51,2.15l1,.35c2.55.9,5.06,1.91,7.5,3l1,.47a87.94,87.94,0,0,1,31.6,25.37l1,1.3a88.52,88.52,0,0,1,6.09,9.3Zm0-88a88.75,88.75,0,0,0-6.09-9l-1-1.27a89,89,0,0,0-31.6-24.86l-1-.47c-2.44-1.11-5-2.1-7.5-3l-1-.34A86.75,86.75,0,0,0,104.44,71l5.84-6.49c2.32.52,4.6,1.12,6.86,1.81l1,.3q3.83,1.22,7.5,2.73l1,.41a96.2,96.2,0,0,1,31.6,21.75l1,1.06c2.14,2.28,4.17,4.68,6.09,7.16Zm0-15q-2.88-3.64-6.09-7l-1-1a97.26,97.26,0,0,0-31.6-21.4l-1-.41q-3.67-1.5-7.5-2.7l-1-.3c-2-.6-4-1.14-6.09-1.62l6.09-6.76,1-.63c2.54.72,5,1.54,7.5,2.44l1,.38a106.1,106.1,0,0,1,31.6,18.8l1,.88c2.1,1.86,4.14,3.8,6.09,5.82Zm7.08,159-6.08,6.09v-31.2q3.18-3.33,6.08-6.92Zm0-33.62c-1.92,2.44-4,4.79-6.08,7.06V216.69a99.28,99.28,0,0,0,6.08-9Zm0-17.64a95.4,95.4,0,0,1-6.08,9.27V201.28A88.72,88.72,0,0,0,172.41,188Zm0-20.81a87,87,0,0,1-6.08,14.26V116.82a87,87,0,0,1,6.08,14.26Zm0-56.95a88.83,88.83,0,0,0-6.08-13.25V101a96.63,96.63,0,0,1,6.08,9.27Zm0-19.69a98,98,0,0,0-6.08-9V85.58c2.12,2.26,4.16,4.61,6.08,7Zm0-17.27q-2.9-3.58-6.08-6.92V52.92L172.41,59Zm1,43.33a87.38,87.38,0,0,1,0,47.29Zm0,50.74a88.26,88.26,0,0,0,0-54.18V112.05a95.71,95.71,0,0,1,0,91.93Zm0,20.92a96.7,96.7,0,0,0,0-96V93.93a105.56,105.56,0,0,1,0,128.17Z"/><path class="cls-5" d="M120.92,166.38c-2.32,3.91-10,15.69-14.58,18.7a23.33,23.33,0,0,1-11.64,3.51,8.9,8.9,0,0,1-5.85-1.75c-1.92-1.59-3.18-5.2-3.07-8.8.07-2.69.93-4.77,2.43-5.85a.91.91,0,0,1,.33-.15c1.47-.2,2.73-.43,3.31-.55a.76.76,0,0,1,.91.6c.69,3.33,1.81,5.12,4.11,6.44,4.29-3.31,7.16-7,8.32-10.77l.24-.75c1.17-3.54,3.13-9.46-2.9-15.74-8-8.39-15.35-11.25-21.68-8.42-6.93,3.09-10.13,6.89-10.72,7.63a.76.76,0,0,1-1.07.12A7.56,7.56,0,0,1,66.2,147a.77.77,0,0,1,.21-.78c.57-.52,14.08-12.66,29.73-12.66a27.31,27.31,0,0,1,16.14,5.18,1.54,1.54,0,0,0,1.21-.56c.57-.62,1.5-2.23,1.2-6.11-.43-5.65-2.26-9.31-17-18.18C91.85,119.6,84.53,126,79.16,126a5.63,5.63,0,0,1-3.89-1.46,9.14,9.14,0,0,1-3-6.92c0-4.06,2.28-8.63,6.17-12.21a14.84,14.84,0,0,0,1.09-1.11,15,15,0,0,0-1.94.71c-4.67,2-13.92,11.61-14.92,22.93-1,11.61,3.11,18.86,3.14,18.93l.31.61a.77.77,0,0,1-.23,1c-2.82,2.11-16.58,13.81-11.75,37C58.8,208,89,215,99.4,215A12.15,12.15,0,0,0,101,215a17.75,17.75,0,0,0,2.37-.38c-.94-.46-2.78-1.08-4.44-1.65l-3.48-1.21c-8.17-3-23-10.19-30.22-25-6.4-13,.53-28.34,2.83-32.74a3,3,0,0,1,.18-.36.91.91,0,0,1,.62-.44c.24,0,.33.14.49.32l.24.25,3.89,4.16c.17.17.45.49.4.72a18.71,18.71,0,0,0,.71,8.07,3.32,3.32,0,0,0,.22.53.77.77,0,0,1,.09.36c0,2.26.08,13.92,3.06,20.79,3.14,7.23,5.92,12,15.71,12,11.5,0,20-6.07,26.74-19.12,4.93-9.52,5.37-22.39,5-29.58C124.64,156.2,123.28,162.41,120.92,166.38Zm-45.37-9.49c3.16-3.55,11.1-8,16.79-5.43,6.9,3.18,10.6,12,5.43,16.32-3.51,2.9-11.09,4.17-14,3.12C80,169.53,73.19,167.27,75.55,156.89Z"/><path class="cls-5" d="M7.72,239.49v2l-.5-.44-.16.19,3,2.59.17-.18L9.45,243v-2.41h1.23v1.12l-.66.57.17.18,1.43-1.25-.17-.18-.52.46v-2l.52.46.17-.18-1.5-1.32-.16.19.72.63v1.11H9.45V238l.69-.61-.16-.18-3,2.6.17.19Zm1.48,3.33L8,241.75v-1.12H9.2Zm0-2.44H8v-1.11L9.2,238.2Z"/></g></g><rect class="cls-5" x="-5.67" y="-5.67" width="189.92" height="45.68"/><polygon class="cls-6" points="184.25 -5.67 121.97 -5.67 143.03 20.5 184.25 20.5 184.25 -5.67"/><polygon class="cls-6" points="-5.67 -5.67 56.62 -5.67 35.55 20.5 -5.67 20.5 -5.67 -5.67"/><polygon class="cls-3" points="122.48 -5.67 121.96 -5.67 121.5 -5.29 142.79 21 184.25 21 184.25 20 143.27 20 122.48 -5.67"/><polygon class="cls-3" points="56.1 -5.67 35.31 20 -5.67 20 -5.67 21 35.79 21 57.08 -5.29 56.62 -5.67 56.1 -5.67"/><g class="cls-7"><g class="cls-4"><path class="cls-5" d="M173.41-204V-237.7l-1-1-6.08-6.08v-53h-1v52l-6.09-6.09V-297.8h-1v46.27l1,1.06,6.09,6.08v31.18q-2.94-3-6.09-5.73l-1-.85a106.9,106.9,0,0,0-31.6-18.56V-297.8h-1v59.08q-3.69-1.35-7.5-2.41v-59h-1v58.73s-.45.92-.43.92l-6.79,7.54a96.73,96.73,0,0,0-20.63-2.22,96.73,96.73,0,0,0-20.63,2.22l-6.78-7.54s-.43-.92-.44-.91v-58.74h-1v59c-2.54.71-5,1.52-7.5,2.41V-297.8h-1v59.45a107,107,0,0,0-31.6,18.56l-1,.85q-3.15,2.74-6.09,5.73v-31.18l6.09-6.08,1-1.05V-297.8h-1v45.91l-6.09,6.09v-52h-1v53l-6.08,6.08-1,.91V-204A106.26,106.26,0,0,0-17.51-138.3,106.29,106.29,0,0,0,5.17-72.57v33.66l1,1,6.08,6.09v53h1v-52l6.09,6.09V21.22h1v-46.3l-1-1L13.25-32.2V-63.38q2.94,3,6.09,5.72l1,.85a107.06,107.06,0,0,0,31.6,18.57V21.22h1V-37.87c2.46.89,5,1.7,7.5,2.41V23h1v-58.2l.44-.92,6.78-7.53a96.73,96.73,0,0,0,20.63,2.22,96.73,96.73,0,0,0,20.63-2.22l6.79,7.53.43.92V23h1V-35.46c2.54-.71,5-1.52,7.5-2.41V21.22h1V-38.24a106.72,106.72,0,0,0,31.6-18.57l1-.84q3.15-2.74,6.09-5.73V-32.2l-6.09,6.08-1,1.08V21.22h1V-24.7l6.09-6.09v52h1v-53l6.08-6.08,1-1V-72.57a106.27,106.27,0,0,0,22.68-65.73A106.26,106.26,0,0,0,173.41-204ZM5.17-114.66A87,87,0,0,1,1.92-138.3a87,87,0,0,1,3.25-23.63Zm0-50.72A87.91,87.91,0,0,0,.92-138.3a87.93,87.93,0,0,0,4.25,27.09v18.88a95.32,95.32,0,0,1-11.76-46,95.31,95.31,0,0,1,11.76-46Zm0-20.92a96.3,96.3,0,0,0-12.76,48,96.31,96.31,0,0,0,12.76,48v16.08A105.26,105.26,0,0,1-16.51-138.3,105.26,105.26,0,0,1,5.17-202.38ZM12.25-33.2,6.17-39.29v-32q2.89,3.58,6.08,6.92Zm0-32.66c-2.12-2.26-4.16-4.61-6.08-7V-88.59a98,98,0,0,0,6.08,9Zm0-15.42a98.57,98.57,0,0,1-6.08-9.27v-17.73A88.83,88.83,0,0,0,12.25-95Zm0-15.82a87.44,87.44,0,0,1-6.08-14.27v-53.85a87.44,87.44,0,0,1,6.08-14.27Zm0-84.46a88.83,88.83,0,0,0-6.08,13.25V-186a98.57,98.57,0,0,1,6.08-9.27Zm0-15.41a98,98,0,0,0-6.08,9v-15.68c1.92-2.44,4-4.79,6.08-7Zm0-15.22q-3.18,3.33-6.08,6.92v-32l6.08-6.09Zm77-22a96.26,96.26,0,0,1,19.86,2.07l-5.88,6.54s-.32,1-.31,1v17.43a70,70,0,0,0-13.67-1.35,69.19,69.19,0,0,0-13.67,1.36V-224.6s-.3-1-.3-1l-5.89-6.54A96.26,96.26,0,0,1,89.29-234.17Zm0,164.55a69,69,0,0,1-68.95-68.86c0-.16,0-.33,0-.49q0-1.11.06-2.22a69,69,0,0,1,31.53-55l1-.64a69.36,69.36,0,0,1,7.5-4.05l1-.45A70.35,70.35,0,0,1,69-204.19l1-.28c1.52-.45,3.07-.85,4.64-1.19l1-.22a69.19,69.19,0,0,1,13.67-1.36A69.19,69.19,0,0,1,103-205.88l1,.22c1.58.35,3.13.75,4.67,1.19l1,.29a67.74,67.74,0,0,1,7.51,2.83l1,.45a69.36,69.36,0,0,1,7.5,4.05l1,.64a69,69,0,0,1,31.54,55.09c0,.66,0,1.32,0,2,0,.24,0,.47,0,.7A69,69,0,0,1,89.29-69.62Zm19.34-1.47v18c-1.54.35-3.1.65-4.67.92V-69.91C105.54-70.24,107.09-70.64,108.63-71.09Zm-34,1.18v17.75c-1.56-.27-3.11-.57-4.64-.92v-18C71.51-70.64,73.05-70.24,74.62-69.91ZM70-205.78v-17.73c1.53-.35,3.08-.66,4.64-.92v17.48C73.05-206.62,71.51-206.22,70-205.78Zm38.65,0c-1.54-.44-3.09-.84-4.67-1.17v-17.48c1.57.27,3.13.57,4.67.92Zm-95.38-6q2.94-3,6.09-5.82l1-.88a106.1,106.1,0,0,1,31.6-18.8l1-.38c2.46-.9,5-1.72,7.5-2.44l1,.63,6.09,6.76q-3.07.72-6.09,1.62l-1,.3c-2.54.8-5,1.7-7.5,2.7l-1,.41a97.26,97.26,0,0,0-31.6,21.4l-1,1q-3.21,3.34-6.09,7Zm0,15.15c1.92-2.48,3.95-4.88,6.09-7.16l1-1.06a96.3,96.3,0,0,1,31.6-21.75l1-.41c2.45-1,5-1.92,7.5-2.73l1-.3c2.26-.69,4.54-1.29,6.86-1.81l5.84,6.48a88.06,88.06,0,0,0-12.7,3.2l-1,.34c-2.55.88-5.06,1.88-7.5,3l-1,.46a89.1,89.1,0,0,0-31.6,24.87l-1,1.27a88.75,88.75,0,0,0-6.09,9Zm0,15.33a88.52,88.52,0,0,1,6.09-9.3l1-1.3a87.83,87.83,0,0,1,31.6-25.37l1-.47c2.44-1.12,5-2.13,7.5-3l1-.35q3.7-1.24,7.54-2.16v17.78a70.08,70.08,0,0,0-49.64,66.93c0,.07,0,.14,0,.21v.19a69.44,69.44,0,0,0,.95,11.06l0,.53A70.07,70.07,0,0,0,51.94-79.2l1,.64a69.63,69.63,0,0,0,7.5,4l1,.46A72.22,72.22,0,0,0,69-71.36v18q-3.84-.91-7.54-2.16l-1-.35c-2.55-.9-5.06-1.91-7.5-3l-1-.47a87.83,87.83,0,0,1-31.6-25.37l-1-1.3a88.52,88.52,0,0,1-6.09-9.3ZM61.44-37.12l-1,.63q-3.81-1.09-7.5-2.44l-1-.38a105.92,105.92,0,0,1-31.6-18.81l-1-.87q-3.15-2.79-6.09-5.82V-78.33q2.88,3.64,6.09,7l1,1a97.26,97.26,0,0,0,31.6,21.4l1,.41c2.45,1,5,1.9,7.5,2.7l1,.3q3,.9,6.09,1.62Zm6.86-7.62c-2.32-.52-4.6-1.12-6.86-1.81l-1-.3c-2.54-.81-5-1.72-7.5-2.73l-1-.41a96.3,96.3,0,0,1-31.6-21.75l-1-1.06c-2.14-2.28-4.17-4.68-6.09-7.16V-93.31a88.75,88.75,0,0,0,6.09,9l1,1.27a89.1,89.1,0,0,0,31.6,24.87l1,.46c2.44,1.11,5,2.1,7.5,3l1,.34a88.06,88.06,0,0,0,12.7,3.2Zm21,2.32a96.26,96.26,0,0,1-19.86-2.07L75.31-51s.32-1,.31-1V-69.7a70,70,0,0,0,13.67,1.35A70,70,0,0,0,103-69.7V-52s.3,1,.31,1l5.88,6.54A96.26,96.26,0,0,1,89.29-42.42Zm76-22.39c-2,2-4,4-6.09,5.82l-1,.88a106.1,106.1,0,0,1-31.6,18.8l-1,.38c-2.46.9-5,1.72-7.5,2.44l-1-.63-6.09-6.76c2.06-.48,4.08-1,6.09-1.62l1-.3q3.83-1.2,7.5-2.7l1-.41a97.26,97.26,0,0,0,31.6-21.4l1-1q3.21-3.34,6.09-7Zm0-15.15q-2.88,3.73-6.09,7.16l-1,1.06A96.2,96.2,0,0,1,126.64-50l-1,.41q-3.67,1.52-7.5,2.73l-1,.3c-2.26.69-4.54,1.29-6.86,1.81l-5.84-6.48a88.06,88.06,0,0,0,12.7-3.2l1-.34c2.55-.88,5.06-1.88,7.5-3l1-.46a89,89,0,0,0,31.6-24.87l1-1.27a89.75,89.75,0,0,0,6.09-9Zm0-15.33a88.52,88.52,0,0,1-6.09,9.3l-1,1.3a87.83,87.83,0,0,1-31.6,25.37l-1,.47c-2.44,1.12-5,2.13-7.5,3l-1,.35c-2.46.83-5,1.54-7.51,2.15V-71.37a69.47,69.47,0,0,0,7.51-2.77l1-.46a69.63,69.63,0,0,0,7.5-4l1-.64a70.07,70.07,0,0,0,31.6-47.38l0-.51a70,70,0,0,0,.95-11.1v-.16c0-.07,0-.14,0-.22a70.06,70.06,0,0,0-49.61-66.92v-17.78c2.54.61,5.05,1.32,7.51,2.15l1,.35c2.55.9,5.06,1.91,7.5,3l1,.47a87.83,87.83,0,0,1,31.6,25.37l1,1.3a88.52,88.52,0,0,1,6.09,9.3Zm0-88a89.75,89.75,0,0,0-6.09-9l-1-1.27a89,89,0,0,0-31.6-24.87l-1-.46c-2.44-1.11-5-2.11-7.5-3l-1-.34a88.06,88.06,0,0,0-12.7-3.2l5.84-6.48c2.32.52,4.6,1.12,6.86,1.81l1,.3q3.83,1.22,7.5,2.73l1,.41a96.2,96.2,0,0,1,31.6,21.75l1,1.06q3.21,3.42,6.09,7.16Zm0-15q-2.88-3.65-6.09-7l-1-1a97.26,97.26,0,0,0-31.6-21.4l-1-.41q-3.67-1.5-7.5-2.7l-1-.3c-2-.6-4-1.14-6.09-1.62l6.09-6.76,1-.63c2.54.72,5,1.54,7.5,2.44l1,.38a105.89,105.89,0,0,1,31.6,18.8l1,.88c2.1,1.86,4.14,3.8,6.09,5.82Zm7.08,159-6.08,6.09V-64.4q3.18-3.33,6.08-6.92Zm0-33.62c-1.92,2.44-4,4.79-6.08,7V-79.62a98,98,0,0,0,6.08-9Zm0-17.64a95.4,95.4,0,0,1-6.08,9.27V-95a88.83,88.83,0,0,0,6.08-13.25Zm0-20.81a87,87,0,0,1-6.08,14.26v-82.39a87,87,0,0,1,6.08,14.26Zm0-56.95a88.83,88.83,0,0,0-6.08-13.25v-13.75a95.4,95.4,0,0,1,6.08,9.27Zm0-19.69a98,98,0,0,0-6.08-9v-13.76c2.12,2.26,4.16,4.61,6.08,7Zm0-17.27q-2.9-3.58-6.08-6.92v-31.2l6.08,6.09Zm1,43.33a87,87,0,0,1,3.26,23.64,87,87,0,0,1-3.26,23.65Zm0,50.73a87.93,87.93,0,0,0,4.26-27.09,88,88,0,0,0-4.26-27.09v-18.87a95.31,95.31,0,0,1,11.76,46,95.32,95.32,0,0,1-11.76,46Zm0,20.93a96.27,96.27,0,0,0,12.76-48,96.24,96.24,0,0,0-12.76-48v-16.07a105.26,105.26,0,0,1,21.68,64.08,105.26,105.26,0,0,1-21.68,64.09Z"/></g></g><g class="cls-7"><path class="cls-1" d="M61.44-241.4v-58.74h-1v59c-2.54.71-5,1.52-7.5,2.41V-297.8h-1v59.45a107,107,0,0,0-31.6,18.56l-1,.85q-3.15,2.74-6.09,5.73v-31.18l6.09-6.08,1-1.05V-297.8h-1v45.91l-6.09,6.09v-52h-1v53l-6.08,6.08-1,.91V-204A106.26,106.26,0,0,0-17.51-138.3,106.29,106.29,0,0,0,5.17-72.57v33.66l1,1,6.08,6.09v53h1v-52l6.09,6.09V21.22h1v-46.3l-1-1L13.25-32.2V-63.38q2.94,3,6.09,5.72l1,.85a107.06,107.06,0,0,0,31.6,18.57V21.22h1V-37.87c2.46.89,5,1.7,7.5,2.41V23h1v-58.2l.44-.92,6.78-7.53a96.73,96.73,0,0,0,20.63,2.22,96.73,96.73,0,0,0,20.63-2.22l6.79,7.53.43.92V23h1V-35.46c2.54-.71,5-1.52,7.5-2.41V21.22h1V-38.24a106.72,106.72,0,0,0,31.6-18.57l1-.84q3.15-2.74,6.09-5.73V-32.2l-6.09,6.08-1,1.08V21.22h1V-24.7l6.09-6.09v52h1v-53l6.08-6.08,1-1V-72.57a106.27,106.27,0,0,0,22.68-65.73A106.26,106.26,0,0,0,173.41-204V-237.7l-1-1-6.08-6.08v-53h-1v52l-6.09-6.09V-297.8h-1v46.27l1,1.06,6.09,6.08v31.18q-2.94-3-6.09-5.73l-1-.85a106.9,106.9,0,0,0-31.6-18.56V-297.8h-1v59.08q-3.69-1.35-7.5-2.41v-59h-1v58.73s-.45.92-.43.92l-6.79,7.54a96.73,96.73,0,0,0-20.63-2.22,96.73,96.73,0,0,0-20.63,2.22l-6.78-7.54S61.45-241.41,61.44-241.4ZM6.17-237.3l6.08-6.09v31.2q-3.18,3.33-6.08,6.92Zm6.08,26.57V-197a98,98,0,0,0-6.08,9v-15.68C8.09-206.12,10.13-208.47,12.25-210.73Zm160.16,99.37a87,87,0,0,1-6.08,14.26v-82.39a87,87,0,0,1,6.08,14.26Zm1-50.58a87,87,0,0,1,3.26,23.64,87,87,0,0,1-3.26,23.65Zm-8.08,66.65a88.52,88.52,0,0,1-6.09,9.3l-1,1.3a87.83,87.83,0,0,1-31.6,25.37l-1,.47c-2.44,1.12-5,2.13-7.5,3l-1,.35c-2.46.83-5,1.54-7.51,2.15V-71.37a69.47,69.47,0,0,0,7.51-2.77l1-.46a69.63,69.63,0,0,0,7.5-4l1-.64a70.07,70.07,0,0,0,31.6-47.38l0-.51a70,70,0,0,0,.95-11.1v-.16c0-.07,0-.14,0-.22a70.06,70.06,0,0,0-49.61-66.92v-17.78c2.54.61,5.05,1.32,7.51,2.15l1,.35c2.55.9,5.06,1.91,7.5,3l1,.47a87.83,87.83,0,0,1,31.6,25.37l1,1.3a88.52,88.52,0,0,1,6.09,9.3ZM20.35-139q0-1.11.06-2.22a69,69,0,0,1,31.53-55l1-.64a69.36,69.36,0,0,1,7.5-4.05l1-.45A70.35,70.35,0,0,1,69-204.19l1-.28c1.52-.45,3.07-.85,4.64-1.19l1-.22a69.19,69.19,0,0,1,13.67-1.36A69.19,69.19,0,0,1,103-205.88l1,.22c1.58.35,3.13.75,4.67,1.19l1,.29a67.74,67.74,0,0,1,7.51,2.83l1,.45a69.36,69.36,0,0,1,7.5,4.05l1,.64a69,69,0,0,1,31.54,55.09c0,.66,0,1.32,0,2,0,.24,0,.47,0,.7A69,69,0,0,1,89.29-69.62a69,69,0,0,1-68.95-68.86C20.35-138.64,20.35-138.81,20.35-139Zm-1,.4c0,.07,0,.14,0,.21v.19a69.44,69.44,0,0,0,.95,11.06l0,.53A70.1,70.1,0,0,0,51.94-79.2l1,.64a69.63,69.63,0,0,0,7.5,4l1,.46A72.22,72.22,0,0,0,69-71.36v18q-3.84-.91-7.54-2.16l-1-.35c-2.55-.9-5.06-1.91-7.5-3l-1-.47a87.83,87.83,0,0,1-31.6-25.37l-1-1.3a88.52,88.52,0,0,1-6.09-9.3v-86a88.52,88.52,0,0,1,6.09-9.3l1-1.3a87.83,87.83,0,0,1,31.6-25.37l1-.47c2.44-1.12,5-2.13,7.5-3l1-.35q3.7-1.24,7.54-2.16v17.78A70.08,70.08,0,0,0,19.34-138.57ZM6.17-165.22a87.44,87.44,0,0,1,6.08-14.27V-97.1a87.44,87.44,0,0,1-6.08-14.27Zm-1,50.56A87,87,0,0,1,1.92-138.3a87,87,0,0,1,3.25-23.63Zm1-53.65V-186a98.57,98.57,0,0,1,6.08-9.27v13.75A88.83,88.83,0,0,0,6.17-168.31Zm-1,2.93A87.91,87.91,0,0,0,.92-138.3a87.93,87.93,0,0,0,4.25,27.09v18.88a95.32,95.32,0,0,1-11.76-46,95.31,95.31,0,0,1,11.76-46Zm1,57.1A88.83,88.83,0,0,0,12.25-95v13.75a98.57,98.57,0,0,1-6.08-9.27Zm7.08,15a88.75,88.75,0,0,0,6.09,9l1,1.27a89.1,89.1,0,0,0,31.6,24.87l1,.46c2.44,1.11,5,2.1,7.5,3l1,.34a88.06,88.06,0,0,0,12.7,3.2L68.3-44.74c-2.32-.52-4.6-1.12-6.86-1.81l-1-.3c-2.54-.81-5-1.72-7.5-2.73l-1-.41a96.3,96.3,0,0,1-31.6-21.75l-1-1.06c-2.14-2.28-4.17-4.68-6.09-7.16ZM70-53.08v-18c1.53.44,3.07.84,4.64,1.17v17.75C73.06-52.43,71.51-52.73,70-53.08Zm38.65-18v18c-1.54.35-3.1.65-4.67.92V-69.91C105.54-70.24,107.09-70.64,108.63-71.09Zm8.51,16.67,1-.34c2.55-.88,5.06-1.88,7.5-3l1-.46a89,89,0,0,0,31.6-24.87l1-1.27a89.75,89.75,0,0,0,6.09-9V-80q-2.88,3.73-6.09,7.16l-1,1.06A96.2,96.2,0,0,1,126.64-50l-1,.41q-3.67,1.52-7.5,2.73l-1,.3c-2.26.69-4.54,1.29-6.86,1.81l-5.84-6.48A88.06,88.06,0,0,0,117.14-54.42ZM166.33-95a88.83,88.83,0,0,0,6.08-13.25v17.73a95.4,95.4,0,0,1-6.08,9.27Zm7.08-16.18a87.93,87.93,0,0,0,4.26-27.09,88,88,0,0,0-4.26-27.09v-18.87a95.31,95.31,0,0,1,11.76,46,95.32,95.32,0,0,1-11.76,46Zm-1-57.1a88.83,88.83,0,0,0-6.08-13.25v-13.75a95.4,95.4,0,0,1,6.08,9.27Zm-7.08-15a89.75,89.75,0,0,0-6.09-9l-1-1.27a89,89,0,0,0-31.6-24.87l-1-.46c-2.44-1.11-5-2.11-7.5-3l-1-.34a88.06,88.06,0,0,0-12.7-3.2l5.84-6.48c2.32.52,4.6,1.12,6.86,1.81l1,.3q3.83,1.22,7.5,2.73l1,.41a96.2,96.2,0,0,1,31.6,21.75l1,1.06q3.21,3.42,6.09,7.16Zm-56.7-40.22v17.73c-1.54-.44-3.09-.84-4.67-1.17v-17.48C105.53-224.16,107.09-223.86,108.63-223.51ZM70-205.78v-17.73c1.53-.35,3.08-.66,4.64-.92v17.48C73.05-206.62,71.51-206.22,70-205.78Zm-8.54-16.39-1,.34c-2.55.88-5.06,1.88-7.5,3l-1,.46a89.1,89.1,0,0,0-31.6,24.87l-1,1.27a88.75,88.75,0,0,0-6.09,9v-13.35c1.92-2.48,3.95-4.88,6.09-7.16l1-1.06a96.3,96.3,0,0,1,31.6-21.75l1-.41c2.45-1,5-1.92,7.5-2.73l1-.3c2.26-.69,4.54-1.29,6.86-1.81l5.84,6.48A88.06,88.06,0,0,0,61.44-222.17ZM-16.51-138.3A105.26,105.26,0,0,1,5.17-202.38v16.08a96.3,96.3,0,0,0-12.76,48,96.31,96.31,0,0,0,12.76,48v16.08A105.26,105.26,0,0,1-16.51-138.3ZM6.17-72.91V-88.59a98,98,0,0,0,6.08,9v13.76C10.13-68.12,8.09-70.47,6.17-72.91ZM12.25-33.2,6.17-39.29v-32q2.89,3.58,6.08,6.92Zm49.19-3.92-1,.63q-3.81-1.09-7.5-2.44l-1-.38a105.92,105.92,0,0,1-31.6-18.81l-1-.87q-3.15-2.79-6.09-5.82V-78.33q2.88,3.64,6.09,7l1,1a97.26,97.26,0,0,0,31.6,21.4l1,.41c2.45,1,5,1.9,7.5,2.7l1,.3q3,.9,6.09,1.62Zm27.85-5.3a96.26,96.26,0,0,1-19.86-2.07L75.31-51s.32-1,.31-1V-69.7a70,70,0,0,0,13.67,1.35A70,70,0,0,0,103-69.7V-52s.3,1,.31,1l5.88,6.54A96.26,96.26,0,0,1,89.29-42.42Zm70-16.57-1,.88a106.1,106.1,0,0,1-31.6,18.8l-1,.38c-2.46.9-5,1.72-7.5,2.44l-1-.63-6.09-6.76c2.06-.48,4.08-1,6.09-1.62l1-.3q3.83-1.2,7.5-2.7l1-.41a97.26,97.26,0,0,0,31.6-21.4l1-1q3.21-3.34,6.09-7v13.52C163.38-62.79,161.34-60.85,159.24-59Zm13.17,19.7-6.08,6.09V-64.4q3.18-3.33,6.08-6.92Zm-6.08-26.57V-79.62a96.06,96.06,0,0,0,6.08-9v15.68C170.49-70.47,168.45-68.12,166.33-65.86Zm28.76-72.44a105.26,105.26,0,0,1-21.68,64.09V-90.28a96.27,96.27,0,0,0,12.76-48,96.24,96.24,0,0,0-12.76-48v-16.07A105.26,105.26,0,0,1,195.09-138.3Zm-22.68-65.38V-188a96.06,96.06,0,0,0-6.08-9v-13.76C168.45-208.47,170.49-206.12,172.41-203.68Zm-6.08-39.71,6.08,6.09v32q-2.9-3.58-6.08-6.92Zm-49.19,3.92,1-.63c2.54.72,5,1.54,7.5,2.44l1,.38a105.89,105.89,0,0,1,31.6,18.8l1,.88c2.1,1.86,4.14,3.8,6.09,5.82v13.52q-2.88-3.65-6.09-7l-1-1a97.26,97.26,0,0,0-31.6-21.4l-1-.41q-3.67-1.5-7.5-2.7l-1-.3c-2-.6-4-1.14-6.09-1.62Zm-27.85,5.3a96.26,96.26,0,0,1,19.86,2.07l-5.88,6.54s-.32,1-.31,1v17.44a69.19,69.19,0,0,0-13.67-1.36,69.19,69.19,0,0,0-13.67,1.36V-224.6s-.3-1-.31-1l-5.88-6.54A96.26,96.26,0,0,1,89.29-234.17Zm-27.85-5.3,6.09,6.76q-3.07.72-6.09,1.62l-1,.3c-2.54.8-5,1.7-7.5,2.7l-1,.41a97.26,97.26,0,0,0-31.6,21.4l-1,1q-3.21,3.34-6.09,7v-13.52q2.94-3,6.09-5.82l1-.88a106.1,106.1,0,0,1,31.6-18.8l1-.38c2.46-.9,5-1.72,7.5-2.44Z"/></g><path class="cls-8" d="M65.21,32V28.4h3.7V29H66.05v.81h1.67v.61H66.05v.9H69V32Z"/><path class="cls-8" d="M70.23,32v-3h.5l2.52,2v-2h.65v3h-.5l-2.51-2v2Z"/><path class="cls-8" d="M76.6,32l-1.79-3h.82l1.25,2.14,1.19-2.14h.74L77.1,32Z"/><path class="cls-8" d="M79.64,32v-3h.72v3Z"/><path class="cls-8" d="M81.67,32v-3h2.67a.84.84,0,0,1,.53.13.54.54,0,0,1,.17.44v.7a.54.54,0,0,1-.17.44.84.84,0,0,1-.53.13h-.4L85.35,32h-1L83.07,30.9h-.68V32ZM84,29.57H82.39v.82H84a.52.52,0,0,0,.25-.05.22.22,0,0,0,.07-.19v-.34c0-.1,0-.16-.07-.19A.52.52,0,0,0,84,29.57Z"/><path class="cls-8" d="M86.16,29.75a1,1,0,0,1,.07-.43.37.37,0,0,1,.23-.21,1.78,1.78,0,0,1,.46-.05h2.29a1.81,1.81,0,0,1,.47.05.37.37,0,0,1,.23.21,1,1,0,0,1,.07.43v1.57a1,1,0,0,1-.07.43.37.37,0,0,1-.23.21,1.49,1.49,0,0,1-.47.06H86.92a1.42,1.42,0,0,1-.46-.06.42.42,0,0,1-.24-.21,1.23,1.23,0,0,1-.06-.43Zm.72,1.7h2.38V29.6H86.88Z"/><path class="cls-8" d="M91.23,32v-3h.5l2.51,2v-2h.65v3H94.4l-2.51-2v2Z"/><path class="cls-8" d="M96.21,32v-3h.58l1.45,1.75,1.44-1.75h.58v3h-.67V30l-1.32,1.68h-.14L96.79,30v2Z"/><path class="cls-8" d="M101.58,32v-3h3.18v.52h-2.45v.65h1.43v.51h-1.43v.72h2.49V32Z"/><path class="cls-8" d="M105.84,32v-3h.49l2.52,2v-2h.65v3H109l-2.5-2v2Z"/><path class="cls-8" d="M112.59,29.59V32h-.72V29.59h-1.43v-.53H114v.53Z"/><path class="cls-5" d="M7.66,46.85h3c.77,0,1,.25,1,1.22v2.71c0,1-.25,1.22-1,1.22h-3c-.77,0-1-.25-1-1.22V48.07C6.64,47.1,6.89,46.85,7.66,46.85ZM10.76,51V47.77H7.6V51Z"/><path class="cls-5" d="M13.45,47.78h3c.55,0,.8.22.8.82v.51a.67.67,0,0,1-.57.71.75.75,0,0,1,.6.81v.54c0,.56-.35.83-1,.83H13.45Zm.81.68v1h1.85c.25,0,.37-.05.37-.3v-.39c0-.25-.12-.31-.37-.31Zm0,1.7v1.08h1.85c.28,0,.4-.07.4-.38v-.32c0-.31-.12-.38-.4-.38Z"/><path class="cls-5" d="M19.35,48.53v.89h2.2c.67,0,.88.2.88,1V51c0,.79-.21,1-.88,1h-2.2c-.67,0-.89-.21-.89-1v-.12l.74-.17v.5h2.48v-1H19.49c-.66,0-.88-.2-.88-1v-.46c0-.8.22-1,.88-1h2c.62,0,.89.17.89.91v.1l-.71.19v-.45Z"/><path class="cls-5" d="M25.87,52H25V48.53H23.41v-.75h4.1v.75H25.87Z"/><path class="cls-5" d="M29.48,47.78h.79l2,4.22h-.93L31,51.07H28.72l-.43.93h-.82Zm1.14,2.52-.79-1.76-.76,1.76Z"/><path class="cls-5" d="M33.89,48.55v2.64h2.23v-.9l.83.21V51c0,.79-.22,1-.89,1H34c-.68,0-.88-.22-.88-1V48.78c0-.79.21-1,.88-1h2.11c.67,0,.89.2.89,1v.41l-.83.14v-.78Z"/><path class="cls-5" d="M38.3,47.78h.83v3.43h2.66V52H38.3Z"/><path class="cls-5" d="M42.72,47.78h3.63v.75h-2.8v.91h1.63v.73H43.55v1h2.84V52H42.72Z"/><path class="cls-5" d="M48.38,48.53v.89h2.2c.67,0,.88.2.88,1V51c0,.79-.21,1-.88,1h-2.2c-.67,0-.89-.21-.89-1v-.12l.74-.17v.5h2.49v-1H48.53c-.67,0-.89-.2-.89-1v-.46c0-.8.22-1,.89-1h2c.63,0,.89.17.89.91v.1l-.71.19v-.45Z"/><path class="cls-5" d="M53.88,47.77c.16,0,.2.12.2.37v.8c0,.37-.07.37-.34.37H53c-.16,0-.19-.12-.19-.37v-.8c0-.37.06-.37.33-.37h.71Zm0,2.68c.16,0,.2.12.2.37v.81c0,.37-.07.37-.34.37H53c-.16,0-.19-.12-.19-.37v-.81c0-.37.06-.37.33-.37h.71Z"/><path class="cls-5" d="M59.11,46.93H62v.45H59.6v1.54h0c.24-.34.51-.39,1.08-.39,1.29,0,1.48.5,1.48,1.76,0,1.54-.31,1.77-1.63,1.77-.85,0-1.53-.16-1.53-1.13v-.38h.44c0,.86.08,1,1.13,1s1.1-.19,1.1-1.28c0-.94,0-1.27-1.13-1.27-.65,0-.88,0-1,.45h-.43Z"/><path class="cls-5" d="M66.51,49.51h1.81v1.13c0,1.36-.59,1.42-1.69,1.42-1.33,0-1.78-.25-1.78-1.74V48.61c0-1.48.45-1.73,1.78-1.73,1,0,1.69.08,1.69,1v.51h-.49v-.18c0-.78-.17-.88-1.2-.88s-1.29.15-1.29,1.27v1.65c0,1.12.14,1.28,1.29,1.28,1,0,1.2,0,1.2-1.07V50H66.51Z"/><path class="cls-5" d="M71.11,51.69a1.19,1.19,0,0,1-1,.37c-.91,0-1.11-.44-1.11-1.12s.16-1.12,1.11-1.12c.68,0,.83.08,1,.32h0v-.65c0-.53,0-.71-.79-.71s-.75.18-.75.64h-.44v-.19c0-.43.1-.86,1.21-.86s1.22.33,1.22,1V52h-.4Zm-.86-.08c.6,0,.86-.15.86-.69s-.26-.7-.86-.7-.85.15-.85.7S69.66,51.61,70.25,51.61Z"/><path class="cls-5" d="M72.7,50.9c0,.61.09.75.76.75s.85-.1.85-.71,0-.5-.89-.55-1.14-.18-1.14-1,.13-1.05,1.2-1.05,1.25.24,1.25,1h-.45c0-.54-.15-.58-.82-.58s-.74.06-.74.62.07.54.82.59c1.06.06,1.22.14,1.22.93s-.16,1.14-1.32,1.14c-.82,0-1.19-.1-1.19-1.16Z"/><path class="cls-5" d="M80.79,50.7c0,1.1-.34,1.36-1.57,1.36s-1.79-.25-1.79-1.74V48.61c0-1.48.45-1.73,1.79-1.73,1.12,0,1.57.14,1.57,1.32v.36h-.45v-.32c0-.8-.26-.87-1.12-.87-1.16,0-1.3.15-1.3,1.27v1.65c0,1.12.14,1.28,1.3,1.28s1.12-.22,1.12-.92v-.33h.45Z"/><path class="cls-5" d="M81.58,46.93H82V52h-.45Z"/><path class="cls-5" d="M84.14,48.37c1.18,0,1.32.43,1.32,1.85s-.16,1.84-1.32,1.84-1.32-.37-1.32-1.84S83,48.37,84.14,48.37Zm0,3.28c.71,0,.83-.1.83-1.43s-.12-1.44-.83-1.44-.83.11-.83,1.44S83.43,51.65,84.14,51.65Z"/><path class="cls-5" d="M88.63,52h-.44v-.46h0a.94.94,0,0,1-1,.52c-.83,0-1.06-.41-1.06-1.11V48.43h.45v2.42c0,.41.09.8.68.8s.93-.21.93-1V48.43h.44Z"/><path class="cls-5" d="M91.51,51.55h0a.86.86,0,0,1-.92.51c-1,0-1.27-.44-1.27-1.84s.28-1.85,1.2-1.85a1,1,0,0,1,1,.51h0v-2H92V52h-.45Zm-.85.06c.75,0,.85-.26.85-1.6,0-.88-.21-1.19-.85-1.19s-.86.16-.86,1.4S90,51.61,90.66,51.61Z"/><path class="cls-5" d="M93.18,50.9c0,.61.1.75.77.75s.85-.1.85-.71,0-.5-.89-.55-1.15-.18-1.15-1,.14-1.05,1.21-1.05,1.25.24,1.25,1h-.45c0-.54-.15-.58-.82-.58s-.74.06-.74.62.07.54.82.59c1.06.06,1.22.14,1.22.93s-.16,1.14-1.32,1.14c-.82,0-1.19-.1-1.19-1.16Z"/><path class="cls-5" d="M96.34,51.36h.49v.76c0,.6-.17.64-.53.64v-.28c.19,0,.25,0,.25-.48h-.21Z"/><path class="cls-5" d="M101.15,49.21c1.22,0,1.4,0,1.4-1,0-.66,0-.85-1.06-.85-.77,0-1.09,0-1.09.72v.39H100V48c0-1.08.6-1.16,1.48-1.16,1.48,0,1.61.37,1.61,1.37,0,.64-.13,1-.61,1.15v0c.39.12.63.27.63,1.12,0,1.18-.1,1.52-1.57,1.52s-1.65-.24-1.65-1.34v-.35h.45c0,1.06,0,1.2,1.15,1.2s1.13-.13,1.13-1-.14-.91-1.42-.91Z"/><path class="cls-5" d="M105.77,46.93h.78l2.27,4.54h0V46.93h.49V52h-.78l-2.27-4.54h0V52h-.49Z"/><path class="cls-5" d="M111.38,48.37c1.18,0,1.32.43,1.32,1.85s-.16,1.84-1.32,1.84-1.32-.37-1.32-1.84S110.2,48.37,111.38,48.37Zm0,3.28c.71,0,.82-.1.82-1.43s-.11-1.44-.82-1.44-.83.11-.83,1.44S110.66,51.65,111.38,51.65Z"/><path class="cls-5" d="M113.37,48.43h.45v.46h0a1,1,0,0,1,1-.52c.83,0,1.05.42,1.05,1.11V52h-.45V49.59c0-.42-.09-.81-.67-.81s-.93.21-.93,1V52h-.45Z"/><path class="cls-5" d="M116.51,49.94h1.54v.41h-1.54Z"/><path class="cls-5" d="M121.42,50.93h-2.19L118.9,52h-.51L120,46.93h.69L122.26,52h-.51Zm-1.06-3.51h-.07l-.9,3h1.87Z"/><path class="cls-5" d="M123.15,50.9c0,.61.09.75.76.75s.85-.1.85-.71-.05-.5-.89-.55-1.14-.18-1.14-1,.14-1.05,1.2-1.05,1.25.24,1.25,1h-.45c0-.54-.15-.58-.82-.58s-.74.06-.74.62.07.54.82.59c1.06.06,1.22.14,1.22.93s-.16,1.14-1.32,1.14c-.81,0-1.19-.1-1.19-1.16Z"/><path class="cls-5" d="M126.06,48.84h-.37v-.41h.37v-.82h.45v.82h1.16v.41h-1.16v2.39c0,.29.09.42.39.42s.48-.06.48-.85h.41c0,1.14-.37,1.26-.88,1.26s-.85-.2-.85-.74Z"/><path class="cls-5" d="M128.7,50.32v.33c0,.78.14,1,.75,1s.88,0,.88-.71h.45v.13c0,.72-.18,1-1.25,1s-1.32-.39-1.32-1.84.24-1.85,1.32-1.85,1.25.44,1.25,1.41v.54Zm1.63-.45c0-.75,0-1.09-.81-1.09s-.82.34-.82,1.09Z"/><path class="cls-5" d="M131.52,48.43H132v.43h0a.79.79,0,0,1,.83-.49c.56,0,.82.25.82,1v.29h-.4c0-.66-.07-.84-.58-.84s-.68.25-.68.74V52h-.45Z"/><path class="cls-5" d="M135.36,48.37c1.18,0,1.32.43,1.32,1.85s-.16,1.84-1.32,1.84S134,51.69,134,50.22,134.18,48.37,135.36,48.37Zm0,3.28c.72,0,.83-.1.83-1.43s-.11-1.44-.83-1.44-.82.11-.82,1.44S134.65,51.65,135.36,51.65Z"/><path class="cls-5" d="M137.47,46.93h.45v.6h-.45Zm0,1.5h.45V52h-.45Z"/><path class="cls-5" d="M140.92,51.55h0a.86.86,0,0,1-.92.51c-1,0-1.27-.44-1.27-1.84s.27-1.85,1.2-1.85a1,1,0,0,1,1,.51h0v-2h.45V52h-.45Zm-.85.06c.74,0,.85-.26.85-1.6,0-.88-.21-1.19-.85-1.19s-.86.16-.86,1.4S139.36,51.61,140.07,51.61Z"/><path class="cls-5" d="M6,57c0-1.48.45-1.73,1.78-1.73S9.6,55.53,9.6,57v1.71c0,1.49-.46,1.74-1.79,1.74S6,60.21,6,58.72Zm3.08,0c0-1.12-.15-1.27-1.3-1.27S6.52,55.92,6.52,57v1.65c0,1.12.14,1.28,1.29,1.28s1.3-.16,1.3-1.28Z"/><path class="cls-5" d="M10.37,55.33h.45v2h0a1,1,0,0,1,1-.5c.92,0,1.19.44,1.19,1.84s-.27,1.84-1.26,1.84a.85.85,0,0,1-.92-.51h0v.45h-.45Zm1.3,1.89c-.64,0-.85.31-.85,1.19,0,1.33.1,1.6.85,1.6s.85-.16.85-1.39S12.37,57.22,11.67,57.22Z"/><path class="cls-5" d="M14.13,59.3c0,.61.1.75.77.75s.85-.1.85-.7-.05-.51-.89-.56-1.15-.18-1.15-1,.14-1,1.21-1,1.24.23,1.24,1h-.44c0-.54-.15-.58-.82-.58s-.74.06-.74.62.06.54.82.59c1.06.06,1.22.14,1.22.93s-.16,1.14-1.32,1.14c-.82,0-1.19-.1-1.19-1.16Z"/><path class="cls-5" d="M17.05,57.24h-.37v-.41h.37V56h.45v.83h1.16v.41H17.5v2.39c0,.29.09.42.39.42s.48-.06.48-.85h.41c0,1.14-.37,1.26-.89,1.26s-.84-.2-.84-.74Z"/><path class="cls-5" d="M21.36,60.1a1.24,1.24,0,0,1-1,.36c-.91,0-1.12-.43-1.12-1.12s.16-1.12,1.12-1.12c.67,0,.82.07,1,.32h0v-.65c0-.53-.05-.71-.79-.71s-.75.18-.75.64h-.45v-.19c0-.44.1-.85,1.22-.85s1.21.32,1.21,1V60.4h-.4ZM20.5,60c.6,0,.86-.15.86-.69s-.26-.7-.86-.7-.85.15-.85.7S19.91,60,20.5,60Z"/><path class="cls-5" d="M24.48,58c0-.65-.13-.84-.72-.84s-.83.11-.83,1.44.11,1.43.83,1.43.78-.17.78-.94H25v.23c0,.92-.43,1.12-1.23,1.12-1.18,0-1.32-.39-1.32-1.84s.24-1.84,1.32-1.84,1.17.3,1.17,1.24Z"/><path class="cls-5" d="M25.73,55.33h.45V60.4h-.45Z"/><path class="cls-5" d="M27.47,58.72v.33c0,.78.13,1,.75,1s.87,0,.87-.71h.45v.13c0,.72-.17,1-1.25,1S27,60.07,27,58.62s.24-1.84,1.31-1.84,1.25.43,1.25,1.4v.54Zm1.62-.45c0-.75,0-1.09-.81-1.09s-.81.34-.81,1.09Z"/><path class="cls-5" d="M30.72,59.3c0,.61.1.75.77.75s.85-.1.85-.7-.05-.51-.89-.56-1.15-.18-1.15-1,.14-1,1.21-1,1.24.23,1.24,1h-.44c0-.54-.15-.58-.82-.58s-.74.06-.74.62.06.54.82.59c1.06.06,1.22.14,1.22.93s-.16,1.14-1.32,1.14c-.82,0-1.19-.1-1.19-1.16Z"/><path class="cls-5" d="M33.88,59.76h.49v.64h-.49Z"/><path class="cls-5" d="M7.6,76.55v1.1h2.57c.78,0,1,.25,1,1.22v.71c0,1-.25,1.22-1,1.22H7.62c-.77,0-1-.25-1-1.22v-.14l.85-.22v.61h2.92V78.65H7.78c-.78,0-1-.25-1-1.21v-.58c0-1,.24-1.21,1-1.21h2.34c.74,0,1,.24,1,1.13v.11l-.85.25v-.59Z"/><path class="cls-5" d="M12.89,76.58h3.63v.75h-2.8v.91h1.64V79H13.72v1h2.84v.79H12.89Z"/><path class="cls-5" d="M19.77,80.8H19V77.34H17.32v-.76h4.09v.76H19.77Z"/><path class="cls-5" d="M23.3,80h2.35V76.58h.83V79.8c0,.79-.21,1-.88,1H23.36c-.68,0-.88-.21-.88-1V76.58h.82Z"/><path class="cls-5" d="M28,76.58H31c.54,0,.79.22.79.82v.93c0,.59-.25.82-.79.82H28.8V80.8H28Zm.81.73v1.11h1.88c.25,0,.38-.06.38-.33v-.44c0-.29-.13-.34-.38-.34Z"/><path class="cls-5" d="M34,76.57c.16,0,.19.12.19.37v.81c0,.36-.06.36-.33.36h-.71c-.16,0-.2-.12-.2-.36v-.81c0-.37.07-.37.34-.37H34Zm0,2.68c.16,0,.19.12.19.37v.81c0,.37-.06.37-.33.37h-.71c-.16,0-.2-.12-.2-.37v-.81c0-.37.07-.37.34-.37H34Z"/><path class="cls-5" d="M41.88,79.73H39.7l-.33,1.07h-.51l1.59-5.07h.68l1.59,5.07h-.51Zm-1.06-3.51h-.07l-.9,3h1.88Z"/><path class="cls-5" d="M43.41,77.64H43v-.41h.44v-.64c0-.66.31-.91.93-.91h.32v.4h-.29c-.3,0-.51.1-.51.51v.64h.79v.41h-.79V80.8h-.45Z"/><path class="cls-5" d="M45.1,77.64h-.37v-.41h.37V76.4h.45v.83H46.7v.41H45.55V80c0,.29.09.42.38.42s.49-.06.49-.85h.4c0,1.14-.36,1.26-.88,1.26s-.84-.2-.84-.74Z"/><path class="cls-5" d="M47.74,79.12v.33c0,.78.13,1,.75,1s.87,0,.87-.71h.45v.13c0,.72-.17,1-1.24,1s-1.32-.39-1.32-1.84.24-1.84,1.32-1.84,1.24.43,1.24,1.4v.54Zm1.62-.45c0-.75,0-1.09-.81-1.09s-.81.34-.81,1.09Z"/><path class="cls-5" d="M50.55,77.23H51v.44h0a.78.78,0,0,1,.83-.49c.57,0,.83.24.83.95v.29h-.41c0-.66-.07-.84-.58-.84s-.68.25-.68.74V80.8h-.45Z"/><path class="cls-5" d="M55.21,77.64h-.37v-.41h.37V76.4h.45v.83h1.15v.41H55.66V80c0,.29.09.42.38.42s.48-.06.48-.85h.41c0,1.14-.36,1.26-.88,1.26s-.84-.2-.84-.74Z"/><path class="cls-5" d="M57.42,75.73h.45v2h0a1,1,0,0,1,1-.51c.83,0,1.05.41,1.05,1.1V80.8h-.45V78.39c0-.42-.09-.81-.68-.81s-.92.21-.92,1V80.8h-.45Z"/><path class="cls-5" d="M61.09,79.12v.33c0,.78.13,1,.75,1s.87,0,.87-.71h.45v.13c0,.72-.17,1-1.25,1S60.6,80.47,60.6,79s.24-1.84,1.31-1.84,1.25.43,1.25,1.4v.54Zm1.62-.45c0-.75,0-1.09-.81-1.09s-.81.34-.81,1.09Z"/><path class="cls-5" d="M66.29,79.7c0,.61.1.75.76.75s.86-.1.86-.7,0-.51-.9-.56-1.14-.18-1.14-1,.14-1,1.2-1,1.25.23,1.25,1h-.45c0-.54-.14-.58-.82-.58s-.73.06-.73.62.06.54.82.59c1.06.06,1.22.14,1.22.93S68.2,80.86,67,80.86c-.82,0-1.2-.1-1.2-1.16Z"/><path class="cls-5" d="M69.52,79.12v.33c0,.78.13,1,.75,1s.87,0,.87-.71h.45v.13c0,.72-.18,1-1.25,1S69,80.47,69,79s.23-1.84,1.31-1.84,1.25.43,1.25,1.4v.54Zm1.62-.45c0-.75,0-1.09-.81-1.09s-.81.34-.81,1.09Z"/><path class="cls-5" d="M74.31,78.42c0-.65-.13-.84-.73-.84s-.82.11-.82,1.44.11,1.43.82,1.43.79-.17.79-.94h.45v.23c0,.92-.44,1.12-1.24,1.12-1.17,0-1.31-.39-1.31-1.84s.24-1.84,1.31-1.84,1.17.3,1.17,1.24Z"/><path class="cls-5" d="M76.69,77.18c1.18,0,1.32.42,1.32,1.84s-.16,1.84-1.32,1.84S75.38,80.5,75.38,79,75.52,77.18,76.69,77.18Zm0,3.27c.72,0,.83-.1.83-1.43s-.11-1.44-.83-1.44-.82.11-.82,1.44S76,80.45,76.69,80.45Z"/><path class="cls-5" d="M78.69,77.23h.44v.46h0a1,1,0,0,1,1-.51c.82,0,1,.41,1,1.1V80.8h-.45V78.39c0-.42-.09-.81-.68-.81s-.93.21-.93,1V80.8h-.44Z"/><path class="cls-5" d="M84.06,80.36h0a.86.86,0,0,1-.92.5c-1,0-1.26-.44-1.26-1.84s.27-1.84,1.19-1.84a1,1,0,0,1,1,.5h0v-2h.45V80.8h-.45Zm-.85,0c.75,0,.85-.26.85-1.6,0-.88-.21-1.19-.85-1.19s-.85.16-.85,1.4S82.51,80.41,83.21,80.41Z"/><path class="cls-5" d="M88.49,77.18c1.18,0,1.32.42,1.32,1.84s-.15,1.84-1.32,1.84S87.18,80.5,87.18,79,87.32,77.18,88.49,77.18Zm0,3.27c.72,0,.83-.1.83-1.43s-.11-1.44-.83-1.44-.82.11-.82,1.44S87.78,80.45,88.49,80.45Z"/><path class="cls-5" d="M90.53,75.73H91v2h0a1,1,0,0,1,1-.5c.93,0,1.2.44,1.2,1.84s-.27,1.84-1.27,1.84a.87.87,0,0,1-.92-.5h0v.44h-.45Zm1.3,1.89c-.64,0-.85.31-.85,1.19,0,1.34.1,1.6.85,1.6s.86-.16.86-1.39S92.53,77.62,91.83,77.62Z"/><path class="cls-5" d="M94.3,79.7c0,.61.1.75.76.75s.86-.1.86-.7,0-.51-.9-.56-1.14-.18-1.14-1,.14-1,1.2-1,1.25.23,1.25,1h-.45c0-.54-.15-.58-.82-.58s-.73.06-.73.62.06.54.82.59c1,.06,1.21.14,1.21.93s-.16,1.14-1.31,1.14c-.82,0-1.2-.1-1.2-1.16Z"/><path class="cls-5" d="M97.22,77.64h-.37v-.41h.37V76.4h.44v.83h1.16v.41H97.66V80c0,.29.1.42.39.42s.48-.06.48-.85h.41c0,1.14-.36,1.26-.88,1.26s-.84-.2-.84-.74Z"/><path class="cls-5" d="M101.52,80.5a1.21,1.21,0,0,1-1,.36c-.91,0-1.11-.43-1.11-1.12s.16-1.12,1.11-1.12c.68,0,.83.07,1,.32h0v-.65c0-.53,0-.71-.79-.71s-.75.18-.75.64h-.45V78c0-.43.11-.85,1.22-.85s1.22.32,1.22,1V80.8h-.41Zm-.85-.09c.59,0,.85-.15.85-.69s-.26-.69-.85-.69-.86.14-.86.69S100.07,80.41,100.67,80.41Z"/><path class="cls-5" d="M104.65,78.42c0-.65-.13-.84-.73-.84s-.82.11-.82,1.44.11,1.43.82,1.43.79-.17.79-.94h.45v.23c0,.92-.44,1.12-1.24,1.12-1.17,0-1.31-.39-1.31-1.84s.23-1.84,1.31-1.84,1.17.3,1.17,1.24Z"/><path class="cls-5" d="M105.9,75.73h.44V80.8h-.44Z"/><path class="cls-5" d="M107.63,79.12v.33c0,.78.14,1,.75,1s.88,0,.88-.71h.44v.13c0,.72-.17,1-1.24,1s-1.32-.39-1.32-1.84.24-1.84,1.32-1.84,1.24.43,1.24,1.4v.54Zm1.63-.45c0-.75,0-1.09-.81-1.09s-.82.34-.82,1.09Z"/><path class="cls-5" d="M112.51,75.73H113v.6h-.45Zm0,1.5H113V80.8h-.45Z"/><path class="cls-5" d="M114.26,79.7c0,.61.1.75.77.75s.85-.1.85-.7,0-.51-.9-.56-1.14-.18-1.14-1,.14-1,1.21-1,1.24.23,1.24,1h-.45c0-.54-.14-.58-.81-.58s-.74.06-.74.62.06.54.82.59c1.06.06,1.22.14,1.22.93s-.16,1.14-1.32,1.14c-.82,0-1.2-.1-1.2-1.16Z"/><path class="cls-5" d="M119.05,77.23h.45v.45h0a1,1,0,0,1,1-.5c.92,0,1.2.44,1.2,1.84s-.28,1.84-1.27,1.84a.87.87,0,0,1-.92-.5h0v1.69h-.45Zm1.3.39c-.64,0-.85.31-.85,1.19,0,1.34.1,1.6.85,1.6s.86-.16.86-1.39S121.05,77.62,120.35,77.62Z"/><path class="cls-5" d="M122.49,75.73h.45V80.8h-.45Z"/><path class="cls-5" d="M125.9,80.5a1.22,1.22,0,0,1-1.05.36c-.91,0-1.11-.43-1.11-1.12s.16-1.12,1.11-1.12c.68,0,.83.07,1,.32h0v-.65c0-.53,0-.71-.79-.71s-.75.18-.75.64h-.44V78c0-.43.1-.85,1.21-.85s1.22.32,1.22,1V80.8h-.4Zm-.86-.09c.6,0,.86-.15.86-.69S125.64,79,125,79s-.85.14-.85.69S124.45,80.41,125,80.41Z"/><path class="cls-5" d="M129,78.42c0-.65-.13-.84-.72-.84s-.83.11-.83,1.44.11,1.43.83,1.43.78-.17.78-.94h.45v.23c0,.92-.43,1.12-1.23,1.12-1.18,0-1.32-.39-1.32-1.84s.24-1.84,1.32-1.84,1.17.3,1.17,1.24Z"/><path class="cls-5" d="M130.58,79.12v.33c0,.78.13,1,.75,1s.87,0,.87-.71h.45v.13c0,.72-.17,1-1.24,1s-1.32-.39-1.32-1.84.24-1.84,1.32-1.84,1.24.43,1.24,1.4v.54Zm1.62-.45c0-.75,0-1.09-.81-1.09s-.81.34-.81,1.09Z"/><path class="cls-5" d="M135.53,80.36h0a.85.85,0,0,1-.91.5c-1,0-1.27-.44-1.27-1.84s.27-1.84,1.2-1.84a1,1,0,0,1,1,.5h0v-2H136V80.8h-.45Zm-.86,0c.75,0,.86-.26.86-1.6,0-.88-.21-1.19-.86-1.19s-.85.16-.85,1.4S134,80.41,134.67,80.41Z"/><path class="cls-5" d="M137.12,80.16h.49v.76c0,.6-.18.64-.53.64v-.28c.18,0,.25,0,.25-.48h-.21Z"/><path class="cls-5" d="M142.75,80.5a1.22,1.22,0,0,1-1.05.36c-.91,0-1.11-.43-1.11-1.12s.16-1.12,1.11-1.12c.68,0,.83.07,1,.32h0v-.65c0-.53,0-.71-.79-.71s-.75.18-.75.64h-.44V78c0-.43.1-.85,1.21-.85s1.22.32,1.22,1V80.8h-.4Zm-.86-.09c.6,0,.86-.15.86-.69s-.26-.69-.86-.69-.85.14-.85.69S141.3,80.41,141.89,80.41Z"/><path class="cls-5" d="M143.89,77.23h.45v.46h0a1,1,0,0,1,1-.51c.83,0,1,.41,1,1.1V80.8H146V78.39c0-.42-.1-.81-.68-.81s-.93.21-.93,1V80.8h-.45Z"/><path class="cls-5" d="M147.25,81.67c.57,0,.67-.11.84-.87h-.21l-1-3.57h.44l.91,3.13h0l.76-3.13h.45l-1,3.94c-.16.63-.43,1-1,1a.66.66,0,0,1-.21,0Z"/><path class="cls-5" d="M8.14,88.9a1.22,1.22,0,0,1-1.05.36c-.91,0-1.11-.44-1.11-1.12S6.14,87,7.09,87c.68,0,.83.08,1,.32h0v-.65c0-.53-.05-.71-.79-.71s-.75.18-.75.64H6.1v-.19c0-.43.11-.85,1.22-.85s1.22.32,1.22,1V89.2h-.4Zm-.86-.09c.6,0,.86-.15.86-.69s-.26-.7-.86-.7-.85.15-.85.7S6.69,88.81,7.28,88.81Z"/><path class="cls-5" d="M11.42,88.76h0a.85.85,0,0,1-.91.5c-1,0-1.27-.44-1.27-1.84s.27-1.84,1.2-1.84a1,1,0,0,1,1,.5h0v-2h.45V89.2h-.45Zm-.86,0c.75,0,.86-.27.86-1.6,0-.88-.21-1.19-.86-1.19s-.85.17-.85,1.4S9.86,88.81,10.56,88.81Z"/><path class="cls-5" d="M14.79,88.76h0a.86.86,0,0,1-.92.5c-1,0-1.26-.44-1.26-1.84s.27-1.84,1.19-1.84a1,1,0,0,1,1,.5h0v-2h.44V89.2h-.44Zm-.86,0c.75,0,.86-.27.86-1.6,0-.88-.21-1.19-.86-1.19s-.85.17-.85,1.4S13.23,88.81,13.93,88.81Z"/><path class="cls-5" d="M16.14,84.13h.44v.6h-.44Zm0,1.5h.44V89.2h-.44Z"/><path class="cls-5" d="M17.56,86h-.37v-.41h.37V84.8H18v.83h1.16V86H18v2.39c0,.29.09.42.39.42s.48-.06.48-.85h.41c0,1.14-.37,1.26-.89,1.26s-.84-.2-.84-.74Z"/><path class="cls-5" d="M19.89,84.13h.45v.6h-.45Zm0,1.5h.45V89.2h-.45Z"/><path class="cls-5" d="M22.46,85.58c1.17,0,1.31.42,1.31,1.84s-.15,1.84-1.31,1.84-1.32-.36-1.32-1.84S21.28,85.58,22.46,85.58Zm0,3.27c.71,0,.82-.1.82-1.43S23.17,86,22.46,86s-.83.11-.83,1.44S21.74,88.85,22.46,88.85Z"/><path class="cls-5" d="M24.45,85.63h.45v.46h0a1,1,0,0,1,1-.51c.83,0,1.05.41,1.05,1.1V89.2H26.5V86.79c0-.42-.09-.81-.68-.81s-.92.21-.92,1V89.2h-.45Z"/><path class="cls-5" d="M29.79,88.9a1.22,1.22,0,0,1-1.05.36c-.91,0-1.11-.44-1.11-1.12S27.79,87,28.74,87c.68,0,.83.08,1,.32h0v-.65c0-.53,0-.71-.79-.71s-.75.18-.75.64h-.44v-.19c0-.43.1-.85,1.21-.85s1.22.32,1.22,1V89.2h-.4Zm-.86-.09c.6,0,.86-.15.86-.69s-.26-.7-.86-.7-.85.15-.85.7S28.34,88.81,28.93,88.81Z"/><path class="cls-5" d="M31.05,84.13h.45V89.2h-.45Z"/><path class="cls-5" d="M35.56,85.58c1.18,0,1.32.42,1.32,1.84s-.16,1.84-1.32,1.84-1.32-.36-1.32-1.84S34.38,85.58,35.56,85.58Zm0,3.27c.72,0,.83-.1.83-1.43S36.28,86,35.56,86s-.82.11-.82,1.44S34.85,88.85,35.56,88.85Z"/><path class="cls-5" d="M37.6,84.13h.45v2h0a1,1,0,0,1,1-.5c.92,0,1.19.44,1.19,1.84S40,89.26,39,89.26a.86.86,0,0,1-.92-.5h0v.44H37.6ZM38.9,86c-.64,0-.85.31-.85,1.19,0,1.33.1,1.6.85,1.6s.85-.16.85-1.39S39.6,86,38.9,86Z"/><path class="cls-5" d="M41.36,88.1c0,.61.1.75.77.75s.85-.1.85-.7,0-.51-.89-.56-1.15-.18-1.15-1,.14-1,1.21-1,1.25.23,1.25,1H43c0-.54-.15-.58-.82-.58s-.74.06-.74.62.06.54.82.59c1.06.06,1.22.14,1.22.93s-.16,1.14-1.32,1.14c-.82,0-1.19-.1-1.19-1.16Z"/><path class="cls-5" d="M44.28,86h-.37v-.41h.37V84.8h.45v.83h1.16V86H44.73v2.39c0,.29.09.42.39.42s.48-.06.48-.85H46c0,1.14-.37,1.26-.89,1.26s-.84-.2-.84-.74Z"/><path class="cls-5" d="M48.59,88.9a1.21,1.21,0,0,1-1,.36c-.91,0-1.12-.44-1.12-1.12S46.59,87,47.55,87c.68,0,.82.08,1,.32h0v-.65c0-.53,0-.71-.79-.71s-.75.18-.75.64h-.45v-.19c0-.43.1-.85,1.22-.85s1.21.32,1.21,1V89.2h-.4Zm-.85-.09c.59,0,.85-.15.85-.69s-.26-.7-.85-.7-.86.15-.86.7S47.14,88.81,47.74,88.81Z"/><path class="cls-5" d="M51.71,86.82c0-.65-.13-.84-.72-.84s-.83.11-.83,1.44.12,1.43.83,1.43.78-.17.78-.94h.45v.23c0,.92-.43,1.12-1.23,1.12-1.18,0-1.32-.39-1.32-1.84s.24-1.84,1.32-1.84,1.17.3,1.17,1.24Z"/><path class="cls-5" d="M53,84.13h.45V89.2H53Z"/><path class="cls-5" d="M54.7,87.52v.33c0,.78.13,1,.75,1s.87,0,.87-.71h.45v.13c0,.72-.17,1-1.24,1s-1.32-.39-1.32-1.84.24-1.84,1.32-1.84,1.24.43,1.24,1.4v.54Zm1.62-.45c0-.75,0-1.09-.81-1.09s-.81.34-.81,1.09Z"/><path class="cls-5" d="M58,88.1c0,.61.1.75.77.75s.85-.1.85-.7,0-.51-.89-.56-1.15-.18-1.15-1,.14-1,1.21-1,1.25.23,1.25,1h-.45c0-.54-.15-.58-.82-.58S58,86,58,86.6s.06.54.82.59c1.06.06,1.22.14,1.22.93s-.16,1.14-1.32,1.14c-.82,0-1.19-.1-1.19-1.16Z"/><path class="cls-5" d="M62.7,85.63h.45v.53h0a1,1,0,0,1,1-.58c.47,0,.84.1,1,.58a1.09,1.09,0,0,1,1.07-.58.93.93,0,0,1,1.07,1V89.2h-.45V86.89c0-.71-.3-.87-.75-.87s-.86.23-.86.93V89.2h-.45V86.73c0-.53-.22-.71-.71-.71-.65,0-.9.4-.9,1.14v2H62.7Z"/><path class="cls-5" d="M70.51,89.2h-.45v-.46h0a.93.93,0,0,1-1,.52c-.83,0-1-.41-1-1.11V85.63h.44v2.42c0,.41.09.8.68.8s.93-.21.93-1V85.63h.45Z"/><path class="cls-5" d="M71.69,88.1c0,.61.1.75.76.75s.86-.1.86-.7,0-.51-.9-.56-1.14-.18-1.14-1,.14-1,1.2-1,1.25.23,1.25,1h-.45c0-.54-.15-.58-.82-.58s-.73.06-.73.62.06.54.82.59c1,.06,1.21.14,1.21.93s-.16,1.14-1.31,1.14c-.82,0-1.2-.1-1.2-1.16Z"/><path class="cls-5" d="M74.61,86h-.37v-.41h.37V84.8h.45v.83h1.15V86H75.06v2.39c0,.29.09.42.38.42s.48-.06.48-.85h.41c0,1.14-.36,1.26-.88,1.26s-.84-.2-.84-.74Z"/><path class="cls-5" d="M78.81,84.13h.45v2h0a1,1,0,0,1,1-.5c.92,0,1.19.44,1.19,1.84s-.27,1.84-1.26,1.84a.86.86,0,0,1-.92-.5h0v.44h-.45ZM80.11,86c-.64,0-.85.31-.85,1.19,0,1.33.1,1.6.85,1.6s.85-.16.85-1.39S80.81,86,80.11,86Z"/><path class="cls-5" d="M82.56,87.52v.33c0,.78.13,1,.75,1s.87,0,.87-.71h.45v.13c0,.72-.17,1-1.24,1s-1.32-.39-1.32-1.84.24-1.84,1.32-1.84,1.24.43,1.24,1.4v.54Zm1.62-.45c0-.75,0-1.09-.81-1.09s-.81.34-.81,1.09Z"/><path class="cls-5" d="M87.36,85.63h.45v.45h0a1,1,0,0,1,1-.5c.93,0,1.2.44,1.2,1.84s-.27,1.84-1.27,1.84a.87.87,0,0,1-.92-.5h0v1.69h-.45Zm1.3.39c-.64,0-.85.31-.85,1.19,0,1.33.11,1.6.85,1.6s.86-.16.86-1.39S89.37,86,88.66,86Z"/><path class="cls-5" d="M90.81,84.13h.44V89.2h-.44Z"/><path class="cls-5" d="M94.21,88.9a1.21,1.21,0,0,1-1,.36c-.91,0-1.12-.44-1.12-1.12S92.21,87,93.17,87c.68,0,.82.08,1,.32h0v-.65c0-.53,0-.71-.79-.71s-.75.18-.75.64h-.45v-.19c0-.43.1-.85,1.22-.85s1.22.32,1.22,1V89.2h-.41Zm-.85-.09c.59,0,.85-.15.85-.69s-.26-.7-.85-.7-.86.15-.86.7S92.76,88.81,93.36,88.81Z"/><path class="cls-5" d="M97.33,86.82c0-.65-.13-.84-.72-.84s-.83.11-.83,1.44.12,1.43.83,1.43.78-.17.78-.94h.45v.23c0,.92-.43,1.12-1.23,1.12-1.18,0-1.32-.39-1.32-1.84s.24-1.84,1.32-1.84,1.17.3,1.17,1.24Z"/><path class="cls-5" d="M98.89,87.52v.33c0,.78.13,1,.75,1s.88,0,.88-.71H101v.13c0,.72-.17,1-1.24,1s-1.32-.39-1.32-1.84.24-1.84,1.32-1.84S101,86,101,87v.54Zm1.63-.45c0-.75,0-1.09-.82-1.09s-.81.34-.81,1.09Z"/><path class="cls-5" d="M103.84,88.76h0a.87.87,0,0,1-.92.5c-1,0-1.27-.44-1.27-1.84s.27-1.84,1.2-1.84a1,1,0,0,1,1,.5h0v-2h.45V89.2h-.45Zm-.85,0c.75,0,.85-.27.85-1.6,0-.88-.21-1.19-.85-1.19s-.86.17-.86,1.4S102.29,88.81,103,88.81Z"/><path class="cls-5" d="M106.7,85.63h.44l.7,3.12h0l.67-3.12h.65l.67,3.13h0l.71-3.13H111l-.85,3.57h-.65l-.65-3.12h0l-.65,3.12h-.66Z"/><path class="cls-5" d="M111.55,84.13H112v.6h-.45Zm0,1.5H112V89.2h-.45Z"/><path class="cls-5" d="M113,86h-.38v-.41H113V84.8h.44v.83h1.16V86h-1.16v2.39c0,.29.09.42.39.42s.48-.06.48-.85h.41c0,1.14-.37,1.26-.88,1.26s-.84-.2-.84-.74Z"/><path class="cls-5" d="M115.19,84.13h.45v2h0a1,1,0,0,1,1-.51c.82,0,1,.41,1,1.1V89.2h-.45V86.79c0-.42-.09-.81-.68-.81s-.92.21-.92,1V89.2h-.45Z"/><path class="cls-5" d="M118.55,84.13H119v.6h-.45Zm0,1.5H119V89.2h-.45Z"/><path class="cls-5" d="M119.86,85.63h.44v.46h0a1,1,0,0,1,1-.51c.82,0,1,.41,1,1.1V89.2h-.45V86.79c0-.42-.09-.81-.68-.81s-.93.21-.93,1V89.2h-.44Z"/><path class="cls-5" d="M125,85.63h.45v.44h0a.76.76,0,0,1,.82-.49c.57,0,.83.24.83,1v.29h-.41c0-.66-.07-.84-.58-.84s-.68.25-.68.74V89.2H125Z"/><path class="cls-5" d="M129.73,88.9a1.22,1.22,0,0,1-1,.36c-.91,0-1.11-.44-1.11-1.12s.16-1.12,1.11-1.12c.68,0,.83.08,1,.32h0v-.65c0-.53-.05-.71-.8-.71s-.74.18-.74.64h-.45v-.19c0-.43.1-.85,1.22-.85s1.21.32,1.21,1V89.2h-.4Zm-.86-.09c.6,0,.86-.15.86-.69s-.26-.7-.86-.7-.85.15-.85.7S128.28,88.81,128.87,88.81Z"/><path class="cls-5" d="M130.87,85.63h.45v.46h0a1,1,0,0,1,1-.51c.82,0,1,.41,1,1.1V89.2h-.44V86.79c0-.42-.09-.81-.68-.81s-.93.21-.93,1V89.2h-.45Z"/><path class="cls-5" d="M136.29,88.56h0a.89.89,0,0,1-.93.52c-1.16,0-1.23-.77-1.23-1.75s.07-1.75,1.23-1.75a.87.87,0,0,1,.93.53h0v-.48h.45v3.54c0,1.06-.33,1.35-1.42,1.35-.69,0-1.12-.24-1.11-1h.45c0,.41.18.54.76.54.73,0,.87-.15.87-1Zm-.9.07c.73,0,.9-.29.9-1.3s-.17-1.31-.9-1.31-.78.36-.78,1.31S134.67,88.63,135.39,88.63Z"/><path class="cls-5" d="M137.91,87.52v.33c0,.78.13,1,.75,1s.88,0,.88-.71H140v.13c0,.72-.17,1-1.24,1s-1.32-.39-1.32-1.84.24-1.84,1.32-1.84S140,86,140,87v.54Zm1.63-.45c0-.75,0-1.09-.82-1.09s-.81.34-.81,1.09Z"/><path class="cls-5" d="M144.26,84.62h0l-1,1.33-.33-.3,1.22-1.52h.65V89.2h-.49Z"/><path class="cls-5" d="M146.46,87.14H148v.41h-1.54Z"/><path class="cls-5" d="M148.64,88.31c0-1.17.34-1.39,1.59-1.51.94-.09,1.06-.19,1.06-1.23,0-.81-.12-1-1.08-1s-1.09.14-1.09.94v.25h-.45v-.3c0-.85.08-1.38,1.56-1.38,1.17,0,1.55.24,1.55,1.48s-.1,1.65-1.45,1.73c-1.09.07-1.2.32-1.2.91v.51h2.61v.49h-3.1Z"/><path class="cls-5" d="M155.73,85.58c1.17,0,1.31.42,1.31,1.84s-.15,1.84-1.31,1.84-1.32-.36-1.32-1.84S154.55,85.58,155.73,85.58Zm0,3.27c.71,0,.82-.1.82-1.43s-.11-1.44-.82-1.44-.83.11-.83,1.44S155,88.85,155.73,88.85Z"/><path class="cls-5" d="M158,86h-.45v-.41H158V85c0-.66.3-.91.93-.91h.31v.4h-.29c-.3,0-.51.1-.51.51v.64h.79V86h-.79V89.2H158Z"/><path class="cls-5" d="M8.14,97.29a1.19,1.19,0,0,1-1.05.37c-.91,0-1.11-.44-1.11-1.12s.16-1.12,1.11-1.12c.68,0,.83.08,1,.32h0v-.65c0-.53-.05-.71-.79-.71s-.75.18-.75.64H6.1v-.19c0-.43.11-.85,1.22-.85s1.22.32,1.22,1V97.6h-.4Zm-.86-.08c.6,0,.86-.15.86-.69s-.26-.7-.86-.7-.85.15-.85.7S6.69,97.21,7.28,97.21Z"/><path class="cls-5" d="M9.28,94h.45v.46h0a1,1,0,0,1,1-.51c.83,0,1,.41,1,1.1V97.6h-.45V95.19c0-.42-.09-.81-.67-.81s-.93.21-.93,1V97.6H9.28Z"/><path class="cls-5" d="M13.78,94c1.17,0,1.31.42,1.31,1.84s-.15,1.84-1.31,1.84-1.32-.37-1.32-1.84S12.6,94,13.78,94Zm0,3.27c.71,0,.82-.1.82-1.43s-.11-1.44-.82-1.44-.83.11-.83,1.44S13.06,97.25,13.78,97.25Z"/><path class="cls-5" d="M15.89,94.44h-.37V94h.37V93.2h.45V94h1.15v.41H16.34v2.39c0,.29.09.42.38.42s.49-.06.49-.85h.4c0,1.14-.36,1.26-.88,1.26s-.84-.2-.84-.74Z"/><path class="cls-5" d="M18.1,92.53h.45v2h0a1,1,0,0,1,1-.51c.83,0,1.05.41,1.05,1.1V97.6h-.45V95.19c0-.42-.09-.81-.67-.81s-.93.21-.93,1V97.6H18.1Z"/><path class="cls-5" d="M21.77,95.92v.33c0,.78.13,1,.75,1s.88,0,.88-.71h.44v.13c0,.72-.17,1-1.24,1s-1.32-.39-1.32-1.84S21.52,94,22.6,94s1.24.43,1.24,1.4v.54Zm1.63-.45c0-.75,0-1.09-.82-1.09s-.81.34-.81,1.09Z"/><path class="cls-5" d="M24.58,94H25v.44h0a.77.77,0,0,1,.82-.49c.57,0,.83.24.83,1v.28h-.41c0-.66-.07-.84-.58-.84s-.68.25-.68.74V97.6h-.45Z"/><path class="cls-5" d="M30.37,94c1.18,0,1.32.42,1.32,1.84s-.15,1.84-1.32,1.84-1.31-.37-1.31-1.84S29.2,94,30.37,94Zm0,3.27c.72,0,.83-.1.83-1.43s-.11-1.44-.83-1.44-.82.11-.82,1.44S29.66,97.25,30.37,97.25Z"/><path class="cls-5" d="M32.41,92.53h.45v2h0a1,1,0,0,1,1-.5c.93,0,1.2.44,1.2,1.84s-.27,1.84-1.27,1.84a.86.86,0,0,1-.92-.51h0v.45h-.45Zm1.3,1.89c-.64,0-.85.31-.85,1.19,0,1.33.1,1.6.85,1.6s.86-.16.86-1.39S34.41,94.42,33.71,94.42Z"/><path class="cls-5" d="M36.18,96.5c0,.61.1.75.76.75s.86-.1.86-.7,0-.51-.9-.56-1.14-.18-1.14-1,.14-1,1.2-1,1.25.23,1.25,1h-.45c0-.54-.15-.58-.82-.58s-.73.06-.73.62.06.54.82.59c1,.06,1.21.14,1.21.93s-.16,1.14-1.31,1.14c-.82,0-1.2-.1-1.2-1.16Z"/><path class="cls-5" d="M39.1,94.44h-.37V94h.37V93.2h.44V94H40.7v.41H39.54v2.39c0,.29.1.42.39.42s.48-.06.48-.85h.41c0,1.14-.37,1.26-.88,1.26s-.84-.2-.84-.74Z"/><path class="cls-5" d="M43.4,97.29a1.18,1.18,0,0,1-1,.37c-.91,0-1.11-.44-1.11-1.12s.16-1.12,1.11-1.12c.68,0,.83.08,1,.32h0v-.65c0-.53,0-.71-.79-.71s-.75.18-.75.64h-.45v-.19c0-.43.11-.85,1.22-.85s1.22.32,1.22,1V97.6H43.4Zm-.85-.08c.59,0,.85-.15.85-.69s-.26-.7-.85-.7-.86.15-.86.7S42,97.21,42.55,97.21Z"/><path class="cls-5" d="M46.53,95.22c0-.65-.13-.84-.73-.84s-.82.11-.82,1.44.11,1.43.82,1.43.79-.17.79-.94H47v.23c0,.92-.44,1.12-1.24,1.12-1.17,0-1.31-.39-1.31-1.84S44.72,94,45.8,94s1.17.3,1.17,1.24Z"/><path class="cls-5" d="M47.78,92.53h.44V97.6h-.44Z"/><path class="cls-5" d="M49.51,95.92v.33c0,.78.14,1,.75,1s.88,0,.88-.71h.44v.13c0,.72-.17,1-1.24,1S49,97.27,49,95.82,49.26,94,50.34,94s1.24.43,1.24,1.4v.54Zm1.63-.45c0-.75,0-1.09-.81-1.09s-.82.34-.82,1.09Z"/><path class="cls-5" d="M56.37,97.29a1.19,1.19,0,0,1-1,.37c-.91,0-1.11-.44-1.11-1.12s.16-1.12,1.11-1.12c.68,0,.83.08,1,.32h0v-.65c0-.53,0-.71-.79-.71s-.75.18-.75.64h-.44v-.19c0-.43.1-.85,1.21-.85s1.22.32,1.22,1V97.6h-.4Zm-.86-.08c.6,0,.86-.15.86-.69s-.26-.7-.86-.7-.85.15-.85.7S54.92,97.21,55.51,97.21Z"/><path class="cls-5" d="M57.51,94H58v.46h0A1,1,0,0,1,59,94c.83,0,1,.41,1,1.1V97.6h-.44V95.19c0-.42-.1-.81-.68-.81s-.93.21-.93,1V97.6h-.45Z"/><path class="cls-5" d="M62.89,97.15h0a.86.86,0,0,1-.92.51c-1,0-1.27-.44-1.27-1.84S61,94,61.89,94a1,1,0,0,1,1,.5h0v-2h.45V97.6h-.45Zm-.85.06c.75,0,.85-.27.85-1.6,0-.88-.21-1.19-.85-1.19s-.86.16-.86,1.4S61.34,97.21,62,97.21Z"/><path class="cls-5" d="M66.11,92.53h.45v2h0a1,1,0,0,1,1-.5c.92,0,1.2.44,1.2,1.84s-.28,1.84-1.27,1.84a.86.86,0,0,1-.92-.51h0v.45h-.45Zm1.3,1.89c-.64,0-.85.31-.85,1.19,0,1.33.1,1.6.85,1.6s.86-.16.86-1.39S68.11,94.42,67.41,94.42Z"/><path class="cls-5" d="M69.86,95.92v.33c0,.78.14,1,.75,1s.88,0,.88-.71h.45v.13c0,.72-.18,1-1.25,1s-1.32-.39-1.32-1.84S69.61,94,70.69,94s1.25.43,1.25,1.4v.54Zm1.63-.45c0-.75,0-1.09-.81-1.09s-.82.34-.82,1.09Z"/><path class="cls-5" d="M72.8,98.47c.56,0,.66-.11.83-.87h-.2L72.38,94h.44l.91,3.12h0L74.51,94H75L74,98c-.15.63-.43,1-1,1a.62.62,0,0,1-.21,0Z"/><path class="cls-5" d="M76.66,94c1.18,0,1.32.42,1.32,1.84s-.16,1.84-1.32,1.84-1.32-.37-1.32-1.84S75.48,94,76.66,94Zm0,3.27c.71,0,.83-.1.83-1.43s-.12-1.44-.83-1.44-.83.11-.83,1.44S76,97.25,76.66,97.25Z"/><path class="cls-5" d="M78.66,94h.44v.46h0a1,1,0,0,1,1-.51c.82,0,1,.41,1,1.1V97.6h-.45V95.19c0-.42-.09-.81-.68-.81s-.93.21-.93,1V97.6h-.44Z"/><path class="cls-5" d="M84,97.15h0a.85.85,0,0,1-.92.51c-1,0-1.27-.44-1.27-1.84S82.11,94,83,94a1,1,0,0,1,1,.5h0v-2h.45V97.6H84Zm-.85.06c.75,0,.85-.27.85-1.6,0-.88-.21-1.19-.85-1.19s-.86.16-.86,1.4S82.48,97.21,83.18,97.21Z"/><path class="cls-5" d="M87.21,94h.45v.44h0A.78.78,0,0,1,88.5,94c.57,0,.83.24.83,1v.28h-.41c0-.66-.07-.84-.58-.84s-.68.25-.68.74V97.6h-.45Z"/><path class="cls-5" d="M91.89,97.29a1.17,1.17,0,0,1-1,.37c-.91,0-1.11-.44-1.11-1.12s.16-1.12,1.11-1.12c.68,0,.83.08,1,.32h0v-.65c0-.53,0-.71-.79-.71s-.75.18-.75.64h-.45v-.19c0-.43.11-.85,1.22-.85s1.22.32,1.22,1V97.6h-.41ZM91,97.21c.59,0,.85-.15.85-.69s-.26-.7-.85-.7-.85.15-.85.7S90.44,97.21,91,97.21Z"/><path class="cls-5" d="M93,94h.45v.46h0a1,1,0,0,1,1-.51c.83,0,1.05.41,1.05,1.1V97.6h-.45V95.19c0-.42-.09-.81-.68-.81s-.92.21-.92,1V97.6H93Z"/><path class="cls-5" d="M98.46,97h0a.9.9,0,0,1-.94.52c-1.15,0-1.23-.77-1.23-1.75S96.36,94,97.51,94a.88.88,0,0,1,.94.53h0V94h.45v3.54c0,1.06-.33,1.35-1.42,1.35-.7,0-1.12-.24-1.11-1h.45c0,.42.18.54.75.54.73,0,.88-.15.88-1Zm-.9.07c.73,0,.9-.29.9-1.3s-.17-1.31-.9-1.31-.79.36-.79,1.31S96.84,97,97.56,97Z"/><path class="cls-5" d="M100.08,95.92v.33c0,.78.13,1,.75,1s.87,0,.87-.71h.45v.13c0,.72-.18,1-1.25,1s-1.31-.39-1.31-1.84S99.82,94,100.9,94s1.25.43,1.25,1.4v.54Zm1.62-.45c0-.75,0-1.09-.81-1.09s-.81.34-.81,1.09Z"/><path class="cls-5" d="M106.11,94.81c1.22,0,1.4,0,1.4-1,0-.66,0-.85-1.06-.85-.77,0-1.09,0-1.09.72v.39h-.45v-.44c0-1.08.6-1.16,1.48-1.16,1.48,0,1.61.38,1.61,1.37,0,.64-.13,1-.61,1.15v0c.39.12.63.26.63,1.12,0,1.18-.1,1.52-1.57,1.52s-1.65-.24-1.65-1.34V96h.45c0,1.06,0,1.2,1.15,1.2s1.13-.13,1.13-1-.14-.91-1.42-.91Z"/><path class="cls-5" d="M111.93,94c1.18,0,1.31.42,1.31,1.84s-.15,1.84-1.31,1.84-1.32-.37-1.32-1.84S110.75,94,111.93,94Zm0,3.27c.71,0,.82-.1.82-1.43s-.11-1.44-.82-1.44-.83.11-.83,1.44S111.21,97.25,111.93,97.25Z"/><path class="cls-5" d="M114.17,94.44h-.44V94h.44v-.64c0-.66.31-.91.93-.91h.31v.4h-.29c-.29,0-.5.1-.5.51V94h.78v.41h-.78V97.6h-.45Z"/><path class="cls-5" d="M117.8,94.44h-.37V94h.37V93.2h.45V94h1.15v.41h-1.15v2.39c0,.29.09.42.38.42s.49-.06.49-.85h.4c0,1.14-.36,1.26-.88,1.26s-.84-.2-.84-.74Z"/><path class="cls-5" d="M120,92.53h.45v2h0a1,1,0,0,1,1-.51c.83,0,1.05.41,1.05,1.1V97.6h-.45V95.19c0-.42-.09-.81-.67-.81s-.93.21-.93,1V97.6H120Z"/><path class="cls-5" d="M123.68,95.92v.33c0,.78.13,1,.75,1s.88,0,.88-.71h.44v.13c0,.72-.17,1-1.24,1s-1.32-.39-1.32-1.84.24-1.84,1.32-1.84,1.24.43,1.24,1.4v.54Zm1.63-.45c0-.75,0-1.09-.82-1.09s-.81.34-.81,1.09Z"/><path class="cls-5" d="M128.48,94h.45v.45h0a1,1,0,0,1,1-.5c.93,0,1.2.44,1.2,1.84s-.27,1.84-1.27,1.84a.84.84,0,0,1-.91-.51h0v1.7h-.45Zm1.31.39c-.65,0-.86.31-.86,1.19,0,1.33.11,1.6.86,1.6s.85-.16.85-1.39S130.49,94.42,129.79,94.42Z"/><path class="cls-5" d="M131.93,92.53h.45V97.6h-.45Z"/><path class="cls-5" d="M135.33,97.29a1.18,1.18,0,0,1-1,.37c-.91,0-1.12-.44-1.12-1.12s.16-1.12,1.12-1.12c.68,0,.82.08,1,.32h0v-.65c0-.53,0-.71-.79-.71s-.75.18-.75.64h-.45v-.19c0-.43.1-.85,1.22-.85s1.22.32,1.22,1V97.6h-.41Zm-.85-.08c.59,0,.85-.15.85-.69s-.26-.7-.85-.7-.86.15-.86.7S133.88,97.21,134.48,97.21Z"/><path class="cls-5" d="M136.6,98.47c.56,0,.66-.11.83-.87h-.2l-1-3.57h.44l.92,3.12h0l.76-3.12h.45l-1,3.94c-.15.63-.43,1-1,1a.66.66,0,0,1-.21,0Z"/><path class="cls-5" d="M139.64,95.92v.33c0,.78.13,1,.74,1s.88,0,.88-.71h.45v.13c0,.72-.18,1-1.25,1s-1.31-.39-1.31-1.84.23-1.84,1.31-1.84,1.25.43,1.25,1.4v.54Zm1.62-.45c0-.75,0-1.09-.81-1.09s-.81.34-.81,1.09Z"/><path class="cls-5" d="M142.45,94h.45v.44h0a.78.78,0,0,1,.83-.49c.57,0,.82.24.82,1v.28h-.4c0-.66-.07-.84-.58-.84s-.68.25-.68.74V97.6h-.45Z"/><path class="cls-5" d="M147,92.53h.45v2h0a1,1,0,0,1,1-.5c.92,0,1.19.44,1.19,1.84s-.27,1.84-1.26,1.84a.85.85,0,0,1-.92-.51h0v.45H147Zm1.3,1.89c-.64,0-.85.31-.85,1.19,0,1.33.1,1.6.85,1.6s.85-.16.85-1.39S149,94.42,148.33,94.42Z"/><path class="cls-5" d="M151.61,94c1.17,0,1.31.42,1.31,1.84s-.15,1.84-1.31,1.84-1.32-.37-1.32-1.84S150.43,94,151.61,94Zm0,3.27c.71,0,.82-.1.82-1.43s-.11-1.44-.82-1.44-.83.11-.83,1.44S150.89,97.25,151.61,97.25Z"/><path class="cls-5" d="M155.69,97.29a1.16,1.16,0,0,1-1,.37c-.91,0-1.11-.44-1.11-1.12s.16-1.12,1.11-1.12c.68,0,.83.08,1,.32h0v-.65c0-.53-.05-.71-.79-.71s-.75.18-.75.64h-.45v-.19c0-.43.11-.85,1.22-.85s1.22.32,1.22,1V97.6h-.41Zm-.85-.08c.6,0,.85-.15.85-.69s-.25-.7-.85-.7-.85.15-.85.7S154.24,97.21,154.84,97.21Z"/><path class="cls-5" d="M156.84,94h.45v.44h0a.78.78,0,0,1,.83-.49c.57,0,.83.24.83,1v.28h-.41c0-.66-.07-.84-.58-.84s-.68.25-.68.74V97.6h-.45Z"/><path class="cls-5" d="M161.57,97.15h0a.84.84,0,0,1-.91.51c-1,0-1.27-.44-1.27-1.84s.27-1.84,1.2-1.84a1,1,0,0,1,1,.5h0v-2H162V97.6h-.45Zm-.86.06c.75,0,.86-.27.86-1.6,0-.88-.21-1.19-.86-1.19s-.85.16-.85,1.4S160,97.21,160.71,97.21Z"/><path class="cls-5" d="M6.47,104.32v.33c0,.78.13,1,.75,1s.87,0,.87-.71h.45v.13c0,.72-.17,1-1.25,1S6,105.67,6,104.22s.24-1.85,1.31-1.85,1.25.44,1.25,1.41v.54Zm1.62-.45c0-.75,0-1.09-.81-1.09s-.81.34-.81,1.09Z"/><path class="cls-5" d="M11.42,105.55h0a.84.84,0,0,1-.91.51c-1,0-1.27-.44-1.27-1.84s.27-1.85,1.2-1.85a1,1,0,0,1,1,.51h0v-1.95h.45V106h-.45Zm-.86.06c.75,0,.86-.26.86-1.6,0-.88-.21-1.19-.86-1.19s-.85.16-.85,1.4S9.86,105.61,10.56,105.61Z"/><path class="cls-5" d="M14.83,105.36h0a.88.88,0,0,1-.93.52c-1.15,0-1.23-.77-1.23-1.75s.08-1.76,1.23-1.76a.87.87,0,0,1,.93.54h0v-.48h.45V106c0,1.06-.33,1.35-1.43,1.35-.69,0-1.12-.25-1.1-1h.45c0,.42.18.54.75.54.73,0,.88-.15.88-1Zm-.91.07c.73,0,.91-.29.91-1.3s-.18-1.31-.91-1.31-.78.36-.78,1.31S13.2,105.43,13.92,105.43Z"/><path class="cls-5" d="M16.44,104.32v.33c0,.78.14,1,.75,1s.88,0,.88-.71h.45v.13c0,.72-.18,1-1.25,1S16,105.67,16,104.22s.24-1.85,1.32-1.85,1.25.44,1.25,1.41v.54Zm1.63-.45c0-.75,0-1.09-.81-1.09s-.82.34-.82,1.09Z"/><path class="cls-5" d="M19.7,104.9c0,.61.1.75.76.75s.86-.1.86-.71c0-.46-.05-.5-.9-.55s-1.14-.18-1.14-1,.14-1,1.2-1,1.25.24,1.25,1h-.45c0-.54-.15-.58-.82-.58s-.73.06-.73.62.06.54.82.59c1.05.06,1.22.14,1.22.93s-.17,1.14-1.32,1.14c-.82,0-1.2-.1-1.2-1.16Z"/><path class="cls-5" d="M22.86,105.36h.49V106h-.49Z"/><path class="cls-5" d="M26.38,102.61c0-1.48.45-1.73,1.78-1.73s1.79.25,1.79,1.73v1.71c0,1.49-.46,1.74-1.79,1.74s-1.78-.25-1.78-1.74Zm3.08,0c0-1.12-.15-1.27-1.3-1.27s-1.29.15-1.29,1.27v1.65c0,1.12.14,1.28,1.29,1.28s1.3-.16,1.3-1.28Z"/><path class="cls-5" d="M30.72,100.93h.45v1.95h0a1,1,0,0,1,1-.51c.92,0,1.2.45,1.2,1.85s-.28,1.84-1.27,1.84a.85.85,0,0,1-.92-.51h0V106h-.45Zm1.3,1.89c-.64,0-.85.31-.85,1.19,0,1.34.1,1.6.85,1.6s.85-.16.85-1.39S32.72,102.82,32,102.82Z"/><path class="cls-5" d="M34.48,104.9c0,.61.1.75.77.75s.85-.1.85-.71c0-.46-.05-.5-.89-.55s-1.15-.18-1.15-1,.14-1,1.21-1,1.25.24,1.25,1h-.45c0-.54-.15-.58-.82-.58s-.74.06-.74.62.07.54.82.59c1.06.06,1.22.14,1.22.93s-.16,1.14-1.32,1.14c-.82,0-1.19-.1-1.19-1.16Z"/><path class="cls-5" d="M37.4,102.84H37v-.41h.37v-.82h.45v.82H39v.41H37.85v2.39c0,.29.09.42.39.42s.48-.06.48-.85h.41c0,1.14-.37,1.26-.89,1.26s-.84-.2-.84-.74Z"/><path class="cls-5" d="M41.71,105.69a1.18,1.18,0,0,1-1,.37c-.91,0-1.12-.44-1.12-1.12s.16-1.12,1.12-1.12c.68,0,.82.08,1,.32h0v-.65c0-.53-.05-.71-.79-.71s-.75.18-.75.64h-.45v-.19c0-.43.1-.86,1.22-.86s1.22.33,1.22,1V106h-.41Zm-.85-.08c.59,0,.85-.15.85-.69s-.26-.7-.85-.7-.86.15-.86.7S40.26,105.61,40.86,105.61Z"/><path class="cls-5" d="M44.83,103.62c0-.65-.13-.84-.72-.84s-.83.11-.83,1.44.12,1.43.83,1.43.78-.17.78-.94h.45v.23c0,.92-.43,1.12-1.23,1.12-1.18,0-1.32-.39-1.32-1.84s.24-1.85,1.32-1.85,1.17.31,1.17,1.25Z"/><path class="cls-5" d="M46.08,100.93h.45V106h-.45Z"/><path class="cls-5" d="M47.82,104.32v.33c0,.78.13,1,.75,1s.87,0,.87-.71h.45v.13c0,.72-.17,1-1.24,1s-1.32-.39-1.32-1.84.24-1.85,1.32-1.85,1.24.44,1.24,1.41v.54Zm1.62-.45c0-.75,0-1.09-.81-1.09s-.81.34-.81,1.09Z"/><path class="cls-5" d="M51.07,104.9c0,.61.1.75.77.75s.85-.1.85-.71c0-.46,0-.5-.89-.55s-1.15-.18-1.15-1,.14-1,1.21-1,1.25.24,1.25,1h-.45c0-.54-.15-.58-.82-.58s-.74.06-.74.62.06.54.82.59c1.06.06,1.22.14,1.22.93s-.16,1.14-1.32,1.14c-.82,0-1.19-.1-1.19-1.16Z"/><path class="cls-5" d="M55.82,102.43h.45V103h0a1,1,0,0,1,.95-.59.93.93,0,0,1,1,.59,1.1,1.1,0,0,1,1.07-.59.94.94,0,0,1,1.07,1.06V106h-.45v-2.31c0-.71-.3-.87-.75-.87s-.86.23-.86.94V106h-.45v-2.47c0-.53-.22-.71-.71-.71-.65,0-.9.4-.9,1.14v2h-.45Z"/><path class="cls-5" d="M63.22,105.69a1.18,1.18,0,0,1-1,.37c-.91,0-1.12-.44-1.12-1.12s.16-1.12,1.12-1.12c.68,0,.82.08,1,.32h0v-.65c0-.53,0-.71-.79-.71s-.75.18-.75.64h-.45v-.19c0-.43.1-.86,1.22-.86s1.22.33,1.22,1V106h-.41Zm-.85-.08c.59,0,.85-.15.85-.69s-.26-.7-.85-.7-.86.15-.86.7S61.77,105.61,62.37,105.61Z"/><path class="cls-5" d="M64.49,106.87c.56,0,.66-.11.83-.87h-.2l-1.05-3.57h.44l.91,3.12h0l.76-3.12h.45l-1,3.94c-.15.63-.43.95-1,.95a.66.66,0,0,1-.21,0Z"/><path class="cls-5" d="M69.09,100.93h.44v1.95h0a1,1,0,0,1,1-.51c.92,0,1.19.45,1.19,1.85s-.27,1.84-1.26,1.84a.85.85,0,0,1-.92-.51h0V106h-.44Zm1.3,1.89c-.65,0-.86.31-.86,1.19,0,1.34.11,1.6.86,1.6s.85-.16.85-1.39S71.09,102.82,70.39,102.82Z"/><path class="cls-5" d="M72.84,104.32v.33c0,.78.13,1,.75,1s.87,0,.87-.71h.45v.13c0,.72-.17,1-1.25,1s-1.31-.39-1.31-1.84.24-1.85,1.31-1.85,1.25.44,1.25,1.41v.54Zm1.62-.45c0-.75,0-1.09-.81-1.09s-.81.34-.81,1.09Z"/><path class="cls-5" d="M77.64,102.43h.45v.45h0a1,1,0,0,1,1-.51c.92,0,1.2.45,1.2,1.85S80,106.06,79,106.06a.86.86,0,0,1-.92-.51h0v1.7h-.45Zm1.3.39c-.64,0-.85.31-.85,1.19,0,1.34.1,1.6.85,1.6s.86-.16.86-1.39S79.64,102.82,78.94,102.82Z"/><path class="cls-5" d="M81.08,100.93h.45V106h-.45Z"/><path class="cls-5" d="M84.49,105.69a1.19,1.19,0,0,1-1,.37c-.91,0-1.11-.44-1.11-1.12s.16-1.12,1.11-1.12c.68,0,.83.08,1,.32h0v-.65c0-.53,0-.71-.8-.71s-.74.18-.74.64h-.45v-.19c0-.43.1-.86,1.22-.86s1.21.33,1.21,1V106h-.4Zm-.86-.08c.6,0,.86-.15.86-.69s-.26-.7-.86-.7-.85.15-.85.7S83,105.61,83.63,105.61Z"/><path class="cls-5" d="M87.61,103.62c0-.65-.13-.84-.72-.84s-.83.11-.83,1.44.11,1.43.83,1.43.78-.17.78-.94h.45v.23c0,.92-.43,1.12-1.23,1.12-1.18,0-1.32-.39-1.32-1.84s.24-1.85,1.32-1.85,1.17.31,1.17,1.25Z"/><path class="cls-5" d="M89.17,104.32v.33c0,.78.13,1,.75,1s.87,0,.87-.71h.45v.13c0,.72-.17,1-1.24,1s-1.32-.39-1.32-1.84.24-1.85,1.32-1.85,1.24.44,1.24,1.41v.54Zm1.62-.45c0-.75,0-1.09-.81-1.09s-.81.34-.81,1.09Z"/><path class="cls-5" d="M94.12,105.55h0a.86.86,0,0,1-.92.51c-1,0-1.27-.44-1.27-1.84s.27-1.85,1.2-1.85a1,1,0,0,1,1,.51h0v-1.95h.45V106h-.45Zm-.85.06c.74,0,.85-.26.85-1.6,0-.88-.21-1.19-.85-1.19s-.86.16-.86,1.4S92.56,105.61,93.27,105.61Z"/><path class="cls-5" d="M99.39,105.69a1.18,1.18,0,0,1-1,.37c-.91,0-1.12-.44-1.12-1.12s.17-1.12,1.12-1.12c.68,0,.82.08,1,.32h0v-.65c0-.53,0-.71-.79-.71s-.75.18-.75.64h-.45v-.19c0-.43.1-.86,1.22-.86s1.22.33,1.22,1V106h-.41Zm-.85-.08c.59,0,.85-.15.85-.69s-.26-.7-.85-.7-.86.15-.86.7S97.94,105.61,98.54,105.61Z"/><path class="cls-5" d="M100.66,102.84h-.37v-.41h.37v-.82h.45v.82h1.15v.41h-1.15v2.39c0,.29.09.42.38.42s.48-.06.48-.85h.41c0,1.14-.36,1.26-.88,1.26s-.84-.2-.84-.74Z"/><path class="cls-5" d="M104.82,102.43h.44v.43h0a.79.79,0,0,1,.82-.49c.57,0,.83.25.83,1v.29h-.41c0-.66-.07-.84-.58-.84s-.68.25-.68.74V106h-.44Z"/><path class="cls-5" d="M109.5,105.69a1.18,1.18,0,0,1-1,.37c-.91,0-1.12-.44-1.12-1.12s.16-1.12,1.12-1.12c.68,0,.82.08,1,.32h0v-.65c0-.53,0-.71-.79-.71s-.75.18-.75.64h-.45v-.19c0-.43.1-.86,1.22-.86s1.22.33,1.22,1V106h-.41Zm-.85-.08c.59,0,.85-.15.85-.69s-.26-.7-.85-.7-.86.15-.86.7S108.05,105.61,108.65,105.61Z"/><path class="cls-5" d="M110.65,102.43h.44v.46h0a1,1,0,0,1,1-.52c.82,0,1.05.42,1.05,1.11V106h-.45v-2.41c0-.42-.09-.81-.68-.81s-.93.21-.93,1V106h-.44Z"/><path class="cls-5" d="M116.07,105.36h0a.89.89,0,0,1-.93.52c-1.16,0-1.23-.77-1.23-1.75s.07-1.76,1.23-1.76a.87.87,0,0,1,.93.54h0v-.48h.44V106c0,1.06-.33,1.35-1.42,1.35-.69,0-1.12-.25-1.1-1h.44c0,.42.19.54.76.54.73,0,.88-.15.88-1Zm-.91.07c.73,0,.91-.29.91-1.3s-.18-1.31-.91-1.31-.78.36-.78,1.31S114.44,105.43,115.16,105.43Z"/><path class="cls-5" d="M117.68,104.32v.33c0,.78.14,1,.75,1s.88,0,.88-.71h.44v.13c0,.72-.17,1-1.24,1s-1.32-.39-1.32-1.84.24-1.85,1.32-1.85,1.24.44,1.24,1.41v.54Zm1.63-.45c0-.75,0-1.09-.82-1.09s-.81.34-.81,1.09Z"/><path class="cls-5" d="M122.45,105.11c0-1.17.34-1.39,1.59-1.51.94-.09,1.06-.2,1.06-1.23,0-.81-.12-1-1.08-1s-1.09.14-1.09.94v.25h-.45v-.3c0-.85.07-1.38,1.56-1.38,1.17,0,1.55.24,1.55,1.48s-.1,1.65-1.45,1.73c-1.1.07-1.2.32-1.2.91v.51h2.61V106h-3.1Z"/><path class="cls-5" d="M129.53,102.37c1.18,0,1.32.43,1.32,1.85s-.15,1.84-1.32,1.84-1.31-.37-1.31-1.84S128.36,102.37,129.53,102.37Zm0,3.28c.72,0,.83-.1.83-1.43s-.11-1.44-.83-1.44-.82.11-.82,1.44S128.82,105.65,129.53,105.65Z"/><path class="cls-5" d="M131.77,102.84h-.44v-.41h.44v-.64c0-.66.31-.91.93-.91H133v.4h-.29c-.3,0-.51.1-.51.51v.64H133v.41h-.79V106h-.45Z"/><path class="cls-5" d="M135.41,102.84H135v-.41h.37v-.82h.44v.82H137v.41h-1.16v2.39c0,.29.1.42.39.42s.48-.06.48-.85h.41c0,1.14-.37,1.26-.88,1.26-.66,0-.84-.2-.84-.74Z"/><path class="cls-5" d="M137.62,100.93h.45v2h0a1,1,0,0,1,1-.52c.82,0,1.05.42,1.05,1.11V106h-.45v-2.41c0-.42-.09-.81-.68-.81s-.92.21-.92,1V106h-.45Z"/><path class="cls-5" d="M141.29,104.32v.33c0,.78.13,1,.75,1s.87,0,.87-.71h.45v.13c0,.72-.18,1-1.25,1s-1.31-.39-1.31-1.84.23-1.85,1.31-1.85,1.25.44,1.25,1.41v.54Zm1.62-.45c0-.75,0-1.09-.81-1.09s-.81.34-.81,1.09Z"/><path class="cls-5" d="M146.05,102.43h.44v.46h0a1,1,0,0,1,1-.52c.82,0,1.05.42,1.05,1.11V106h-.45v-2.41c0-.42-.09-.81-.68-.81s-.93.21-.93,1V106h-.44Z"/><path class="cls-5" d="M149.72,104.32v.33c0,.78.13,1,.74,1s.88,0,.88-.71h.45v.13c0,.72-.18,1-1.25,1s-1.31-.39-1.31-1.84.23-1.85,1.31-1.85,1.25.44,1.25,1.41v.54Zm1.62-.45c0-.75,0-1.09-.81-1.09s-.81.34-.81,1.09Z"/><path class="cls-5" d="M155,106h-.45v-.46h0a1,1,0,0,1-1,.52c-.83,0-1.05-.41-1.05-1.11v-2.52H153v2.42c0,.41.09.8.68.8s.92-.21.92-1v-2.26H155Z"/><path class="cls-5" d="M155.89,102.84h-.37v-.41h.37v-.82h.45v.82h1.15v.41h-1.15v2.39c0,.29.09.42.38.42s.49-.06.49-.85h.4c0,1.14-.36,1.26-.88,1.26s-.84-.2-.84-.74Z"/><path class="cls-5" d="M158.1,102.43h.45v.43h0a.79.79,0,0,1,.83-.49c.57,0,.83.25.83,1v.29h-.41c0-.66-.07-.84-.58-.84s-.68.25-.68.74V106h-.45Z"/><path class="cls-5" d="M162.79,105.69a1.19,1.19,0,0,1-1,.37c-.91,0-1.11-.44-1.11-1.12s.16-1.12,1.11-1.12c.68,0,.83.08,1,.32h0v-.65c0-.53-.05-.71-.79-.71s-.75.18-.75.64h-.45v-.19c0-.43.11-.86,1.22-.86s1.22.33,1.22,1V106h-.4Zm-.86-.08c.6,0,.86-.15.86-.69s-.26-.7-.86-.7-.85.15-.85.7S161.34,105.61,161.93,105.61Z"/><path class="cls-5" d="M164.05,100.93h.45V106h-.45Z"/><path class="cls-5" d="M6.08,109.33h.45v2h0a1,1,0,0,1,1-.5c.93,0,1.2.44,1.2,1.84s-.27,1.84-1.27,1.84a.86.86,0,0,1-.92-.51h0v.45H6.08Zm1.31,1.89c-.65,0-.86.31-.86,1.19,0,1.33.11,1.6.86,1.6s.85-.16.85-1.39S8.09,111.22,7.39,111.22Z"/><path class="cls-5" d="M10.66,110.78c1.18,0,1.32.41,1.32,1.84s-.16,1.84-1.32,1.84-1.31-.36-1.31-1.84S9.49,110.78,10.66,110.78Zm0,3.27c.72,0,.83-.1.83-1.43s-.11-1.44-.83-1.44-.82.11-.82,1.44S10,114.05,10.66,114.05Z"/><path class="cls-5" d="M14.75,114.1a1.24,1.24,0,0,1-1,.36c-.91,0-1.12-.43-1.12-1.12s.16-1.12,1.12-1.12c.68,0,.82.07,1,.32h0v-.65c0-.53-.05-.71-.79-.71s-.75.18-.75.64h-.45v-.19c0-.44.1-.85,1.22-.85s1.22.32,1.22,1v2.61h-.41ZM13.9,114c.59,0,.85-.15.85-.69s-.26-.7-.85-.7-.86.15-.86.7S13.3,114,13.9,114Z"/><path class="cls-5" d="M15.9,110.83h.45v.44h0a.78.78,0,0,1,.83-.49c.56,0,.82.24.82,1V112h-.4c0-.66-.07-.84-.58-.84s-.68.25-.68.74v2.48H15.9Z"/><path class="cls-5" d="M20.62,114h0a.85.85,0,0,1-.92.51c-1,0-1.27-.44-1.27-1.84s.28-1.84,1.2-1.84a1,1,0,0,1,1,.5h0v-2h.45v5.07h-.45Zm-.85.06c.75,0,.85-.27.85-1.6,0-.88-.21-1.19-.85-1.19s-.86.16-.86,1.4S19.07,114,19.77,114Z"/><path class="cls-5" d="M24.23,112.72v.33c0,.78.13,1,.75,1s.87,0,.87-.71h.45v.13c0,.72-.17,1-1.25,1s-1.31-.39-1.31-1.84.24-1.84,1.31-1.84,1.25.43,1.25,1.4v.54Zm1.62-.45c0-.75,0-1.09-.81-1.09s-.81.34-.81,1.09Z"/><path class="cls-5" d="M29.18,114h0a.84.84,0,0,1-.91.51c-1,0-1.27-.44-1.27-1.84s.27-1.84,1.2-1.84a1,1,0,0,1,1,.5h0v-2h.45v5.07h-.45Zm-.86.06c.75,0,.86-.27.86-1.6,0-.88-.21-1.19-.86-1.19s-.85.16-.85,1.4S27.62,114,28.32,114Z"/><path class="cls-5" d="M32.59,113.76h0a.88.88,0,0,1-.93.52c-1.15,0-1.23-.77-1.23-1.75s.08-1.75,1.23-1.75a.86.86,0,0,1,.93.53h0v-.48H33v3.54c0,1.06-.33,1.35-1.43,1.35-.69,0-1.12-.25-1.1-1H31c0,.42.18.54.75.54.73,0,.88-.15.88-1Zm-.91.07c.73,0,.91-.29.91-1.3s-.18-1.31-.91-1.31-.78.36-.78,1.31S31,113.83,31.68,113.83Z"/><path class="cls-5" d="M34.2,112.72v.33c0,.78.14,1,.75,1s.88,0,.88-.71h.45v.13c0,.72-.18,1-1.25,1s-1.32-.39-1.32-1.84.24-1.84,1.32-1.84,1.25.43,1.25,1.4v.54Zm1.63-.45c0-.75,0-1.09-.81-1.09s-.82.34-.82,1.09Z"/><path class="cls-5" d="M37.46,113.3c0,.61.1.75.76.75s.86-.1.86-.7,0-.51-.9-.56-1.14-.18-1.14-1,.14-1,1.2-1,1.25.23,1.25,1H39c0-.54-.15-.58-.82-.58s-.73.06-.73.62.06.54.82.59c1,.06,1.22.14,1.22.93s-.17,1.14-1.32,1.14c-.82,0-1.2-.1-1.2-1.16Z"/><path class="cls-5" d="M40.62,113.76h.49v.64h-.49Z"/><path class="cls-3" d="M67.37,12.3h.81l3.59,4.27a6.21,6.21,0,0,1,.58.79c0-.61,0-1,0-1.25V12.3h1.06v7.24h-.8l-3.75-4.47a6.85,6.85,0,0,1-.42-.59c0,.56,0,.94,0,1.15v3.91H67.37Z"/><path class="cls-3" d="M76,12.3h5.21v1.24h-4v1.61H79.5v1.24H77.15v1.79h4.08v1.36H76Z"/><path class="cls-3" d="M83.43,12.3h4.36c.78,0,1.15.39,1.15,1.4v.89a1.08,1.08,0,0,1-.88,1.22c.59.11.92.62.92,1.39v.93c0,1-.51,1.41-1.51,1.41h-4Zm1.16,1.18v1.73H87.3c.36,0,.54-.1.54-.52V14c0-.42-.18-.52-.54-.52Zm0,2.92v1.84H87.3c.4,0,.57-.11.57-.65v-.54c0-.54-.17-.65-.57-.65Z"/><path class="cls-3" d="M92.46,18.18h3.37V12.3H97v5.53c0,1.36-.31,1.71-1.27,1.71H92.54c-1,0-1.27-.35-1.27-1.71V12.3h1.19Z"/><path class="cls-3" d="M99.63,12.3h1.18v5.88h3.83v1.36h-5Z"/><path class="cls-3" d="M108.1,12.3h1.14l2.92,7.24h-1.33L110.22,18H107l-.59,1.58h-1.19Zm1.62,4.35-1.09-2.95-1.14,2.95Z"/><path class="cls-3" d="M66.08,21.2v-1H112.5v1Z"/></svg>