<svg id="Layer_1" data-name="Layer 1" xmlns="http://www.w3.org/2000/svg" xmlns:xlink="http://www.w3.org/1999/xlink" viewBox="0 0 178.58 249.45"><defs><style>.cls-1{fill:none;}.cls-2{clip-path:url(#clip-path);}.cls-3{fill:#fff;}.cls-4{opacity:0.02;}.cls-5{fill:#090400;}.cls-6{fill:#2baa54;}.cls-7{clip-path:url(#clip-path-2);}.cls-8{fill:#fbfbfb;}</style><clipPath id="clip-path"><rect class="cls-1" x="-5.67" y="-5.67" width="189.92" height="260.79"/></clipPath><clipPath id="clip-path-2"><rect class="cls-1" x="-5.67" y="-302.23" width="189.92" height="260.79"/></clipPath></defs><g class="cls-2"><rect class="cls-3" x="-5.67" y="-5.67" width="189.92" height="260.79"/><g class="cls-4"><path class="cls-5" d="M173.41,92.29V58.62l-1-1-6.08-6.09v-53h-1v52l-6.09-6.09V-1.49h-1V44.78l1,1.06,6.09,6.08V83.1q-2.94-3-6.09-5.73l-1-.84A106.72,106.72,0,0,0,126.64,58V-1.49h-1V57.59c-2.46-.89-5-1.7-7.5-2.41v-59h-1V54.91a9.65,9.65,0,0,0-.43.92l-6.79,7.53a97,97,0,0,0-41.26,0l-6.78-7.53s-.43-.93-.44-.92V-3.83h-1v59c-2.54.71-5,1.52-7.5,2.41V-1.49h-1V58a107.06,107.06,0,0,0-31.6,18.57l-1,.85q-3.15,2.73-6.09,5.72V51.92l6.09-6.08,1-1.05V-1.49h-1V44.42l-6.09,6.09v-52h-1v53L6.17,57.6l-1,.9V92.29a106.57,106.57,0,0,0,0,131.45V257.4l1,1,6.08,6.08v53h1v-52l6.09,6.09v45.92h1v-46.3l-1-1-6.09-6.08V232.93q2.94,3,6.09,5.73l1,.85a107,107,0,0,0,31.6,18.56v59.46h1V258.44c2.46.89,5,1.7,7.5,2.41v58.47h1v-58.2l.44-.91,6.78-7.54a97,97,0,0,0,41.26,0l6.79,7.54.43.92v58.19h1V260.85q3.81-1.07,7.5-2.41v59.09h1V258.07a106.9,106.9,0,0,0,31.6-18.56l1-.85q3.15-2.74,6.09-5.73v31.18l-6.09,6.08-1,1.08v46.26h1V271.61l6.09-6.09v52h1v-53l6.08-6.08,1-1V223.74a106.57,106.57,0,0,0,0-131.45ZM5.17,181.65a87.57,87.57,0,0,1,0-47.27Zm0-50.72a88.43,88.43,0,0,0,0,54.17V204a95.69,95.69,0,0,1,0-91.92Zm0-20.92a96.68,96.68,0,0,0,0,96V222.1a105.56,105.56,0,0,1,0-128.17Zm7.08,153.1L6.17,257V225q2.89,3.58,6.08,6.92Zm0-32.66c-2.12-2.26-4.16-4.61-6.08-7V207.72a98,98,0,0,0,6.08,9Zm0-15.42a98.57,98.57,0,0,1-6.08-9.27V188a88.83,88.83,0,0,0,6.08,13.25Zm0-15.82a86.7,86.7,0,0,1-6.08-14.27V131.09a87,87,0,0,1,6.08-14.26Zm0-84.46A89.29,89.29,0,0,0,6.17,128V110.27A98.57,98.57,0,0,1,12.25,101Zm0-15.4a96.54,96.54,0,0,0-6.08,9V92.63c1.92-2.44,4-4.79,6.08-7Zm0-15.23Q9.07,87.45,6.17,91V59l6.08-6.09Zm77-22a96.26,96.26,0,0,1,19.86,2.07l-5.88,6.54s-.32,1-.31,1V89.15a69.89,69.89,0,0,0-27.34,0V71.71s-.3-1-.3-1l-5.89-6.54A96.26,96.26,0,0,1,89.29,62.14Zm0,164.55a69,69,0,0,1-68.95-68.86c0-.16,0-.32,0-.49,0-.74,0-1.48.06-2.21a69,69,0,0,1,31.53-55l1-.65a67.58,67.58,0,0,1,7.5-4l1-.46A70.35,70.35,0,0,1,69,92.12l1-.28c1.52-.45,3.07-.84,4.64-1.19l1-.22a69.38,69.38,0,0,1,27.34,0l1,.22c1.58.35,3.13.75,4.67,1.2l1,.28A69.8,69.8,0,0,1,117.14,95l1,.45a69.36,69.36,0,0,1,7.5,4l1,.65a69,69,0,0,1,31.54,55.08c0,.66,0,1.32,0,2,0,.24,0,.47,0,.7A69,69,0,0,1,89.29,226.69Zm19.34-1.46v18c-1.54.35-3.1.66-4.67.92V226.4C105.54,226.07,107.09,225.67,108.63,225.23Zm-34,1.17v17.75c-1.56-.26-3.11-.57-4.64-.91v-18C71.51,225.67,73.05,226.07,74.62,226.4ZM70,90.53V72.8c1.53-.35,3.08-.65,4.64-.92V89.36C73.05,89.69,71.51,90.09,70,90.53Zm38.65,0c-1.54-.44-3.09-.84-4.67-1.17V71.88c1.57.27,3.13.57,4.67.92Zm-95.38-6q2.94-3,6.09-5.82l1-.87A105.92,105.92,0,0,1,51.94,59l1-.38c2.46-.9,5-1.72,7.5-2.44l1,.63,6.09,6.76q-3.07.72-6.09,1.62l-1,.3c-2.54.8-5,1.7-7.5,2.7l-1,.41A97.26,97.26,0,0,0,20.34,90l-1,1q-3.21,3.34-6.09,7Zm0,15.15q2.88-3.72,6.09-7.16l1-1a96.33,96.33,0,0,1,31.6-21.76l1-.41c2.45-1,5-1.92,7.5-2.72l1-.31C63.7,65.58,66,65,68.3,64.46L74.14,71a86.75,86.75,0,0,0-12.7,3.19l-1,.34c-2.55.89-5.06,1.88-7.5,3l-1,.47a89,89,0,0,0-31.6,24.86l-1,1.27a88.75,88.75,0,0,0-6.09,9Zm0,15.34a88.65,88.65,0,0,1,6.09-9.31l1-1.3A87.94,87.94,0,0,1,51.94,79l1-.47c2.44-1.12,5-2.13,7.5-3l1-.35Q65.15,73.94,69,73V90.81a70.08,70.08,0,0,0-49.64,66.93c0,.07,0,.14,0,.21v.19a69.44,69.44,0,0,0,.95,11.06l0,.53a70,70,0,0,0,31.6,47.38l1,.65a69.56,69.56,0,0,0,7.5,4l1,.46A72.22,72.22,0,0,0,69,225V243q-3.84-.92-7.54-2.16l-1-.35c-2.55-.9-5.06-1.91-7.5-3l-1-.47a87.83,87.83,0,0,1-31.6-25.37l-1-1.3a88.52,88.52,0,0,1-6.09-9.3ZM61.44,259.19l-1,.63c-2.54-.72-5-1.54-7.5-2.44l-1-.38a106.1,106.1,0,0,1-31.6-18.8l-1-.88q-3.15-2.79-6.09-5.82V218q2.88,3.65,6.09,7l1,1a97.26,97.26,0,0,0,31.6,21.4l1,.41c2.45,1,5,1.9,7.5,2.7l1,.3c2,.6,4,1.15,6.09,1.62Zm6.86-7.62c-2.32-.52-4.6-1.12-6.86-1.81l-1-.3c-2.54-.81-5-1.72-7.5-2.73l-1-.41a96.3,96.3,0,0,1-31.6-21.75l-1-1.06q-3.21-3.42-6.09-7.16V203a88.75,88.75,0,0,0,6.09,9l1,1.27a89,89,0,0,0,31.6,24.87l1,.46c2.44,1.11,5,2.11,7.5,3l1,.34a88.06,88.06,0,0,0,12.7,3.2Zm21,2.32a95.58,95.58,0,0,1-19.86-2.07l5.88-6.54s.32-1,.31-1V226.61a69.38,69.38,0,0,0,27.34,0v17.71s.3,1,.31,1l5.88,6.54A95.58,95.58,0,0,1,89.29,253.89Zm76-22.39c-2,2-4,4-6.09,5.82l-1,.88a105.89,105.89,0,0,1-31.6,18.8l-1,.38c-2.46.9-5,1.72-7.5,2.44l-1-.63-6.09-6.76c2.06-.47,4.08-1,6.09-1.62l1-.3q3.83-1.2,7.5-2.7l1-.41a97.26,97.26,0,0,0,31.6-21.4l1-1q3.21-3.34,6.09-7Zm0-15.15q-2.88,3.74-6.09,7.16l-1,1.06a96.2,96.2,0,0,1-31.6,21.75l-1,.41q-3.67,1.52-7.5,2.73l-1,.31c-2.26.68-4.54,1.28-6.86,1.8l-5.84-6.48a88.06,88.06,0,0,0,12.7-3.2l1-.34c2.55-.88,5.06-1.88,7.5-3l1-.46a89,89,0,0,0,31.6-24.87l1-1.27a89.75,89.75,0,0,0,6.09-9Zm0-15.33a88.52,88.52,0,0,1-6.09,9.3l-1,1.3A87.83,87.83,0,0,1,126.64,237l-1,.47c-2.44,1.12-5,2.13-7.5,3l-1,.35c-2.46.83-5,1.55-7.51,2.16V224.94a69.47,69.47,0,0,0,7.51-2.77l1-.46a69.56,69.56,0,0,0,7.5-4l1-.65a70,70,0,0,0,31.6-47.38l0-.51a70,70,0,0,0,.95-11.1V158c0-.07,0-.14,0-.22a70.07,70.07,0,0,0-49.61-66.92V73c2.54.61,5.05,1.32,7.51,2.15l1,.35c2.55.9,5.06,1.91,7.5,3l1,.47a87.94,87.94,0,0,1,31.6,25.37l1,1.3a88.52,88.52,0,0,1,6.09,9.3Zm0-88a88.75,88.75,0,0,0-6.09-9l-1-1.27a89,89,0,0,0-31.6-24.86l-1-.47c-2.44-1.11-5-2.1-7.5-3l-1-.34A86.75,86.75,0,0,0,104.44,71l5.84-6.49c2.32.52,4.6,1.12,6.86,1.81l1,.3q3.83,1.22,7.5,2.73l1,.41a96.2,96.2,0,0,1,31.6,21.75l1,1.06c2.14,2.28,4.17,4.68,6.09,7.16Zm0-15q-2.88-3.64-6.09-7l-1-1a97.26,97.26,0,0,0-31.6-21.4l-1-.41q-3.67-1.5-7.5-2.7l-1-.3c-2-.6-4-1.14-6.09-1.62l6.09-6.76,1-.63c2.54.72,5,1.54,7.5,2.44l1,.38a106.1,106.1,0,0,1,31.6,18.8l1,.88c2.1,1.86,4.14,3.8,6.09,5.82Zm7.08,159-6.08,6.09v-31.2q3.18-3.33,6.08-6.92Zm0-33.62c-1.92,2.44-4,4.79-6.08,7.06V216.69a99.28,99.28,0,0,0,6.08-9Zm0-17.64a95.4,95.4,0,0,1-6.08,9.27V201.28A88.72,88.72,0,0,0,172.41,188Zm0-20.81a87,87,0,0,1-6.08,14.26V116.82a87,87,0,0,1,6.08,14.26Zm0-56.95a88.83,88.83,0,0,0-6.08-13.25V101a96.63,96.63,0,0,1,6.08,9.27Zm0-19.69a98,98,0,0,0-6.08-9V85.58c2.12,2.26,4.16,4.61,6.08,7Zm0-17.27q-2.9-3.58-6.08-6.92V52.92L172.41,59Zm1,43.33a87.38,87.38,0,0,1,0,47.29Zm0,50.74a88.26,88.26,0,0,0,0-54.18V112.05a95.71,95.71,0,0,1,0,91.93Zm0,20.92a96.7,96.7,0,0,0,0-96V93.93a105.56,105.56,0,0,1,0,128.17Z"/><path class="cls-5" d="M120.92,166.38c-2.32,3.91-10,15.69-14.58,18.7a23.33,23.33,0,0,1-11.64,3.51,8.9,8.9,0,0,1-5.85-1.75c-1.92-1.59-3.18-5.2-3.07-8.8.07-2.69.93-4.77,2.43-5.85a.91.91,0,0,1,.33-.15c1.47-.2,2.73-.43,3.31-.55a.76.76,0,0,1,.91.6c.69,3.33,1.81,5.12,4.11,6.44,4.29-3.31,7.16-7,8.32-10.77l.24-.75c1.17-3.54,3.13-9.46-2.9-15.74-8-8.39-15.35-11.25-21.68-8.42-6.93,3.09-10.13,6.89-10.72,7.63a.76.76,0,0,1-1.07.12A7.56,7.56,0,0,1,66.2,147a.77.77,0,0,1,.21-.78c.57-.52,14.08-12.66,29.73-12.66a27.31,27.31,0,0,1,16.14,5.18,1.54,1.54,0,0,0,1.21-.56c.57-.62,1.5-2.23,1.2-6.11-.43-5.65-2.26-9.31-17-18.18C91.85,119.6,84.53,126,79.16,126a5.63,5.63,0,0,1-3.89-1.46,9.14,9.14,0,0,1-3-6.92c0-4.06,2.28-8.63,6.17-12.21a14.84,14.84,0,0,0,1.09-1.11,15,15,0,0,0-1.94.71c-4.67,2-13.92,11.61-14.92,22.93-1,11.61,3.11,18.86,3.14,18.93l.31.61a.77.77,0,0,1-.23,1c-2.82,2.11-16.58,13.81-11.75,37C58.8,208,89,215,99.4,215A12.15,12.15,0,0,0,101,215a17.75,17.75,0,0,0,2.37-.38c-.94-.46-2.78-1.08-4.44-1.65l-3.48-1.21c-8.17-3-23-10.19-30.22-25-6.4-13,.53-28.34,2.83-32.74a3,3,0,0,1,.18-.36.91.91,0,0,1,.62-.44c.24,0,.33.14.49.32l.24.25,3.89,4.16c.17.17.45.49.4.72a18.71,18.71,0,0,0,.71,8.07,3.32,3.32,0,0,0,.22.53.77.77,0,0,1,.09.36c0,2.26.08,13.92,3.06,20.79,3.14,7.23,5.92,12,15.71,12,11.5,0,20-6.07,26.74-19.12,4.93-9.52,5.37-22.39,5-29.58C124.64,156.2,123.28,162.41,120.92,166.38Zm-45.37-9.49c3.16-3.55,11.1-8,16.79-5.43,6.9,3.18,10.6,12,5.43,16.32-3.51,2.9-11.09,4.17-14,3.12C80,169.53,73.19,167.27,75.55,156.89Z"/><path class="cls-5" d="M7.72,239.49v2l-.5-.44-.16.19,3,2.59.17-.18L9.45,243v-2.41h1.23v1.12l-.66.57.17.18,1.43-1.25-.17-.18-.52.46v-2l.52.46.17-.18-1.5-1.32-.16.19.72.63v1.11H9.45V238l.69-.61-.16-.18-3,2.6.17.19Zm1.48,3.33L8,241.75v-1.12H9.2Zm0-2.44H8v-1.11L9.2,238.2Z"/></g></g><rect class="cls-5" x="-5.67" y="-5.67" width="189.92" height="45.68"/><polygon class="cls-6" points="184.25 -5.67 121.97 -5.67 143.03 20.5 184.25 20.5 184.25 -5.67"/><polygon class="cls-6" points="-5.67 -5.67 56.62 -5.67 35.55 20.5 -5.67 20.5 -5.67 -5.67"/><polygon class="cls-3" points="122.48 -5.67 121.96 -5.67 121.5 -5.29 142.79 21 184.25 21 184.25 20 143.27 20 122.48 -5.67"/><polygon class="cls-3" points="56.1 -5.67 35.31 20 -5.67 20 -5.67 21 35.79 21 57.08 -5.29 56.62 -5.67 56.1 -5.67"/><g class="cls-7"><g class="cls-4"><path class="cls-5" d="M173.41-204.28v-33.67l-1-1-6.08-6.09v-53h-1v52l-6.09-6.09V-298h-1v46.26l1,1.06,6.09,6.09v31.17q-2.94-3-6.09-5.72l-1-.85a106.69,106.69,0,0,0-31.6-18.56V-298h-1V-239q-3.69-1.34-7.5-2.41v-59h-1v58.74s-.45.92-.43.92l-6.79,7.53a96.73,96.73,0,0,0-20.63-2.22,96.73,96.73,0,0,0-20.63,2.22l-6.78-7.53s-.43-.92-.44-.92V-300.4h-1v59c-2.54.72-5,1.52-7.5,2.42V-298h-1v59.45A106.82,106.82,0,0,0,20.34-220l-1,.85q-3.15,2.74-6.09,5.72v-31.17l6.09-6.09,1-1V-298h-1v45.91L13.25-246v-52h-1v53L6.17-239l-1,.91v33.79a106.24,106.24,0,0,0-22.68,65.72A106.29,106.29,0,0,0,5.17-72.82v33.66l1,1L12.25-32V21h1V-31L19.34-25V21h1V-25.33l-1-1-6.09-6.09V-63.63q2.94,3,6.09,5.72l1,.85A106.82,106.82,0,0,0,51.94-38.5V21h1V-38.12c2.46.89,5,1.7,7.5,2.41V22.75h1V-35.44l.44-.92,6.78-7.53a96.73,96.73,0,0,0,20.63,2.22,96.73,96.73,0,0,0,20.63-2.22l6.79,7.53.43.92V22.75h1V-35.71c2.54-.71,5-1.52,7.5-2.41V21h1V-38.49a106.93,106.93,0,0,0,31.6-18.57l1-.85q3.15-2.75,6.09-5.72v31.17l-6.09,6.09-1,1.08V21h1V-25L165.33-31V21h1V-32l6.08-6.09,1-1V-72.82a106.29,106.29,0,0,0,22.68-65.73A106.29,106.29,0,0,0,173.41-204.28ZM5.17-114.91a87,87,0,0,1-3.25-23.64,87,87,0,0,1,3.25-23.64Zm0-50.72A87.91,87.91,0,0,0,.92-138.55a87.93,87.93,0,0,0,4.25,27.09v18.87a95.28,95.28,0,0,1-11.76-46,95.31,95.31,0,0,1,11.76-46Zm0-20.93a96.31,96.31,0,0,0-12.76,48,96.31,96.31,0,0,0,12.76,48v16.07a105.24,105.24,0,0,1-21.68-64.08A105.26,105.26,0,0,1,5.17-202.63Zm7.08,153.1L6.17-39.54v-32Q9.07-68,12.25-64.66Zm0-32.65c-2.12-2.26-4.16-4.62-6.08-7.06V-88.84a99.28,99.28,0,0,0,6.08,9Zm0-15.43A97.14,97.14,0,0,1,6.17-90.8v-17.73a88.72,88.72,0,0,0,6.08,13.24Zm0-15.82a87,87,0,0,1-6.08-14.26v-53.86a87,87,0,0,1,6.08-14.26Zm0-84.45a88.37,88.37,0,0,0-6.08,13.25v-17.73a97.29,97.29,0,0,1,6.08-9.27Zm0-15.41a99.28,99.28,0,0,0-6.08,9v-15.67c1.92-2.44,4-4.79,6.08-7.06Zm0-15.22q-3.18,3.31-6.08,6.92v-32l6.08-6.09Zm77-22a95.58,95.58,0,0,1,19.86,2.08l-5.88,6.54s-.32,1-.31,1v17.43a70,70,0,0,0-13.67-1.35,70,70,0,0,0-13.67,1.35v-17.43s-.3-1-.3-1l-5.89-6.54A95.58,95.58,0,0,1,89.29-234.43Zm0,164.56a69,69,0,0,1-68.95-68.86c0-.17,0-.33,0-.49,0-.75,0-1.48.06-2.22a69,69,0,0,1,31.53-55l1-.64a69.36,69.36,0,0,1,7.5-4.05l1-.45A68.28,68.28,0,0,1,69-204.44l1-.29c1.52-.44,3.07-.84,4.64-1.18l1-.22a69.19,69.19,0,0,1,13.67-1.37A69.19,69.19,0,0,1,103-206.13l1,.22c1.58.34,3.13.74,4.67,1.19l1,.29a67.74,67.74,0,0,1,7.51,2.83l1,.45a69.36,69.36,0,0,1,7.5,4.05l1,.64a69,69,0,0,1,31.54,55.09c0,.66,0,1.32,0,2,0,.23,0,.46,0,.69A69,69,0,0,1,89.29-69.87Zm19.34-1.47v18c-1.54.34-3.1.65-4.67.92V-70.16C105.54-70.5,107.09-70.9,108.63-71.34Zm-34,1.18v17.75c-1.56-.27-3.11-.57-4.64-.92v-18C71.51-70.89,73.05-70.5,74.62-70.16ZM70-206v-17.73c1.53-.34,3.08-.65,4.64-.91v17.47C73.05-206.87,71.51-206.48,70-206Zm38.65,0c-1.54-.44-3.09-.84-4.67-1.18v-17.47c1.57.26,3.13.57,4.67.92Zm-95.38-6q2.94-3,6.09-5.81l1-.88a105.89,105.89,0,0,1,31.6-18.8l1-.38q3.69-1.36,7.5-2.44l1,.63L67.53-233c-2,.47-4.08,1-6.09,1.62l-1,.3c-2.54.8-5,1.7-7.5,2.7l-1,.41a97.1,97.1,0,0,0-31.6,21.4l-1,1q-3.21,3.36-6.09,7Zm0,15.16q2.88-3.74,6.09-7.17l1-1a96.3,96.3,0,0,1,31.6-21.75l1-.41c2.45-1,5-1.92,7.5-2.73l1-.31c2.26-.68,4.54-1.29,6.86-1.81l5.84,6.49a88.06,88.06,0,0,0-12.7,3.2l-1,.34c-2.55.88-5.06,1.88-7.5,3l-1,.47a88.87,88.87,0,0,0-31.6,24.87l-1,1.27a89.75,89.75,0,0,0-6.09,9Zm0,15.33a88.52,88.52,0,0,1,6.09-9.3l1-1.3a88,88,0,0,1,31.6-25.38l1-.46c2.44-1.13,5-2.14,7.5-3l1-.35q3.7-1.24,7.54-2.16v17.78a70.07,70.07,0,0,0-49.64,66.93c0,.07,0,.13,0,.2v.2a69.64,69.64,0,0,0,.95,11.06l0,.53a70.07,70.07,0,0,0,31.6,47.38l1,.64a71.46,71.46,0,0,0,7.5,4l1,.45A68,68,0,0,0,69-71.62v18.06q-3.84-.91-7.54-2.17l-1-.34c-2.55-.9-5.06-1.91-7.5-3l-1-.47a88,88,0,0,1-31.6-25.37l-1-1.31a87.49,87.49,0,0,1-6.09-9.3ZM61.44-37.37l-1,.62q-3.81-1.08-7.5-2.43l-1-.39a105.68,105.68,0,0,1-31.6-18.8l-1-.88Q16.19-62,13.25-65.06V-78.58c1.92,2.42,3.95,4.76,6.09,7l1,1a97.28,97.28,0,0,0,31.6,21.41l1,.41c2.45,1,5,1.9,7.5,2.69l1,.3q3,.91,6.09,1.62ZM68.3-45c-2.32-.52-4.6-1.12-6.86-1.81l-1-.31c-2.54-.8-5-1.72-7.5-2.73l-1-.41A96.3,96.3,0,0,1,20.34-72l-1-1q-3.21-3.44-6.09-7.17V-93.56a89.75,89.75,0,0,0,6.09,9l1,1.27a88.87,88.87,0,0,0,31.6,24.87l1,.47c2.44,1.11,5,2.1,7.5,3l1,.34a88,88,0,0,0,12.7,3.19Zm21,2.32a95.58,95.58,0,0,1-19.86-2.08l5.88-6.53s.32-1,.31-1v-17.7A70,70,0,0,0,89.29-68.6,70,70,0,0,0,103-69.95v17.7s.3,1,.31,1l5.88,6.53A95.58,95.58,0,0,1,89.29-42.67Zm76-22.39c-2,2-4,4-6.09,5.82l-1,.87a105.92,105.92,0,0,1-31.6,18.81l-1,.38q-3.69,1.35-7.5,2.43l-1-.62-6.09-6.77c2.06-.47,4.08-1,6.09-1.62l1-.3c2.55-.79,5-1.7,7.5-2.69l1-.41a97.28,97.28,0,0,0,31.6-21.41l1-1c2.14-2.23,4.17-4.57,6.09-7Zm0-15.16q-2.88,3.73-6.09,7.17l-1,1a96.2,96.2,0,0,1-31.6,21.75l-1,.42c-2.45,1-5,1.92-7.5,2.72l-1,.31c-2.26.69-4.54,1.29-6.86,1.81l-5.84-6.49a88,88,0,0,0,12.7-3.19l1-.34c2.55-.89,5.06-1.88,7.5-3l1-.47a89,89,0,0,0,31.6-24.86l1-1.27a91.06,91.06,0,0,0,6.09-9Zm0-15.33a87.49,87.49,0,0,1-6.09,9.3l-1,1.31a88,88,0,0,1-31.6,25.37l-1,.47c-2.44,1.12-5,2.13-7.5,3l-1,.34c-2.46.83-5,1.55-7.51,2.16V-71.62a71.71,71.71,0,0,0,7.51-2.78l1-.45a71.46,71.46,0,0,0,7.5-4l1-.64a70.07,70.07,0,0,0,31.6-47.38l0-.52a69.94,69.94,0,0,0,.95-11.1v-.15c0-.08,0-.15,0-.22a70.08,70.08,0,0,0-49.61-66.93v-17.78c2.54.61,5.05,1.33,7.51,2.16l1,.35c2.55.89,5.06,1.9,7.5,3l1,.46a88,88,0,0,1,31.6,25.38l1,1.3a88.52,88.52,0,0,1,6.09,9.3Zm0-88a89.75,89.75,0,0,0-6.09-9l-1-1.27a88.87,88.87,0,0,0-31.6-24.87l-1-.47c-2.44-1.1-5-2.1-7.5-3l-1-.34a88.06,88.06,0,0,0-12.7-3.2l5.84-6.49c2.32.52,4.6,1.13,6.86,1.81l1,.31q3.83,1.22,7.5,2.73l1,.41a96.2,96.2,0,0,1,31.6,21.75l1,1q3.21,3.44,6.09,7.17Zm0-15q-2.88-3.65-6.09-7l-1-1a97.1,97.1,0,0,0-31.6-21.4l-1-.41q-3.67-1.5-7.5-2.7l-1-.3c-2-.6-4-1.15-6.09-1.62l6.09-6.76,1-.63q3.81,1.08,7.5,2.44l1,.38a105.89,105.89,0,0,1,31.6,18.8l1,.88c2.1,1.86,4.14,3.8,6.09,5.81Zm7.08,159-6.08,6.08v-31.2q3.18-3.32,6.08-6.91Zm0-33.62c-1.92,2.44-4,4.79-6.08,7V-79.88a96.54,96.54,0,0,0,6.08-9Zm0-17.64a96.63,96.63,0,0,1-6.08,9.27V-95.29a88.72,88.72,0,0,0,6.08-13.24Zm0-20.82a87,87,0,0,1-6.08,14.26v-82.38a87,87,0,0,1,6.08,14.26Zm0-56.95a88.72,88.72,0,0,0-6.08-13.24v-13.75a95.26,95.26,0,0,1,6.08,9.26Zm0-19.69a99.28,99.28,0,0,0-6.08-9V-211c2.12,2.26,4.16,4.62,6.08,7.06Zm0-17.27q-2.9-3.58-6.08-6.91v-31.2l6.08,6.08Zm1,43.34a87,87,0,0,1,3.26,23.64,87.14,87.14,0,0,1-3.26,23.65Zm0,50.73a87.93,87.93,0,0,0,4.26-27.09,87.93,87.93,0,0,0-4.26-27.09v-18.87a95.28,95.28,0,0,1,11.76,46,95.28,95.28,0,0,1-11.76,46Zm0,20.92a96.21,96.21,0,0,0,12.76-48,96.21,96.21,0,0,0-12.76-48v-16.07a105.24,105.24,0,0,1,21.68,64.08,105.29,105.29,0,0,1-21.68,64.09Z"/></g></g><g class="cls-7"><path class="cls-1" d="M61.44-241.66V-300.4h-1v59c-2.54.72-5,1.52-7.5,2.42V-298h-1v59.45A106.82,106.82,0,0,0,20.34-220l-1,.85q-3.15,2.74-6.09,5.72v-31.17l6.09-6.09,1-1V-298h-1v45.91L13.25-246v-52h-1v53L6.17-239l-1,.91v33.79a106.24,106.24,0,0,0-22.68,65.72A106.29,106.29,0,0,0,5.17-72.82v33.66l1,1L12.25-32V21h1V-31L19.34-25V21h1V-25.33l-1-1-6.09-6.09V-63.63q2.94,3,6.09,5.72l1,.85A106.82,106.82,0,0,0,51.94-38.5V21h1V-38.12c2.46.89,5,1.7,7.5,2.41V22.75h1V-35.44l.44-.92,6.78-7.53a96.73,96.73,0,0,0,20.63,2.22,96.73,96.73,0,0,0,20.63-2.22l6.79,7.53.43.92V22.75h1V-35.71c2.54-.71,5-1.52,7.5-2.41V21h1V-38.49a106.93,106.93,0,0,0,31.6-18.57l1-.85q3.15-2.75,6.09-5.72v31.17l-6.09,6.09-1,1.08V21h1V-25L165.33-31V21h1V-32l6.08-6.09,1-1V-72.82a106.29,106.29,0,0,0,22.68-65.73,106.29,106.29,0,0,0-22.68-65.73v-33.67l-1-1-6.08-6.09v-53h-1v52l-6.09-6.09V-298h-1v46.26l1,1.06,6.09,6.09v31.17q-2.94-3-6.09-5.72l-1-.85a106.69,106.69,0,0,0-31.6-18.56V-298h-1V-239q-3.69-1.34-7.5-2.41v-59h-1v58.74s-.45.92-.43.92l-6.79,7.53a96.73,96.73,0,0,0-20.63-2.22,96.73,96.73,0,0,0-20.63,2.22l-6.78-7.53S61.45-241.66,61.44-241.66ZM6.17-237.55l6.08-6.09v31.2q-3.18,3.31-6.08,6.92ZM12.25-211v13.77a99.28,99.28,0,0,0-6.08,9v-15.67C8.09-206.37,10.13-208.72,12.25-211Zm160.16,99.37a87,87,0,0,1-6.08,14.26v-82.38a87,87,0,0,1,6.08,14.26Zm1-50.57a87,87,0,0,1,3.26,23.64,87.14,87.14,0,0,1-3.26,23.65Zm-8.08,66.64a87.49,87.49,0,0,1-6.09,9.3l-1,1.31a88,88,0,0,1-31.6,25.37l-1,.47c-2.44,1.12-5,2.13-7.5,3l-1,.34c-2.46.83-5,1.55-7.51,2.16V-71.62a71.71,71.71,0,0,0,7.51-2.78l1-.45a71.46,71.46,0,0,0,7.5-4l1-.64a70.07,70.07,0,0,0,31.6-47.38l0-.52a69.94,69.94,0,0,0,.95-11.1v-.15c0-.08,0-.15,0-.22a70.08,70.08,0,0,0-49.61-66.93v-17.78c2.54.61,5.05,1.33,7.51,2.16l1,.35c2.55.89,5.06,1.9,7.5,3l1,.46a88,88,0,0,1,31.6,25.38l1,1.3a88.52,88.52,0,0,1,6.09,9.3Zm-145-43.67c0-.75,0-1.48.06-2.22a69,69,0,0,1,31.53-55l1-.64a69.36,69.36,0,0,1,7.5-4.05l1-.45A68.28,68.28,0,0,1,69-204.44l1-.29c1.52-.44,3.07-.84,4.64-1.18l1-.22a69.19,69.19,0,0,1,13.67-1.37A69.19,69.19,0,0,1,103-206.13l1,.22c1.58.34,3.13.74,4.67,1.19l1,.29a67.74,67.74,0,0,1,7.51,2.83l1,.45a69.36,69.36,0,0,1,7.5,4.05l1,.64a69,69,0,0,1,31.54,55.09c0,.66,0,1.32,0,2,0,.23,0,.46,0,.69A69,69,0,0,1,89.29-69.87a69,69,0,0,1-68.95-68.86C20.35-138.9,20.35-139.06,20.35-139.22Zm-1,.4c0,.07,0,.13,0,.2v.2a69.64,69.64,0,0,0,.95,11.06l0,.53a70.1,70.1,0,0,0,31.6,47.38l1,.64a71.46,71.46,0,0,0,7.5,4l1,.45A68,68,0,0,0,69-71.62v18.06q-3.84-.91-7.54-2.17l-1-.34c-2.55-.9-5.06-1.91-7.5-3l-1-.47a88,88,0,0,1-31.6-25.37l-1-1.31a87.49,87.49,0,0,1-6.09-9.3v-86a88.52,88.52,0,0,1,6.09-9.3l1-1.3a88,88,0,0,1,31.6-25.38l1-.46c2.44-1.13,5-2.14,7.5-3l1-.35q3.7-1.24,7.54-2.16v17.78A70.07,70.07,0,0,0,19.34-138.82ZM6.17-165.48a87,87,0,0,1,6.08-14.26v82.38a87,87,0,0,1-6.08-14.26Zm-1,50.57a87,87,0,0,1-3.25-23.64,87,87,0,0,1,3.25-23.64Zm1-53.65v-17.73a97.29,97.29,0,0,1,6.08-9.27v13.75A88.37,88.37,0,0,0,6.17-168.56Zm-1,2.93A87.91,87.91,0,0,0,.92-138.55a87.93,87.93,0,0,0,4.25,27.09v18.87a95.28,95.28,0,0,1-11.76-46,95.31,95.31,0,0,1,11.76-46Zm1,57.1a88.72,88.72,0,0,0,6.08,13.24v13.75A97.14,97.14,0,0,1,6.17-90.8Zm7.08,15a89.75,89.75,0,0,0,6.09,9l1,1.27a88.87,88.87,0,0,0,31.6,24.87l1,.47c2.44,1.11,5,2.1,7.5,3l1,.34a88,88,0,0,0,12.7,3.19L68.3-45c-2.32-.52-4.6-1.12-6.86-1.81l-1-.31c-2.54-.8-5-1.72-7.5-2.73l-1-.41A96.3,96.3,0,0,1,20.34-72l-1-1q-3.21-3.44-6.09-7.17ZM70-53.33v-18c1.53.44,3.07.83,4.64,1.17v17.75C73.06-52.68,71.51-53,70-53.33Zm38.65-18v18c-1.54.34-3.1.65-4.67.92V-70.16C105.54-70.5,107.09-70.9,108.63-71.34Zm8.51,16.67,1-.34c2.55-.89,5.06-1.88,7.5-3l1-.47a89,89,0,0,0,31.6-24.86l1-1.27a91.06,91.06,0,0,0,6.09-9v13.34q-2.88,3.73-6.09,7.17l-1,1a96.2,96.2,0,0,1-31.6,21.75l-1,.42c-2.45,1-5,1.92-7.5,2.72l-1,.31c-2.26.69-4.54,1.29-6.86,1.81l-5.84-6.49A88,88,0,0,0,117.14-54.67Zm49.19-40.62a88.72,88.72,0,0,0,6.08-13.24V-90.8a96.63,96.63,0,0,1-6.08,9.27Zm7.08-16.17a87.93,87.93,0,0,0,4.26-27.09,87.93,87.93,0,0,0-4.26-27.09v-18.87a95.28,95.28,0,0,1,11.76,46,95.28,95.28,0,0,1-11.76,46Zm-1-57.11a88.72,88.72,0,0,0-6.08-13.24v-13.75a95.26,95.26,0,0,1,6.08,9.26Zm-7.08-15a89.75,89.75,0,0,0-6.09-9l-1-1.27a88.87,88.87,0,0,0-31.6-24.87l-1-.47c-2.44-1.1-5-2.1-7.5-3l-1-.34a88.06,88.06,0,0,0-12.7-3.2l5.84-6.49c2.32.52,4.6,1.13,6.86,1.81l1,.31q3.83,1.22,7.5,2.73l1,.41a96.2,96.2,0,0,1,31.6,21.75l1,1q3.21,3.44,6.09,7.17Zm-56.7-40.22V-206c-1.54-.44-3.09-.84-4.67-1.18v-17.47C105.53-224.42,107.09-224.11,108.63-223.76ZM70-206v-17.73c1.53-.34,3.08-.65,4.64-.91v17.47C73.05-206.87,71.51-206.48,70-206Zm-8.54-16.38-1,.34c-2.55.88-5.06,1.88-7.5,3l-1,.47a88.87,88.87,0,0,0-31.6,24.87l-1,1.27a89.75,89.75,0,0,0-6.09,9v-13.34q2.88-3.74,6.09-7.17l1-1a96.3,96.3,0,0,1,31.6-21.75l1-.41c2.45-1,5-1.92,7.5-2.73l1-.31c2.26-.68,4.54-1.29,6.86-1.81l5.84,6.49A88.06,88.06,0,0,0,61.44-222.42Zm-77.95,83.87A105.26,105.26,0,0,1,5.17-202.63v16.07a96.31,96.31,0,0,0-12.76,48,96.31,96.31,0,0,0,12.76,48v16.07A105.24,105.24,0,0,1-16.51-138.55ZM6.17-73.17V-88.84a99.28,99.28,0,0,0,6.08,9v13.77C10.13-68.37,8.09-70.73,6.17-73.17Zm6.08,39.71L6.17-39.54v-32Q9.07-68,12.25-64.66Zm49.19-3.91-1,.62q-3.81-1.08-7.5-2.43l-1-.39a105.68,105.68,0,0,1-31.6-18.8l-1-.88Q16.19-62,13.25-65.06V-78.58c1.92,2.42,3.95,4.76,6.09,7l1,1a97.28,97.28,0,0,0,31.6,21.41l1,.41c2.45,1,5,1.9,7.5,2.69l1,.3q3,.91,6.09,1.62Zm27.85-5.3a95.58,95.58,0,0,1-19.86-2.08l5.88-6.53s.32-1,.31-1v-17.7A70,70,0,0,0,89.29-68.6,70,70,0,0,0,103-69.95v17.7s.3,1,.31,1l5.88,6.53A95.58,95.58,0,0,1,89.29-42.67Zm70-16.57-1,.87a105.92,105.92,0,0,1-31.6,18.81l-1,.38q-3.69,1.35-7.5,2.43l-1-.62-6.09-6.77c2.06-.47,4.08-1,6.09-1.62l1-.3c2.55-.79,5-1.7,7.5-2.69l1-.41a97.28,97.28,0,0,0,31.6-21.41l1-1c2.14-2.23,4.17-4.57,6.09-7v13.52C163.38-63,161.34-61.1,159.24-59.24Zm13.17,19.7-6.08,6.08V-64.65q3.18-3.33,6.08-6.92Zm-6.08-26.57V-79.88a94.61,94.61,0,0,0,6.08-9v15.68C170.49-70.72,168.45-68.37,166.33-66.11Zm28.76-72.44a105.29,105.29,0,0,1-21.68,64.09V-90.54a96.21,96.21,0,0,0,12.76-48,96.21,96.21,0,0,0-12.76-48v-16.07A105.24,105.24,0,0,1,195.09-138.55Zm-22.68-65.38v15.67a97.24,97.24,0,0,0-6.08-9V-211C168.45-208.73,170.49-206.37,172.41-203.93Zm-6.08-39.71,6.08,6.08v32q-2.9-3.58-6.08-6.91Zm-49.19,3.92,1-.63q3.81,1.08,7.5,2.44l1,.38a105.89,105.89,0,0,1,31.6,18.8l1,.88c2.1,1.86,4.14,3.8,6.09,5.81v13.53q-2.88-3.65-6.09-7l-1-1a97.1,97.1,0,0,0-31.6-21.4l-1-.41q-3.67-1.5-7.5-2.7l-1-.3c-2-.6-4-1.15-6.09-1.62Zm-27.85,5.29a95.58,95.58,0,0,1,19.86,2.08l-5.88,6.54s-.32,1-.31,1v17.43a70,70,0,0,0-13.67-1.35,70,70,0,0,0-13.67,1.35v-17.43s-.3-1-.31-1l-5.88-6.54A95.58,95.58,0,0,1,89.29-234.43Zm-27.85-5.29L67.53-233c-2,.47-4.08,1-6.09,1.62l-1,.3c-2.54.8-5,1.7-7.5,2.7l-1,.41a97.1,97.1,0,0,0-31.6,21.4l-1,1q-3.21,3.36-6.09,7V-212q2.94-3,6.09-5.81l1-.88a105.89,105.89,0,0,1,31.6-18.8l1-.38q3.69-1.36,7.5-2.44Z"/></g><path class="cls-8" d="M65.21,32V28.4h3.7V29H66.05v.81h1.67v.61H66.05v.9H69V32Z"/><path class="cls-8" d="M70.23,32v-3h.5l2.52,2v-2h.64v3H73.4l-2.51-2v2Z"/><path class="cls-8" d="M76.6,32l-1.79-3h.82l1.25,2.14,1.18-2.14h.75L77.1,32Z"/><path class="cls-8" d="M79.64,32v-3h.72v3Z"/><path class="cls-8" d="M81.67,32v-3h2.67a.84.84,0,0,1,.53.13.54.54,0,0,1,.17.44v.7a.54.54,0,0,1-.17.44.86.86,0,0,1-.53.13h-.4L85.34,32h-1L83.07,30.9h-.68V32ZM84,29.57H82.39v.82H84a.52.52,0,0,0,.25-.05.22.22,0,0,0,.07-.19v-.34c0-.1,0-.16-.07-.19A.52.52,0,0,0,84,29.57Z"/><path class="cls-8" d="M86.15,29.75a1.2,1.2,0,0,1,.07-.43.42.42,0,0,1,.24-.21,1.78,1.78,0,0,1,.46-.05h2.29a1.81,1.81,0,0,1,.47.05.37.37,0,0,1,.23.21,1,1,0,0,1,.07.43v1.57a1,1,0,0,1-.07.43.36.36,0,0,1-.24.21,1.38,1.38,0,0,1-.46.06H86.92a1.38,1.38,0,0,1-.46-.06.42.42,0,0,1-.24-.21,1.2,1.2,0,0,1-.07-.43Zm.72,1.7h2.39V29.6H86.87Z"/><path class="cls-8" d="M91.23,32v-3h.49l2.52,2v-2h.65v3h-.5l-2.5-2v2Z"/><path class="cls-8" d="M96.21,32v-3h.58l1.45,1.75,1.44-1.75h.58v3h-.67V30l-1.32,1.68h-.14L96.79,30v2Z"/><path class="cls-8" d="M101.58,32v-3h3.18v.52h-2.45v.65h1.43v.51h-1.43v.72h2.49V32Z"/><path class="cls-8" d="M105.84,32v-3h.49l2.52,2v-2h.65v3H109l-2.5-2v2Z"/><path class="cls-8" d="M112.59,29.59V32h-.72V29.59h-1.43v-.53H114v.53Z"/><path class="cls-5" d="M7.66,46.85h3c.77,0,1,.25,1,1.22v2.71c0,1-.25,1.22-1,1.22h-3c-.77,0-1-.25-1-1.22V48.07C6.64,47.1,6.89,46.85,7.66,46.85ZM10.76,51V47.77H7.6V51Z"/><path class="cls-5" d="M13.45,47.78h3c.55,0,.8.22.8.82v.51a.67.67,0,0,1-.57.71.75.75,0,0,1,.6.81v.54c0,.56-.35.83-1,.83H13.45Zm.81.68v1h1.85c.25,0,.37-.05.37-.3v-.39c0-.25-.12-.31-.37-.31Zm0,1.7v1.08h1.85c.28,0,.4-.07.4-.38v-.32c0-.31-.12-.38-.4-.38Z"/><path class="cls-5" d="M19.35,48.53v.89h2.2c.67,0,.88.2.88,1V51c0,.79-.21,1-.88,1h-2.2c-.67,0-.89-.21-.89-1v-.12l.74-.17v.5h2.48v-1H19.49c-.66,0-.88-.2-.88-1v-.46c0-.8.22-1,.88-1h2c.62,0,.89.17.89.91v.1l-.71.19v-.45Z"/><path class="cls-5" d="M25.87,52H25V48.53H23.41v-.75h4.1v.75H25.87Z"/><path class="cls-5" d="M29.48,47.78h.79l2,4.22h-.93L31,51.07H28.72l-.43.93h-.82Zm1.14,2.52-.79-1.76-.76,1.76Z"/><path class="cls-5" d="M33.89,48.55v2.64h2.23v-.9l.83.21V51c0,.79-.22,1-.89,1H34c-.68,0-.88-.22-.88-1V48.78c0-.79.21-1,.88-1h2.11c.67,0,.89.2.89,1v.41l-.83.14v-.78Z"/><path class="cls-5" d="M38.3,47.78h.83v3.43h2.66V52H38.3Z"/><path class="cls-5" d="M42.72,47.78h3.63v.75h-2.8v.91h1.63v.73H43.55v1h2.84V52H42.72Z"/><path class="cls-5" d="M48.38,48.53v.89h2.2c.67,0,.88.2.88,1V51c0,.79-.21,1-.88,1h-2.2c-.67,0-.89-.21-.89-1v-.12l.74-.17v.5h2.49v-1H48.53c-.67,0-.89-.2-.89-1v-.46c0-.8.22-1,.89-1h2c.63,0,.89.17.89.91v.1l-.71.19v-.45Z"/><path class="cls-5" d="M53.88,47.77c.16,0,.2.12.2.37v.8c0,.37-.07.37-.34.37H53c-.16,0-.19-.12-.19-.37v-.8c0-.37.06-.37.33-.37h.71Zm0,2.68c.16,0,.2.12.2.37v.81c0,.37-.07.37-.34.37H53c-.16,0-.19-.12-.19-.37v-.81c0-.37.06-.37.33-.37h.71Z"/><path class="cls-5" d="M59.61,49.38v0c-.47-.16-.55-.52-.55-1.12V48c0-1,.36-1.15,1.54-1.15S62.14,47,62.14,48v.21c0,.6-.08,1-.55,1.12v0c.56.19.62.54.62,1.26,0,1.29-.44,1.42-1.61,1.42S59,51.93,59,50.64C59,49.92,59.05,49.57,59.61,49.38Zm1,2.19c1,0,1.12-.11,1.12-1s-.15-1-1.12-1-1.12.1-1.12,1S59.63,51.57,60.6,51.57Zm0-2.41c1.09,0,1.09-.22,1.09-.92s0-.92-1.09-.92-1.09.22-1.09.92S59.51,49.16,60.6,49.16Z"/><path class="cls-5" d="M64.85,48.61c0-1.48.45-1.73,1.78-1.73s1.79.25,1.79,1.73v1.71c0,1.49-.46,1.74-1.79,1.74s-1.78-.25-1.78-1.74Zm3.08,0c0-1.12-.15-1.27-1.3-1.27s-1.29.15-1.29,1.27v1.65c0,1.12.14,1.28,1.29,1.28s1.3-.16,1.3-1.28Z"/><path class="cls-5" d="M69.19,46.93h.45v2h0a1,1,0,0,1,1-.51c.92,0,1.19.45,1.19,1.85s-.27,1.84-1.26,1.84a.85.85,0,0,1-.92-.51h0V52h-.45Zm1.3,1.89c-.64,0-.85.31-.85,1.19,0,1.34.1,1.6.85,1.6s.85-.16.85-1.39S71.19,48.82,70.49,48.82Z"/><path class="cls-5" d="M73,50.9c0,.61.1.75.77.75s.85-.1.85-.71,0-.5-.89-.55-1.15-.18-1.15-1,.14-1.05,1.21-1.05,1.25.24,1.25,1h-.45c0-.54-.15-.58-.82-.58s-.74.06-.74.62.06.54.82.59c1.06.06,1.22.14,1.22.93s-.16,1.14-1.32,1.14c-.82,0-1.19-.1-1.19-1.16Z"/><path class="cls-5" d="M75.87,48.84H75.5v-.41h.37v-.82h.45v.82h1.16v.41H76.32v2.39c0,.29.09.42.39.42s.48-.06.48-.85h.41c0,1.14-.37,1.26-.89,1.26s-.84-.2-.84-.74Z"/><path class="cls-5" d="M80.18,51.69a1.18,1.18,0,0,1-1,.37c-.91,0-1.12-.44-1.12-1.12s.16-1.12,1.12-1.12c.68,0,.82.08,1,.32h0v-.65c0-.53,0-.71-.79-.71s-.75.18-.75.64h-.45v-.19c0-.43.1-.86,1.22-.86s1.21.33,1.21,1V52h-.4Zm-.85-.08c.59,0,.85-.15.85-.69s-.26-.7-.85-.7-.86.15-.86.7S78.73,51.61,79.33,51.61Z"/><path class="cls-5" d="M83.3,49.62c0-.65-.13-.84-.72-.84s-.83.11-.83,1.44.12,1.43.83,1.43.78-.17.78-.94h.45v.23c0,.92-.43,1.12-1.23,1.12-1.18,0-1.32-.39-1.32-1.84s.24-1.85,1.32-1.85,1.17.31,1.17,1.25Z"/><path class="cls-5" d="M84.55,46.93H85V52h-.45Z"/><path class="cls-5" d="M86.29,50.32v.33c0,.78.13,1,.75,1s.87,0,.87-.71h.45v.13c0,.72-.17,1-1.24,1s-1.32-.39-1.32-1.84.24-1.85,1.32-1.85,1.24.44,1.24,1.41v.54Zm1.62-.45c0-.75,0-1.09-.81-1.09s-.81.34-.81,1.09Z"/><path class="cls-5" d="M89.54,50.9c0,.61.1.75.77.75s.85-.1.85-.71,0-.5-.89-.55-1.15-.18-1.15-1,.14-1.05,1.21-1.05,1.25.24,1.25,1h-.45c0-.54-.15-.58-.82-.58s-.74.06-.74.62.06.54.82.59c1.06.06,1.22.14,1.22.93s-.16,1.14-1.32,1.14c-.82,0-1.19-.1-1.19-1.16Z"/><path class="cls-5" d="M92.7,51.36h.49V52H92.7Z"/><path class="cls-5" d="M7.6,68.15v1.1h2.57c.78,0,1,.25,1,1.22v.71c0,1-.25,1.22-1,1.22H7.62c-.77,0-1-.25-1-1.22V71l.85-.22v.61h2.92V70.25H7.78c-.78,0-1-.25-1-1.22v-.57c0-1,.24-1.21,1-1.21h2.34c.74,0,1,.24,1,1.12v.12l-.85.25v-.59Z"/><path class="cls-5" d="M12.89,68.18h3.63v.75h-2.8v.91h1.64v.73H13.72v1h2.84v.79H12.89Z"/><path class="cls-5" d="M19.77,72.4H19V68.94H17.32v-.76h4.09v.76H19.77Z"/><path class="cls-5" d="M23.3,71.61h2.35V68.18h.83V71.4c0,.79-.21,1-.88,1H23.36c-.68,0-.88-.21-.88-1V68.18h.82Z"/><path class="cls-5" d="M28,68.18H31c.54,0,.79.22.79.81v.94c0,.59-.25.82-.79.82H28.8V72.4H28Zm.81.72V70h1.88c.25,0,.38-.06.38-.33v-.45c0-.28-.13-.34-.38-.34Z"/><path class="cls-5" d="M34,68.17c.16,0,.19.11.19.36v.82c0,.36-.06.36-.33.36h-.71c-.16,0-.2-.12-.2-.36v-.82c0-.36.07-.36.34-.36H34Zm0,2.68c.16,0,.19.12.19.37V72c0,.37-.06.37-.33.37h-.71c-.16,0-.2-.12-.2-.37v-.81c0-.37.07-.37.34-.37H34Z"/><path class="cls-5" d="M41.88,71.33H39.7l-.33,1.07h-.51l1.59-5.07h.68l1.59,5.07h-.51Zm-1.06-3.51h-.07l-.9,3h1.88Z"/><path class="cls-5" d="M43.41,69.24H43v-.41h.44v-.64c0-.66.31-.91.93-.91h.32v.4h-.29c-.3,0-.51.1-.51.51v.64h.79v.41h-.79V72.4h-.45Z"/><path class="cls-5" d="M45.1,69.24h-.37v-.41h.37V68h.45v.83H46.7v.41H45.55v2.39c0,.29.09.42.38.42s.49-.06.49-.85h.4c0,1.14-.36,1.26-.88,1.26s-.84-.2-.84-.74Z"/><path class="cls-5" d="M47.74,70.72v.33c0,.78.13,1,.75,1s.87,0,.87-.71h.45v.13c0,.72-.17,1-1.24,1s-1.32-.39-1.32-1.84.24-1.84,1.32-1.84,1.24.43,1.24,1.4v.54Zm1.62-.45c0-.75,0-1.09-.81-1.09s-.81.34-.81,1.09Z"/><path class="cls-5" d="M50.55,68.83H51v.44h0a.78.78,0,0,1,.83-.49c.57,0,.83.24.83,1V70h-.41c0-.66-.07-.84-.58-.84s-.68.25-.68.74V72.4h-.45Z"/><path class="cls-5" d="M57.18,72.1a1.23,1.23,0,0,1-1,.36c-.91,0-1.11-.43-1.11-1.12s.16-1.12,1.11-1.12c.68,0,.83.07,1,.32h0v-.65c0-.53,0-.71-.79-.71s-.75.18-.75.64h-.45v-.19c0-.44.11-.85,1.22-.85s1.22.32,1.22,1V72.4h-.41ZM56.33,72c.59,0,.85-.15.85-.69s-.26-.7-.85-.7-.86.15-.86.7S55.73,72,56.33,72Z"/><path class="cls-5" d="M60.32,68.83h.45v.45h0a1,1,0,0,1,1-.5c.92,0,1.2.44,1.2,1.84s-.28,1.84-1.27,1.84a.85.85,0,0,1-.92-.51h0v1.7h-.45Zm1.3.39c-.64,0-.85.31-.85,1.19,0,1.33.1,1.6.85,1.6s.86-.16.86-1.39S62.32,69.22,61.62,69.22Z"/><path class="cls-5" d="M63.76,67.33h.45V72.4h-.45Z"/><path class="cls-5" d="M67.17,72.1a1.25,1.25,0,0,1-1,.36c-.91,0-1.11-.43-1.11-1.12s.16-1.12,1.11-1.12c.68,0,.83.07,1,.32h0v-.65c0-.53-.05-.71-.79-.71s-.75.18-.75.64h-.45v-.19c0-.44.11-.85,1.22-.85s1.22.32,1.22,1V72.4h-.4ZM66.31,72c.6,0,.86-.15.86-.69s-.26-.7-.86-.7-.85.15-.85.7S65.72,72,66.31,72Z"/><path class="cls-5" d="M68.43,73.27c.57,0,.67-.11.83-.87h-.2l-1-3.57h.44L69.37,72h0l.77-3.12h.45l-1,3.94c-.16.63-.43,1-1,1a.66.66,0,0,1-.21,0Z"/><path class="cls-5" d="M71.47,70.72v.33c0,.78.13,1,.75,1s.87,0,.87-.71h.45v.13c0,.72-.17,1-1.24,1S71,72.07,71,70.62s.24-1.84,1.32-1.84,1.24.43,1.24,1.4v.54Zm1.62-.45c0-.75,0-1.09-.81-1.09s-.81.34-.81,1.09Z"/><path class="cls-5" d="M74.28,68.83h.45v.44h0a.77.77,0,0,1,.82-.49c.57,0,.83.24.83,1V70H76c0-.66-.07-.84-.58-.84s-.68.25-.68.74V72.4h-.45Z"/><path class="cls-5" d="M78.86,68.83h.45v.45h0a1,1,0,0,1,1-.5c.93,0,1.2.44,1.2,1.84s-.27,1.84-1.27,1.84a.86.86,0,0,1-.92-.51h0v1.7h-.45Zm1.31.39c-.65,0-.86.31-.86,1.19,0,1.33.11,1.6.86,1.6s.85-.16.85-1.39S80.87,69.22,80.17,69.22Z"/><path class="cls-5" d="M82.31,67.33h.44V72.4h-.44Z"/><path class="cls-5" d="M85.71,72.1a1.24,1.24,0,0,1-1,.36c-.91,0-1.12-.43-1.12-1.12s.16-1.12,1.12-1.12c.68,0,.82.07,1,.32h0v-.65c0-.53,0-.71-.79-.71s-.75.18-.75.64h-.45v-.19c0-.44.1-.85,1.22-.85s1.22.32,1.22,1V72.4h-.41ZM84.86,72c.59,0,.85-.15.85-.69s-.26-.7-.85-.7-.86.15-.86.7S84.26,72,84.86,72Z"/><path class="cls-5" d="M88.83,70c0-.65-.12-.84-.72-.84s-.83.11-.83,1.44.12,1.43.83,1.43.78-.17.78-.94h.45v.23c0,.92-.43,1.12-1.23,1.12-1.18,0-1.32-.39-1.32-1.84s.24-1.84,1.32-1.84,1.17.3,1.17,1.24Z"/><path class="cls-5" d="M90.39,70.72v.33c0,.78.13,1,.75,1s.88,0,.88-.71h.44v.13c0,.72-.17,1-1.24,1s-1.32-.39-1.32-1.84.24-1.84,1.32-1.84,1.24.43,1.24,1.4v.54ZM92,70.27c0-.75,0-1.09-.82-1.09s-.81.34-.81,1.09Z"/><path class="cls-5" d="M93.65,71.3c0,.61.09.75.76.75s.85-.1.85-.7-.05-.51-.89-.56-1.14-.18-1.14-1,.14-1,1.2-1,1.25.23,1.25,1h-.45c0-.54-.15-.58-.82-.58s-.74.06-.74.62.07.54.82.59c1.06.06,1.22.14,1.22.93s-.16,1.14-1.31,1.14c-.82,0-1.2-.1-1.2-1.16Z"/><path class="cls-5" d="M100.49,72.1a1.25,1.25,0,0,1-1,.36c-.91,0-1.11-.43-1.11-1.12s.16-1.12,1.11-1.12c.68,0,.83.07,1,.32h0v-.65c0-.53,0-.71-.79-.71s-.75.18-.75.64h-.44v-.19c0-.44.1-.85,1.21-.85s1.22.32,1.22,1V72.4h-.4ZM99.63,72c.6,0,.86-.15.86-.69s-.26-.7-.86-.7-.85.15-.85.7S99,72,99.63,72Z"/><path class="cls-5" d="M101.63,68.83h.45v.46h0a1,1,0,0,1,1-.51c.83,0,1,.41,1,1.1V72.4h-.44V70c0-.42-.1-.81-.68-.81s-.93.21-.93,1V72.4h-.45Z"/><path class="cls-5" d="M108.08,68.78c1.17,0,1.31.41,1.31,1.84s-.15,1.84-1.31,1.84-1.32-.36-1.32-1.84S106.9,68.78,108.08,68.78Zm0,3.27c.71,0,.82-.1.82-1.43s-.11-1.44-.82-1.44-.83.11-.83,1.44S107.36,72.05,108.08,72.05Z"/><path class="cls-5" d="M110.11,67.33h.45v2h0a1,1,0,0,1,1-.5c.93,0,1.2.44,1.2,1.84s-.27,1.84-1.27,1.84a.86.86,0,0,1-.92-.51h0v.45h-.45Zm1.3,1.89c-.64,0-.85.31-.85,1.19,0,1.33.11,1.6.85,1.6s.86-.16.86-1.39S112.11,69.22,111.41,69.22Z"/><path class="cls-5" d="M113.88,71.3c0,.61.1.75.76.75s.86-.1.86-.7,0-.51-.9-.56-1.14-.18-1.14-1,.14-1,1.2-1,1.25.23,1.25,1h-.45c0-.54-.15-.58-.82-.58s-.73.06-.73.62.06.54.82.59c1,.06,1.21.14,1.21.93s-.16,1.14-1.31,1.14c-.82,0-1.2-.1-1.2-1.16Z"/><path class="cls-5" d="M116.8,69.24h-.37v-.41h.37V68h.45v.83h1.15v.41h-1.15v2.39c0,.29.09.42.38.42s.48-.06.48-.85h.41c0,1.14-.36,1.26-.88,1.26s-.84-.2-.84-.74Z"/><path class="cls-5" d="M121.1,72.1a1.24,1.24,0,0,1-1,.36c-.91,0-1.11-.43-1.11-1.12s.16-1.12,1.11-1.12c.68,0,.83.07,1,.32h0v-.65c0-.53,0-.71-.79-.71s-.75.18-.75.64h-.45v-.19c0-.44.11-.85,1.22-.85s1.22.32,1.22,1V72.4h-.41Zm-.85-.09c.59,0,.85-.15.85-.69s-.26-.7-.85-.7-.86.15-.86.7S119.65,72,120.25,72Z"/><path class="cls-5" d="M124.23,70c0-.65-.13-.84-.73-.84s-.82.11-.82,1.44.11,1.43.82,1.43.79-.17.79-.94h.45v.23c0,.92-.44,1.12-1.24,1.12-1.17,0-1.31-.39-1.31-1.84s.23-1.84,1.31-1.84,1.17.3,1.17,1.24Z"/><path class="cls-5" d="M125.48,67.33h.44V72.4h-.44Z"/><path class="cls-5" d="M127.21,70.72v.33c0,.78.14,1,.75,1s.88,0,.88-.71h.45v.13c0,.72-.18,1-1.25,1s-1.32-.39-1.32-1.84.24-1.84,1.32-1.84,1.25.43,1.25,1.4v.54Zm1.63-.45c0-.75,0-1.09-.81-1.09s-.82.34-.82,1.09Z"/><path class="cls-5" d="M130.38,71.76h.49v.76c0,.6-.17.64-.53.64v-.28c.19,0,.25,0,.25-.48h-.21Z"/><path class="cls-5" d="M134,69.24h-.37v-.41H134V68h.45v.83h1.15v.41h-1.15v2.39c0,.29.09.42.38.42s.48-.06.48-.85h.41c0,1.14-.36,1.26-.88,1.26s-.84-.2-.84-.74Z"/><path class="cls-5" d="M136.25,67.33h.45v2h0a1,1,0,0,1,1-.51c.83,0,1.05.41,1.05,1.1V72.4h-.45V70c0-.42-.09-.81-.68-.81s-.92.21-.92,1V72.4h-.45Z"/><path class="cls-5" d="M139.92,70.72v.33c0,.78.13,1,.75,1s.87,0,.87-.71H142v.13c0,.72-.17,1-1.24,1s-1.32-.39-1.32-1.84.24-1.84,1.32-1.84,1.24.43,1.24,1.4v.54Zm1.62-.45c0-.75,0-1.09-.81-1.09s-.81.34-.81,1.09Z"/><path class="cls-5" d="M142.85,73.27c.57,0,.67-.11.83-.87h-.2l-1-3.57h.44l.91,3.12h0l.77-3.12H145l-1,3.94c-.16.63-.43,1-1,1a.66.66,0,0,1-.21,0Z"/><path class="cls-5" d="M147.41,68.83h.45v.53h0a1,1,0,0,1,.95-.58c.47,0,.84.1,1,.58a1.09,1.09,0,0,1,1.07-.58.93.93,0,0,1,1.07,1V72.4h-.45V70.09c0-.71-.3-.87-.75-.87s-.86.23-.86.93V72.4h-.45V69.93c0-.53-.22-.71-.71-.71-.65,0-.9.39-.9,1.14v2h-.45Z"/><path class="cls-5" d="M155.21,72.4h-.44v-.46h0a.94.94,0,0,1-1,.52c-.83,0-1.06-.41-1.06-1.11V68.83h.45v2.42c0,.41.09.8.68.8s.93-.21.93-1V68.83h.44Z"/><path class="cls-5" d="M156.4,71.3c0,.61.1.75.76.75s.86-.1.86-.7-.05-.51-.9-.56-1.14-.18-1.14-1,.14-1,1.2-1,1.25.23,1.25,1H158c0-.54-.15-.58-.82-.58s-.73.06-.73.62.06.54.82.59c1.05.06,1.21.14,1.21.93s-.16,1.14-1.31,1.14c-.82,0-1.2-.1-1.2-1.16Z"/><path class="cls-5" d="M159.32,69.24H159v-.41h.37V68h.44v.83h1.16v.41h-1.16v2.39c0,.29.1.42.39.42s.48-.06.48-.85H161c0,1.14-.37,1.26-.88,1.26-.66,0-.84-.2-.84-.74Z"/><path class="cls-5" d="M6.08,77.23h.45v.45h0a1,1,0,0,1,1-.5c.93,0,1.2.44,1.2,1.84s-.27,1.84-1.27,1.84a.87.87,0,0,1-.92-.5h0v1.69H6.08Zm1.31.39c-.65,0-.86.31-.86,1.19,0,1.34.11,1.6.86,1.6s.85-.16.85-1.39S8.09,77.62,7.39,77.62Z"/><path class="cls-5" d="M9.53,75.73H10V80.8H9.53Z"/><path class="cls-5" d="M12.93,80.5a1.21,1.21,0,0,1-1,.36c-.91,0-1.12-.43-1.12-1.12s.16-1.12,1.12-1.12c.68,0,.82.07,1,.32h0v-.65c0-.53-.05-.71-.79-.71s-.75.18-.75.64H10.9V78c0-.43.1-.85,1.22-.85s1.22.32,1.22,1V80.8h-.41Zm-.85-.09c.59,0,.85-.15.85-.69s-.26-.69-.85-.69-.86.14-.86.69S11.48,80.41,12.08,80.41Z"/><path class="cls-5" d="M16.05,78.42c0-.65-.12-.84-.72-.84s-.83.11-.83,1.44.12,1.43.83,1.43.79-.17.79-.94h.44v.23c0,.92-.43,1.12-1.23,1.12C14.15,80.86,14,80.47,14,79s.24-1.84,1.32-1.84,1.17.3,1.17,1.24Z"/><path class="cls-5" d="M17.61,79.12v.33c0,.78.14,1,.75,1s.88,0,.88-.71h.44v.13c0,.72-.17,1-1.24,1s-1.32-.39-1.32-1.84.24-1.84,1.32-1.84,1.24.43,1.24,1.4v.54Zm1.63-.45c0-.75,0-1.09-.82-1.09s-.81.34-.81,1.09Z"/><path class="cls-5" d="M24.47,80.5a1.22,1.22,0,0,1-1,.36c-.91,0-1.11-.43-1.11-1.12s.16-1.12,1.11-1.12c.68,0,.83.07,1,.32h0v-.65c0-.53-.05-.71-.79-.71s-.75.18-.75.64h-.44V78c0-.43.1-.85,1.21-.85s1.22.32,1.22,1V80.8h-.4Zm-.86-.09c.6,0,.86-.15.86-.69s-.26-.69-.86-.69-.85.14-.85.69S23,80.41,23.61,80.41Z"/><path class="cls-5" d="M28,79.7c0,.61.1.75.76.75s.86-.1.86-.7-.05-.51-.9-.56-1.14-.18-1.14-1,.14-1,1.21-1,1.24.23,1.24,1h-.45c0-.54-.14-.58-.82-.58s-.73.06-.73.62.06.54.82.59c1.06.06,1.22.14,1.22.93s-.16,1.14-1.32,1.14c-.82,0-1.2-.1-1.2-1.16Z"/><path class="cls-5" d="M31.23,79.12v.33c0,.78.13,1,.75,1s.87,0,.87-.71h.45v.13c0,.72-.17,1-1.25,1s-1.31-.39-1.31-1.84.24-1.84,1.31-1.84,1.25.43,1.25,1.4v.54Zm1.62-.45c0-.75,0-1.09-.81-1.09s-.81.34-.81,1.09Z"/><path class="cls-5" d="M36,78.42c0-.65-.13-.84-.72-.84s-.83.11-.83,1.44.11,1.43.83,1.43.78-.17.78-.94h.45v.23c0,.92-.44,1.12-1.23,1.12C34.12,80.86,34,80.47,34,79s.24-1.84,1.32-1.84,1.17.3,1.17,1.24Z"/><path class="cls-5" d="M38.4,77.18c1.18,0,1.32.42,1.32,1.84s-.15,1.84-1.32,1.84S37.09,80.5,37.09,79,37.23,77.18,38.4,77.18Zm0,3.27c.72,0,.83-.1.83-1.43s-.11-1.44-.83-1.44-.82.11-.82,1.44S37.69,80.45,38.4,80.45Z"/><path class="cls-5" d="M40.4,77.23h.45v.46h0a1,1,0,0,1,1-.51c.82,0,1,.41,1,1.1V80.8h-.45V78.39c0-.42-.09-.81-.68-.81s-.92.21-.92,1V80.8H40.4Z"/><path class="cls-5" d="M45.78,80.36h0a.86.86,0,0,1-.92.5c-1,0-1.26-.44-1.26-1.84s.27-1.84,1.19-1.84a1,1,0,0,1,1,.5h0v-2h.44V80.8h-.44Zm-.86,0c.75,0,.86-.26.86-1.6,0-.88-.22-1.19-.86-1.19s-.85.16-.85,1.4S44.22,80.41,44.92,80.41Z"/><path class="cls-5" d="M50.21,77.18c1.17,0,1.31.42,1.31,1.84s-.15,1.84-1.31,1.84S48.89,80.5,48.89,79,49,77.18,50.21,77.18Zm0,3.27c.71,0,.82-.1.82-1.43s-.11-1.44-.82-1.44-.83.11-.83,1.44S49.49,80.45,50.21,80.45Z"/><path class="cls-5" d="M52.24,75.73h.45v2h0a1,1,0,0,1,1-.5c.93,0,1.2.44,1.2,1.84s-.27,1.84-1.27,1.84a.87.87,0,0,1-.92-.5h0v.44h-.45Zm1.3,1.89c-.64,0-.85.31-.85,1.19,0,1.34.11,1.6.85,1.6s.86-.16.86-1.39S54.25,77.62,53.54,77.62Z"/><path class="cls-5" d="M56,79.7c0,.61.1.75.76.75s.86-.1.86-.7-.05-.51-.9-.56-1.14-.18-1.14-1,.14-1,1.2-1,1.25.23,1.25,1h-.45c0-.54-.15-.58-.82-.58s-.73.06-.73.62.06.54.82.59c1,.06,1.22.14,1.22.93s-.17,1.14-1.32,1.14c-.82,0-1.2-.1-1.2-1.16Z"/><path class="cls-5" d="M58.93,77.64h-.37v-.41h.37V76.4h.45v.83h1.15v.41H59.38V80c0,.29.09.42.38.42s.48-.06.48-.85h.41c0,1.14-.36,1.26-.88,1.26s-.84-.2-.84-.74Z"/><path class="cls-5" d="M63.23,80.5a1.2,1.2,0,0,1-1,.36c-.91,0-1.11-.43-1.11-1.12s.16-1.12,1.11-1.12c.68,0,.83.07,1,.32h0v-.65c0-.53,0-.71-.79-.71s-.75.18-.75.64H61.2V78c0-.43.11-.85,1.22-.85s1.22.32,1.22,1V80.8h-.41Zm-.85-.09c.59,0,.85-.15.85-.69S63,79,62.38,79s-.85.14-.85.69S61.78,80.41,62.38,80.41Z"/><path class="cls-5" d="M66.36,78.42c0-.65-.13-.84-.73-.84s-.82.11-.82,1.44.11,1.43.82,1.43.79-.17.79-.94h.45v.23c0,.92-.44,1.12-1.24,1.12-1.17,0-1.31-.39-1.31-1.84s.24-1.84,1.31-1.84,1.17.3,1.17,1.24Z"/><path class="cls-5" d="M67.61,75.73h.45V80.8h-.45Z"/><path class="cls-5" d="M69.34,79.12v.33c0,.78.14,1,.75,1s.88,0,.88-.71h.45v.13c0,.72-.18,1-1.25,1s-1.32-.39-1.32-1.84.24-1.84,1.32-1.84,1.25.43,1.25,1.4v.54ZM71,78.67c0-.75,0-1.09-.81-1.09s-.82.34-.82,1.09Z"/><path class="cls-5" d="M74.22,77.64h-.37v-.41h.37V76.4h.45v.83h1.16v.41H74.67V80c0,.29.09.42.39.42s.48-.06.48-.85H76c0,1.14-.37,1.26-.89,1.26s-.84-.2-.84-.74Z"/><path class="cls-5" d="M77.69,77.18c1.18,0,1.31.42,1.31,1.84s-.15,1.84-1.31,1.84S76.37,80.5,76.37,79,76.51,77.18,77.69,77.18Zm0,3.27c.71,0,.82-.1.82-1.43s-.11-1.44-.82-1.44-.83.11-.83,1.44S77,80.45,77.69,80.45Z"/><path class="cls-5" d="M82.18,80.8h-.45v-.46h0a1,1,0,0,1-1,.52c-.82,0-1-.41-1-1.11V77.23h.45v2.42c0,.41.09.8.68.8s.92-.21.92-1V77.23h.45Z"/><path class="cls-5" d="M84.9,78.42c0-.65-.13-.84-.72-.84s-.83.11-.83,1.44.11,1.43.83,1.43.78-.17.78-.94h.45v.23c0,.92-.43,1.12-1.23,1.12-1.18,0-1.32-.39-1.32-1.84s.24-1.84,1.32-1.84,1.17.3,1.17,1.24Z"/><path class="cls-5" d="M86,75.73h.45v2h0a1,1,0,0,1,1-.51c.83,0,1,.41,1,1.1V80.8h-.45V78.39c0-.42-.09-.81-.68-.81s-.92.21-.92,1V80.8H86Z"/><path class="cls-5" d="M89.39,75.73h.45v.6h-.45Zm0,1.5h.45V80.8h-.45Z"/><path class="cls-5" d="M90.7,77.23h.45v.46h0a1,1,0,0,1,1-.51c.83,0,1,.41,1,1.1V80.8h-.45V78.39c0-.42-.09-.81-.68-.81s-.92.21-.92,1V80.8H90.7Z"/><path class="cls-5" d="M96.12,80.16h0a.9.9,0,0,1-.94.52c-1.15,0-1.23-.77-1.23-1.75s.08-1.75,1.23-1.75a.88.88,0,0,1,.94.53h0v-.48h.45v3.54c0,1.06-.33,1.35-1.42,1.35-.7,0-1.12-.25-1.11-1h.45c0,.42.18.54.75.54.73,0,.88-.15.88-1Zm-.9.07c.72,0,.9-.29.9-1.3s-.18-1.31-.9-1.31-.79.36-.79,1.31S94.5,80.23,95.22,80.23Z"/><path class="cls-5" d="M99.37,77.64H99v-.41h.37V76.4h.45v.83H101v.41H99.82V80c0,.29.09.42.39.42s.48-.06.48-.85h.41c0,1.14-.37,1.26-.89,1.26s-.84-.2-.84-.74Z"/><path class="cls-5" d="M101.59,75.73H102v2h0a1,1,0,0,1,1-.51c.82,0,1,.41,1,1.1V80.8h-.45V78.39c0-.42-.09-.81-.68-.81s-.93.21-.93,1V80.8h-.44Z"/><path class="cls-5" d="M106.92,80.5a1.21,1.21,0,0,1-1,.36c-.91,0-1.12-.43-1.12-1.12s.17-1.12,1.12-1.12c.68,0,.82.07,1,.32h0v-.65c0-.53,0-.71-.79-.71s-.75.18-.75.64h-.45V78c0-.43.11-.85,1.22-.85s1.22.32,1.22,1V80.8h-.41Zm-.85-.09c.59,0,.85-.15.85-.69s-.26-.69-.85-.69-.86.14-.86.69S105.47,80.41,106.07,80.41Z"/><path class="cls-5" d="M108.19,77.64h-.37v-.41h.37V76.4h.45v.83h1.15v.41h-1.15V80c0,.29.09.42.38.42s.48-.06.48-.85h.41c0,1.14-.36,1.26-.88,1.26s-.84-.2-.84-.74Z"/><path class="cls-5" d="M113.6,77.18c1.18,0,1.32.42,1.32,1.84s-.16,1.84-1.32,1.84-1.32-.36-1.32-1.84S112.42,77.18,113.6,77.18Zm0,3.27c.71,0,.83-.1.83-1.43s-.12-1.44-.83-1.44-.83.11-.83,1.44S112.88,80.45,113.6,80.45Z"/><path class="cls-5" d="M115.64,75.73h.44v2h0a1,1,0,0,1,1-.5c.92,0,1.19.44,1.19,1.84S118,80.86,117,80.86a.86.86,0,0,1-.92-.5h0v.44h-.44Zm1.3,1.89c-.65,0-.86.31-.86,1.19,0,1.34.11,1.6.86,1.6s.85-.16.85-1.39S117.64,77.62,116.94,77.62Z"/><path class="cls-5" d="M119.4,79.7c0,.61.1.75.77.75s.85-.1.85-.7,0-.51-.9-.56S119,79,119,78.22s.14-1,1.21-1,1.24.23,1.24,1H121c0-.54-.15-.58-.82-.58s-.74.06-.74.62.06.54.82.59c1.06.06,1.22.14,1.22.93s-.16,1.14-1.32,1.14c-.82,0-1.2-.1-1.2-1.16Z"/><path class="cls-5" d="M122.32,77.64H122v-.41h.37V76.4h.45v.83h1.15v.41h-1.15V80c0,.29.09.42.38.42s.49-.06.49-.85h.4c0,1.14-.36,1.26-.88,1.26s-.84-.2-.84-.74Z"/><path class="cls-5" d="M126.63,80.5a1.22,1.22,0,0,1-1,.36c-.91,0-1.11-.43-1.11-1.12s.16-1.12,1.11-1.12c.68,0,.83.07,1,.32h0v-.65c0-.53,0-.71-.79-.71s-.75.18-.75.64h-.44V78c0-.43.1-.85,1.22-.85s1.21.32,1.21,1V80.8h-.4Zm-.86-.09c.6,0,.86-.15.86-.69s-.26-.69-.86-.69-.85.14-.85.69S125.18,80.41,125.77,80.41Z"/><path class="cls-5" d="M129.75,78.42c0-.65-.13-.84-.72-.84s-.83.11-.83,1.44.11,1.43.83,1.43.78-.17.78-.94h.45v.23c0,.92-.43,1.12-1.23,1.12-1.18,0-1.32-.39-1.32-1.84s.24-1.84,1.32-1.84,1.17.3,1.17,1.24Z"/><path class="cls-5" d="M131,75.73h.45V80.8H131Z"/><path class="cls-5" d="M132.74,79.12v.33c0,.78.13,1,.75,1s.87,0,.87-.71h.45v.13c0,.72-.18,1-1.25,1s-1.31-.39-1.31-1.84.23-1.84,1.31-1.84,1.25.43,1.25,1.4v.54Zm1.62-.45c0-.75,0-1.09-.81-1.09s-.81.34-.81,1.09Z"/><path class="cls-5" d="M135.91,80.16h.49v.64h-.49Z"/><path class="cls-3" d="M57.35,13.59v4.59h3.2V16.62l1.18.36v.85c0,1.36-.3,1.71-1.26,1.71h-3c-1,0-1.27-.35-1.27-1.71V14c0-1.36.31-1.71,1.27-1.71h3c1,0,1.26.35,1.26,1.71v.69L60.55,15V13.59Z"/><path class="cls-3" d="M65.34,12.3h3.75c1,0,1.27.35,1.27,1.71v3.82c0,1.36-.31,1.71-1.27,1.71H65.34c-1,0-1.26-.35-1.26-1.71V14C64.08,12.65,64.38,12.3,65.34,12.3Zm3.83,5.88V13.59H65.26v4.59Z"/><path class="cls-3" d="M72.85,12.3h.81l3.58,4.27a5.42,5.42,0,0,1,.59.79c0-.61,0-1,0-1.25V12.3h1.06v7.24H78l-3.74-4.47a5.19,5.19,0,0,1-.42-.59c0,.56,0,.94,0,1.15v3.91H72.85Z"/><path class="cls-3" d="M80.92,17.83v-1.5l1.2-.32v2.17h2.33V12.3h1.18v5.53c0,1.36-.3,1.71-1.26,1.71H82.19C81.23,19.54,80.92,19.19,80.92,17.83Z"/><path class="cls-3" d="M89.19,12.3h3.75c1,0,1.27.35,1.27,1.71v3.82c0,1.36-.31,1.71-1.27,1.71H89.19c-1,0-1.26-.35-1.26-1.71V14C87.93,12.65,88.23,12.3,89.19,12.3ZM93,18.18V13.59H89.11v4.59Z"/><path class="cls-3" d="M96.71,12.3h1.18v7.24H96.71Z"/><path class="cls-3" d="M100.49,12.3h.81l3.59,4.27a6.21,6.21,0,0,1,.58.79c0-.61,0-1,0-1.25V12.3h1.07v7.24h-.81l-3.74-4.47a6.9,6.9,0,0,1-.43-.59c0,.56,0,.94,0,1.15v3.91h-1.07Z"/><path class="cls-3" d="M109.09,12.3h5.21v1.24h-4v1.61h2.35v1.24h-2.35v1.79h4.08v1.36h-5.26Z"/><path class="cls-3" d="M116.55,12.3h3.28c1.9,0,2.91,1.33,2.91,3.58a4.06,4.06,0,0,1-1.13,3.1,3,3,0,0,1-2.09.56h-3Zm2.71,5.88c1.5,0,2.25-.53,2.25-2.33,0-1.47-.56-2.26-1.67-2.26h-2.11v4.59Z"/><path class="cls-3" d="M55,21.2v-1h68.64v1Z"/></svg>