<svg id="Layer_1" data-name="Layer 1" xmlns="http://www.w3.org/2000/svg" xmlns:xlink="http://www.w3.org/1999/xlink" viewBox="0 0 178.58 249.45"><defs><style>.cls-1{fill:none;}.cls-2{clip-path:url(#clip-path);}.cls-3{fill:#fff;}.cls-4{opacity:0.02;}.cls-5{fill:#090400;}.cls-6{fill:#2baa54;}.cls-7{clip-path:url(#clip-path-2);}.cls-8{fill:#fbfbfb;}</style><clipPath id="clip-path"><rect class="cls-1" x="-5.67" y="-5.67" width="189.92" height="260.79"/></clipPath><clipPath id="clip-path-2"><rect class="cls-1" x="-5.67" y="-301.98" width="189.92" height="260.79"/></clipPath></defs><g class="cls-2"><rect class="cls-3" x="-5.67" y="-5.67" width="189.92" height="260.79"/><g class="cls-4"><path class="cls-5" d="M173.41,92.29V58.62l-1-1-6.08-6.09v-53h-1v52l-6.09-6.09V-1.49h-1V44.78l1,1.06,6.09,6.08V83.1q-2.94-3-6.09-5.73l-1-.84A106.72,106.72,0,0,0,126.64,58V-1.49h-1V57.59c-2.46-.89-5-1.7-7.5-2.41v-59h-1V54.91a9.65,9.65,0,0,0-.43.92l-6.79,7.53a97,97,0,0,0-41.26,0l-6.78-7.53s-.43-.93-.44-.92V-3.83h-1v59c-2.54.71-5,1.52-7.5,2.41V-1.49h-1V58a107.06,107.06,0,0,0-31.6,18.57l-1,.85q-3.15,2.73-6.09,5.72V51.92l6.09-6.08,1-1.05V-1.49h-1V44.42l-6.09,6.09v-52h-1v53L6.17,57.6l-1,.9V92.29a106.57,106.57,0,0,0,0,131.45V257.4l1,1,6.08,6.08v53h1v-52l6.09,6.09v45.92h1v-46.3l-1-1-6.09-6.08V232.93q2.94,3,6.09,5.73l1,.85a107,107,0,0,0,31.6,18.56v59.46h1V258.44c2.46.89,5,1.7,7.5,2.41v58.47h1v-58.2l.44-.91,6.78-7.54a97,97,0,0,0,41.26,0l6.79,7.54.43.92v58.19h1V260.85q3.81-1.07,7.5-2.41v59.09h1V258.07a106.9,106.9,0,0,0,31.6-18.56l1-.85q3.15-2.74,6.09-5.73v31.18l-6.09,6.08-1,1.08v46.26h1V271.61l6.09-6.09v52h1v-53l6.08-6.08,1-1V223.74a106.57,106.57,0,0,0,0-131.45ZM5.17,181.65a87.57,87.57,0,0,1,0-47.27Zm0-50.72a88.43,88.43,0,0,0,0,54.17V204a95.69,95.69,0,0,1,0-91.92Zm0-20.92a96.68,96.68,0,0,0,0,96V222.1a105.56,105.56,0,0,1,0-128.17Zm7.08,153.1L6.17,257V225q2.89,3.58,6.08,6.92Zm0-32.66c-2.12-2.26-4.16-4.61-6.08-7V207.72a98,98,0,0,0,6.08,9Zm0-15.42a98.57,98.57,0,0,1-6.08-9.27V188a88.83,88.83,0,0,0,6.08,13.25Zm0-15.82a86.7,86.7,0,0,1-6.08-14.27V131.09a87,87,0,0,1,6.08-14.26Zm0-84.46A89.29,89.29,0,0,0,6.17,128V110.27A98.57,98.57,0,0,1,12.25,101Zm0-15.4a96.54,96.54,0,0,0-6.08,9V92.63c1.92-2.44,4-4.79,6.08-7Zm0-15.23Q9.07,87.45,6.17,91V59l6.08-6.09Zm77-22a96.26,96.26,0,0,1,19.86,2.07l-5.88,6.54s-.32,1-.31,1V89.15a69.89,69.89,0,0,0-27.34,0V71.71s-.3-1-.3-1l-5.89-6.54A96.26,96.26,0,0,1,89.29,62.14Zm0,164.55a69,69,0,0,1-68.95-68.86c0-.16,0-.32,0-.49,0-.74,0-1.48.06-2.21a69,69,0,0,1,31.53-55l1-.65a67.58,67.58,0,0,1,7.5-4l1-.46A70.35,70.35,0,0,1,69,92.12l1-.28c1.52-.45,3.07-.84,4.64-1.19l1-.22a69.38,69.38,0,0,1,27.34,0l1,.22c1.58.35,3.13.75,4.67,1.2l1,.28A69.8,69.8,0,0,1,117.14,95l1,.45a69.36,69.36,0,0,1,7.5,4l1,.65a69,69,0,0,1,31.54,55.08c0,.66,0,1.32,0,2,0,.24,0,.47,0,.7A69,69,0,0,1,89.29,226.69Zm19.34-1.46v18c-1.54.35-3.1.66-4.67.92V226.4C105.54,226.07,107.09,225.67,108.63,225.23Zm-34,1.17v17.75c-1.56-.26-3.11-.57-4.64-.91v-18C71.51,225.67,73.05,226.07,74.62,226.4ZM70,90.53V72.8c1.53-.35,3.08-.65,4.64-.92V89.36C73.05,89.69,71.51,90.09,70,90.53Zm38.65,0c-1.54-.44-3.09-.84-4.67-1.17V71.88c1.57.27,3.13.57,4.67.92Zm-95.38-6q2.94-3,6.09-5.82l1-.87A105.92,105.92,0,0,1,51.94,59l1-.38c2.46-.9,5-1.72,7.5-2.44l1,.63,6.09,6.76q-3.07.72-6.09,1.62l-1,.3c-2.54.8-5,1.7-7.5,2.7l-1,.41A97.26,97.26,0,0,0,20.34,90l-1,1q-3.21,3.34-6.09,7Zm0,15.15q2.88-3.72,6.09-7.16l1-1a96.33,96.33,0,0,1,31.6-21.76l1-.41c2.45-1,5-1.92,7.5-2.72l1-.31C63.7,65.58,66,65,68.3,64.46L74.14,71a86.75,86.75,0,0,0-12.7,3.19l-1,.34c-2.55.89-5.06,1.88-7.5,3l-1,.47a89,89,0,0,0-31.6,24.86l-1,1.27a88.75,88.75,0,0,0-6.09,9Zm0,15.34a88.65,88.65,0,0,1,6.09-9.31l1-1.3A87.94,87.94,0,0,1,51.94,79l1-.47c2.44-1.12,5-2.13,7.5-3l1-.35Q65.15,73.94,69,73V90.81a70.08,70.08,0,0,0-49.64,66.93c0,.07,0,.14,0,.21v.19a69.44,69.44,0,0,0,.95,11.06l0,.53a70,70,0,0,0,31.6,47.38l1,.65a69.56,69.56,0,0,0,7.5,4l1,.46A72.22,72.22,0,0,0,69,225V243q-3.84-.92-7.54-2.16l-1-.35c-2.55-.9-5.06-1.91-7.5-3l-1-.47a87.83,87.83,0,0,1-31.6-25.37l-1-1.3a88.52,88.52,0,0,1-6.09-9.3ZM61.44,259.19l-1,.63c-2.54-.72-5-1.54-7.5-2.44l-1-.38a106.1,106.1,0,0,1-31.6-18.8l-1-.88q-3.15-2.79-6.09-5.82V218q2.88,3.65,6.09,7l1,1a97.26,97.26,0,0,0,31.6,21.4l1,.41c2.45,1,5,1.9,7.5,2.7l1,.3c2,.6,4,1.15,6.09,1.62Zm6.86-7.62c-2.32-.52-4.6-1.12-6.86-1.81l-1-.3c-2.54-.81-5-1.72-7.5-2.73l-1-.41a96.3,96.3,0,0,1-31.6-21.75l-1-1.06q-3.21-3.42-6.09-7.16V203a88.75,88.75,0,0,0,6.09,9l1,1.27a89,89,0,0,0,31.6,24.87l1,.46c2.44,1.11,5,2.11,7.5,3l1,.34a88.06,88.06,0,0,0,12.7,3.2Zm21,2.32a95.58,95.58,0,0,1-19.86-2.07l5.88-6.54s.32-1,.31-1V226.61a69.38,69.38,0,0,0,27.34,0v17.71s.3,1,.31,1l5.88,6.54A95.58,95.58,0,0,1,89.29,253.89Zm76-22.39c-2,2-4,4-6.09,5.82l-1,.88a105.89,105.89,0,0,1-31.6,18.8l-1,.38c-2.46.9-5,1.72-7.5,2.44l-1-.63-6.09-6.76c2.06-.47,4.08-1,6.09-1.62l1-.3q3.83-1.2,7.5-2.7l1-.41a97.26,97.26,0,0,0,31.6-21.4l1-1q3.21-3.34,6.09-7Zm0-15.15q-2.88,3.74-6.09,7.16l-1,1.06a96.2,96.2,0,0,1-31.6,21.75l-1,.41q-3.67,1.52-7.5,2.73l-1,.31c-2.26.68-4.54,1.28-6.86,1.8l-5.84-6.48a88.06,88.06,0,0,0,12.7-3.2l1-.34c2.55-.88,5.06-1.88,7.5-3l1-.46a89,89,0,0,0,31.6-24.87l1-1.27a89.75,89.75,0,0,0,6.09-9Zm0-15.33a88.52,88.52,0,0,1-6.09,9.3l-1,1.3A87.83,87.83,0,0,1,126.64,237l-1,.47c-2.44,1.12-5,2.13-7.5,3l-1,.35c-2.46.83-5,1.55-7.51,2.16V224.94a69.47,69.47,0,0,0,7.51-2.77l1-.46a69.56,69.56,0,0,0,7.5-4l1-.65a70,70,0,0,0,31.6-47.38l0-.51a70,70,0,0,0,.95-11.1V158c0-.07,0-.14,0-.22a70.07,70.07,0,0,0-49.61-66.92V73c2.54.61,5.05,1.32,7.51,2.15l1,.35c2.55.9,5.06,1.91,7.5,3l1,.47a87.94,87.94,0,0,1,31.6,25.37l1,1.3a88.52,88.52,0,0,1,6.09,9.3Zm0-88a88.75,88.75,0,0,0-6.09-9l-1-1.27a89,89,0,0,0-31.6-24.86l-1-.47c-2.44-1.11-5-2.1-7.5-3l-1-.34A86.75,86.75,0,0,0,104.44,71l5.84-6.49c2.32.52,4.6,1.12,6.86,1.81l1,.3q3.83,1.22,7.5,2.73l1,.41a96.2,96.2,0,0,1,31.6,21.75l1,1.06c2.14,2.28,4.17,4.68,6.09,7.16Zm0-15q-2.88-3.64-6.09-7l-1-1a97.26,97.26,0,0,0-31.6-21.4l-1-.41q-3.67-1.5-7.5-2.7l-1-.3c-2-.6-4-1.14-6.09-1.62l6.09-6.76,1-.63c2.54.72,5,1.54,7.5,2.44l1,.38a106.1,106.1,0,0,1,31.6,18.8l1,.88c2.1,1.86,4.14,3.8,6.09,5.82Zm7.08,159-6.08,6.09v-31.2q3.18-3.33,6.08-6.92Zm0-33.62c-1.92,2.44-4,4.79-6.08,7.06V216.69a99.28,99.28,0,0,0,6.08-9Zm0-17.64a95.4,95.4,0,0,1-6.08,9.27V201.28A88.72,88.72,0,0,0,172.41,188Zm0-20.81a87,87,0,0,1-6.08,14.26V116.82a87,87,0,0,1,6.08,14.26Zm0-56.95a88.83,88.83,0,0,0-6.08-13.25V101a96.63,96.63,0,0,1,6.08,9.27Zm0-19.69a98,98,0,0,0-6.08-9V85.58c2.12,2.26,4.16,4.61,6.08,7Zm0-17.27q-2.9-3.58-6.08-6.92V52.92L172.41,59Zm1,43.33a87.38,87.38,0,0,1,0,47.29Zm0,50.74a88.26,88.26,0,0,0,0-54.18V112.05a95.71,95.71,0,0,1,0,91.93Zm0,20.92a96.7,96.7,0,0,0,0-96V93.93a105.56,105.56,0,0,1,0,128.17Z"/><path class="cls-5" d="M120.92,166.38c-2.32,3.91-10,15.69-14.58,18.7a23.33,23.33,0,0,1-11.64,3.51,8.9,8.9,0,0,1-5.85-1.75c-1.92-1.59-3.18-5.2-3.07-8.8.07-2.69.93-4.77,2.43-5.85a.91.91,0,0,1,.33-.15c1.47-.2,2.73-.43,3.31-.55a.76.76,0,0,1,.91.6c.69,3.33,1.81,5.12,4.11,6.44,4.29-3.31,7.16-7,8.32-10.77l.24-.75c1.17-3.54,3.13-9.46-2.9-15.74-8-8.39-15.35-11.25-21.68-8.42-6.93,3.09-10.13,6.89-10.72,7.63a.76.76,0,0,1-1.07.12A7.56,7.56,0,0,1,66.2,147a.77.77,0,0,1,.21-.78c.57-.52,14.08-12.66,29.73-12.66a27.31,27.31,0,0,1,16.14,5.18,1.54,1.54,0,0,0,1.21-.56c.57-.62,1.5-2.23,1.2-6.11-.43-5.65-2.26-9.31-17-18.18C91.85,119.6,84.53,126,79.16,126a5.63,5.63,0,0,1-3.89-1.46,9.14,9.14,0,0,1-3-6.92c0-4.06,2.28-8.63,6.17-12.21a14.84,14.84,0,0,0,1.09-1.11,15,15,0,0,0-1.94.71c-4.67,2-13.92,11.61-14.92,22.93-1,11.61,3.11,18.86,3.14,18.93l.31.61a.77.77,0,0,1-.23,1c-2.82,2.11-16.58,13.81-11.75,37C58.8,208,89,215,99.4,215A12.15,12.15,0,0,0,101,215a17.75,17.75,0,0,0,2.37-.38c-.94-.46-2.78-1.08-4.44-1.65l-3.48-1.21c-8.17-3-23-10.19-30.22-25-6.4-13,.53-28.34,2.83-32.74a3,3,0,0,1,.18-.36.91.91,0,0,1,.62-.44c.24,0,.33.14.49.32l.24.25,3.89,4.16c.17.17.45.49.4.72a18.71,18.71,0,0,0,.71,8.07,3.32,3.32,0,0,0,.22.53.77.77,0,0,1,.09.36c0,2.26.08,13.92,3.06,20.79,3.14,7.23,5.92,12,15.71,12,11.5,0,20-6.07,26.74-19.12,4.93-9.52,5.37-22.39,5-29.58C124.64,156.2,123.28,162.41,120.92,166.38Zm-45.37-9.49c3.16-3.55,11.1-8,16.79-5.43,6.9,3.18,10.6,12,5.43,16.32-3.51,2.9-11.09,4.17-14,3.12C80,169.53,73.19,167.27,75.55,156.89Z"/><path class="cls-5" d="M7.72,239.49v2l-.5-.44-.16.19,3,2.59.17-.18L9.45,243v-2.41h1.23v1.12l-.66.57.17.18,1.43-1.25-.17-.18-.52.46v-2l.52.46.17-.18-1.5-1.32-.16.19.72.63v1.11H9.45V238l.69-.61-.16-.18-3,2.6.17.19Zm1.48,3.33L8,241.75v-1.12H9.2Zm0-2.44H8v-1.11L9.2,238.2Z"/></g></g><rect class="cls-5" x="-5.67" y="-5.67" width="189.92" height="45.68"/><polygon class="cls-6" points="184.25 -5.67 121.97 -5.67 143.03 20.5 184.25 20.5 184.25 -5.67"/><polygon class="cls-6" points="-5.67 -5.67 56.62 -5.67 35.55 20.5 -5.67 20.5 -5.67 -5.67"/><polygon class="cls-3" points="122.48 -5.67 121.96 -5.67 121.5 -5.29 142.79 21 184.25 21 184.25 20 143.27 20 122.48 -5.67"/><polygon class="cls-3" points="56.1 -5.67 35.31 20 -5.67 20 -5.67 21 35.79 21 57.08 -5.29 56.62 -5.67 56.1 -5.67"/><g class="cls-7"><g class="cls-4"><path class="cls-5" d="M173.41-204V-237.7l-1-1-6.08-6.08v-53h-1v52l-6.09-6.09V-297.8h-1v46.27l1,1.06,6.09,6.08v31.18q-2.94-3-6.09-5.73l-1-.85a106.9,106.9,0,0,0-31.6-18.56V-297.8h-1v59.08q-3.69-1.35-7.5-2.41v-59h-1v58.73s-.45.92-.43.92l-6.79,7.54a96.73,96.73,0,0,0-20.63-2.22,96.73,96.73,0,0,0-20.63,2.22l-6.78-7.54s-.43-.92-.44-.91v-58.74h-1v59c-2.54.71-5,1.52-7.5,2.41V-297.8h-1v59.45a107,107,0,0,0-31.6,18.56l-1,.85q-3.15,2.74-6.09,5.73v-31.18l6.09-6.08,1-1.05V-297.8h-1v45.91l-6.09,6.09v-52h-1v53l-6.08,6.08-1,.91V-204A106.26,106.26,0,0,0-17.51-138.3,106.29,106.29,0,0,0,5.17-72.57v33.66l1,1,6.08,6.09v53h1v-52l6.09,6.09V21.22h1v-46.3l-1-1L13.25-32.2V-63.38q2.94,3,6.09,5.72l1,.85a107.06,107.06,0,0,0,31.6,18.57V21.22h1V-37.87c2.46.89,5,1.7,7.5,2.41V23h1v-58.2l.44-.92,6.78-7.53a96.73,96.73,0,0,0,20.63,2.22,96.73,96.73,0,0,0,20.63-2.22l6.79,7.53.43.92V23h1V-35.46c2.54-.71,5-1.52,7.5-2.41V21.22h1V-38.24a106.72,106.72,0,0,0,31.6-18.57l1-.84q3.15-2.74,6.09-5.73V-32.2l-6.09,6.08-1,1.08V21.22h1V-24.7l6.09-6.09v52h1v-53l6.08-6.08,1-1V-72.57a106.27,106.27,0,0,0,22.68-65.73A106.26,106.26,0,0,0,173.41-204ZM5.17-114.66A87,87,0,0,1,1.92-138.3a87,87,0,0,1,3.25-23.63Zm0-50.72A87.91,87.91,0,0,0,.92-138.3a87.93,87.93,0,0,0,4.25,27.09v18.88a95.32,95.32,0,0,1-11.76-46,95.31,95.31,0,0,1,11.76-46Zm0-20.92a96.3,96.3,0,0,0-12.76,48,96.31,96.31,0,0,0,12.76,48v16.08A105.26,105.26,0,0,1-16.51-138.3,105.26,105.26,0,0,1,5.17-202.38ZM12.25-33.2,6.17-39.29v-32q2.89,3.58,6.08,6.92Zm0-32.66c-2.12-2.26-4.16-4.61-6.08-7V-88.59a98,98,0,0,0,6.08,9Zm0-15.42a98.57,98.57,0,0,1-6.08-9.27v-17.73A88.83,88.83,0,0,0,12.25-95Zm0-15.82a87.44,87.44,0,0,1-6.08-14.27v-53.85a87.44,87.44,0,0,1,6.08-14.27Zm0-84.46a88.83,88.83,0,0,0-6.08,13.25V-186a98.57,98.57,0,0,1,6.08-9.27Zm0-15.41a98,98,0,0,0-6.08,9v-15.68c1.92-2.44,4-4.79,6.08-7Zm0-15.22q-3.18,3.33-6.08,6.92v-32l6.08-6.09Zm77-22a96.26,96.26,0,0,1,19.86,2.07l-5.88,6.54s-.32,1-.31,1v17.43a70,70,0,0,0-13.67-1.35,69.19,69.19,0,0,0-13.67,1.36V-224.6s-.3-1-.3-1l-5.89-6.54A96.26,96.26,0,0,1,89.29-234.17Zm0,164.55a69,69,0,0,1-68.95-68.86c0-.16,0-.33,0-.49q0-1.11.06-2.22a69,69,0,0,1,31.53-55l1-.64a69.36,69.36,0,0,1,7.5-4.05l1-.45A70.35,70.35,0,0,1,69-204.19l1-.28c1.52-.45,3.07-.85,4.64-1.19l1-.22a69.19,69.19,0,0,1,13.67-1.36A69.19,69.19,0,0,1,103-205.88l1,.22c1.58.35,3.13.75,4.67,1.19l1,.29a67.74,67.74,0,0,1,7.51,2.83l1,.45a69.36,69.36,0,0,1,7.5,4.05l1,.64a69,69,0,0,1,31.54,55.09c0,.66,0,1.32,0,2,0,.24,0,.47,0,.7A69,69,0,0,1,89.29-69.62Zm19.34-1.47v18c-1.54.35-3.1.65-4.67.92V-69.91C105.54-70.24,107.09-70.64,108.63-71.09Zm-34,1.18v17.75c-1.56-.27-3.11-.57-4.64-.92v-18C71.51-70.64,73.05-70.24,74.62-69.91ZM70-205.78v-17.73c1.53-.35,3.08-.66,4.64-.92v17.48C73.05-206.62,71.51-206.22,70-205.78Zm38.65,0c-1.54-.44-3.09-.84-4.67-1.17v-17.48c1.57.27,3.13.57,4.67.92Zm-95.38-6q2.94-3,6.09-5.82l1-.88a106.1,106.1,0,0,1,31.6-18.8l1-.38c2.46-.9,5-1.72,7.5-2.44l1,.63,6.09,6.76q-3.07.72-6.09,1.62l-1,.3c-2.54.8-5,1.7-7.5,2.7l-1,.41a97.26,97.26,0,0,0-31.6,21.4l-1,1q-3.21,3.34-6.09,7Zm0,15.15c1.92-2.48,3.95-4.88,6.09-7.16l1-1.06a96.3,96.3,0,0,1,31.6-21.75l1-.41c2.45-1,5-1.92,7.5-2.73l1-.3c2.26-.69,4.54-1.29,6.86-1.81l5.84,6.48a88.06,88.06,0,0,0-12.7,3.2l-1,.34c-2.55.88-5.06,1.88-7.5,3l-1,.46a89.1,89.1,0,0,0-31.6,24.87l-1,1.27a88.75,88.75,0,0,0-6.09,9Zm0,15.33a88.52,88.52,0,0,1,6.09-9.3l1-1.3a87.83,87.83,0,0,1,31.6-25.37l1-.47c2.44-1.12,5-2.13,7.5-3l1-.35q3.7-1.24,7.54-2.16v17.78a70.08,70.08,0,0,0-49.64,66.93c0,.07,0,.14,0,.21v.19a69.44,69.44,0,0,0,.95,11.06l0,.53A70.07,70.07,0,0,0,51.94-79.2l1,.64a69.63,69.63,0,0,0,7.5,4l1,.46A72.22,72.22,0,0,0,69-71.36v18q-3.84-.91-7.54-2.16l-1-.35c-2.55-.9-5.06-1.91-7.5-3l-1-.47a87.83,87.83,0,0,1-31.6-25.37l-1-1.3a88.52,88.52,0,0,1-6.09-9.3ZM61.44-37.12l-1,.63q-3.81-1.09-7.5-2.44l-1-.38a105.92,105.92,0,0,1-31.6-18.81l-1-.87q-3.15-2.79-6.09-5.82V-78.33q2.88,3.64,6.09,7l1,1a97.26,97.26,0,0,0,31.6,21.4l1,.41c2.45,1,5,1.9,7.5,2.7l1,.3q3,.9,6.09,1.62Zm6.86-7.62c-2.32-.52-4.6-1.12-6.86-1.81l-1-.3c-2.54-.81-5-1.72-7.5-2.73l-1-.41a96.3,96.3,0,0,1-31.6-21.75l-1-1.06c-2.14-2.28-4.17-4.68-6.09-7.16V-93.31a88.75,88.75,0,0,0,6.09,9l1,1.27a89.1,89.1,0,0,0,31.6,24.87l1,.46c2.44,1.11,5,2.1,7.5,3l1,.34a88.06,88.06,0,0,0,12.7,3.2Zm21,2.32a96.26,96.26,0,0,1-19.86-2.07L75.31-51s.32-1,.31-1V-69.7a70,70,0,0,0,13.67,1.35A70,70,0,0,0,103-69.7V-52s.3,1,.31,1l5.88,6.54A96.26,96.26,0,0,1,89.29-42.42Zm76-22.39c-2,2-4,4-6.09,5.82l-1,.88a106.1,106.1,0,0,1-31.6,18.8l-1,.38c-2.46.9-5,1.72-7.5,2.44l-1-.63-6.09-6.76c2.06-.48,4.08-1,6.09-1.62l1-.3q3.83-1.2,7.5-2.7l1-.41a97.26,97.26,0,0,0,31.6-21.4l1-1q3.21-3.34,6.09-7Zm0-15.15q-2.88,3.73-6.09,7.16l-1,1.06A96.2,96.2,0,0,1,126.64-50l-1,.41q-3.67,1.52-7.5,2.73l-1,.3c-2.26.69-4.54,1.29-6.86,1.81l-5.84-6.48a88.06,88.06,0,0,0,12.7-3.2l1-.34c2.55-.88,5.06-1.88,7.5-3l1-.46a89,89,0,0,0,31.6-24.87l1-1.27a89.75,89.75,0,0,0,6.09-9Zm0-15.33a88.52,88.52,0,0,1-6.09,9.3l-1,1.3a87.83,87.83,0,0,1-31.6,25.37l-1,.47c-2.44,1.12-5,2.13-7.5,3l-1,.35c-2.46.83-5,1.54-7.51,2.15V-71.37a69.47,69.47,0,0,0,7.51-2.77l1-.46a69.63,69.63,0,0,0,7.5-4l1-.64a70.07,70.07,0,0,0,31.6-47.38l0-.51a70,70,0,0,0,.95-11.1v-.16c0-.07,0-.14,0-.22a70.06,70.06,0,0,0-49.61-66.92v-17.78c2.54.61,5.05,1.32,7.51,2.15l1,.35c2.55.9,5.06,1.91,7.5,3l1,.47a87.83,87.83,0,0,1,31.6,25.37l1,1.3a88.52,88.52,0,0,1,6.09,9.3Zm0-88a89.75,89.75,0,0,0-6.09-9l-1-1.27a89,89,0,0,0-31.6-24.87l-1-.46c-2.44-1.11-5-2.11-7.5-3l-1-.34a88.06,88.06,0,0,0-12.7-3.2l5.84-6.48c2.32.52,4.6,1.12,6.86,1.81l1,.3q3.83,1.22,7.5,2.73l1,.41a96.2,96.2,0,0,1,31.6,21.75l1,1.06q3.21,3.42,6.09,7.16Zm0-15q-2.88-3.65-6.09-7l-1-1a97.26,97.26,0,0,0-31.6-21.4l-1-.41q-3.67-1.5-7.5-2.7l-1-.3c-2-.6-4-1.14-6.09-1.62l6.09-6.76,1-.63c2.54.72,5,1.54,7.5,2.44l1,.38a105.89,105.89,0,0,1,31.6,18.8l1,.88c2.1,1.86,4.14,3.8,6.09,5.82Zm7.08,159-6.08,6.09V-64.4q3.18-3.33,6.08-6.92Zm0-33.62c-1.92,2.44-4,4.79-6.08,7V-79.62a98,98,0,0,0,6.08-9Zm0-17.64a95.4,95.4,0,0,1-6.08,9.27V-95a88.83,88.83,0,0,0,6.08-13.25Zm0-20.81a87,87,0,0,1-6.08,14.26v-82.39a87,87,0,0,1,6.08,14.26Zm0-56.95a88.83,88.83,0,0,0-6.08-13.25v-13.75a95.4,95.4,0,0,1,6.08,9.27Zm0-19.69a98,98,0,0,0-6.08-9v-13.76c2.12,2.26,4.16,4.61,6.08,7Zm0-17.27q-2.9-3.58-6.08-6.92v-31.2l6.08,6.09Zm1,43.33a87,87,0,0,1,3.26,23.64,87,87,0,0,1-3.26,23.65Zm0,50.73a87.93,87.93,0,0,0,4.26-27.09,88,88,0,0,0-4.26-27.09v-18.87a95.31,95.31,0,0,1,11.76,46,95.32,95.32,0,0,1-11.76,46Zm0,20.93a96.27,96.27,0,0,0,12.76-48,96.24,96.24,0,0,0-12.76-48v-16.07a105.26,105.26,0,0,1,21.68,64.08,105.26,105.26,0,0,1-21.68,64.09Z"/></g></g><g class="cls-7"><path class="cls-1" d="M61.44-241.4v-58.74h-1v59c-2.54.71-5,1.52-7.5,2.41V-297.8h-1v59.45a107,107,0,0,0-31.6,18.56l-1,.85q-3.15,2.74-6.09,5.73v-31.18l6.09-6.08,1-1.05V-297.8h-1v45.91l-6.09,6.09v-52h-1v53l-6.08,6.08-1,.91V-204A106.26,106.26,0,0,0-17.51-138.3,106.29,106.29,0,0,0,5.17-72.57v33.66l1,1,6.08,6.09v53h1v-52l6.09,6.09V21.22h1v-46.3l-1-1L13.25-32.2V-63.38q2.94,3,6.09,5.72l1,.85a107.06,107.06,0,0,0,31.6,18.57V21.22h1V-37.87c2.46.89,5,1.7,7.5,2.41V23h1v-58.2l.44-.92,6.78-7.53a96.73,96.73,0,0,0,20.63,2.22,96.73,96.73,0,0,0,20.63-2.22l6.79,7.53.43.92V23h1V-35.46c2.54-.71,5-1.52,7.5-2.41V21.22h1V-38.24a106.72,106.72,0,0,0,31.6-18.57l1-.84q3.15-2.74,6.09-5.73V-32.2l-6.09,6.08-1,1.08V21.22h1V-24.7l6.09-6.09v52h1v-53l6.08-6.08,1-1V-72.57a106.27,106.27,0,0,0,22.68-65.73A106.26,106.26,0,0,0,173.41-204V-237.7l-1-1-6.08-6.08v-53h-1v52l-6.09-6.09V-297.8h-1v46.27l1,1.06,6.09,6.08v31.18q-2.94-3-6.09-5.73l-1-.85a106.9,106.9,0,0,0-31.6-18.56V-297.8h-1v59.08q-3.69-1.35-7.5-2.41v-59h-1v58.73s-.45.92-.43.92l-6.79,7.54a96.73,96.73,0,0,0-20.63-2.22,96.73,96.73,0,0,0-20.63,2.22l-6.78-7.54S61.45-241.41,61.44-241.4ZM6.17-237.3l6.08-6.09v31.2q-3.18,3.33-6.08,6.92Zm6.08,26.57V-197a98,98,0,0,0-6.08,9v-15.68C8.09-206.12,10.13-208.47,12.25-210.73Zm160.16,99.37a87,87,0,0,1-6.08,14.26v-82.39a87,87,0,0,1,6.08,14.26Zm1-50.58a87,87,0,0,1,3.26,23.64,87,87,0,0,1-3.26,23.65Zm-8.08,66.65a88.52,88.52,0,0,1-6.09,9.3l-1,1.3a87.83,87.83,0,0,1-31.6,25.37l-1,.47c-2.44,1.12-5,2.13-7.5,3l-1,.35c-2.46.83-5,1.54-7.51,2.15V-71.37a69.47,69.47,0,0,0,7.51-2.77l1-.46a69.63,69.63,0,0,0,7.5-4l1-.64a70.07,70.07,0,0,0,31.6-47.38l0-.51a70,70,0,0,0,.95-11.1v-.16c0-.07,0-.14,0-.22a70.06,70.06,0,0,0-49.61-66.92v-17.78c2.54.61,5.05,1.32,7.51,2.15l1,.35c2.55.9,5.06,1.91,7.5,3l1,.47a87.83,87.83,0,0,1,31.6,25.37l1,1.3a88.52,88.52,0,0,1,6.09,9.3ZM20.35-139q0-1.11.06-2.22a69,69,0,0,1,31.53-55l1-.64a69.36,69.36,0,0,1,7.5-4.05l1-.45A70.35,70.35,0,0,1,69-204.19l1-.28c1.52-.45,3.07-.85,4.64-1.19l1-.22a69.19,69.19,0,0,1,13.67-1.36A69.19,69.19,0,0,1,103-205.88l1,.22c1.58.35,3.13.75,4.67,1.19l1,.29a67.74,67.74,0,0,1,7.51,2.83l1,.45a69.36,69.36,0,0,1,7.5,4.05l1,.64a69,69,0,0,1,31.54,55.09c0,.66,0,1.32,0,2,0,.24,0,.47,0,.7A69,69,0,0,1,89.29-69.62a69,69,0,0,1-68.95-68.86C20.35-138.64,20.35-138.81,20.35-139Zm-1,.4c0,.07,0,.14,0,.21v.19a69.44,69.44,0,0,0,.95,11.06l0,.53A70.1,70.1,0,0,0,51.94-79.2l1,.64a69.63,69.63,0,0,0,7.5,4l1,.46A72.22,72.22,0,0,0,69-71.36v18q-3.84-.91-7.54-2.16l-1-.35c-2.55-.9-5.06-1.91-7.5-3l-1-.47a87.83,87.83,0,0,1-31.6-25.37l-1-1.3a88.52,88.52,0,0,1-6.09-9.3v-86a88.52,88.52,0,0,1,6.09-9.3l1-1.3a87.83,87.83,0,0,1,31.6-25.37l1-.47c2.44-1.12,5-2.13,7.5-3l1-.35q3.7-1.24,7.54-2.16v17.78A70.08,70.08,0,0,0,19.34-138.57ZM6.17-165.22a87.44,87.44,0,0,1,6.08-14.27V-97.1a87.44,87.44,0,0,1-6.08-14.27Zm-1,50.56A87,87,0,0,1,1.92-138.3a87,87,0,0,1,3.25-23.63Zm1-53.65V-186a98.57,98.57,0,0,1,6.08-9.27v13.75A88.83,88.83,0,0,0,6.17-168.31Zm-1,2.93A87.91,87.91,0,0,0,.92-138.3a87.93,87.93,0,0,0,4.25,27.09v18.88a95.32,95.32,0,0,1-11.76-46,95.31,95.31,0,0,1,11.76-46Zm1,57.1A88.83,88.83,0,0,0,12.25-95v13.75a98.57,98.57,0,0,1-6.08-9.27Zm7.08,15a88.75,88.75,0,0,0,6.09,9l1,1.27a89.1,89.1,0,0,0,31.6,24.87l1,.46c2.44,1.11,5,2.1,7.5,3l1,.34a88.06,88.06,0,0,0,12.7,3.2L68.3-44.74c-2.32-.52-4.6-1.12-6.86-1.81l-1-.3c-2.54-.81-5-1.72-7.5-2.73l-1-.41a96.3,96.3,0,0,1-31.6-21.75l-1-1.06c-2.14-2.28-4.17-4.68-6.09-7.16ZM70-53.08v-18c1.53.44,3.07.84,4.64,1.17v17.75C73.06-52.43,71.51-52.73,70-53.08Zm38.65-18v18c-1.54.35-3.1.65-4.67.92V-69.91C105.54-70.24,107.09-70.64,108.63-71.09Zm8.51,16.67,1-.34c2.55-.88,5.06-1.88,7.5-3l1-.46a89,89,0,0,0,31.6-24.87l1-1.27a89.75,89.75,0,0,0,6.09-9V-80q-2.88,3.73-6.09,7.16l-1,1.06A96.2,96.2,0,0,1,126.64-50l-1,.41q-3.67,1.52-7.5,2.73l-1,.3c-2.26.69-4.54,1.29-6.86,1.81l-5.84-6.48A88.06,88.06,0,0,0,117.14-54.42ZM166.33-95a88.83,88.83,0,0,0,6.08-13.25v17.73a95.4,95.4,0,0,1-6.08,9.27Zm7.08-16.18a87.93,87.93,0,0,0,4.26-27.09,88,88,0,0,0-4.26-27.09v-18.87a95.31,95.31,0,0,1,11.76,46,95.32,95.32,0,0,1-11.76,46Zm-1-57.1a88.83,88.83,0,0,0-6.08-13.25v-13.75a95.4,95.4,0,0,1,6.08,9.27Zm-7.08-15a89.75,89.75,0,0,0-6.09-9l-1-1.27a89,89,0,0,0-31.6-24.87l-1-.46c-2.44-1.11-5-2.11-7.5-3l-1-.34a88.06,88.06,0,0,0-12.7-3.2l5.84-6.48c2.32.52,4.6,1.12,6.86,1.81l1,.3q3.83,1.22,7.5,2.73l1,.41a96.2,96.2,0,0,1,31.6,21.75l1,1.06q3.21,3.42,6.09,7.16Zm-56.7-40.22v17.73c-1.54-.44-3.09-.84-4.67-1.17v-17.48C105.53-224.16,107.09-223.86,108.63-223.51ZM70-205.78v-17.73c1.53-.35,3.08-.66,4.64-.92v17.48C73.05-206.62,71.51-206.22,70-205.78Zm-8.54-16.39-1,.34c-2.55.88-5.06,1.88-7.5,3l-1,.46a89.1,89.1,0,0,0-31.6,24.87l-1,1.27a88.75,88.75,0,0,0-6.09,9v-13.35c1.92-2.48,3.95-4.88,6.09-7.16l1-1.06a96.3,96.3,0,0,1,31.6-21.75l1-.41c2.45-1,5-1.92,7.5-2.73l1-.3c2.26-.69,4.54-1.29,6.86-1.81l5.84,6.48A88.06,88.06,0,0,0,61.44-222.17ZM-16.51-138.3A105.26,105.26,0,0,1,5.17-202.38v16.08a96.3,96.3,0,0,0-12.76,48,96.31,96.31,0,0,0,12.76,48v16.08A105.26,105.26,0,0,1-16.51-138.3ZM6.17-72.91V-88.59a98,98,0,0,0,6.08,9v13.76C10.13-68.12,8.09-70.47,6.17-72.91ZM12.25-33.2,6.17-39.29v-32q2.89,3.58,6.08,6.92Zm49.19-3.92-1,.63q-3.81-1.09-7.5-2.44l-1-.38a105.92,105.92,0,0,1-31.6-18.81l-1-.87q-3.15-2.79-6.09-5.82V-78.33q2.88,3.64,6.09,7l1,1a97.26,97.26,0,0,0,31.6,21.4l1,.41c2.45,1,5,1.9,7.5,2.7l1,.3q3,.9,6.09,1.62Zm27.85-5.3a96.26,96.26,0,0,1-19.86-2.07L75.31-51s.32-1,.31-1V-69.7a70,70,0,0,0,13.67,1.35A70,70,0,0,0,103-69.7V-52s.3,1,.31,1l5.88,6.54A96.26,96.26,0,0,1,89.29-42.42Zm70-16.57-1,.88a106.1,106.1,0,0,1-31.6,18.8l-1,.38c-2.46.9-5,1.72-7.5,2.44l-1-.63-6.09-6.76c2.06-.48,4.08-1,6.09-1.62l1-.3q3.83-1.2,7.5-2.7l1-.41a97.26,97.26,0,0,0,31.6-21.4l1-1q3.21-3.34,6.09-7v13.52C163.38-62.79,161.34-60.85,159.24-59Zm13.17,19.7-6.08,6.09V-64.4q3.18-3.33,6.08-6.92Zm-6.08-26.57V-79.62a96.06,96.06,0,0,0,6.08-9v15.68C170.49-70.47,168.45-68.12,166.33-65.86Zm28.76-72.44a105.26,105.26,0,0,1-21.68,64.09V-90.28a96.27,96.27,0,0,0,12.76-48,96.24,96.24,0,0,0-12.76-48v-16.07A105.26,105.26,0,0,1,195.09-138.3Zm-22.68-65.38V-188a96.06,96.06,0,0,0-6.08-9v-13.76C168.45-208.47,170.49-206.12,172.41-203.68Zm-6.08-39.71,6.08,6.09v32q-2.9-3.58-6.08-6.92Zm-49.19,3.92,1-.63c2.54.72,5,1.54,7.5,2.44l1,.38a105.89,105.89,0,0,1,31.6,18.8l1,.88c2.1,1.86,4.14,3.8,6.09,5.82v13.52q-2.88-3.65-6.09-7l-1-1a97.26,97.26,0,0,0-31.6-21.4l-1-.41q-3.67-1.5-7.5-2.7l-1-.3c-2-.6-4-1.14-6.09-1.62Zm-27.85,5.3a96.26,96.26,0,0,1,19.86,2.07l-5.88,6.54s-.32,1-.31,1v17.44a69.19,69.19,0,0,0-13.67-1.36,69.19,69.19,0,0,0-13.67,1.36V-224.6s-.3-1-.31-1l-5.88-6.54A96.26,96.26,0,0,1,89.29-234.17Zm-27.85-5.3,6.09,6.76q-3.07.72-6.09,1.62l-1,.3c-2.54.8-5,1.7-7.5,2.7l-1,.41a97.26,97.26,0,0,0-31.6,21.4l-1,1q-3.21,3.34-6.09,7v-13.52q2.94-3,6.09-5.82l1-.88a106.1,106.1,0,0,1,31.6-18.8l1-.38c2.46-.9,5-1.72,7.5-2.44Z"/></g><path class="cls-8" d="M65.21,32V28.4h3.7V29H66.05v.81h1.67v.61H66.05v.9H69V32Z"/><path class="cls-8" d="M70.23,32v-3h.5l2.52,2v-2h.65v3h-.5l-2.51-2v2Z"/><path class="cls-8" d="M76.6,32l-1.79-3h.82l1.25,2.14,1.19-2.14h.74L77.1,32Z"/><path class="cls-8" d="M79.64,32v-3h.72v3Z"/><path class="cls-8" d="M81.67,32v-3h2.67a.84.84,0,0,1,.53.13.54.54,0,0,1,.17.44v.7a.54.54,0,0,1-.17.44.84.84,0,0,1-.53.13h-.4L85.35,32h-1L83.07,30.9h-.68V32ZM84,29.57H82.39v.82H84a.52.52,0,0,0,.25-.05.22.22,0,0,0,.07-.19v-.34c0-.1,0-.16-.07-.19A.52.52,0,0,0,84,29.57Z"/><path class="cls-8" d="M86.15,29.75a1,1,0,0,1,.08-.43.37.37,0,0,1,.23-.21,1.78,1.78,0,0,1,.46-.05h2.29a1.81,1.81,0,0,1,.47.05.37.37,0,0,1,.23.21,1,1,0,0,1,.07.43v1.57a1,1,0,0,1-.07.43.37.37,0,0,1-.23.21,1.49,1.49,0,0,1-.47.06H86.92a1.42,1.42,0,0,1-.46-.06.42.42,0,0,1-.24-.21,1.2,1.2,0,0,1-.07-.43Zm.73,1.7h2.38V29.6H86.88Z"/><path class="cls-8" d="M91.23,32v-3h.5l2.51,2v-2h.65v3H94.4l-2.51-2v2Z"/><path class="cls-8" d="M96.21,32v-3h.58l1.45,1.75,1.44-1.75h.59v3h-.68V30l-1.32,1.68h-.14L96.79,30v2Z"/><path class="cls-8" d="M101.58,32v-3h3.18v.52h-2.45v.65h1.43v.51h-1.43v.72h2.49V32Z"/><path class="cls-8" d="M105.84,32v-3h.49l2.52,2v-2h.65v3H109l-2.5-2v2Z"/><path class="cls-8" d="M112.59,29.59V32h-.73V29.59h-1.42v-.53H114v.53Z"/><path class="cls-3" d="M77.79,19.54H76.6V13.59H74.26V12.3h5.88v1.29H77.79Z"/><path class="cls-3" d="M81.59,12.3h1.19v7.24H81.59Z"/><path class="cls-3" d="M87.76,19.54H86.57V13.59H84.23V12.3h5.88v1.29H87.76Z"/><path class="cls-3" d="M91.56,12.3h1.19v5.88h3.82v1.36h-5Z"/><path class="cls-3" d="M98.31,12.3h5.21v1.24h-4v1.61h2.35v1.24H99.49v1.79h4.08v1.36H98.31Z"/><path class="cls-3" d="M74.12,21.2v-1h30.35v1Z"/></svg>