<svg id="Layer_1" data-name="Layer 1" xmlns="http://www.w3.org/2000/svg" xmlns:xlink="http://www.w3.org/1999/xlink" viewBox="0 0 178.58 249.45"><defs><style>.cls-1{fill:none;}.cls-2{clip-path:url(#clip-path);}.cls-3{fill:#fff;}.cls-4{opacity:0.02;}.cls-5{fill:#090400;}.cls-6{fill:#2baa54;}.cls-7{clip-path:url(#clip-path-2);}.cls-8{fill:#fbfbfb;}</style><clipPath id="clip-path"><rect class="cls-1" x="-5.67" y="-5.67" width="189.92" height="260.79"/></clipPath><clipPath id="clip-path-2"><rect class="cls-1" x="-5.67" y="-301.73" width="189.92" height="260.79"/></clipPath></defs><g class="cls-2"><rect class="cls-3" x="-5.67" y="-5.67" width="189.92" height="260.79"/><g class="cls-4"><path class="cls-5" d="M173.41,92.29V58.62l-1-1-6.08-6.09v-53h-1v52l-6.09-6.09V-1.49h-1V44.78l1,1.06,6.09,6.08V83.1q-2.94-3-6.09-5.73l-1-.84A106.72,106.72,0,0,0,126.64,58V-1.49h-1V57.59c-2.46-.89-5-1.7-7.5-2.41v-59h-1V54.91a9.65,9.65,0,0,0-.43.92l-6.79,7.53a97,97,0,0,0-41.26,0l-6.78-7.53s-.43-.93-.44-.92V-3.83h-1v59c-2.54.71-5,1.52-7.5,2.41V-1.49h-1V58a107.06,107.06,0,0,0-31.6,18.57l-1,.85q-3.15,2.73-6.09,5.72V51.92l6.09-6.08,1-1.05V-1.49h-1V44.42l-6.09,6.09v-52h-1v53L6.17,57.6l-1,.9V92.29a106.57,106.57,0,0,0,0,131.45V257.4l1,1,6.08,6.08v53h1v-52l6.09,6.09v45.92h1v-46.3l-1-1-6.09-6.08V232.93q2.94,3,6.09,5.73l1,.85a107,107,0,0,0,31.6,18.56v59.46h1V258.44c2.46.89,5,1.7,7.5,2.41v58.47h1v-58.2l.44-.91,6.78-7.54a97,97,0,0,0,41.26,0l6.79,7.54.43.92v58.19h1V260.85q3.81-1.07,7.5-2.41v59.09h1V258.07a106.9,106.9,0,0,0,31.6-18.56l1-.85q3.15-2.74,6.09-5.73v31.18l-6.09,6.08-1,1.08v46.26h1V271.61l6.09-6.09v52h1v-53l6.08-6.08,1-1V223.74a106.57,106.57,0,0,0,0-131.45ZM5.17,181.65a87.57,87.57,0,0,1,0-47.27Zm0-50.72a88.43,88.43,0,0,0,0,54.17V204a95.69,95.69,0,0,1,0-91.92Zm0-20.92a96.68,96.68,0,0,0,0,96V222.1a105.56,105.56,0,0,1,0-128.17Zm7.08,153.1L6.17,257V225q2.89,3.58,6.08,6.92Zm0-32.66c-2.12-2.26-4.16-4.61-6.08-7V207.72a98,98,0,0,0,6.08,9Zm0-15.42a98.57,98.57,0,0,1-6.08-9.27V188a88.83,88.83,0,0,0,6.08,13.25Zm0-15.82a86.7,86.7,0,0,1-6.08-14.27V131.09a87,87,0,0,1,6.08-14.26Zm0-84.46A89.29,89.29,0,0,0,6.17,128V110.27A98.57,98.57,0,0,1,12.25,101Zm0-15.4a96.54,96.54,0,0,0-6.08,9V92.63c1.92-2.44,4-4.79,6.08-7Zm0-15.23Q9.07,87.45,6.17,91V59l6.08-6.09Zm77-22a96.26,96.26,0,0,1,19.86,2.07l-5.88,6.54s-.32,1-.31,1V89.15a69.89,69.89,0,0,0-27.34,0V71.71s-.3-1-.3-1l-5.89-6.54A96.26,96.26,0,0,1,89.29,62.14Zm0,164.55a69,69,0,0,1-68.95-68.86c0-.16,0-.32,0-.49,0-.74,0-1.48.06-2.21a69,69,0,0,1,31.53-55l1-.65a67.58,67.58,0,0,1,7.5-4l1-.46A70.35,70.35,0,0,1,69,92.12l1-.28c1.52-.45,3.07-.84,4.64-1.19l1-.22a69.38,69.38,0,0,1,27.34,0l1,.22c1.58.35,3.13.75,4.67,1.2l1,.28A69.8,69.8,0,0,1,117.14,95l1,.45a69.36,69.36,0,0,1,7.5,4l1,.65a69,69,0,0,1,31.54,55.08c0,.66,0,1.32,0,2,0,.24,0,.47,0,.7A69,69,0,0,1,89.29,226.69Zm19.34-1.46v18c-1.54.35-3.1.66-4.67.92V226.4C105.54,226.07,107.09,225.67,108.63,225.23Zm-34,1.17v17.75c-1.56-.26-3.11-.57-4.64-.91v-18C71.51,225.67,73.05,226.07,74.62,226.4ZM70,90.53V72.8c1.53-.35,3.08-.65,4.64-.92V89.36C73.05,89.69,71.51,90.09,70,90.53Zm38.65,0c-1.54-.44-3.09-.84-4.67-1.17V71.88c1.57.27,3.13.57,4.67.92Zm-95.38-6q2.94-3,6.09-5.82l1-.87A105.92,105.92,0,0,1,51.94,59l1-.38c2.46-.9,5-1.72,7.5-2.44l1,.63,6.09,6.76q-3.07.72-6.09,1.62l-1,.3c-2.54.8-5,1.7-7.5,2.7l-1,.41A97.26,97.26,0,0,0,20.34,90l-1,1q-3.21,3.34-6.09,7Zm0,15.15q2.88-3.72,6.09-7.16l1-1a96.33,96.33,0,0,1,31.6-21.76l1-.41c2.45-1,5-1.92,7.5-2.72l1-.31C63.7,65.58,66,65,68.3,64.46L74.14,71a86.75,86.75,0,0,0-12.7,3.19l-1,.34c-2.55.89-5.06,1.88-7.5,3l-1,.47a89,89,0,0,0-31.6,24.86l-1,1.27a88.75,88.75,0,0,0-6.09,9Zm0,15.34a88.65,88.65,0,0,1,6.09-9.31l1-1.3A87.94,87.94,0,0,1,51.94,79l1-.47c2.44-1.12,5-2.13,7.5-3l1-.35Q65.15,73.94,69,73V90.81a70.08,70.08,0,0,0-49.64,66.93c0,.07,0,.14,0,.21v.19a69.44,69.44,0,0,0,.95,11.06l0,.53a70,70,0,0,0,31.6,47.38l1,.65a69.56,69.56,0,0,0,7.5,4l1,.46A72.22,72.22,0,0,0,69,225V243q-3.84-.92-7.54-2.16l-1-.35c-2.55-.9-5.06-1.91-7.5-3l-1-.47a87.83,87.83,0,0,1-31.6-25.37l-1-1.3a88.52,88.52,0,0,1-6.09-9.3ZM61.44,259.19l-1,.63c-2.54-.72-5-1.54-7.5-2.44l-1-.38a106.1,106.1,0,0,1-31.6-18.8l-1-.88q-3.15-2.79-6.09-5.82V218q2.88,3.65,6.09,7l1,1a97.26,97.26,0,0,0,31.6,21.4l1,.41c2.45,1,5,1.9,7.5,2.7l1,.3c2,.6,4,1.15,6.09,1.62Zm6.86-7.62c-2.32-.52-4.6-1.12-6.86-1.81l-1-.3c-2.54-.81-5-1.72-7.5-2.73l-1-.41a96.3,96.3,0,0,1-31.6-21.75l-1-1.06q-3.21-3.42-6.09-7.16V203a88.75,88.75,0,0,0,6.09,9l1,1.27a89,89,0,0,0,31.6,24.87l1,.46c2.44,1.11,5,2.11,7.5,3l1,.34a88.06,88.06,0,0,0,12.7,3.2Zm21,2.32a95.58,95.58,0,0,1-19.86-2.07l5.88-6.54s.32-1,.31-1V226.61a69.38,69.38,0,0,0,27.34,0v17.71s.3,1,.31,1l5.88,6.54A95.58,95.58,0,0,1,89.29,253.89Zm76-22.39c-2,2-4,4-6.09,5.82l-1,.88a105.89,105.89,0,0,1-31.6,18.8l-1,.38c-2.46.9-5,1.72-7.5,2.44l-1-.63-6.09-6.76c2.06-.47,4.08-1,6.09-1.62l1-.3q3.83-1.2,7.5-2.7l1-.41a97.26,97.26,0,0,0,31.6-21.4l1-1q3.21-3.34,6.09-7Zm0-15.15q-2.88,3.74-6.09,7.16l-1,1.06a96.2,96.2,0,0,1-31.6,21.75l-1,.41q-3.67,1.52-7.5,2.73l-1,.31c-2.26.68-4.54,1.28-6.86,1.8l-5.84-6.48a88.06,88.06,0,0,0,12.7-3.2l1-.34c2.55-.88,5.06-1.88,7.5-3l1-.46a89,89,0,0,0,31.6-24.87l1-1.27a89.75,89.75,0,0,0,6.09-9Zm0-15.33a88.52,88.52,0,0,1-6.09,9.3l-1,1.3A87.83,87.83,0,0,1,126.64,237l-1,.47c-2.44,1.12-5,2.13-7.5,3l-1,.35c-2.46.83-5,1.55-7.51,2.16V224.94a69.47,69.47,0,0,0,7.51-2.77l1-.46a69.56,69.56,0,0,0,7.5-4l1-.65a70,70,0,0,0,31.6-47.38l0-.51a70,70,0,0,0,.95-11.1V158c0-.07,0-.14,0-.22a70.07,70.07,0,0,0-49.61-66.92V73c2.54.61,5.05,1.32,7.51,2.15l1,.35c2.55.9,5.06,1.91,7.5,3l1,.47a87.94,87.94,0,0,1,31.6,25.37l1,1.3a88.52,88.52,0,0,1,6.09,9.3Zm0-88a88.75,88.75,0,0,0-6.09-9l-1-1.27a89,89,0,0,0-31.6-24.86l-1-.47c-2.44-1.11-5-2.1-7.5-3l-1-.34A86.75,86.75,0,0,0,104.44,71l5.84-6.49c2.32.52,4.6,1.12,6.86,1.81l1,.3q3.83,1.22,7.5,2.73l1,.41a96.2,96.2,0,0,1,31.6,21.75l1,1.06c2.14,2.28,4.17,4.68,6.09,7.16Zm0-15q-2.88-3.64-6.09-7l-1-1a97.26,97.26,0,0,0-31.6-21.4l-1-.41q-3.67-1.5-7.5-2.7l-1-.3c-2-.6-4-1.14-6.09-1.62l6.09-6.76,1-.63c2.54.72,5,1.54,7.5,2.44l1,.38a106.1,106.1,0,0,1,31.6,18.8l1,.88c2.1,1.86,4.14,3.8,6.09,5.82Zm7.08,159-6.08,6.09v-31.2q3.18-3.33,6.08-6.92Zm0-33.62c-1.92,2.44-4,4.79-6.08,7.06V216.69a99.28,99.28,0,0,0,6.08-9Zm0-17.64a95.4,95.4,0,0,1-6.08,9.27V201.28A88.72,88.72,0,0,0,172.41,188Zm0-20.81a87,87,0,0,1-6.08,14.26V116.82a87,87,0,0,1,6.08,14.26Zm0-56.95a88.83,88.83,0,0,0-6.08-13.25V101a96.63,96.63,0,0,1,6.08,9.27Zm0-19.69a98,98,0,0,0-6.08-9V85.58c2.12,2.26,4.16,4.61,6.08,7Zm0-17.27q-2.9-3.58-6.08-6.92V52.92L172.41,59Zm1,43.33a87.38,87.38,0,0,1,0,47.29Zm0,50.74a88.26,88.26,0,0,0,0-54.18V112.05a95.71,95.71,0,0,1,0,91.93Zm0,20.92a96.7,96.7,0,0,0,0-96V93.93a105.56,105.56,0,0,1,0,128.17Z"/><path class="cls-5" d="M120.92,166.38c-2.32,3.91-10,15.69-14.58,18.7a23.33,23.33,0,0,1-11.64,3.51,8.9,8.9,0,0,1-5.85-1.75c-1.92-1.59-3.18-5.2-3.07-8.8.07-2.69.93-4.77,2.43-5.85a.91.91,0,0,1,.33-.15c1.47-.2,2.73-.43,3.31-.55a.76.76,0,0,1,.91.6c.69,3.33,1.81,5.12,4.11,6.44,4.29-3.31,7.16-7,8.32-10.77l.24-.75c1.17-3.54,3.13-9.46-2.9-15.74-8-8.39-15.35-11.25-21.68-8.42-6.93,3.09-10.13,6.89-10.72,7.63a.76.76,0,0,1-1.07.12A7.56,7.56,0,0,1,66.2,147a.77.77,0,0,1,.21-.78c.57-.52,14.08-12.66,29.73-12.66a27.31,27.31,0,0,1,16.14,5.18,1.54,1.54,0,0,0,1.21-.56c.57-.62,1.5-2.23,1.2-6.11-.43-5.65-2.26-9.31-17-18.18C91.85,119.6,84.53,126,79.16,126a5.63,5.63,0,0,1-3.89-1.46,9.14,9.14,0,0,1-3-6.92c0-4.06,2.28-8.63,6.17-12.21a14.84,14.84,0,0,0,1.09-1.11,15,15,0,0,0-1.94.71c-4.67,2-13.92,11.61-14.92,22.93-1,11.61,3.11,18.86,3.14,18.93l.31.61a.77.77,0,0,1-.23,1c-2.82,2.11-16.58,13.81-11.75,37C58.8,208,89,215,99.4,215A12.15,12.15,0,0,0,101,215a17.75,17.75,0,0,0,2.37-.38c-.94-.46-2.78-1.08-4.44-1.65l-3.48-1.21c-8.17-3-23-10.19-30.22-25-6.4-13,.53-28.34,2.83-32.74a3,3,0,0,1,.18-.36.91.91,0,0,1,.62-.44c.24,0,.33.14.49.32l.24.25,3.89,4.16c.17.17.45.49.4.72a18.71,18.71,0,0,0,.71,8.07,3.32,3.32,0,0,0,.22.53.77.77,0,0,1,.09.36c0,2.26.08,13.92,3.06,20.79,3.14,7.23,5.92,12,15.71,12,11.5,0,20-6.07,26.74-19.12,4.93-9.52,5.37-22.39,5-29.58C124.64,156.2,123.28,162.41,120.92,166.38Zm-45.37-9.49c3.16-3.55,11.1-8,16.79-5.43,6.9,3.18,10.6,12,5.43,16.32-3.51,2.9-11.09,4.17-14,3.12C80,169.53,73.19,167.27,75.55,156.89Z"/><path class="cls-5" d="M7.72,239.49v2l-.5-.44-.16.19,3,2.59.17-.18L9.45,243v-2.41h1.23v1.12l-.66.57.17.18,1.43-1.25-.17-.18-.52.46v-2l.52.46.17-.18-1.5-1.32-.16.19.72.63v1.11H9.45V238l.69-.61-.16-.18-3,2.6.17.19Zm1.48,3.33L8,241.75v-1.12H9.2Zm0-2.44H8v-1.11L9.2,238.2Z"/></g></g><rect class="cls-5" x="-5.67" y="-5.67" width="189.92" height="45.68"/><polygon class="cls-6" points="184.25 -5.67 121.97 -5.67 143.03 20.5 184.25 20.5 184.25 -5.67"/><polygon class="cls-6" points="-5.67 -5.67 56.62 -5.67 35.55 20.5 -5.67 20.5 -5.67 -5.67"/><polygon class="cls-3" points="122.48 -5.67 121.96 -5.67 121.5 -5.29 142.79 21 184.25 21 184.25 20 143.27 20 122.48 -5.67"/><polygon class="cls-3" points="56.1 -5.67 35.31 20 -5.67 20 -5.67 21 35.79 21 57.08 -5.29 56.62 -5.67 56.1 -5.67"/><g class="cls-7"><g class="cls-4"><path class="cls-5" d="M173.41-203.77v-33.67l-1-1-6.08-6.09v-53h-1v52l-6.09-6.08v-45.92h-1v46.27l1,1.06,6.09,6.09V-213c-2-2-4-3.9-6.09-5.72l-1-.85a106.93,106.93,0,0,0-31.6-18.57v-59.45h-1v59.08c-2.46-.89-5-1.7-7.5-2.41v-59h-1v58.74s-.45.91-.43.92l-6.79,7.53a96.73,96.73,0,0,0-20.63-2.22,96.73,96.73,0,0,0-20.63,2.22l-6.78-7.53s-.43-.92-.44-.92v-58.74h-1v59c-2.54.71-5,1.52-7.5,2.41v-59.08h-1v59.45a107.06,107.06,0,0,0-31.6,18.57l-1,.85q-3.15,2.75-6.09,5.72v-31.17l6.09-6.09,1-1v-46.29h-1v45.92l-6.09,6.08v-52h-1v53l-6.08,6.09-1,.91v33.78A106.29,106.29,0,0,0-17.51-138,106.26,106.26,0,0,0,5.17-72.32v33.66l1,1,6.08,6.08v53h1v-52l6.09,6.09V21.47h1V-24.82l-1-1-6.09-6.09V-63.13q2.94,3,6.09,5.73l1,.85A107,107,0,0,0,51.94-38V21.47h1V-37.62c2.46.9,5,1.7,7.5,2.42V23.26h1V-34.93l.44-.92,6.78-7.53a96.73,96.73,0,0,0,20.63,2.22,96.73,96.73,0,0,0,20.63-2.22l6.79,7.53.43.92V23.26h1V-35.2c2.54-.72,5-1.52,7.5-2.42V21.47h1V-38a106.9,106.9,0,0,0,31.6-18.56l1-.85q3.15-2.74,6.09-5.72v31.17l-6.09,6.09-1,1.08V21.47h1V-24.45l6.09-6.09v52h1v-53l6.08-6.08,1-1V-72.31A106.29,106.29,0,0,0,196.09-138,106.29,106.29,0,0,0,173.41-203.77ZM5.17-114.4A87,87,0,0,1,1.92-138a87,87,0,0,1,3.25-23.64Zm0-50.73A87.93,87.93,0,0,0,.92-138,87.91,87.91,0,0,0,5.17-111v18.88A95.31,95.31,0,0,1-6.59-138,95.28,95.28,0,0,1,5.17-184Zm0-20.92A96.31,96.31,0,0,0-7.59-138,96.34,96.34,0,0,0,5.17-90V-74A105.26,105.26,0,0,1-16.51-138,105.29,105.29,0,0,1,5.17-202.13Zm7.08,153.1L6.17-39v-32q2.89,3.58,6.08,6.92Zm0-32.65c-2.12-2.27-4.16-4.62-6.08-7.06V-88.33a99.28,99.28,0,0,0,6.08,9Zm0-15.43A97.29,97.29,0,0,1,6.17-90.3V-108a88.83,88.83,0,0,0,6.08,13.25Zm0-15.82a86.7,86.7,0,0,1-6.08-14.27V-165a87,87,0,0,1,6.08-14.26Zm0-84.45a88.72,88.72,0,0,0-6.08,13.24v-17.73A97.14,97.14,0,0,1,12.25-195Zm0-15.41a97.89,97.89,0,0,0-6.08,9v-15.67c1.92-2.45,4-4.8,6.08-7.06Zm0-15.23Q9.07-208.61,6.17-205v-32l6.08-6.08Zm77-22a96.26,96.26,0,0,1,19.86,2.07l-5.88,6.54s-.32,1-.31,1v17.43a70,70,0,0,0-13.67-1.35,70,70,0,0,0-13.67,1.35v-17.43s-.3-1-.3-1l-5.89-6.54A96.26,96.26,0,0,1,89.29-233.92Zm0,164.56a69,69,0,0,1-68.95-68.87c0-.16,0-.32,0-.49,0-.74,0-1.48.06-2.21a69,69,0,0,1,31.53-55l1-.64a69.36,69.36,0,0,1,7.5-4l1-.46A68.22,68.22,0,0,1,69-203.93l1-.29c1.52-.44,3.07-.84,4.64-1.18l1-.22A68.45,68.45,0,0,1,89.29-207,68.45,68.45,0,0,1,103-205.62l1,.22c1.58.34,3.13.74,4.67,1.19l1,.28a69.8,69.8,0,0,1,7.51,2.83l1,.46a69.36,69.36,0,0,1,7.5,4l1,.64a69,69,0,0,1,31.54,55.08c0,.66,0,1.32,0,2,0,.23,0,.46,0,.69A69,69,0,0,1,89.29-69.36Zm19.34-1.47v18c-1.54.35-3.1.66-4.67.92V-69.65C105.54-70,107.09-70.39,108.63-70.83Zm-34,1.18v17.74c-1.56-.26-3.11-.57-4.64-.91v-18C71.51-70.39,73.05-70,74.62-69.65ZM70-205.53v-17.73c1.53-.35,3.08-.65,4.64-.92v17.48C73.05-206.37,71.51-206,70-205.53Zm38.65,0c-1.54-.45-3.09-.84-4.67-1.18v-17.48c1.57.27,3.13.57,4.67.92Zm-95.38-6q2.94-3,6.09-5.82l1-.87A105.92,105.92,0,0,1,51.94-237l1-.38q3.69-1.35,7.5-2.43l1,.62,6.09,6.76q-3.07.72-6.09,1.63l-1,.3c-2.54.79-5,1.7-7.5,2.69l-1,.41A97.28,97.28,0,0,0,20.34-206l-1,1c-2.14,2.23-4.17,4.57-6.09,7Zm0,15.16q2.88-3.74,6.09-7.17l1-1.05a96.3,96.3,0,0,1,31.6-21.75l1-.42c2.45-1,5-1.92,7.5-2.72l1-.31c2.26-.69,4.54-1.29,6.86-1.81l5.84,6.49a88,88,0,0,0-12.7,3.19l-1,.34c-2.55.89-5.06,1.88-7.5,3l-1,.47a88.87,88.87,0,0,0-31.6,24.87l-1,1.26a91.06,91.06,0,0,0-6.09,9Zm0,15.33a87.49,87.49,0,0,1,6.09-9.3l1-1.31A88,88,0,0,1,51.94-217l1-.47c2.44-1.12,5-2.13,7.5-3l1-.35q3.7-1.24,7.54-2.16v17.79a70.07,70.07,0,0,0-49.64,66.93c0,.06,0,.13,0,.2v.2a69.42,69.42,0,0,0,.95,11l0,.53a70.06,70.06,0,0,0,31.6,47.39l1,.64a71.46,71.46,0,0,0,7.5,4l1,.45A70,70,0,0,0,69-71.11v18q-3.84-.91-7.54-2.16l-1-.35c-2.55-.89-5.06-1.91-7.5-3l-1-.47a87.83,87.83,0,0,1-31.6-25.37l-1-1.3A88.52,88.52,0,0,1,13.25-95ZM61.44-36.87l-1,.63q-3.81-1.08-7.5-2.44l-1-.38a105.89,105.89,0,0,1-31.6-18.8l-1-.88q-3.15-2.79-6.09-5.82V-78.08q2.88,3.64,6.09,7l1,1a97.1,97.1,0,0,0,31.6,21.4l1,.41c2.45,1,5,1.9,7.5,2.7l1,.3c2,.6,4,1.15,6.09,1.62Zm6.86-7.61C66-45,63.7-45.61,61.44-46.29l-1-.31c-2.54-.81-5-1.72-7.5-2.73l-1-.41a96.3,96.3,0,0,1-31.6-21.75l-1-1.05Q16.13-76,13.25-79.71V-93a89.75,89.75,0,0,0,6.09,9l1,1.27A89,89,0,0,0,51.94-58l1,.47c2.44,1.1,5,2.1,7.5,3l1,.34A88.06,88.06,0,0,0,74.14-51Zm21,2.32a95.58,95.58,0,0,1-19.86-2.08l5.88-6.54s.32-1,.31-1v-17.7a70,70,0,0,0,13.67,1.35A70,70,0,0,0,103-69.44v17.7s.3,1,.31,1l5.88,6.54A95.58,95.58,0,0,1,89.29-42.16Zm76-22.39c-2,2-4,3.95-6.09,5.81l-1,.88a105.89,105.89,0,0,1-31.6,18.8l-1,.38q-3.69,1.36-7.5,2.44l-1-.63-6.09-6.76c2.06-.47,4.08-1,6.09-1.62l1-.3q3.83-1.2,7.5-2.7l1-.41a97.1,97.1,0,0,0,31.6-21.4l1-1q3.21-3.36,6.09-7Zm0-15.16q-2.88,3.73-6.09,7.17l-1,1.05a96.2,96.2,0,0,1-31.6,21.75l-1,.41q-3.67,1.52-7.5,2.73l-1,.31c-2.26.68-4.54,1.29-6.86,1.81L104.44-51a88.06,88.06,0,0,0,12.7-3.2l1-.34c2.55-.88,5.06-1.88,7.5-3l1-.47a88.87,88.87,0,0,0,31.6-24.87l1-1.27a89.75,89.75,0,0,0,6.09-9Zm0-15.33a88.52,88.52,0,0,1-6.09,9.3l-1,1.3a88,88,0,0,1-31.6,25.38l-1,.46c-2.44,1.13-5,2.14-7.5,3l-1,.35c-2.46.83-5,1.55-7.51,2.16V-71.12a69.47,69.47,0,0,0,7.51-2.77l1-.45a71.46,71.46,0,0,0,7.5-4l1-.64a70.06,70.06,0,0,0,31.6-47.39l0-.51a70,70,0,0,0,.95-11.1v-.16c0-.07,0-.14,0-.21a70.07,70.07,0,0,0-49.61-66.93V-223c2.54.61,5.05,1.33,7.51,2.15l1,.35c2.55.9,5.06,1.91,7.5,3l1,.47a88,88,0,0,1,31.6,25.37l1,1.31a87.49,87.49,0,0,1,6.09,9.3Zm0-88a91.06,91.06,0,0,0-6.09-9l-1-1.27a89,89,0,0,0-31.6-24.86l-1-.47c-2.44-1.11-5-2.1-7.5-3l-1-.34a88,88,0,0,0-12.7-3.19l5.84-6.49c2.32.52,4.6,1.12,6.86,1.81l1,.31c2.55.8,5,1.72,7.5,2.72l1,.42a96.2,96.2,0,0,1,31.6,21.75l1,1.05q3.21,3.43,6.09,7.17Zm0-15c-1.92-2.42-4-4.76-6.09-7l-1-1a97.28,97.28,0,0,0-31.6-21.41l-1-.41c-2.45-1-5-1.9-7.5-2.69l-1-.3c-2-.61-4-1.15-6.09-1.63l6.09-6.76,1-.62q3.81,1.08,7.5,2.43l1,.38a105.92,105.92,0,0,1,31.6,18.81l1,.87c2.1,1.86,4.14,3.8,6.09,5.82Zm7.08,159-6.08,6.08v-31.2q3.18-3.31,6.08-6.92Zm0-33.63c-1.92,2.44-4,4.8-6.08,7.06V-79.37a99.28,99.28,0,0,0,6.08-9Zm0-17.64A94.2,94.2,0,0,1,166.33-81V-94.78A88.72,88.72,0,0,0,172.41-108Zm0-20.81a87,87,0,0,1-6.08,14.26v-82.38A87,87,0,0,1,172.41-165Zm0-56.95a88.83,88.83,0,0,0-6.08-13.25v-13.75a96.63,96.63,0,0,1,6.08,9.27Zm0-19.69a96.54,96.54,0,0,0-6.08-9v-13.77c2.12,2.26,4.16,4.61,6.08,7Zm0-17.27q-2.9-3.58-6.08-6.92v-31.19l6.08,6.08Zm1,43.33A87.14,87.14,0,0,1,176.67-138a87,87,0,0,1-3.26,23.64Zm0,50.74A88,88,0,0,0,177.67-138a87.93,87.93,0,0,0-4.26-27.09V-184a95.32,95.32,0,0,1,11.76,46,95.28,95.28,0,0,1-11.76,46Zm0,20.92a96.21,96.21,0,0,0,12.76-48,96.21,96.21,0,0,0-12.76-48v-16.08A105.29,105.29,0,0,1,195.09-138,105.24,105.24,0,0,1,173.41-74Z"/></g></g><g class="cls-7"><path class="cls-1" d="M61.44-241.15v-58.74h-1v59c-2.54.71-5,1.52-7.5,2.41v-59.08h-1v59.45a107.06,107.06,0,0,0-31.6,18.57l-1,.85q-3.15,2.75-6.09,5.72v-31.17l6.09-6.09,1-1v-46.29h-1v45.92l-6.09,6.08v-52h-1v53l-6.08,6.09-1,.91v33.78A106.29,106.29,0,0,0-17.51-138,106.26,106.26,0,0,0,5.17-72.32v33.66l1,1,6.08,6.08v53h1v-52l6.09,6.09V21.47h1V-24.82l-1-1-6.09-6.09V-63.13q2.94,3,6.09,5.73l1,.85A107,107,0,0,0,51.94-38V21.47h1V-37.62c2.46.9,5,1.7,7.5,2.42V23.26h1V-34.93l.44-.92,6.78-7.53a96.73,96.73,0,0,0,20.63,2.22,96.73,96.73,0,0,0,20.63-2.22l6.79,7.53.43.92V23.26h1V-35.2c2.54-.72,5-1.52,7.5-2.42V21.47h1V-38a106.9,106.9,0,0,0,31.6-18.56l1-.85q3.15-2.74,6.09-5.72v31.17l-6.09,6.09-1,1.08V21.47h1V-24.45l6.09-6.09v52h1v-53l6.08-6.08,1-1V-72.31A106.29,106.29,0,0,0,196.09-138a106.29,106.29,0,0,0-22.68-65.73v-33.67l-1-1-6.08-6.09v-53h-1v52l-6.09-6.08v-45.92h-1v46.27l1,1.06,6.09,6.09V-213c-2-2-4-3.9-6.09-5.72l-1-.85a106.93,106.93,0,0,0-31.6-18.57v-59.45h-1v59.08c-2.46-.89-5-1.7-7.5-2.41v-59h-1v58.74s-.45.91-.43.92l-6.79,7.53a96.73,96.73,0,0,0-20.63-2.22,96.73,96.73,0,0,0-20.63,2.22l-6.78-7.53S61.45-241.15,61.44-241.15ZM6.17-237l6.08-6.08v31.19Q9.07-208.61,6.17-205Zm6.08,26.57v13.77a97.89,97.89,0,0,0-6.08,9v-15.67C8.09-205.87,10.13-208.22,12.25-210.48Zm160.16,99.37a87,87,0,0,1-6.08,14.26v-82.38A87,87,0,0,1,172.41-165Zm1-50.58A87.14,87.14,0,0,1,176.67-138a87,87,0,0,1-3.26,23.64ZM165.33-95a88.52,88.52,0,0,1-6.09,9.3l-1,1.3a88,88,0,0,1-31.6,25.38l-1,.46c-2.44,1.13-5,2.14-7.5,3l-1,.35c-2.46.83-5,1.55-7.51,2.16V-71.12a69.47,69.47,0,0,0,7.51-2.77l1-.45a71.46,71.46,0,0,0,7.5-4l1-.64a70.06,70.06,0,0,0,31.6-47.39l0-.51a70,70,0,0,0,.95-11.1v-.16c0-.07,0-.14,0-.21a70.07,70.07,0,0,0-49.61-66.93V-223c2.54.61,5.05,1.33,7.51,2.15l1,.35c2.55.9,5.06,1.91,7.5,3l1,.47a88,88,0,0,1,31.6,25.37l1,1.31a87.49,87.49,0,0,1,6.09,9.3Zm-145-43.68c0-.74,0-1.48.06-2.21a69,69,0,0,1,31.53-55l1-.64a69.36,69.36,0,0,1,7.5-4l1-.46A68.22,68.22,0,0,1,69-203.93l1-.29c1.52-.44,3.07-.84,4.64-1.18l1-.22A68.45,68.45,0,0,1,89.29-207,68.45,68.45,0,0,1,103-205.62l1,.22c1.58.34,3.13.74,4.67,1.19l1,.28a69.8,69.8,0,0,1,7.51,2.83l1,.46a69.36,69.36,0,0,1,7.5,4l1,.64a69,69,0,0,1,31.54,55.08c0,.66,0,1.32,0,2,0,.23,0,.46,0,.69A69,69,0,0,1,89.29-69.36a69,69,0,0,1-68.95-68.87C20.35-138.39,20.35-138.55,20.35-138.72Zm-1,.41c0,.06,0,.13,0,.2v.2a69.42,69.42,0,0,0,.95,11l0,.53a70.1,70.1,0,0,0,31.6,47.39l1,.64a71.46,71.46,0,0,0,7.5,4l1,.45A70,70,0,0,0,69-71.11v18q-3.84-.91-7.54-2.16l-1-.35c-2.55-.89-5.06-1.91-7.5-3l-1-.47a87.83,87.83,0,0,1-31.6-25.37l-1-1.3A88.52,88.52,0,0,1,13.25-95v-86a87.49,87.49,0,0,1,6.09-9.3l1-1.31A88,88,0,0,1,51.94-217l1-.47c2.44-1.12,5-2.13,7.5-3l1-.35q3.7-1.24,7.54-2.16v17.79A70.07,70.07,0,0,0,19.34-138.31ZM6.17-165a87,87,0,0,1,6.08-14.26v82.38a87,87,0,0,1-6.08-14.26Zm-1,50.57A87,87,0,0,1,1.92-138a87,87,0,0,1,3.25-23.64Zm1-53.66v-17.73A97.14,97.14,0,0,1,12.25-195v13.75A88.72,88.72,0,0,0,6.17-168.06Zm-1,2.93A87.93,87.93,0,0,0,.92-138,87.91,87.91,0,0,0,5.17-111v18.88A95.31,95.31,0,0,1-6.59-138,95.28,95.28,0,0,1,5.17-184Zm1,57.1a88.83,88.83,0,0,0,6.08,13.25V-81A97.29,97.29,0,0,1,6.17-90.3Zm7.08,15a89.75,89.75,0,0,0,6.09,9l1,1.27A89,89,0,0,0,51.94-58l1,.47c2.44,1.1,5,2.1,7.5,3l1,.34A88.06,88.06,0,0,0,74.14-51L68.3-44.48C66-45,63.7-45.61,61.44-46.29l-1-.31c-2.54-.81-5-1.72-7.5-2.73l-1-.41a96.3,96.3,0,0,1-31.6-21.75l-1-1.05Q16.13-76,13.25-79.71ZM70-52.82v-18c1.53.44,3.07.84,4.64,1.18v17.74C73.06-52.17,71.51-52.48,70-52.82Zm38.65-18v18c-1.54.35-3.1.66-4.67.92V-69.65C105.54-70,107.09-70.39,108.63-70.83Zm8.51,16.66,1-.34c2.55-.88,5.06-1.88,7.5-3l1-.47a88.87,88.87,0,0,0,31.6-24.87l1-1.27a89.75,89.75,0,0,0,6.09-9v13.34q-2.88,3.73-6.09,7.17l-1,1.05a96.2,96.2,0,0,1-31.6,21.75l-1,.41q-3.67,1.52-7.5,2.73l-1,.31c-2.26.68-4.54,1.29-6.86,1.81L104.44-51A88.06,88.06,0,0,0,117.14-54.17Zm49.19-40.61A88.72,88.72,0,0,0,172.41-108V-90.3A94.2,94.2,0,0,1,166.33-81Zm7.08-16.17A88,88,0,0,0,177.67-138a87.93,87.93,0,0,0-4.26-27.09V-184a95.32,95.32,0,0,1,11.76,46,95.28,95.28,0,0,1-11.76,46Zm-1-57.11a88.83,88.83,0,0,0-6.08-13.25v-13.75a96.63,96.63,0,0,1,6.08,9.27Zm-7.08-15a91.06,91.06,0,0,0-6.09-9l-1-1.27a89,89,0,0,0-31.6-24.86l-1-.47c-2.44-1.11-5-2.1-7.5-3l-1-.34a88,88,0,0,0-12.7-3.19l5.84-6.49c2.32.52,4.6,1.12,6.86,1.81l1,.31c2.55.8,5,1.72,7.5,2.72l1,.42a96.2,96.2,0,0,1,31.6,21.75l1,1.05q3.21,3.43,6.09,7.17Zm-56.7-40.23v17.74c-1.54-.45-3.09-.84-4.67-1.18v-17.48C105.53-223.91,107.09-223.6,108.63-223.26ZM70-205.53v-17.73c1.53-.35,3.08-.65,4.64-.92v17.48C73.05-206.37,71.51-206,70-205.53Zm-8.54-16.39-1,.34c-2.55.89-5.06,1.88-7.5,3l-1,.47a88.87,88.87,0,0,0-31.6,24.87l-1,1.26a91.06,91.06,0,0,0-6.09,9v-13.34q2.88-3.74,6.09-7.17l1-1.05a96.3,96.3,0,0,1,31.6-21.75l1-.42c2.45-1,5-1.92,7.5-2.72l1-.31c2.26-.69,4.54-1.29,6.86-1.81l5.84,6.49A88,88,0,0,0,61.44-221.92ZM-16.51-138A105.29,105.29,0,0,1,5.17-202.13V-186A96.31,96.31,0,0,0-7.59-138,96.34,96.34,0,0,0,5.17-90V-74A105.26,105.26,0,0,1-16.51-138ZM6.17-72.66V-88.33a99.28,99.28,0,0,0,6.08,9V-65.6C10.13-67.87,8.09-70.22,6.17-72.66Zm6.08,39.71L6.17-39v-32q2.89,3.58,6.08,6.92Zm49.19-3.92-1,.63q-3.81-1.08-7.5-2.44l-1-.38a105.89,105.89,0,0,1-31.6-18.8l-1-.88q-3.15-2.79-6.09-5.82V-78.08q2.88,3.64,6.09,7l1,1a97.1,97.1,0,0,0,31.6,21.4l1,.41c2.45,1,5,1.9,7.5,2.7l1,.3c2,.6,4,1.15,6.09,1.62Zm27.85-5.29a95.58,95.58,0,0,1-19.86-2.08l5.88-6.54s.32-1,.31-1v-17.7a70,70,0,0,0,13.67,1.35A70,70,0,0,0,103-69.44v17.7s.3,1,.31,1l5.88,6.54A95.58,95.58,0,0,1,89.29-42.16Zm70-16.58-1,.88a105.89,105.89,0,0,1-31.6,18.8l-1,.38q-3.69,1.36-7.5,2.44l-1-.63-6.09-6.76c2.06-.47,4.08-1,6.09-1.62l1-.3q3.83-1.2,7.5-2.7l1-.41a97.1,97.1,0,0,0,31.6-21.4l1-1q3.21-3.36,6.09-7v13.53C163.38-62.54,161.34-60.6,159.24-58.74ZM172.41-39l-6.08,6.08v-31.2q3.18-3.31,6.08-6.92ZM166.33-65.6V-79.37a97.24,97.24,0,0,0,6.08-9v15.67C170.49-70.22,168.45-67.86,166.33-65.6ZM195.09-138A105.24,105.24,0,0,1,173.41-74V-90a96.21,96.21,0,0,0,12.76-48,96.21,96.21,0,0,0-12.76-48v-16.08A105.29,105.29,0,0,1,195.09-138Zm-22.68-65.39v15.68a94.61,94.61,0,0,0-6.08-9v-13.77C168.45-208.22,170.49-205.87,172.41-203.43Zm-6.08-39.7,6.08,6.08v32q-2.9-3.58-6.08-6.92Zm-49.19,3.91,1-.62q3.81,1.08,7.5,2.43l1,.38a105.92,105.92,0,0,1,31.6,18.81l1,.87c2.1,1.86,4.14,3.8,6.09,5.82V-198c-1.92-2.42-4-4.76-6.09-7l-1-1a97.28,97.28,0,0,0-31.6-21.41l-1-.41c-2.45-1-5-1.9-7.5-2.69l-1-.3c-2-.61-4-1.15-6.09-1.63Zm-27.85,5.3a96.26,96.26,0,0,1,19.86,2.07l-5.88,6.54s-.32,1-.31,1v17.43a70,70,0,0,0-13.67-1.35,70,70,0,0,0-13.67,1.35v-17.43s-.3-1-.31-1l-5.88-6.54A96.26,96.26,0,0,1,89.29-233.92Zm-27.85-5.3,6.09,6.76q-3.07.72-6.09,1.63l-1,.3c-2.54.79-5,1.7-7.5,2.69l-1,.41A97.28,97.28,0,0,0,20.34-206l-1,1c-2.14,2.23-4.17,4.57-6.09,7v-13.52q2.94-3,6.09-5.82l1-.87A105.92,105.92,0,0,1,51.94-237l1-.38q3.69-1.35,7.5-2.43Z"/></g><path class="cls-3" d="M56.23,14h2.89c.74,0,1,.27,1,1.32v2.94c0,1.05-.23,1.31-1,1.31H56.23c-.74,0-1-.26-1-1.31V15.29C55.26,14.24,55.49,14,56.23,14Zm3,4.53V15h-3V18.5Z"/><path class="cls-3" d="M62,14h.91V18.5h2.94v1H62Z"/><path class="cls-3" d="M67.21,14h2.52C71.2,14,72,15,72,16.73a3.11,3.11,0,0,1-.87,2.38,2.31,2.31,0,0,1-1.61.43H67.21ZM69.3,18.5c1.15,0,1.73-.41,1.73-1.8,0-1.13-.44-1.74-1.29-1.74H68.12V18.5Z"/><path class="cls-3" d="M75.88,14h.94l1,3.74,1-3.74h.63l1.07,3.74,1-3.74h.81l-1.51,5.57h-.62l-1.08-3.85L78,19.54h-.63Z"/><path class="cls-3" d="M83.62,14H87c.6,0,.88.3.88,1.08v1.31c0,.78-.28,1.08-.88,1.08h-.52l1.81,2.1H87l-1.59-2.1h-.86v2.1h-.9Zm.9,1v1.56h2c.28,0,.41-.08.41-.45v-.67c0-.36-.13-.44-.41-.44Z"/><path class="cls-3" d="M89.72,14h4v.95h-3.1v1.24h1.81v.95H90.63V18.5h3.14v1h-4Z"/><path class="cls-3" d="M96.28,15V18.5h2.46V17.3l.92.27v.66c0,1.05-.24,1.31-1,1.31H96.34c-.73,0-1-.26-1-1.31V15.29c0-1,.24-1.32,1-1.32h2.34c.74,0,1,.27,1,1.32v.53l-.92.2V15Z"/><path class="cls-3" d="M101.54,14h.92v2.32L104.63,14H106l-2.6,2.63,2.92,2.94h-1.47l-2.35-2.45v2.45h-.92Z"/><path class="cls-3" d="M108.76,14h.88l2.25,5.57h-1l-.47-1.22h-2.49l-.46,1.22h-.91ZM110,17.32l-.85-2.27-.87,2.27Z"/><path class="cls-3" d="M113.84,15V18.5h2.85V17.25H115.2V16.3h2.38v1.93c0,1.05-.24,1.31-1,1.31H113.9c-.74,0-1-.26-1-1.31V15.29c0-1,.23-1.32,1-1.32h2.71c.71,0,1,.26,1,1.26v.13l-.89.23V15Z"/><path class="cls-3" d="M119.51,14h4v.95h-3.1v1.24h1.81v.95h-1.81V18.5h3.14v1h-4Z"/><path class="cls-3" d="M54.34,20.82v-.76h69.9v.76Z"/><path class="cls-8" d="M65.21,32V28.4h3.7V29H66.05v.81h1.67v.61H66.05v.9H69V32Z"/><path class="cls-8" d="M70.23,32v-3h.5l2.52,2v-2h.65v3h-.5l-2.51-2v2Z"/><path class="cls-8" d="M76.6,32l-1.79-3h.82l1.25,2.14,1.19-2.14h.74L77.1,32Z"/><path class="cls-8" d="M79.64,32v-3h.72v3Z"/><path class="cls-8" d="M81.67,32v-3h2.67a.84.84,0,0,1,.53.13.54.54,0,0,1,.17.44v.7a.54.54,0,0,1-.17.44.84.84,0,0,1-.53.13h-.4L85.35,32h-1L83.07,30.9h-.68V32ZM84,29.57H82.39v.82H84a.52.52,0,0,0,.25-.05.22.22,0,0,0,.07-.19v-.34c0-.1,0-.16-.07-.19A.52.52,0,0,0,84,29.57Z"/><path class="cls-8" d="M86.16,29.75a1,1,0,0,1,.07-.43.37.37,0,0,1,.23-.21,1.78,1.78,0,0,1,.46-.05h2.29a1.81,1.81,0,0,1,.47.05.37.37,0,0,1,.23.21,1,1,0,0,1,.07.43v1.57a1,1,0,0,1-.07.43.37.37,0,0,1-.23.21,1.49,1.49,0,0,1-.47.06H86.92a1.42,1.42,0,0,1-.46-.06.42.42,0,0,1-.24-.21,1.23,1.23,0,0,1-.06-.43Zm.72,1.7h2.38V29.6H86.88Z"/><path class="cls-8" d="M91.23,32v-3h.5l2.51,2v-2h.65v3H94.4l-2.51-2v2Z"/><path class="cls-8" d="M96.21,32v-3h.58l1.45,1.75,1.44-1.75h.58v3h-.67V30l-1.32,1.68h-.14L96.79,30v2Z"/><path class="cls-8" d="M101.58,32v-3h3.18v.52h-2.45v.65h1.43v.51h-1.43v.72h2.49V32Z"/><path class="cls-8" d="M105.84,32v-3h.49l2.52,2v-2h.65v3H109l-2.5-2v2Z"/><path class="cls-8" d="M112.59,29.59V32h-.72V29.59h-1.43v-.53H114v.53Z"/><path class="cls-5" d="M6.64,48.06a2.38,2.38,0,0,1,.09-.75.6.6,0,0,1,.32-.37,1.65,1.65,0,0,1,.61-.1h3a1.61,1.61,0,0,1,.61.1.6.6,0,0,1,.32.37,2.38,2.38,0,0,1,.09.75v2.72a2.49,2.49,0,0,1-.09.76.6.6,0,0,1-.32.36,1.43,1.43,0,0,1-.61.1h-3a1.46,1.46,0,0,1-.61-.1.6.6,0,0,1-.32-.36,2.49,2.49,0,0,1-.09-.76Zm1,3h3.16V47.77H7.6Z"/><path class="cls-5" d="M13.44,52V47.78h3a.89.89,0,0,1,.61.18.9.9,0,0,1,.19.64v.5a.89.89,0,0,1-.07.34.67.67,0,0,1-.19.25.94.94,0,0,1-.32.14.66.66,0,0,1,.45.27.9.9,0,0,1,.15.53v.54c0,.56-.35.83-1,.83Zm2.67-3.54H14.26v1h1.85a.51.51,0,0,0,.28-.06.27.27,0,0,0,.09-.24v-.4a.36.36,0,0,0,0-.19.15.15,0,0,0-.12-.08A.58.58,0,0,0,16.11,48.46Zm0,1.7H14.26v1.08h1.85a.51.51,0,0,0,.31-.07.41.41,0,0,0,.09-.31v-.32a.41.41,0,0,0-.09-.3A.5.5,0,0,0,16.11,50.16Z"/><path class="cls-5" d="M21.83,48.54H19.5v.89h2.2a1.34,1.34,0,0,1,.54.08.57.57,0,0,1,.27.3,1.92,1.92,0,0,1,.07.61V51a1.92,1.92,0,0,1-.07.61.56.56,0,0,1-.27.31,1.54,1.54,0,0,1-.54.08H19.5a1.52,1.52,0,0,1-.53-.08.49.49,0,0,1-.27-.31,1.6,1.6,0,0,1-.09-.61v-.12l.74-.17v.5h2.49v-1H19.65a1.26,1.26,0,0,1-.53-.09.55.55,0,0,1-.28-.3,1.94,1.94,0,0,1-.08-.62v-.47a1.87,1.87,0,0,1,.08-.61.55.55,0,0,1,.28-.3,1.28,1.28,0,0,1,.53-.08h2a1,1,0,0,1,.69.19,1,1,0,0,1,.2.72v.11l-.71.19Z"/><path class="cls-5" d="M26,48.54V52H25.2V48.54H23.57v-.76h4.09v.76Z"/><path class="cls-5" d="M28.21,52l2-4.22H31l2,4.22h-.92l-.43-.92H29.46L29,52Zm1.6-1.7h1.55l-.78-1.76Z"/><path class="cls-5" d="M36.86,48.56H34.64v2.63h2.22v-.9l.83.22V51a1.63,1.63,0,0,1-.08.61.49.49,0,0,1-.27.31,1.52,1.52,0,0,1-.53.08H34.69a1.26,1.26,0,0,1-.53-.09.5.5,0,0,1-.27-.3,1.87,1.87,0,0,1-.08-.61V48.77A1.22,1.22,0,0,1,34,48a.89.89,0,0,1,.69-.2h2.12a1.31,1.31,0,0,1,.53.08.5.5,0,0,1,.27.3,1.66,1.66,0,0,1,.08.61v.42l-.83.15Z"/><path class="cls-5" d="M39.05,52V47.78h.83v3.43h2.65V52Z"/><path class="cls-5" d="M43.46,52V47.78h3.63v.75h-2.8v.91h1.63v.74H44.29v1h2.84V52Z"/><path class="cls-5" d="M51.45,48.54H49.12v.89h2.21a1.31,1.31,0,0,1,.53.08.53.53,0,0,1,.27.3,1.92,1.92,0,0,1,.07.61V51a1.92,1.92,0,0,1-.07.61.52.52,0,0,1-.27.31,1.52,1.52,0,0,1-.53.08H49.12a1.52,1.52,0,0,1-.53-.08.49.49,0,0,1-.27-.31,1.63,1.63,0,0,1-.08-.61v-.12l.73-.17v.5h2.49v-1H49.27a1.26,1.26,0,0,1-.53-.09.55.55,0,0,1-.28-.3,1.94,1.94,0,0,1-.08-.62v-.47a1.87,1.87,0,0,1,.08-.61.55.55,0,0,1,.28-.3,1.28,1.28,0,0,1,.53-.08h2a.75.75,0,0,1,.89.91v.11l-.72.19Z"/><path class="cls-5" d="M54.49,47.77h.14a.15.15,0,0,1,.15.08.63.63,0,0,1,0,.28v.81c0,.18,0,.28-.06.32a.5.5,0,0,1-.27.05h-.72a.17.17,0,0,1-.16-.08,1,1,0,0,1,0-.29v-.81a.58.58,0,0,1,.05-.31.46.46,0,0,1,.28,0Zm0,2.68h.14a.16.16,0,0,1,.15.09.63.63,0,0,1,0,.28v.81c0,.18,0,.28-.06.32s-.13,0-.27,0h-.72a.17.17,0,0,1-.16-.08,1,1,0,0,1,0-.29v-.81a.58.58,0,0,1,.05-.31.44.44,0,0,1,.28-.06Z"/><path class="cls-5" d="M61,49.21c1.22,0,1.4,0,1.4-1,0-.66,0-.85-1.06-.85-.76,0-1.09,0-1.09.72v.39h-.44V48c0-1.08.59-1.16,1.47-1.16,1.48,0,1.61.37,1.61,1.37,0,.64-.13,1-.61,1.15v0c.39.12.63.27.63,1.12,0,1.18-.1,1.52-1.57,1.52s-1.65-.24-1.65-1.34v-.35h.45c0,1.06,0,1.2,1.15,1.2s1.13-.13,1.13-1-.14-.91-1.42-.91Z"/><path class="cls-5" d="M68.34,50.93H66.15L65.82,52h-.51l1.59-5.07h.69L69.18,52h-.51Zm-1.06-3.51h-.07l-.9,3h1.87Z"/><path class="cls-5" d="M70.07,50.9c0,.61.09.75.76.75s.85-.1.85-.71-.05-.5-.89-.55-1.14-.18-1.14-1,.13-1.05,1.2-1.05,1.25.24,1.25,1h-.45c0-.54-.15-.58-.82-.58s-.74.06-.74.62.07.54.82.59c1.06.06,1.22.14,1.22.93s-.16,1.14-1.32,1.14c-.82,0-1.19-.1-1.19-1.16Z"/><path class="cls-5" d="M73,48.84h-.37v-.41H73v-.82h.45v.82h1.16v.41H73.43v2.39c0,.29.09.42.39.42s.48-.06.48-.85h.41c0,1.14-.37,1.26-.89,1.26s-.84-.2-.84-.74Z"/><path class="cls-5" d="M75.62,50.32v.33c0,.78.14,1,.75,1s.88,0,.88-.71h.45v.13c0,.72-.18,1-1.25,1s-1.32-.39-1.32-1.84.24-1.85,1.32-1.85,1.25.44,1.25,1.41v.54Zm1.63-.45c0-.75,0-1.09-.81-1.09s-.82.34-.82,1.09Z"/><path class="cls-5" d="M78.44,48.43h.45v.43h0a.79.79,0,0,1,.83-.49c.56,0,.82.25.82,1v.29h-.4c0-.66-.07-.84-.58-.84s-.68.25-.68.74V52h-.45Z"/><path class="cls-5" d="M82.28,48.37c1.18,0,1.32.43,1.32,1.85s-.16,1.84-1.32,1.84S81,51.69,81,50.22,81.1,48.37,82.28,48.37Zm0,3.28c.71,0,.83-.1.83-1.43s-.12-1.44-.83-1.44-.83.11-.83,1.44S81.57,51.65,82.28,51.65Z"/><path class="cls-5" d="M84.39,46.93h.45v.6h-.45Zm0,1.5h.45V52h-.45Z"/><path class="cls-5" d="M87.84,51.55h0a.84.84,0,0,1-.91.51c-1,0-1.27-.44-1.27-1.84s.27-1.85,1.2-1.85a1,1,0,0,1,1,.51h0v-2h.45V52h-.45Zm-.85.06c.74,0,.85-.26.85-1.6,0-.88-.21-1.19-.85-1.19s-.86.16-.86,1.4S86.28,51.61,87,51.61Z"/><path class="cls-5" d="M89.51,50.9c0,.61.1.75.77.75s.85-.1.85-.71,0-.5-.9-.55-1.14-.18-1.14-1,.14-1.05,1.21-1.05,1.24.24,1.24,1h-.45c0-.54-.14-.58-.81-.58s-.74.06-.74.62.06.54.82.59c1.06.06,1.22.14,1.22.93s-.16,1.14-1.32,1.14c-.82,0-1.2-.1-1.2-1.16Z"/><path class="cls-5" d="M92.67,51.36h.49v.76c0,.6-.18.64-.53.64v-.28c.19,0,.25,0,.25-.48h-.21Z"/><path class="cls-5" d="M96.29,46.93h2.9v.45H96.78v1.54h0c.24-.34.51-.39,1.08-.39,1.29,0,1.48.5,1.48,1.76,0,1.54-.31,1.77-1.63,1.77-.85,0-1.53-.16-1.53-1.13v-.38h.45c0,.86.07,1,1.12,1s1.1-.19,1.1-1.28c0-.94,0-1.27-1.13-1.27-.65,0-.88,0-1,.45h-.43Z"/><path class="cls-5" d="M102.1,46.93H104c1.48,0,1.55.86,1.55,2.34,0,1.85-.08,2.73-1.62,2.73H102.1Zm.49,4.58h1.53c.81,0,1-.43,1-2s-.15-2-1-2h-1.53Z"/><path class="cls-5" d="M106.75,50.32v.33c0,.78.13,1,.75,1s.87,0,.87-.71h.45v.13c0,.72-.18,1-1.25,1s-1.31-.39-1.31-1.84.23-1.85,1.31-1.85,1.25.44,1.25,1.41v.54Zm1.62-.45c0-.75,0-1.09-.81-1.09s-.81.34-.81,1.09Z"/><path class="cls-5" d="M109.6,46.93h.45v2h0a1,1,0,0,1,1-.51c.93,0,1.2.45,1.2,1.85S112,52.06,111,52.06a.86.86,0,0,1-.92-.51h0V52h-.45Zm1.31,1.89c-.65,0-.86.31-.86,1.19,0,1.34.11,1.6.86,1.6s.85-.16.85-1.39S111.61,48.82,110.91,48.82Z"/><path class="cls-5" d="M112.93,48.43h.45v.43h0a.79.79,0,0,1,.83-.49c.56,0,.82.25.82,1v.29h-.4c0-.66-.07-.84-.58-.84s-.68.25-.68.74V52h-.45Z"/><path class="cls-5" d="M115.64,46.93h.44v.6h-.44Zm0,1.5h.44V52h-.44Z"/><path class="cls-5" d="M117.39,50.9c0,.61.09.75.76.75s.85-.1.85-.71,0-.5-.89-.55-1.14-.18-1.14-1,.14-1.05,1.2-1.05,1.25.24,1.25,1H119c0-.54-.15-.58-.82-.58s-.74.06-.74.62.07.54.82.59c1.06.06,1.22.14,1.22.93s-.16,1.14-1.31,1.14c-.82,0-1.2-.1-1.2-1.16Z"/><path class="cls-5" d="M125.48,50.7c0,1.1-.34,1.36-1.57,1.36s-1.79-.25-1.79-1.74V48.61c0-1.48.45-1.73,1.79-1.73,1.12,0,1.57.14,1.57,1.32v.36H125v-.32c0-.8-.26-.87-1.12-.87-1.15,0-1.3.15-1.3,1.27v1.65c0,1.12.15,1.28,1.3,1.28s1.12-.22,1.12-.92v-.33h.45Z"/><path class="cls-5" d="M126.27,46.93h.45V52h-.45Z"/><path class="cls-5" d="M128.83,48.37c1.18,0,1.32.43,1.32,1.85s-.16,1.84-1.32,1.84-1.31-.37-1.31-1.84S127.66,48.37,128.83,48.37Zm0,3.28c.72,0,.83-.1.83-1.43s-.11-1.44-.83-1.44-.82.11-.82,1.44S128.12,51.65,128.83,51.65Z"/><path class="cls-5" d="M133.33,52h-.45v-.46h0a.93.93,0,0,1-1,.52c-.83,0-1-.41-1-1.11V48.43h.44v2.42c0,.41.09.8.68.8s.93-.21.93-1V48.43h.45Z"/><path class="cls-5" d="M136.2,51.55h0a.85.85,0,0,1-.92.51c-1,0-1.27-.44-1.27-1.84s.28-1.85,1.2-1.85a1,1,0,0,1,1,.51h0v-2h.45V52h-.45Zm-.85.06c.75,0,.85-.26.85-1.6,0-.88-.21-1.19-.85-1.19s-.86.16-.86,1.4S134.65,51.61,135.35,51.61Z"/><path class="cls-5" d="M137.88,50.9c0,.61.09.75.76.75s.85-.1.85-.71-.05-.5-.89-.55-1.14-.18-1.14-1,.14-1.05,1.2-1.05,1.25.24,1.25,1h-.45c0-.54-.15-.58-.82-.58s-.74.06-.74.62.07.54.82.59c1.06.06,1.22.14,1.22.93s-.16,1.14-1.32,1.14c-.81,0-1.19-.1-1.19-1.16Z"/><path class="cls-5" d="M141,51.36h.49V52H141Z"/><path class="cls-5" d="M10.3,59.74H7.6v1.11h2.57a1.5,1.5,0,0,1,.62.11.6.6,0,0,1,.32.36,2.42,2.42,0,0,1,.09.75v.71a2.49,2.49,0,0,1-.09.76.6.6,0,0,1-.32.36,1.51,1.51,0,0,1-.62.1H7.62A1.46,1.46,0,0,1,7,63.9a.6.6,0,0,1-.32-.36,2.18,2.18,0,0,1-.1-.76v-.14l.85-.22V63h2.92V61.86H7.78a1.45,1.45,0,0,1-.61-.11.63.63,0,0,1-.32-.37,2.38,2.38,0,0,1-.09-.75v-.57a2.38,2.38,0,0,1,.09-.75.63.63,0,0,1,.32-.37,1.65,1.65,0,0,1,.61-.1h2.35a1.44,1.44,0,0,1,.6.1.63.63,0,0,1,.32.34,1.8,1.8,0,0,1,.1.69v.11l-.85.25Z"/><path class="cls-5" d="M12.9,64V59.78h3.63v.75h-2.8v.91h1.63v.74H13.73v1h2.84V64Z"/><path class="cls-5" d="M19.78,60.54V64H19V60.54H17.32v-.76h4.09v.76Z"/><path class="cls-5" d="M23.3,59.78v3.43h2.35V59.78h.84V63a1.6,1.6,0,0,1-.09.61.49.49,0,0,1-.27.31,1.54,1.54,0,0,1-.54.08H23.35a1.52,1.52,0,0,1-.53-.08.52.52,0,0,1-.27-.31,1.87,1.87,0,0,1-.08-.61V59.78Z"/><path class="cls-5" d="M28,64V59.78H31a.86.86,0,0,1,.6.18.88.88,0,0,1,.19.64v.94a.84.84,0,0,1-.19.62.82.82,0,0,1-.6.2H28.8V64Zm2.7-3.49H28.8v1.11h1.89a.41.41,0,0,0,.28-.07q.09-.06.09-.27v-.43a.35.35,0,0,0-.09-.28A.51.51,0,0,0,30.69,60.51Z"/><path class="cls-5" d="M33.87,59.77H34c.08,0,.13,0,.15.08a.63.63,0,0,1,0,.28v.81c0,.18,0,.28-.05.32a.55.55,0,0,1-.28.05h-.72a.14.14,0,0,1-.15-.08.68.68,0,0,1,0-.29v-.81c0-.17,0-.28.06-.31s.13,0,.28,0Zm0,2.68H34a.14.14,0,0,1,.15.09.63.63,0,0,1,0,.28v.81c0,.18,0,.28-.05.32a.46.46,0,0,1-.28,0h-.72a.14.14,0,0,1-.15-.08.71.71,0,0,1,0-.29v-.81c0-.17,0-.28.06-.31a.42.42,0,0,1,.28-.06Z"/><path class="cls-5" d="M41.88,62.93H39.7L39.37,64h-.51l1.59-5.07h.68L42.72,64h-.51Zm-1.06-3.51h-.07l-.9,3h1.88Z"/><path class="cls-5" d="M43.61,62.9c0,.61.1.75.76.75s.86-.1.86-.71,0-.5-.9-.55-1.14-.18-1.14-1,.14-1.05,1.2-1.05,1.25.24,1.25,1h-.45c0-.54-.14-.58-.82-.58s-.73.06-.73.62.06.54.82.59c1.06.06,1.22.14,1.22.93s-.16,1.14-1.32,1.14c-.82,0-1.2-.1-1.2-1.16Z"/><path class="cls-5" d="M46.53,60.84h-.37v-.41h.37v-.82H47v.82h1.15v.41H47v2.39c0,.29.09.42.38.42s.49-.06.49-.85h.4c0,1.14-.36,1.26-.88,1.26s-.84-.2-.84-.74Z"/><path class="cls-5" d="M49.17,62.32v.33c0,.78.13,1,.75,1s.87,0,.87-.71h.45v.13c0,.72-.17,1-1.25,1s-1.31-.39-1.31-1.84.24-1.85,1.31-1.85,1.25.44,1.25,1.41v.54Zm1.62-.45c0-.75,0-1.09-.81-1.09s-.81.34-.81,1.09Z"/><path class="cls-5" d="M52,60.43h.45v.43h0a.79.79,0,0,1,.83-.49c.57,0,.83.25.83,1v.29h-.41c0-.66-.07-.84-.58-.84s-.68.25-.68.74V64H52Z"/><path class="cls-5" d="M55.83,60.37c1.17,0,1.31.43,1.31,1.85s-.15,1.84-1.31,1.84-1.32-.37-1.32-1.84S54.65,60.37,55.83,60.37Zm0,3.28c.71,0,.82-.1.82-1.43s-.11-1.44-.82-1.44-.83.11-.83,1.44S55.11,63.65,55.83,63.65Z"/><path class="cls-5" d="M57.94,58.93h.45v.6h-.45Zm0,1.5h.45V64h-.45Z"/><path class="cls-5" d="M61.38,63.55h0a.85.85,0,0,1-.92.51c-1,0-1.26-.44-1.26-1.84s.27-1.85,1.19-1.85a1,1,0,0,1,1,.51h0v-2h.45V64h-.45Zm-.85.06c.75,0,.85-.26.85-1.6,0-.88-.21-1.19-.85-1.19s-.85.16-.85,1.4S59.83,63.61,60.53,63.61Z"/><path class="cls-5" d="M63.06,62.9c0,.61.09.75.76.75s.85-.1.85-.71,0-.5-.89-.55-1.14-.18-1.14-1,.14-1.05,1.2-1.05,1.25.24,1.25,1h-.45c0-.54-.15-.58-.82-.58s-.74.06-.74.62.07.54.82.59c1.06.06,1.22.14,1.22.93s-.16,1.14-1.31,1.14c-.82,0-1.2-.1-1.2-1.16Z"/><path class="cls-5" d="M67.8,60.43h.45V61h0a1,1,0,0,1,.95-.59.92.92,0,0,1,1,.59,1.1,1.1,0,0,1,1.07-.59.94.94,0,0,1,1.07,1.06V64h-.45V61.69c0-.71-.29-.87-.75-.87s-.86.23-.86.94V64h-.45V61.53c0-.53-.22-.71-.71-.71-.65,0-.9.4-.9,1.14v2H67.8Z"/><path class="cls-5" d="M75.61,64h-.45v-.46h0a1,1,0,0,1-1,.52c-.83,0-1-.41-1-1.11V60.43h.45v2.42c0,.41.09.8.68.8s.92-.21.92-1V60.43h.45Z"/><path class="cls-5" d="M76.79,62.9c0,.61.1.75.76.75s.86-.1.86-.71,0-.5-.9-.55-1.14-.18-1.14-1,.14-1.05,1.2-1.05,1.25.24,1.25,1h-.45c0-.54-.14-.58-.82-.58s-.73.06-.73.62.06.54.82.59c1.06.06,1.22.14,1.22.93s-.16,1.14-1.32,1.14c-.82,0-1.2-.1-1.2-1.16Z"/><path class="cls-5" d="M79.71,60.84h-.37v-.41h.37v-.82h.45v.82h1.15v.41H80.16v2.39c0,.29.09.42.38.42s.49-.06.49-.85h.4c0,1.14-.36,1.26-.88,1.26s-.84-.2-.84-.74Z"/><path class="cls-5" d="M83.91,58.93h.45v2h0a1,1,0,0,1,1-.51c.92,0,1.2.45,1.2,1.85s-.28,1.84-1.27,1.84a.86.86,0,0,1-.92-.51h0V64h-.45Zm1.3,1.89c-.64,0-.85.31-.85,1.19,0,1.34.1,1.6.85,1.6s.86-.16.86-1.39S85.91,60.82,85.21,60.82Z"/><path class="cls-5" d="M87.66,62.32v.33c0,.78.14,1,.75,1s.88,0,.88-.71h.45v.13c0,.72-.18,1-1.25,1s-1.32-.39-1.32-1.84.24-1.85,1.32-1.85,1.25.44,1.25,1.41v.54Zm1.63-.45c0-.75,0-1.09-.81-1.09s-.82.34-.82,1.09Z"/><path class="cls-5" d="M92.46,60.43h.45v.45h0a1,1,0,0,1,1-.51c.93,0,1.2.45,1.2,1.85s-.27,1.84-1.27,1.84a.85.85,0,0,1-.91-.51h0v1.7h-.45Zm1.31.39c-.65,0-.86.31-.86,1.19,0,1.34.11,1.6.86,1.6s.85-.16.85-1.39S94.47,60.82,93.77,60.82Z"/><path class="cls-5" d="M95.91,58.93h.45V64h-.45Z"/><path class="cls-5" d="M99.31,63.69a1.18,1.18,0,0,1-1,.37c-.91,0-1.11-.44-1.11-1.12s.16-1.12,1.11-1.12c.68,0,.82.08,1,.32h0v-.65c0-.53,0-.71-.79-.71s-.75.18-.75.64h-.45v-.19c0-.43.11-.86,1.22-.86s1.22.33,1.22,1V64h-.41Zm-.85-.08c.59,0,.85-.15.85-.69s-.26-.7-.85-.7-.86.15-.86.7S97.86,63.61,98.46,63.61Z"/><path class="cls-5" d="M102.43,61.62c0-.65-.12-.84-.72-.84s-.82.11-.82,1.44.11,1.43.82,1.43.79-.17.79-.94H103v.23c0,.92-.44,1.12-1.24,1.12-1.17,0-1.31-.39-1.31-1.84s.23-1.85,1.31-1.85,1.17.31,1.17,1.25Z"/><path class="cls-5" d="M104,62.32v.33c0,.78.14,1,.75,1s.88,0,.88-.71h.45v.13c0,.72-.18,1-1.25,1s-1.32-.39-1.32-1.84.24-1.85,1.32-1.85,1.25.44,1.25,1.41v.54Zm1.63-.45c0-.75,0-1.09-.81-1.09s-.82.34-.82,1.09Z"/><path class="cls-5" d="M108.94,63.55h0a.85.85,0,0,1-.92.51c-1,0-1.27-.44-1.27-1.84s.28-1.85,1.2-1.85a1,1,0,0,1,1,.51h0v-2h.45V64h-.45Zm-.85.06c.75,0,.85-.26.85-1.6,0-.88-.21-1.19-.85-1.19s-.85.16-.85,1.4S107.39,63.61,108.09,63.61Z"/><path class="cls-5" d="M112.37,60.84h-.45v-.41h.45v-.64c0-.66.3-.91.93-.91h.31v.4h-.29c-.3,0-.51.1-.51.51v.64h.79v.41h-.79V64h-.44Zm1.81-1.91h.45v.6h-.45Zm0,1.5h.45V64h-.45Z"/><path class="cls-5" d="M115.49,60.43h.45v.43h0a.79.79,0,0,1,.83-.49c.56,0,.82.25.82,1v.29h-.4c0-.66-.07-.84-.58-.84s-.68.25-.68.74V64h-.45Z"/><path class="cls-5" d="M118.52,62.9c0,.61.1.75.76.75s.86-.1.86-.71,0-.5-.9-.55-1.14-.18-1.14-1,.14-1.05,1.2-1.05,1.25.24,1.25,1h-.45c0-.54-.15-.58-.82-.58s-.73.06-.73.62.06.54.82.59c1,.06,1.22.14,1.22.93s-.17,1.14-1.32,1.14c-.82,0-1.2-.1-1.2-1.16Z"/><path class="cls-5" d="M121.44,60.84h-.37v-.41h.37v-.82h.45v.82H123v.41h-1.15v2.39c0,.29.09.42.38.42s.48-.06.48-.85h.41c0,1.14-.36,1.26-.88,1.26s-.84-.2-.84-.74Z"/><path class="cls-5" d="M124,63.36h.49V64H124Z"/><path class="cls-5" d="M130.27,62.93h-2.18L127.76,64h-.51l1.59-5.07h.69L131.11,64h-.51Zm-1.05-3.51h-.07l-.91,3h1.88Z"/><path class="cls-5" d="M131.68,58.93h.45V64h-.45Z"/><path class="cls-5" d="M133.11,58.93h.45V64h-.45Z"/><path class="cls-5" d="M138.46,63.69a1.19,1.19,0,0,1-1.05.37c-.91,0-1.11-.44-1.11-1.12s.16-1.12,1.11-1.12c.68,0,.83.08,1,.32h0v-.65c0-.53,0-.71-.79-.71s-.75.18-.75.64h-.44v-.19c0-.43.1-.86,1.21-.86s1.22.33,1.22,1V64h-.4Zm-.86-.08c.6,0,.86-.15.86-.69s-.26-.7-.86-.7-.85.15-.85.7S137,63.61,137.6,63.61Z"/><path class="cls-5" d="M140,62.9c0,.61.1.75.77.75s.85-.1.85-.71,0-.5-.89-.55-1.15-.18-1.15-1,.14-1.05,1.21-1.05,1.25.24,1.25,1h-.45c0-.54-.15-.58-.82-.58s-.74.06-.74.62.07.54.82.59c1.06.06,1.22.14,1.22.93s-.16,1.14-1.32,1.14c-.82,0-1.19-.1-1.19-1.16Z"/><path class="cls-5" d="M143,60.84h-.37v-.41H143v-.82h.45v.82h1.16v.41h-1.16v2.39c0,.29.09.42.39.42s.48-.06.48-.85h.41c0,1.14-.37,1.26-.89,1.26s-.84-.2-.84-.74Z"/><path class="cls-5" d="M145.6,62.32v.33c0,.78.14,1,.75,1s.88,0,.88-.71h.45v.13c0,.72-.18,1-1.25,1s-1.32-.39-1.32-1.84.24-1.85,1.32-1.85,1.25.44,1.25,1.41v.54Zm1.63-.45c0-.75,0-1.09-.81-1.09s-.82.34-.82,1.09Z"/><path class="cls-5" d="M148.42,60.43h.44v.43h0a.79.79,0,0,1,.83-.49c.56,0,.82.25.82,1v.29h-.4c0-.66-.07-.84-.59-.84s-.68.25-.68.74V64h-.44Z"/><path class="cls-5" d="M152.26,60.37c1.18,0,1.32.43,1.32,1.85s-.16,1.84-1.32,1.84-1.32-.37-1.32-1.84S151.08,60.37,152.26,60.37Zm0,3.28c.71,0,.83-.1.83-1.43s-.12-1.44-.83-1.44-.83.11-.83,1.44S151.55,63.65,152.26,63.65Z"/><path class="cls-5" d="M154.37,58.93h.45v.6h-.45Zm0,1.5h.45V64h-.45Z"/><path class="cls-5" d="M157.82,63.55h0a.84.84,0,0,1-.91.51c-1,0-1.27-.44-1.27-1.84s.27-1.85,1.2-1.85a1,1,0,0,1,1,.51h0v-2h.45V64h-.45Zm-.86.06c.75,0,.86-.26.86-1.6,0-.88-.21-1.19-.86-1.19s-.85.16-.85,1.4S156.26,63.61,157,63.61Z"/><path class="cls-5" d="M159.49,62.9c0,.61.1.75.76.75s.86-.1.86-.71-.05-.5-.9-.55-1.14-.18-1.14-1,.14-1.05,1.21-1.05,1.24.24,1.24,1h-.45c0-.54-.14-.58-.82-.58s-.73.06-.73.62.06.54.82.59c1.06.06,1.22.14,1.22.93s-.16,1.14-1.32,1.14c-.82,0-1.2-.1-1.2-1.16Z"/><path class="cls-5" d="M8.14,72.1a1.25,1.25,0,0,1-1.05.36C6.18,72.46,6,72,6,71.34s.16-1.12,1.11-1.12c.68,0,.83.07,1,.32h0v-.65c0-.53-.05-.71-.79-.71s-.75.18-.75.64H6.1v-.19c0-.44.11-.85,1.22-.85s1.22.32,1.22,1V72.4h-.4ZM7.28,72c.6,0,.86-.15.86-.69s-.26-.7-.86-.7-.85.15-.85.7S6.69,72,7.28,72Z"/><path class="cls-5" d="M9.53,69.24H9.09v-.41h.44v-.64c0-.66.31-.91.93-.91h.31v.4h-.29c-.29,0-.5.1-.5.51v.64h.78v.41H10V72.4H9.53Z"/><path class="cls-5" d="M11.21,69.24h-.37v-.41h.37V68h.45v.83h1.16v.41H11.66v2.39c0,.29.09.42.39.42s.48-.06.48-.85h.41c0,1.14-.37,1.26-.89,1.26s-.84-.2-.84-.74Z"/><path class="cls-5" d="M13.85,70.72v.33c0,.78.14,1,.75,1s.88,0,.88-.71h.45v.13c0,.72-.18,1-1.25,1s-1.32-.39-1.32-1.84.24-1.84,1.32-1.84,1.25.43,1.25,1.4v.54Zm1.63-.45c0-.75,0-1.09-.81-1.09s-.82.34-.82,1.09Z"/><path class="cls-5" d="M16.67,68.83h.44v.44h0a.78.78,0,0,1,.83-.49c.56,0,.82.24.82,1V70h-.4c0-.66-.07-.84-.59-.84s-.68.25-.68.74V72.4h-.44Z"/><path class="cls-5" d="M21.32,69.24H21v-.41h.37V68h.45v.83h1.16v.41H21.77v2.39c0,.29.09.42.39.42s.48-.06.48-.85H23c0,1.14-.36,1.26-.88,1.26s-.84-.2-.84-.74Z"/><path class="cls-5" d="M23.53,67.33H24v2h0a1,1,0,0,1,1-.51c.83,0,1.05.41,1.05,1.1V72.4h-.44V70c0-.42-.1-.81-.68-.81s-.93.21-.93,1V72.4h-.45Z"/><path class="cls-5" d="M27.2,70.72v.33c0,.78.14,1,.75,1s.88,0,.88-.71h.45v.13c0,.72-.18,1-1.25,1s-1.32-.39-1.32-1.84S27,68.78,28,68.78s1.25.43,1.25,1.4v.54Zm1.63-.45c0-.75,0-1.09-.81-1.09s-.82.34-.82,1.09Z"/><path class="cls-5" d="M32.21,69.24h-.44v-.41h.44v-.64c0-.66.31-.91.93-.91h.31v.4h-.29c-.29,0-.5.1-.5.51v.64h.78v.41h-.78V72.4h-.45ZM34,67.33h.45v.6H34Zm0,1.5h.45V72.4H34Z"/><path class="cls-5" d="M35.33,68.83h.45v.44h0a.78.78,0,0,1,.83-.49c.57,0,.83.24.83,1V70H37c0-.66-.07-.84-.58-.84s-.68.25-.68.74V72.4h-.45Z"/><path class="cls-5" d="M38.36,71.3c0,.61.1.75.76.75s.86-.1.86-.7,0-.51-.9-.56-1.14-.18-1.14-1,.14-1,1.21-1,1.24.23,1.24,1h-.45c0-.54-.14-.58-.82-.58s-.73.06-.73.62.06.54.82.59c1.06.06,1.22.14,1.22.93s-.16,1.14-1.32,1.14c-.82,0-1.2-.1-1.2-1.16Z"/><path class="cls-5" d="M41.28,69.24h-.37v-.41h.37V68h.45v.83h1.15v.41H41.73v2.39c0,.29.09.42.38.42s.49-.06.49-.85H43c0,1.14-.36,1.26-.88,1.26s-.84-.2-.84-.74Z"/><path class="cls-5" d="M46.69,68.78c1.18,0,1.32.41,1.32,1.84s-.16,1.84-1.32,1.84-1.31-.36-1.31-1.84S45.52,68.78,46.69,68.78Zm0,3.27c.72,0,.83-.1.83-1.43s-.11-1.44-.83-1.44-.82.11-.82,1.44S46,72.05,46.69,72.05Z"/><path class="cls-5" d="M48.69,68.83h.44v.46h0a1,1,0,0,1,1-.51c.82,0,1,.41,1,1.1V72.4h-.45V70c0-.42-.09-.81-.68-.81s-.93.21-.93,1V72.4h-.44Z"/><path class="cls-5" d="M52.36,70.72v.33c0,.78.13,1,.74,1s.88,0,.88-.71h.45v.13c0,.72-.18,1-1.25,1s-1.32-.39-1.32-1.84.24-1.84,1.32-1.84,1.25.43,1.25,1.4v.54ZM54,70.27c0-.75,0-1.09-.81-1.09s-.81.34-.81,1.09Z"/><path class="cls-5" d="M57.11,68.83h.45v.53h0a1,1,0,0,1,.94-.58c.48,0,.84.1,1,.58a1.08,1.08,0,0,1,1.07-.58.92.92,0,0,1,1.06,1V72.4h-.45V70.09c0-.71-.29-.87-.75-.87s-.86.23-.86.93V72.4h-.45V69.93c0-.53-.21-.71-.7-.71-.65,0-.91.39-.91,1.14v2h-.45Z"/><path class="cls-5" d="M64.92,72.4h-.45v-.46h0a1,1,0,0,1-1,.52c-.82,0-1-.41-1-1.11V68.83h.45v2.42c0,.41.09.8.68.8s.92-.21.92-1V68.83h.45Z"/><path class="cls-5" d="M66.1,71.3c0,.61.1.75.77.75s.85-.1.85-.7,0-.51-.9-.56-1.14-.18-1.14-1,.14-1,1.21-1,1.24.23,1.24,1h-.44c0-.54-.15-.58-.82-.58s-.74.06-.74.62.06.54.82.59c1.06.06,1.22.14,1.22.93s-.16,1.14-1.32,1.14c-.82,0-1.19-.1-1.19-1.16Z"/><path class="cls-5" d="M69,69.24h-.37v-.41H69V68h.45v.83h1.16v.41H69.47v2.39c0,.29.09.42.39.42s.48-.06.48-.85h.4c0,1.14-.36,1.26-.88,1.26s-.84-.2-.84-.74Z"/><path class="cls-5" d="M73.22,67.33h.45v2h0a1,1,0,0,1,1-.5c.93,0,1.2.44,1.2,1.84s-.27,1.84-1.27,1.84a.86.86,0,0,1-.92-.51h0v.45h-.45Zm1.31,1.89c-.65,0-.86.31-.86,1.19,0,1.33.11,1.6.86,1.6s.85-.16.85-1.39S75.23,69.22,74.53,69.22Z"/><path class="cls-5" d="M77,70.72v.33c0,.78.13,1,.74,1s.88,0,.88-.71h.45v.13c0,.72-.18,1-1.25,1s-1.31-.39-1.31-1.84.23-1.84,1.31-1.84,1.25.43,1.25,1.4v.54Zm1.62-.45c0-.75,0-1.09-.81-1.09s-.81.34-.81,1.09Z"/><path class="cls-5" d="M81.78,68.83h.45v.45h0a1,1,0,0,1,1-.5c.92,0,1.19.44,1.19,1.84s-.27,1.84-1.26,1.84a.85.85,0,0,1-.92-.51h0v1.7h-.45Zm1.3.39c-.64,0-.85.31-.85,1.19,0,1.33.1,1.6.85,1.6s.85-.16.85-1.39S83.78,69.22,83.08,69.22Z"/><path class="cls-5" d="M85.22,67.33h.45V72.4h-.45Z"/><path class="cls-5" d="M88.62,72.1a1.23,1.23,0,0,1-1,.36c-.91,0-1.11-.43-1.11-1.12s.16-1.12,1.11-1.12c.68,0,.83.07,1,.32h0v-.65c0-.53,0-.71-.79-.71s-.75.18-.75.64h-.45v-.19c0-.44.11-.85,1.22-.85s1.22.32,1.22,1V72.4h-.41ZM87.77,72c.59,0,.85-.15.85-.69s-.26-.7-.85-.7-.85.15-.85.7S87.17,72,87.77,72Z"/><path class="cls-5" d="M91.75,70c0-.65-.13-.84-.72-.84s-.83.11-.83,1.44.11,1.43.83,1.43.78-.17.78-.94h.45v.23c0,.92-.44,1.12-1.23,1.12-1.18,0-1.32-.39-1.32-1.84S90,68.78,91,68.78s1.17.3,1.17,1.24Z"/><path class="cls-5" d="M93.31,70.72v.33c0,.78.13,1,.75,1s.87,0,.87-.71h.45v.13c0,.72-.18,1-1.25,1s-1.31-.39-1.31-1.84.23-1.84,1.31-1.84,1.25.43,1.25,1.4v.54Zm1.62-.45c0-.75,0-1.09-.81-1.09s-.81.34-.81,1.09Z"/><path class="cls-5" d="M98.26,72h0a.85.85,0,0,1-.92.51c-1,0-1.26-.44-1.26-1.84s.27-1.84,1.19-1.84a1,1,0,0,1,1,.5h0v-2h.44V72.4h-.44ZM97.4,72c.75,0,.86-.27.86-1.6,0-.88-.21-1.19-.86-1.19s-.85.16-.85,1.4S96.7,72,97.4,72Z"/><path class="cls-5" d="M101.11,68.83h.44l.71,3.12h0l.68-3.12h.64l.67,3.12h0l.7-3.12h.45l-.85,3.57h-.65l-.65-3.12h0l-.65,3.12H102Z"/><path class="cls-5" d="M106,67.33h.45v.6H106Zm0,1.5h.45V72.4H106Z"/><path class="cls-5" d="M107.39,69.24H107v-.41h.37V68h.45v.83H109v.41h-1.15v2.39c0,.29.09.42.38.42s.49-.06.49-.85h.4c0,1.14-.36,1.26-.88,1.26s-.84-.2-.84-.74Z"/><path class="cls-5" d="M109.6,67.33h.45v2h0a1,1,0,0,1,1-.51c.83,0,1,.41,1,1.1V72.4h-.45V70c0-.42-.09-.81-.67-.81s-.93.21-.93,1V72.4h-.45Z"/><path class="cls-5" d="M113,67.33h.45v.6H113Zm0,1.5h.45V72.4H113Z"/><path class="cls-5" d="M114.27,68.83h.45v.46h0a1,1,0,0,1,1-.51c.83,0,1,.41,1,1.1V72.4h-.45V70c0-.42-.09-.81-.68-.81s-.92.21-.92,1V72.4h-.45Z"/><path class="cls-5" d="M119.46,68.83h.45v.44h0a.78.78,0,0,1,.83-.49c.57,0,.82.24.82,1V70h-.4c0-.66-.07-.84-.58-.84s-.68.25-.68.74V72.4h-.45Z"/><path class="cls-5" d="M124.14,72.1a1.24,1.24,0,0,1-1,.36c-.91,0-1.11-.43-1.11-1.12s.16-1.12,1.11-1.12c.68,0,.83.07,1,.32h0v-.65c0-.53,0-.71-.79-.71s-.75.18-.75.64h-.45v-.19c0-.44.11-.85,1.22-.85s1.22.32,1.22,1V72.4h-.41Zm-.85-.09c.59,0,.85-.15.85-.69s-.26-.7-.85-.7-.86.15-.86.7S122.69,72,123.29,72Z"/><path class="cls-5" d="M125.29,68.83h.45v.46h0a1,1,0,0,1,1-.51c.83,0,1.05.41,1.05,1.1V72.4h-.45V70c0-.42-.09-.81-.68-.81s-.92.21-.92,1V72.4h-.45Z"/><path class="cls-5" d="M130.71,71.76h0a.9.9,0,0,1-.94.52c-1.15,0-1.23-.77-1.23-1.75s.08-1.75,1.23-1.75a.88.88,0,0,1,.94.53h0v-.48h.45v3.54c0,1.06-.33,1.35-1.42,1.35-.7,0-1.13-.25-1.11-1h.45c0,.42.18.54.75.54.73,0,.88-.15.88-1Zm-.9.07c.72,0,.9-.29.9-1.3s-.18-1.31-.9-1.31-.79.36-.79,1.31S129.08,71.83,129.81,71.83Z"/><path class="cls-5" d="M132.33,70.72v.33c0,.78.13,1,.74,1s.88,0,.88-.71h.45v.13c0,.72-.18,1-1.25,1s-1.31-.39-1.31-1.84.23-1.84,1.31-1.84,1.25.43,1.25,1.4v.54Zm1.62-.45c0-.75,0-1.09-.81-1.09s-.81.34-.81,1.09Z"/><path class="cls-5" d="M138.68,67.82h0l-1,1.33-.32-.3,1.21-1.52h.66V72.4h-.49Z"/><path class="cls-5" d="M140.87,70.34h1.54v.41h-1.54Z"/><path class="cls-5" d="M143.06,71.51c0-1.17.33-1.39,1.59-1.51.93-.09,1-.2,1-1.23,0-.81-.12-1-1.07-1s-1.1.14-1.1.94V69h-.45v-.3c0-.85.08-1.38,1.57-1.38,1.17,0,1.54.24,1.54,1.48s-.09,1.65-1.45,1.73c-1.09.07-1.19.32-1.19.91v.51h2.61v.49h-3.1Z"/><path class="cls-5" d="M150.14,68.78c1.18,0,1.32.41,1.32,1.84s-.16,1.84-1.32,1.84-1.32-.36-1.32-1.84S149,68.78,150.14,68.78Zm0,3.27c.72,0,.83-.1.83-1.43s-.11-1.44-.83-1.44-.82.11-.82,1.44S149.43,72.05,150.14,72.05Z"/><path class="cls-5" d="M152.38,69.24h-.44v-.41h.44v-.64c0-.66.31-.91.93-.91h.32v.4h-.3c-.29,0-.5.1-.5.51v.64h.78v.41h-.78V72.4h-.45Z"/><path class="cls-5" d="M157.15,68.78c1.17,0,1.31.41,1.31,1.84s-.15,1.84-1.31,1.84-1.32-.36-1.32-1.84S156,68.78,157.15,68.78Zm0,3.27c.71,0,.82-.1.82-1.43s-.11-1.44-.82-1.44-.83.11-.83,1.44S156.43,72.05,157.15,72.05Z"/><path class="cls-5" d="M159.26,69.24h-.37v-.41h.37V68h.45v.83h1.15v.41h-1.15v2.39c0,.29.09.42.38.42s.49-.06.49-.85h.4c0,1.14-.36,1.26-.88,1.26s-.84-.2-.84-.74Z"/><path class="cls-5" d="M161.47,67.33h.45v2h0a1,1,0,0,1,1-.51c.83,0,1.05.41,1.05,1.1V72.4h-.44V70c0-.42-.1-.81-.68-.81s-.93.21-.93,1V72.4h-.45Z"/><path class="cls-5" d="M165.14,70.72v.33c0,.78.14,1,.75,1s.88,0,.88-.71h.44v.13c0,.72-.17,1-1.24,1s-1.32-.39-1.32-1.84.24-1.84,1.32-1.84,1.24.43,1.24,1.4v.54Zm1.63-.45c0-.75,0-1.09-.82-1.09s-.81.34-.81,1.09Z"/><path class="cls-5" d="M168,68.83h.44v.44h0a.77.77,0,0,1,.82-.49c.57,0,.83.24.83,1V70h-.41c0-.66-.07-.84-.58-.84s-.68.25-.68.74V72.4H168Z"/><path class="cls-5" d="M8.77,79.73H6.59L6.26,80.8H5.75l1.59-5.07H8L9.61,80.8H9.1ZM7.71,76.22H7.64l-.9,3H8.62Z"/><path class="cls-5" d="M10.5,79.7c0,.61.1.75.76.75s.86-.1.86-.7,0-.51-.9-.56-1.14-.18-1.14-1,.14-1,1.2-1,1.25.23,1.25,1h-.45c0-.54-.14-.58-.82-.58s-.73.06-.73.62.06.54.82.59c1.06.06,1.22.14,1.22.93s-.16,1.14-1.32,1.14c-.82,0-1.2-.1-1.2-1.16Z"/><path class="cls-5" d="M13.42,77.64h-.37v-.41h.37V76.4h.45v.83H15v.41H13.87V80c0,.29.09.42.38.42s.49-.06.49-.85h.4c0,1.14-.36,1.26-.88,1.26s-.84-.2-.84-.74Z"/><path class="cls-5" d="M16.06,79.12v.33c0,.78.13,1,.75,1s.87,0,.87-.71h.45v.13c0,.72-.17,1-1.25,1s-1.31-.39-1.31-1.84.24-1.84,1.31-1.84,1.25.43,1.25,1.4v.54Zm1.62-.45c0-.75,0-1.09-.81-1.09s-.81.34-.81,1.09Z"/><path class="cls-5" d="M18.87,77.23h.45v.44h0a.78.78,0,0,1,.83-.49c.57,0,.83.24.83.95v.29h-.41c0-.66-.07-.84-.58-.84s-.68.25-.68.74V80.8h-.45Z"/><path class="cls-5" d="M22.72,77.18c1.17,0,1.31.42,1.31,1.84s-.15,1.84-1.31,1.84S21.4,80.5,21.4,79,21.54,77.18,22.72,77.18Zm0,3.27c.71,0,.82-.1.82-1.43s-.11-1.44-.82-1.44-.83.11-.83,1.44S22,80.45,22.72,80.45Z"/><path class="cls-5" d="M24.83,75.73h.45v.6h-.45Zm0,1.5h.45V80.8h-.45Z"/><path class="cls-5" d="M28.27,80.36h0a.86.86,0,0,1-.92.5c-1,0-1.27-.44-1.27-1.84s.28-1.84,1.2-1.84a1,1,0,0,1,1,.5h0v-2h.45V80.8h-.45Zm-.85,0c.75,0,.85-.26.85-1.6,0-.88-.21-1.19-.85-1.19s-.85.16-.85,1.4S26.72,80.41,27.42,80.41Z"/><path class="cls-5" d="M30,79.7c0,.61.09.75.76.75s.85-.1.85-.7,0-.51-.89-.56-1.14-.18-1.14-1,.14-1,1.2-1,1.25.23,1.25,1h-.45c0-.54-.15-.58-.82-.58s-.74.06-.74.62.07.54.82.59c1.06.06,1.22.14,1.22.93s-.16,1.14-1.31,1.14c-.82,0-1.2-.1-1.2-1.16Z"/><path class="cls-5" d="M33.1,80.16h.49v.64H33.1Z"/><path class="cls-5" d="M36.69,75.73h1.94c1.49,0,1.56.86,1.56,2.34,0,1.85-.08,2.73-1.63,2.73H36.69Zm.5,4.58h1.53c.81,0,1-.43,1-2s-.16-2-1-2H37.19Z"/><path class="cls-5" d="M41.34,79.12v.33c0,.78.14,1,.75,1s.88,0,.88-.71h.45v.13c0,.72-.18,1-1.25,1s-1.32-.39-1.32-1.84.24-1.84,1.32-1.84,1.25.43,1.25,1.4v.54ZM43,78.67c0-.75,0-1.09-.81-1.09s-.82.34-.82,1.09Z"/><path class="cls-5" d="M44.2,75.73h.45v2h0a1,1,0,0,1,1-.5c.92,0,1.2.44,1.2,1.84s-.28,1.84-1.27,1.84a.86.86,0,0,1-.92-.5h0v.44H44.2Zm1.3,1.89c-.64,0-.85.31-.85,1.19,0,1.34.1,1.6.85,1.6s.86-.16.86-1.39S46.2,77.62,45.5,77.62Z"/><path class="cls-5" d="M47.52,77.23H48v.44h0a.77.77,0,0,1,.82-.49c.57,0,.83.24.83.95v.29h-.41c0-.66-.07-.84-.58-.84s-.68.25-.68.74V80.8h-.45Z"/><path class="cls-5" d="M50.23,75.73h.45v.6h-.45Zm0,1.5h.45V80.8h-.45Z"/><path class="cls-5" d="M52,79.7c0,.61.1.75.77.75s.85-.1.85-.7-.05-.51-.9-.56-1.14-.18-1.14-1,.14-1,1.21-1,1.24.23,1.24,1h-.44c0-.54-.15-.58-.82-.58s-.74.06-.74.62.06.54.82.59c1.06.06,1.22.14,1.22.93s-.16,1.14-1.32,1.14c-.82,0-1.2-.1-1.2-1.16Z"/><path class="cls-5" d="M60.08,79.5c0,1.1-.35,1.36-1.57,1.36s-1.79-.25-1.79-1.74V77.41c0-1.48.45-1.73,1.79-1.73,1.12,0,1.57.14,1.57,1.32v.36h-.45V77c0-.79-.26-.86-1.12-.86-1.16,0-1.3.15-1.3,1.27v1.65c0,1.12.14,1.28,1.3,1.28s1.12-.22,1.12-.92v-.34h.45Z"/><path class="cls-5" d="M60.87,75.73h.44V80.8h-.44Z"/><path class="cls-5" d="M63.43,77.18c1.18,0,1.31.42,1.31,1.84s-.15,1.84-1.31,1.84S62.11,80.5,62.11,79,62.25,77.18,63.43,77.18Zm0,3.27c.71,0,.82-.1.82-1.43s-.11-1.44-.82-1.44-.83.11-.83,1.44S62.71,80.45,63.43,80.45Z"/><path class="cls-5" d="M67.92,80.8h-.45v-.46h0a1,1,0,0,1-1,.52c-.82,0-1-.41-1-1.11V77.23h.45v2.42c0,.41.09.8.68.8s.92-.21.92-1V77.23h.45Z"/><path class="cls-5" d="M70.8,80.36h0a.87.87,0,0,1-.92.5c-1,0-1.27-.44-1.27-1.84s.27-1.84,1.2-1.84a1,1,0,0,1,1,.5h0v-2h.45V80.8H70.8Zm-.85,0c.75,0,.85-.26.85-1.6,0-.88-.21-1.19-.85-1.19s-.86.16-.86,1.4S69.24,80.41,70,80.41Z"/><path class="cls-5" d="M72.47,79.7c0,.61.1.75.77.75s.85-.1.85-.7,0-.51-.9-.56-1.14-.18-1.14-1,.14-1,1.21-1,1.24.23,1.24,1h-.44c0-.54-.15-.58-.82-.58s-.74.06-.74.62.06.54.82.59c1.06.06,1.22.14,1.22.93s-.16,1.14-1.32,1.14c-.82,0-1.2-.1-1.2-1.16Z"/><path class="cls-5" d="M77.22,77.23h.45v.53h0a1,1,0,0,1,.95-.58c.47,0,.84.1,1,.58a1.09,1.09,0,0,1,1.07-.58.93.93,0,0,1,1.06,1V80.8h-.44V78.49c0-.71-.3-.87-.75-.87s-.86.24-.86.94V80.8h-.45V78.33c0-.53-.22-.71-.71-.71-.65,0-.9.4-.9,1.14v2h-.45Z"/><path class="cls-5" d="M85,80.8h-.44v-.46h0a1,1,0,0,1-1,.52c-.82,0-1-.41-1-1.11V77.23H83v2.42c0,.41.09.8.68.8s.93-.21.93-1V77.23H85Z"/><path class="cls-5" d="M86.21,79.7c0,.61.09.75.76.75s.85-.1.85-.7,0-.51-.89-.56-1.14-.18-1.14-1,.14-1,1.2-1,1.25.23,1.25,1h-.45c0-.54-.15-.58-.82-.58s-.73.06-.73.62.06.54.81.59c1.06.06,1.22.14,1.22.93s-.16,1.14-1.31,1.14c-.82,0-1.2-.1-1.2-1.16Z"/><path class="cls-5" d="M89.13,77.64h-.38v-.41h.38V76.4h.44v.83h1.16v.41H89.57V80c0,.29.09.42.39.42s.48-.06.48-.85h.41c0,1.14-.37,1.26-.88,1.26s-.84-.2-.84-.74Z"/><path class="cls-5" d="M93.33,75.73h.44v2h0a1,1,0,0,1,1-.5c.92,0,1.19.44,1.19,1.84s-.27,1.84-1.26,1.84a.86.86,0,0,1-.92-.5h0v.44h-.44Zm1.3,1.89c-.65,0-.86.31-.86,1.19,0,1.34.11,1.6.86,1.6s.85-.16.85-1.39S95.33,77.62,94.63,77.62Z"/><path class="cls-5" d="M97.08,79.12v.33c0,.78.13,1,.75,1s.87,0,.87-.71h.45v.13c0,.72-.17,1-1.24,1s-1.32-.39-1.32-1.84.24-1.84,1.32-1.84,1.24.43,1.24,1.4v.54Zm1.62-.45c0-.75,0-1.09-.81-1.09s-.81.34-.81,1.09Z"/><path class="cls-5" d="M101.88,77.23h.45v.45h0a1,1,0,0,1,1-.5c.92,0,1.2.44,1.2,1.84s-.28,1.84-1.27,1.84a.87.87,0,0,1-.92-.5h0v1.69h-.45Zm1.3.39c-.64,0-.85.31-.85,1.19,0,1.34.1,1.6.85,1.6s.86-.16.86-1.39S103.88,77.62,103.18,77.62Z"/><path class="cls-5" d="M105.32,75.73h.45V80.8h-.45Z"/><path class="cls-5" d="M108.73,80.5a1.22,1.22,0,0,1-1,.36c-.91,0-1.11-.43-1.11-1.12s.16-1.12,1.11-1.12c.68,0,.83.07,1,.32h0v-.65c0-.53,0-.71-.8-.71s-.74.18-.74.64h-.45V78c0-.43.1-.85,1.22-.85s1.21.32,1.21,1V80.8h-.4Zm-.86-.09c.6,0,.86-.15.86-.69s-.26-.69-.86-.69-.85.14-.85.69S107.28,80.41,107.87,80.41Z"/><path class="cls-5" d="M111.85,78.42c0-.65-.13-.84-.72-.84s-.83.11-.83,1.44.11,1.43.83,1.43.78-.17.78-.94h.45v.23c0,.92-.43,1.12-1.23,1.12-1.18,0-1.32-.39-1.32-1.84s.24-1.84,1.32-1.84,1.17.3,1.17,1.24Z"/><path class="cls-5" d="M113.41,79.12v.33c0,.78.13,1,.75,1s.87,0,.87-.71h.45v.13c0,.72-.17,1-1.24,1s-1.32-.39-1.32-1.84.24-1.84,1.32-1.84,1.24.43,1.24,1.4v.54Zm1.62-.45c0-.75,0-1.09-.81-1.09s-.81.34-.81,1.09Z"/><path class="cls-5" d="M118.36,80.36h0a.87.87,0,0,1-.92.5c-1,0-1.27-.44-1.27-1.84s.27-1.84,1.2-1.84a1,1,0,0,1,1,.5h0v-2h.45V80.8h-.45Zm-.85,0c.74,0,.85-.26.85-1.6,0-.88-.21-1.19-.85-1.19s-.86.16-.86,1.4S116.8,80.41,117.51,80.41Z"/><path class="cls-5" d="M121.66,77.64h-.38v-.41h.38V76.4h.44v.83h1.16v.41H122.1V80c0,.29.1.42.39.42s.48-.06.48-.85h.41c0,1.14-.37,1.26-.88,1.26s-.84-.2-.84-.74Z"/><path class="cls-5" d="M125.12,77.18c1.18,0,1.32.42,1.32,1.84s-.16,1.84-1.32,1.84-1.31-.36-1.31-1.84S124,77.18,125.12,77.18Zm0,3.27c.72,0,.83-.1.83-1.43s-.11-1.44-.83-1.44-.82.11-.82,1.44S124.41,80.45,125.12,80.45Z"/><path class="cls-5" d="M129.62,80.8h-.45v-.46h0a.93.93,0,0,1-1,.52c-.83,0-1-.41-1-1.11V77.23h.44v2.42c0,.41.1.8.68.8s.93-.21.93-1V77.23h.45Z"/><path class="cls-5" d="M132.33,78.42c0-.65-.12-.84-.72-.84s-.83.11-.83,1.44.12,1.43.83,1.43.79-.17.79-.94h.44v.23c0,.92-.43,1.12-1.23,1.12-1.18,0-1.32-.39-1.32-1.84s.24-1.84,1.32-1.84,1.17.3,1.17,1.24Z"/><path class="cls-5" d="M133.46,75.73h.45v2h0a1,1,0,0,1,1-.51c.83,0,1.05.41,1.05,1.1V80.8h-.44V78.39c0-.42-.09-.81-.68-.81s-.93.21-.93,1V80.8h-.45Z"/><path class="cls-5" d="M136.82,75.73h.45v.6h-.45Zm0,1.5h.45V80.8h-.45Z"/><path class="cls-5" d="M138.13,77.23h.45v.46h0a1,1,0,0,1,1-.51c.83,0,1,.41,1,1.1V80.8h-.44V78.39c0-.42-.1-.81-.68-.81s-.93.21-.93,1V80.8h-.45Z"/><path class="cls-5" d="M143.55,80.16h0a.89.89,0,0,1-.93.52c-1.16,0-1.24-.77-1.24-1.75s.08-1.75,1.24-1.75a.87.87,0,0,1,.93.53h0v-.48H144v3.54c0,1.06-.33,1.35-1.42,1.35-.69,0-1.12-.25-1.11-1h.45c0,.42.18.54.76.54s.87-.15.87-1Zm-.9.07c.73,0,.9-.29.9-1.3s-.17-1.31-.9-1.31-.79.36-.79,1.31S141.93,80.23,142.65,80.23Z"/><path class="cls-5" d="M148.78,80.5a1.21,1.21,0,0,1-1,.36c-.91,0-1.11-.43-1.11-1.12s.16-1.12,1.11-1.12c.68,0,.83.07,1,.32h0v-.65c0-.53-.05-.71-.79-.71s-.75.18-.75.64h-.45V78c0-.43.11-.85,1.22-.85s1.22.32,1.22,1V80.8h-.41Zm-.85-.09c.59,0,.85-.15.85-.69s-.26-.69-.85-.69-.86.14-.86.69S147.33,80.41,147.93,80.41Z"/><path class="cls-5" d="M149.93,77.23h.45v.46h0a1,1,0,0,1,1-.51c.83,0,1.05.41,1.05,1.1V80.8H152V78.39c0-.42-.09-.81-.68-.81s-.92.21-.92,1V80.8h-.45Z"/><path class="cls-5" d="M8.77,88.13H6.59L6.26,89.2H5.75l1.59-5.07H8L9.61,89.2H9.1ZM7.71,84.62H7.64l-.9,3H8.62Z"/><path class="cls-5" d="M10.5,88.1c0,.61.1.75.76.75s.86-.1.86-.7,0-.51-.9-.56-1.14-.18-1.14-1,.14-1,1.2-1,1.25.23,1.25,1h-.45c0-.54-.14-.58-.82-.58s-.73.06-.73.62.06.54.82.59c1.06.06,1.22.14,1.22.93s-.16,1.14-1.32,1.14c-.82,0-1.2-.1-1.2-1.16Z"/><path class="cls-5" d="M13.42,86h-.37v-.41h.37V84.8h.45v.83H15V86H13.87v2.39c0,.29.09.42.38.42s.49-.06.49-.85h.4c0,1.14-.36,1.26-.88,1.26s-.84-.2-.84-.74Z"/><path class="cls-5" d="M16.06,87.52v.33c0,.78.13,1,.75,1s.87,0,.87-.71h.45v.13c0,.72-.17,1-1.25,1s-1.31-.39-1.31-1.84.24-1.84,1.31-1.84,1.25.43,1.25,1.4v.54Zm1.62-.45c0-.75,0-1.09-.81-1.09s-.81.34-.81,1.09Z"/><path class="cls-5" d="M18.87,85.63h.45v.44h0a.78.78,0,0,1,.83-.49c.57,0,.83.24.83,1v.29h-.41c0-.66-.07-.84-.58-.84s-.68.25-.68.74V89.2h-.45Z"/><path class="cls-5" d="M22.72,85.58c1.17,0,1.31.42,1.31,1.84s-.15,1.84-1.31,1.84-1.32-.36-1.32-1.84S21.54,85.58,22.72,85.58Zm0,3.27c.71,0,.82-.1.82-1.43S23.43,86,22.72,86s-.83.11-.83,1.44S22,88.85,22.72,88.85Z"/><path class="cls-5" d="M24.83,84.13h.45v.6h-.45Zm0,1.5h.45V89.2h-.45Z"/><path class="cls-5" d="M28.27,88.76h0a.86.86,0,0,1-.92.5c-1,0-1.27-.44-1.27-1.84s.28-1.84,1.2-1.84a1,1,0,0,1,1,.5h0v-2h.45V89.2h-.45Zm-.85,0c.75,0,.85-.27.85-1.6,0-.88-.21-1.19-.85-1.19s-.85.17-.85,1.4S26.72,88.81,27.42,88.81Z"/><path class="cls-5" d="M33.55,88.9a1.22,1.22,0,0,1-1,.36c-.91,0-1.11-.44-1.11-1.12S31.55,87,32.5,87c.68,0,.83.08,1,.32h0v-.65c0-.53,0-.71-.79-.71s-.75.18-.75.64h-.45v-.19c0-.43.11-.85,1.22-.85s1.22.32,1.22,1V89.2h-.4Zm-.86-.09c.6,0,.86-.15.86-.69s-.26-.7-.86-.7-.85.15-.85.7S32.1,88.81,32.69,88.81Z"/><path class="cls-5" d="M34.69,85.63h.45v.46h0a1,1,0,0,1,1-.51c.83,0,1,.41,1,1.1V89.2h-.45V86.79c0-.42-.09-.81-.67-.81s-.93.21-.93,1V89.2h-.45Z"/><path class="cls-5" d="M40.07,88.76h0a.87.87,0,0,1-.92.5c-1,0-1.27-.44-1.27-1.84s.27-1.84,1.2-1.84a1,1,0,0,1,1,.5h0v-2h.45V89.2h-.45Zm-.85,0c.74,0,.85-.27.85-1.6,0-.88-.21-1.19-.85-1.19s-.86.17-.86,1.4S38.51,88.81,39.22,88.81Z"/><path class="cls-5" d="M43.25,85.63h.45v.53h0a1,1,0,0,1,.95-.58.93.93,0,0,1,1,.58,1.08,1.08,0,0,1,1.07-.58.93.93,0,0,1,1.06,1V89.2h-.45V86.89c0-.71-.29-.87-.74-.87s-.87.23-.87.93V89.2h-.44V86.73c0-.53-.22-.71-.71-.71-.65,0-.9.4-.9,1.14v2h-.45Z"/><path class="cls-5" d="M50.65,88.9a1.22,1.22,0,0,1-1,.36c-.91,0-1.11-.44-1.11-1.12S48.65,87,49.6,87c.68,0,.83.08,1,.32h0v-.65c0-.53,0-.71-.79-.71s-.75.18-.75.64h-.44v-.19c0-.43.1-.85,1.21-.85s1.22.32,1.22,1V89.2h-.4Zm-.86-.09c.6,0,.86-.15.86-.69s-.26-.7-.86-.7-.85.15-.85.7S49.2,88.81,49.79,88.81Z"/><path class="cls-5" d="M51.91,90.07c.57,0,.67-.11.84-.87h-.21l-1-3.57h.44l.91,3.13h0l.77-3.13h.45l-1,3.94c-.16.63-.43,1-1,1a.66.66,0,0,1-.21,0Z"/><path class="cls-5" d="M56.51,84.13H57v2h0a1,1,0,0,1,1-.5c.93,0,1.2.44,1.2,1.84s-.27,1.84-1.27,1.84a.87.87,0,0,1-.92-.5h0v.44h-.45ZM57.82,86c-.65,0-.86.31-.86,1.19,0,1.33.11,1.6.86,1.6s.85-.16.85-1.39S58.52,86,57.82,86Z"/><path class="cls-5" d="M60.27,87.52v.33c0,.78.13,1,.74,1s.88,0,.88-.71h.45v.13c0,.72-.18,1-1.25,1s-1.31-.39-1.31-1.84.23-1.84,1.31-1.84,1.25.43,1.25,1.4v.54Zm1.62-.45c0-.75,0-1.09-.81-1.09s-.81.34-.81,1.09Z"/><path class="cls-5" d="M65.07,85.63h.45v.45h0a1,1,0,0,1,1-.5c.92,0,1.19.44,1.19,1.84s-.27,1.84-1.26,1.84a.86.86,0,0,1-.92-.5h0v1.69h-.45Zm1.3.39c-.64,0-.85.31-.85,1.19,0,1.33.1,1.6.85,1.6s.85-.16.85-1.39S67.07,86,66.37,86Z"/><path class="cls-5" d="M68.51,84.13H69V89.2h-.45Z"/><path class="cls-5" d="M71.91,88.9a1.19,1.19,0,0,1-1,.36c-.91,0-1.11-.44-1.11-1.12S69.92,87,70.87,87c.68,0,.83.08,1,.32h0v-.65c0-.53-.05-.71-.79-.71s-.75.18-.75.64h-.45v-.19c0-.43.11-.85,1.22-.85s1.22.32,1.22,1V89.2h-.41Zm-.85-.09c.6,0,.85-.15.85-.69s-.25-.7-.85-.7-.85.15-.85.7S70.46,88.81,71.06,88.81Z"/><path class="cls-5" d="M75,86.82c0-.65-.13-.84-.72-.84s-.83.11-.83,1.44.11,1.43.83,1.43.78-.17.78-.94h.45v.23c0,.92-.44,1.12-1.23,1.12-1.18,0-1.32-.39-1.32-1.84s.24-1.84,1.32-1.84,1.17.3,1.17,1.24Z"/><path class="cls-5" d="M76.6,87.52v.33c0,.78.13,1,.75,1s.87,0,.87-.71h.45v.13c0,.72-.18,1-1.25,1s-1.31-.39-1.31-1.84.23-1.84,1.31-1.84,1.25.43,1.25,1.4v.54Zm1.62-.45c0-.75,0-1.09-.81-1.09s-.81.34-.81,1.09Z"/><path class="cls-5" d="M81.55,88.76h0a.86.86,0,0,1-.92.5c-1,0-1.26-.44-1.26-1.84s.27-1.84,1.19-1.84a1,1,0,0,1,1,.5h0v-2H82V89.2h-.44Zm-.86,0c.75,0,.86-.27.86-1.6,0-.88-.21-1.19-.86-1.19s-.85.17-.85,1.4S80,88.81,80.69,88.81Z"/><path class="cls-5" d="M86.82,88.9a1.22,1.22,0,0,1-1,.36c-.91,0-1.11-.44-1.11-1.12S84.82,87,85.77,87c.68,0,.83.08,1,.32h0v-.65c0-.53,0-.71-.8-.71s-.74.18-.74.64h-.45v-.19c0-.43.1-.85,1.22-.85s1.21.32,1.21,1V89.2h-.4ZM86,88.81c.6,0,.86-.15.86-.69s-.26-.7-.86-.7-.85.15-.85.7S85.37,88.81,86,88.81Z"/><path class="cls-5" d="M88.08,86h-.37v-.41h.37V84.8h.45v.83h1.16V86H88.53v2.39c0,.29.09.42.39.42s.48-.06.48-.85h.41c0,1.14-.37,1.26-.89,1.26s-.84-.2-.84-.74Z"/><path class="cls-5" d="M92.24,85.63h.45v.44h0a.78.78,0,0,1,.83-.49c.57,0,.83.24.83,1v.29H94c0-.66-.07-.84-.58-.84s-.68.25-.68.74V89.2h-.45Z"/><path class="cls-5" d="M96.93,88.9a1.22,1.22,0,0,1-1.05.36c-.91,0-1.11-.44-1.11-1.12S94.93,87,95.88,87c.68,0,.83.08,1,.32h0v-.65c0-.53,0-.71-.79-.71s-.75.18-.75.64H94.9v-.19c0-.43.1-.85,1.21-.85s1.22.32,1.22,1V89.2h-.4Zm-.86-.09c.6,0,.86-.15.86-.69s-.26-.7-.86-.7-.85.15-.85.7S95.48,88.81,96.07,88.81Z"/><path class="cls-5" d="M98.07,85.63h.45v.46h0a1,1,0,0,1,1-.51c.83,0,1,.41,1,1.1V89.2h-.45V86.79c0-.42-.09-.81-.67-.81s-.93.21-.93,1V89.2h-.45Z"/><path class="cls-5" d="M103.49,88.56h0a.89.89,0,0,1-.93.52c-1.16,0-1.24-.77-1.24-1.75s.08-1.75,1.24-1.75a.87.87,0,0,1,.93.53h0v-.48h.45v3.54c0,1.06-.33,1.35-1.42,1.35-.69,0-1.12-.24-1.11-1h.45c0,.41.18.54.76.54s.87-.15.87-1Zm-.9.07c.73,0,.9-.29.9-1.3s-.17-1.31-.9-1.31-.79.36-.79,1.31S101.87,88.63,102.59,88.63Z"/><path class="cls-5" d="M105.11,87.52v.33c0,.78.13,1,.75,1s.87,0,.87-.71h.45v.13c0,.72-.17,1-1.24,1s-1.32-.39-1.32-1.84.24-1.84,1.32-1.84,1.24.43,1.24,1.4v.54Zm1.62-.45c0-.75,0-1.09-.81-1.09s-.81.34-.81,1.09Z"/><path class="cls-5" d="M111.46,84.62h0l-1,1.33-.33-.3,1.22-1.52H112V89.2h-.49Z"/><path class="cls-5" d="M117,85.58c1.18,0,1.32.42,1.32,1.84s-.16,1.84-1.32,1.84-1.32-.36-1.32-1.84S115.78,85.58,117,85.58Zm0,3.27c.71,0,.83-.1.83-1.43S117.67,86,117,86s-.83.11-.83,1.44S116.25,88.85,117,88.85Z"/><path class="cls-5" d="M119.2,86h-.44v-.41h.44V85c0-.66.31-.91.93-.91h.32v.4h-.3c-.29,0-.5.1-.5.51v.64h.78V86h-.78V89.2h-.45Z"/><path class="cls-5" d="M124,85.58c1.17,0,1.31.42,1.31,1.84s-.15,1.84-1.31,1.84-1.32-.36-1.32-1.84S122.79,85.58,124,85.58Zm0,3.27c.71,0,.82-.1.82-1.43S124.68,86,124,86s-.83.11-.83,1.44S123.25,88.85,124,88.85Z"/><path class="cls-5" d="M126.08,86h-.37v-.41h.37V84.8h.45v.83h1.15V86h-1.15v2.39c0,.29.09.42.38.42s.49-.06.49-.85h.4c0,1.14-.36,1.26-.88,1.26s-.84-.2-.84-.74Z"/><path class="cls-5" d="M128.29,84.13h.45v2h0a1,1,0,0,1,1-.51c.83,0,1,.41,1,1.1V89.2h-.45V86.79c0-.42-.09-.81-.67-.81s-.93.21-.93,1V89.2h-.45Z"/><path class="cls-5" d="M132,87.52v.33c0,.78.13,1,.75,1s.88,0,.88-.71H134v.13c0,.72-.17,1-1.24,1s-1.32-.39-1.32-1.84.24-1.84,1.32-1.84S134,86,134,87v.54Zm1.63-.45c0-.75,0-1.09-.82-1.09s-.81.34-.81,1.09Z"/><path class="cls-5" d="M134.78,85.63h.44v.44h0a.77.77,0,0,1,.82-.49c.57,0,.83.24.83,1v.29h-.41c0-.66-.07-.84-.58-.84s-.68.25-.68.74V89.2h-.44Z"/><path class="cls-5" d="M139.37,84.13h1.94c1.48,0,1.55.86,1.55,2.33,0,1.86-.08,2.74-1.62,2.74h-1.87Zm.49,4.58h1.53c.81,0,1-.43,1-2s-.15-2-1-2h-1.53Z"/><path class="cls-5" d="M144,87.52v.33c0,.78.13,1,.75,1s.87,0,.87-.71h.45v.13c0,.72-.18,1-1.25,1s-1.31-.39-1.31-1.84.23-1.84,1.31-1.84,1.25.43,1.25,1.4v.54Zm1.62-.45c0-.75,0-1.09-.81-1.09s-.81.34-.81,1.09Z"/><path class="cls-5" d="M146.87,84.13h.45v2h0a1,1,0,0,1,1-.5c.93,0,1.2.44,1.2,1.84s-.27,1.84-1.27,1.84a.87.87,0,0,1-.92-.5h0v.44h-.45Zm1.3,1.89c-.64,0-.85.31-.85,1.19,0,1.33.11,1.6.85,1.6s.86-.16.86-1.39S148.87,86,148.17,86Z"/><path class="cls-5" d="M150.2,85.63h.45v.44h0a.78.78,0,0,1,.83-.49c.56,0,.82.24.82,1v.29h-.4c0-.66-.07-.84-.59-.84s-.67.25-.67.74V89.2h-.45Z"/><path class="cls-5" d="M152.91,84.13h.44v.6h-.44Zm0,1.5h.44V89.2h-.44Z"/><path class="cls-5" d="M154.66,88.1c0,.61.09.75.76.75s.85-.1.85-.7-.05-.51-.89-.56-1.14-.18-1.14-1,.14-1,1.2-1,1.25.23,1.25,1h-.45c0-.54-.15-.58-.82-.58s-.74.06-.74.62.07.54.82.59c1.06.06,1.22.14,1.22.93s-.16,1.14-1.31,1.14c-.82,0-1.2-.1-1.2-1.16Z"/><path class="cls-5" d="M9.39,96.3c0,1.1-.34,1.36-1.57,1.36S6,97.41,6,95.92V94.21c0-1.48.45-1.73,1.79-1.73,1.12,0,1.57.14,1.57,1.32v.36H8.94v-.32c0-.8-.26-.87-1.12-.87-1.16,0-1.3.15-1.3,1.27v1.65c0,1.13.14,1.28,1.3,1.28s1.12-.23,1.12-.92v-.33h.45Z"/><path class="cls-5" d="M10.18,92.53h.45V97.6h-.45Z"/><path class="cls-5" d="M12.74,94c1.18,0,1.32.42,1.32,1.84s-.16,1.84-1.32,1.84-1.32-.37-1.32-1.84S11.56,94,12.74,94Zm0,3.27c.71,0,.83-.1.83-1.43s-.12-1.44-.83-1.44-.83.11-.83,1.44S12,97.25,12.74,97.25Z"/><path class="cls-5" d="M17.23,97.6h-.44v-.46h0a1,1,0,0,1-1,.52c-.82,0-1-.41-1-1.11V94h.45v2.42c0,.41.09.8.68.8s.93-.21.93-1V94h.44Z"/><path class="cls-5" d="M20.11,97.15h0a.86.86,0,0,1-.92.51c-1,0-1.27-.44-1.27-1.84S18.19,94,19.11,94a1,1,0,0,1,1,.5h0v-2h.45V97.6h-.45Zm-.85.06c.75,0,.85-.27.85-1.6,0-.88-.21-1.19-.85-1.19s-.86.16-.86,1.4S18.56,97.21,19.26,97.21Z"/><path class="cls-5" d="M21.78,96.5c0,.61.1.75.77.75s.85-.1.85-.7,0-.51-.89-.56-1.15-.18-1.15-1,.14-1,1.21-1,1.25.23,1.25,1h-.45c0-.54-.15-.58-.82-.58s-.74.06-.74.62.06.54.82.59c1.06.06,1.22.14,1.22.93s-.16,1.14-1.32,1.14c-.82,0-1.19-.1-1.19-1.16Z"/><path class="cls-5" d="M24.94,97h.49v.64h-.49Z"/><path class="cls-5" d="M29.54,93H28.15v-.49h3.27V93H30V97.6h-.49Z"/><path class="cls-5" d="M31.84,92.53h.44v2h0a1,1,0,0,1,1-.51c.82,0,1.05.41,1.05,1.1V97.6h-.45V95.19c0-.42-.09-.81-.68-.81s-.93.21-.93,1V97.6h-.44Z"/><path class="cls-5" d="M35.51,95.92v.33c0,.78.13,1,.74,1s.88,0,.88-.71h.45v.13c0,.72-.18,1-1.25,1S35,97.27,35,95.82,35.25,94,36.33,94s1.25.43,1.25,1.4v.54Zm1.62-.45c0-.75,0-1.09-.81-1.09s-.81.34-.81,1.09Z"/><path class="cls-5" d="M38.44,98.47c.57,0,.66-.11.83-.87h-.2L38,94h.44l.91,3.12h0L40.15,94h.45l-1,3.94c-.15.63-.42,1-1,1a.66.66,0,0,1-.21,0Z"/><path class="cls-5" d="M43,94h.44v.53h0A1,1,0,0,1,44.4,94c.48,0,.84.1,1,.58A1.08,1.08,0,0,1,46.5,94a.93.93,0,0,1,1.06,1V97.6h-.45V95.29c0-.71-.29-.87-.75-.87s-.86.23-.86.94V97.6h-.44V95.13c0-.53-.22-.71-.71-.71-.65,0-.91.4-.91,1.14v2H43Z"/><path class="cls-5" d="M50.4,97.29a1.19,1.19,0,0,1-1,.37c-.91,0-1.11-.44-1.11-1.12s.16-1.12,1.11-1.12c.68,0,.83.08,1,.32h0v-.65c0-.53-.05-.71-.79-.71s-.75.18-.75.64h-.45v-.19c0-.43.11-.85,1.22-.85s1.22.32,1.22,1V97.6h-.4Zm-.86-.08c.6,0,.86-.15.86-.69s-.26-.7-.86-.7-.85.15-.85.7S49,97.21,49.54,97.21Z"/><path class="cls-5" d="M51.66,98.47c.57,0,.67-.11.83-.87h-.2l-1-3.57h.44l.91,3.12h0L53.38,94h.45l-1,3.94c-.16.63-.43,1-1,1a.66.66,0,0,1-.21,0Z"/><path class="cls-5" d="M56.26,92.53h.45v2h0a1,1,0,0,1,1-.5c.93,0,1.2.44,1.2,1.84s-.27,1.84-1.27,1.84a.86.86,0,0,1-.92-.51h0v.45h-.45Zm1.3,1.89c-.64,0-.85.31-.85,1.19,0,1.33.11,1.6.85,1.6s.86-.16.86-1.39S58.26,94.42,57.56,94.42Z"/><path class="cls-5" d="M60,95.92v.33c0,.78.14,1,.75,1s.88,0,.88-.71h.45v.13c0,.72-.18,1-1.25,1s-1.32-.39-1.32-1.84S59.76,94,60.84,94s1.25.43,1.25,1.4v.54Zm1.63-.45c0-.75,0-1.09-.81-1.09s-.82.34-.82,1.09Z"/><path class="cls-5" d="M64.82,94h.44v.45h0a1,1,0,0,1,1-.5c.92,0,1.19.44,1.19,1.84s-.27,1.84-1.26,1.84a.85.85,0,0,1-.92-.51h0v1.7h-.44Zm1.3.39c-.65,0-.86.31-.86,1.19,0,1.33.11,1.6.86,1.6s.85-.16.85-1.39S66.82,94.42,66.12,94.42Z"/><path class="cls-5" d="M68.26,92.53h.45V97.6h-.45Z"/><path class="cls-5" d="M71.66,97.29a1.17,1.17,0,0,1-1,.37c-.91,0-1.11-.44-1.11-1.12s.16-1.12,1.11-1.12c.68,0,.83.08,1,.32h0v-.65c0-.53-.05-.71-.79-.71s-.75.18-.75.64h-.45v-.19c0-.43.11-.85,1.22-.85s1.22.32,1.22,1V97.6h-.41Zm-.85-.08c.59,0,.85-.15.85-.69s-.26-.7-.85-.7-.86.15-.86.7S70.21,97.21,70.81,97.21Z"/><path class="cls-5" d="M74.79,95.22c0-.65-.13-.84-.73-.84s-.82.11-.82,1.44.11,1.43.82,1.43.79-.17.79-.94h.45v.23c0,.92-.44,1.12-1.24,1.12-1.17,0-1.31-.39-1.31-1.84S73,94,74.06,94s1.17.3,1.17,1.24Z"/><path class="cls-5" d="M76.35,95.92v.33c0,.78.13,1,.74,1s.88,0,.88-.71h.45v.13c0,.72-.18,1-1.25,1s-1.31-.39-1.31-1.84S76.09,94,77.17,94s1.25.43,1.25,1.4v.54ZM78,95.47c0-.75,0-1.09-.81-1.09s-.81.34-.81,1.09Z"/><path class="cls-5" d="M81.3,97.15h0a.85.85,0,0,1-.92.51c-1,0-1.26-.44-1.26-1.84S79.37,94,80.29,94a1,1,0,0,1,1,.5h0v-2h.44V97.6H81.3Zm-.86.06c.75,0,.86-.27.86-1.6,0-.88-.22-1.19-.86-1.19s-.85.16-.85,1.4S79.74,97.21,80.44,97.21Z"/><path class="cls-5" d="M86.57,97.29a1.19,1.19,0,0,1-1,.37c-.91,0-1.11-.44-1.11-1.12s.16-1.12,1.11-1.12c.68,0,.83.08,1,.32h0v-.65c0-.53,0-.71-.79-.71S85,94.56,85,95h-.44v-.19c0-.43.1-.85,1.21-.85S87,94.3,87,95V97.6h-.4Zm-.86-.08c.6,0,.86-.15.86-.69s-.26-.7-.86-.7-.85.15-.85.7S85.12,97.21,85.71,97.21Z"/><path class="cls-5" d="M87.83,94.44h-.37V94h.37V93.2h.45V94h1.16v.41H88.28v2.39c0,.29.09.42.39.42s.48-.06.48-.85h.41c0,1.14-.37,1.26-.89,1.26s-.84-.2-.84-.74Z"/><path class="cls-5" d="M92,94h.45v.44h0a.78.78,0,0,1,.83-.49c.57,0,.83.24.83,1v.28H93.7c0-.66-.07-.84-.58-.84s-.68.25-.68.74V97.6H92Z"/><path class="cls-5" d="M96.67,97.29a1.16,1.16,0,0,1-1,.37c-.91,0-1.11-.44-1.11-1.12s.16-1.12,1.11-1.12c.68,0,.83.08,1,.32h0v-.65c0-.53,0-.71-.79-.71s-.75.18-.75.64h-.45v-.19c0-.43.11-.85,1.22-.85s1.22.32,1.22,1V97.6h-.41Zm-.85-.08c.6,0,.85-.15.85-.69s-.25-.7-.85-.7-.85.15-.85.7S95.23,97.21,95.82,97.21Z"/><path class="cls-5" d="M97.82,94h.45v.46h0a1,1,0,0,1,1-.51c.83,0,1,.41,1,1.1V97.6h-.45V95.19c0-.42-.09-.81-.67-.81s-.93.21-.93,1V97.6h-.45Z"/><path class="cls-5" d="M103.24,97h0a.89.89,0,0,1-.93.52c-1.16,0-1.24-.77-1.24-1.75S101.14,94,102.3,94a.87.87,0,0,1,.93.53h0V94h.45v3.54c0,1.06-.33,1.35-1.42,1.35-.7,0-1.12-.24-1.11-1h.45c0,.42.18.54.76.54s.87-.15.87-1Zm-.9.07c.73,0,.9-.29.9-1.3s-.17-1.31-.9-1.31-.79.36-.79,1.31S101.62,97,102.34,97Z"/><path class="cls-5" d="M104.86,95.92v.33c0,.78.13,1,.75,1s.87,0,.87-.71h.45v.13c0,.72-.17,1-1.25,1s-1.31-.39-1.31-1.84.24-1.84,1.31-1.84,1.25.43,1.25,1.4v.54Zm1.62-.45c0-.75,0-1.09-.81-1.09s-.81.34-.81,1.09Z"/><path class="cls-5" d="M109.62,96.71c0-1.17.34-1.39,1.59-1.51.94-.09,1.06-.2,1.06-1.23,0-.81-.12-1-1.08-1s-1.09.14-1.09.94v.25h-.45v-.3c0-.85.08-1.38,1.56-1.38,1.17,0,1.55.24,1.55,1.48s-.1,1.65-1.45,1.73c-1.09.07-1.2.32-1.2.91v.51h2.62v.49h-3.11Z"/><path class="cls-5" d="M116.71,94c1.18,0,1.32.42,1.32,1.84s-.16,1.84-1.32,1.84-1.32-.37-1.32-1.84S115.53,94,116.71,94Zm0,3.27c.71,0,.83-.1.83-1.43s-.12-1.44-.83-1.44-.83.11-.83,1.44S116,97.25,116.71,97.25Z"/><path class="cls-5" d="M119,94.44h-.44V94H119v-.64c0-.66.31-.91.93-.91h.32v.4h-.3c-.29,0-.5.1-.5.51V94h.78v.41h-.78V97.6H119Z"/><path class="cls-5" d="M122.58,94.44h-.37V94h.37V93.2H123V94h1.16v.41H123v2.39c0,.29.09.42.38.42s.49-.06.49-.85h.4c0,1.14-.36,1.26-.88,1.26s-.84-.2-.84-.74Z"/><path class="cls-5" d="M124.79,92.53h.45v2h0a1,1,0,0,1,1-.51c.83,0,1.05.41,1.05,1.1V97.6h-.44V95.19c0-.42-.1-.81-.68-.81s-.93.21-.93,1V97.6h-.45Z"/><path class="cls-5" d="M128.46,95.92v.33c0,.78.14,1,.75,1s.88,0,.88-.71h.44v.13c0,.72-.17,1-1.24,1S128,97.27,128,95.82s.24-1.84,1.32-1.84,1.24.43,1.24,1.4v.54Zm1.63-.45c0-.75,0-1.09-.81-1.09s-.82.34-.82,1.09Z"/><path class="cls-5" d="M133.22,94h.45v.46h0a1,1,0,0,1,1-.51c.83,0,1.05.41,1.05,1.1V97.6h-.45V95.19c0-.42-.09-.81-.67-.81s-.93.21-.93,1V97.6h-.45Z"/><path class="cls-5" d="M136.89,95.92v.33c0,.78.13,1,.75,1s.88,0,.88-.71H139v.13c0,.72-.17,1-1.24,1s-1.32-.39-1.32-1.84.24-1.84,1.32-1.84,1.24.43,1.24,1.4v.54Zm1.63-.45c0-.75,0-1.09-.82-1.09s-.81.34-.81,1.09Z"/><path class="cls-5" d="M142.2,97.6h-.44v-.46h0a.94.94,0,0,1-1,.52c-.83,0-1.06-.41-1.06-1.11V94h.45v2.42c0,.41.09.8.68.8s.93-.21.93-1V94h.44Z"/><path class="cls-5" d="M143.07,94.44h-.38V94h.38V93.2h.44V94h1.16v.41h-1.16v2.39c0,.29.09.42.39.42s.48-.06.48-.85h.41c0,1.14-.37,1.26-.88,1.26-.66,0-.84-.2-.84-.74Z"/><path class="cls-5" d="M145.28,94h.45v.44h0a.78.78,0,0,1,.83-.49c.56,0,.82.24.82,1v.28H147c0-.66-.07-.84-.58-.84s-.68.25-.68.74V97.6h-.45Z"/><path class="cls-5" d="M150,97.29a1.18,1.18,0,0,1-1,.37c-.91,0-1.12-.44-1.12-1.12s.17-1.12,1.12-1.12c.68,0,.82.08,1,.32h0v-.65c0-.53,0-.71-.79-.71s-.75.18-.75.64h-.45v-.19c0-.43.1-.85,1.22-.85s1.22.32,1.22,1V97.6H150Zm-.85-.08c.59,0,.85-.15.85-.69s-.26-.7-.85-.7-.86.15-.86.7S148.51,97.21,149.11,97.21Z"/><path class="cls-5" d="M151.23,92.53h.45V97.6h-.45Z"/><path class="cls-5" d="M154.52,92.53H155v2h0a1,1,0,0,1,1-.5c.93,0,1.2.44,1.2,1.84s-.27,1.84-1.27,1.84a.85.85,0,0,1-.91-.51h0v.45h-.45Zm1.31,1.89c-.65,0-.86.31-.86,1.19,0,1.33.11,1.6.86,1.6s.85-.16.85-1.39S156.53,94.42,155.83,94.42Z"/><path class="cls-5" d="M159.1,94c1.18,0,1.32.42,1.32,1.84s-.15,1.84-1.32,1.84-1.31-.37-1.31-1.84S157.93,94,159.1,94Zm0,3.27c.72,0,.83-.1.83-1.43s-.11-1.44-.83-1.44-.82.11-.82,1.44S158.39,97.25,159.1,97.25Z"/><path class="cls-5" d="M163.19,97.29a1.18,1.18,0,0,1-1,.37c-.91,0-1.12-.44-1.12-1.12s.17-1.12,1.12-1.12c.68,0,.82.08,1,.32h0v-.65c0-.53-.05-.71-.79-.71s-.75.18-.75.64h-.45v-.19c0-.43.11-.85,1.22-.85s1.22.32,1.22,1V97.6h-.41Zm-.85-.08c.59,0,.85-.15.85-.69s-.26-.7-.85-.7-.86.15-.86.7S161.74,97.21,162.34,97.21Z"/><path class="cls-5" d="M164.34,94h.45v.44h0a.78.78,0,0,1,.83-.49c.57,0,.82.24.82,1v.28h-.4c0-.66-.07-.84-.58-.84s-.68.25-.68.74V97.6h-.45Z"/><path class="cls-5" d="M169.07,97.15h0a.85.85,0,0,1-.92.51c-1,0-1.26-.44-1.26-1.84s.27-1.84,1.19-1.84a1,1,0,0,1,1,.5h0v-2h.44V97.6h-.44Zm-.86.06c.75,0,.86-.27.86-1.6,0-.88-.22-1.19-.86-1.19s-.85.16-.85,1.4S167.51,97.21,168.21,97.21Z"/><path class="cls-5" d="M6.47,104.32v.33c0,.78.13,1,.75,1s.87,0,.87-.71h.45v.13c0,.72-.17,1-1.25,1S6,105.67,6,104.22s.24-1.85,1.31-1.85,1.25.44,1.25,1.41v.54Zm1.62-.45c0-.75,0-1.09-.81-1.09s-.81.34-.81,1.09Z"/><path class="cls-5" d="M11.42,105.55h0a.84.84,0,0,1-.91.51c-1,0-1.27-.44-1.27-1.84s.27-1.85,1.2-1.85a1,1,0,0,1,1,.51h0v-1.95h.45V106h-.45Zm-.86.06c.75,0,.86-.26.86-1.6,0-.88-.21-1.19-.86-1.19s-.85.16-.85,1.4S9.86,105.61,10.56,105.61Z"/><path class="cls-5" d="M14.83,105.36h0a.88.88,0,0,1-.93.52c-1.15,0-1.23-.77-1.23-1.75s.08-1.76,1.23-1.76a.87.87,0,0,1,.93.54h0v-.48h.45V106c0,1.06-.33,1.35-1.43,1.35-.69,0-1.12-.25-1.1-1h.45c0,.42.18.54.75.54.73,0,.88-.15.88-1Zm-.91.07c.73,0,.91-.29.91-1.3s-.18-1.31-.91-1.31-.78.36-.78,1.31S13.2,105.43,13.92,105.43Z"/><path class="cls-5" d="M16.44,104.32v.33c0,.78.14,1,.75,1s.88,0,.88-.71h.45v.13c0,.72-.18,1-1.25,1S16,105.67,16,104.22s.24-1.85,1.32-1.85,1.25.44,1.25,1.41v.54Zm1.63-.45c0-.75,0-1.09-.81-1.09s-.82.34-.82,1.09Z"/><path class="cls-5" d="M19.7,104.9c0,.61.1.75.76.75s.86-.1.86-.71c0-.46-.05-.5-.9-.55s-1.14-.18-1.14-1,.14-1,1.2-1,1.25.24,1.25,1h-.45c0-.54-.15-.58-.82-.58s-.73.06-.73.62.06.54.82.59c1.05.06,1.22.14,1.22.93s-.17,1.14-1.32,1.14c-.82,0-1.2-.1-1.2-1.16Z"/><path class="cls-5" d="M22.86,105.36h.49V106h-.49Z"/></svg>