<svg id="Layer_1" data-name="Layer 1" xmlns="http://www.w3.org/2000/svg" xmlns:xlink="http://www.w3.org/1999/xlink" viewBox="0 0 178.58 249.45"><defs><style>.cls-1{fill:none;}.cls-2{clip-path:url(#clip-path);}.cls-3{fill:#fff;}.cls-4{opacity:0.02;}.cls-5{fill:#090400;}.cls-6{fill:#2baa54;}.cls-7{clip-path:url(#clip-path-2);}.cls-8{fill:#fbfbfb;}</style><clipPath id="clip-path"><rect class="cls-1" x="-5.67" y="-5.67" width="189.92" height="260.79"/></clipPath><clipPath id="clip-path-2"><rect class="cls-1" y="-302.23" width="189.92" height="260.79"/></clipPath></defs><g class="cls-2"><rect class="cls-3" x="-5.67" y="-5.67" width="189.92" height="260.79"/><g class="cls-4"><path class="cls-5" d="M173.41,92.29V58.62l-1-1-6.08-6.09v-53h-1v52l-6.09-6.09V-1.49h-1V44.78l1,1.06,6.09,6.08V83.1q-2.94-3-6.09-5.73l-1-.84A106.72,106.72,0,0,0,126.64,58V-1.49h-1V57.59c-2.46-.89-5-1.7-7.5-2.41v-59h-1V54.91a9.65,9.65,0,0,0-.43.92l-6.79,7.53a97,97,0,0,0-41.26,0l-6.78-7.53s-.43-.93-.44-.92V-3.83h-1v59c-2.54.71-5,1.52-7.5,2.41V-1.49h-1V58a107.06,107.06,0,0,0-31.6,18.57l-1,.85q-3.15,2.73-6.09,5.72V51.92l6.09-6.08,1-1.05V-1.49h-1V44.42l-6.09,6.09v-52h-1v53L6.17,57.6l-1,.9V92.29a106.57,106.57,0,0,0,0,131.45V257.4l1,1,6.08,6.08v53h1v-52l6.09,6.09v45.92h1v-46.3l-1-1-6.09-6.08V232.93q2.94,3,6.09,5.73l1,.85a107,107,0,0,0,31.6,18.56v59.46h1V258.44c2.46.89,5,1.7,7.5,2.41v58.47h1v-58.2l.44-.91,6.78-7.54a97,97,0,0,0,41.26,0l6.79,7.54.43.92v58.19h1V260.85q3.81-1.07,7.5-2.41v59.09h1V258.07a106.9,106.9,0,0,0,31.6-18.56l1-.85q3.15-2.74,6.09-5.73v31.18l-6.09,6.08-1,1.08v46.26h1V271.61l6.09-6.09v52h1v-53l6.08-6.08,1-1V223.74a106.57,106.57,0,0,0,0-131.45ZM5.17,181.65a87.57,87.57,0,0,1,0-47.27Zm0-50.72a88.43,88.43,0,0,0,0,54.17V204a95.69,95.69,0,0,1,0-91.92Zm0-20.92a96.68,96.68,0,0,0,0,96V222.1a105.56,105.56,0,0,1,0-128.17Zm7.08,153.1L6.17,257V225q2.89,3.58,6.08,6.92Zm0-32.66c-2.12-2.26-4.16-4.61-6.08-7V207.72a98,98,0,0,0,6.08,9Zm0-15.42a98.57,98.57,0,0,1-6.08-9.27V188a88.83,88.83,0,0,0,6.08,13.25Zm0-15.82a86.7,86.7,0,0,1-6.08-14.27V131.09a87,87,0,0,1,6.08-14.26Zm0-84.46A89.29,89.29,0,0,0,6.17,128V110.27A98.57,98.57,0,0,1,12.25,101Zm0-15.4a96.54,96.54,0,0,0-6.08,9V92.63c1.92-2.44,4-4.79,6.08-7Zm0-15.23Q9.07,87.45,6.17,91V59l6.08-6.09Zm77-22a96.26,96.26,0,0,1,19.86,2.07l-5.88,6.54s-.32,1-.31,1V89.15a69.89,69.89,0,0,0-27.34,0V71.71s-.3-1-.3-1l-5.89-6.54A96.26,96.26,0,0,1,89.29,62.14Zm0,164.55a69,69,0,0,1-68.95-68.86c0-.16,0-.32,0-.49,0-.74,0-1.48.06-2.21a69,69,0,0,1,31.53-55l1-.65a67.58,67.58,0,0,1,7.5-4l1-.46A70.35,70.35,0,0,1,69,92.12l1-.28c1.52-.45,3.07-.84,4.64-1.19l1-.22a69.38,69.38,0,0,1,27.34,0l1,.22c1.58.35,3.13.75,4.67,1.2l1,.28A69.8,69.8,0,0,1,117.14,95l1,.45a69.36,69.36,0,0,1,7.5,4l1,.65a69,69,0,0,1,31.54,55.08c0,.66,0,1.32,0,2,0,.24,0,.47,0,.7A69,69,0,0,1,89.29,226.69Zm19.34-1.46v18c-1.54.35-3.1.66-4.67.92V226.4C105.54,226.07,107.09,225.67,108.63,225.23Zm-34,1.17v17.75c-1.56-.26-3.11-.57-4.64-.91v-18C71.51,225.67,73.05,226.07,74.62,226.4ZM70,90.53V72.8c1.53-.35,3.08-.65,4.64-.92V89.36C73.05,89.69,71.51,90.09,70,90.53Zm38.65,0c-1.54-.44-3.09-.84-4.67-1.17V71.88c1.57.27,3.13.57,4.67.92Zm-95.38-6q2.94-3,6.09-5.82l1-.87A105.92,105.92,0,0,1,51.94,59l1-.38c2.46-.9,5-1.72,7.5-2.44l1,.63,6.09,6.76q-3.07.72-6.09,1.62l-1,.3c-2.54.8-5,1.7-7.5,2.7l-1,.41A97.26,97.26,0,0,0,20.34,90l-1,1q-3.21,3.34-6.09,7Zm0,15.15q2.88-3.72,6.09-7.16l1-1a96.33,96.33,0,0,1,31.6-21.76l1-.41c2.45-1,5-1.92,7.5-2.72l1-.31C63.7,65.58,66,65,68.3,64.46L74.14,71a86.75,86.75,0,0,0-12.7,3.19l-1,.34c-2.55.89-5.06,1.88-7.5,3l-1,.47a89,89,0,0,0-31.6,24.86l-1,1.27a88.75,88.75,0,0,0-6.09,9Zm0,15.34a88.65,88.65,0,0,1,6.09-9.31l1-1.3A87.94,87.94,0,0,1,51.94,79l1-.47c2.44-1.12,5-2.13,7.5-3l1-.35Q65.15,73.94,69,73V90.81a70.08,70.08,0,0,0-49.64,66.93c0,.07,0,.14,0,.21v.19a69.44,69.44,0,0,0,.95,11.06l0,.53a70,70,0,0,0,31.6,47.38l1,.65a69.56,69.56,0,0,0,7.5,4l1,.46A72.22,72.22,0,0,0,69,225V243q-3.84-.92-7.54-2.16l-1-.35c-2.55-.9-5.06-1.91-7.5-3l-1-.47a87.83,87.83,0,0,1-31.6-25.37l-1-1.3a88.52,88.52,0,0,1-6.09-9.3ZM61.44,259.19l-1,.63c-2.54-.72-5-1.54-7.5-2.44l-1-.38a106.1,106.1,0,0,1-31.6-18.8l-1-.88q-3.15-2.79-6.09-5.82V218q2.88,3.65,6.09,7l1,1a97.26,97.26,0,0,0,31.6,21.4l1,.41c2.45,1,5,1.9,7.5,2.7l1,.3c2,.6,4,1.15,6.09,1.62Zm6.86-7.62c-2.32-.52-4.6-1.12-6.86-1.81l-1-.3c-2.54-.81-5-1.72-7.5-2.73l-1-.41a96.3,96.3,0,0,1-31.6-21.75l-1-1.06q-3.21-3.42-6.09-7.16V203a88.75,88.75,0,0,0,6.09,9l1,1.27a89,89,0,0,0,31.6,24.87l1,.46c2.44,1.11,5,2.11,7.5,3l1,.34a88.06,88.06,0,0,0,12.7,3.2Zm21,2.32a95.58,95.58,0,0,1-19.86-2.07l5.88-6.54s.32-1,.31-1V226.61a69.38,69.38,0,0,0,27.34,0v17.71s.3,1,.31,1l5.88,6.54A95.58,95.58,0,0,1,89.29,253.89Zm76-22.39c-2,2-4,4-6.09,5.82l-1,.88a105.89,105.89,0,0,1-31.6,18.8l-1,.38c-2.46.9-5,1.72-7.5,2.44l-1-.63-6.09-6.76c2.06-.47,4.08-1,6.09-1.62l1-.3q3.83-1.2,7.5-2.7l1-.41a97.26,97.26,0,0,0,31.6-21.4l1-1q3.21-3.34,6.09-7Zm0-15.15q-2.88,3.74-6.09,7.16l-1,1.06a96.2,96.2,0,0,1-31.6,21.75l-1,.41q-3.67,1.52-7.5,2.73l-1,.31c-2.26.68-4.54,1.28-6.86,1.8l-5.84-6.48a88.06,88.06,0,0,0,12.7-3.2l1-.34c2.55-.88,5.06-1.88,7.5-3l1-.46a89,89,0,0,0,31.6-24.87l1-1.27a89.75,89.75,0,0,0,6.09-9Zm0-15.33a88.52,88.52,0,0,1-6.09,9.3l-1,1.3A87.83,87.83,0,0,1,126.64,237l-1,.47c-2.44,1.12-5,2.13-7.5,3l-1,.35c-2.46.83-5,1.55-7.51,2.16V224.94a69.47,69.47,0,0,0,7.51-2.77l1-.46a69.56,69.56,0,0,0,7.5-4l1-.65a70,70,0,0,0,31.6-47.38l0-.51a70,70,0,0,0,.95-11.1V158c0-.07,0-.14,0-.22a70.07,70.07,0,0,0-49.61-66.92V73c2.54.61,5.05,1.32,7.51,2.15l1,.35c2.55.9,5.06,1.91,7.5,3l1,.47a87.94,87.94,0,0,1,31.6,25.37l1,1.3a88.52,88.52,0,0,1,6.09,9.3Zm0-88a88.75,88.75,0,0,0-6.09-9l-1-1.27a89,89,0,0,0-31.6-24.86l-1-.47c-2.44-1.11-5-2.1-7.5-3l-1-.34A86.75,86.75,0,0,0,104.44,71l5.84-6.49c2.32.52,4.6,1.12,6.86,1.81l1,.3q3.83,1.22,7.5,2.73l1,.41a96.2,96.2,0,0,1,31.6,21.75l1,1.06c2.14,2.28,4.17,4.68,6.09,7.16Zm0-15q-2.88-3.64-6.09-7l-1-1a97.26,97.26,0,0,0-31.6-21.4l-1-.41q-3.67-1.5-7.5-2.7l-1-.3c-2-.6-4-1.14-6.09-1.62l6.09-6.76,1-.63c2.54.72,5,1.54,7.5,2.44l1,.38a106.1,106.1,0,0,1,31.6,18.8l1,.88c2.1,1.86,4.14,3.8,6.09,5.82Zm7.08,159-6.08,6.09v-31.2q3.18-3.33,6.08-6.92Zm0-33.62c-1.92,2.44-4,4.79-6.08,7.06V216.69a99.28,99.28,0,0,0,6.08-9Zm0-17.64a95.4,95.4,0,0,1-6.08,9.27V201.28A88.72,88.72,0,0,0,172.41,188Zm0-20.81a87,87,0,0,1-6.08,14.26V116.82a87,87,0,0,1,6.08,14.26Zm0-56.95a88.83,88.83,0,0,0-6.08-13.25V101a96.63,96.63,0,0,1,6.08,9.27Zm0-19.69a98,98,0,0,0-6.08-9V85.58c2.12,2.26,4.16,4.61,6.08,7Zm0-17.27q-2.9-3.58-6.08-6.92V52.92L172.41,59Zm1,43.33a87.38,87.38,0,0,1,0,47.29Zm0,50.74a88.26,88.26,0,0,0,0-54.18V112.05a95.71,95.71,0,0,1,0,91.93Zm0,20.92a96.7,96.7,0,0,0,0-96V93.93a105.56,105.56,0,0,1,0,128.17Z"/><path class="cls-5" d="M120.92,166.38c-2.32,3.91-10,15.69-14.58,18.7a23.33,23.33,0,0,1-11.64,3.51,8.9,8.9,0,0,1-5.85-1.75c-1.92-1.59-3.18-5.2-3.07-8.8.07-2.69.93-4.77,2.43-5.85a.91.91,0,0,1,.33-.15c1.47-.2,2.73-.43,3.31-.55a.76.76,0,0,1,.91.6c.69,3.33,1.81,5.12,4.11,6.44,4.29-3.31,7.16-7,8.32-10.77l.24-.75c1.17-3.54,3.13-9.46-2.9-15.74-8-8.39-15.35-11.25-21.68-8.42-6.93,3.09-10.13,6.89-10.72,7.63a.76.76,0,0,1-1.07.12A7.56,7.56,0,0,1,66.2,147a.77.77,0,0,1,.21-.78c.57-.52,14.08-12.66,29.73-12.66a27.31,27.31,0,0,1,16.14,5.18,1.54,1.54,0,0,0,1.21-.56c.57-.62,1.5-2.23,1.2-6.11-.43-5.65-2.26-9.31-17-18.18C91.85,119.6,84.53,126,79.16,126a5.63,5.63,0,0,1-3.89-1.46,9.14,9.14,0,0,1-3-6.92c0-4.06,2.28-8.63,6.17-12.21a14.84,14.84,0,0,0,1.09-1.11,15,15,0,0,0-1.94.71c-4.67,2-13.92,11.61-14.92,22.93-1,11.61,3.11,18.86,3.14,18.93l.31.61a.77.77,0,0,1-.23,1c-2.82,2.11-16.58,13.81-11.75,37C58.8,208,89,215,99.4,215A12.15,12.15,0,0,0,101,215a17.75,17.75,0,0,0,2.37-.38c-.94-.46-2.78-1.08-4.44-1.65l-3.48-1.21c-8.17-3-23-10.19-30.22-25-6.4-13,.53-28.34,2.83-32.74a3,3,0,0,1,.18-.36.91.91,0,0,1,.62-.44c.24,0,.33.14.49.32l.24.25,3.89,4.16c.17.17.45.49.4.72a18.71,18.71,0,0,0,.71,8.07,3.32,3.32,0,0,0,.22.53.77.77,0,0,1,.09.36c0,2.26.08,13.92,3.06,20.79,3.14,7.23,5.92,12,15.71,12,11.5,0,20-6.07,26.74-19.12,4.93-9.52,5.37-22.39,5-29.58C124.64,156.2,123.28,162.41,120.92,166.38Zm-45.37-9.49c3.16-3.55,11.1-8,16.79-5.43,6.9,3.18,10.6,12,5.43,16.32-3.51,2.9-11.09,4.17-14,3.12C80,169.53,73.19,167.27,75.55,156.89Z"/><path class="cls-5" d="M7.72,239.49v2l-.5-.44-.16.19,3,2.59.17-.18L9.45,243v-2.41h1.23v1.12l-.66.57.17.18,1.43-1.25-.17-.18-.52.46v-2l.52.46.17-.18-1.5-1.32-.16.19.72.63v1.11H9.45V238l.69-.61-.16-.18-3,2.6.17.19Zm1.48,3.33L8,241.75v-1.12H9.2Zm0-2.44H8v-1.11L9.2,238.2Z"/></g></g><rect class="cls-5" x="-5.67" y="-5.67" width="189.92" height="45.68"/><polygon class="cls-6" points="184.25 -5.67 121.97 -5.67 143.03 20.5 184.25 20.5 184.25 -5.67"/><polygon class="cls-6" points="-5.67 -5.67 56.62 -5.67 35.55 20.5 -5.67 20.5 -5.67 -5.67"/><polygon class="cls-3" points="122.48 -5.67 121.96 -5.67 121.5 -5.29 142.79 21 184.25 21 184.25 20 143.27 20 122.48 -5.67"/><polygon class="cls-3" points="56.1 -5.67 35.31 20 -5.67 20 -5.67 21 35.79 21 57.08 -5.29 56.62 -5.67 56.1 -5.67"/><g class="cls-7"><g class="cls-4"><path class="cls-5" d="M179.08-204.28v-33.67l-1-1L172-245.06v-53h-1v52l-6.09-6.09V-298h-1v46.26l1,1.06,6.09,6.09v31.17q-2.94-3-6.09-5.72l-1-.85a106.82,106.82,0,0,0-31.6-18.56V-298h-1V-239q-3.69-1.34-7.5-2.41v-59h-1v58.74s-.45.92-.43.92l-6.79,7.53A96.73,96.73,0,0,0,95-235.43a96.73,96.73,0,0,0-20.63,2.22l-6.78-7.53s-.43-.92-.44-.92V-300.4h-1v59c-2.54.72-5,1.52-7.5,2.42V-298h-1v59.45A106.82,106.82,0,0,0,26-220l-1,.85q-3.15,2.74-6.09,5.72v-31.17L25-250.73l1-1V-298H25v45.91L18.92-246v-52h-1v53L11.84-239l-1,.91v33.79a106.24,106.24,0,0,0-22.68,65.72A106.29,106.29,0,0,0,10.84-72.82v33.66l1,1L17.92-32V21h1V-31L25-25V21h1V-25.33l-1-1-6.09-6.09V-63.63q2.94,3,6.09,5.72l1,.85A106.82,106.82,0,0,0,57.61-38.5V21h1V-38.12c2.46.89,5,1.7,7.5,2.41V22.75h1V-35.44l.43-.92,6.79-7.53A96.73,96.73,0,0,0,95-41.67a96.73,96.73,0,0,0,20.63-2.22l6.78,7.53.44.92V22.75h1V-35.71c2.54-.71,5-1.52,7.5-2.41V21h1V-38.49a107.06,107.06,0,0,0,31.6-18.57l1-.85q3.15-2.75,6.09-5.72v31.17l-6.09,6.09-1,1.08V21h1V-25L171-31V21h1V-32l6.08-6.09,1-1V-72.82a106.29,106.29,0,0,0,22.68-65.73A106.29,106.29,0,0,0,179.08-204.28ZM10.84-114.91a87,87,0,0,1-3.25-23.64,87,87,0,0,1,3.25-23.64Zm0-50.72a87.91,87.91,0,0,0-4.25,27.08,87.93,87.93,0,0,0,4.25,27.09v18.87a95.28,95.28,0,0,1-11.76-46,95.31,95.31,0,0,1,11.76-46Zm0-20.93a96.31,96.31,0,0,0-12.76,48,96.31,96.31,0,0,0,12.76,48v16.07a105.24,105.24,0,0,1-21.68-64.08,105.26,105.26,0,0,1,21.68-64.08Zm7.08,153.1-6.08-6.08v-32q2.89,3.58,6.08,6.91Zm0-32.65c-2.12-2.26-4.16-4.62-6.08-7.06V-88.84a99.28,99.28,0,0,0,6.08,9Zm0-15.43a95.26,95.26,0,0,1-6.08-9.26v-17.73a88.72,88.72,0,0,0,6.08,13.24Zm0-15.82a87,87,0,0,1-6.08-14.26v-53.86a87,87,0,0,1,6.08-14.26Zm0-84.45a88.37,88.37,0,0,0-6.08,13.25v-17.73a95.4,95.4,0,0,1,6.08-9.27Zm0-15.41a99.28,99.28,0,0,0-6.08,9v-15.67c1.92-2.44,4-4.79,6.08-7.06Zm0-15.22q-3.18,3.31-6.08,6.92v-32l6.08-6.09Zm77-22a95.58,95.58,0,0,1,19.86,2.08l-5.88,6.54s-.32,1-.31,1v17.43A70,70,0,0,0,95-208.77a70,70,0,0,0-13.67,1.35v-17.43s-.3-1-.31-1l-5.88-6.54A95.58,95.58,0,0,1,95-234.43ZM95-69.87A69,69,0,0,1,26-138.73c0-.17,0-.33,0-.49,0-.75,0-1.48.06-2.22a69,69,0,0,1,31.53-55l1-.64a69.36,69.36,0,0,1,7.5-4.05l1-.45a68.28,68.28,0,0,1,7.54-2.84l1-.29c1.52-.44,3.07-.84,4.64-1.18l1-.22A69.19,69.19,0,0,1,95-207.5a69.19,69.19,0,0,1,13.67,1.37l1,.22c1.58.34,3.13.74,4.67,1.19l1,.29a67.74,67.74,0,0,1,7.51,2.83l1,.45a69.36,69.36,0,0,1,7.5,4.05l1,.64a68.94,68.94,0,0,1,31.53,55.09c0,.66,0,1.32,0,2,0,.23,0,.46,0,.69A69,69,0,0,1,95-69.87Zm19.34-1.47v18c-1.54.34-3.1.65-4.67.92V-70.16C111.21-70.5,112.76-70.9,114.3-71.34Zm-34,1.18v17.75c-1.56-.27-3.11-.57-4.64-.92v-18C77.17-70.89,78.72-70.5,80.29-70.16ZM75.65-206v-17.73c1.53-.34,3.08-.65,4.64-.91v17.47C78.72-206.87,77.17-206.48,75.65-206Zm38.65,0c-1.54-.44-3.09-.84-4.67-1.18v-17.47c1.57.26,3.13.57,4.67.92Zm-95.38-6q2.94-3,6.09-5.81l1-.88a105.89,105.89,0,0,1,31.6-18.8l1-.38q3.69-1.36,7.5-2.44l1,.63L73.2-233c-2,.47-4.08,1-6.09,1.62l-1,.3q-3.82,1.2-7.5,2.7l-1,.41A97.1,97.1,0,0,0,26-206.53l-1,1q-3.21,3.36-6.09,7Zm0,15.16Q21.8-200.61,25-204l1-1a96.2,96.2,0,0,1,31.6-21.75l1-.41q3.68-1.52,7.5-2.73l1-.31c2.26-.68,4.54-1.29,6.86-1.81l5.84,6.49a88.06,88.06,0,0,0-12.7,3.2l-1,.34c-2.55.88-5.06,1.88-7.5,3l-1,.47A88.87,88.87,0,0,0,26-193.76l-1,1.27a89.75,89.75,0,0,0-6.09,9Zm0,15.33a88.52,88.52,0,0,1,6.09-9.3l1-1.3a88,88,0,0,1,31.6-25.38l1-.46c2.44-1.13,5-2.14,7.5-3l1-.35q3.7-1.24,7.54-2.16v17.78A70.05,70.05,0,0,0,25-138.82c0,.07,0,.13,0,.2v.2A69.64,69.64,0,0,0,26-127.36l0,.53a70.07,70.07,0,0,0,31.6,47.38l1,.64a71.46,71.46,0,0,0,7.5,4l1,.45a68,68,0,0,0,7.54,2.78v18.06q-3.84-.91-7.54-2.17l-1-.34c-2.55-.9-5.06-1.91-7.5-3l-1-.47A88,88,0,0,1,26-84.94l-1-1.31a87.49,87.49,0,0,1-6.09-9.3ZM67.11-37.37l-1,.62q-3.81-1.08-7.5-2.43l-1-.39A105.68,105.68,0,0,1,26-58.37l-1-.88Q21.86-62,18.92-65.06V-78.58c1.92,2.42,3.95,4.76,6.09,7l1,1a97.28,97.28,0,0,0,31.6,21.41l1,.41c2.45,1,5,1.9,7.5,2.69l1,.3q3,.91,6.09,1.62ZM74-45c-2.32-.52-4.6-1.12-6.86-1.81l-1-.31c-2.55-.8-5-1.72-7.5-2.73l-1-.41A96.2,96.2,0,0,1,26-72l-1-1q-3.21-3.44-6.09-7.17V-93.56a89.75,89.75,0,0,0,6.09,9l1,1.27a88.87,88.87,0,0,0,31.6,24.87l1,.47c2.44,1.11,5,2.1,7.5,3l1,.34a88,88,0,0,0,12.7,3.19Zm21,2.32A95.58,95.58,0,0,1,75.1-44.75L81-51.28s.32-1,.31-1v-17.7A70,70,0,0,0,95-68.6a70,70,0,0,0,13.67-1.35v17.7s.3,1,.31,1l5.88,6.53A95.58,95.58,0,0,1,95-42.67Zm76-22.39q-2.94,3-6.09,5.82l-1,.87a105.92,105.92,0,0,1-31.6,18.81l-1,.38q-3.69,1.35-7.5,2.43l-1-.62-6.09-6.77q3.07-.7,6.09-1.62l1-.3c2.54-.79,5.05-1.7,7.5-2.69l1-.41a97.28,97.28,0,0,0,31.6-21.41l1-1c2.14-2.23,4.17-4.57,6.09-7Zm0-15.16q-2.88,3.73-6.09,7.17l-1,1a96.2,96.2,0,0,1-31.6,21.75l-1,.42c-2.45,1-5,1.92-7.5,2.72l-1,.31c-2.26.69-4.54,1.29-6.86,1.81l-5.84-6.49a88,88,0,0,0,12.7-3.19l1-.34c2.55-.89,5.06-1.88,7.5-3l1-.47a89,89,0,0,0,31.6-24.86l1-1.27a91.06,91.06,0,0,0,6.09-9Zm0-15.33a87.49,87.49,0,0,1-6.09,9.3l-1,1.31a88,88,0,0,1-31.6,25.37l-1,.47c-2.44,1.12-5,2.13-7.5,3l-1,.34c-2.46.83-5,1.55-7.51,2.16V-71.62a71.71,71.71,0,0,0,7.51-2.78l1-.45a71.46,71.46,0,0,0,7.5-4l1-.64a70.07,70.07,0,0,0,31.6-47.38l0-.52a69.94,69.94,0,0,0,1-11.1v-.15c0-.08,0-.15,0-.22a70.08,70.08,0,0,0-49.61-66.93v-17.78c2.54.61,5,1.33,7.51,2.16l1,.35c2.55.89,5.06,1.9,7.5,3l1,.46a88,88,0,0,1,31.6,25.38l1,1.3a88.52,88.52,0,0,1,6.09,9.3Zm0-88a89.75,89.75,0,0,0-6.09-9l-1-1.27a88.87,88.87,0,0,0-31.6-24.87l-1-.47c-2.44-1.1-5-2.1-7.5-3l-1-.34a88.06,88.06,0,0,0-12.7-3.2l5.84-6.49c2.32.52,4.6,1.13,6.86,1.81l1,.31q3.82,1.22,7.5,2.73l1,.41a96.2,96.2,0,0,1,31.6,21.75l1,1q3.21,3.44,6.09,7.17Zm0-15q-2.88-3.65-6.09-7l-1-1a97.1,97.1,0,0,0-31.6-21.4l-1-.41c-2.45-1-5-1.9-7.5-2.7l-1-.3c-2-.6-4-1.15-6.09-1.62l6.09-6.76,1-.63q3.81,1.08,7.5,2.44l1,.38a105.89,105.89,0,0,1,31.6,18.8l1,.88q3.15,2.79,6.09,5.81Zm7.08,159L172-33.46v-31.2q3.18-3.32,6.08-6.91Zm0-33.62c-1.92,2.44-4,4.79-6.08,7V-79.88a96.54,96.54,0,0,0,6.08-9Zm0-17.64A98.57,98.57,0,0,1,172-81.53V-95.29a88.72,88.72,0,0,0,6.08-13.24Zm0-20.82A87,87,0,0,1,172-97.36v-82.38a87,87,0,0,1,6.08,14.26Zm0-56.95A88.72,88.72,0,0,0,172-181.81v-13.75a97.14,97.14,0,0,1,6.08,9.26Zm0-19.69a99.28,99.28,0,0,0-6.08-9V-211c2.12,2.26,4.16,4.62,6.08,7.06Zm0-17.27q-2.9-3.58-6.08-6.91v-31.2l6.08,6.08Zm1,43.34a87,87,0,0,1,3.25,23.64,87.14,87.14,0,0,1-3.25,23.65Zm0,50.73a87.93,87.93,0,0,0,4.25-27.09,87.93,87.93,0,0,0-4.25-27.09v-18.87a95.28,95.28,0,0,1,11.76,46,95.28,95.28,0,0,1-11.76,46Zm0,20.92a96.31,96.31,0,0,0,12.76-48,96.31,96.31,0,0,0-12.76-48v-16.07a105.24,105.24,0,0,1,21.68,64.08,105.29,105.29,0,0,1-21.68,64.09Z"/></g></g><g class="cls-7"><path class="cls-1" d="M67.11-241.66V-300.4h-1v59c-2.54.72-5,1.52-7.5,2.42V-298h-1v59.45A106.82,106.82,0,0,0,26-220l-1,.85q-3.15,2.74-6.09,5.72v-31.17L25-250.73l1-1V-298H25v45.91L18.92-246v-52h-1v53L11.84-239l-1,.91v33.79a106.24,106.24,0,0,0-22.68,65.72A106.29,106.29,0,0,0,10.84-72.82v33.66l1,1L17.92-32V21h1V-31L25-25V21h1V-25.33l-1-1-6.09-6.09V-63.63q2.94,3,6.09,5.72l1,.85A106.82,106.82,0,0,0,57.61-38.5V21h1V-38.12c2.46.89,5,1.7,7.5,2.41V22.75h1V-35.44l.43-.92,6.79-7.53A96.73,96.73,0,0,0,95-41.67a96.73,96.73,0,0,0,20.63-2.22l6.78,7.53.44.92V22.75h1V-35.71c2.54-.71,5-1.52,7.5-2.41V21h1V-38.49a107.06,107.06,0,0,0,31.6-18.57l1-.85q3.15-2.75,6.09-5.72v31.17l-6.09,6.09-1,1.08V21h1V-25L171-31V21h1V-32l6.08-6.09,1-1V-72.82a106.29,106.29,0,0,0,22.68-65.73,106.29,106.29,0,0,0-22.68-65.73v-33.67l-1-1L172-245.06v-53h-1v52l-6.09-6.09V-298h-1v46.26l1,1.06,6.09,6.09v31.17q-2.94-3-6.09-5.72l-1-.85a106.82,106.82,0,0,0-31.6-18.56V-298h-1V-239q-3.69-1.34-7.5-2.41v-59h-1v58.74s-.45.92-.43.92l-6.79,7.53A96.73,96.73,0,0,0,95-235.43a96.73,96.73,0,0,0-20.63,2.22l-6.78-7.53S67.12-241.66,67.11-241.66Zm-55.27,4.11,6.08-6.09v31.2q-3.18,3.31-6.08,6.92ZM17.92-211v13.77a99.28,99.28,0,0,0-6.08,9v-15.67C13.76-206.37,15.8-208.72,17.92-211Zm160.16,99.37A87,87,0,0,1,172-97.36v-82.38a87,87,0,0,1,6.08,14.26Zm1-50.57a87,87,0,0,1,3.25,23.64,87.14,87.14,0,0,1-3.25,23.65ZM171-95.55a87.49,87.49,0,0,1-6.09,9.3l-1,1.31a88,88,0,0,1-31.6,25.37l-1,.47c-2.44,1.12-5,2.13-7.5,3l-1,.34c-2.46.83-5,1.55-7.51,2.16V-71.62a71.71,71.71,0,0,0,7.51-2.78l1-.45a71.46,71.46,0,0,0,7.5-4l1-.64a70.07,70.07,0,0,0,31.6-47.38l0-.52a69.94,69.94,0,0,0,1-11.1v-.15c0-.08,0-.15,0-.22a70.08,70.08,0,0,0-49.61-66.93v-17.78c2.54.61,5,1.33,7.51,2.16l1,.35c2.55.89,5.06,1.9,7.5,3l1,.46a88,88,0,0,1,31.6,25.38l1,1.3a88.52,88.52,0,0,1,6.09,9.3ZM26-139.22c0-.75,0-1.48.06-2.22a69,69,0,0,1,31.53-55l1-.64a69.36,69.36,0,0,1,7.5-4.05l1-.45a68.28,68.28,0,0,1,7.54-2.84l1-.29c1.52-.44,3.07-.84,4.64-1.18l1-.22A69.19,69.19,0,0,1,95-207.5a69.19,69.19,0,0,1,13.67,1.37l1,.22c1.58.34,3.13.74,4.67,1.19l1,.29a67.74,67.74,0,0,1,7.51,2.83l1,.45a69.36,69.36,0,0,1,7.5,4.05l1,.64a68.94,68.94,0,0,1,31.53,55.09c0,.66,0,1.32,0,2,0,.23,0,.46,0,.69A69,69,0,0,1,95-69.87,69,69,0,0,1,26-138.73C26-138.9,26-139.06,26-139.22Zm-1,.4c0,.07,0,.13,0,.2v.2A69.64,69.64,0,0,0,26-127.36l0,.53a70.07,70.07,0,0,0,31.6,47.38l1,.64a71.46,71.46,0,0,0,7.5,4l1,.45a68,68,0,0,0,7.54,2.78v18.06q-3.84-.91-7.54-2.17l-1-.34c-2.55-.9-5.06-1.91-7.5-3l-1-.47A88,88,0,0,1,26-84.94l-1-1.31a87.49,87.49,0,0,1-6.09-9.3v-86a88.52,88.52,0,0,1,6.09-9.3l1-1.3a88,88,0,0,1,31.6-25.38l1-.46c2.44-1.13,5-2.14,7.5-3l1-.35q3.7-1.24,7.54-2.16v17.78A70.05,70.05,0,0,0,25-138.82ZM11.84-165.48a87,87,0,0,1,6.08-14.26v82.38a87,87,0,0,1-6.08-14.26Zm-1,50.57a87,87,0,0,1-3.25-23.64,87,87,0,0,1,3.25-23.64Zm1-53.65v-17.73a95.4,95.4,0,0,1,6.08-9.27v13.75A88.37,88.37,0,0,0,11.84-168.56Zm-1,2.93a87.91,87.91,0,0,0-4.25,27.08,87.93,87.93,0,0,0,4.25,27.09v18.87a95.28,95.28,0,0,1-11.76-46,95.31,95.31,0,0,1,11.76-46Zm1,57.1a88.72,88.72,0,0,0,6.08,13.24v13.75a95.26,95.26,0,0,1-6.08-9.26Zm7.08,15a89.75,89.75,0,0,0,6.09,9l1,1.27a88.87,88.87,0,0,0,31.6,24.87l1,.47c2.44,1.11,5,2.1,7.5,3l1,.34a88,88,0,0,0,12.7,3.19L74-45c-2.32-.52-4.6-1.12-6.86-1.81l-1-.31c-2.55-.8-5-1.72-7.5-2.73l-1-.41A96.2,96.2,0,0,1,26-72l-1-1q-3.21-3.44-6.09-7.17ZM75.65-53.33v-18c1.52.44,3.07.83,4.64,1.17v17.75C78.73-52.68,77.18-53,75.65-53.33Zm38.65-18v18c-1.54.34-3.1.65-4.67.92V-70.16C111.21-70.5,112.76-70.9,114.3-71.34Zm8.51,16.67,1-.34c2.55-.89,5.06-1.88,7.5-3l1-.47a89,89,0,0,0,31.6-24.86l1-1.27a91.06,91.06,0,0,0,6.09-9v13.34q-2.88,3.73-6.09,7.17l-1,1a96.2,96.2,0,0,1-31.6,21.75l-1,.42c-2.45,1-5,1.92-7.5,2.72l-1,.31c-2.26.69-4.54,1.29-6.86,1.81l-5.84-6.49A88,88,0,0,0,122.81-54.67ZM172-95.29a88.72,88.72,0,0,0,6.08-13.24V-90.8A98.57,98.57,0,0,1,172-81.53Zm7.08-16.17a87.93,87.93,0,0,0,4.25-27.09,87.93,87.93,0,0,0-4.25-27.09v-18.87a95.28,95.28,0,0,1,11.76,46,95.28,95.28,0,0,1-11.76,46Zm-1-57.11A88.72,88.72,0,0,0,172-181.81v-13.75a97.14,97.14,0,0,1,6.08,9.26Zm-7.08-15a89.75,89.75,0,0,0-6.09-9l-1-1.27a88.87,88.87,0,0,0-31.6-24.87l-1-.47c-2.44-1.1-5-2.1-7.5-3l-1-.34a88.06,88.06,0,0,0-12.7-3.2l5.84-6.49c2.32.52,4.6,1.13,6.86,1.81l1,.31q3.82,1.22,7.5,2.73l1,.41a96.2,96.2,0,0,1,31.6,21.75l1,1q3.21,3.44,6.09,7.17Zm-56.7-40.22V-206c-1.54-.44-3.09-.84-4.67-1.18v-17.47C111.2-224.42,112.76-224.11,114.3-223.76ZM75.65-206v-17.73c1.53-.34,3.08-.65,4.64-.91v17.47C78.72-206.87,77.17-206.48,75.65-206Zm-8.54-16.38-1,.34c-2.55.88-5.06,1.88-7.5,3l-1,.47A88.87,88.87,0,0,0,26-193.76l-1,1.27a89.75,89.75,0,0,0-6.09,9v-13.34Q21.8-200.61,25-204l1-1a96.2,96.2,0,0,1,31.6-21.75l1-.41q3.68-1.52,7.5-2.73l1-.31c2.26-.68,4.54-1.29,6.86-1.81l5.84,6.49A88.06,88.06,0,0,0,67.11-222.42Zm-77.95,83.87a105.26,105.26,0,0,1,21.68-64.08v16.07a96.31,96.31,0,0,0-12.76,48,96.31,96.31,0,0,0,12.76,48v16.07A105.24,105.24,0,0,1-10.84-138.55ZM11.84-73.17V-88.84a99.28,99.28,0,0,0,6.08,9v13.77C15.8-68.37,13.76-70.73,11.84-73.17Zm6.08,39.71-6.08-6.08v-32q2.89,3.58,6.08,6.91Zm49.19-3.91-1,.62q-3.81-1.08-7.5-2.43l-1-.39A105.68,105.68,0,0,1,26-58.37l-1-.88Q21.86-62,18.92-65.06V-78.58c1.92,2.42,3.95,4.76,6.09,7l1,1a97.28,97.28,0,0,0,31.6,21.41l1,.41c2.45,1,5,1.9,7.5,2.69l1,.3q3,.91,6.09,1.62ZM95-42.67A95.58,95.58,0,0,1,75.1-44.75L81-51.28s.32-1,.31-1v-17.7A70,70,0,0,0,95-68.6a70,70,0,0,0,13.67-1.35v17.7s.3,1,.31,1l5.88,6.53A95.58,95.58,0,0,1,95-42.67Zm70-16.57-1,.87a105.92,105.92,0,0,1-31.6,18.81l-1,.38q-3.69,1.35-7.5,2.43l-1-.62-6.09-6.77q3.07-.7,6.09-1.62l1-.3c2.54-.79,5.05-1.7,7.5-2.69l1-.41a97.28,97.28,0,0,0,31.6-21.41l1-1c2.14-2.23,4.17-4.57,6.09-7v13.52Q168.06-62,164.91-59.24Zm13.17,19.7L172-33.46V-64.65q3.18-3.33,6.08-6.92ZM172-66.11V-79.88a96.54,96.54,0,0,0,6.08-9v15.68C176.16-70.72,174.12-68.37,172-66.11Zm28.76-72.44a105.29,105.29,0,0,1-21.68,64.09V-90.54a96.21,96.21,0,0,0,12.76-48,96.21,96.21,0,0,0-12.76-48v-16.07A105.24,105.24,0,0,1,200.76-138.55Zm-22.68-65.38v15.67a99.28,99.28,0,0,0-6.08-9V-211C174.12-208.73,176.16-206.37,178.08-203.93ZM172-243.64l6.08,6.08v32q-2.9-3.58-6.08-6.91Zm-49.19,3.92,1-.63q3.81,1.08,7.5,2.44l1,.38a105.89,105.89,0,0,1,31.6,18.8l1,.88q3.15,2.79,6.09,5.81v13.53q-2.88-3.65-6.09-7l-1-1a97.1,97.1,0,0,0-31.6-21.4l-1-.41c-2.45-1-5-1.9-7.5-2.7l-1-.3c-2-.6-4-1.15-6.09-1.62ZM95-234.43a95.58,95.58,0,0,1,19.86,2.08l-5.88,6.54s-.32,1-.31,1v17.43A70,70,0,0,0,95-208.77a70,70,0,0,0-13.67,1.35v-17.43s-.3-1-.31-1l-5.88-6.54A95.58,95.58,0,0,1,95-234.43Zm-27.85-5.29L73.2-233c-2,.47-4.08,1-6.09,1.62l-1,.3q-3.82,1.2-7.5,2.7l-1,.41A97.1,97.1,0,0,0,26-206.53l-1,1q-3.21,3.36-6.09,7V-212q2.94-3,6.09-5.81l1-.88a105.89,105.89,0,0,1,31.6-18.8l1-.38q3.69-1.36,7.5-2.44Z"/></g><path class="cls-3" d="M55.36,14h.88l2.25,5.57h-1L57,18.32H54.51l-.46,1.22h-.91Zm1.26,3.35-.85-2.27-.87,2.27Z"/><path class="cls-3" d="M60.44,14.94v1.2h2.44c.74,0,1,.27,1,1.32v.77c0,1.05-.24,1.31-1,1.31H60.46c-.74,0-1-.26-1-1.31v-.15l.81-.24v.66h2.77V17.22H60.61c-.73,0-1-.27-1-1.32v-.61c0-1,.24-1.32,1-1.32h2.23c.7,0,1,.26,1,1.22v.12l-.8.27v-.64Z"/><path class="cls-3" d="M67.58,19.54h-.91V15h-1.8V14h4.52v1H67.58Z"/><path class="cls-3" d="M70.51,14h4v.95h-3.1v1.24h1.81v.95H71.42V18.5h3.14v1h-4Z"/><path class="cls-3" d="M76.25,14H79.6c.6,0,.89.3.89,1.08v1.31c0,.78-.29,1.08-.89,1.08h-.51l1.81,2.1H79.59L78,17.44h-.87v2.1h-.89Zm.89,1v1.56h2c.28,0,.41-.08.41-.45v-.67c0-.36-.13-.44-.41-.44Z"/><path class="cls-3" d="M83.23,14h2.89c.73,0,1,.27,1,1.32v2.94c0,1.05-.24,1.31-1,1.31H83.23c-.74,0-1-.26-1-1.31V15.29C82.26,14.24,82.49,14,83.23,14Zm3,4.53V15h-3V18.5Z"/><path class="cls-3" d="M89,14h.92v5.57H89Z"/><path class="cls-3" d="M91.93,14h2.53c1.46,0,2.24,1,2.24,2.76a3.11,3.11,0,0,1-.87,2.38,2.31,2.31,0,0,1-1.61.43H91.93ZM94,18.5c1.16,0,1.73-.41,1.73-1.8,0-1.13-.43-1.74-1.29-1.74H92.84V18.5Z"/><path class="cls-3" d="M101.31,14h4v1h-3.06v1.47h1.65v1h-1.65v2.11h-.91Z"/><path class="cls-3" d="M106.41,14h.91v5.57h-.91Z"/><path class="cls-3" d="M109.33,14h4v.95h-3.1v1.24h1.81v.95h-1.81V18.5h3.14v1h-4Z"/><path class="cls-3" d="M115.07,14H116V18.5h2.94v1h-3.85Z"/><path class="cls-3" d="M120.26,14h2.52c1.47,0,2.24,1,2.24,2.76a3.11,3.11,0,0,1-.87,2.38,2.31,2.31,0,0,1-1.61.43h-2.28Zm2.09,4.53c1.15,0,1.73-.41,1.73-1.8,0-1.13-.43-1.74-1.29-1.74h-1.62V18.5Z"/><path class="cls-3" d="M52.89,20.82v-.76h72.8v.76Z"/><path class="cls-8" d="M65.21,32V28.4h3.7V29H66.05v.81h1.67v.61H66.05v.9H69V32Z"/><path class="cls-8" d="M70.23,32v-3h.5l2.52,2v-2h.64v3H73.4l-2.51-2v2Z"/><path class="cls-8" d="M76.6,32l-1.79-3h.82l1.25,2.14,1.18-2.14h.75L77.1,32Z"/><path class="cls-8" d="M79.64,32v-3h.72v3Z"/><path class="cls-8" d="M81.67,32v-3h2.67a.84.84,0,0,1,.53.13.54.54,0,0,1,.17.44v.7a.54.54,0,0,1-.17.44.86.86,0,0,1-.53.13h-.4L85.34,32h-1L83.07,30.9h-.68V32ZM84,29.57H82.39v.82H84a.52.52,0,0,0,.25-.05.22.22,0,0,0,.07-.19v-.34c0-.1,0-.16-.07-.19A.52.52,0,0,0,84,29.57Z"/><path class="cls-8" d="M86.15,29.75a1.2,1.2,0,0,1,.07-.43.42.42,0,0,1,.24-.21,1.78,1.78,0,0,1,.46-.05h2.29a1.81,1.81,0,0,1,.47.05.37.37,0,0,1,.23.21,1,1,0,0,1,.07.43v1.57a1,1,0,0,1-.07.43.36.36,0,0,1-.24.21,1.38,1.38,0,0,1-.46.06H86.92a1.38,1.38,0,0,1-.46-.06.42.42,0,0,1-.24-.21,1.2,1.2,0,0,1-.07-.43Zm.73,1.7h2.38V29.6H86.88Z"/><path class="cls-8" d="M91.23,32v-3h.49l2.52,2v-2h.65v3h-.5l-2.5-2v2Z"/><path class="cls-8" d="M96.21,32v-3h.58l1.45,1.75,1.44-1.75h.58v3h-.67V30l-1.32,1.68h-.14L96.79,30v2Z"/><path class="cls-8" d="M101.58,32v-3h3.18v.52h-2.45v.65h1.43v.51h-1.43v.72h2.49V32Z"/><path class="cls-8" d="M105.84,32v-3h.49l2.52,2v-2h.65v3H109l-2.5-2v2Z"/><path class="cls-8" d="M112.59,29.59V32h-.72V29.59h-1.43v-.53H114v.53Z"/><path class="cls-5" d="M7.66,46.85h3c.77,0,1,.25,1,1.22v2.71c0,1-.25,1.22-1,1.22h-3c-.77,0-1-.25-1-1.22V48.07C6.64,47.1,6.89,46.85,7.66,46.85ZM10.76,51V47.77H7.6V51Z"/><path class="cls-5" d="M13.45,47.78h3c.55,0,.8.22.8.82v.51a.67.67,0,0,1-.57.71.75.75,0,0,1,.6.81v.54c0,.56-.35.83-1,.83H13.45Zm.81.68v1h1.85c.25,0,.37-.05.37-.3v-.39c0-.25-.12-.31-.37-.31Zm0,1.7v1.08h1.85c.28,0,.4-.07.4-.38v-.32c0-.31-.12-.38-.4-.38Z"/><path class="cls-5" d="M19.35,48.53v.89h2.2c.67,0,.88.2.88,1V51c0,.79-.21,1-.88,1h-2.2c-.67,0-.89-.21-.89-1v-.12l.74-.17v.5h2.48v-1H19.49c-.66,0-.88-.2-.88-1v-.46c0-.8.22-1,.88-1h2c.62,0,.89.17.89.91v.1l-.71.19v-.45Z"/><path class="cls-5" d="M25.87,52h-.82V48.53H23.41v-.75h4.1v.75H25.87Z"/><path class="cls-5" d="M29.48,47.78h.79l2,4.22h-.93L31,51.07H28.72l-.43.93h-.82Zm1.14,2.52-.79-1.76-.76,1.76Z"/><path class="cls-5" d="M33.89,48.55v2.64h2.23v-.9l.83.21V51c0,.79-.22,1-.89,1H34c-.68,0-.88-.22-.88-1V48.78c0-.79.21-1,.88-1h2.11c.67,0,.89.2.89,1v.41l-.83.14v-.78Z"/><path class="cls-5" d="M38.3,47.78h.83v3.43h2.66V52H38.3Z"/><path class="cls-5" d="M42.72,47.78h3.63v.75h-2.8v.91h1.63v.73H43.55v1h2.84V52H42.72Z"/><path class="cls-5" d="M48.38,48.53v.89h2.2c.67,0,.88.2.88,1V51c0,.79-.21,1-.88,1h-2.2c-.67,0-.89-.21-.89-1v-.12l.74-.17v.5h2.49v-1H48.53c-.67,0-.89-.2-.89-1v-.46c0-.8.22-1,.89-1h2c.63,0,.89.17.89.91v.1l-.71.19v-.45Z"/><path class="cls-5" d="M53.88,47.77c.17,0,.2.12.2.37v.8c0,.37-.07.37-.34.37H53c-.16,0-.19-.12-.19-.37v-.8c0-.37.06-.37.33-.37h.71Zm0,2.68c.17,0,.2.12.2.37v.81c0,.37-.07.37-.34.37H53c-.16,0-.19-.12-.19-.37v-.81c0-.37.06-.37.33-.37h.71Z"/><path class="cls-5" d="M60.61,47.42h0l-1,1.33-.33-.31,1.22-1.51h.65V52h-.49Z"/><path class="cls-5" d="M66.1,50.48c0,1.39-.45,1.58-1.61,1.58s-1.61-.19-1.61-1.58v-2c0-1.38.45-1.57,1.61-1.57s1.61.19,1.61,1.57Zm-.49-2.18c0-.92-.23-.93-1.12-.93s-1.12,0-1.12.93v2.33c0,.92.23.94,1.12.94s1.12,0,1.12-.94Z"/><path class="cls-5" d="M71.48,50.93H69.3L69,52h-.51l1.59-5.07h.69L72.33,52h-.52Zm-1-3.51h-.07l-.91,3h1.88Z"/><path class="cls-5" d="M73.21,50.9c0,.61.1.75.77.75s.85-.1.85-.71,0-.5-.9-.55-1.14-.18-1.14-1,.14-1.05,1.21-1.05,1.24.24,1.24,1H74.8c0-.54-.15-.58-.82-.58s-.74.06-.74.62.06.54.82.59c1.06.06,1.22.14,1.22.93s-.16,1.14-1.32,1.14c-.82,0-1.2-.1-1.2-1.16Z"/><path class="cls-5" d="M76.13,48.84h-.37v-.41h.37v-.82h.45v.82h1.15v.41H76.58v2.39c0,.29.09.42.38.42s.49-.06.49-.85h.4c0,1.14-.36,1.26-.88,1.26s-.84-.2-.84-.74Z"/><path class="cls-5" d="M78.77,50.32v.33c0,.78.13,1,.75,1s.87,0,.87-.71h.45v.13c0,.72-.17,1-1.24,1s-1.32-.39-1.32-1.84.24-1.85,1.32-1.85,1.24.44,1.24,1.41v.54Zm1.62-.45c0-.75,0-1.09-.81-1.09s-.81.34-.81,1.09Z"/><path class="cls-5" d="M81.58,48.43H82v.43h0a.77.77,0,0,1,.82-.49c.57,0,.83.25.83,1v.29h-.41c0-.66-.07-.84-.58-.84S82,49,82,49.52V52h-.45Z"/><path class="cls-5" d="M85.43,48.37c1.17,0,1.31.43,1.31,1.85s-.15,1.84-1.31,1.84-1.32-.37-1.32-1.84S84.25,48.37,85.43,48.37Zm0,3.28c.71,0,.82-.1.82-1.43s-.11-1.44-.82-1.44-.83.11-.83,1.44S84.71,51.65,85.43,51.65Z"/><path class="cls-5" d="M87.54,46.93H88v.6h-.45Zm0,1.5H88V52h-.45Z"/><path class="cls-5" d="M91,51.55h0a.85.85,0,0,1-.92.51c-1,0-1.26-.44-1.26-1.84s.27-1.85,1.19-1.85a1,1,0,0,1,1,.51h0v-2h.44V52H91Zm-.86.06c.75,0,.86-.26.86-1.6,0-.88-.21-1.19-.86-1.19s-.85.16-.85,1.4S89.43,51.61,90.13,51.61Z"/><path class="cls-5" d="M92.66,50.9c0,.61.1.75.76.75s.86-.1.86-.71,0-.5-.9-.55-1.14-.18-1.14-1,.14-1.05,1.2-1.05,1.25.24,1.25,1h-.45c0-.54-.15-.58-.82-.58s-.73.06-.73.62.06.54.82.59c1,.06,1.21.14,1.21.93s-.16,1.14-1.31,1.14c-.82,0-1.2-.1-1.2-1.16Z"/><path class="cls-5" d="M95.82,51.36h.49V52h-.49Z"/><path class="cls-5" d="M7.6,68.15v1.1h2.57c.78,0,1,.25,1,1.22v.71c0,1-.25,1.22-1,1.22H7.62c-.77,0-1-.25-1-1.22V71l.85-.22v.61h2.92V70.25H7.78c-.78,0-1-.25-1-1.22v-.57c0-1,.24-1.21,1-1.21h2.34c.74,0,1,.24,1,1.12v.12l-.85.25v-.59Z"/><path class="cls-5" d="M12.89,68.18h3.63v.75h-2.8v.91h1.64v.73H13.72v1h2.84v.79H12.89Z"/><path class="cls-5" d="M19.77,72.4H19V68.94H17.32v-.76h4.09v.76H19.77Z"/><path class="cls-5" d="M23.3,71.61h2.35V68.18h.83V71.4c0,.79-.21,1-.88,1H23.36c-.68,0-.88-.21-.88-1V68.18h.82Z"/><path class="cls-5" d="M28,68.18H31c.54,0,.79.22.79.81v.94c0,.59-.25.82-.79.82H28.8V72.4H28Zm.81.72V70h1.88c.25,0,.38-.06.38-.33v-.45c0-.28-.13-.34-.38-.34Z"/><path class="cls-5" d="M34,68.17c.16,0,.19.11.19.36v.82c0,.36-.06.36-.33.36h-.71c-.16,0-.2-.12-.2-.36v-.82c0-.36.07-.36.34-.36H34Zm0,2.68c.16,0,.19.12.19.37V72c0,.37-.06.37-.33.37h-.71c-.16,0-.2-.12-.2-.37v-.81c0-.37.07-.37.34-.37H34Z"/><path class="cls-5" d="M39.14,69c0-1.48.45-1.73,1.78-1.73s1.79.25,1.79,1.73v1.71c0,1.49-.46,1.74-1.79,1.74s-1.78-.25-1.78-1.74Zm3.08,0c0-1.12-.15-1.27-1.3-1.27s-1.29.15-1.29,1.27v1.65c0,1.12.14,1.28,1.29,1.28s1.3-.16,1.3-1.28Z"/><path class="cls-5" d="M43.48,67.33h.44v2h0a1,1,0,0,1,1-.5c.92,0,1.19.44,1.19,1.84s-.27,1.84-1.26,1.84a.85.85,0,0,1-.92-.51h0v.45h-.44Zm1.3,1.89c-.65,0-.86.31-.86,1.19,0,1.33.11,1.6.86,1.6s.85-.16.85-1.39S45.48,69.22,44.78,69.22Z"/><path class="cls-5" d="M47.24,71.3c0,.61.1.75.77.75s.85-.1.85-.7,0-.51-.9-.56-1.14-.18-1.14-1,.14-1,1.21-1,1.24.23,1.24,1h-.44c0-.54-.15-.58-.82-.58s-.74.06-.74.62.06.54.82.59c1.06.06,1.22.14,1.22.93s-.16,1.14-1.32,1.14c-.82,0-1.19-.1-1.19-1.16Z"/><path class="cls-5" d="M50.16,69.24h-.37v-.41h.37V68h.45v.83h1.16v.41H50.61v2.39c0,.29.09.42.39.42s.48-.06.48-.85h.4c0,1.14-.36,1.26-.88,1.26s-.84-.2-.84-.74Z"/><path class="cls-5" d="M54.47,72.1a1.25,1.25,0,0,1-1,.36c-.91,0-1.11-.43-1.11-1.12s.16-1.12,1.11-1.12c.68,0,.83.07,1,.32h0v-.65c0-.53,0-.71-.8-.71s-.74.18-.74.64h-.45v-.19c0-.44.1-.85,1.22-.85s1.21.32,1.21,1V72.4h-.4ZM53.61,72c.6,0,.86-.15.86-.69s-.26-.7-.86-.7-.85.15-.85.7S53,72,53.61,72Z"/><path class="cls-5" d="M57.59,70c0-.65-.13-.84-.72-.84s-.83.11-.83,1.44.11,1.43.83,1.43.78-.17.78-.94h.45v.23c0,.92-.43,1.12-1.23,1.12-1.18,0-1.32-.39-1.32-1.84s.24-1.84,1.32-1.84S58,69.08,58,70Z"/><path class="cls-5" d="M58.84,67.33h.45V72.4h-.45Z"/><path class="cls-5" d="M60.58,70.72v.33c0,.78.13,1,.75,1s.87,0,.87-.71h.45v.13c0,.72-.17,1-1.25,1s-1.31-.39-1.31-1.84.24-1.84,1.31-1.84,1.25.43,1.25,1.4v.54Zm1.62-.45c0-.75,0-1.09-.81-1.09s-.81.34-.81,1.09Z"/><path class="cls-5" d="M63.83,71.3c0,.61.1.75.77.75s.85-.1.85-.7,0-.51-.9-.56-1.14-.18-1.14-1,.14-1,1.21-1,1.24.23,1.24,1h-.44c0-.54-.15-.58-.82-.58s-.74.06-.74.62.06.54.82.59c1.06.06,1.22.14,1.22.93s-.16,1.14-1.32,1.14c-.82,0-1.2-.1-1.2-1.16Z"/><path class="cls-5" d="M68.58,68.83H69v.53h0a1,1,0,0,1,.95-.58c.47,0,.84.1,1,.58a1.09,1.09,0,0,1,1.07-.58.93.93,0,0,1,1.07,1V72.4H72.7V70.09c0-.71-.3-.87-.75-.87s-.86.23-.86.93V72.4h-.45V69.93c0-.53-.22-.71-.71-.71-.65,0-.9.39-.9,1.14v2h-.45Z"/><path class="cls-5" d="M76,72.1a1.24,1.24,0,0,1-1,.36c-.91,0-1.12-.43-1.12-1.12s.16-1.12,1.12-1.12c.68,0,.82.07,1,.32h0v-.65c0-.53,0-.71-.79-.71s-.75.18-.75.64H74v-.19c0-.44.1-.85,1.22-.85s1.21.32,1.21,1V72.4H76ZM75.13,72c.59,0,.85-.15.85-.69s-.26-.7-.85-.7-.86.15-.86.7S74.53,72,75.13,72Z"/><path class="cls-5" d="M77.25,73.27c.56,0,.66-.11.83-.87h-.2l-1-3.57h.44L78.18,72h0L79,68.83h.45l-1,3.94c-.15.63-.43,1-1,1a.58.58,0,0,1-.21,0Z"/><path class="cls-5" d="M81.84,67.33h.45v2h0a1,1,0,0,1,1-.5c.92,0,1.19.44,1.19,1.84s-.27,1.84-1.27,1.84a.85.85,0,0,1-.91-.51h0v.45h-.45Zm1.31,1.89c-.65,0-.86.31-.86,1.19,0,1.33.11,1.6.86,1.6s.85-.16.85-1.39S83.85,69.22,83.15,69.22Z"/><path class="cls-5" d="M85.6,70.72v.33c0,.78.13,1,.75,1s.87,0,.87-.71h.45v.13c0,.72-.17,1-1.25,1s-1.31-.39-1.31-1.84.23-1.84,1.31-1.84,1.25.43,1.25,1.4v.54Zm1.62-.45c0-.75,0-1.09-.81-1.09s-.81.34-.81,1.09Z"/><path class="cls-5" d="M90.4,68.83h.45v.45h0a1,1,0,0,1,1-.5c.92,0,1.2.44,1.2,1.84s-.28,1.84-1.27,1.84a.86.86,0,0,1-.92-.51h0v1.7H90.4Zm1.3.39c-.64,0-.85.31-.85,1.19,0,1.33.1,1.6.85,1.6s.86-.16.86-1.39S92.4,69.22,91.7,69.22Z"/><path class="cls-5" d="M93.84,67.33h.45V72.4h-.45Z"/><path class="cls-5" d="M97.25,72.1a1.25,1.25,0,0,1-1,.36c-.91,0-1.11-.43-1.11-1.12s.16-1.12,1.11-1.12c.68,0,.83.07,1,.32h0v-.65c0-.53,0-.71-.79-.71s-.75.18-.75.64h-.44v-.19c0-.44.1-.85,1.21-.85s1.22.32,1.22,1V72.4h-.4ZM96.39,72c.6,0,.86-.15.86-.69s-.26-.7-.86-.7-.85.15-.85.7S95.8,72,96.39,72Z"/><path class="cls-5" d="M100.37,70c0-.65-.13-.84-.72-.84s-.83.11-.83,1.44.11,1.43.83,1.43.78-.17.78-.94h.45v.23c0,.92-.43,1.12-1.23,1.12-1.18,0-1.32-.39-1.32-1.84s.24-1.84,1.32-1.84,1.17.3,1.17,1.24Z"/><path class="cls-5" d="M101.93,70.72v.33c0,.78.13,1,.75,1s.87,0,.87-.71H104v.13c0,.72-.17,1-1.25,1s-1.31-.39-1.31-1.84.24-1.84,1.31-1.84,1.25.43,1.25,1.4v.54Zm1.62-.45c0-.75,0-1.09-.81-1.09s-.81.34-.81,1.09Z"/><path class="cls-5" d="M106.88,72h0a.84.84,0,0,1-.91.51c-1,0-1.27-.44-1.27-1.84s.27-1.84,1.2-1.84a1,1,0,0,1,1,.5h0v-2h.45V72.4h-.45ZM106,72c.75,0,.86-.27.86-1.6,0-.88-.21-1.19-.86-1.19s-.85.16-.85,1.4S105.32,72,106,72Z"/><path class="cls-5" d="M109.73,68.83h.44l.71,3.12h0l.67-3.12h.64l.68,3.12h0l.71-3.12h.44l-.85,3.57h-.65l-.65-3.12h0l-.65,3.12h-.65Z"/><path class="cls-5" d="M114.59,67.33H115v.6h-.44Zm0,1.5H115V72.4h-.44Z"/><path class="cls-5" d="M116,69.24h-.37v-.41H116V68h.45v.83h1.16v.41h-1.16v2.39c0,.29.09.42.39.42s.48-.06.48-.85h.41c0,1.14-.37,1.26-.89,1.26s-.84-.2-.84-.74Z"/><path class="cls-5" d="M118.22,67.33h.45v2h0a1,1,0,0,1,1-.51c.83,0,1,.41,1,1.1V72.4h-.44V70c0-.42-.09-.81-.68-.81s-.93.21-.93,1V72.4h-.45Z"/><path class="cls-5" d="M121.59,67.33H122v.6h-.44Zm0,1.5H122V72.4h-.44Z"/><path class="cls-5" d="M122.89,68.83h.45v.46h0a1,1,0,0,1,1-.51c.83,0,1,.41,1,1.1V72.4H125V70c0-.42-.1-.81-.68-.81s-.93.21-.93,1V72.4h-.45Z"/><path class="cls-5" d="M128.08,68.83h.45v.44h0a.78.78,0,0,1,.83-.49c.57,0,.83.24.83,1V70h-.41c0-.66-.07-.84-.58-.84s-.68.25-.68.74V72.4h-.45Z"/><path class="cls-5" d="M132.76,72.1a1.21,1.21,0,0,1-1,.36c-.91,0-1.11-.43-1.11-1.12s.16-1.12,1.11-1.12c.68,0,.83.07,1,.32h0v-.65c0-.53-.05-.71-.79-.71s-.75.18-.75.64h-.45v-.19c0-.44.11-.85,1.22-.85s1.22.32,1.22,1V72.4h-.41Zm-.85-.09c.6,0,.85-.15.85-.69s-.25-.7-.85-.7-.85.15-.85.7S131.32,72,131.91,72Z"/><path class="cls-5" d="M133.91,68.83h.45v.46h0a1,1,0,0,1,1-.51c.83,0,1,.41,1,1.1V72.4H136V70c0-.42-.09-.81-.67-.81s-.93.21-.93,1V72.4h-.45Z"/><path class="cls-5" d="M139.33,71.76h0a.89.89,0,0,1-.93.52c-1.16,0-1.24-.77-1.24-1.75s.08-1.75,1.24-1.75a.87.87,0,0,1,.93.53h0v-.48h.45v3.54c0,1.06-.33,1.35-1.42,1.35-.69,0-1.12-.25-1.11-1h.45c0,.42.18.54.76.54s.87-.15.87-1Zm-.9.07c.73,0,.9-.29.9-1.3s-.17-1.31-.9-1.31-.79.36-.79,1.31S137.71,71.83,138.43,71.83Z"/><path class="cls-5" d="M141,70.72v.33c0,.78.13,1,.75,1s.87,0,.87-.71H143v.13c0,.72-.17,1-1.25,1s-1.31-.39-1.31-1.84.24-1.84,1.31-1.84,1.25.43,1.25,1.4v.54Zm1.62-.45c0-.75,0-1.09-.81-1.09s-.81.34-.81,1.09Z"/><path class="cls-5" d="M147.3,67.82h0l-1,1.33-.33-.3,1.22-1.52h.65V72.4h-.49Z"/><path class="cls-5" d="M152.8,68.78c1.18,0,1.32.41,1.32,1.84s-.16,1.84-1.32,1.84-1.32-.36-1.32-1.84S151.62,68.78,152.8,68.78Zm0,3.27c.71,0,.83-.1.83-1.43s-.12-1.44-.83-1.44-.83.11-.83,1.44S152.09,72.05,152.8,72.05Z"/><path class="cls-5" d="M155,69.24h-.44v-.41H155v-.64c0-.66.31-.91.93-.91h.32v.4H156c-.29,0-.5.1-.5.51v.64h.78v.41h-.78V72.4H155Z"/><path class="cls-5" d="M159,70.72v.33c0,.78.13,1,.75,1s.87,0,.87-.71h.45v.13c0,.72-.17,1-1.24,1s-1.32-.39-1.32-1.84.24-1.84,1.32-1.84,1.24.43,1.24,1.4v.54Zm1.62-.45c0-.75,0-1.09-.81-1.09s-.81.34-.81,1.09Z"/><path class="cls-5" d="M163.89,72.1a1.25,1.25,0,0,1-1,.36c-.91,0-1.11-.43-1.11-1.12s.16-1.12,1.11-1.12c.68,0,.83.07,1,.32h0v-.65c0-.53,0-.71-.8-.71s-.74.18-.74.64h-.45v-.19c0-.44.1-.85,1.22-.85s1.21.32,1.21,1V72.4h-.4ZM163,72c.6,0,.86-.15.86-.69s-.26-.7-.86-.7-.85.15-.85.7S162.44,72,163,72Z"/><path class="cls-5" d="M167,70c0-.65-.13-.84-.72-.84s-.83.11-.83,1.44.11,1.43.83,1.43.78-.17.78-.94h.45v.23c0,.92-.43,1.12-1.23,1.12-1.18,0-1.32-.39-1.32-1.84s.24-1.84,1.32-1.84,1.17.3,1.17,1.24Z"/><path class="cls-5" d="M168.14,67.33h.45v2h0a1,1,0,0,1,1-.51c.83,0,1,.41,1,1.1V72.4h-.45V70c0-.42-.09-.81-.67-.81s-.93.21-.93,1V72.4h-.45Z"/><path class="cls-5" d="M7.3,77.18c1.17,0,1.31.42,1.31,1.84s-.15,1.84-1.31,1.84S6,80.5,6,79,6.12,77.18,7.3,77.18Zm0,3.27c.71,0,.82-.1.82-1.43S8,77.58,7.3,77.58s-.83.11-.83,1.44S6.58,80.45,7.3,80.45Z"/><path class="cls-5" d="M9.41,77.64H9v-.41h.37V76.4h.45v.83H11v.41H9.86V80c0,.29.09.42.38.42s.48-.06.48-.85h.41c0,1.14-.36,1.26-.88,1.26s-.84-.2-.84-.74Z"/><path class="cls-5" d="M11.62,75.73h.45v2h0a1,1,0,0,1,1-.51c.83,0,1,.41,1,1.1V80.8h-.45V78.39c0-.42-.09-.81-.68-.81s-.92.21-.92,1V80.8h-.45Z"/><path class="cls-5" d="M15.29,79.12v.33c0,.78.13,1,.75,1s.87,0,.87-.71h.45v.13c0,.72-.17,1-1.24,1S14.8,80.47,14.8,79s.24-1.84,1.32-1.84,1.24.43,1.24,1.4v.54Zm1.62-.45c0-.75,0-1.09-.81-1.09s-.81.34-.81,1.09Z"/><path class="cls-5" d="M18.1,77.23h.45v.44h0a.78.78,0,0,1,.83-.49c.57,0,.83.24.83.95v.29h-.41c0-.66-.07-.84-.58-.84s-.68.25-.68.74V80.8H18.1Z"/><path class="cls-5" d="M24.73,80.5a1.21,1.21,0,0,1-1,.36c-.91,0-1.11-.43-1.11-1.12s.16-1.12,1.11-1.12c.68,0,.83.07,1,.32h0v-.65c0-.53-.05-.71-.79-.71s-.75.18-.75.64H22.7V78c0-.43.11-.85,1.22-.85s1.22.32,1.22,1V80.8h-.41Zm-.85-.09c.59,0,.85-.15.85-.69s-.26-.69-.85-.69-.86.14-.86.69S23.28,80.41,23.88,80.41Z"/><path class="cls-5" d="M25.88,77.23h.45v.46h0a1,1,0,0,1,1-.51c.83,0,1.05.41,1.05,1.1V80.8h-.45V78.39c0-.42-.09-.81-.68-.81s-.92.21-.92,1V80.8h-.45Z"/><path class="cls-5" d="M31.26,80.36h0a.85.85,0,0,1-.91.5c-1,0-1.27-.44-1.27-1.84s.27-1.84,1.2-1.84a1,1,0,0,1,1,.5h0v-2h.45V80.8h-.45Zm-.86,0c.75,0,.86-.26.86-1.6,0-.88-.21-1.19-.86-1.19s-.85.16-.85,1.4S29.7,80.41,30.4,80.41Z"/><path class="cls-5" d="M36.53,80.5a1.21,1.21,0,0,1-1,.36c-.91,0-1.12-.43-1.12-1.12s.16-1.12,1.12-1.12c.68,0,.82.07,1,.32h0v-.65c0-.53-.05-.71-.79-.71s-.75.18-.75.64H34.5V78c0-.43.1-.85,1.22-.85s1.21.32,1.21,1V80.8h-.4Zm-.86-.09c.6,0,.86-.15.86-.69s-.26-.69-.86-.69-.85.14-.85.69S35.08,80.41,35.67,80.41Z"/><path class="cls-5" d="M37.8,77.64h-.38v-.41h.38V76.4h.44v.83H39.4v.41H38.24V80c0,.29.09.42.39.42s.48-.06.48-.85h.41c0,1.14-.37,1.26-.88,1.26-.66,0-.84-.2-.84-.74Z"/><path class="cls-5" d="M42,77.23h.45v.44h0a.76.76,0,0,1,.82-.49c.57,0,.83.24.83.95v.29h-.41c0-.66-.07-.84-.58-.84s-.68.25-.68.74V80.8H42Z"/><path class="cls-5" d="M46.64,80.5a1.22,1.22,0,0,1-1,.36c-.91,0-1.11-.43-1.11-1.12s.16-1.12,1.11-1.12c.68,0,.83.07,1,.32h0v-.65c0-.53,0-.71-.79-.71s-.75.18-.75.64h-.44V78c0-.43.1-.85,1.22-.85s1.21.32,1.21,1V80.8h-.4Zm-.86-.09c.6,0,.86-.15.86-.69s-.26-.69-.86-.69-.85.14-.85.69S45.19,80.41,45.78,80.41Z"/><path class="cls-5" d="M47.78,77.23h.45v.46h0a1,1,0,0,1,1-.51c.83,0,1.05.41,1.05,1.1V80.8h-.44V78.39c0-.42-.09-.81-.68-.81s-.93.21-.93,1V80.8h-.45Z"/><path class="cls-5" d="M53.2,80.16h0a.89.89,0,0,1-.93.52c-1.16,0-1.23-.77-1.23-1.75s.07-1.75,1.23-1.75a.87.87,0,0,1,.93.53h0v-.48h.45v3.54c0,1.06-.33,1.35-1.42,1.35-.69,0-1.12-.25-1.11-1h.45c0,.42.18.54.76.54.73,0,.87-.15.87-1Zm-.9.07c.73,0,.9-.29.9-1.3s-.17-1.31-.9-1.31-.78.36-.78,1.31S51.58,80.23,52.3,80.23Z"/><path class="cls-5" d="M54.82,79.12v.33c0,.78.13,1,.75,1s.87,0,.87-.71h.45v.13c0,.72-.17,1-1.24,1s-1.32-.39-1.32-1.84.24-1.84,1.32-1.84,1.24.43,1.24,1.4v.54Zm1.62-.45c0-.75,0-1.09-.81-1.09s-.81.34-.81,1.09Z"/><path class="cls-5" d="M59.59,79.91c0-1.17.33-1.39,1.59-1.51.94-.09,1-.2,1-1.23,0-.81-.11-1-1.07-1s-1.1.14-1.1.94v.25h-.44v-.3c0-.85.07-1.38,1.56-1.38,1.17,0,1.54.24,1.54,1.48s-.09,1.65-1.44,1.73c-1.1.07-1.2.32-1.2.91v.51h2.61v.49h-3.1Z"/><path class="cls-5" d="M66.67,77.18c1.18,0,1.32.42,1.32,1.84s-.16,1.84-1.32,1.84S65.36,80.5,65.36,79,65.5,77.18,66.67,77.18Zm0,3.27c.72,0,.83-.1.83-1.43s-.11-1.44-.83-1.44-.82.11-.82,1.44S66,80.45,66.67,80.45Z"/><path class="cls-5" d="M68.91,77.64h-.44v-.41h.44v-.64c0-.66.31-.91.93-.91h.32v.4h-.3c-.29,0-.5.1-.5.51v.64h.78v.41h-.78V80.8h-.45Z"/><path class="cls-5" d="M72.54,77.64h-.37v-.41h.37V76.4H73v.83h1.16v.41H73V80c0,.29.09.42.39.42s.48-.06.48-.85h.41c0,1.14-.37,1.26-.89,1.26s-.84-.2-.84-.74Z"/><path class="cls-5" d="M74.76,75.73h.44v2h0a1,1,0,0,1,1-.51c.82,0,1.05.41,1.05,1.1V80.8h-.45V78.39c0-.42-.09-.81-.68-.81s-.93.21-.93,1V80.8h-.44Z"/><path class="cls-5" d="M78.42,79.12v.33c0,.78.14,1,.75,1s.88,0,.88-.71h.45v.13c0,.72-.18,1-1.25,1s-1.32-.39-1.32-1.84.24-1.84,1.32-1.84,1.25.43,1.25,1.4v.54Zm1.63-.45c0-.75,0-1.09-.81-1.09s-.82.34-.82,1.09Z"/><path class="cls-5" d="M83.18,77.23h.45v.46h0a1,1,0,0,1,1-.51c.83,0,1.05.41,1.05,1.1V80.8h-.44V78.39c0-.42-.09-.81-.68-.81s-.93.21-.93,1V80.8h-.45Z"/><path class="cls-5" d="M86.85,79.12v.33c0,.78.14,1,.75,1s.88,0,.88-.71h.45v.13c0,.72-.18,1-1.25,1s-1.32-.39-1.32-1.84.24-1.84,1.32-1.84,1.25.43,1.25,1.4v.54Zm1.63-.45c0-.75,0-1.09-.81-1.09s-.82.34-.82,1.09Z"/><path class="cls-5" d="M92.17,80.8h-.45v-.46h0a1,1,0,0,1-1,.52c-.83,0-1-.41-1-1.11V77.23h.45v2.42c0,.41.09.8.68.8s.92-.21.92-1V77.23h.45Z"/><path class="cls-5" d="M93,77.64h-.37v-.41H93V76.4h.45v.83h1.15v.41H93.48V80c0,.29.09.42.38.42s.48-.06.48-.85h.41c0,1.14-.36,1.26-.88,1.26s-.84-.2-.84-.74Z"/><path class="cls-5" d="M95.24,77.23h.45v.44h0a.78.78,0,0,1,.83-.49c.57,0,.82.24.82.95v.29H97c0-.66-.07-.84-.58-.84s-.68.25-.68.74V80.8h-.45Z"/><path class="cls-5" d="M99.92,80.5a1.2,1.2,0,0,1-1,.36c-.91,0-1.11-.43-1.11-1.12s.16-1.12,1.11-1.12c.68,0,.83.07,1,.32h0v-.65c0-.53,0-.71-.79-.71s-.75.18-.75.64h-.45V78c0-.43.11-.85,1.22-.85s1.22.32,1.22,1V80.8h-.41Zm-.85-.09c.59,0,.85-.15.85-.69s-.26-.69-.85-.69-.86.14-.86.69S98.47,80.41,99.07,80.41Z"/><path class="cls-5" d="M101.19,75.73h.45V80.8h-.45Z"/><path class="cls-5" d="M104.49,75.73h.44v2h0a1,1,0,0,1,1-.5c.92,0,1.19.44,1.19,1.84s-.27,1.84-1.26,1.84a.86.86,0,0,1-.92-.5h0v.44h-.44Zm1.3,1.89c-.65,0-.86.31-.86,1.19,0,1.34.11,1.6.86,1.6s.85-.16.85-1.39S106.49,77.62,105.79,77.62Z"/><path class="cls-5" d="M109.07,77.18c1.17,0,1.31.42,1.31,1.84s-.15,1.84-1.31,1.84-1.32-.36-1.32-1.84S107.89,77.18,109.07,77.18Zm0,3.27c.71,0,.82-.1.82-1.43s-.11-1.44-.82-1.44-.83.11-.83,1.44S108.35,80.45,109.07,80.45Z"/><path class="cls-5" d="M113.15,80.5a1.2,1.2,0,0,1-1,.36c-.91,0-1.11-.43-1.11-1.12s.16-1.12,1.11-1.12c.68,0,.83.07,1,.32h0v-.65c0-.53,0-.71-.79-.71s-.75.18-.75.64h-.45V78c0-.43.11-.85,1.22-.85s1.22.32,1.22,1V80.8h-.41Zm-.85-.09c.59,0,.85-.15.85-.69s-.26-.69-.85-.69-.85.14-.85.69S111.7,80.41,112.3,80.41Z"/><path class="cls-5" d="M114.3,77.23h.45v.44h0a.78.78,0,0,1,.83-.49c.57,0,.83.24.83.95v.29H116c0-.66-.07-.84-.58-.84s-.68.25-.68.74V80.8h-.45Z"/><path class="cls-5" d="M119,80.36h0a.85.85,0,0,1-.91.5c-1,0-1.27-.44-1.27-1.84s.27-1.84,1.2-1.84a1,1,0,0,1,1,.5h0v-2h.45V80.8H119Zm-.86,0c.75,0,.86-.26.86-1.6,0-.88-.21-1.19-.86-1.19s-.85.16-.85,1.4S117.47,80.41,118.17,80.41Z"/><path class="cls-5" d="M122.63,79.12v.33c0,.78.13,1,.75,1s.88,0,.88-.71h.44v.13c0,.72-.17,1-1.24,1s-1.32-.39-1.32-1.84.24-1.84,1.32-1.84,1.24.43,1.24,1.4v.54Zm1.63-.45c0-.75,0-1.09-.82-1.09s-.81.34-.81,1.09Z"/><path class="cls-5" d="M127.58,80.36h0a.87.87,0,0,1-.92.5c-1,0-1.27-.44-1.27-1.84s.28-1.84,1.2-1.84a1,1,0,0,1,1,.5h0v-2H128V80.8h-.45Zm-.85,0c.75,0,.85-.26.85-1.6,0-.88-.21-1.19-.85-1.19s-.86.16-.86,1.4S126,80.41,126.73,80.41Z"/><path class="cls-5" d="M131,80.16h0a.89.89,0,0,1-.93.52c-1.16,0-1.24-.77-1.24-1.75s.08-1.75,1.24-1.75a.87.87,0,0,1,.93.53h0v-.48h.45v3.54c0,1.06-.33,1.35-1.42,1.35-.7,0-1.12-.25-1.11-1h.45c0,.42.18.54.76.54s.87-.15.87-1Zm-.9.07c.73,0,.9-.29.9-1.3s-.17-1.31-.9-1.31-.79.36-.79,1.31S129.37,80.23,130.09,80.23Z"/><path class="cls-5" d="M132.61,79.12v.33c0,.78.13,1,.75,1s.87,0,.87-.71h.45v.13c0,.72-.18,1-1.25,1s-1.31-.39-1.31-1.84.23-1.84,1.31-1.84,1.25.43,1.25,1.4v.54Zm1.62-.45c0-.75,0-1.09-.81-1.09s-.81.34-.81,1.09Z"/><path class="cls-5" d="M135.86,79.7c0,.61.1.75.77.75s.85-.1.85-.7,0-.51-.9-.56-1.14-.18-1.14-1,.14-1,1.21-1,1.24.23,1.24,1h-.44c0-.54-.15-.58-.82-.58s-.74.06-.74.62.06.54.82.59c1.06.06,1.22.14,1.22.93s-.16,1.14-1.32,1.14c-.82,0-1.2-.1-1.2-1.16Z"/><path class="cls-5" d="M139,80.16h.49v.64H139Z"/></svg>