<svg id="Layer_1" data-name="Layer 1" xmlns="http://www.w3.org/2000/svg" xmlns:xlink="http://www.w3.org/1999/xlink" viewBox="0 0 178.58 249.45"><defs><style>.cls-1{fill:none;}.cls-2{clip-path:url(#clip-path);}.cls-3{fill:#fff;}.cls-4{opacity:0.02;}.cls-5{fill:#090400;}.cls-6{fill:#2baa54;}.cls-7{clip-path:url(#clip-path-2);}.cls-8{fill:#fbfbfb;}</style><clipPath id="clip-path"><rect class="cls-1" x="-5.67" y="-5.67" width="189.92" height="260.79"/></clipPath><clipPath id="clip-path-2"><rect class="cls-1" x="-5.67" y="-301.73" width="189.92" height="260.79"/></clipPath></defs><g class="cls-2"><rect class="cls-3" x="-5.67" y="-5.67" width="189.92" height="260.79"/><g class="cls-4"><path class="cls-5" d="M173.41,92.29V58.62l-1-1-6.08-6.09v-53h-1v52l-6.09-6.09V-1.49h-1V44.78l1,1.06,6.09,6.08V83.1q-2.94-3-6.09-5.73l-1-.84A106.72,106.72,0,0,0,126.64,58V-1.49h-1V57.59c-2.46-.89-5-1.7-7.5-2.41v-59h-1V54.91a9.65,9.65,0,0,0-.43.92l-6.79,7.53a97,97,0,0,0-41.26,0l-6.78-7.53s-.43-.93-.44-.92V-3.83h-1v59c-2.54.71-5,1.52-7.5,2.41V-1.49h-1V58a107.06,107.06,0,0,0-31.6,18.57l-1,.85q-3.15,2.73-6.09,5.72V51.92l6.09-6.08,1-1.05V-1.49h-1V44.42l-6.09,6.09v-52h-1v53L6.17,57.6l-1,.9V92.29a106.57,106.57,0,0,0,0,131.45V257.4l1,1,6.08,6.08v53h1v-52l6.09,6.09v45.92h1v-46.3l-1-1-6.09-6.08V232.93q2.94,3,6.09,5.73l1,.85a107,107,0,0,0,31.6,18.56v59.46h1V258.44c2.46.89,5,1.7,7.5,2.41v58.47h1v-58.2l.44-.91,6.78-7.54a97,97,0,0,0,41.26,0l6.79,7.54.43.92v58.19h1V260.85q3.81-1.07,7.5-2.41v59.09h1V258.07a106.9,106.9,0,0,0,31.6-18.56l1-.85q3.15-2.74,6.09-5.73v31.18l-6.09,6.08-1,1.08v46.26h1V271.61l6.09-6.09v52h1v-53l6.08-6.08,1-1V223.74a106.57,106.57,0,0,0,0-131.45ZM5.17,181.65a87.57,87.57,0,0,1,0-47.27Zm0-50.72a88.43,88.43,0,0,0,0,54.17V204a95.69,95.69,0,0,1,0-91.92Zm0-20.92a96.68,96.68,0,0,0,0,96V222.1a105.56,105.56,0,0,1,0-128.17Zm7.08,153.1L6.17,257V225q2.89,3.58,6.08,6.92Zm0-32.66c-2.12-2.26-4.16-4.61-6.08-7V207.72a98,98,0,0,0,6.08,9Zm0-15.42a98.57,98.57,0,0,1-6.08-9.27V188a88.83,88.83,0,0,0,6.08,13.25Zm0-15.82a86.7,86.7,0,0,1-6.08-14.27V131.09a87,87,0,0,1,6.08-14.26Zm0-84.46A89.29,89.29,0,0,0,6.17,128V110.27A98.57,98.57,0,0,1,12.25,101Zm0-15.4a96.54,96.54,0,0,0-6.08,9V92.63c1.92-2.44,4-4.79,6.08-7Zm0-15.23Q9.07,87.45,6.17,91V59l6.08-6.09Zm77-22a96.26,96.26,0,0,1,19.86,2.07l-5.88,6.54s-.32,1-.31,1V89.15a69.89,69.89,0,0,0-27.34,0V71.71s-.3-1-.3-1l-5.89-6.54A96.26,96.26,0,0,1,89.29,62.14Zm0,164.55a69,69,0,0,1-68.95-68.86c0-.16,0-.32,0-.49,0-.74,0-1.48.06-2.21a69,69,0,0,1,31.53-55l1-.65a67.58,67.58,0,0,1,7.5-4l1-.46A70.35,70.35,0,0,1,69,92.12l1-.28c1.52-.45,3.07-.84,4.64-1.19l1-.22a69.38,69.38,0,0,1,27.34,0l1,.22c1.58.35,3.13.75,4.67,1.2l1,.28A69.8,69.8,0,0,1,117.14,95l1,.45a69.36,69.36,0,0,1,7.5,4l1,.65a69,69,0,0,1,31.54,55.08c0,.66,0,1.32,0,2,0,.24,0,.47,0,.7A69,69,0,0,1,89.29,226.69Zm19.34-1.46v18c-1.54.35-3.1.66-4.67.92V226.4C105.54,226.07,107.09,225.67,108.63,225.23Zm-34,1.17v17.75c-1.56-.26-3.11-.57-4.64-.91v-18C71.51,225.67,73.05,226.07,74.62,226.4ZM70,90.53V72.8c1.53-.35,3.08-.65,4.64-.92V89.36C73.05,89.69,71.51,90.09,70,90.53Zm38.65,0c-1.54-.44-3.09-.84-4.67-1.17V71.88c1.57.27,3.13.57,4.67.92Zm-95.38-6q2.94-3,6.09-5.82l1-.87A105.92,105.92,0,0,1,51.94,59l1-.38c2.46-.9,5-1.72,7.5-2.44l1,.63,6.09,6.76q-3.07.72-6.09,1.62l-1,.3c-2.54.8-5,1.7-7.5,2.7l-1,.41A97.26,97.26,0,0,0,20.34,90l-1,1q-3.21,3.34-6.09,7Zm0,15.15q2.88-3.72,6.09-7.16l1-1a96.33,96.33,0,0,1,31.6-21.76l1-.41c2.45-1,5-1.92,7.5-2.72l1-.31C63.7,65.58,66,65,68.3,64.46L74.14,71a86.75,86.75,0,0,0-12.7,3.19l-1,.34c-2.55.89-5.06,1.88-7.5,3l-1,.47a89,89,0,0,0-31.6,24.86l-1,1.27a88.75,88.75,0,0,0-6.09,9Zm0,15.34a88.65,88.65,0,0,1,6.09-9.31l1-1.3A87.94,87.94,0,0,1,51.94,79l1-.47c2.44-1.12,5-2.13,7.5-3l1-.35Q65.15,73.94,69,73V90.81a70.08,70.08,0,0,0-49.64,66.93c0,.07,0,.14,0,.21v.19a69.44,69.44,0,0,0,.95,11.06l0,.53a70,70,0,0,0,31.6,47.38l1,.65a69.56,69.56,0,0,0,7.5,4l1,.46A72.22,72.22,0,0,0,69,225V243q-3.84-.92-7.54-2.16l-1-.35c-2.55-.9-5.06-1.91-7.5-3l-1-.47a87.83,87.83,0,0,1-31.6-25.37l-1-1.3a88.52,88.52,0,0,1-6.09-9.3ZM61.44,259.19l-1,.63c-2.54-.72-5-1.54-7.5-2.44l-1-.38a106.1,106.1,0,0,1-31.6-18.8l-1-.88q-3.15-2.79-6.09-5.82V218q2.88,3.65,6.09,7l1,1a97.26,97.26,0,0,0,31.6,21.4l1,.41c2.45,1,5,1.9,7.5,2.7l1,.3c2,.6,4,1.15,6.09,1.62Zm6.86-7.62c-2.32-.52-4.6-1.12-6.86-1.81l-1-.3c-2.54-.81-5-1.72-7.5-2.73l-1-.41a96.3,96.3,0,0,1-31.6-21.75l-1-1.06q-3.21-3.42-6.09-7.16V203a88.75,88.75,0,0,0,6.09,9l1,1.27a89,89,0,0,0,31.6,24.87l1,.46c2.44,1.11,5,2.11,7.5,3l1,.34a88.06,88.06,0,0,0,12.7,3.2Zm21,2.32a95.58,95.58,0,0,1-19.86-2.07l5.88-6.54s.32-1,.31-1V226.61a69.38,69.38,0,0,0,27.34,0v17.71s.3,1,.31,1l5.88,6.54A95.58,95.58,0,0,1,89.29,253.89Zm76-22.39c-2,2-4,4-6.09,5.82l-1,.88a105.89,105.89,0,0,1-31.6,18.8l-1,.38c-2.46.9-5,1.72-7.5,2.44l-1-.63-6.09-6.76c2.06-.47,4.08-1,6.09-1.62l1-.3q3.83-1.2,7.5-2.7l1-.41a97.26,97.26,0,0,0,31.6-21.4l1-1q3.21-3.34,6.09-7Zm0-15.15q-2.88,3.74-6.09,7.16l-1,1.06a96.2,96.2,0,0,1-31.6,21.75l-1,.41q-3.67,1.52-7.5,2.73l-1,.31c-2.26.68-4.54,1.28-6.86,1.8l-5.84-6.48a88.06,88.06,0,0,0,12.7-3.2l1-.34c2.55-.88,5.06-1.88,7.5-3l1-.46a89,89,0,0,0,31.6-24.87l1-1.27a89.75,89.75,0,0,0,6.09-9Zm0-15.33a88.52,88.52,0,0,1-6.09,9.3l-1,1.3A87.83,87.83,0,0,1,126.64,237l-1,.47c-2.44,1.12-5,2.13-7.5,3l-1,.35c-2.46.83-5,1.55-7.51,2.16V224.94a69.47,69.47,0,0,0,7.51-2.77l1-.46a69.56,69.56,0,0,0,7.5-4l1-.65a70,70,0,0,0,31.6-47.38l0-.51a70,70,0,0,0,.95-11.1V158c0-.07,0-.14,0-.22a70.07,70.07,0,0,0-49.61-66.92V73c2.54.61,5.05,1.32,7.51,2.15l1,.35c2.55.9,5.06,1.91,7.5,3l1,.47a87.94,87.94,0,0,1,31.6,25.37l1,1.3a88.52,88.52,0,0,1,6.09,9.3Zm0-88a88.75,88.75,0,0,0-6.09-9l-1-1.27a89,89,0,0,0-31.6-24.86l-1-.47c-2.44-1.11-5-2.1-7.5-3l-1-.34A86.75,86.75,0,0,0,104.44,71l5.84-6.49c2.32.52,4.6,1.12,6.86,1.81l1,.3q3.83,1.22,7.5,2.73l1,.41a96.2,96.2,0,0,1,31.6,21.75l1,1.06c2.14,2.28,4.17,4.68,6.09,7.16Zm0-15q-2.88-3.64-6.09-7l-1-1a97.26,97.26,0,0,0-31.6-21.4l-1-.41q-3.67-1.5-7.5-2.7l-1-.3c-2-.6-4-1.14-6.09-1.62l6.09-6.76,1-.63c2.54.72,5,1.54,7.5,2.44l1,.38a106.1,106.1,0,0,1,31.6,18.8l1,.88c2.1,1.86,4.14,3.8,6.09,5.82Zm7.08,159-6.08,6.09v-31.2q3.18-3.33,6.08-6.92Zm0-33.62c-1.92,2.44-4,4.79-6.08,7.06V216.69a99.28,99.28,0,0,0,6.08-9Zm0-17.64a95.4,95.4,0,0,1-6.08,9.27V201.28A88.72,88.72,0,0,0,172.41,188Zm0-20.81a87,87,0,0,1-6.08,14.26V116.82a87,87,0,0,1,6.08,14.26Zm0-56.95a88.83,88.83,0,0,0-6.08-13.25V101a96.63,96.63,0,0,1,6.08,9.27Zm0-19.69a98,98,0,0,0-6.08-9V85.58c2.12,2.26,4.16,4.61,6.08,7Zm0-17.27q-2.9-3.58-6.08-6.92V52.92L172.41,59Zm1,43.33a87.38,87.38,0,0,1,0,47.29Zm0,50.74a88.26,88.26,0,0,0,0-54.18V112.05a95.71,95.71,0,0,1,0,91.93Zm0,20.92a96.7,96.7,0,0,0,0-96V93.93a105.56,105.56,0,0,1,0,128.17Z"/><path class="cls-5" d="M120.92,166.38c-2.32,3.91-10,15.69-14.58,18.7a23.33,23.33,0,0,1-11.64,3.51,8.9,8.9,0,0,1-5.85-1.75c-1.92-1.59-3.18-5.2-3.07-8.8.07-2.69.93-4.77,2.43-5.85a.91.91,0,0,1,.33-.15c1.47-.2,2.73-.43,3.31-.55a.76.76,0,0,1,.91.6c.69,3.33,1.81,5.12,4.11,6.44,4.29-3.31,7.16-7,8.32-10.77l.24-.75c1.17-3.54,3.13-9.46-2.9-15.74-8-8.39-15.35-11.25-21.68-8.42-6.93,3.09-10.13,6.89-10.72,7.63a.76.76,0,0,1-1.07.12A7.56,7.56,0,0,1,66.2,147a.77.77,0,0,1,.21-.78c.57-.52,14.08-12.66,29.73-12.66a27.31,27.31,0,0,1,16.14,5.18,1.54,1.54,0,0,0,1.21-.56c.57-.62,1.5-2.23,1.2-6.11-.43-5.65-2.26-9.31-17-18.18C91.85,119.6,84.53,126,79.16,126a5.63,5.63,0,0,1-3.89-1.46,9.14,9.14,0,0,1-3-6.92c0-4.06,2.28-8.63,6.17-12.21a14.84,14.84,0,0,0,1.09-1.11,15,15,0,0,0-1.94.71c-4.67,2-13.92,11.61-14.92,22.93-1,11.61,3.11,18.86,3.14,18.93l.31.61a.77.77,0,0,1-.23,1c-2.82,2.11-16.58,13.81-11.75,37C58.8,208,89,215,99.4,215A12.15,12.15,0,0,0,101,215a17.75,17.75,0,0,0,2.37-.38c-.94-.46-2.78-1.08-4.44-1.65l-3.48-1.21c-8.17-3-23-10.19-30.22-25-6.4-13,.53-28.34,2.83-32.74a3,3,0,0,1,.18-.36.91.91,0,0,1,.62-.44c.24,0,.33.14.49.32l.24.25,3.89,4.16c.17.17.45.49.4.72a18.71,18.71,0,0,0,.71,8.07,3.32,3.32,0,0,0,.22.53.77.77,0,0,1,.09.36c0,2.26.08,13.92,3.06,20.79,3.14,7.23,5.92,12,15.71,12,11.5,0,20-6.07,26.74-19.12,4.93-9.52,5.37-22.39,5-29.58C124.64,156.2,123.28,162.41,120.92,166.38Zm-45.37-9.49c3.16-3.55,11.1-8,16.79-5.43,6.9,3.18,10.6,12,5.43,16.32-3.51,2.9-11.09,4.17-14,3.12C80,169.53,73.19,167.27,75.55,156.89Z"/><path class="cls-5" d="M7.72,239.49v2l-.5-.44-.16.19,3,2.59.17-.18L9.45,243v-2.41h1.23v1.12l-.66.57.17.18,1.43-1.25-.17-.18-.52.46v-2l.52.46.17-.18-1.5-1.32-.16.19.72.63v1.11H9.45V238l.69-.61-.16-.18-3,2.6.17.19Zm1.48,3.33L8,241.75v-1.12H9.2Zm0-2.44H8v-1.11L9.2,238.2Z"/></g></g><rect class="cls-5" x="-5.67" y="-5.67" width="189.92" height="45.68"/><polygon class="cls-6" points="184.25 -5.67 121.97 -5.67 143.03 20.5 184.25 20.5 184.25 -5.67"/><polygon class="cls-6" points="-5.67 -5.67 56.62 -5.67 35.55 20.5 -5.67 20.5 -5.67 -5.67"/><polygon class="cls-3" points="122.48 -5.67 121.96 -5.67 121.5 -5.29 142.79 21 184.25 21 184.25 20 143.27 20 122.48 -5.67"/><polygon class="cls-3" points="56.1 -5.67 35.31 20 -5.67 20 -5.67 21 35.79 21 57.08 -5.29 56.62 -5.67 56.1 -5.67"/><g class="cls-7"><g class="cls-4"><path class="cls-5" d="M173.41-203.77v-33.67l-1-1-6.08-6.09v-53h-1v52l-6.09-6.08v-45.92h-1v46.27l1,1.06,6.09,6.09V-213c-2-2-4-3.9-6.09-5.72l-1-.85a106.93,106.93,0,0,0-31.6-18.57v-59.45h-1v59.08c-2.46-.89-5-1.7-7.5-2.41v-59h-1v58.74s-.45.91-.43.92l-6.79,7.53a96.73,96.73,0,0,0-20.63-2.22,96.73,96.73,0,0,0-20.63,2.22l-6.78-7.53s-.43-.92-.44-.92v-58.74h-1v59c-2.54.71-5,1.52-7.5,2.41v-59.08h-1v59.45a107.06,107.06,0,0,0-31.6,18.57l-1,.85q-3.15,2.75-6.09,5.72v-31.17l6.09-6.09,1-1v-46.29h-1v45.92l-6.09,6.08v-52h-1v53l-6.08,6.09-1,.91v33.78A106.29,106.29,0,0,0-17.51-138,106.26,106.26,0,0,0,5.17-72.32v33.66l1,1,6.08,6.08v53h1v-52l6.09,6.09V21.47h1V-24.82l-1-1-6.09-6.09V-63.13q2.94,3,6.09,5.73l1,.85A107,107,0,0,0,51.94-38V21.47h1V-37.62c2.46.9,5,1.7,7.5,2.42V23.26h1V-34.93l.44-.92,6.78-7.53a96.73,96.73,0,0,0,20.63,2.22,96.73,96.73,0,0,0,20.63-2.22l6.79,7.53.43.92V23.26h1V-35.2c2.54-.72,5-1.52,7.5-2.42V21.47h1V-38a106.9,106.9,0,0,0,31.6-18.56l1-.85q3.15-2.74,6.09-5.72v31.17l-6.09,6.09-1,1.08V21.47h1V-24.45l6.09-6.09v52h1v-53l6.08-6.08,1-1V-72.31A106.29,106.29,0,0,0,196.09-138,106.29,106.29,0,0,0,173.41-203.77ZM5.17-114.4A87,87,0,0,1,1.92-138a87,87,0,0,1,3.25-23.64Zm0-50.73A87.93,87.93,0,0,0,.92-138,87.91,87.91,0,0,0,5.17-111v18.88A95.31,95.31,0,0,1-6.59-138,95.28,95.28,0,0,1,5.17-184Zm0-20.92A96.31,96.31,0,0,0-7.59-138,96.34,96.34,0,0,0,5.17-90V-74A105.26,105.26,0,0,1-16.51-138,105.29,105.29,0,0,1,5.17-202.13Zm7.08,153.1L6.17-39v-32q2.89,3.58,6.08,6.92Zm0-32.65c-2.12-2.27-4.16-4.62-6.08-7.06V-88.33a99.28,99.28,0,0,0,6.08,9Zm0-15.43A97.29,97.29,0,0,1,6.17-90.3V-108a88.83,88.83,0,0,0,6.08,13.25Zm0-15.82a86.7,86.7,0,0,1-6.08-14.27V-165a87,87,0,0,1,6.08-14.26Zm0-84.45a88.72,88.72,0,0,0-6.08,13.24v-17.73A97.14,97.14,0,0,1,12.25-195Zm0-15.41a97.89,97.89,0,0,0-6.08,9v-15.67c1.92-2.45,4-4.8,6.08-7.06Zm0-15.23Q9.07-208.61,6.17-205v-32l6.08-6.08Zm77-22a96.26,96.26,0,0,1,19.86,2.07l-5.88,6.54s-.32,1-.31,1v17.43a70,70,0,0,0-13.67-1.35,70,70,0,0,0-13.67,1.35v-17.43s-.3-1-.3-1l-5.89-6.54A96.26,96.26,0,0,1,89.29-233.92Zm0,164.56a69,69,0,0,1-68.95-68.87c0-.16,0-.32,0-.49,0-.74,0-1.48.06-2.21a69,69,0,0,1,31.53-55l1-.64a69.36,69.36,0,0,1,7.5-4l1-.46A68.22,68.22,0,0,1,69-203.93l1-.29c1.52-.44,3.07-.84,4.64-1.18l1-.22A68.45,68.45,0,0,1,89.29-207,68.45,68.45,0,0,1,103-205.62l1,.22c1.58.34,3.13.74,4.67,1.19l1,.28a69.8,69.8,0,0,1,7.51,2.83l1,.46a69.36,69.36,0,0,1,7.5,4l1,.64a69,69,0,0,1,31.54,55.08c0,.66,0,1.32,0,2,0,.23,0,.46,0,.69A69,69,0,0,1,89.29-69.36Zm19.34-1.47v18c-1.54.35-3.1.66-4.67.92V-69.65C105.54-70,107.09-70.39,108.63-70.83Zm-34,1.18v17.74c-1.56-.26-3.11-.57-4.64-.91v-18C71.51-70.39,73.05-70,74.62-69.65ZM70-205.53v-17.73c1.53-.35,3.08-.65,4.64-.92v17.48C73.05-206.37,71.51-206,70-205.53Zm38.65,0c-1.54-.45-3.09-.84-4.67-1.18v-17.48c1.57.27,3.13.57,4.67.92Zm-95.38-6q2.94-3,6.09-5.82l1-.87A105.92,105.92,0,0,1,51.94-237l1-.38q3.69-1.35,7.5-2.43l1,.62,6.09,6.76q-3.07.72-6.09,1.63l-1,.3c-2.54.79-5,1.7-7.5,2.69l-1,.41A97.28,97.28,0,0,0,20.34-206l-1,1c-2.14,2.23-4.17,4.57-6.09,7Zm0,15.16q2.88-3.74,6.09-7.17l1-1.05a96.3,96.3,0,0,1,31.6-21.75l1-.42c2.45-1,5-1.92,7.5-2.72l1-.31c2.26-.69,4.54-1.29,6.86-1.81l5.84,6.49a88,88,0,0,0-12.7,3.19l-1,.34c-2.55.89-5.06,1.88-7.5,3l-1,.47a88.87,88.87,0,0,0-31.6,24.87l-1,1.26a91.06,91.06,0,0,0-6.09,9Zm0,15.33a87.49,87.49,0,0,1,6.09-9.3l1-1.31A88,88,0,0,1,51.94-217l1-.47c2.44-1.12,5-2.13,7.5-3l1-.35q3.7-1.24,7.54-2.16v17.79a70.07,70.07,0,0,0-49.64,66.93c0,.06,0,.13,0,.2v.2a69.42,69.42,0,0,0,.95,11l0,.53a70.06,70.06,0,0,0,31.6,47.39l1,.64a71.46,71.46,0,0,0,7.5,4l1,.45A70,70,0,0,0,69-71.11v18q-3.84-.91-7.54-2.16l-1-.35c-2.55-.89-5.06-1.91-7.5-3l-1-.47a87.83,87.83,0,0,1-31.6-25.37l-1-1.3A88.52,88.52,0,0,1,13.25-95ZM61.44-36.87l-1,.63q-3.81-1.08-7.5-2.44l-1-.38a105.89,105.89,0,0,1-31.6-18.8l-1-.88q-3.15-2.79-6.09-5.82V-78.08q2.88,3.64,6.09,7l1,1a97.1,97.1,0,0,0,31.6,21.4l1,.41c2.45,1,5,1.9,7.5,2.7l1,.3c2,.6,4,1.15,6.09,1.62Zm6.86-7.61C66-45,63.7-45.61,61.44-46.29l-1-.31c-2.54-.81-5-1.72-7.5-2.73l-1-.41a96.3,96.3,0,0,1-31.6-21.75l-1-1.05Q16.13-76,13.25-79.71V-93a89.75,89.75,0,0,0,6.09,9l1,1.27A89,89,0,0,0,51.94-58l1,.47c2.44,1.1,5,2.1,7.5,3l1,.34A88.06,88.06,0,0,0,74.14-51Zm21,2.32a95.58,95.58,0,0,1-19.86-2.08l5.88-6.54s.32-1,.31-1v-17.7a70,70,0,0,0,13.67,1.35A70,70,0,0,0,103-69.44v17.7s.3,1,.31,1l5.88,6.54A95.58,95.58,0,0,1,89.29-42.16Zm76-22.39c-2,2-4,3.95-6.09,5.81l-1,.88a105.89,105.89,0,0,1-31.6,18.8l-1,.38q-3.69,1.36-7.5,2.44l-1-.63-6.09-6.76c2.06-.47,4.08-1,6.09-1.62l1-.3q3.83-1.2,7.5-2.7l1-.41a97.1,97.1,0,0,0,31.6-21.4l1-1q3.21-3.36,6.09-7Zm0-15.16q-2.88,3.73-6.09,7.17l-1,1.05a96.2,96.2,0,0,1-31.6,21.75l-1,.41q-3.67,1.52-7.5,2.73l-1,.31c-2.26.68-4.54,1.29-6.86,1.81L104.44-51a88.06,88.06,0,0,0,12.7-3.2l1-.34c2.55-.88,5.06-1.88,7.5-3l1-.47a88.87,88.87,0,0,0,31.6-24.87l1-1.27a89.75,89.75,0,0,0,6.09-9Zm0-15.33a88.52,88.52,0,0,1-6.09,9.3l-1,1.3a88,88,0,0,1-31.6,25.38l-1,.46c-2.44,1.13-5,2.14-7.5,3l-1,.35c-2.46.83-5,1.55-7.51,2.16V-71.12a69.47,69.47,0,0,0,7.51-2.77l1-.45a71.46,71.46,0,0,0,7.5-4l1-.64a70.06,70.06,0,0,0,31.6-47.39l0-.51a70,70,0,0,0,.95-11.1v-.16c0-.07,0-.14,0-.21a70.07,70.07,0,0,0-49.61-66.93V-223c2.54.61,5.05,1.33,7.51,2.15l1,.35c2.55.9,5.06,1.91,7.5,3l1,.47a88,88,0,0,1,31.6,25.37l1,1.31a87.49,87.49,0,0,1,6.09,9.3Zm0-88a91.06,91.06,0,0,0-6.09-9l-1-1.27a89,89,0,0,0-31.6-24.86l-1-.47c-2.44-1.11-5-2.1-7.5-3l-1-.34a88,88,0,0,0-12.7-3.19l5.84-6.49c2.32.52,4.6,1.12,6.86,1.81l1,.31c2.55.8,5,1.72,7.5,2.72l1,.42a96.2,96.2,0,0,1,31.6,21.75l1,1.05q3.21,3.43,6.09,7.17Zm0-15c-1.92-2.42-4-4.76-6.09-7l-1-1a97.28,97.28,0,0,0-31.6-21.41l-1-.41c-2.45-1-5-1.9-7.5-2.69l-1-.3c-2-.61-4-1.15-6.09-1.63l6.09-6.76,1-.62q3.81,1.08,7.5,2.43l1,.38a105.92,105.92,0,0,1,31.6,18.81l1,.87c2.1,1.86,4.14,3.8,6.09,5.82Zm7.08,159-6.08,6.08v-31.2q3.18-3.31,6.08-6.92Zm0-33.63c-1.92,2.44-4,4.8-6.08,7.06V-79.37a99.28,99.28,0,0,0,6.08-9Zm0-17.64A94.2,94.2,0,0,1,166.33-81V-94.78A88.72,88.72,0,0,0,172.41-108Zm0-20.81a87,87,0,0,1-6.08,14.26v-82.38A87,87,0,0,1,172.41-165Zm0-56.95a88.83,88.83,0,0,0-6.08-13.25v-13.75a96.63,96.63,0,0,1,6.08,9.27Zm0-19.69a96.54,96.54,0,0,0-6.08-9v-13.77c2.12,2.26,4.16,4.61,6.08,7Zm0-17.27q-2.9-3.58-6.08-6.92v-31.19l6.08,6.08Zm1,43.33A87.14,87.14,0,0,1,176.67-138a87,87,0,0,1-3.26,23.64Zm0,50.74A88,88,0,0,0,177.67-138a87.93,87.93,0,0,0-4.26-27.09V-184a95.32,95.32,0,0,1,11.76,46,95.28,95.28,0,0,1-11.76,46Zm0,20.92a96.21,96.21,0,0,0,12.76-48,96.21,96.21,0,0,0-12.76-48v-16.08A105.29,105.29,0,0,1,195.09-138,105.24,105.24,0,0,1,173.41-74Z"/></g></g><g class="cls-7"><path class="cls-1" d="M61.44-241.15v-58.74h-1v59c-2.54.71-5,1.52-7.5,2.41v-59.08h-1v59.45a107.06,107.06,0,0,0-31.6,18.57l-1,.85q-3.15,2.75-6.09,5.72v-31.17l6.09-6.09,1-1v-46.29h-1v45.92l-6.09,6.08v-52h-1v53l-6.08,6.09-1,.91v33.78A106.29,106.29,0,0,0-17.51-138,106.26,106.26,0,0,0,5.17-72.32v33.66l1,1,6.08,6.08v53h1v-52l6.09,6.09V21.47h1V-24.82l-1-1-6.09-6.09V-63.13q2.94,3,6.09,5.73l1,.85A107,107,0,0,0,51.94-38V21.47h1V-37.62c2.46.9,5,1.7,7.5,2.42V23.26h1V-34.93l.44-.92,6.78-7.53a96.73,96.73,0,0,0,20.63,2.22,96.73,96.73,0,0,0,20.63-2.22l6.79,7.53.43.92V23.26h1V-35.2c2.54-.72,5-1.52,7.5-2.42V21.47h1V-38a106.9,106.9,0,0,0,31.6-18.56l1-.85q3.15-2.74,6.09-5.72v31.17l-6.09,6.09-1,1.08V21.47h1V-24.45l6.09-6.09v52h1v-53l6.08-6.08,1-1V-72.31A106.29,106.29,0,0,0,196.09-138a106.29,106.29,0,0,0-22.68-65.73v-33.67l-1-1-6.08-6.09v-53h-1v52l-6.09-6.08v-45.92h-1v46.27l1,1.06,6.09,6.09V-213c-2-2-4-3.9-6.09-5.72l-1-.85a106.93,106.93,0,0,0-31.6-18.57v-59.45h-1v59.08c-2.46-.89-5-1.7-7.5-2.41v-59h-1v58.74s-.45.91-.43.92l-6.79,7.53a96.73,96.73,0,0,0-20.63-2.22,96.73,96.73,0,0,0-20.63,2.22l-6.78-7.53S61.45-241.15,61.44-241.15ZM6.17-237l6.08-6.08v31.19Q9.07-208.61,6.17-205Zm6.08,26.57v13.77a97.89,97.89,0,0,0-6.08,9v-15.67C8.09-205.87,10.13-208.22,12.25-210.48Zm160.16,99.37a87,87,0,0,1-6.08,14.26v-82.38A87,87,0,0,1,172.41-165Zm1-50.58A87.14,87.14,0,0,1,176.67-138a87,87,0,0,1-3.26,23.64ZM165.33-95a88.52,88.52,0,0,1-6.09,9.3l-1,1.3a88,88,0,0,1-31.6,25.38l-1,.46c-2.44,1.13-5,2.14-7.5,3l-1,.35c-2.46.83-5,1.55-7.51,2.16V-71.12a69.47,69.47,0,0,0,7.51-2.77l1-.45a71.46,71.46,0,0,0,7.5-4l1-.64a70.06,70.06,0,0,0,31.6-47.39l0-.51a70,70,0,0,0,.95-11.1v-.16c0-.07,0-.14,0-.21a70.07,70.07,0,0,0-49.61-66.93V-223c2.54.61,5.05,1.33,7.51,2.15l1,.35c2.55.9,5.06,1.91,7.5,3l1,.47a88,88,0,0,1,31.6,25.37l1,1.31a87.49,87.49,0,0,1,6.09,9.3Zm-145-43.68c0-.74,0-1.48.06-2.21a69,69,0,0,1,31.53-55l1-.64a69.36,69.36,0,0,1,7.5-4l1-.46A68.22,68.22,0,0,1,69-203.93l1-.29c1.52-.44,3.07-.84,4.64-1.18l1-.22A68.45,68.45,0,0,1,89.29-207,68.45,68.45,0,0,1,103-205.62l1,.22c1.58.34,3.13.74,4.67,1.19l1,.28a69.8,69.8,0,0,1,7.51,2.83l1,.46a69.36,69.36,0,0,1,7.5,4l1,.64a69,69,0,0,1,31.54,55.08c0,.66,0,1.32,0,2,0,.23,0,.46,0,.69A69,69,0,0,1,89.29-69.36a69,69,0,0,1-68.95-68.87C20.35-138.39,20.35-138.55,20.35-138.72Zm-1,.41c0,.06,0,.13,0,.2v.2a69.42,69.42,0,0,0,.95,11l0,.53a70.1,70.1,0,0,0,31.6,47.39l1,.64a71.46,71.46,0,0,0,7.5,4l1,.45A70,70,0,0,0,69-71.11v18q-3.84-.91-7.54-2.16l-1-.35c-2.55-.89-5.06-1.91-7.5-3l-1-.47a87.83,87.83,0,0,1-31.6-25.37l-1-1.3A88.52,88.52,0,0,1,13.25-95v-86a87.49,87.49,0,0,1,6.09-9.3l1-1.31A88,88,0,0,1,51.94-217l1-.47c2.44-1.12,5-2.13,7.5-3l1-.35q3.7-1.24,7.54-2.16v17.79A70.07,70.07,0,0,0,19.34-138.31ZM6.17-165a87,87,0,0,1,6.08-14.26v82.38a87,87,0,0,1-6.08-14.26Zm-1,50.57A87,87,0,0,1,1.92-138a87,87,0,0,1,3.25-23.64Zm1-53.66v-17.73A97.14,97.14,0,0,1,12.25-195v13.75A88.72,88.72,0,0,0,6.17-168.06Zm-1,2.93A87.93,87.93,0,0,0,.92-138,87.91,87.91,0,0,0,5.17-111v18.88A95.31,95.31,0,0,1-6.59-138,95.28,95.28,0,0,1,5.17-184Zm1,57.1a88.83,88.83,0,0,0,6.08,13.25V-81A97.29,97.29,0,0,1,6.17-90.3Zm7.08,15a89.75,89.75,0,0,0,6.09,9l1,1.27A89,89,0,0,0,51.94-58l1,.47c2.44,1.1,5,2.1,7.5,3l1,.34A88.06,88.06,0,0,0,74.14-51L68.3-44.48C66-45,63.7-45.61,61.44-46.29l-1-.31c-2.54-.81-5-1.72-7.5-2.73l-1-.41a96.3,96.3,0,0,1-31.6-21.75l-1-1.05Q16.13-76,13.25-79.71ZM70-52.82v-18c1.53.44,3.07.84,4.64,1.18v17.74C73.06-52.17,71.51-52.48,70-52.82Zm38.65-18v18c-1.54.35-3.1.66-4.67.92V-69.65C105.54-70,107.09-70.39,108.63-70.83Zm8.51,16.66,1-.34c2.55-.88,5.06-1.88,7.5-3l1-.47a88.87,88.87,0,0,0,31.6-24.87l1-1.27a89.75,89.75,0,0,0,6.09-9v13.34q-2.88,3.73-6.09,7.17l-1,1.05a96.2,96.2,0,0,1-31.6,21.75l-1,.41q-3.67,1.52-7.5,2.73l-1,.31c-2.26.68-4.54,1.29-6.86,1.81L104.44-51A88.06,88.06,0,0,0,117.14-54.17Zm49.19-40.61A88.72,88.72,0,0,0,172.41-108V-90.3A94.2,94.2,0,0,1,166.33-81Zm7.08-16.17A88,88,0,0,0,177.67-138a87.93,87.93,0,0,0-4.26-27.09V-184a95.32,95.32,0,0,1,11.76,46,95.28,95.28,0,0,1-11.76,46Zm-1-57.11a88.83,88.83,0,0,0-6.08-13.25v-13.75a96.63,96.63,0,0,1,6.08,9.27Zm-7.08-15a91.06,91.06,0,0,0-6.09-9l-1-1.27a89,89,0,0,0-31.6-24.86l-1-.47c-2.44-1.11-5-2.1-7.5-3l-1-.34a88,88,0,0,0-12.7-3.19l5.84-6.49c2.32.52,4.6,1.12,6.86,1.81l1,.31c2.55.8,5,1.72,7.5,2.72l1,.42a96.2,96.2,0,0,1,31.6,21.75l1,1.05q3.21,3.43,6.09,7.17Zm-56.7-40.23v17.74c-1.54-.45-3.09-.84-4.67-1.18v-17.48C105.53-223.91,107.09-223.6,108.63-223.26ZM70-205.53v-17.73c1.53-.35,3.08-.65,4.64-.92v17.48C73.05-206.37,71.51-206,70-205.53Zm-8.54-16.39-1,.34c-2.55.89-5.06,1.88-7.5,3l-1,.47a88.87,88.87,0,0,0-31.6,24.87l-1,1.26a91.06,91.06,0,0,0-6.09,9v-13.34q2.88-3.74,6.09-7.17l1-1.05a96.3,96.3,0,0,1,31.6-21.75l1-.42c2.45-1,5-1.92,7.5-2.72l1-.31c2.26-.69,4.54-1.29,6.86-1.81l5.84,6.49A88,88,0,0,0,61.44-221.92ZM-16.51-138A105.29,105.29,0,0,1,5.17-202.13V-186A96.31,96.31,0,0,0-7.59-138,96.34,96.34,0,0,0,5.17-90V-74A105.26,105.26,0,0,1-16.51-138ZM6.17-72.66V-88.33a99.28,99.28,0,0,0,6.08,9V-65.6C10.13-67.87,8.09-70.22,6.17-72.66Zm6.08,39.71L6.17-39v-32q2.89,3.58,6.08,6.92Zm49.19-3.92-1,.63q-3.81-1.08-7.5-2.44l-1-.38a105.89,105.89,0,0,1-31.6-18.8l-1-.88q-3.15-2.79-6.09-5.82V-78.08q2.88,3.64,6.09,7l1,1a97.1,97.1,0,0,0,31.6,21.4l1,.41c2.45,1,5,1.9,7.5,2.7l1,.3c2,.6,4,1.15,6.09,1.62Zm27.85-5.29a95.58,95.58,0,0,1-19.86-2.08l5.88-6.54s.32-1,.31-1v-17.7a70,70,0,0,0,13.67,1.35A70,70,0,0,0,103-69.44v17.7s.3,1,.31,1l5.88,6.54A95.58,95.58,0,0,1,89.29-42.16Zm70-16.58-1,.88a105.89,105.89,0,0,1-31.6,18.8l-1,.38q-3.69,1.36-7.5,2.44l-1-.63-6.09-6.76c2.06-.47,4.08-1,6.09-1.62l1-.3q3.83-1.2,7.5-2.7l1-.41a97.1,97.1,0,0,0,31.6-21.4l1-1q3.21-3.36,6.09-7v13.53C163.38-62.54,161.34-60.6,159.24-58.74ZM172.41-39l-6.08,6.08v-31.2q3.18-3.31,6.08-6.92ZM166.33-65.6V-79.37a97.24,97.24,0,0,0,6.08-9v15.67C170.49-70.22,168.45-67.86,166.33-65.6ZM195.09-138A105.24,105.24,0,0,1,173.41-74V-90a96.21,96.21,0,0,0,12.76-48,96.21,96.21,0,0,0-12.76-48v-16.08A105.29,105.29,0,0,1,195.09-138Zm-22.68-65.39v15.68a94.61,94.61,0,0,0-6.08-9v-13.77C168.45-208.22,170.49-205.87,172.41-203.43Zm-6.08-39.7,6.08,6.08v32q-2.9-3.58-6.08-6.92Zm-49.19,3.91,1-.62q3.81,1.08,7.5,2.43l1,.38a105.92,105.92,0,0,1,31.6,18.81l1,.87c2.1,1.86,4.14,3.8,6.09,5.82V-198c-1.92-2.42-4-4.76-6.09-7l-1-1a97.28,97.28,0,0,0-31.6-21.41l-1-.41c-2.45-1-5-1.9-7.5-2.69l-1-.3c-2-.61-4-1.15-6.09-1.63Zm-27.85,5.3a96.26,96.26,0,0,1,19.86,2.07l-5.88,6.54s-.32,1-.31,1v17.43a70,70,0,0,0-13.67-1.35,70,70,0,0,0-13.67,1.35v-17.43s-.3-1-.31-1l-5.88-6.54A96.26,96.26,0,0,1,89.29-233.92Zm-27.85-5.3,6.09,6.76q-3.07.72-6.09,1.63l-1,.3c-2.54.79-5,1.7-7.5,2.69l-1,.41A97.28,97.28,0,0,0,20.34-206l-1,1c-2.14,2.23-4.17,4.57-6.09,7v-13.52q2.94-3,6.09-5.82l1-.87A105.92,105.92,0,0,1,51.94-237l1-.38q3.69-1.35,7.5-2.43Z"/></g><path class="cls-3" d="M56.23,14h2.89c.74,0,1,.27,1,1.32v2.94c0,1.05-.23,1.31-1,1.31H56.23c-.74,0-1-.26-1-1.31V15.29C55.26,14.24,55.49,14,56.23,14Zm3,4.53V15h-3V18.5Z"/><path class="cls-3" d="M62,14h.91V18.5h2.94v1H62Z"/><path class="cls-3" d="M67.21,14h2.52C71.2,14,72,15,72,16.73a3.11,3.11,0,0,1-.87,2.38,2.31,2.31,0,0,1-1.61.43H67.21ZM69.3,18.5c1.15,0,1.73-.41,1.73-1.8,0-1.13-.44-1.74-1.29-1.74H68.12V18.5Z"/><path class="cls-3" d="M75.88,14h.94l1,3.74,1-3.74h.63l1.07,3.74,1-3.74h.81l-1.51,5.57h-.62l-1.08-3.85L78,19.54h-.63Z"/><path class="cls-3" d="M83.62,14H87c.6,0,.88.3.88,1.08v1.31c0,.78-.28,1.08-.88,1.08h-.52l1.81,2.1H87l-1.59-2.1h-.86v2.1h-.9Zm.9,1v1.56h2c.28,0,.41-.08.41-.45v-.67c0-.36-.13-.44-.41-.44Z"/><path class="cls-3" d="M89.72,14h4v.95h-3.1v1.24h1.81v.95H90.63V18.5h3.14v1h-4Z"/><path class="cls-3" d="M96.28,15V18.5h2.46V17.3l.92.27v.66c0,1.05-.24,1.31-1,1.31H96.34c-.73,0-1-.26-1-1.31V15.29c0-1,.24-1.32,1-1.32h2.34c.74,0,1,.27,1,1.32v.53l-.92.2V15Z"/><path class="cls-3" d="M101.54,14h.92v2.32L104.63,14H106l-2.6,2.63,2.92,2.94h-1.47l-2.35-2.45v2.45h-.92Z"/><path class="cls-3" d="M108.76,14h.88l2.25,5.57h-1l-.47-1.22h-2.49l-.46,1.22h-.91ZM110,17.32l-.85-2.27-.87,2.27Z"/><path class="cls-3" d="M113.84,15V18.5h2.85V17.25H115.2V16.3h2.38v1.93c0,1.05-.24,1.31-1,1.31H113.9c-.74,0-1-.26-1-1.31V15.29c0-1,.23-1.32,1-1.32h2.71c.71,0,1,.26,1,1.26v.13l-.89.23V15Z"/><path class="cls-3" d="M119.51,14h4v.95h-3.1v1.24h1.81v.95h-1.81V18.5h3.14v1h-4Z"/><path class="cls-3" d="M54.34,20.82v-.76h69.9v.76Z"/><path class="cls-8" d="M65.21,32V28.4h3.7V29H66.05v.81h1.67v.61H66.05v.9H69V32Z"/><path class="cls-8" d="M70.23,32v-3h.5l2.52,2v-2h.65v3h-.5l-2.51-2v2Z"/><path class="cls-8" d="M76.6,32l-1.79-3h.82l1.25,2.14,1.19-2.14h.74L77.1,32Z"/><path class="cls-8" d="M79.64,32v-3h.72v3Z"/><path class="cls-8" d="M81.67,32v-3h2.67a.84.84,0,0,1,.53.13.54.54,0,0,1,.17.44v.7a.54.54,0,0,1-.17.44.84.84,0,0,1-.53.13h-.4L85.35,32h-1L83.07,30.9h-.68V32ZM84,29.57H82.39v.82H84a.52.52,0,0,0,.25-.05.22.22,0,0,0,.07-.19v-.34c0-.1,0-.16-.07-.19A.52.52,0,0,0,84,29.57Z"/><path class="cls-8" d="M86.16,29.75a1,1,0,0,1,.07-.43.37.37,0,0,1,.23-.21,1.78,1.78,0,0,1,.46-.05h2.29a1.81,1.81,0,0,1,.47.05.37.37,0,0,1,.23.21,1,1,0,0,1,.07.43v1.57a1,1,0,0,1-.07.43.37.37,0,0,1-.23.21,1.49,1.49,0,0,1-.47.06H86.92a1.42,1.42,0,0,1-.46-.06.42.42,0,0,1-.24-.21,1.23,1.23,0,0,1-.06-.43Zm.72,1.7h2.38V29.6H86.88Z"/><path class="cls-8" d="M91.23,32v-3h.5l2.51,2v-2h.65v3H94.4l-2.51-2v2Z"/><path class="cls-8" d="M96.21,32v-3h.58l1.45,1.75,1.44-1.75h.58v3h-.67V30l-1.32,1.68h-.14L96.79,30v2Z"/><path class="cls-8" d="M101.58,32v-3h3.18v.52h-2.45v.65h1.43v.51h-1.43v.72h2.49V32Z"/><path class="cls-8" d="M105.84,32v-3h.49l2.52,2v-2h.65v3H109l-2.5-2v2Z"/><path class="cls-8" d="M112.59,29.59V32h-.72V29.59h-1.43v-.53H114v.53Z"/><path class="cls-5" d="M7.66,46.85h3c.77,0,1,.25,1,1.22v2.71c0,1-.25,1.22-1,1.22h-3c-.77,0-1-.25-1-1.22V48.07C6.64,47.1,6.89,46.85,7.66,46.85ZM10.76,51V47.77H7.6V51Z"/><path class="cls-5" d="M13.45,47.78h3c.55,0,.8.22.8.82v.51a.67.67,0,0,1-.57.71.75.75,0,0,1,.6.81v.54c0,.56-.35.83-1,.83H13.45Zm.81.68v1h1.85c.25,0,.37-.05.37-.3v-.39c0-.25-.12-.31-.37-.31Zm0,1.7v1.08h1.85c.28,0,.4-.07.4-.38v-.32c0-.31-.12-.38-.4-.38Z"/><path class="cls-5" d="M19.35,48.53v.89h2.2c.67,0,.88.2.88,1V51c0,.79-.21,1-.88,1h-2.2c-.67,0-.89-.21-.89-1v-.12l.74-.17v.5h2.48v-1H19.49c-.66,0-.88-.2-.88-1v-.46c0-.8.22-1,.88-1h2c.62,0,.89.17.89.91v.1l-.71.19v-.45Z"/><path class="cls-5" d="M25.87,52H25V48.53H23.41v-.75h4.1v.75H25.87Z"/><path class="cls-5" d="M29.48,47.78h.79l2,4.22h-.93L31,51.07H28.72l-.43.93h-.82Zm1.14,2.52-.79-1.76-.76,1.76Z"/><path class="cls-5" d="M33.89,48.55v2.64h2.22v-.9l.84.21V51c0,.79-.22,1-.89,1H34c-.68,0-.88-.22-.88-1V48.78c0-.79.21-1,.88-1h2.11c.67,0,.89.2.89,1v.41l-.84.14v-.78Z"/><path class="cls-5" d="M38.3,47.78h.83v3.43h2.66V52H38.3Z"/><path class="cls-5" d="M42.72,47.78h3.63v.75h-2.8v.91h1.63v.73H43.55v1h2.84V52H42.72Z"/><path class="cls-5" d="M48.38,48.53v.89h2.2c.67,0,.88.2.88,1V51c0,.79-.21,1-.88,1h-2.2c-.67,0-.89-.21-.89-1v-.12l.74-.17v.5h2.49v-1H48.53c-.67,0-.89-.2-.89-1v-.46c0-.8.22-1,.89-1h2c.63,0,.89.17.89.91v.1l-.71.19v-.45Z"/><path class="cls-5" d="M53.88,47.77c.16,0,.2.12.2.37v.8c0,.37-.07.37-.34.37H53c-.16,0-.19-.12-.19-.37v-.8c0-.37.06-.37.33-.37h.71Zm0,2.68c.16,0,.2.12.2.37v.81c0,.37-.07.37-.34.37H53c-.16,0-.19-.12-.19-.37v-.81c0-.37.06-.37.33-.37h.71Z"/><path class="cls-5" d="M60.3,49.21c1.22,0,1.39,0,1.39-1,0-.66,0-.85-1.06-.85-.76,0-1.08,0-1.08.72v.39H59.1V48c0-1.08.6-1.16,1.48-1.16,1.48,0,1.6.37,1.6,1.37,0,.64-.12,1-.6,1.15v0c.38.12.63.27.63,1.12,0,1.18-.1,1.52-1.58,1.52S59,51.82,59,50.72v-.35h.45c0,1.06,0,1.2,1.14,1.2s1.14-.13,1.14-1-.15-.91-1.42-.91Z"/><path class="cls-5" d="M67.59,50.93H65.41L65.08,52h-.51l1.59-5.07h.68L68.43,52h-.51Zm-1.06-3.51h-.07l-.9,3h1.88Z"/><path class="cls-5" d="M69.32,50.9c0,.61.1.75.76.75s.86-.1.86-.71,0-.5-.9-.55-1.14-.18-1.14-1,.14-1.05,1.2-1.05,1.25.24,1.25,1H70.9c0-.54-.14-.58-.82-.58s-.73.06-.73.62.06.54.82.59c1.06.06,1.22.14,1.22.93s-.16,1.14-1.32,1.14c-.82,0-1.2-.1-1.2-1.16Z"/><path class="cls-5" d="M72.24,48.84h-.37v-.41h.37v-.82h.45v.82h1.15v.41H72.69v2.39c0,.29.09.42.38.42s.49-.06.49-.85H74c0,1.14-.36,1.26-.88,1.26s-.84-.2-.84-.74Z"/><path class="cls-5" d="M74.88,50.32v.33c0,.78.13,1,.75,1s.87,0,.87-.71H77v.13c0,.72-.17,1-1.25,1s-1.31-.39-1.31-1.84.24-1.85,1.31-1.85S77,48.81,77,49.78v.54Zm1.62-.45c0-.75,0-1.09-.81-1.09s-.81.34-.81,1.09Z"/><path class="cls-5" d="M77.69,48.43h.45v.43h0a.79.79,0,0,1,.83-.49c.57,0,.83.25.83,1v.29H79.4c0-.66-.07-.84-.58-.84s-.68.25-.68.74V52h-.45Z"/><path class="cls-5" d="M81.54,48.37c1.17,0,1.31.43,1.31,1.85s-.15,1.84-1.31,1.84-1.32-.37-1.32-1.84S80.36,48.37,81.54,48.37Zm0,3.28c.71,0,.82-.1.82-1.43s-.11-1.44-.82-1.44-.83.11-.83,1.44S80.82,51.65,81.54,51.65Z"/><path class="cls-5" d="M83.65,46.93h.45v.6h-.45Zm0,1.5h.45V52h-.45Z"/><path class="cls-5" d="M87.09,51.55h0a.85.85,0,0,1-.92.51c-1,0-1.26-.44-1.26-1.84s.27-1.85,1.19-1.85a1,1,0,0,1,1,.51h0v-2h.45V52h-.45Zm-.85.06c.75,0,.85-.26.85-1.6,0-.88-.21-1.19-.85-1.19s-.85.16-.85,1.4S85.54,51.61,86.24,51.61Z"/><path class="cls-5" d="M88.77,50.9c0,.61.09.75.76.75s.85-.1.85-.71,0-.5-.89-.55-1.14-.18-1.14-1,.14-1.05,1.2-1.05,1.25.24,1.25,1h-.45c0-.54-.15-.58-.82-.58s-.74.06-.74.62.07.54.82.59c1.06.06,1.22.14,1.22.93s-.16,1.14-1.31,1.14c-.82,0-1.2-.1-1.2-1.16Z"/><path class="cls-5" d="M91.92,51.36h.49v.76c0,.6-.17.64-.53.64v-.28c.19,0,.25,0,.25-.48h-.21Z"/><path class="cls-5" d="M95.55,46.93h2.9v.45H96v1.54h0c.25-.34.52-.39,1.09-.39,1.29,0,1.48.5,1.48,1.76,0,1.54-.31,1.77-1.63,1.77-.86,0-1.54-.16-1.54-1.13v-.38h.45c0,.86.08,1,1.13,1s1.1-.19,1.1-1.28c0-.94,0-1.27-1.13-1.27-.65,0-.88,0-1,.45h-.42Z"/><path class="cls-5" d="M101.35,46.93h1.94c1.49,0,1.56.86,1.56,2.34,0,1.85-.09,2.73-1.63,2.73h-1.87Zm.49,4.58h1.54c.81,0,1-.43,1-2s-.16-2-1-2h-1.54Z"/><path class="cls-5" d="M106,50.32v.33c0,.78.13,1,.75,1s.88,0,.88-.71h.44v.13c0,.72-.17,1-1.24,1s-1.32-.39-1.32-1.84.24-1.85,1.32-1.85,1.24.44,1.24,1.41v.54Zm1.63-.45c0-.75,0-1.09-.82-1.09s-.81.34-.81,1.09Z"/><path class="cls-5" d="M108.86,46.93h.45v2h0a1,1,0,0,1,1-.51c.92,0,1.19.45,1.19,1.85s-.27,1.84-1.26,1.84a.85.85,0,0,1-.92-.51h0V52h-.45Zm1.3,1.89c-.64,0-.85.31-.85,1.19,0,1.34.1,1.6.85,1.6s.85-.16.85-1.39S110.86,48.82,110.16,48.82Z"/><path class="cls-5" d="M112.18,48.43h.45v.43h0a.79.79,0,0,1,.83-.49c.57,0,.83.25.83,1v.29h-.41c0-.66-.07-.84-.58-.84s-.68.25-.68.74V52h-.45Z"/><path class="cls-5" d="M114.89,46.93h.45v.6h-.45Zm0,1.5h.45V52h-.45Z"/><path class="cls-5" d="M116.64,50.9c0,.61.1.75.77.75s.85-.1.85-.71-.05-.5-.9-.55-1.14-.18-1.14-1,.14-1.05,1.21-1.05,1.24.24,1.24,1h-.45c0-.54-.14-.58-.81-.58s-.74.06-.74.62.06.54.82.59c1.06.06,1.22.14,1.22.93s-.16,1.14-1.32,1.14c-.82,0-1.2-.1-1.2-1.16Z"/><path class="cls-5" d="M124.74,50.7c0,1.1-.35,1.36-1.57,1.36s-1.8-.25-1.8-1.74V48.61c0-1.48.46-1.73,1.8-1.73,1.12,0,1.57.14,1.57,1.32v.36h-.45v-.32c0-.8-.26-.87-1.12-.87-1.16,0-1.31.15-1.31,1.27v1.65c0,1.12.15,1.28,1.31,1.28s1.12-.22,1.12-.92v-.33h.45Z"/><path class="cls-5" d="M125.52,46.93H126V52h-.45Z"/><path class="cls-5" d="M128.09,48.37c1.17,0,1.31.43,1.31,1.85s-.15,1.84-1.31,1.84-1.32-.37-1.32-1.84S126.91,48.37,128.09,48.37Zm0,3.28c.71,0,.82-.1.82-1.43s-.11-1.44-.82-1.44-.83.11-.83,1.44S127.37,51.65,128.09,51.65Z"/><path class="cls-5" d="M132.58,52h-.45v-.46h0a1,1,0,0,1-1,.52c-.82,0-1-.41-1-1.11V48.43h.45v2.42c0,.41.09.8.68.8s.92-.21.92-1V48.43h.45Z"/><path class="cls-5" d="M135.46,51.55h0a.84.84,0,0,1-.91.51c-1,0-1.27-.44-1.27-1.84s.27-1.85,1.2-1.85a1,1,0,0,1,1,.51h0v-2h.45V52h-.45Zm-.86.06c.75,0,.86-.26.86-1.6,0-.88-.21-1.19-.86-1.19s-.85.16-.85,1.4S133.9,51.61,134.6,51.61Z"/><path class="cls-5" d="M137.13,50.9c0,.61.1.75.76.75s.86-.1.86-.71-.05-.5-.9-.55-1.14-.18-1.14-1,.14-1.05,1.2-1.05,1.25.24,1.25,1h-.45c0-.54-.14-.58-.82-.58s-.73.06-.73.62.06.54.82.59c1.06.06,1.22.14,1.22.93s-.16,1.14-1.32,1.14c-.82,0-1.2-.1-1.2-1.16Z"/><path class="cls-5" d="M140.29,51.36h.49V52h-.49Z"/><path class="cls-5" d="M7.6,68.15v1.1h2.57c.78,0,1,.25,1,1.22v.71c0,1-.25,1.22-1,1.22H7.62c-.77,0-1-.25-1-1.22V71l.85-.22v.61h2.92V70.25H7.78c-.78,0-1-.25-1-1.22v-.57c0-1,.24-1.21,1-1.21h2.34c.74,0,1,.24,1,1.12v.12l-.85.25v-.59Z"/><path class="cls-5" d="M12.89,68.18h3.63v.75h-2.8v.91h1.64v.73H13.72v1h2.84v.79H12.89Z"/><path class="cls-5" d="M19.77,72.4H19V68.94H17.32v-.76h4.09v.76H19.77Z"/><path class="cls-5" d="M23.3,71.61h2.35V68.18h.83V71.4c0,.79-.21,1-.88,1H23.36c-.68,0-.88-.21-.88-1V68.18h.82Z"/><path class="cls-5" d="M28,68.18h3c.55,0,.8.22.8.81v.94c0,.59-.25.82-.8.82H28.8V72.4H28Zm.81.72V70h1.88c.25,0,.38-.06.38-.33v-.45c0-.28-.13-.34-.38-.34Z"/><path class="cls-5" d="M34,68.17c.16,0,.19.11.19.36v.82c0,.36-.06.36-.33.36h-.71c-.16,0-.2-.12-.2-.36v-.82c0-.36.07-.36.34-.36H34Zm0,2.68c.16,0,.19.12.19.37V72c0,.37-.06.37-.33.37h-.71c-.16,0-.2-.12-.2-.37v-.81c0-.37.07-.37.34-.37H34Z"/><path class="cls-5" d="M41.88,71.33H39.7l-.33,1.07h-.51l1.59-5.07h.68l1.59,5.07h-.51Zm-1.06-3.51h-.07l-.9,3h1.88Z"/><path class="cls-5" d="M43.61,71.3c0,.61.1.75.76.75s.86-.1.86-.7,0-.51-.9-.56-1.14-.18-1.14-1,.14-1,1.2-1,1.25.23,1.25,1h-.45c0-.54-.15-.58-.82-.58s-.73.06-.73.62.06.54.82.59c1,.06,1.22.14,1.22.93s-.17,1.14-1.32,1.14c-.82,0-1.2-.1-1.2-1.16Z"/><path class="cls-5" d="M46.53,69.24h-.37v-.41h.37V68H47v.83h1.15v.41H47v2.39c0,.29.09.42.38.42s.48-.06.48-.85h.41c0,1.14-.36,1.26-.88,1.26s-.84-.2-.84-.74Z"/><path class="cls-5" d="M49.17,70.72v.33c0,.78.13,1,.75,1s.87,0,.87-.71h.45v.13c0,.72-.17,1-1.25,1s-1.31-.39-1.31-1.84.23-1.84,1.31-1.84,1.25.43,1.25,1.4v.54Zm1.62-.45c0-.75,0-1.09-.81-1.09s-.81.34-.81,1.09Z"/><path class="cls-5" d="M52,68.83h.45v.44h0a.78.78,0,0,1,.83-.49c.57,0,.83.24.83,1V70h-.41c0-.66-.07-.84-.58-.84s-.68.25-.68.74V72.4H52Z"/><path class="cls-5" d="M55.82,68.78c1.18,0,1.32.41,1.32,1.84s-.15,1.84-1.32,1.84-1.31-.36-1.31-1.84S54.65,68.78,55.82,68.78Zm0,3.27c.72,0,.83-.1.83-1.43s-.11-1.44-.83-1.44-.82.11-.82,1.44S55.11,72.05,55.82,72.05Z"/><path class="cls-5" d="M57.94,67.33h.45v.6h-.45Zm0,1.5h.45V72.4h-.45Z"/><path class="cls-5" d="M61.38,72h0a.85.85,0,0,1-.92.51c-1,0-1.27-.44-1.27-1.84s.28-1.84,1.2-1.84a1,1,0,0,1,1,.5h0v-2h.45V72.4h-.45Zm-.85.06c.75,0,.85-.27.85-1.6,0-.88-.21-1.19-.85-1.19s-.86.16-.86,1.4S59.83,72,60.53,72Z"/><path class="cls-5" d="M63.06,71.3c0,.61.09.75.76.75s.85-.1.85-.7,0-.51-.89-.56-1.14-.18-1.14-1,.14-1,1.2-1,1.25.23,1.25,1h-.45c0-.54-.15-.58-.82-.58s-.74.06-.74.62.07.54.82.59c1.06.06,1.22.14,1.22.93S65,72.46,63.8,72.46c-.81,0-1.19-.1-1.19-1.16Z"/><path class="cls-5" d="M67.8,68.83h.45v.53h0a1,1,0,0,1,.95-.58c.48,0,.84.1,1,.58a1.09,1.09,0,0,1,1.07-.58c.73,0,1.07.34,1.07,1V72.4h-.45V70.09c0-.71-.29-.87-.75-.87s-.86.23-.86.93V72.4h-.45V69.93c0-.53-.22-.71-.71-.71-.65,0-.9.39-.9,1.14v2H67.8Z"/><path class="cls-5" d="M75.61,72.4h-.45v-.46h0a1,1,0,0,1-1,.52c-.83,0-1-.41-1-1.11V68.83h.45v2.42c0,.41.09.8.68.8s.92-.21.92-1V68.83h.45Z"/><path class="cls-5" d="M76.79,71.3c0,.61.1.75.76.75s.86-.1.86-.7,0-.51-.9-.56-1.14-.18-1.14-1,.14-1,1.2-1,1.25.23,1.25,1h-.45c0-.54-.14-.58-.82-.58s-.73.06-.73.62.06.54.82.59c1.06.06,1.22.14,1.22.93s-.16,1.14-1.32,1.14c-.82,0-1.2-.1-1.2-1.16Z"/><path class="cls-5" d="M79.71,69.24h-.37v-.41h.37V68h.45v.83h1.15v.41H80.16v2.39c0,.29.09.42.38.42S81,72,81,71.2h.4c0,1.14-.36,1.26-.88,1.26s-.84-.2-.84-.74Z"/><path class="cls-5" d="M83.91,67.33h.45v2h0a1,1,0,0,1,1-.5c.92,0,1.2.44,1.2,1.84s-.28,1.84-1.27,1.84a.85.85,0,0,1-.92-.51h0v.45h-.45Zm1.3,1.89c-.64,0-.85.31-.85,1.19,0,1.33.1,1.6.85,1.6s.86-.16.86-1.39S85.91,69.22,85.21,69.22Z"/><path class="cls-5" d="M87.66,70.72v.33c0,.78.13,1,.75,1s.88,0,.88-.71h.44v.13c0,.72-.17,1-1.24,1s-1.32-.39-1.32-1.84.24-1.84,1.32-1.84,1.24.43,1.24,1.4v.54Zm1.63-.45c0-.75,0-1.09-.82-1.09s-.81.34-.81,1.09Z"/><path class="cls-5" d="M92.46,68.83h.45v.45h0a1,1,0,0,1,1-.5c.93,0,1.2.44,1.2,1.84s-.27,1.84-1.27,1.84a.84.84,0,0,1-.91-.51h0v1.7h-.45Zm1.31.39c-.65,0-.86.31-.86,1.19,0,1.33.11,1.6.86,1.6s.85-.16.85-1.39S94.47,69.22,93.77,69.22Z"/><path class="cls-5" d="M95.91,67.33h.45V72.4h-.45Z"/><path class="cls-5" d="M99.31,72.1a1.24,1.24,0,0,1-1,.36c-.91,0-1.12-.43-1.12-1.12s.17-1.12,1.12-1.12c.68,0,.82.07,1,.32h0v-.65c0-.53,0-.71-.79-.71s-.75.18-.75.64h-.45v-.19c0-.44.1-.85,1.22-.85s1.22.32,1.22,1V72.4h-.41ZM98.46,72c.59,0,.85-.15.85-.69s-.26-.7-.85-.7-.86.15-.86.7S97.86,72,98.46,72Z"/><path class="cls-5" d="M102.43,70c0-.65-.12-.84-.72-.84s-.82.11-.82,1.44.11,1.43.82,1.43.79-.17.79-.94h.44v.23c0,.92-.43,1.12-1.23,1.12-1.18,0-1.31-.39-1.31-1.84s.23-1.84,1.31-1.84,1.17.3,1.17,1.24Z"/><path class="cls-5" d="M104,70.72v.33c0,.78.14,1,.75,1s.88,0,.88-.71h.45v.13c0,.72-.18,1-1.25,1s-1.32-.39-1.32-1.84.24-1.84,1.32-1.84,1.25.43,1.25,1.4v.54Zm1.63-.45c0-.75,0-1.09-.81-1.09s-.82.34-.82,1.09Z"/><path class="cls-5" d="M108.94,72h0a.85.85,0,0,1-.92.51c-1,0-1.27-.44-1.27-1.84s.28-1.84,1.2-1.84a1,1,0,0,1,1,.5h0v-2h.45V72.4h-.45Zm-.85.06c.75,0,.85-.27.85-1.6,0-.88-.21-1.19-.85-1.19s-.86.16-.86,1.4S107.39,72,108.09,72Z"/><path class="cls-5" d="M112.36,69.24h-.44v-.41h.44v-.64c0-.66.31-.91.94-.91h.31v.4h-.29c-.3,0-.51.1-.51.51v.64h.79v.41h-.79V72.4h-.45Zm1.82-1.91h.45v.6h-.45Zm0,1.5h.45V72.4h-.45Z"/><path class="cls-5" d="M115.49,68.83h.45v.44h0a.78.78,0,0,1,.83-.49c.56,0,.82.24.82,1V70h-.4c0-.66-.07-.84-.59-.84s-.67.25-.67.74V72.4h-.45Z"/><path class="cls-5" d="M118.52,71.3c0,.61.1.75.76.75s.86-.1.86-.7,0-.51-.9-.56-1.14-.18-1.14-1,.14-1,1.2-1,1.25.23,1.25,1h-.45c0-.54-.15-.58-.82-.58s-.73.06-.73.62.06.54.82.59c1,.06,1.21.14,1.21.93s-.16,1.14-1.31,1.14c-.82,0-1.2-.1-1.2-1.16Z"/><path class="cls-5" d="M121.44,69.24h-.37v-.41h.37V68h.45v.83H123v.41h-1.15v2.39c0,.29.09.42.38.42s.48-.06.48-.85h.41c0,1.14-.36,1.26-.88,1.26s-.84-.2-.84-.74Z"/><path class="cls-5" d="M124,71.76h.49v.64H124Z"/><path class="cls-5" d="M130.27,71.33h-2.18l-.33,1.07h-.51l1.59-5.07h.68l1.59,5.07h-.51Zm-1.05-3.51h-.07l-.91,3h1.88Z"/><path class="cls-5" d="M131.68,67.33h.45V72.4h-.45Z"/><path class="cls-5" d="M133.11,67.33h.44V72.4h-.44Z"/><path class="cls-5" d="M138.46,72.1a1.25,1.25,0,0,1-1.05.36c-.91,0-1.11-.43-1.11-1.12s.16-1.12,1.11-1.12c.68,0,.83.07,1,.32h0v-.65c0-.53,0-.71-.79-.71s-.75.18-.75.64h-.45v-.19c0-.44.11-.85,1.22-.85s1.22.32,1.22,1V72.4h-.4ZM137.6,72c.6,0,.86-.15.86-.69s-.26-.7-.86-.7-.85.15-.85.7S137,72,137.6,72Z"/><path class="cls-5" d="M140,71.3c0,.61.1.75.77.75s.85-.1.85-.7,0-.51-.89-.56-1.15-.18-1.15-1,.14-1,1.21-1,1.24.23,1.24,1h-.44c0-.54-.15-.58-.82-.58s-.74.06-.74.62.06.54.82.59c1.06.06,1.22.14,1.22.93s-.16,1.14-1.32,1.14c-.82,0-1.19-.1-1.19-1.16Z"/><path class="cls-5" d="M143,69.24h-.37v-.41H143V68h.45v.83h1.16v.41h-1.16v2.39c0,.29.09.42.39.42s.48-.06.48-.85h.41c0,1.14-.37,1.26-.89,1.26s-.84-.2-.84-.74Z"/><path class="cls-5" d="M145.6,70.72v.33c0,.78.14,1,.75,1s.88,0,.88-.71h.44v.13c0,.72-.17,1-1.24,1s-1.32-.39-1.32-1.84.24-1.84,1.32-1.84,1.24.43,1.24,1.4v.54Zm1.63-.45c0-.75,0-1.09-.82-1.09s-.81.34-.81,1.09Z"/><path class="cls-5" d="M148.42,68.83h.44v.44h0a.77.77,0,0,1,.82-.49c.57,0,.83.24.83,1V70h-.41c0-.66-.07-.84-.58-.84s-.68.25-.68.74V72.4h-.44Z"/><path class="cls-5" d="M152.26,68.78c1.18,0,1.32.41,1.32,1.84s-.16,1.84-1.32,1.84-1.32-.36-1.32-1.84S151.08,68.78,152.26,68.78Zm0,3.27c.71,0,.83-.1.83-1.43s-.12-1.44-.83-1.44-.83.11-.83,1.44S151.54,72.05,152.26,72.05Z"/><path class="cls-5" d="M154.37,67.33h.45v.6h-.45Zm0,1.5h.45V72.4h-.45Z"/><path class="cls-5" d="M157.82,72h0a.84.84,0,0,1-.91.51c-1,0-1.27-.44-1.27-1.84s.27-1.84,1.2-1.84a1,1,0,0,1,1,.5h0v-2h.45V72.4h-.45ZM157,72c.75,0,.86-.27.86-1.6,0-.88-.21-1.19-.86-1.19s-.85.16-.85,1.4S156.26,72,157,72Z"/><path class="cls-5" d="M159.49,71.3c0,.61.1.75.76.75s.86-.1.86-.7-.05-.51-.9-.56-1.14-.18-1.14-1,.14-1,1.2-1,1.25.23,1.25,1h-.45c0-.54-.14-.58-.82-.58s-.73.06-.73.62.06.54.82.59c1.06.06,1.22.14,1.22.93s-.16,1.14-1.32,1.14c-.82,0-1.2-.1-1.2-1.16Z"/><path class="cls-5" d="M8.14,80.5a1.22,1.22,0,0,1-1.05.36c-.91,0-1.11-.43-1.11-1.12s.16-1.12,1.11-1.12c.68,0,.83.07,1,.32h0v-.65c0-.53-.05-.71-.79-.71s-.75.18-.75.64H6.1V78c0-.43.11-.85,1.22-.85s1.22.32,1.22,1V80.8h-.4Zm-.86-.09c.6,0,.86-.15.86-.69S7.88,79,7.28,79s-.85.14-.85.69S6.69,80.41,7.28,80.41Z"/><path class="cls-5" d="M9.53,77.64H9.09v-.41h.44v-.64c0-.66.31-.91.93-.91h.31v.4h-.29c-.29,0-.5.1-.5.51v.64h.78v.41H10V80.8H9.53Z"/><path class="cls-5" d="M11.21,77.64h-.37v-.41h.37V76.4h.45v.83h1.16v.41H11.66V80c0,.29.09.42.39.42s.48-.06.48-.85h.41c0,1.14-.37,1.26-.89,1.26s-.84-.2-.84-.74Z"/><path class="cls-5" d="M13.85,79.12v.33c0,.78.14,1,.75,1s.88,0,.88-.71h.45v.13c0,.72-.18,1-1.25,1s-1.32-.39-1.32-1.84.24-1.84,1.32-1.84,1.25.43,1.25,1.4v.54Zm1.63-.45c0-.75,0-1.09-.81-1.09s-.82.34-.82,1.09Z"/><path class="cls-5" d="M16.67,77.23h.44v.44h0a.78.78,0,0,1,.83-.49c.56,0,.82.24.82.95v.29h-.4c0-.66-.07-.84-.59-.84s-.68.25-.68.74V80.8h-.44Z"/><path class="cls-5" d="M21.32,77.64H21v-.41h.37V76.4h.45v.83h1.16v.41H21.77V80c0,.29.09.42.39.42s.48-.06.48-.85H23c0,1.14-.36,1.26-.88,1.26s-.84-.2-.84-.74Z"/><path class="cls-5" d="M23.53,75.73H24v2h0a1,1,0,0,1,1-.51c.83,0,1.05.41,1.05,1.1V80.8h-.44V78.39c0-.42-.1-.81-.68-.81s-.93.21-.93,1V80.8h-.45Z"/><path class="cls-5" d="M27.2,79.12v.33c0,.78.14,1,.75,1s.88,0,.88-.71h.45v.13c0,.72-.18,1-1.25,1s-1.32-.39-1.32-1.84S27,77.18,28,77.18s1.25.43,1.25,1.4v.54Zm1.63-.45c0-.75,0-1.09-.81-1.09s-.82.34-.82,1.09Z"/><path class="cls-5" d="M32.21,77.64h-.44v-.41h.44v-.64c0-.66.31-.91.93-.91h.31v.4h-.29c-.29,0-.5.1-.5.51v.64h.78v.41h-.78V80.8h-.45ZM34,75.73h.45v.6H34Zm0,1.5h.45V80.8H34Z"/><path class="cls-5" d="M35.33,77.23h.45v.44h0a.78.78,0,0,1,.83-.49c.57,0,.83.24.83.95v.29H37c0-.66-.07-.84-.58-.84s-.68.25-.68.74V80.8h-.45Z"/><path class="cls-5" d="M38.36,79.7c0,.61.1.75.76.75s.86-.1.86-.7,0-.51-.9-.56-1.14-.18-1.14-1,.14-1,1.21-1,1.24.23,1.24,1h-.45c0-.54-.14-.58-.82-.58s-.73.06-.73.62.06.54.82.59c1.06.06,1.22.14,1.22.93s-.16,1.14-1.32,1.14c-.82,0-1.2-.1-1.2-1.16Z"/><path class="cls-5" d="M41.28,77.64h-.37v-.41h.37V76.4h.45v.83h1.15v.41H41.73V80c0,.29.09.42.38.42s.49-.06.49-.85H43c0,1.14-.36,1.26-.88,1.26s-.84-.2-.84-.74Z"/><path class="cls-5" d="M46.69,77.18c1.18,0,1.32.42,1.32,1.84s-.16,1.84-1.32,1.84S45.38,80.5,45.38,79,45.52,77.18,46.69,77.18Zm0,3.27c.72,0,.83-.1.83-1.43s-.11-1.44-.83-1.44-.82.11-.82,1.44S46,80.45,46.69,80.45Z"/><path class="cls-5" d="M48.69,77.23h.44v.46h0a1,1,0,0,1,1-.51c.82,0,1,.41,1,1.1V80.8h-.45V78.39c0-.42-.09-.81-.68-.81s-.93.21-.93,1V80.8h-.44Z"/><path class="cls-5" d="M52.36,79.12v.33c0,.78.13,1,.74,1s.88,0,.88-.71h.45v.13c0,.72-.18,1-1.25,1s-1.32-.39-1.32-1.84.24-1.84,1.32-1.84,1.25.43,1.25,1.4v.54ZM54,78.67c0-.75,0-1.09-.81-1.09s-.81.34-.81,1.09Z"/><path class="cls-5" d="M57.11,77.23h.45v.53h0a1,1,0,0,1,.94-.58c.48,0,.84.1,1,.58a1.08,1.08,0,0,1,1.07-.58.93.93,0,0,1,1.06,1V80.8h-.45V78.49c0-.71-.29-.87-.75-.87s-.86.24-.86.94V80.8h-.45V78.33c0-.53-.21-.71-.7-.71-.65,0-.91.4-.91,1.14v2h-.45Z"/><path class="cls-5" d="M64.92,80.8h-.45v-.46h0a1,1,0,0,1-1,.52c-.82,0-1-.41-1-1.11V77.23h.45v2.42c0,.41.09.8.68.8s.92-.21.92-1V77.23h.45Z"/><path class="cls-5" d="M66.1,79.7c0,.61.1.75.77.75s.85-.1.85-.7,0-.51-.9-.56-1.14-.18-1.14-1,.14-1,1.21-1,1.24.23,1.24,1h-.44c0-.54-.15-.58-.82-.58s-.74.06-.74.62.06.54.82.59c1.06.06,1.22.14,1.22.93s-.16,1.14-1.32,1.14c-.82,0-1.19-.1-1.19-1.16Z"/><path class="cls-5" d="M69,77.64h-.37v-.41H69V76.4h.45v.83h1.16v.41H69.47V80c0,.29.09.42.39.42s.48-.06.48-.85h.4c0,1.14-.36,1.26-.88,1.26s-.84-.2-.84-.74Z"/><path class="cls-5" d="M73.22,75.73h.45v2h0a1,1,0,0,1,1-.5c.93,0,1.2.44,1.2,1.84s-.27,1.84-1.27,1.84a.87.87,0,0,1-.92-.5h0v.44h-.45Zm1.31,1.89c-.65,0-.86.31-.86,1.19,0,1.34.11,1.6.86,1.6s.85-.16.85-1.39S75.23,77.62,74.53,77.62Z"/><path class="cls-5" d="M77,79.12v.33c0,.78.13,1,.74,1s.88,0,.88-.71h.45v.13c0,.72-.18,1-1.25,1s-1.31-.39-1.31-1.84.23-1.84,1.31-1.84,1.25.43,1.25,1.4v.54Zm1.62-.45c0-.75,0-1.09-.81-1.09s-.81.34-.81,1.09Z"/><path class="cls-5" d="M81.78,77.23h.45v.45h0a1,1,0,0,1,1-.5c.92,0,1.19.44,1.19,1.84s-.27,1.84-1.26,1.84a.86.86,0,0,1-.92-.5h0v1.69h-.45Zm1.3.39c-.64,0-.85.31-.85,1.19,0,1.34.1,1.6.85,1.6s.85-.16.85-1.39S83.78,77.62,83.08,77.62Z"/><path class="cls-5" d="M85.22,75.73h.45V80.8h-.45Z"/><path class="cls-5" d="M88.62,80.5a1.2,1.2,0,0,1-1,.36c-.91,0-1.11-.43-1.11-1.12s.16-1.12,1.11-1.12c.68,0,.83.07,1,.32h0v-.65c0-.53,0-.71-.79-.71s-.75.18-.75.64h-.45V78c0-.43.11-.85,1.22-.85s1.22.32,1.22,1V80.8h-.41Zm-.85-.09c.59,0,.85-.15.85-.69s-.26-.69-.85-.69-.85.14-.85.69S87.17,80.41,87.77,80.41Z"/><path class="cls-5" d="M91.75,78.42c0-.65-.13-.84-.72-.84s-.83.11-.83,1.44.11,1.43.83,1.43.78-.17.78-.94h.45v.23c0,.92-.44,1.12-1.23,1.12-1.18,0-1.32-.39-1.32-1.84S90,77.18,91,77.18s1.17.3,1.17,1.24Z"/><path class="cls-5" d="M93.31,79.12v.33c0,.78.13,1,.75,1s.87,0,.87-.71h.45v.13c0,.72-.18,1-1.25,1s-1.31-.39-1.31-1.84.23-1.84,1.31-1.84,1.25.43,1.25,1.4v.54Zm1.62-.45c0-.75,0-1.09-.81-1.09s-.81.34-.81,1.09Z"/><path class="cls-5" d="M98.26,80.36h0a.86.86,0,0,1-.92.5c-1,0-1.26-.44-1.26-1.84s.27-1.84,1.19-1.84a1,1,0,0,1,1,.5h0v-2h.44V80.8h-.44Zm-.86,0c.75,0,.86-.26.86-1.6,0-.88-.21-1.19-.86-1.19s-.85.16-.85,1.4S96.7,80.41,97.4,80.41Z"/><path class="cls-5" d="M101.11,77.23h.44l.71,3.12h0l.68-3.12h.64l.67,3.13h0l.7-3.13h.45l-.85,3.57h-.65l-.65-3.12h0l-.65,3.12H102Z"/><path class="cls-5" d="M106,75.73h.45v.6H106Zm0,1.5h.45V80.8H106Z"/><path class="cls-5" d="M107.39,77.64H107v-.41h.37V76.4h.45v.83H109v.41h-1.15V80c0,.29.09.42.38.42s.49-.06.49-.85h.4c0,1.14-.36,1.26-.88,1.26s-.84-.2-.84-.74Z"/><path class="cls-5" d="M109.6,75.73h.45v2h0a1,1,0,0,1,1-.51c.83,0,1,.41,1,1.1V80.8h-.45V78.39c0-.42-.09-.81-.67-.81s-.93.21-.93,1V80.8h-.45Z"/><path class="cls-5" d="M113,75.73h.45v.6H113Zm0,1.5h.45V80.8H113Z"/><path class="cls-5" d="M114.27,77.23h.45v.46h0a1,1,0,0,1,1-.51c.83,0,1,.41,1,1.1V80.8h-.45V78.39c0-.42-.09-.81-.68-.81s-.92.21-.92,1V80.8h-.45Z"/><path class="cls-5" d="M119.46,77.23h.45v.44h0a.78.78,0,0,1,.83-.49c.57,0,.82.24.82.95v.29h-.4c0-.66-.07-.84-.58-.84s-.68.25-.68.74V80.8h-.45Z"/><path class="cls-5" d="M124.14,80.5a1.21,1.21,0,0,1-1,.36c-.91,0-1.11-.43-1.11-1.12s.16-1.12,1.11-1.12c.68,0,.83.07,1,.32h0v-.65c0-.53,0-.71-.79-.71s-.75.18-.75.64h-.45V78c0-.43.11-.85,1.22-.85s1.22.32,1.22,1V80.8h-.41Zm-.85-.09c.59,0,.85-.15.85-.69s-.26-.69-.85-.69-.86.14-.86.69S122.69,80.41,123.29,80.41Z"/><path class="cls-5" d="M125.29,77.23h.45v.46h0a1,1,0,0,1,1-.51c.83,0,1.05.41,1.05,1.1V80.8h-.45V78.39c0-.42-.09-.81-.68-.81s-.92.21-.92,1V80.8h-.45Z"/><path class="cls-5" d="M130.71,80.16h0a.9.9,0,0,1-.94.52c-1.15,0-1.23-.77-1.23-1.75s.08-1.75,1.23-1.75a.88.88,0,0,1,.94.53h0v-.48h.45v3.54c0,1.06-.33,1.35-1.42,1.35-.7,0-1.13-.25-1.11-1h.45c0,.42.18.54.75.54.73,0,.88-.15.88-1Zm-.9.07c.72,0,.9-.29.9-1.3s-.18-1.31-.9-1.31S129,78,129,78.93,129.08,80.23,129.81,80.23Z"/><path class="cls-5" d="M132.33,79.12v.33c0,.78.13,1,.74,1s.88,0,.88-.71h.45v.13c0,.72-.18,1-1.25,1s-1.31-.39-1.31-1.84.23-1.84,1.31-1.84,1.25.43,1.25,1.4v.54Zm1.62-.45c0-.75,0-1.09-.81-1.09s-.81.34-.81,1.09Z"/><path class="cls-5" d="M138.68,76.22h0l-1,1.33-.32-.3,1.21-1.52h.66V80.8h-.49Z"/><path class="cls-5" d="M140.87,78.74h1.54v.41h-1.54Z"/><path class="cls-5" d="M143.06,79.91c0-1.17.33-1.39,1.59-1.51.93-.09,1-.2,1-1.23,0-.81-.12-1-1.07-1s-1.1.14-1.1.94v.25h-.45v-.3c0-.85.08-1.38,1.57-1.38,1.17,0,1.54.24,1.54,1.48s-.09,1.65-1.45,1.73c-1.09.07-1.19.32-1.19.91v.51h2.61v.49h-3.1Z"/><path class="cls-5" d="M150.14,77.18c1.18,0,1.32.42,1.32,1.84s-.16,1.84-1.32,1.84-1.32-.36-1.32-1.84S149,77.18,150.14,77.18Zm0,3.27c.72,0,.83-.1.83-1.43s-.11-1.44-.83-1.44-.82.11-.82,1.44S149.43,80.45,150.14,80.45Z"/><path class="cls-5" d="M152.38,77.64h-.44v-.41h.44v-.64c0-.66.31-.91.93-.91h.32v.4h-.3c-.29,0-.5.1-.5.51v.64h.78v.41h-.78V80.8h-.45Z"/><path class="cls-5" d="M157.15,77.18c1.17,0,1.31.42,1.31,1.84s-.15,1.84-1.31,1.84-1.32-.36-1.32-1.84S156,77.18,157.15,77.18Zm0,3.27c.71,0,.82-.1.82-1.43s-.11-1.44-.82-1.44-.83.11-.83,1.44S156.43,80.45,157.15,80.45Z"/><path class="cls-5" d="M159.26,77.64h-.37v-.41h.37V76.4h.45v.83h1.15v.41h-1.15V80c0,.29.09.42.38.42s.49-.06.49-.85h.4c0,1.14-.36,1.26-.88,1.26s-.84-.2-.84-.74Z"/><path class="cls-5" d="M161.47,75.73h.45v2h0a1,1,0,0,1,1-.51c.83,0,1.05.41,1.05,1.1V80.8h-.44V78.39c0-.42-.1-.81-.68-.81s-.93.21-.93,1V80.8h-.45Z"/><path class="cls-5" d="M165.14,79.12v.33c0,.78.14,1,.75,1s.88,0,.88-.71h.44v.13c0,.72-.17,1-1.24,1s-1.32-.39-1.32-1.84.24-1.84,1.32-1.84,1.24.43,1.24,1.4v.54Zm1.63-.45c0-.75,0-1.09-.82-1.09s-.81.34-.81,1.09Z"/><path class="cls-5" d="M168,77.23h.44v.44h0a.77.77,0,0,1,.82-.49c.57,0,.83.24.83.95v.29h-.41c0-.66-.07-.84-.58-.84s-.68.25-.68.74V80.8H168Z"/><path class="cls-5" d="M8.77,88.13H6.59L6.26,89.2H5.75l1.59-5.07H8L9.61,89.2H9.1ZM7.71,84.62H7.64l-.9,3H8.62Z"/><path class="cls-5" d="M10.5,88.1c0,.61.1.75.76.75s.86-.1.86-.7,0-.51-.9-.56-1.14-.18-1.14-1,.14-1,1.2-1,1.25.23,1.25,1h-.45c0-.54-.14-.58-.82-.58s-.73.06-.73.62.06.54.82.59c1.06.06,1.22.14,1.22.93s-.16,1.14-1.32,1.14c-.82,0-1.2-.1-1.2-1.16Z"/><path class="cls-5" d="M13.42,86h-.37v-.41h.37V84.8h.45v.83H15V86H13.87v2.39c0,.29.09.42.38.42s.49-.06.49-.85h.4c0,1.14-.36,1.26-.88,1.26s-.84-.2-.84-.74Z"/><path class="cls-5" d="M16.06,87.52v.33c0,.78.13,1,.75,1s.87,0,.87-.71h.45v.13c0,.72-.17,1-1.25,1s-1.31-.39-1.31-1.84.24-1.84,1.31-1.84,1.25.43,1.25,1.4v.54Zm1.62-.45c0-.75,0-1.09-.81-1.09s-.81.34-.81,1.09Z"/><path class="cls-5" d="M18.87,85.63h.45v.44h0a.78.78,0,0,1,.83-.49c.57,0,.83.24.83,1v.29h-.41c0-.66-.07-.84-.58-.84s-.68.25-.68.74V89.2h-.45Z"/><path class="cls-5" d="M22.72,85.58c1.17,0,1.31.42,1.31,1.84s-.15,1.84-1.31,1.84-1.32-.36-1.32-1.84S21.54,85.58,22.72,85.58Zm0,3.27c.71,0,.82-.1.82-1.43S23.43,86,22.72,86s-.83.11-.83,1.44S22,88.85,22.72,88.85Z"/><path class="cls-5" d="M24.83,84.13h.45v.6h-.45Zm0,1.5h.45V89.2h-.45Z"/><path class="cls-5" d="M28.27,88.76h0a.86.86,0,0,1-.92.5c-1,0-1.27-.44-1.27-1.84s.28-1.84,1.2-1.84a1,1,0,0,1,1,.5h0v-2h.45V89.2h-.45Zm-.85,0c.75,0,.85-.27.85-1.6,0-.88-.21-1.19-.85-1.19s-.85.17-.85,1.4S26.72,88.81,27.42,88.81Z"/><path class="cls-5" d="M30,88.1c0,.61.09.75.76.75s.85-.1.85-.7,0-.51-.89-.56-1.14-.18-1.14-1,.14-1,1.2-1,1.25.23,1.25,1h-.45c0-.54-.15-.58-.82-.58S30,86,30,86.6s.07.54.82.59c1.06.06,1.22.14,1.22.93s-.16,1.14-1.31,1.14c-.82,0-1.2-.1-1.2-1.16Z"/><path class="cls-5" d="M33.1,88.56h.49v.64H33.1Z"/><path class="cls-5" d="M36.69,84.13h1.94c1.49,0,1.56.86,1.56,2.33,0,1.86-.08,2.74-1.63,2.74H36.69Zm.5,4.58h1.53c.81,0,1-.43,1-2s-.16-2-1-2H37.19Z"/><path class="cls-5" d="M41.34,87.52v.33c0,.78.14,1,.75,1s.88,0,.88-.71h.45v.13c0,.72-.18,1-1.25,1s-1.32-.39-1.32-1.84.24-1.84,1.32-1.84,1.25.43,1.25,1.4v.54ZM43,87.07c0-.75,0-1.09-.81-1.09s-.82.34-.82,1.09Z"/><path class="cls-5" d="M44.2,84.13h.45v2h0a1,1,0,0,1,1-.5c.92,0,1.2.44,1.2,1.84s-.28,1.84-1.27,1.84a.86.86,0,0,1-.92-.5h0v.44H44.2ZM45.5,86c-.64,0-.85.31-.85,1.19,0,1.33.1,1.6.85,1.6s.86-.16.86-1.39S46.2,86,45.5,86Z"/><path class="cls-5" d="M47.52,85.63H48v.44h0a.77.77,0,0,1,.82-.49c.57,0,.83.24.83,1v.29h-.41c0-.66-.07-.84-.58-.84s-.68.25-.68.74V89.2h-.45Z"/><path class="cls-5" d="M50.23,84.13h.45v.6h-.45Zm0,1.5h.45V89.2h-.45Z"/><path class="cls-5" d="M52,88.1c0,.61.1.75.77.75s.85-.1.85-.7-.05-.51-.9-.56-1.14-.18-1.14-1,.14-1,1.21-1,1.24.23,1.24,1h-.44c0-.54-.15-.58-.82-.58S52,86,52,86.6s.06.54.82.59c1.06.06,1.22.14,1.22.93s-.16,1.14-1.32,1.14c-.82,0-1.2-.1-1.2-1.16Z"/><path class="cls-5" d="M60.08,87.9c0,1.1-.35,1.36-1.57,1.36s-1.79-.25-1.79-1.74V85.81c0-1.48.45-1.73,1.79-1.73,1.12,0,1.57.14,1.57,1.32v.36h-.45v-.32c0-.8-.26-.87-1.12-.87-1.16,0-1.3.15-1.3,1.27v1.65c0,1.12.14,1.28,1.3,1.28s1.12-.23,1.12-.92v-.33h.45Z"/><path class="cls-5" d="M60.87,84.13h.44V89.2h-.44Z"/><path class="cls-5" d="M63.43,85.58c1.18,0,1.31.42,1.31,1.84s-.15,1.84-1.31,1.84-1.32-.36-1.32-1.84S62.25,85.58,63.43,85.58Zm0,3.27c.71,0,.82-.1.82-1.43S64.14,86,63.43,86s-.83.11-.83,1.44S62.71,88.85,63.43,88.85Z"/><path class="cls-5" d="M67.92,89.2h-.45v-.46h0a1,1,0,0,1-1,.52c-.82,0-1-.41-1-1.11V85.63h.45v2.42c0,.41.09.8.68.8s.92-.21.92-1V85.63h.45Z"/><path class="cls-5" d="M70.8,88.76h0a.87.87,0,0,1-.92.5c-1,0-1.27-.44-1.27-1.84s.27-1.84,1.2-1.84a1,1,0,0,1,1,.5h0v-2h.45V89.2H70.8Zm-.85,0c.75,0,.85-.27.85-1.6,0-.88-.21-1.19-.85-1.19s-.86.17-.86,1.4S69.24,88.81,70,88.81Z"/><path class="cls-5" d="M72.47,88.1c0,.61.1.75.77.75s.85-.1.85-.7,0-.51-.9-.56-1.14-.18-1.14-1,.14-1,1.21-1,1.24.23,1.24,1h-.44c0-.54-.15-.58-.82-.58s-.74.06-.74.62.06.54.82.59c1.06.06,1.22.14,1.22.93s-.16,1.14-1.32,1.14c-.82,0-1.2-.1-1.2-1.16Z"/><path class="cls-5" d="M77.22,85.63h.45v.53h0a1,1,0,0,1,.95-.58c.47,0,.84.1,1,.58a1.09,1.09,0,0,1,1.07-.58.93.93,0,0,1,1.06,1V89.2h-.44V86.89c0-.71-.3-.87-.75-.87s-.86.23-.86.93V89.2h-.45V86.73c0-.53-.22-.71-.71-.71-.65,0-.9.4-.9,1.14v2h-.45Z"/><path class="cls-5" d="M85,89.2h-.44v-.46h0a1,1,0,0,1-1,.52c-.82,0-1-.41-1-1.11V85.63H83v2.42c0,.41.09.8.68.8s.93-.21.93-1V85.63H85Z"/><path class="cls-5" d="M86.21,88.1c0,.61.09.75.76.75s.85-.1.85-.7,0-.51-.89-.56-1.14-.18-1.14-1,.14-1,1.2-1,1.25.23,1.25,1h-.45c0-.54-.15-.58-.82-.58s-.73.06-.73.62.06.54.81.59c1.06.06,1.22.14,1.22.93s-.16,1.14-1.31,1.14c-.82,0-1.2-.1-1.2-1.16Z"/><path class="cls-5" d="M89.13,86h-.38v-.41h.38V84.8h.44v.83h1.16V86H89.57v2.39c0,.29.09.42.39.42s.48-.06.48-.85h.41c0,1.14-.37,1.26-.88,1.26s-.84-.2-.84-.74Z"/><path class="cls-5" d="M93.33,84.13h.44v2h0a1,1,0,0,1,1-.5c.92,0,1.19.44,1.19,1.84s-.27,1.84-1.26,1.84a.86.86,0,0,1-.92-.5h0v.44h-.44ZM94.63,86c-.65,0-.86.31-.86,1.19,0,1.33.11,1.6.86,1.6s.85-.16.85-1.39S95.33,86,94.63,86Z"/><path class="cls-5" d="M97.08,87.52v.33c0,.78.13,1,.75,1s.87,0,.87-.71h.45v.13c0,.72-.17,1-1.24,1s-1.32-.39-1.32-1.84.24-1.84,1.32-1.84,1.24.43,1.24,1.4v.54Zm1.62-.45c0-.75,0-1.09-.81-1.09s-.81.34-.81,1.09Z"/><path class="cls-5" d="M101.88,85.63h.45v.45h0a1,1,0,0,1,1-.5c.92,0,1.2.44,1.2,1.84s-.28,1.84-1.27,1.84a.87.87,0,0,1-.92-.5h0v1.69h-.45Zm1.3.39c-.64,0-.85.31-.85,1.19,0,1.33.1,1.6.85,1.6s.86-.16.86-1.39S103.88,86,103.18,86Z"/><path class="cls-5" d="M105.32,84.13h.45V89.2h-.45Z"/><path class="cls-5" d="M108.73,88.9a1.22,1.22,0,0,1-1,.36c-.91,0-1.11-.44-1.11-1.12s.16-1.12,1.11-1.12c.68,0,.83.08,1,.32h0v-.65c0-.53,0-.71-.8-.71s-.74.18-.74.64h-.45v-.19c0-.43.1-.85,1.22-.85s1.21.32,1.21,1V89.2h-.4Zm-.86-.09c.6,0,.86-.15.86-.69s-.26-.7-.86-.7-.85.15-.85.7S107.28,88.81,107.87,88.81Z"/><path class="cls-5" d="M111.85,86.82c0-.65-.13-.84-.72-.84s-.83.11-.83,1.44.11,1.43.83,1.43.78-.17.78-.94h.45v.23c0,.92-.43,1.12-1.23,1.12-1.18,0-1.32-.39-1.32-1.84s.24-1.84,1.32-1.84,1.17.3,1.17,1.24Z"/><path class="cls-5" d="M113.41,87.52v.33c0,.78.13,1,.75,1s.87,0,.87-.71h.45v.13c0,.72-.17,1-1.24,1s-1.32-.39-1.32-1.84.24-1.84,1.32-1.84,1.24.43,1.24,1.4v.54Zm1.62-.45c0-.75,0-1.09-.81-1.09s-.81.34-.81,1.09Z"/><path class="cls-5" d="M118.36,88.76h0a.87.87,0,0,1-.92.5c-1,0-1.27-.44-1.27-1.84s.27-1.84,1.2-1.84a1,1,0,0,1,1,.5h0v-2h.45V89.2h-.45Zm-.85,0c.74,0,.85-.27.85-1.6,0-.88-.21-1.19-.85-1.19s-.86.17-.86,1.4S116.8,88.81,117.51,88.81Z"/><path class="cls-5" d="M121.66,86h-.38v-.41h.38V84.8h.44v.83h1.16V86H122.1v2.39c0,.29.1.42.39.42s.48-.06.48-.85h.41c0,1.14-.37,1.26-.88,1.26s-.84-.2-.84-.74Z"/><path class="cls-5" d="M125.12,85.58c1.18,0,1.32.42,1.32,1.84s-.16,1.84-1.32,1.84-1.31-.36-1.31-1.84S124,85.58,125.12,85.58Zm0,3.27c.72,0,.83-.1.83-1.43s-.11-1.44-.83-1.44-.82.11-.82,1.44S124.41,88.85,125.12,88.85Z"/><path class="cls-5" d="M129.62,89.2h-.45v-.46h0a.93.93,0,0,1-1,.52c-.83,0-1-.41-1-1.11V85.63h.44v2.42c0,.41.1.8.68.8s.93-.21.93-1V85.63h.45Z"/><path class="cls-5" d="M132.33,86.82c0-.65-.12-.84-.72-.84s-.83.11-.83,1.44.12,1.43.83,1.43.79-.17.79-.94h.44v.23c0,.92-.43,1.12-1.23,1.12-1.18,0-1.32-.39-1.32-1.84s.24-1.84,1.32-1.84,1.17.3,1.17,1.24Z"/><path class="cls-5" d="M133.46,84.13h.45v2h0a1,1,0,0,1,1-.51c.83,0,1.05.41,1.05,1.1V89.2h-.44V86.79c0-.42-.09-.81-.68-.81s-.93.21-.93,1V89.2h-.45Z"/><path class="cls-5" d="M136.82,84.13h.45v.6h-.45Zm0,1.5h.45V89.2h-.45Z"/><path class="cls-5" d="M138.13,85.63h.45v.46h0a1,1,0,0,1,1-.51c.83,0,1,.41,1,1.1V89.2h-.44V86.79c0-.42-.1-.81-.68-.81s-.93.21-.93,1V89.2h-.45Z"/><path class="cls-5" d="M143.55,88.56h0a.89.89,0,0,1-.93.52c-1.16,0-1.24-.77-1.24-1.75s.08-1.75,1.24-1.75a.87.87,0,0,1,.93.53h0v-.48H144v3.54c0,1.06-.33,1.35-1.42,1.35-.69,0-1.12-.24-1.11-1h.45c0,.41.18.54.76.54s.87-.15.87-1Zm-.9.07c.73,0,.9-.29.9-1.3s-.17-1.31-.9-1.31-.79.36-.79,1.31S141.93,88.63,142.65,88.63Z"/><path class="cls-5" d="M148.78,88.9a1.21,1.21,0,0,1-1,.36c-.91,0-1.11-.44-1.11-1.12s.16-1.12,1.11-1.12c.68,0,.83.08,1,.32h0v-.65c0-.53-.05-.71-.79-.71s-.75.18-.75.64h-.45v-.19c0-.43.11-.85,1.22-.85s1.22.32,1.22,1V89.2h-.41Zm-.85-.09c.59,0,.85-.15.85-.69s-.26-.7-.85-.7-.86.15-.86.7S147.33,88.81,147.93,88.81Z"/><path class="cls-5" d="M149.93,85.63h.45v.46h0a1,1,0,0,1,1-.51c.83,0,1.05.41,1.05,1.1V89.2H152V86.79c0-.42-.09-.81-.68-.81s-.92.21-.92,1V89.2h-.45Z"/><path class="cls-5" d="M8.77,96.53H6.59L6.26,97.6H5.75l1.59-5.07H8L9.61,97.6H9.1ZM7.71,93H7.64l-.9,3H8.62Z"/><path class="cls-5" d="M10.5,96.5c0,.61.1.75.76.75s.86-.1.86-.7,0-.51-.9-.56-1.14-.18-1.14-1,.14-1,1.2-1,1.25.23,1.25,1h-.45c0-.54-.14-.58-.82-.58s-.73.06-.73.62.06.54.82.59c1.06.06,1.22.14,1.22.93s-.16,1.14-1.32,1.14c-.82,0-1.2-.1-1.2-1.16Z"/><path class="cls-5" d="M13.42,94.44h-.37V94h.37V93.2h.45V94H15v.41H13.87v2.39c0,.29.09.42.38.42s.49-.06.49-.85h.4c0,1.14-.36,1.26-.88,1.26s-.84-.2-.84-.74Z"/><path class="cls-5" d="M16.06,95.92v.33c0,.78.13,1,.75,1s.87,0,.87-.71h.45v.13c0,.72-.17,1-1.25,1s-1.31-.39-1.31-1.84S15.81,94,16.88,94s1.25.43,1.25,1.4v.54Zm1.62-.45c0-.75,0-1.09-.81-1.09s-.81.34-.81,1.09Z"/><path class="cls-5" d="M18.87,94h.45v.44h0a.78.78,0,0,1,.83-.49c.57,0,.83.24.83,1v.28h-.41c0-.66-.07-.84-.58-.84s-.68.25-.68.74V97.6h-.45Z"/><path class="cls-5" d="M22.72,94c1.17,0,1.31.42,1.31,1.84s-.15,1.84-1.31,1.84-1.32-.37-1.32-1.84S21.54,94,22.72,94Zm0,3.27c.71,0,.82-.1.82-1.43s-.11-1.44-.82-1.44-.83.11-.83,1.44S22,97.25,22.72,97.25Z"/><path class="cls-5" d="M24.83,92.53h.45v.6h-.45Zm0,1.5h.45V97.6h-.45Z"/><path class="cls-5" d="M28.27,97.15h0a.85.85,0,0,1-.92.51c-1,0-1.27-.44-1.27-1.84S26.35,94,27.27,94a1,1,0,0,1,1,.5h0v-2h.45V97.6h-.45Zm-.85.06c.75,0,.85-.27.85-1.6,0-.88-.21-1.19-.85-1.19s-.85.16-.85,1.4S26.72,97.21,27.42,97.21Z"/><path class="cls-5" d="M33.55,97.29a1.19,1.19,0,0,1-1,.37c-.91,0-1.11-.44-1.11-1.12s.16-1.12,1.11-1.12c.68,0,.83.08,1,.32h0v-.65c0-.53,0-.71-.79-.71S32,94.56,32,95h-.45v-.19c0-.43.11-.85,1.22-.85S34,94.3,34,95V97.6h-.4Zm-.86-.08c.6,0,.86-.15.86-.69s-.26-.7-.86-.7-.85.15-.85.7S32.1,97.21,32.69,97.21Z"/><path class="cls-5" d="M34.69,94h.45v.46h0a1,1,0,0,1,1-.51c.83,0,1,.41,1,1.1V97.6h-.45V95.19c0-.42-.09-.81-.67-.81s-.93.21-.93,1V97.6h-.45Z"/><path class="cls-5" d="M40.07,97.15h0a.86.86,0,0,1-.92.51c-1,0-1.27-.44-1.27-1.84S38.14,94,39.07,94a1,1,0,0,1,1,.5h0v-2h.45V97.6h-.45Zm-.85.06c.74,0,.85-.27.85-1.6,0-.88-.21-1.19-.85-1.19s-.86.16-.86,1.4S38.51,97.21,39.22,97.21Z"/><path class="cls-5" d="M43.25,94h.45v.53h0a1,1,0,0,1,.95-.58.93.93,0,0,1,1,.58A1.08,1.08,0,0,1,46.75,94a.93.93,0,0,1,1.06,1V97.6h-.45V95.29c0-.71-.29-.87-.74-.87s-.87.23-.87.94V97.6h-.44V95.13c0-.53-.22-.71-.71-.71-.65,0-.9.4-.9,1.14v2h-.45Z"/><path class="cls-5" d="M50.65,97.29a1.19,1.19,0,0,1-1,.37c-.91,0-1.11-.44-1.11-1.12s.16-1.12,1.11-1.12c.68,0,.83.08,1,.32h0v-.65c0-.53,0-.71-.79-.71s-.75.18-.75.64h-.44v-.19c0-.43.1-.85,1.21-.85s1.22.32,1.22,1V97.6h-.4Zm-.86-.08c.6,0,.86-.15.86-.69s-.26-.7-.86-.7-.85.15-.85.7S49.2,97.21,49.79,97.21Z"/><path class="cls-5" d="M51.91,98.47c.57,0,.67-.11.84-.87h-.21L51.5,94h.44l.91,3.12h0L53.63,94h.45l-1,3.94c-.16.63-.43,1-1,1a.66.66,0,0,1-.21,0Z"/><path class="cls-5" d="M56.51,92.53H57v2h0a1,1,0,0,1,1-.5c.93,0,1.2.44,1.2,1.84s-.27,1.84-1.27,1.84a.86.86,0,0,1-.92-.51h0v.45h-.45Zm1.31,1.89c-.65,0-.86.31-.86,1.19,0,1.33.11,1.6.86,1.6s.85-.16.85-1.39S58.52,94.42,57.82,94.42Z"/><path class="cls-5" d="M60.27,95.92v.33c0,.78.13,1,.74,1s.88,0,.88-.71h.45v.13c0,.72-.18,1-1.25,1s-1.31-.39-1.31-1.84S60,94,61.09,94s1.25.43,1.25,1.4v.54Zm1.62-.45c0-.75,0-1.09-.81-1.09s-.81.34-.81,1.09Z"/><path class="cls-5" d="M65.07,94h.45v.45h0a1,1,0,0,1,1-.5c.92,0,1.19.44,1.19,1.84s-.27,1.84-1.26,1.84a.85.85,0,0,1-.92-.51h0v1.7h-.45Zm1.3.39c-.64,0-.85.31-.85,1.19,0,1.33.1,1.6.85,1.6s.85-.16.85-1.39S67.07,94.42,66.37,94.42Z"/><path class="cls-5" d="M68.51,92.53H69V97.6h-.45Z"/><path class="cls-5" d="M71.91,97.29a1.16,1.16,0,0,1-1,.37c-.91,0-1.11-.44-1.11-1.12s.16-1.12,1.11-1.12c.68,0,.83.08,1,.32h0v-.65c0-.53-.05-.71-.79-.71s-.75.18-.75.64h-.45v-.19c0-.43.11-.85,1.22-.85s1.22.32,1.22,1V97.6h-.41Zm-.85-.08c.6,0,.85-.15.85-.69s-.25-.7-.85-.7-.85.15-.85.7S70.46,97.21,71.06,97.21Z"/><path class="cls-5" d="M75,95.22c0-.65-.13-.84-.72-.84s-.83.11-.83,1.44.11,1.43.83,1.43.78-.17.78-.94h.45v.23c0,.92-.44,1.12-1.23,1.12-1.18,0-1.32-.39-1.32-1.84S73.24,94,74.32,94s1.17.3,1.17,1.24Z"/><path class="cls-5" d="M76.6,95.92v.33c0,.78.13,1,.75,1s.87,0,.87-.71h.45v.13c0,.72-.18,1-1.25,1s-1.31-.39-1.31-1.84S76.34,94,77.42,94s1.25.43,1.25,1.4v.54Zm1.62-.45c0-.75,0-1.09-.81-1.09s-.81.34-.81,1.09Z"/><path class="cls-5" d="M81.55,97.15h0a.85.85,0,0,1-.92.51c-1,0-1.26-.44-1.26-1.84S79.62,94,80.54,94a1,1,0,0,1,1,.5h0v-2H82V97.6h-.44Zm-.86.06c.75,0,.86-.27.86-1.6,0-.88-.21-1.19-.86-1.19s-.85.16-.85,1.4S80,97.21,80.69,97.21Z"/><path class="cls-5" d="M86.82,97.29a1.19,1.19,0,0,1-1,.37c-.91,0-1.11-.44-1.11-1.12s.16-1.12,1.11-1.12c.68,0,.83.08,1,.32h0v-.65c0-.53,0-.71-.8-.71s-.74.18-.74.64h-.45v-.19c0-.43.1-.85,1.22-.85s1.21.32,1.21,1V97.6h-.4ZM86,97.21c.6,0,.86-.15.86-.69s-.26-.7-.86-.7-.85.15-.85.7S85.37,97.21,86,97.21Z"/><path class="cls-5" d="M88.08,94.44h-.37V94h.37V93.2h.45V94h1.16v.41H88.53v2.39c0,.29.09.42.39.42s.48-.06.48-.85h.41c0,1.14-.37,1.26-.89,1.26s-.84-.2-.84-.74Z"/><path class="cls-5" d="M92.24,94h.45v.44h0a.78.78,0,0,1,.83-.49c.57,0,.83.24.83,1v.28H94c0-.66-.07-.84-.58-.84s-.68.25-.68.74V97.6h-.45Z"/><path class="cls-5" d="M96.93,97.29a1.19,1.19,0,0,1-1.05.37c-.91,0-1.11-.44-1.11-1.12s.16-1.12,1.11-1.12c.68,0,.83.08,1,.32h0v-.65c0-.53,0-.71-.79-.71s-.75.18-.75.64H94.9v-.19c0-.43.1-.85,1.21-.85s1.22.32,1.22,1V97.6h-.4Zm-.86-.08c.6,0,.86-.15.86-.69s-.26-.7-.86-.7-.85.15-.85.7S95.48,97.21,96.07,97.21Z"/><path class="cls-5" d="M98.07,94h.45v.46h0a1,1,0,0,1,1-.51c.83,0,1,.41,1,1.1V97.6h-.45V95.19c0-.42-.09-.81-.67-.81s-.93.21-.93,1V97.6h-.45Z"/><path class="cls-5" d="M103.49,97h0a.89.89,0,0,1-.93.52c-1.16,0-1.24-.77-1.24-1.75s.08-1.75,1.24-1.75a.87.87,0,0,1,.93.53h0V94h.45v3.54c0,1.06-.33,1.35-1.42,1.35-.69,0-1.12-.24-1.11-1h.45c0,.42.18.54.76.54s.87-.15.87-1Zm-.9.07c.73,0,.9-.29.9-1.3s-.17-1.31-.9-1.31-.79.36-.79,1.31S101.87,97,102.59,97Z"/><path class="cls-5" d="M105.11,95.92v.33c0,.78.13,1,.75,1s.87,0,.87-.71h.45v.13c0,.72-.17,1-1.24,1s-1.32-.39-1.32-1.84.24-1.84,1.32-1.84,1.24.43,1.24,1.4v.54Zm1.62-.45c0-.75,0-1.09-.81-1.09s-.81.34-.81,1.09Z"/><path class="cls-5" d="M111.46,93h0l-1,1.33-.33-.31,1.22-1.51H112V97.6h-.49Z"/><path class="cls-5" d="M117,94c1.18,0,1.32.42,1.32,1.84s-.16,1.84-1.32,1.84-1.32-.37-1.32-1.84S115.78,94,117,94Zm0,3.27c.71,0,.83-.1.83-1.43s-.12-1.44-.83-1.44-.83.11-.83,1.44S116.25,97.25,117,97.25Z"/><path class="cls-5" d="M119.2,94.44h-.44V94h.44v-.64c0-.66.31-.91.93-.91h.32v.4h-.3c-.29,0-.5.1-.5.51V94h.78v.41h-.78V97.6h-.45Z"/><path class="cls-5" d="M124,94c1.17,0,1.31.42,1.31,1.84s-.15,1.84-1.31,1.84-1.32-.37-1.32-1.84S122.79,94,124,94Zm0,3.27c.71,0,.82-.1.82-1.43s-.11-1.44-.82-1.44-.83.11-.83,1.44S123.25,97.25,124,97.25Z"/><path class="cls-5" d="M126.08,94.44h-.37V94h.37V93.2h.45V94h1.15v.41h-1.15v2.39c0,.29.09.42.38.42s.49-.06.49-.85h.4c0,1.14-.36,1.26-.88,1.26s-.84-.2-.84-.74Z"/><path class="cls-5" d="M128.29,92.53h.45v2h0a1,1,0,0,1,1-.51c.83,0,1,.41,1,1.1V97.6h-.45V95.19c0-.42-.09-.81-.67-.81s-.93.21-.93,1V97.6h-.45Z"/><path class="cls-5" d="M132,95.92v.33c0,.78.13,1,.75,1s.88,0,.88-.71H134v.13c0,.72-.17,1-1.24,1s-1.32-.39-1.32-1.84.24-1.84,1.32-1.84,1.24.43,1.24,1.4v.54Zm1.63-.45c0-.75,0-1.09-.82-1.09s-.81.34-.81,1.09Z"/><path class="cls-5" d="M134.78,94h.44v.44h0a.77.77,0,0,1,.82-.49c.57,0,.83.24.83,1v.28h-.41c0-.66-.07-.84-.58-.84s-.68.25-.68.74V97.6h-.44Z"/><path class="cls-5" d="M139.37,92.53h1.94c1.48,0,1.55.86,1.55,2.33,0,1.86-.08,2.74-1.62,2.74h-1.87Zm.49,4.58h1.53c.81,0,1-.43,1-2s-.15-2-1-2h-1.53Z"/><path class="cls-5" d="M144,95.92v.33c0,.78.13,1,.75,1s.87,0,.87-.71h.45v.13c0,.72-.18,1-1.25,1s-1.31-.39-1.31-1.84.23-1.84,1.31-1.84,1.25.43,1.25,1.4v.54Zm1.62-.45c0-.75,0-1.09-.81-1.09s-.81.34-.81,1.09Z"/><path class="cls-5" d="M146.87,92.53h.45v2h0a1,1,0,0,1,1-.5c.93,0,1.2.44,1.2,1.84s-.27,1.84-1.27,1.84a.86.86,0,0,1-.92-.51h0v.45h-.45Zm1.3,1.89c-.64,0-.85.31-.85,1.19,0,1.33.11,1.6.85,1.6s.86-.16.86-1.39S148.87,94.42,148.17,94.42Z"/><path class="cls-5" d="M150.2,94h.45v.44h0a.78.78,0,0,1,.83-.49c.56,0,.82.24.82,1v.28h-.4c0-.66-.07-.84-.59-.84s-.67.25-.67.74V97.6h-.45Z"/><path class="cls-5" d="M152.91,92.53h.44v.6h-.44Zm0,1.5h.44V97.6h-.44Z"/><path class="cls-5" d="M154.66,96.5c0,.61.09.75.76.75s.85-.1.85-.7-.05-.51-.89-.56-1.14-.18-1.14-1,.14-1,1.2-1,1.25.23,1.25,1h-.45c0-.54-.15-.58-.82-.58s-.74.06-.74.62.07.54.82.59c1.06.06,1.22.14,1.22.93s-.16,1.14-1.31,1.14c-.82,0-1.2-.1-1.2-1.16Z"/><path class="cls-5" d="M9.39,104.7c0,1.1-.34,1.36-1.57,1.36S6,105.81,6,104.32v-1.71c0-1.48.45-1.73,1.79-1.73,1.12,0,1.57.14,1.57,1.32v.36H8.94v-.32c0-.8-.26-.87-1.12-.87-1.16,0-1.3.15-1.3,1.27v1.65c0,1.12.14,1.28,1.3,1.28s1.12-.22,1.12-.92v-.33h.45Z"/><path class="cls-5" d="M10.18,100.93h.45V106h-.45Z"/><path class="cls-5" d="M12.74,102.37c1.18,0,1.32.43,1.32,1.85s-.16,1.84-1.32,1.84-1.32-.37-1.32-1.84S11.56,102.37,12.74,102.37Zm0,3.28c.71,0,.83-.1.83-1.43s-.12-1.44-.83-1.44-.83.11-.83,1.44S12,105.65,12.74,105.65Z"/><path class="cls-5" d="M17.23,106h-.44v-.46h0a1,1,0,0,1-1,.52c-.82,0-1-.41-1-1.11v-2.52h.45v2.42c0,.41.09.8.68.8s.93-.21.93-1v-2.26h.44Z"/><path class="cls-5" d="M20.11,105.55h0a.86.86,0,0,1-.92.51c-1,0-1.27-.44-1.27-1.84s.28-1.85,1.2-1.85a1,1,0,0,1,1,.51h0v-1.95h.45V106h-.45Zm-.85.06c.75,0,.85-.26.85-1.6,0-.88-.21-1.19-.85-1.19s-.86.16-.86,1.4S18.56,105.61,19.26,105.61Z"/><path class="cls-5" d="M21.78,104.9c0,.61.1.75.77.75s.85-.1.85-.71c0-.46,0-.5-.89-.55s-1.15-.18-1.15-1,.14-1,1.21-1,1.25.24,1.25,1h-.45c0-.54-.15-.58-.82-.58s-.74.06-.74.62.06.54.82.59c1.06.06,1.22.14,1.22.93s-.16,1.14-1.32,1.14c-.82,0-1.19-.1-1.19-1.16Z"/><path class="cls-5" d="M24.94,105.36h.49V106h-.49Z"/><path class="cls-5" d="M29.54,101.42H28.15v-.49h3.27v.49H30V106h-.49Z"/><path class="cls-5" d="M31.84,100.93h.44v2h0a1,1,0,0,1,1-.52c.82,0,1.05.42,1.05,1.11V106h-.45v-2.41c0-.42-.09-.81-.68-.81s-.93.21-.93,1V106h-.44Z"/><path class="cls-5" d="M35.51,104.32v.33c0,.78.13,1,.74,1s.88,0,.88-.71h.45v.13c0,.72-.18,1-1.25,1S35,105.67,35,104.22s.23-1.85,1.31-1.85,1.25.44,1.25,1.41v.54Zm1.62-.45c0-.75,0-1.09-.81-1.09s-.81.34-.81,1.09Z"/><path class="cls-5" d="M38.44,106.87c.57,0,.66-.11.83-.87h-.2l-1-3.57h.44l.91,3.12h0l.76-3.12h.45l-1,3.94c-.15.63-.42.95-1,.95a.66.66,0,0,1-.21,0Z"/><path class="cls-5" d="M43,102.43h.44V103h0a1,1,0,0,1,.94-.59.94.94,0,0,1,1,.59,1.09,1.09,0,0,1,1.07-.59.93.93,0,0,1,1.06,1.06V106h-.45v-2.31c0-.71-.29-.87-.75-.87s-.86.23-.86.94V106h-.44v-2.47c0-.53-.22-.71-.71-.71-.65,0-.91.4-.91,1.14v2H43Z"/><path class="cls-5" d="M50.4,105.69a1.19,1.19,0,0,1-1,.37c-.91,0-1.11-.44-1.11-1.12s.16-1.12,1.11-1.12c.68,0,.83.08,1,.32h0v-.65c0-.53-.05-.71-.79-.71s-.75.18-.75.64h-.45v-.19c0-.43.11-.86,1.22-.86s1.22.33,1.22,1V106h-.4Zm-.86-.08c.6,0,.86-.15.86-.69s-.26-.7-.86-.7-.85.15-.85.7S49,105.61,49.54,105.61Z"/><path class="cls-5" d="M51.66,106.87c.57,0,.67-.11.83-.87h-.2l-1-3.57h.44l.91,3.12h0l.77-3.12h.45l-1,3.94c-.16.63-.43.95-1,.95a.66.66,0,0,1-.21,0Z"/><path class="cls-5" d="M56.26,100.93h.45v1.95h0a1,1,0,0,1,1-.51c.93,0,1.2.45,1.2,1.85s-.27,1.84-1.27,1.84a.86.86,0,0,1-.92-.51h0V106h-.45Zm1.3,1.89c-.64,0-.85.31-.85,1.19,0,1.34.11,1.6.85,1.6s.86-.16.86-1.39S58.26,102.82,57.56,102.82Z"/><path class="cls-5" d="M60,104.32v.33c0,.78.14,1,.75,1s.88,0,.88-.71h.45v.13c0,.72-.18,1-1.25,1s-1.32-.39-1.32-1.84.24-1.85,1.32-1.85,1.25.44,1.25,1.41v.54Zm1.63-.45c0-.75,0-1.09-.81-1.09s-.82.34-.82,1.09Z"/><path class="cls-5" d="M64.82,102.43h.44v.45h0a1,1,0,0,1,1-.51c.92,0,1.19.45,1.19,1.85s-.27,1.84-1.26,1.84a.85.85,0,0,1-.92-.51h0v1.7h-.44Zm1.3.39c-.65,0-.86.31-.86,1.19,0,1.34.11,1.6.86,1.6s.85-.16.85-1.39S66.82,102.82,66.12,102.82Z"/><path class="cls-5" d="M68.26,100.93h.45V106h-.45Z"/><path class="cls-5" d="M71.66,105.69a1.17,1.17,0,0,1-1,.37c-.91,0-1.11-.44-1.11-1.12s.16-1.12,1.11-1.12c.68,0,.83.08,1,.32h0v-.65c0-.53-.05-.71-.79-.71s-.75.18-.75.64h-.45v-.19c0-.43.11-.86,1.22-.86s1.22.33,1.22,1V106h-.41Zm-.85-.08c.59,0,.85-.15.85-.69s-.26-.7-.85-.7-.86.15-.86.7S70.21,105.61,70.81,105.61Z"/><path class="cls-5" d="M74.79,103.62c0-.65-.13-.84-.73-.84s-.82.11-.82,1.44.11,1.43.82,1.43.79-.17.79-.94h.45v.23c0,.92-.44,1.12-1.24,1.12-1.17,0-1.31-.39-1.31-1.84s.24-1.85,1.31-1.85,1.17.31,1.17,1.25Z"/><path class="cls-5" d="M76.35,104.32v.33c0,.78.13,1,.74,1s.88,0,.88-.71h.45v.13c0,.72-.18,1-1.25,1s-1.31-.39-1.31-1.84.23-1.85,1.31-1.85,1.25.44,1.25,1.41v.54Zm1.62-.45c0-.75,0-1.09-.81-1.09s-.81.34-.81,1.09Z"/><path class="cls-5" d="M81.3,105.55h0a.85.85,0,0,1-.92.51c-1,0-1.26-.44-1.26-1.84s.27-1.85,1.19-1.85a1,1,0,0,1,1,.51h0v-1.95h.44V106H81.3Zm-.86.06c.75,0,.86-.26.86-1.6,0-.88-.22-1.19-.86-1.19s-.85.16-.85,1.4S79.74,105.61,80.44,105.61Z"/><path class="cls-5" d="M86.57,105.69a1.19,1.19,0,0,1-1,.37c-.91,0-1.11-.44-1.11-1.12s.16-1.12,1.11-1.12c.68,0,.83.08,1,.32h0v-.65c0-.53,0-.71-.79-.71s-.75.18-.75.64h-.44v-.19c0-.43.1-.86,1.21-.86s1.22.33,1.22,1V106h-.4Zm-.86-.08c.6,0,.86-.15.86-.69s-.26-.7-.86-.7-.85.15-.85.7S85.12,105.61,85.71,105.61Z"/><path class="cls-5" d="M87.83,102.84h-.37v-.41h.37v-.82h.45v.82h1.16v.41H88.28v2.39c0,.29.09.42.39.42s.48-.06.48-.85h.41c0,1.14-.37,1.26-.89,1.26s-.84-.2-.84-.74Z"/><path class="cls-5" d="M92,102.43h.45v.43h0a.79.79,0,0,1,.83-.49c.57,0,.83.25.83,1v.29H93.7c0-.66-.07-.84-.58-.84s-.68.25-.68.74V106H92Z"/><path class="cls-5" d="M96.67,105.69a1.16,1.16,0,0,1-1,.37c-.91,0-1.11-.44-1.11-1.12s.16-1.12,1.11-1.12c.68,0,.83.08,1,.32h0v-.65c0-.53,0-.71-.79-.71s-.75.18-.75.64h-.45v-.19c0-.43.11-.86,1.22-.86s1.22.33,1.22,1V106h-.41Zm-.85-.08c.6,0,.85-.15.85-.69s-.25-.7-.85-.7-.85.15-.85.7S95.23,105.61,95.82,105.61Z"/><path class="cls-5" d="M97.82,102.43h.45v.46h0a1,1,0,0,1,1-.52c.83,0,1,.42,1,1.11V106h-.45v-2.41c0-.42-.09-.81-.67-.81s-.93.21-.93,1V106h-.45Z"/><path class="cls-5" d="M103.24,105.36h0a.89.89,0,0,1-.93.52c-1.16,0-1.24-.77-1.24-1.75s.08-1.76,1.24-1.76a.88.88,0,0,1,.93.54h0v-.48h.45V106c0,1.06-.33,1.35-1.42,1.35-.7,0-1.12-.25-1.11-1h.45c0,.42.18.54.76.54s.87-.15.87-1Zm-.9.07c.73,0,.9-.29.9-1.3s-.17-1.31-.9-1.31-.79.36-.79,1.31S101.62,105.43,102.34,105.43Z"/><path class="cls-5" d="M104.86,104.32v.33c0,.78.13,1,.75,1s.87,0,.87-.71h.45v.13c0,.72-.17,1-1.25,1s-1.31-.39-1.31-1.84.24-1.85,1.31-1.85,1.25.44,1.25,1.41v.54Zm1.62-.45c0-.75,0-1.09-.81-1.09s-.81.34-.81,1.09Z"/><path class="cls-5" d="M109.62,105.11c0-1.17.34-1.39,1.59-1.51.94-.09,1.06-.2,1.06-1.23,0-.81-.12-1-1.08-1s-1.09.14-1.09.94v.25h-.45v-.3c0-.85.08-1.38,1.56-1.38,1.17,0,1.55.24,1.55,1.48s-.1,1.65-1.45,1.73c-1.09.07-1.2.32-1.2.91v.51h2.62V106h-3.11Z"/><path class="cls-5" d="M116.71,102.37c1.18,0,1.32.43,1.32,1.85s-.16,1.84-1.32,1.84-1.32-.37-1.32-1.84S115.53,102.37,116.71,102.37Zm0,3.28c.71,0,.83-.1.83-1.43s-.12-1.44-.83-1.44-.83.11-.83,1.44S116,105.65,116.71,105.65Z"/><path class="cls-5" d="M119,102.84h-.44v-.41H119v-.64c0-.66.31-.91.93-.91h.32v.4h-.3c-.29,0-.5.1-.5.51v.64h.78v.41h-.78V106H119Z"/><path class="cls-5" d="M122.58,102.84h-.37v-.41h.37v-.82H123v.82h1.16v.41H123v2.39c0,.29.09.42.38.42s.49-.06.49-.85h.4c0,1.14-.36,1.26-.88,1.26s-.84-.2-.84-.74Z"/><path class="cls-5" d="M124.79,100.93h.45v2h0a1,1,0,0,1,1-.52c.83,0,1.05.42,1.05,1.11V106h-.44v-2.41c0-.42-.1-.81-.68-.81s-.93.21-.93,1V106h-.45Z"/><path class="cls-5" d="M128.46,104.32v.33c0,.78.14,1,.75,1s.88,0,.88-.71h.44v.13c0,.72-.17,1-1.24,1s-1.32-.39-1.32-1.84.24-1.85,1.32-1.85,1.24.44,1.24,1.41v.54Zm1.63-.45c0-.75,0-1.09-.81-1.09s-.82.34-.82,1.09Z"/><path class="cls-5" d="M133.22,102.43h.45v.46h0a1,1,0,0,1,1-.52c.83,0,1.05.42,1.05,1.11V106h-.45v-2.41c0-.42-.09-.81-.67-.81s-.93.21-.93,1V106h-.45Z"/><path class="cls-5" d="M136.89,104.32v.33c0,.78.13,1,.75,1s.88,0,.88-.71H139v.13c0,.72-.17,1-1.24,1s-1.32-.39-1.32-1.84.24-1.85,1.32-1.85,1.24.44,1.24,1.41v.54Zm1.63-.45c0-.75,0-1.09-.82-1.09s-.81.34-.81,1.09Z"/><path class="cls-5" d="M142.2,106h-.44v-.46h0a.94.94,0,0,1-1,.52c-.83,0-1.06-.41-1.06-1.11v-2.52h.45v2.42c0,.41.09.8.68.8s.93-.21.93-1v-2.26h.44Z"/><path class="cls-5" d="M143.07,102.84h-.38v-.41h.38v-.82h.44v.82h1.16v.41h-1.16v2.39c0,.29.09.42.39.42s.48-.06.48-.85h.41c0,1.14-.37,1.26-.88,1.26-.66,0-.84-.2-.84-.74Z"/><path class="cls-5" d="M145.28,102.43h.45v.43h0a.79.79,0,0,1,.83-.49c.56,0,.82.25.82,1v.29H147c0-.66-.07-.84-.58-.84s-.68.25-.68.74V106h-.45Z"/><path class="cls-5" d="M150,105.69a1.18,1.18,0,0,1-1,.37c-.91,0-1.12-.44-1.12-1.12s.17-1.12,1.12-1.12c.68,0,.82.08,1,.32h0v-.65c0-.53,0-.71-.79-.71s-.75.18-.75.64h-.45v-.19c0-.43.1-.86,1.22-.86s1.22.33,1.22,1V106H150Zm-.85-.08c.59,0,.85-.15.85-.69s-.26-.7-.85-.7-.86.15-.86.7S148.51,105.61,149.11,105.61Z"/><path class="cls-5" d="M151.23,100.93h.45V106h-.45Z"/><path class="cls-5" d="M154.52,100.93H155v1.95h0a1,1,0,0,1,1-.51c.93,0,1.2.45,1.2,1.85s-.27,1.84-1.27,1.84a.85.85,0,0,1-.91-.51h0V106h-.45Zm1.31,1.89c-.65,0-.86.31-.86,1.19,0,1.34.11,1.6.86,1.6s.85-.16.85-1.39S156.53,102.82,155.83,102.82Z"/><path class="cls-5" d="M159.1,102.37c1.18,0,1.32.43,1.32,1.85s-.15,1.84-1.32,1.84-1.31-.37-1.31-1.84S157.93,102.37,159.1,102.37Zm0,3.28c.72,0,.83-.1.83-1.43s-.11-1.44-.83-1.44-.82.11-.82,1.44S158.39,105.65,159.1,105.65Z"/><path class="cls-5" d="M163.19,105.69a1.18,1.18,0,0,1-1,.37c-.91,0-1.12-.44-1.12-1.12s.17-1.12,1.12-1.12c.68,0,.82.08,1,.32h0v-.65c0-.53-.05-.71-.79-.71s-.75.18-.75.64h-.45v-.19c0-.43.11-.86,1.22-.86s1.22.33,1.22,1V106h-.41Zm-.85-.08c.59,0,.85-.15.85-.69s-.26-.7-.85-.7-.86.15-.86.7S161.74,105.61,162.34,105.61Z"/><path class="cls-5" d="M164.34,102.43h.45v.43h0a.79.79,0,0,1,.83-.49c.57,0,.82.25.82,1v.29h-.4c0-.66-.07-.84-.58-.84s-.68.25-.68.74V106h-.45Z"/><path class="cls-5" d="M169.07,105.55h0a.85.85,0,0,1-.92.51c-1,0-1.26-.44-1.26-1.84s.27-1.85,1.19-1.85a1,1,0,0,1,1,.51h0v-1.95h.44V106h-.44Zm-.86.06c.75,0,.86-.26.86-1.6,0-.88-.22-1.19-.86-1.19s-.85.16-.85,1.4S167.51,105.61,168.21,105.61Z"/><path class="cls-5" d="M6.47,112.72v.33c0,.78.13,1,.75,1s.87,0,.87-.71h.45v.13c0,.72-.17,1-1.25,1S6,114.07,6,112.62s.24-1.84,1.31-1.84,1.25.43,1.25,1.4v.54Zm1.62-.45c0-.75,0-1.09-.81-1.09s-.81.34-.81,1.09Z"/><path class="cls-5" d="M11.42,114h0a.84.84,0,0,1-.91.51c-1,0-1.27-.44-1.27-1.84s.27-1.84,1.2-1.84a1,1,0,0,1,1,.5h0v-2h.45v5.07h-.45Zm-.86.06c.75,0,.86-.27.86-1.6,0-.88-.21-1.19-.86-1.19s-.85.16-.85,1.4S9.86,114,10.56,114Z"/><path class="cls-5" d="M14.83,113.76h0a.88.88,0,0,1-.93.52c-1.15,0-1.23-.77-1.23-1.75s.08-1.75,1.23-1.75a.86.86,0,0,1,.93.53h0v-.48h.45v3.54c0,1.06-.33,1.35-1.43,1.35-.69,0-1.12-.25-1.1-1h.45c0,.42.18.54.75.54.73,0,.88-.15.88-1Zm-.91.07c.73,0,.91-.29.91-1.3s-.18-1.31-.91-1.31-.78.36-.78,1.31S13.2,113.83,13.92,113.83Z"/><path class="cls-5" d="M16.44,112.72v.33c0,.78.14,1,.75,1s.88,0,.88-.71h.45v.13c0,.72-.18,1-1.25,1S16,114.07,16,112.62s.24-1.84,1.32-1.84,1.25.43,1.25,1.4v.54Zm1.63-.45c0-.75,0-1.09-.81-1.09s-.82.34-.82,1.09Z"/><path class="cls-5" d="M19.7,113.3c0,.61.1.75.76.75s.86-.1.86-.7-.05-.51-.9-.56-1.14-.18-1.14-1,.14-1,1.2-1,1.25.23,1.25,1h-.45c0-.54-.15-.58-.82-.58s-.73.06-.73.62.06.54.82.59c1.05.06,1.22.14,1.22.93s-.17,1.14-1.32,1.14c-.82,0-1.2-.1-1.2-1.16Z"/><path class="cls-5" d="M22.86,113.76h.49v.64h-.49Z"/></svg>