<svg id="Layer_1" data-name="Layer 1" xmlns="http://www.w3.org/2000/svg" xmlns:xlink="http://www.w3.org/1999/xlink" viewBox="0 0 178.58 249.45"><defs><style>.cls-1{fill:none;}.cls-2{fill:#090400;}.cls-3{clip-path:url(#clip-path);}.cls-4{fill:#fff;}</style><clipPath id="clip-path"><rect class="cls-1" x="-41.1" y="29.76" width="260.79" height="189.92" transform="translate(214.02 35.43) rotate(90)"/></clipPath></defs><rect class="cls-2" x="-41.1" y="29.76" width="260.79" height="189.92" transform="translate(214.02 35.43) rotate(90)"/><rect class="cls-1" x="-35.43" y="35.43" width="249.45" height="178.58" transform="translate(214.02 35.43) rotate(90)"/><g class="cls-3"><rect class="cls-2" x="-41.1" y="29.76" width="260.79" height="189.92" transform="translate(214.02 35.43) rotate(90)"/><path class="cls-4" d="M125.38,116.72c-.74,4.55-2.11,10.76-4.46,14.73s-10,15.69-14.58,18.71a23.33,23.33,0,0,1-11.64,3.5,8.9,8.9,0,0,1-5.85-1.75c-1.92-1.58-3.18-5.2-3.07-8.8.07-2.69.93-4.76,2.43-5.84a.92.92,0,0,1,.33-.16c1.47-.2,2.73-.43,3.31-.55a.77.77,0,0,1,.91.6c.69,3.34,1.81,5.12,4.11,6.45,4.29-3.31,7.16-7,8.32-10.77l.24-.76c1.17-3.53,3.13-9.46-2.9-15.73-8-8.4-15.35-11.26-21.68-8.43-6.93,3.09-10.13,6.89-10.72,7.63a.75.75,0,0,1-1.07.12,7.59,7.59,0,0,1-2.86-3.58.79.79,0,0,1,.21-.79c.57-.52,14.07-12.65,29.73-12.65a27.24,27.24,0,0,1,16.14,5.18,1.55,1.55,0,0,0,1.21-.57c.57-.62,1.5-2.23,1.2-6.11-.43-5.64-2.26-9.3-17-18.18-5.89,5.71-13.21,12.08-18.58,12.08a5.63,5.63,0,0,1-3.89-1.46,9.14,9.14,0,0,1-3-6.93c0-4.06,2.28-8.62,6.17-12.21a11.76,11.76,0,0,0,1.09-1.11,16.7,16.7,0,0,0-1.94.71C72.89,72,63.64,81.66,62.64,93c-1,11.61,3.11,18.85,3.14,18.93l.31.6a.77.77,0,0,1-.23,1c-2.82,2.11-16.58,13.82-11.75,37.06C58.8,173.11,89,180.1,99.4,180.1A12.35,12.35,0,0,0,101,180a19,19,0,0,0,2.37-.39c-.94-.46-2.78-1.07-4.44-1.64-1.09-.37-2.26-.79-3.48-1.22-8.17-3-23-10.18-30.22-25-6.4-13,.53-28.35,2.83-32.75a2.91,2.91,0,0,1,.18-.35.89.89,0,0,1,.62-.45c.24,0,.32.14.49.33l.24.25L73.48,123c.17.17.45.49.4.73a18.65,18.65,0,0,0,.71,8.06,3.84,3.84,0,0,0,.22.54.73.73,0,0,1,.09.35c0,2.26.08,13.92,3.06,20.8,3.14,7.23,5.92,12,15.71,12,11.5,0,20-6.08,26.74-19.12C125.34,136.78,125.78,123.9,125.38,116.72ZM75.55,122c3.16-3.54,11.1-8,16.79-5.42,6.9,3.18,10.6,12,5.43,16.32-3.51,2.9-11.09,4.16-14,3.12C80,134.61,73.19,132.35,75.55,122Z"/><path class="cls-4" d="M173.41,58.73V25.07l-1-1L166.33,18v-53h-1V17l-6.09-6.09V-35.06h-1v46.3l1,1,6.09,6.09V49.54q-2.94-3-6.09-5.73l-1-.85a106.9,106.9,0,0,0-31.6-18.56V-35.06h-1V24c-2.46-.9-5-1.7-7.5-2.42V-36.85h-1V21.34l-.43.92-6.78,7.53a97,97,0,0,0-41.27,0l-6.78-7.53-.43-.92V-36.85h-1V21.61c-2.54.72-5.05,1.52-7.51,2.42V-35.06h-1V24.4A107,107,0,0,0,20.34,43l-1,.85q-3.15,2.74-6.08,5.72V18.36l6.08-6.09,1-1.08V-35.06h-1V10.86L13.26,17v-52h-1V18L6.17,24l-1,1V58.72a106.59,106.59,0,0,0,0,131.46v33.67l1,1L12.26,231v53h1V232l6.08,6.09V284h1V237.69l-1-1.06-6.08-6.09V199.37c2,2,4,3.9,6.08,5.72l1,.85a107.06,107.06,0,0,0,31.6,18.57V284h1V224.88c2.46.89,5,1.7,7.51,2.41v59h1V227.56s.44-.91.43-.92l6.78-7.53a97,97,0,0,0,41.26,0l6.79,7.53s.42.92.43.92V286.3h1v-59c2.54-.71,5-1.52,7.5-2.41V284h1V224.51a106.93,106.93,0,0,0,31.6-18.57l1-.85c2.1-1.82,4.13-3.74,6.09-5.72v31.17l-6.09,6.09-1,1.05V284h1V238.05l6.09-6.09v52h1V231l6.08-6.09,1-.9V190.18a106.57,106.57,0,0,0,0-131.45ZM5.17,148.1a87.64,87.64,0,0,1,0-47.29Zm0-50.74a88.46,88.46,0,0,0,0,54.18v18.88a95.71,95.71,0,0,1,0-91.93Zm0-20.92a96.7,96.7,0,0,0,0,96v16.08a105.56,105.56,0,0,1,0-128.17Zm7.09,153.1-6.09-6.08v-32q2.89,3.58,6.09,6.92Zm0-32.65q-3.19-3.39-6.09-7V174.16a94.7,94.7,0,0,0,6.09,9Zm0-15.42a96.73,96.73,0,0,1-6.09-9.27V154.47a87.88,87.88,0,0,0,6.09,13.25Zm0-15.83a85.79,85.79,0,0,1-6.09-14.26V97.52a86.15,86.15,0,0,1,6.09-14.26Zm0-84.45A87.77,87.77,0,0,0,6.17,94.43V76.71a94.29,94.29,0,0,1,6.09-9.27Zm0-15.41a97.34,97.34,0,0,0-6.09,9V59.07Q9.07,55.41,12.26,52Zm0-15.22q-3.19,3.31-6.09,6.92v-32l6.09-6.09Zm77-22a95.75,95.75,0,0,1,19.87,2.08l-5.89,6.54s-.31,1-.3,1v17.7a69.94,69.94,0,0,0-27.35,0V38.15l-.3-1-5.89-6.54A95.58,95.58,0,0,1,89.29,28.57Zm69,96.07c0,.16,0,.32,0,.49,0,.74,0,1.48-.06,2.21a68.92,68.92,0,0,1-31.53,55l-1,.64a68.43,68.43,0,0,1-7.5,4.05l-1,.46a66.74,66.74,0,0,1-7.54,2.83l-1,.29c-1.52.45-3.07.84-4.63,1.18l-1,.22a69.18,69.18,0,0,1-27.35,0l-1-.23c-1.58-.34-3.13-.74-4.66-1.19l-1-.28a68.24,68.24,0,0,1-7.51-2.83l-1-.46A68.57,68.57,0,0,1,52.94,183l-1-.64a68.94,68.94,0,0,1-31.53-55.08c0-.66-.05-1.32-.05-2,0-.23,0-.46,0-.69a68.95,68.95,0,0,1,137.89,0ZM13.26,51q2.93-3,6.08-5.82l1-.88a105.89,105.89,0,0,1,31.6-18.8l1-.38q3.69-1.36,7.51-2.44l1,.63L67.53,30c-2,.47-4.08,1-6.08,1.62l-1,.3q-3.83,1.2-7.51,2.7l-1,.41a97.1,97.1,0,0,0-31.6,21.4l-1,1c-2.13,2.24-4.17,4.57-6.08,7Zm0,15.15q2.87-3.73,6.08-7.17l1-1.05a96.3,96.3,0,0,1,31.6-21.75l1-.41c2.45-1,5-1.92,7.51-2.73l1-.31C63.7,32,66,31.41,68.3,30.89l5.84,6.49.48.94V56.06c-1.58.34-3.13.74-4.66,1.18v-19a85.94,85.94,0,0,0-8.5,2.35l-1,.34c-2.56.88-5.06,1.88-7.51,3l-1,.47a89,89,0,0,0-31.6,24.87l-1,1.27a89.66,89.66,0,0,0-6.08,8.95Zm0,15.33a86.88,86.88,0,0,1,6.08-9.3l1-1.3a87.83,87.83,0,0,1,31.6-25.37l1-.47c2.44-1.12,5-2.14,7.51-3l1-.35c2.45-.83,5-1.55,7.51-2.16V57.53a68.7,68.7,0,0,0-7.51,2.77l-1,.45a70.63,70.63,0,0,0-7.51,4l-1,.64a70.1,70.1,0,0,0-31.6,47.39l0,.51a70,70,0,0,0-.95,11.1v.16c0,.07,0,.14,0,.21A70.07,70.07,0,0,0,69,191.65v17.78c-2.55-.61-5.06-1.33-7.51-2.15l-1-.35c-2.56-.9-5.07-1.91-7.51-3l-1-.47a87.94,87.94,0,0,1-31.6-25.37l-1-1.31a86.74,86.74,0,0,1-6.08-9.29ZM61.45,225.63l-1,.62q-3.83-1.08-7.51-2.43l-1-.38a105.92,105.92,0,0,1-31.6-18.81l-1-.87q-3.15-2.79-6.08-5.82V184.42c1.91,2.43,4,4.76,6.08,7l1,1a97.28,97.28,0,0,0,31.6,21.41l1,.41c2.46,1,5,1.9,7.51,2.7l1,.3q3,.9,6.08,1.62ZM68.3,218q-3.48-.78-6.85-1.81l-1-.31c-2.55-.8-5.06-1.71-7.51-2.72l-1-.41A96.48,96.48,0,0,1,20.34,191l-1-1.05q-3.21-3.44-6.08-7.16V169.44a88.66,88.66,0,0,0,6.08,9l1,1.27a89,89,0,0,0,31.6,24.86l1,.47c2.45,1.11,5,2.1,7.51,3l1,.34c2.77.92,5.61,1.7,8.5,2.35V191.93c1.53.45,3.08.84,4.66,1.18v17.48l-.48.93Zm21,2.32a96.26,96.26,0,0,1-19.86-2.07l5.89-6.54s.32-1,.3-1V193.32a69.94,69.94,0,0,0,27.35,0v17.43s.29,1,.3,1l5.88,6.54A96.26,96.26,0,0,1,89.29,220.33Zm76-22.39q-2.93,3-6.09,5.82l-1,.87a105.92,105.92,0,0,1-31.6,18.81l-1,.38q-3.69,1.35-7.5,2.43l-1-.62-6.09-6.76c2.06-.48,4.08-1,6.09-1.63l1-.3c2.55-.79,5-1.7,7.5-2.69l1-.41a97.28,97.28,0,0,0,31.6-21.41l1-1c2.14-2.23,4.17-4.57,6.09-7Zm0-15.16q-2.88,3.74-6.09,7.17l-1,1.05a96.2,96.2,0,0,1-31.6,21.75l-1,.42c-2.45,1-5,1.92-7.5,2.72l-1,.31q-3.37,1-6.86,1.81l-5.84-6.49-.47-.93V193.11c1.56-.33,3.11-.73,4.63-1.17v18.74q4.35-1,8.53-2.35l1-.34c2.55-.89,5.06-1.88,7.5-3l1-.47a89,89,0,0,0,31.6-24.86l1-1.27a89.35,89.35,0,0,0,6.09-9Zm0-15.33a87.49,87.49,0,0,1-6.09,9.3l-1,1.31a88,88,0,0,1-31.6,25.37l-1,.47q-3.66,1.68-7.5,3l-1,.35q-3.7,1.25-7.54,2.16V191.66a70.07,70.07,0,0,0,49.64-66.94,1.41,1.41,0,0,0,0-.2v-.19a70.63,70.63,0,0,0-.94-11.06l0-.53a70.06,70.06,0,0,0-31.6-47.39l-1-.64a70.48,70.48,0,0,0-7.5-4l-1-.45a70,70,0,0,0-7.54-2.78V39.47q3.84.91,7.54,2.16l1,.35q3.84,1.35,7.5,3l1,.47a87.83,87.83,0,0,1,31.6,25.37l1,1.3a88.52,88.52,0,0,1,6.09,9.3Zm0-88a88.08,88.08,0,0,0-6.09-8.95l-1-1.27a89,89,0,0,0-31.6-24.87l-1-.47c-2.44-1.1-5-2.1-7.5-3l-1-.34a87.09,87.09,0,0,0-8.52-2.35l0,1v18c-1.52-.44-3.07-.84-4.63-1.18V38.32l.47-.94,5.84-6.49c2.32.52,4.61,1.13,6.86,1.81l1,.31q3.83,1.22,7.5,2.73l1,.41a96.2,96.2,0,0,1,31.6,21.75l1,1.05q3.21,3.44,6.09,7.17Zm0-15q-2.88-3.64-6.09-7l-1-1a97.1,97.1,0,0,0-31.6-21.4l-1-.41q-3.67-1.5-7.5-2.7l-1-.3c-2-.6-4-1.15-6.09-1.62l6.09-6.76,1-.63c2.54.72,5,1.54,7.5,2.44l1,.38a105.89,105.89,0,0,1,31.6,18.8l1,.88q3.16,2.79,6.09,5.82Zm7.08,159-6.08,6.08V198.35q3.18-3.33,6.08-6.92Zm0-33.63q-2.88,3.67-6.08,7.06V183.12a95.91,95.91,0,0,0,6.08-9Zm0-17.63a96.63,96.63,0,0,1-6.08,9.27V167.71a87.72,87.72,0,0,0,6.08-13.24Zm0-20.82a87,87,0,0,1-6.08,14.26V83.26a86.7,86.7,0,0,1,6.08,14.27Zm0-56.94a87.83,87.83,0,0,0-6.08-13.25V67.44a95.4,95.4,0,0,1,6.08,9.27Zm0-19.69a96.06,96.06,0,0,0-6.08-9V52q3.19,3.41,6.08,7.06Zm0-17.27q-2.9-3.58-6.08-6.92V19.36l6.08,6.09Zm1,43.33a87.34,87.34,0,0,1,0,47.28Zm0,50.73a88.23,88.23,0,0,0,0-54.17V78.49a95.69,95.69,0,0,1,0,91.92Zm0,20.92a96.7,96.7,0,0,0,0-96V60.37a105.56,105.56,0,0,1,0,128.17Z"/><path class="cls-4" d="M18,241.47v-2l.5.43.16-.18-3-2.6-.17.19.74.65v2.4H15.08v-1.11l.65-.57-.17-.19-1.43,1.25.17.19.53-.46v2L14.3,241l-.17.19,1.5,1.31.17-.19-.72-.63v-1.11H16.3V243l-.69.6.16.19,3-2.6-.17-.19Zm-.25.22-1.23,1.08v-2.19h1.23Zm0-1.36H16.55v-2.19l1.23,1.08Z"/></g></svg>