<svg id="Layer_1" data-name="Layer 1" xmlns="http://www.w3.org/2000/svg" xmlns:xlink="http://www.w3.org/1999/xlink" viewBox="0 0 178.58 249.45"><defs><style>.cls-1{fill:none;}.cls-2{clip-path:url(#clip-path);}.cls-3{fill:#fff;}.cls-4{opacity:0.02;}.cls-5,.cls-8{fill:#090400;}.cls-6{fill:#e52722;}.cls-7{fill:#fbfbfb;}.cls-8{opacity:0;}</style><clipPath id="clip-path"><rect class="cls-1" x="-5.67" y="-5.67" width="189.92" height="260.79"/></clipPath></defs><g class="cls-2"><rect class="cls-3" x="-5.67" y="-5.67" width="189.92" height="260.79"/><g class="cls-4"><path class="cls-5" d="M173.41,92.29V58.62l-1-1-6.08-6.09v-53h-1v52l-6.09-6.09V-1.49h-1V44.78l1,1.06,6.09,6.08V83.1q-2.94-3-6.09-5.73l-1-.84A106.72,106.72,0,0,0,126.64,58V-1.49h-1V57.59c-2.46-.89-5-1.7-7.5-2.41v-59h-1V54.91a9.65,9.65,0,0,0-.43.92l-6.79,7.53a97,97,0,0,0-41.26,0l-6.78-7.53s-.43-.93-.44-.92V-3.83h-1v59c-2.54.71-5,1.52-7.5,2.41V-1.49h-1V58a107.06,107.06,0,0,0-31.6,18.57l-1,.85q-3.15,2.73-6.09,5.72V51.92l6.09-6.08,1-1.05V-1.49h-1V44.42l-6.09,6.09v-52h-1v53L6.17,57.6l-1,.9V92.29a106.57,106.57,0,0,0,0,131.45V257.4l1,1,6.08,6.08v53h1v-52l6.09,6.09v45.92h1v-46.3l-1-1-6.09-6.08V232.93q2.94,3,6.09,5.73l1,.85a107,107,0,0,0,31.6,18.56v59.46h1V258.44c2.46.89,5,1.7,7.5,2.41v58.47h1v-58.2l.44-.91,6.78-7.54a97,97,0,0,0,41.26,0l6.79,7.54.43.92v58.19h1V260.85q3.81-1.07,7.5-2.41v59.09h1V258.07a106.9,106.9,0,0,0,31.6-18.56l1-.85q3.15-2.74,6.09-5.73v31.18l-6.09,6.08-1,1.08v46.26h1V271.61l6.09-6.09v52h1v-53l6.08-6.08,1-1V223.74a106.57,106.57,0,0,0,0-131.45ZM5.17,181.65a87.57,87.57,0,0,1,0-47.27Zm0-50.72a88.43,88.43,0,0,0,0,54.17V204a95.69,95.69,0,0,1,0-91.92Zm0-20.92a96.68,96.68,0,0,0,0,96V222.1a105.56,105.56,0,0,1,0-128.17Zm7.08,153.1L6.17,257V225q2.89,3.58,6.08,6.92Zm0-32.66c-2.12-2.26-4.16-4.61-6.08-7V207.72a98,98,0,0,0,6.08,9Zm0-15.42a98.57,98.57,0,0,1-6.08-9.27V188a88.83,88.83,0,0,0,6.08,13.25Zm0-15.82a86.7,86.7,0,0,1-6.08-14.27V131.09a87,87,0,0,1,6.08-14.26Zm0-84.46A89.29,89.29,0,0,0,6.17,128V110.27A98.57,98.57,0,0,1,12.25,101Zm0-15.4a96.54,96.54,0,0,0-6.08,9V92.63c1.92-2.44,4-4.79,6.08-7Zm0-15.23Q9.07,87.45,6.17,91V59l6.08-6.09Zm77-22a96.26,96.26,0,0,1,19.86,2.07l-5.88,6.54s-.32,1-.31,1V89.15a69.89,69.89,0,0,0-27.34,0V71.71s-.3-1-.3-1l-5.89-6.54A96.26,96.26,0,0,1,89.29,62.14Zm0,164.55a69,69,0,0,1-68.95-68.86c0-.16,0-.32,0-.49,0-.74,0-1.48.06-2.21a69,69,0,0,1,31.53-55l1-.65a67.58,67.58,0,0,1,7.5-4l1-.46A70.35,70.35,0,0,1,69,92.12l1-.28c1.52-.45,3.07-.84,4.64-1.19l1-.22a69.38,69.38,0,0,1,27.34,0l1,.22c1.58.35,3.13.75,4.67,1.2l1,.28A69.8,69.8,0,0,1,117.14,95l1,.45a69.36,69.36,0,0,1,7.5,4l1,.65a69,69,0,0,1,31.54,55.08c0,.66,0,1.32,0,2,0,.24,0,.47,0,.7A69,69,0,0,1,89.29,226.69Zm19.34-1.46v18c-1.54.35-3.1.66-4.67.92V226.4C105.54,226.07,107.09,225.67,108.63,225.23Zm-34,1.17v17.75c-1.56-.26-3.11-.57-4.64-.91v-18C71.51,225.67,73.05,226.07,74.62,226.4ZM70,90.53V72.8c1.53-.35,3.08-.65,4.64-.92V89.36C73.05,89.69,71.51,90.09,70,90.53Zm38.65,0c-1.54-.44-3.09-.84-4.67-1.17V71.88c1.57.27,3.13.57,4.67.92Zm-95.38-6q2.94-3,6.09-5.82l1-.87A105.92,105.92,0,0,1,51.94,59l1-.38c2.46-.9,5-1.72,7.5-2.44l1,.63,6.09,6.76q-3.07.72-6.09,1.62l-1,.3c-2.54.8-5,1.7-7.5,2.7l-1,.41A97.26,97.26,0,0,0,20.34,90l-1,1q-3.21,3.34-6.09,7Zm0,15.15q2.88-3.72,6.09-7.16l1-1a96.33,96.33,0,0,1,31.6-21.76l1-.41c2.45-1,5-1.92,7.5-2.72l1-.31C63.7,65.58,66,65,68.3,64.46L74.14,71a86.75,86.75,0,0,0-12.7,3.19l-1,.34c-2.55.89-5.06,1.88-7.5,3l-1,.47a89,89,0,0,0-31.6,24.86l-1,1.27a88.75,88.75,0,0,0-6.09,9Zm0,15.34a88.65,88.65,0,0,1,6.09-9.31l1-1.3A87.94,87.94,0,0,1,51.94,79l1-.47c2.44-1.12,5-2.13,7.5-3l1-.35Q65.15,73.94,69,73V90.81a70.08,70.08,0,0,0-49.64,66.93c0,.07,0,.14,0,.21v.19a69.44,69.44,0,0,0,.95,11.06l0,.53a70,70,0,0,0,31.6,47.38l1,.65a69.56,69.56,0,0,0,7.5,4l1,.46A72.22,72.22,0,0,0,69,225V243q-3.84-.92-7.54-2.16l-1-.35c-2.55-.9-5.06-1.91-7.5-3l-1-.47a87.83,87.83,0,0,1-31.6-25.37l-1-1.3a88.52,88.52,0,0,1-6.09-9.3ZM61.44,259.19l-1,.63c-2.54-.72-5-1.54-7.5-2.44l-1-.38a106.1,106.1,0,0,1-31.6-18.8l-1-.88q-3.15-2.79-6.09-5.82V218q2.88,3.65,6.09,7l1,1a97.26,97.26,0,0,0,31.6,21.4l1,.41c2.45,1,5,1.9,7.5,2.7l1,.3c2,.6,4,1.15,6.09,1.62Zm6.86-7.62c-2.32-.52-4.6-1.12-6.86-1.81l-1-.3c-2.54-.81-5-1.72-7.5-2.73l-1-.41a96.3,96.3,0,0,1-31.6-21.75l-1-1.06q-3.21-3.42-6.09-7.16V203a88.75,88.75,0,0,0,6.09,9l1,1.27a89,89,0,0,0,31.6,24.87l1,.46c2.44,1.11,5,2.11,7.5,3l1,.34a88.06,88.06,0,0,0,12.7,3.2Zm21,2.32a95.58,95.58,0,0,1-19.86-2.07l5.88-6.54s.32-1,.31-1V226.61a69.38,69.38,0,0,0,27.34,0v17.71s.3,1,.31,1l5.88,6.54A95.58,95.58,0,0,1,89.29,253.89Zm76-22.39c-2,2-4,4-6.09,5.82l-1,.88a105.89,105.89,0,0,1-31.6,18.8l-1,.38c-2.46.9-5,1.72-7.5,2.44l-1-.63-6.09-6.76c2.06-.47,4.08-1,6.09-1.62l1-.3q3.83-1.2,7.5-2.7l1-.41a97.26,97.26,0,0,0,31.6-21.4l1-1q3.21-3.34,6.09-7Zm0-15.15q-2.88,3.74-6.09,7.16l-1,1.06a96.2,96.2,0,0,1-31.6,21.75l-1,.41q-3.67,1.52-7.5,2.73l-1,.31c-2.26.68-4.54,1.28-6.86,1.8l-5.84-6.48a88.06,88.06,0,0,0,12.7-3.2l1-.34c2.55-.88,5.06-1.88,7.5-3l1-.46a89,89,0,0,0,31.6-24.87l1-1.27a89.75,89.75,0,0,0,6.09-9Zm0-15.33a88.52,88.52,0,0,1-6.09,9.3l-1,1.3A87.83,87.83,0,0,1,126.64,237l-1,.47c-2.44,1.12-5,2.13-7.5,3l-1,.35c-2.46.83-5,1.55-7.51,2.16V224.94a69.47,69.47,0,0,0,7.51-2.77l1-.46a69.56,69.56,0,0,0,7.5-4l1-.65a70,70,0,0,0,31.6-47.38l0-.51a70,70,0,0,0,.95-11.1V158c0-.07,0-.14,0-.22a70.07,70.07,0,0,0-49.61-66.92V73c2.54.61,5.05,1.32,7.51,2.15l1,.35c2.55.9,5.06,1.91,7.5,3l1,.47a87.94,87.94,0,0,1,31.6,25.37l1,1.3a88.52,88.52,0,0,1,6.09,9.3Zm0-88a88.75,88.75,0,0,0-6.09-9l-1-1.27a89,89,0,0,0-31.6-24.86l-1-.47c-2.44-1.11-5-2.1-7.5-3l-1-.34A86.75,86.75,0,0,0,104.44,71l5.84-6.49c2.32.52,4.6,1.12,6.86,1.81l1,.3q3.83,1.22,7.5,2.73l1,.41a96.2,96.2,0,0,1,31.6,21.75l1,1.06c2.14,2.28,4.17,4.68,6.09,7.16Zm0-15q-2.88-3.64-6.09-7l-1-1a97.26,97.26,0,0,0-31.6-21.4l-1-.41q-3.67-1.5-7.5-2.7l-1-.3c-2-.6-4-1.14-6.09-1.62l6.09-6.76,1-.63c2.54.72,5,1.54,7.5,2.44l1,.38a106.1,106.1,0,0,1,31.6,18.8l1,.88c2.1,1.86,4.14,3.8,6.09,5.82Zm7.08,159-6.08,6.09v-31.2q3.18-3.33,6.08-6.92Zm0-33.62c-1.92,2.44-4,4.79-6.08,7.06V216.69a99.28,99.28,0,0,0,6.08-9Zm0-17.64a95.4,95.4,0,0,1-6.08,9.27V201.28A88.72,88.72,0,0,0,172.41,188Zm0-20.81a87,87,0,0,1-6.08,14.26V116.82a87,87,0,0,1,6.08,14.26Zm0-56.95a88.83,88.83,0,0,0-6.08-13.25V101a96.63,96.63,0,0,1,6.08,9.27Zm0-19.69a98,98,0,0,0-6.08-9V85.58c2.12,2.26,4.16,4.61,6.08,7Zm0-17.27q-2.9-3.58-6.08-6.92V52.92L172.41,59Zm1,43.33a87.38,87.38,0,0,1,0,47.29Zm0,50.74a88.26,88.26,0,0,0,0-54.18V112.05a95.71,95.71,0,0,1,0,91.93Zm0,20.92a96.7,96.7,0,0,0,0-96V93.93a105.56,105.56,0,0,1,0,128.17Z"/><path class="cls-5" d="M120.92,166.38c-2.32,3.91-10,15.69-14.58,18.7a23.33,23.33,0,0,1-11.64,3.51,8.9,8.9,0,0,1-5.85-1.75c-1.92-1.59-3.18-5.2-3.07-8.8.07-2.69.93-4.77,2.43-5.85a.91.91,0,0,1,.33-.15c1.47-.2,2.73-.43,3.31-.55a.76.76,0,0,1,.91.6c.69,3.33,1.81,5.12,4.11,6.44,4.29-3.31,7.16-7,8.32-10.77l.24-.75c1.17-3.54,3.13-9.46-2.9-15.74-8-8.39-15.35-11.25-21.68-8.42-6.93,3.09-10.13,6.89-10.72,7.63a.76.76,0,0,1-1.07.12A7.56,7.56,0,0,1,66.2,147a.77.77,0,0,1,.21-.78c.57-.52,14.08-12.66,29.73-12.66a27.31,27.31,0,0,1,16.14,5.18,1.54,1.54,0,0,0,1.21-.56c.57-.62,1.5-2.23,1.2-6.11-.43-5.65-2.26-9.31-17-18.18C91.85,119.6,84.53,126,79.16,126a5.63,5.63,0,0,1-3.89-1.46,9.14,9.14,0,0,1-3-6.92c0-4.06,2.28-8.63,6.17-12.21a14.84,14.84,0,0,0,1.09-1.11,15,15,0,0,0-1.94.71c-4.67,2-13.92,11.61-14.92,22.93-1,11.61,3.11,18.86,3.14,18.93l.31.61a.77.77,0,0,1-.23,1c-2.82,2.11-16.58,13.81-11.75,37C58.8,208,89,215,99.4,215A12.15,12.15,0,0,0,101,215a17.75,17.75,0,0,0,2.37-.38c-.94-.46-2.78-1.08-4.44-1.65l-3.48-1.21c-8.17-3-23-10.19-30.22-25-6.4-13,.53-28.34,2.83-32.74a3,3,0,0,1,.18-.36.91.91,0,0,1,.62-.44c.24,0,.33.14.49.32l.24.25,3.89,4.16c.17.17.45.49.4.72a18.71,18.71,0,0,0,.71,8.07,3.32,3.32,0,0,0,.22.53.77.77,0,0,1,.09.36c0,2.26.08,13.92,3.06,20.79,3.14,7.23,5.92,12,15.71,12,11.5,0,20-6.07,26.74-19.12,4.93-9.52,5.37-22.39,5-29.58C124.64,156.2,123.28,162.41,120.92,166.38Zm-45.37-9.49c3.16-3.55,11.1-8,16.79-5.43,6.9,3.18,10.6,12,5.43,16.32-3.51,2.9-11.09,4.17-14,3.12C80,169.53,73.19,167.27,75.55,156.89Z"/><path class="cls-5" d="M7.72,239.49v2l-.5-.44-.16.19,3,2.59.17-.18L9.45,243v-2.41h1.23v1.12l-.66.57.17.18,1.43-1.25-.17-.18-.52.46v-2l.52.46.17-.18-1.5-1.32-.16.19.72.63v1.11H9.45V238l.69-.61-.16-.18-3,2.6.17.19Zm1.48,3.33L8,241.75v-1.12H9.2Zm0-2.44H8v-1.11L9.2,238.2Z"/></g></g><g class="cls-2"><path class="cls-1" d="M61.44,54.91V-3.83h-1v59c-2.54.71-5,1.52-7.5,2.41V-1.49h-1V58a107.06,107.06,0,0,0-31.6,18.57l-1,.85q-3.15,2.73-6.09,5.72V51.92l6.09-6.08,1-1.05V-1.49h-1V44.42l-6.09,6.09v-52h-1v53L6.17,57.6l-1,.9V92.29a106.57,106.57,0,0,0,0,131.45V257.4l1,1,6.08,6.08v53h1v-52l6.09,6.09v45.92h1v-46.3l-1-1-6.09-6.08V232.93q2.94,3,6.09,5.73l1,.85a107,107,0,0,0,31.6,18.56v59.46h1V258.44c2.46.89,5,1.7,7.5,2.41v58.47h1v-58.2l.44-.91,6.78-7.54a97,97,0,0,0,41.26,0l6.79,7.54.43.92v58.19h1V260.85q3.81-1.07,7.5-2.41v59.09h1V258.07a106.9,106.9,0,0,0,31.6-18.56l1-.85q3.15-2.74,6.09-5.73v31.18l-6.09,6.08-1,1.08v46.26h1V271.61l6.09-6.09v52h1v-53l6.08-6.08,1-1V223.74a106.57,106.57,0,0,0,0-131.45V58.62l-1-1-6.08-6.09v-53h-1v52l-6.09-6.09V-1.49h-1V44.78l1,1.06,6.09,6.08V83.1q-2.94-3-6.09-5.73l-1-.84A106.72,106.72,0,0,0,126.64,58V-1.49h-1V57.59c-2.46-.89-5-1.7-7.5-2.41v-59h-1V54.91a9.65,9.65,0,0,0-.43.92l-6.79,7.53a97,97,0,0,0-41.26,0l-6.78-7.53S61.45,54.9,61.44,54.91ZM6.17,59l6.08-6.09v31.2Q9.07,87.45,6.17,91Zm6.08,26.57V99.35a96.54,96.54,0,0,0-6.08,9V92.63C8.09,90.19,10.13,87.84,12.25,85.58ZM172.41,185a87,87,0,0,1-6.08,14.26V116.82a87,87,0,0,1,6.08,14.26Zm1-50.58a87.38,87.38,0,0,1,0,47.29ZM165.33,201a88.52,88.52,0,0,1-6.09,9.3l-1,1.3A87.83,87.83,0,0,1,126.64,237l-1,.47c-2.44,1.12-5,2.13-7.5,3l-1,.35c-2.46.83-5,1.55-7.51,2.16V224.94a69.47,69.47,0,0,0,7.51-2.77l1-.46a69.56,69.56,0,0,0,7.5-4l1-.65a70,70,0,0,0,31.6-47.38l0-.51a70,70,0,0,0,.95-11.1V158c0-.07,0-.14,0-.22a70.07,70.07,0,0,0-49.61-66.92V73c2.54.61,5.05,1.32,7.51,2.15l1,.35c2.55.9,5.06,1.91,7.5,3l1,.47a87.94,87.94,0,0,1,31.6,25.37l1,1.3a88.52,88.52,0,0,1,6.09,9.3Zm-145-43.68c0-.74,0-1.48.06-2.21a69,69,0,0,1,31.53-55l1-.65a67.58,67.58,0,0,1,7.5-4l1-.46A70.35,70.35,0,0,1,69,92.12l1-.28c1.52-.45,3.07-.84,4.64-1.19l1-.22a69.38,69.38,0,0,1,27.34,0l1,.22c1.58.35,3.13.75,4.67,1.2l1,.28A69.8,69.8,0,0,1,117.14,95l1,.45a69.36,69.36,0,0,1,7.5,4l1,.65a69,69,0,0,1,31.54,55.08c0,.66,0,1.32,0,2,0,.24,0,.47,0,.7a69,69,0,0,1-137.9,0C20.35,157.67,20.35,157.51,20.35,157.34Zm-1,.4c0,.07,0,.14,0,.21v.19a69.44,69.44,0,0,0,.95,11.06l0,.53a70.08,70.08,0,0,0,31.6,47.38l1,.65a69.56,69.56,0,0,0,7.5,4l1,.46A72.22,72.22,0,0,0,69,225V243q-3.84-.92-7.54-2.16l-1-.35c-2.55-.9-5.06-1.91-7.5-3l-1-.47a87.83,87.83,0,0,1-31.6-25.37l-1-1.3a88.52,88.52,0,0,1-6.09-9.3V115a88.65,88.65,0,0,1,6.09-9.31l1-1.3A87.94,87.94,0,0,1,51.94,79l1-.47c2.44-1.12,5-2.13,7.5-3l1-.35Q65.15,73.94,69,73V90.81A70.08,70.08,0,0,0,19.34,157.74ZM6.17,131.09a87,87,0,0,1,6.08-14.26v82.38a86.7,86.7,0,0,1-6.08-14.27Zm-1,50.56a87.57,87.57,0,0,1,0-47.27Zm1-53.65V110.27A98.57,98.57,0,0,1,12.25,101v13.75A89.29,89.29,0,0,0,6.17,128Zm-1,2.93a88.43,88.43,0,0,0,0,54.17V204a95.69,95.69,0,0,1,0-91.92Zm1,57.1a88.83,88.83,0,0,0,6.08,13.25V215a98.57,98.57,0,0,1-6.08-9.27Zm7.08,15a88.75,88.75,0,0,0,6.09,9l1,1.27a89,89,0,0,0,31.6,24.87l1,.46c2.44,1.11,5,2.11,7.5,3l1,.34a88.06,88.06,0,0,0,12.7,3.2l-5.84,6.48c-2.32-.52-4.6-1.12-6.86-1.81l-1-.3c-2.54-.81-5-1.72-7.5-2.73l-1-.41a96.3,96.3,0,0,1-31.6-21.75l-1-1.06q-3.21-3.42-6.09-7.16ZM70,243.24v-18c1.53.44,3.07.84,4.64,1.17v17.75C73.06,243.89,71.51,243.58,70,243.24Zm38.65-18v18c-1.54.35-3.1.66-4.67.92V226.4C105.54,226.07,107.09,225.67,108.63,225.23Zm8.51,16.66,1-.34c2.55-.88,5.06-1.88,7.5-3l1-.46a89,89,0,0,0,31.6-24.87l1-1.27a89.75,89.75,0,0,0,6.09-9v13.34q-2.88,3.74-6.09,7.16l-1,1.06a96.2,96.2,0,0,1-31.6,21.75l-1,.41q-3.67,1.52-7.5,2.73l-1,.31c-2.26.68-4.54,1.28-6.86,1.8l-5.84-6.48A88.06,88.06,0,0,0,117.14,241.89Zm49.19-40.61A88.72,88.72,0,0,0,172.41,188v17.72a95.4,95.4,0,0,1-6.08,9.27Zm7.08-16.17a88.26,88.26,0,0,0,0-54.18V112.05a95.71,95.71,0,0,1,0,91.93Zm-1-57.11a88.83,88.83,0,0,0-6.08-13.25V101a96.63,96.63,0,0,1,6.08,9.27Zm-7.08-15a88.75,88.75,0,0,0-6.09-9l-1-1.27a89,89,0,0,0-31.6-24.86l-1-.47c-2.44-1.11-5-2.1-7.5-3l-1-.34A86.75,86.75,0,0,0,104.44,71l5.84-6.49c2.32.52,4.6,1.12,6.86,1.81l1,.3q3.83,1.22,7.5,2.73l1,.41a96.2,96.2,0,0,1,31.6,21.75l1,1.06c2.14,2.28,4.17,4.68,6.09,7.16ZM108.63,72.8V90.53c-1.54-.44-3.09-.84-4.67-1.17V71.88C105.53,72.15,107.09,72.45,108.63,72.8ZM70,90.53V72.8c1.53-.35,3.08-.65,4.64-.92V89.36C73.05,89.69,71.51,90.09,70,90.53ZM61.44,74.14l-1,.34c-2.55.89-5.06,1.88-7.5,3l-1,.47a89,89,0,0,0-31.6,24.86l-1,1.27a88.75,88.75,0,0,0-6.09,9V99.68q2.88-3.72,6.09-7.16l1-1a96.33,96.33,0,0,1,31.6-21.76l1-.41c2.45-1,5-1.92,7.5-2.72l1-.31C63.7,65.58,66,65,68.3,64.46L74.14,71A86.75,86.75,0,0,0,61.44,74.14ZM-16.51,158A105.29,105.29,0,0,1,5.17,93.93V110a96.68,96.68,0,0,0,0,96V222.1A105.26,105.26,0,0,1-16.51,158ZM6.17,223.4V207.72a98,98,0,0,0,6.08,9v13.76C10.13,228.19,8.09,225.84,6.17,223.4Zm6.08,39.71L6.17,257V225q2.89,3.58,6.08,6.92Zm49.19-3.92-1,.63c-2.54-.72-5-1.54-7.5-2.44l-1-.38a106.1,106.1,0,0,1-31.6-18.8l-1-.88q-3.15-2.79-6.09-5.82V218q2.88,3.65,6.09,7l1,1a97.26,97.26,0,0,0,31.6,21.4l1,.41c2.45,1,5,1.9,7.5,2.7l1,.3c2,.6,4,1.15,6.09,1.62Zm27.85-5.3a95.58,95.58,0,0,1-19.86-2.07l5.88-6.54s.32-1,.31-1V226.61a69.38,69.38,0,0,0,27.34,0v17.71s.3,1,.31,1l5.88,6.54A95.58,95.58,0,0,1,89.29,253.89Zm70-16.57-1,.88a105.89,105.89,0,0,1-31.6,18.8l-1,.38c-2.46.9-5,1.72-7.5,2.44l-1-.63-6.09-6.76c2.06-.47,4.08-1,6.09-1.62l1-.3q3.83-1.2,7.5-2.7l1-.41a97.26,97.26,0,0,0,31.6-21.4l1-1q3.21-3.34,6.09-7V231.5C163.38,233.52,161.34,235.46,159.24,237.32ZM172.41,257l-6.08,6.09v-31.2q3.18-3.33,6.08-6.92Zm-6.08-26.56V216.69a97.24,97.24,0,0,0,6.08-9V223.4C170.49,225.84,168.45,228.19,166.33,230.46ZM195.09,158a105.26,105.26,0,0,1-21.68,64.08V206a96.7,96.7,0,0,0,0-96V93.93A105.26,105.26,0,0,1,195.09,158ZM172.41,92.63v15.68a96.06,96.06,0,0,0-6.08-9V85.58C168.45,87.84,170.49,90.19,172.41,92.63Zm-6.08-39.71L172.41,59V91q-2.9-3.58-6.08-6.92Zm-49.19,3.92,1-.63c2.54.72,5,1.54,7.5,2.44l1,.38a106.1,106.1,0,0,1,31.6,18.8l1,.88c2.1,1.86,4.14,3.8,6.09,5.82V98.05q-2.88-3.64-6.09-7l-1-1a97.26,97.26,0,0,0-31.6-21.4l-1-.41q-3.67-1.5-7.5-2.7l-1-.3c-2-.6-4-1.14-6.09-1.62Zm-27.85,5.3a96.26,96.26,0,0,1,19.86,2.07l-5.88,6.54s-.32,1-.31,1V89.15a69.89,69.89,0,0,0-27.34,0V71.71s-.3-1-.31-1l-5.88-6.54A96.26,96.26,0,0,1,89.29,62.14Zm-27.85-5.3,6.09,6.76q-3.07.72-6.09,1.62l-1,.3c-2.54.8-5,1.7-7.5,2.7l-1,.41A97.26,97.26,0,0,0,20.34,90l-1,1q-3.21,3.34-6.09,7V84.53q2.94-3,6.09-5.82l1-.87A105.92,105.92,0,0,1,51.94,59l1-.38c2.46-.9,5-1.72,7.5-2.44Z"/></g><rect class="cls-5" x="-5.67" y="-5.67" width="189.92" height="45.68"/><polygon class="cls-6" points="184.25 -5.67 121.97 -5.67 143.03 20.5 184.25 20.5 184.25 -5.67"/><polygon class="cls-6" points="-5.67 -5.67 56.62 -5.67 35.55 20.5 -5.67 20.5 -5.67 -5.67"/><polygon class="cls-3" points="122.48 -5.67 121.96 -5.67 121.5 -5.29 142.79 21 184.25 21 184.25 20 143.27 20 122.48 -5.67"/><polygon class="cls-3" points="56.1 -5.67 35.31 20 -5.67 20 -5.67 21 35.79 21 57.08 -5.29 56.62 -5.67 56.1 -5.67"/><path class="cls-3" d="M65.05,12.3h3.76c1,0,1.26.35,1.26,1.71v3.82c0,1.36-.31,1.72-1.26,1.72H65.05c-1,0-1.26-.36-1.26-1.72V14C63.79,12.65,64.1,12.3,65.05,12.3Zm3.83,5.88V13.59H65v4.59Z"/><path class="cls-3" d="M73.76,18.18h3.37V12.3h1.19v5.53c0,1.36-.31,1.72-1.26,1.72H73.84c-1,0-1.27-.36-1.27-1.72V12.3h1.19Z"/><path class="cls-3" d="M83.3,19.55H82.12v-6H79.78V12.3h5.87v1.29H83.3Z"/><path class="cls-3" d="M87.11,12.3h4.36c.78,0,1.14.39,1.14,1.41v1.61c0,1-.36,1.4-1.14,1.4h-3.2v2.83H87.11Zm1.16,1.25v1.92h2.67c.36,0,.53-.09.53-.57v-.77c0-.48-.17-.58-.53-.58Z"/><path class="cls-3" d="M95.6,12.3h3.75c1,0,1.27.35,1.27,1.71v3.82c0,1.36-.31,1.72-1.27,1.72H95.6c-1,0-1.26-.36-1.26-1.72V14C94.34,12.65,94.64,12.3,95.6,12.3Zm3.83,5.88V13.59H95.52v4.59Z"/><path class="cls-3" d="M104.2,13.57v1.55h3.18c1,0,1.27.35,1.27,1.72v1c0,1.36-.32,1.72-1.27,1.72h-3.15c-1,0-1.28-.36-1.28-1.72v-.19l1-.31v.85h3.6V16.53h-3.18c-1,0-1.26-.35-1.26-1.72V14c0-1.36.31-1.71,1.26-1.71h2.9c.91,0,1.26.34,1.26,1.59V14l-1,.35v-.82Z"/><path class="cls-3" d="M113.48,19.55H112.3v-6H110V12.3h5.87v1.29h-2.35Z"/><path class="cls-3" d="M62.6,21.2v-1H116v1Z"/><path class="cls-7" d="M71.22,32l-1.4-3.62h.87l.92,2.43,1-2.43h.59l1,2.43L75,28.4h.75L74.37,32H73.8l-1-2.5-1,2.5Z"/><path class="cls-7" d="M76.69,32v-3h.72v3Z"/><path class="cls-7" d="M78.73,32v-3h.73v2.4h2.32V32Z"/><path class="cls-7" d="M82.59,32v-3h2a2.61,2.61,0,0,1,1,.17,1.37,1.37,0,0,1,.6.51,1.52,1.52,0,0,1,.2.79,1.29,1.29,0,0,1-.49,1.11A2.37,2.37,0,0,1,84.4,32Zm.73-.56h.93a2.8,2.8,0,0,0,.77-.08.82.82,0,0,0,.45-.3,1,1,0,0,0,.15-.59c0-.6-.34-.9-1-.9H83.32Z"/><path class="cls-7" d="M93.45,29.05H91.19v2.29h2.26v-.78l.84.18v.42a1.25,1.25,0,0,1-.08.53.45.45,0,0,1-.27.25,1.54,1.54,0,0,1-.54.08H91.24a1.74,1.74,0,0,1-.53-.07.45.45,0,0,1-.28-.26,1.25,1.25,0,0,1-.08-.53v-1.9a1.25,1.25,0,0,1,.08-.53.41.41,0,0,1,.28-.25,1.44,1.44,0,0,1,.53-.08H93.4a1.54,1.54,0,0,1,.54.08.45.45,0,0,1,.27.25,1.25,1.25,0,0,1,.08.53v.34l-.84.14Z"/><path class="cls-7" d="M95.31,32l1.76-3h.69l1.79,3h-.81l-.38-.65h-2L96,32Zm1.4-1.19h1.36l-.69-1.24Z"/><path class="cls-7" d="M100.28,32v-3H103a.84.84,0,0,1,.53.13.54.54,0,0,1,.17.44v.7a.54.54,0,0,1-.17.44.86.86,0,0,1-.53.13h-.41L104,32h-1l-1.24-1.12H101V32Zm2.36-2.45H101v.82h1.64a.57.57,0,0,0,.26-.05.22.22,0,0,0,.07-.19v-.34c0-.1,0-.16-.07-.19A.57.57,0,0,0,102.64,29.57Z"/><path class="cls-7" d="M104.83,32v-3h2a2.55,2.55,0,0,1,1,.17,1.27,1.27,0,0,1,.6.51,1.43,1.43,0,0,1,.2.79,1.31,1.31,0,0,1-.48,1.11,2.41,2.41,0,0,1-1.47.38Zm.73-.56h.93a2.8,2.8,0,0,0,.77-.08.82.82,0,0,0,.45-.3,1,1,0,0,0,.15-.59c0-.6-.34-.9-1-.9h-1.27Z"/><path class="cls-5" d="M7.6,48.12v1.11h2.57c.78,0,1,.25,1,1.22v.7c0,1-.25,1.22-1,1.22H7.62c-.77,0-1-.25-1-1.22V51l.85-.21v.6h2.92V50.23H7.78c-.78,0-1-.25-1-1.22v-.57c0-1,.24-1.22,1-1.22h2.34c.74,0,1,.24,1,1.13v.11l-.85.25v-.59Z"/><path class="cls-5" d="M12.89,48.15h3.63v.75h-2.8v.92h1.64v.73H13.72v1h2.84v.79H12.89Z"/><path class="cls-5" d="M19.77,52.37H19V48.91H17.32v-.76h4.09v.76H19.77Z"/><path class="cls-5" d="M23.3,51.58h2.35V48.15h.83v3.22c0,.79-.21,1-.88,1H23.36c-.68,0-.88-.21-.88-1V48.15h.82Z"/><path class="cls-5" d="M28,48.15h3c.55,0,.8.22.8.82v.94c0,.59-.25.82-.8.82H28.8v1.64H28Zm.81.73V50h1.88c.25,0,.38-.06.38-.34v-.44c0-.28-.13-.34-.38-.34Z"/><path class="cls-5" d="M34,48.14c.16,0,.19.12.19.37v.81c0,.37-.06.37-.33.37h-.71c-.16,0-.2-.12-.2-.37v-.81c0-.37.07-.37.34-.37H34Zm0,2.68c.16,0,.19.12.19.37V52c0,.37-.06.37-.33.37h-.71c-.16,0-.2-.12-.2-.37v-.81c0-.37.07-.37.34-.37H34Z"/><path class="cls-5" d="M41.88,51.3H39.7l-.33,1.07h-.51l1.59-5.07h.68l1.59,5.07h-.51Zm-1.06-3.51h-.07l-.9,3h1.88Z"/><path class="cls-5" d="M43.41,49.21H43V48.8h.44v-.64c0-.66.31-.91.93-.91h.32v.4h-.29c-.3,0-.51.1-.51.51v.64h.79v.41h-.79v3.16h-.45Z"/><path class="cls-5" d="M45.1,49.21h-.37V48.8h.37V48h.45v.82H46.7v.41H45.55V51.6c0,.29.09.42.38.42s.49-.06.49-.85h.4c0,1.14-.36,1.26-.88,1.26s-.84-.2-.84-.74Z"/><path class="cls-5" d="M47.74,50.69V51c0,.78.13,1,.75,1s.87,0,.87-.71h.45v.13c0,.72-.17,1-1.24,1s-1.32-.39-1.32-1.84.24-1.84,1.32-1.84,1.24.43,1.24,1.4v.54Zm1.62-.44c0-.76,0-1.1-.81-1.1s-.81.34-.81,1.1Z"/><path class="cls-5" d="M50.55,48.8H51v.44h0a.78.78,0,0,1,.83-.49c.57,0,.83.24.83,1V50h-.41c0-.66-.07-.84-.58-.84s-.68.25-.68.74v2.48h-.45Z"/><path class="cls-5" d="M55.13,48.8h.45v.45h0a1,1,0,0,1,1-.5c.92,0,1.2.44,1.2,1.84s-.28,1.84-1.27,1.84a.87.87,0,0,1-.92-.5h0v1.69h-.45Zm1.3.39c-.64,0-.85.31-.85,1.19,0,1.34.1,1.6.85,1.6s.86-.16.86-1.39S57.13,49.19,56.43,49.19Z"/><path class="cls-5" d="M58.57,47.3H59v5.07h-.45Z"/><path class="cls-5" d="M62,52.07a1.22,1.22,0,0,1-1,.36c-.91,0-1.11-.43-1.11-1.12s.16-1.12,1.11-1.12c.68,0,.83.08,1,.32h0v-.65c0-.53,0-.71-.8-.71s-.74.18-.74.64H60V49.6c0-.43.1-.85,1.22-.85s1.21.32,1.21,1v2.61H62ZM61.12,52c.6,0,.86-.14.86-.69s-.26-.69-.86-.69-.85.14-.85.69S60.53,52,61.12,52Z"/><path class="cls-5" d="M65.1,50c0-.65-.13-.84-.72-.84s-.83.11-.83,1.44.11,1.43.83,1.43.78-.17.78-.94h.45v.23c0,.92-.43,1.12-1.23,1.12-1.18,0-1.32-.39-1.32-1.84s.24-1.84,1.32-1.84,1.17.3,1.17,1.24Z"/><path class="cls-5" d="M66.35,47.3h.45v.6h-.45Zm0,1.5h.45v3.57h-.45Z"/><path class="cls-5" d="M67.66,48.8h.45v.46h0a1,1,0,0,1,1-.51c.83,0,1,.41,1,1.1v2.52h-.45V50c0-.42-.09-.81-.68-.81s-.92.21-.92,1v2.25h-.45Z"/><path class="cls-5" d="M73.08,51.73h0a.9.9,0,0,1-.94.52c-1.15,0-1.23-.77-1.23-1.75s.08-1.75,1.23-1.75a.87.87,0,0,1,.94.54h0V48.8h.45v3.54c0,1.06-.33,1.35-1.42,1.35-.7,0-1.12-.24-1.11-1h.45c0,.42.18.54.75.54.73,0,.88-.15.88-1Zm-.9.07c.72,0,.9-.29.9-1.3s-.18-1.31-.9-1.31-.79.36-.79,1.31S71.45,51.8,72.18,51.8Z"/><path class="cls-5" d="M77.47,48.75c1.18,0,1.31.42,1.31,1.84s-.15,1.84-1.31,1.84-1.32-.36-1.32-1.84S76.29,48.75,77.47,48.75Zm0,3.27c.71,0,.82-.1.82-1.43s-.11-1.44-.82-1.44-.83.11-.83,1.44S76.75,52,77.47,52Z"/><path class="cls-5" d="M79.5,47.3H80v2h0a1,1,0,0,1,1-.5c.93,0,1.2.44,1.2,1.84s-.27,1.84-1.27,1.84a.85.85,0,0,1-.91-.5h0v.44H79.5Zm1.31,1.89c-.65,0-.86.31-.86,1.19,0,1.34.11,1.6.86,1.6s.85-.16.85-1.39S81.51,49.19,80.81,49.19Z"/><path class="cls-5" d="M83.27,51.27c0,.61.1.75.76.75s.86-.1.86-.7,0-.51-.9-.56-1.14-.18-1.14-1,.14-1,1.21-1,1.24.23,1.24,1h-.45c0-.54-.14-.58-.82-.58s-.73.07-.73.62.06.55.82.59c1.06.06,1.22.14,1.22.93s-.16,1.14-1.32,1.14c-.82,0-1.2-.1-1.2-1.16Z"/><path class="cls-5" d="M86.19,49.21h-.37V48.8h.37V48h.45v.82h1.15v.41H86.64V51.6c0,.29.09.42.38.42s.49-.06.49-.85h.4c0,1.14-.36,1.26-.88,1.26s-.84-.2-.84-.74Z"/><path class="cls-5" d="M90.5,52.07a1.22,1.22,0,0,1-1,.36c-.91,0-1.11-.43-1.11-1.12s.16-1.12,1.11-1.12c.68,0,.83.08,1,.32h0v-.65c0-.53,0-.71-.79-.71s-.75.18-.75.64h-.44V49.6c0-.43.1-.85,1.21-.85s1.22.32,1.22,1v2.61h-.4ZM89.64,52c.6,0,.86-.14.86-.69s-.26-.69-.86-.69-.85.14-.85.69S89.05,52,89.64,52Z"/><path class="cls-5" d="M93.62,50c0-.65-.13-.84-.72-.84s-.83.11-.83,1.44S92.18,52,92.9,52s.78-.17.78-.94h.45v.23c0,.92-.43,1.12-1.23,1.12-1.18,0-1.32-.39-1.32-1.84s.24-1.84,1.32-1.84,1.17.3,1.17,1.24Z"/><path class="cls-5" d="M94.87,47.3h.45v5.07h-.45Z"/><path class="cls-5" d="M96.61,50.69V51c0,.78.13,1,.75,1s.87,0,.87-.71h.45v.13c0,.72-.18,1-1.25,1s-1.31-.39-1.31-1.84.23-1.84,1.31-1.84,1.25.43,1.25,1.4v.54Zm1.62-.44c0-.76,0-1.1-.81-1.1s-.81.34-.81,1.1Z"/><path class="cls-5" d="M99.86,51.27c0,.61.1.75.76.75s.86-.1.86-.7,0-.51-.9-.56-1.14-.18-1.14-1,.14-1,1.21-1,1.24.23,1.24,1h-.45c0-.54-.14-.58-.82-.58s-.73.07-.73.62.06.55.82.59c1.06.06,1.22.14,1.22.93s-.16,1.14-1.32,1.14c-.82,0-1.2-.1-1.2-1.16Z"/><path class="cls-5" d="M103,51.73h.49v.76c0,.6-.18.64-.53.64v-.28c.18,0,.25-.05.25-.48H103Z"/><path class="cls-5" d="M107,50.69V51c0,.78.13,1,.75,1s.88,0,.88-.71h.44v.13c0,.72-.17,1-1.24,1s-1.32-.39-1.32-1.84.24-1.84,1.32-1.84,1.24.43,1.24,1.4v.54Zm1.63-.44c0-.76,0-1.1-.82-1.1s-.81.34-.81,1.1Z"/><path class="cls-5" d="M111.89,52.07a1.21,1.21,0,0,1-1,.36c-.91,0-1.12-.43-1.12-1.12s.16-1.12,1.12-1.12c.68,0,.82.08,1,.32h0v-.65c0-.53,0-.71-.79-.71s-.75.18-.75.64h-.45V49.6c0-.43.1-.85,1.22-.85s1.21.32,1.21,1v2.61h-.4ZM111,52c.6,0,.86-.14.86-.69s-.26-.69-.86-.69-.85.14-.85.69S110.44,52,111,52Z"/><path class="cls-5" d="M115,50c0-.65-.13-.84-.72-.84s-.83.11-.83,1.44.11,1.43.83,1.43.78-.17.78-.94h.45v.23c0,.92-.43,1.12-1.23,1.12-1.18,0-1.32-.39-1.32-1.84s.24-1.84,1.32-1.84,1.17.3,1.17,1.24Z"/><path class="cls-5" d="M116.14,47.3h.45v2h0a.94.94,0,0,1,1-.51c.83,0,1,.41,1,1.1v2.52h-.44V50c0-.42-.1-.81-.68-.81s-.93.21-.93,1v2.25h-.45Z"/><path class="cls-5" d="M121.37,48.8h.45v.45h0a1,1,0,0,1,1-.5c.93,0,1.2.44,1.2,1.84s-.27,1.84-1.27,1.84a.87.87,0,0,1-.92-.5h0v1.69h-.45Zm1.31.39c-.65,0-.86.31-.86,1.19,0,1.34.11,1.6.86,1.6s.85-.16.85-1.39S123.38,49.19,122.68,49.19Z"/><path class="cls-5" d="M124.82,47.3h.45v5.07h-.45Z"/><path class="cls-5" d="M128.22,52.07a1.21,1.21,0,0,1-1,.36c-.91,0-1.12-.43-1.12-1.12s.16-1.12,1.12-1.12c.68,0,.82.08,1,.32h0v-.65c0-.53-.05-.71-.79-.71s-.75.18-.75.64h-.45V49.6c0-.43.1-.85,1.22-.85s1.22.32,1.22,1v2.61h-.41Zm-.85-.09c.59,0,.85-.14.85-.69s-.26-.69-.85-.69-.86.14-.86.69S126.77,52,127.37,52Z"/><path class="cls-5" d="M129.49,53.24c.56,0,.66-.11.83-.87h-.2l-1.05-3.57h.44l.91,3.13h0l.76-3.13h.45l-1,4c-.15.62-.43.94-1,.94a.62.62,0,0,1-.21,0Z"/><path class="cls-5" d="M132.53,50.69V51c0,.78.13,1,.74,1s.88,0,.88-.71h.45v.13c0,.72-.18,1-1.25,1S132,52,132,50.59s.24-1.84,1.32-1.84,1.25.43,1.25,1.4v.54Zm1.62-.44c0-.76,0-1.1-.81-1.1s-.81.34-.81,1.1Z"/><path class="cls-5" d="M135.34,48.8h.45v.44h0a.78.78,0,0,1,.83-.49c.57,0,.82.24.82,1V50h-.4c0-.66-.07-.84-.58-.84s-.68.25-.68.74v2.48h-.45Z"/><path class="cls-5" d="M139.92,48.8h.44v.45h0a1,1,0,0,1,1-.5c.92,0,1.19.44,1.19,1.84s-.27,1.84-1.26,1.84a.86.86,0,0,1-.92-.5h0v1.69h-.44Zm1.3.39c-.65,0-.86.31-.86,1.19,0,1.34.11,1.6.86,1.6s.85-.16.85-1.39S141.92,49.19,141.22,49.19Z"/><path class="cls-5" d="M143.36,47.3h.45v5.07h-.45Z"/><path class="cls-5" d="M146.76,52.07a1.2,1.2,0,0,1-1,.36c-.91,0-1.11-.43-1.11-1.12s.16-1.12,1.11-1.12c.68,0,.83.08,1,.32h0v-.65c0-.53-.05-.71-.79-.71s-.75.18-.75.64h-.45V49.6c0-.43.11-.85,1.22-.85s1.22.32,1.22,1v2.61h-.41Zm-.85-.09c.59,0,.85-.14.85-.69s-.26-.69-.85-.69-.85.14-.85.69S145.31,52,145.91,52Z"/><path class="cls-5" d="M149.89,50c0-.65-.13-.84-.73-.84s-.82.11-.82,1.44.11,1.43.82,1.43.79-.17.79-.94h.45v.23c0,.92-.44,1.12-1.24,1.12-1.17,0-1.31-.39-1.31-1.84s.24-1.84,1.31-1.84,1.17.3,1.17,1.24Z"/><path class="cls-5" d="M151.45,50.69V51c0,.78.13,1,.75,1s.87,0,.87-.71h.45v.13c0,.72-.18,1-1.25,1S151,52,151,50.59s.23-1.84,1.31-1.84,1.25.43,1.25,1.4v.54Zm1.62-.44c0-.76,0-1.1-.81-1.1s-.81.34-.81,1.1Z"/><path class="cls-5" d="M154.7,51.27c0,.61.1.75.76.75s.86-.1.86-.7,0-.51-.9-.56-1.14-.18-1.14-1,.14-1,1.21-1,1.24.23,1.24,1h-.45c0-.54-.14-.58-.82-.58s-.73.07-.73.62.06.55.82.59c1.06.06,1.22.14,1.22.93s-.16,1.14-1.32,1.14c-.82,0-1.2-.1-1.2-1.16Z"/><path class="cls-5" d="M161,47.79h0l-1,1.33-.33-.3,1.22-1.52h.65v5.07H161Z"/><path class="cls-8" d="M165.93,50a.68.68,0,0,1,.29.06.6.6,0,0,1,.22.16.54.54,0,0,1,.15.22.71.71,0,0,1-.14.78.7.7,0,0,1-.52.21.64.64,0,0,1-.49-.21.71.71,0,0,1-.14-.78.64.64,0,0,1,.14-.22.67.67,0,0,1,.49-.22Zm3,.14a2.31,2.31,0,0,1-.73,1.71.43.43,0,0,0-.1.18.47.47,0,0,0,0,.29.45.45,0,0,0,.23.28,1.62,1.62,0,0,0,.35.17l-.3,1a2.08,2.08,0,0,1-.6-.26,1.62,1.62,0,0,1-.39-.33,1.75,1.75,0,0,1-.23-.35,1.67,1.67,0,0,1-.11-.31,1.59,1.59,0,0,1,0-.81,1.36,1.36,0,0,1,.39-.68,1.15,1.15,0,0,0,.31-.43,1.21,1.21,0,0,0,.1-.5,1.19,1.19,0,0,0-.08-.41,1.37,1.37,0,0,0-.23-.37l-.71.56,0-2.53,2.23.75-.64.52a1.93,1.93,0,0,1,.41.7A2.38,2.38,0,0,1,168.92,50.17Z"/><path class="cls-5" d="M7.29,57.15c1.18,0,1.32.42,1.32,1.84s-.15,1.84-1.32,1.84S6,60.47,6,59,6.12,57.15,7.29,57.15Zm0,3.27c.72,0,.83-.1.83-1.43S8,57.55,7.29,57.55s-.82.11-.82,1.44S6.58,60.42,7.29,60.42Z"/><path class="cls-5" d="M9.29,57.2h.45v.46h0a1,1,0,0,1,1-.51c.83,0,1,.41,1,1.1v2.52h-.45V58.36c0-.42-.09-.81-.68-.81s-.92.21-.92,1v2.25H9.29Z"/><path class="cls-5" d="M16.57,60.47a1.21,1.21,0,0,1-1,.36c-.91,0-1.12-.43-1.12-1.12s.16-1.12,1.12-1.12c.68,0,.82.08,1,.32h0v-.65c0-.53-.05-.71-.79-.71s-.75.18-.75.64h-.45V58c0-.43.1-.85,1.22-.85s1.22.32,1.22,1v2.61h-.41Zm-.85-.09c.59,0,.85-.15.85-.69s-.26-.69-.85-.69-.86.14-.86.69S15.12,60.38,15.72,60.38Z"/><path class="cls-5" d="M17.72,57.2h.45v.46h0a1,1,0,0,1,1-.51c.82,0,1,.41,1,1.1v2.52h-.45V58.36c0-.42-.09-.81-.68-.81s-.92.21-.92,1v2.25h-.45Z"/><path class="cls-5" d="M22.89,57.38c0-1.48.46-1.73,1.79-1.73s1.78.25,1.78,1.73v1.71c0,1.49-.45,1.74-1.78,1.74s-1.79-.25-1.79-1.74Zm3.08,0c0-1.12-.14-1.27-1.29-1.27s-1.3.15-1.3,1.27v1.66c0,1.12.15,1.27,1.3,1.27S26,60.19,26,59.07Z"/><path class="cls-5" d="M27.23,55.7h.45v1.95h0a1,1,0,0,1,1-.5c.93,0,1.2.44,1.2,1.84s-.27,1.84-1.27,1.84a.87.87,0,0,1-.92-.5h0v.44h-.45Zm1.3,1.89c-.64,0-.85.31-.85,1.19,0,1.34.1,1.6.85,1.6s.86-.16.86-1.39S29.23,57.59,28.53,57.59Z"/><path class="cls-5" d="M31,59.67c0,.61.1.75.76.75s.86-.1.86-.7,0-.51-.9-.56-1.14-.18-1.14-1,.14-1,1.2-1,1.25.23,1.25,1h-.45c0-.54-.15-.58-.82-.58s-.73.07-.73.62.06.54.82.59c1,.06,1.21.14,1.21.93s-.16,1.14-1.31,1.14c-.82,0-1.2-.1-1.2-1.16Z"/><path class="cls-5" d="M33.92,57.61h-.37V57.2h.37v-.82h.44v.82h1.16v.41H34.36V60c0,.29.1.42.39.42s.48-.06.48-.85h.41c0,1.14-.36,1.26-.88,1.26s-.84-.2-.84-.74Z"/><path class="cls-5" d="M38.22,60.47a1.21,1.21,0,0,1-1,.36c-.91,0-1.11-.43-1.11-1.12s.16-1.12,1.11-1.12c.68,0,.83.08,1,.32h0v-.65c0-.53,0-.71-.79-.71s-.75.18-.75.64h-.45V58c0-.43.11-.85,1.22-.85s1.22.32,1.22,1v2.61h-.41Zm-.85-.09c.59,0,.85-.15.85-.69S38,59,37.37,59s-.86.14-.86.69S36.77,60.38,37.37,60.38Z"/><path class="cls-5" d="M41.35,58.39c0-.65-.13-.84-.73-.84s-.82.11-.82,1.44.11,1.43.82,1.43.79-.17.79-.94h.45v.23c0,.92-.44,1.12-1.24,1.12-1.17,0-1.31-.39-1.31-1.84s.23-1.84,1.31-1.84,1.17.3,1.17,1.24Z"/><path class="cls-5" d="M42.6,55.7H43v5.07H42.6Z"/><path class="cls-5" d="M44.33,59.09v.33c0,.78.14,1,.75,1s.88,0,.88-.71h.45v.13c0,.72-.18,1-1.25,1s-1.32-.39-1.32-1.84.24-1.84,1.32-1.84,1.25.43,1.25,1.4v.54ZM46,58.64c0-.75,0-1.09-.81-1.09s-.82.34-.82,1.09Z"/><path class="cls-5" d="M47.5,60.13H48v.64H47.5Z"/><path class="cls-5" d="M54.39,59.47c0,1.1-.35,1.36-1.57,1.36S51,60.58,51,59.09V57.38c0-1.48.45-1.73,1.79-1.73,1.12,0,1.57.14,1.57,1.32v.37h-.45V57c0-.8-.26-.87-1.12-.87-1.16,0-1.3.15-1.3,1.27v1.66c0,1.12.14,1.27,1.3,1.27s1.12-.22,1.12-.92v-.33h.45Z"/><path class="cls-5" d="M55.18,55.7h.44v5.07h-.44Z"/><path class="cls-5" d="M58.58,60.47a1.22,1.22,0,0,1-1,.36c-.91,0-1.11-.43-1.11-1.12s.16-1.12,1.11-1.12c.68,0,.83.08,1,.32h0v-.65c0-.53,0-.71-.8-.71s-.74.18-.74.64h-.45V58c0-.43.1-.85,1.22-.85s1.21.32,1.21,1v2.61h-.4Zm-.86-.09c.6,0,.86-.15.86-.69s-.26-.69-.86-.69-.85.14-.85.69S57.13,60.38,57.72,60.38Z"/><path class="cls-5" d="M59.84,55.7h.45v.6h-.45Zm0,1.5h.45v3.57h-.45Z"/><path class="cls-5" d="M61.15,57.2h.45v.53h0a1,1,0,0,1,1-.58c.48,0,.84.1,1,.58a1.1,1.1,0,0,1,1.08-.58.93.93,0,0,1,1.06,1.05v2.57h-.45V58.46c0-.71-.29-.87-.75-.87s-.86.24-.86.94v2.24h-.45V58.3c0-.53-.22-.71-.71-.71-.65,0-.9.4-.9,1.14v2h-.45Z"/><path class="cls-5" d="M69.47,56.19H68.08V55.7h3.27v.49H70v4.58h-.49Z"/><path class="cls-5" d="M72.38,57.15c1.17,0,1.31.42,1.31,1.84s-.15,1.84-1.31,1.84-1.32-.36-1.32-1.84S71.2,57.15,72.38,57.15Zm0,3.27c.71,0,.82-.1.82-1.43s-.11-1.44-.82-1.44-.83.11-.83,1.44S71.66,60.42,72.38,60.42Z"/><path class="cls-5" d="M75,59.09h-.19v1.68h-.45V55.7h.45v2.94H75l1.06-1.44h.55l-1.25,1.66,1.44,1.91h-.6Z"/><path class="cls-5" d="M77.52,59.09v.33c0,.78.13,1,.75,1s.87,0,.87-.71h.45v.13c0,.72-.17,1-1.24,1S77,60.44,77,59s.24-1.84,1.32-1.84,1.24.43,1.24,1.4v.54Zm1.62-.45c0-.75,0-1.09-.81-1.09s-.81.34-.81,1.09Z"/><path class="cls-5" d="M80.33,57.2h.45v.46h0a1,1,0,0,1,1-.51c.83,0,1,.41,1,1.1v2.52h-.44V58.36c0-.42-.1-.81-.68-.81s-.93.21-.93,1v2.25h-.45Z"/><path class="cls-5" d="M84,59.67c0,.61.09.75.76.75s.85-.1.85-.7,0-.51-.89-.56-1.14-.18-1.14-1,.14-1,1.2-1,1.25.23,1.25,1H85.6c0-.54-.15-.58-.82-.58s-.74.07-.74.62.07.54.82.59c1.06.06,1.22.14,1.22.93s-.16,1.14-1.31,1.14c-.82,0-1.2-.1-1.2-1.16Z"/><path class="cls-5" d="M90.74,58.39c0-.65-.13-.84-.72-.84s-.83.11-.83,1.44.11,1.43.83,1.43.78-.17.78-.94h.45v.23c0,.92-.44,1.12-1.23,1.12-1.18,0-1.32-.39-1.32-1.84s.24-1.84,1.32-1.84,1.17.3,1.17,1.24Z"/><path class="cls-5" d="M94,60.47a1.2,1.2,0,0,1-1,.36c-.91,0-1.11-.43-1.11-1.12s.16-1.12,1.11-1.12c.68,0,.83.08,1,.32h0v-.65c0-.53,0-.71-.79-.71s-.75.18-.75.64h-.45V58c0-.43.11-.85,1.22-.85s1.22.32,1.22,1v2.61H94Zm-.85-.09c.59,0,.85-.15.85-.69S93.7,59,93.11,59s-.85.14-.85.69S92.51,60.38,93.11,60.38Z"/><path class="cls-5" d="M95.11,57.2h.45v.46h0a1,1,0,0,1,1-.51c.83,0,1,.41,1,1.1v2.52h-.45V58.36c0-.42-.09-.81-.68-.81s-.92.21-.92,1v2.25h-.45Z"/><path class="cls-5" d="M98.35,57.2h.45v.46h0a1,1,0,0,1,1-.51c.83,0,1,.41,1,1.1v2.52h-.45V58.36c0-.42-.09-.81-.67-.81s-.93.21-.93,1v2.25h-.45Z"/><path class="cls-5" d="M102.85,57.15c1.17,0,1.31.42,1.31,1.84s-.15,1.84-1.31,1.84-1.32-.36-1.32-1.84S101.67,57.15,102.85,57.15Zm0,3.27c.71,0,.82-.1.82-1.43s-.11-1.44-.82-1.44S102,57.66,102,59,102.13,60.42,102.85,60.42Z"/><path class="cls-5" d="M105,57.61h-.37V57.2H105v-.82h.45v.82h1.15v.41h-1.15V60c0,.29.09.42.38.42s.49-.06.49-.85h.4c0,1.14-.36,1.26-.88,1.26s-.84-.2-.84-.74Z"/><path class="cls-5" d="M109.16,55.7h.45v1.95h0a1,1,0,0,1,1-.5c.92,0,1.2.44,1.2,1.84s-.28,1.84-1.27,1.84a.87.87,0,0,1-.92-.5h0v.44h-.45Zm1.3,1.89c-.64,0-.85.31-.85,1.19,0,1.34.1,1.6.85,1.6s.86-.16.86-1.39S111.16,57.59,110.46,57.59Z"/><path class="cls-5" d="M112.91,59.09v.33c0,.78.14,1,.75,1s.88,0,.88-.71H115v.13c0,.72-.18,1-1.25,1s-1.32-.39-1.32-1.84.24-1.84,1.32-1.84,1.25.43,1.25,1.4v.54Zm1.63-.45c0-.75,0-1.09-.81-1.09s-.82.34-.82,1.09Z"/><path class="cls-5" d="M117.72,57.2h.44v.45h0a1,1,0,0,1,1-.5c.92,0,1.19.44,1.19,1.84s-.27,1.84-1.26,1.84a.86.86,0,0,1-.92-.5h0V62h-.44Zm1.3.39c-.65,0-.86.31-.86,1.19,0,1.34.11,1.6.86,1.6s.85-.16.85-1.39S119.72,57.59,119,57.59Z"/><path class="cls-5" d="M121.16,55.7h.45v5.07h-.45Z"/><path class="cls-5" d="M124.56,60.47a1.21,1.21,0,0,1-1,.36c-.91,0-1.11-.43-1.11-1.12s.16-1.12,1.11-1.12c.68,0,.83.08,1,.32h0v-.65c0-.53,0-.71-.79-.71s-.75.18-.75.64h-.45V58c0-.43.11-.85,1.22-.85s1.22.32,1.22,1v2.61h-.41Zm-.85-.09c.59,0,.85-.15.85-.69s-.26-.69-.85-.69-.86.14-.86.69S123.11,60.38,123.71,60.38Z"/><path class="cls-5" d="M127.69,58.39c0-.65-.13-.84-.73-.84s-.82.11-.82,1.44.11,1.43.82,1.43.79-.17.79-.94h.45v.23c0,.92-.44,1.12-1.24,1.12-1.17,0-1.31-.39-1.31-1.84s.23-1.84,1.31-1.84,1.17.3,1.17,1.24Z"/><path class="cls-5" d="M129.24,59.09v.33c0,.78.14,1,.75,1s.88,0,.88-.71h.45v.13c0,.72-.18,1-1.25,1s-1.32-.39-1.32-1.84.24-1.84,1.32-1.84,1.25.43,1.25,1.4v.54Zm1.63-.45c0-.75,0-1.09-.81-1.09s-.82.34-.82,1.09Z"/><path class="cls-5" d="M134.2,60.33h0a.86.86,0,0,1-.92.5c-1,0-1.26-.44-1.26-1.84s.27-1.84,1.19-1.84a1,1,0,0,1,1,.5h0V55.7h.44v5.07h-.44Zm-.86.05c.75,0,.86-.26.86-1.6,0-.88-.22-1.19-.86-1.19s-.85.17-.85,1.4S132.64,60.38,133.34,60.38Z"/><path class="cls-5" d="M138.63,57.15c1.17,0,1.31.42,1.31,1.84s-.15,1.84-1.31,1.84-1.32-.36-1.32-1.84S137.45,57.15,138.63,57.15Zm0,3.27c.71,0,.82-.1.82-1.43s-.11-1.44-.82-1.44-.83.11-.83,1.44S137.91,60.42,138.63,60.42Z"/><path class="cls-5" d="M140.62,57.2h.45v.46h0a1,1,0,0,1,1-.51c.83,0,1.05.41,1.05,1.1v2.52h-.45V58.36c0-.42-.09-.81-.68-.81s-.92.21-.92,1v2.25h-.45Z"/><path class="cls-5" d="M145.93,57.61h-.37V57.2h.37v-.82h.44v.82h1.16v.41h-1.16V60c0,.29.1.42.39.42s.48-.06.48-.85h.41c0,1.14-.37,1.26-.88,1.26-.66,0-.84-.2-.84-.74Z"/><path class="cls-5" d="M148.14,55.7h.45v2h0a1,1,0,0,1,1-.51c.82,0,1,.41,1,1.1v2.52h-.45V58.36c0-.42-.09-.81-.68-.81s-.92.21-.92,1v2.25h-.45Z"/><path class="cls-5" d="M151.81,59.09v.33c0,.78.13,1,.75,1s.87,0,.87-.71h.45v.13c0,.72-.18,1-1.25,1s-1.31-.39-1.31-1.84.23-1.84,1.31-1.84,1.25.43,1.25,1.4v.54Zm1.62-.45c0-.75,0-1.09-.81-1.09s-.81.34-.81,1.09Z"/><path class="cls-5" d="M157,59.67c0,.61.1.75.76.75s.86-.1.86-.7,0-.51-.9-.56-1.14-.18-1.14-1,.14-1,1.2-1,1.25.23,1.25,1h-.45c0-.54-.15-.58-.82-.58s-.73.07-.73.62.06.54.82.59c1,.06,1.21.14,1.21.93s-.16,1.14-1.31,1.14c-.82,0-1.2-.1-1.2-1.16Z"/><path class="cls-5" d="M161.9,60.47a1.21,1.21,0,0,1-1,.36c-.91,0-1.11-.43-1.11-1.12s.16-1.12,1.11-1.12c.68,0,.83.08,1,.32h0v-.65c0-.53-.05-.71-.79-.71s-.75.18-.75.64h-.45V58c0-.43.11-.85,1.22-.85s1.22.32,1.22,1v2.61h-.41Zm-.85-.09c.59,0,.85-.15.85-.69s-.26-.69-.85-.69-.86.14-.86.69S160.45,60.38,161.05,60.38Z"/><path class="cls-5" d="M163.05,57.2h.45v.53h0a1,1,0,0,1,1-.58c.47,0,.84.1,1,.58a1.09,1.09,0,0,1,1.07-.58.93.93,0,0,1,1.07,1.05v2.57h-.45V58.46c0-.71-.3-.87-.75-.87s-.86.24-.86.94v2.24h-.45V58.3c0-.53-.22-.71-.71-.71-.65,0-.9.4-.9,1.14v2h-.45Z"/><path class="cls-5" d="M168.78,59.09v.33c0,.78.14,1,.75,1s.88,0,.88-.71h.45v.13c0,.72-.18,1-1.25,1s-1.32-.39-1.32-1.84.24-1.84,1.32-1.84,1.25.43,1.25,1.4v.54Zm1.63-.45c0-.75,0-1.09-.81-1.09s-.82.34-.82,1.09Z"/><path class="cls-5" d="M6,65.78c0-1.48.45-1.73,1.78-1.73s1.79.25,1.79,1.73v1.71c0,1.49-.46,1.74-1.79,1.74S6,69,6,67.49Zm3.08,0c0-1.12-.15-1.27-1.3-1.27s-1.29.15-1.29,1.27v1.65c0,1.13.14,1.28,1.29,1.28s1.3-.15,1.3-1.28Z"/><path class="cls-5" d="M10.37,64.1h.45v2h0a1,1,0,0,1,1-.5c.92,0,1.19.44,1.19,1.84s-.27,1.84-1.26,1.84a.86.86,0,0,1-.92-.5h0v.44h-.45ZM11.67,66c-.64,0-.85.31-.85,1.19,0,1.34.1,1.6.85,1.6s.85-.16.85-1.39S12.37,66,11.67,66Z"/><path class="cls-5" d="M14.13,68.07c0,.61.1.75.77.75s.85-.1.85-.7-.05-.51-.89-.56-1.15-.18-1.15-1,.14-1,1.21-1,1.24.23,1.24,1h-.44c0-.54-.15-.58-.82-.58s-.74.07-.74.62.06.54.82.59c1.06.06,1.22.14,1.22.93s-.16,1.14-1.32,1.14c-.82,0-1.19-.1-1.19-1.16Z"/><path class="cls-5" d="M17.05,66h-.37V65.6h.37v-.82h.45v.82h1.16V66H17.5V68.4c0,.29.09.42.39.42s.48-.06.48-.85h.41c0,1.14-.37,1.26-.89,1.26s-.84-.2-.84-.74Z"/><path class="cls-5" d="M21.36,68.87a1.21,1.21,0,0,1-1,.36c-.91,0-1.12-.43-1.12-1.12S19.36,67,20.32,67c.67,0,.82.08,1,.32h0v-.65c0-.53-.05-.71-.79-.71s-.75.18-.75.64h-.45V66.4c0-.43.1-.85,1.22-.85s1.21.32,1.21,1v2.61h-.4Zm-.86-.09c.6,0,.86-.15.86-.69s-.26-.69-.86-.69-.85.14-.85.69S19.91,68.78,20.5,68.78Z"/><path class="cls-5" d="M24.48,66.79c0-.65-.13-.84-.72-.84s-.83.11-.83,1.44.11,1.43.83,1.43.78-.17.78-.94H25v.23c0,.92-.43,1.12-1.23,1.12-1.18,0-1.32-.39-1.32-1.84s.24-1.84,1.32-1.84,1.17.3,1.17,1.24Z"/><path class="cls-5" d="M25.73,64.1h.45v5.07h-.45Z"/><path class="cls-5" d="M27.47,67.49v.33c0,.78.13,1,.75,1s.87,0,.87-.71h.45v.13c0,.72-.17,1-1.25,1S27,68.84,27,67.39s.24-1.84,1.31-1.84,1.25.43,1.25,1.4v.54Zm1.62-.44c0-.76,0-1.1-.81-1.1s-.81.34-.81,1.1Z"/><path class="cls-5" d="M30.64,68.53h.49v.64h-.49Z"/><path class="cls-5" d="M7.6,86.54V89.8h2.59V88.7l1,.24v.61c0,1-.25,1.22-1,1.22H7.66c-.77,0-1-.25-1-1.22V86.84c0-1,.25-1.22,1-1.22h2.46c.78,0,1,.25,1,1.22v.49l-1,.19v-1Z"/><path class="cls-5" d="M13.63,86.55h2.61c.67,0,.88.19.88,1v2.22c0,.8-.21,1-.88,1H13.63c-.67,0-.88-.2-.88-1V87.55C12.75,86.74,13,86.55,13.63,86.55ZM16.3,90V87.33H13.57V90Z"/><path class="cls-5" d="M18.55,86.55h.66l1.66,2.5,1.65-2.5h.66v4.22h-.77v-2.9L20.9,90.26h-.16l-1.53-2.32v2.83h-.66Z"/><path class="cls-5" d="M24.69,86.55h3c.55,0,.8.22.8.82v.51a.67.67,0,0,1-.57.72.75.75,0,0,1,.6.8v.54c0,.56-.35.83-1.05.83H24.69Zm.81.69v1h1.85c.25,0,.37,0,.37-.3v-.4c0-.25-.12-.3-.37-.3Zm0,1.7V90h1.85c.28,0,.4-.07.4-.38v-.31c0-.31-.12-.38-.4-.38Z"/><path class="cls-5" d="M31.44,86.55h.79l2,4.22h-.93l-.43-.93H30.68l-.43.93h-.82Zm1.14,2.52-.79-1.75L31,89.07Z"/><path class="cls-5" d="M36.68,90.77h-.83V87.31H34.22v-.76h4.09v.76H36.68Z"/><path class="cls-5" d="M40.38,86.54c.16,0,.19.12.19.37v.81c0,.37-.06.37-.33.37h-.72c-.16,0-.19-.12-.19-.37v-.81c0-.37.07-.37.34-.37h.71Zm0,2.68c.16,0,.19.12.19.37v.81c0,.37-.06.37-.33.37h-.72c-.16,0-.19-.12-.19-.37v-.81c0-.37.07-.37.34-.37h.71Z"/><path class="cls-5" d="M48.4,86.19h0l-1.12,4.58h-.72L45.22,85.7h.47l1.19,4.58h0L48,85.7h.74l1.12,4.58h0l1.19-4.58h.47l-1.32,5.07h-.72Z"/><path class="cls-5" d="M52,85.7h.45v2h0a1,1,0,0,1,1-.51c.83,0,1,.41,1,1.1v2.52h-.45V88.36c0-.42-.09-.81-.68-.81s-.92.21-.92,1v2.25H52Z"/><path class="cls-5" d="M55.36,85.7h.45v.6h-.45Zm0,1.5h.45v3.57h-.45Z"/><path class="cls-5" d="M56.79,85.7h.45v5.07h-.45Z"/><path class="cls-5" d="M58.53,89.09v.33c0,.78.13,1,.74,1s.88,0,.88-.71h.45v.13c0,.72-.18,1-1.25,1S58,90.44,58,89s.24-1.84,1.32-1.84,1.25.43,1.25,1.4v.54Zm1.62-.45c0-.75,0-1.09-.81-1.09s-.81.34-.81,1.09Z"/><path class="cls-5" d="M65.38,90.47a1.21,1.21,0,0,1-1,.36c-.91,0-1.12-.43-1.12-1.12s.16-1.12,1.12-1.12c.68,0,.82.08,1,.32h0v-.65c0-.53,0-.71-.79-.71s-.75.18-.75.64h-.45V88c0-.43.1-.85,1.22-.85s1.21.32,1.21,1v2.61h-.4Zm-.85-.09c.59,0,.85-.15.85-.69s-.26-.69-.85-.69-.86.14-.86.69S63.93,90.38,64.53,90.38Z"/><path class="cls-5" d="M68.91,89.67c0,.61.1.75.77.75s.85-.1.85-.7,0-.51-.89-.56-1.15-.18-1.15-1,.14-1,1.21-1,1.25.23,1.25,1H70.5c0-.54-.15-.58-.82-.58s-.74.07-.74.62.06.54.82.59c1.06.06,1.22.14,1.22.93s-.16,1.14-1.32,1.14c-.82,0-1.19-.1-1.19-1.16Z"/><path class="cls-5" d="M71.71,85.7h.45v2h0a1,1,0,0,1,1-.51c.83,0,1,.41,1,1.1v2.52h-.44V88.36c0-.42-.1-.81-.68-.81s-.93.21-.93,1v2.25h-.45Z"/><path class="cls-5" d="M75.07,85.7h.45v.6h-.45Zm0,1.5h.45v3.57h-.45Z"/><path class="cls-5" d="M76.42,87.2h.45v.45h0a1,1,0,0,1,1-.5c.93,0,1.2.44,1.2,1.84s-.27,1.84-1.27,1.84a.85.85,0,0,1-.91-.5h0V92h-.45Zm1.31.39c-.65,0-.86.31-.86,1.19,0,1.34.11,1.6.86,1.6s.85-.16.85-1.39S78.43,87.59,77.73,87.59Z"/><path class="cls-5" d="M83.83,90.33h0a.86.86,0,0,1-.92.5c-1,0-1.27-.44-1.27-1.84s.28-1.84,1.2-1.84a1,1,0,0,1,1,.5h0v-2h.45v5.07h-.45Zm-.85,0c.75,0,.85-.26.85-1.6,0-.88-.21-1.19-.85-1.19s-.86.17-.86,1.4S82.28,90.38,83,90.38Z"/><path class="cls-5" d="M85.49,89.09v.33c0,.78.13,1,.75,1s.87,0,.87-.71h.45v.13c0,.72-.17,1-1.24,1S85,90.44,85,89s.24-1.84,1.32-1.84,1.24.43,1.24,1.4v.54Zm1.62-.45c0-.75,0-1.09-.81-1.09s-.81.34-.81,1.09Z"/><path class="cls-5" d="M88.55,87.61h-.44V87.2h.44v-.64c0-.66.31-.91.93-.91h.32v.4h-.3c-.29,0-.5.1-.5.51v.64h.78v.41H89v3.16h-.45Z"/><path class="cls-5" d="M90.54,89.09v.33c0,.78.14,1,.75,1s.88,0,.88-.71h.45v.13c0,.72-.18,1-1.25,1s-1.32-.39-1.32-1.84.24-1.84,1.32-1.84,1.25.43,1.25,1.4v.54Zm1.63-.45c0-.75,0-1.09-.81-1.09s-.82.34-.82,1.09Z"/><path class="cls-5" d="M93.36,87.2h.45v.46h0a1,1,0,0,1,1-.51c.82,0,1,.41,1,1.1v2.52h-.45V88.36c0-.42-.09-.81-.68-.81s-.92.21-.92,1v2.25h-.45Z"/><path class="cls-5" d="M98.74,90.33h0a.86.86,0,0,1-.92.5c-1,0-1.26-.44-1.26-1.84s.27-1.84,1.19-1.84a1,1,0,0,1,1,.5h0v-2h.44v5.07h-.44Zm-.86,0c.75,0,.86-.26.86-1.6,0-.88-.21-1.19-.86-1.19S97,87.76,97,89,97.18,90.38,97.88,90.38Z"/><path class="cls-5" d="M100.41,89.67c0,.61.1.75.76.75s.86-.1.86-.7,0-.51-.9-.56S100,89,100,88.19s.14-1,1.2-1,1.25.23,1.25,1H102c0-.54-.15-.58-.82-.58s-.73.07-.73.62.06.54.82.59c1,.06,1.21.14,1.21.93s-.16,1.14-1.31,1.14c-.82,0-1.2-.1-1.2-1.16Z"/><path class="cls-5" d="M104.83,87.2h.44l.71,3.12h0l.68-3.12h.64l.67,3.13h0l.7-3.13h.45l-.85,3.57h-.65L107,87.65h0l-.65,3.12h-.65Z"/><path class="cls-5" d="M109.68,85.7h.45v.6h-.45Zm0,1.5h.45v3.57h-.45Z"/><path class="cls-5" d="M111.11,87.61h-.37V87.2h.37v-.82h.45v.82h1.15v.41h-1.15V90c0,.29.09.42.38.42s.49-.06.49-.85h.4c0,1.14-.36,1.26-.88,1.26s-.84-.2-.84-.74Z"/><path class="cls-5" d="M113.32,85.7h.45v2h0a1,1,0,0,1,1-.51c.83,0,1,.41,1,1.1v2.52h-.45V88.36c0-.42-.09-.81-.67-.81s-.93.21-.93,1v2.25h-.45Z"/><path class="cls-5" d="M116.68,85.7h.45v.6h-.45Zm0,1.5h.45v3.57h-.45Z"/><path class="cls-5" d="M118,87.2h.45v.46h0a1,1,0,0,1,1-.51c.83,0,1,.41,1,1.1v2.52H120V88.36c0-.42-.09-.81-.68-.81s-.92.21-.92,1v2.25H118Z"/><path class="cls-5" d="M123.18,87.2h.45v.44h0a.78.78,0,0,1,.83-.49c.57,0,.82.24.82,1v.28h-.4c0-.66-.07-.84-.58-.84s-.68.25-.68.74v2.48h-.45Z"/><path class="cls-5" d="M127.86,90.47a1.2,1.2,0,0,1-1,.36c-.91,0-1.11-.43-1.11-1.12s.16-1.12,1.11-1.12c.68,0,.83.08,1,.32h0v-.65c0-.53,0-.71-.79-.71s-.75.18-.75.64h-.45V88c0-.43.11-.85,1.22-.85s1.22.32,1.22,1v2.61h-.41Zm-.85-.09c.59,0,.85-.15.85-.69S127.6,89,127,89s-.85.14-.85.69S126.41,90.38,127,90.38Z"/><path class="cls-5" d="M129,87.2h.45v.46h0a1,1,0,0,1,1-.51c.83,0,1,.41,1,1.1v2.52h-.45V88.36c0-.42-.09-.81-.68-.81s-.92.21-.92,1v2.25H129Z"/><path class="cls-5" d="M134.43,90.13h0a.9.9,0,0,1-.94.52c-1.15,0-1.23-.77-1.23-1.75s.08-1.75,1.23-1.75a.87.87,0,0,1,.94.54h0V87.2h.45v3.54c0,1.06-.33,1.35-1.42,1.35-.7,0-1.12-.24-1.11-1h.45c0,.42.18.54.75.54.73,0,.88-.15.88-1Zm-.9.07c.72,0,.9-.29.9-1.3s-.18-1.31-.9-1.31-.79.36-.79,1.31S132.81,90.2,133.53,90.2Z"/><path class="cls-5" d="M136.05,89.09v.33c0,.78.13,1,.75,1s.87,0,.87-.71h.45v.13c0,.72-.18,1-1.25,1s-1.31-.39-1.31-1.84.23-1.84,1.31-1.84,1.25.43,1.25,1.4v.54Zm1.62-.45c0-.75,0-1.09-.81-1.09s-.81.34-.81,1.09Z"/><path class="cls-5" d="M142.4,86.19h0l-1,1.33-.33-.3,1.22-1.52h.65v5.07h-.49Z"/><path class="cls-5" d="M147.9,87.15c1.17,0,1.31.42,1.31,1.84s-.15,1.84-1.31,1.84-1.32-.36-1.32-1.84S146.72,87.15,147.9,87.15Zm0,3.27c.71,0,.82-.1.82-1.43s-.11-1.44-.82-1.44-.83.11-.83,1.44S147.18,90.42,147.9,90.42Z"/><path class="cls-5" d="M150.14,87.61h-.44V87.2h.44v-.64c0-.66.31-.91.93-.91h.31v.4h-.29c-.29,0-.5.1-.5.51v.64h.78v.41h-.78v3.16h-.45Z"/><path class="cls-5" d="M155.74,90.47a1.19,1.19,0,0,1-1,.36c-.91,0-1.11-.43-1.11-1.12s.16-1.12,1.11-1.12c.68,0,.83.08,1,.32h0v-.65c0-.53,0-.71-.79-.71s-.75.18-.75.64h-.45V88c0-.43.11-.85,1.22-.85s1.22.32,1.22,1v2.61h-.41Zm-.85-.09c.6,0,.85-.15.85-.69s-.25-.69-.85-.69-.85.14-.85.69S154.3,90.38,154.89,90.38Z"/><path class="cls-5" d="M156.89,87.2h.45v.46h0a1,1,0,0,1,1-.51c.83,0,1,.41,1,1.1v2.52h-.45V88.36c0-.42-.09-.81-.67-.81s-.93.21-.93,1v2.25h-.45Z"/><path class="cls-5" d="M6,95.78c0-1.48.45-1.73,1.78-1.73s1.79.25,1.79,1.73v1.71c0,1.49-.46,1.74-1.79,1.74S6,99,6,97.49Zm3.08,0c0-1.12-.15-1.27-1.3-1.27s-1.29.15-1.29,1.27v1.65c0,1.13.14,1.28,1.29,1.28s1.3-.15,1.3-1.28Z"/><path class="cls-5" d="M10.37,94.1h.45v2h0a1,1,0,0,1,1-.5c.92,0,1.19.44,1.19,1.84s-.27,1.84-1.26,1.84a.86.86,0,0,1-.92-.5h0v.44h-.45ZM11.67,96c-.64,0-.85.31-.85,1.19,0,1.34.1,1.6.85,1.6s.85-.16.85-1.39S12.37,96,11.67,96Z"/><path class="cls-5" d="M14.13,98.07c0,.61.1.75.77.75s.85-.1.85-.7-.05-.51-.89-.56-1.15-.18-1.15-1,.14-1,1.21-1,1.24.23,1.24,1h-.44c0-.54-.15-.58-.82-.58s-.74.07-.74.62.06.54.82.59c1.06.06,1.22.14,1.22.93s-.16,1.14-1.32,1.14c-.82,0-1.19-.1-1.19-1.16Z"/><path class="cls-5" d="M17.05,96h-.37V95.6h.37v-.82h.45v.82h1.16V96H17.5V98.4c0,.29.09.42.39.42s.48-.06.48-.85h.41c0,1.14-.37,1.26-.89,1.26s-.84-.2-.84-.74Z"/><path class="cls-5" d="M21.36,98.87a1.21,1.21,0,0,1-1,.36c-.91,0-1.12-.43-1.12-1.12S19.36,97,20.32,97c.67,0,.82.08,1,.32h0v-.65c0-.53-.05-.71-.79-.71s-.75.18-.75.64h-.45V96.4c0-.43.1-.85,1.22-.85s1.21.32,1.21,1v2.61h-.4Zm-.86-.09c.6,0,.86-.15.86-.69s-.26-.69-.86-.69-.85.14-.85.69S19.91,98.78,20.5,98.78Z"/><path class="cls-5" d="M24.48,96.79c0-.65-.13-.84-.72-.84s-.83.11-.83,1.44.11,1.43.83,1.43.78-.17.78-.94H25v.23c0,.92-.43,1.12-1.23,1.12-1.18,0-1.32-.39-1.32-1.84s.24-1.84,1.32-1.84,1.17.3,1.17,1.24Z"/><path class="cls-5" d="M25.73,94.1h.45v5.07h-.45Z"/><path class="cls-5" d="M27.47,97.49v.33c0,.78.13,1,.75,1s.87,0,.87-.71h.45v.13c0,.72-.17,1-1.25,1S27,98.84,27,97.39s.24-1.84,1.31-1.84,1.25.43,1.25,1.4v.54Zm1.62-.44c0-.76,0-1.1-.81-1.1s-.81.34-.81,1.1Z"/><path class="cls-5" d="M31.91,95.6h.44l.7,3.12h0l.67-3.12h.65l.67,3.13h0l.71-3.13h.44l-.85,3.57h-.65l-.65-3.12h0l-.65,3.12h-.66Z"/><path class="cls-5" d="M36.76,94.1h.45v.6h-.45Zm0,1.5h.45v3.57h-.45Z"/><path class="cls-5" d="M38.19,96h-.38V95.6h.38v-.82h.44v.82h1.16V96H38.63V98.4c0,.29.09.42.39.42s.48-.06.48-.85h.41c0,1.14-.37,1.26-.88,1.26-.66,0-.84-.2-.84-.74Z"/><path class="cls-5" d="M40.4,94.1h.45v2h0a1,1,0,0,1,1-.51c.82,0,1,.41,1,1.1v2.52h-.45V96.76c0-.42-.09-.81-.68-.81s-.92.21-.92,1v2.25H40.4Z"/><path class="cls-5" d="M47.68,98.87a1.21,1.21,0,0,1-1,.36c-.91,0-1.12-.43-1.12-1.12S45.68,97,46.64,97c.68,0,.82.08,1,.32h0v-.65c0-.53,0-.71-.79-.71s-.75.18-.75.64h-.45V96.4c0-.43.1-.85,1.22-.85s1.21.32,1.21,1v2.61h-.4Zm-.86-.09c.6,0,.86-.15.86-.69s-.26-.69-.86-.69-.85.14-.85.69S46.23,98.78,46.82,98.78Z"/><path class="cls-5" d="M54.12,97.87c0,1.1-.34,1.36-1.57,1.36s-1.79-.25-1.79-1.74V95.78c0-1.48.45-1.73,1.79-1.73,1.12,0,1.57.14,1.57,1.32v.36h-.45v-.32c0-.8-.26-.87-1.12-.87-1.15,0-1.3.15-1.3,1.27v1.65c0,1.13.15,1.28,1.3,1.28s1.12-.22,1.12-.92v-.33h.45Z"/><path class="cls-5" d="M54.91,94.1h.45v5.07h-.45Z"/><path class="cls-5" d="M58.31,98.87a1.21,1.21,0,0,1-1,.36c-.91,0-1.11-.43-1.11-1.12S56.32,97,57.27,97c.68,0,.82.08,1,.32h0v-.65c0-.53-.05-.71-.79-.71s-.75.18-.75.64h-.45V96.4c0-.43.11-.85,1.22-.85s1.22.32,1.22,1v2.61h-.41Zm-.85-.09c.59,0,.85-.15.85-.69s-.26-.69-.85-.69-.86.14-.86.69S56.86,98.78,57.46,98.78Z"/><path class="cls-5" d="M59.58,94.1H60v.6h-.45Zm0,1.5H60v3.57h-.45Z"/><path class="cls-5" d="M60.89,95.6h.44v.53h0a1,1,0,0,1,.94-.58c.48,0,.84.1,1,.58a1.08,1.08,0,0,1,1.07-.58.93.93,0,0,1,1.06,1v2.57H65V96.86c0-.71-.29-.87-.74-.87s-.87.24-.87.94v2.24H63V96.7c0-.53-.22-.71-.71-.71-.65,0-.91.4-.91,1.14v2h-.44Z"/><path class="cls-5" d="M69.2,94.59H67.82V94.1h3.26v.49H69.69v4.58H69.2Z"/><path class="cls-5" d="M72.11,95.55c1.18,0,1.32.42,1.32,1.84s-.16,1.84-1.32,1.84-1.32-.36-1.32-1.84S70.93,95.55,72.11,95.55Zm0,3.27c.71,0,.83-.1.83-1.43S72.82,96,72.11,96s-.83.11-.83,1.44S71.39,98.82,72.11,98.82Z"/><path class="cls-5" d="M74.75,97.49h-.2v1.68H74.1V94.1h.45v3h.21l1.06-1.45h.55l-1.25,1.66,1.44,1.91H76Z"/><path class="cls-5" d="M77.25,97.49v.33c0,.78.14,1,.75,1s.88,0,.88-.71h.45v.13c0,.72-.18,1-1.25,1s-1.32-.39-1.32-1.84.24-1.84,1.32-1.84,1.25.43,1.25,1.4v.54Zm1.63-.44c0-.76,0-1.1-.81-1.1s-.82.34-.82,1.1Z"/><path class="cls-5" d="M80.07,95.6h.45v.46h0a1,1,0,0,1,1-.51c.82,0,1,.41,1,1.1v2.52h-.45V96.76c0-.42-.09-.81-.68-.81s-.92.21-.92,1v2.25h-.45Z"/><path class="cls-5" d="M83.67,98.53h.49v.76c0,.6-.18.64-.54.64v-.28c.19,0,.26-.05.26-.48h-.21Z"/><path class="cls-5" d="M87.32,96H87V95.6h.37v-.82h.45v.82h1.15V96H87.77V98.4c0,.29.09.42.38.42s.49-.06.49-.85H89c0,1.14-.36,1.26-.88,1.26s-.84-.2-.84-.74Z"/><path class="cls-5" d="M89.53,94.1H90v2h0a1,1,0,0,1,1-.51c.83,0,1,.41,1,1.1v2.52h-.45V96.76c0-.42-.09-.81-.67-.81s-.93.21-.93,1v2.25h-.45Z"/><path class="cls-5" d="M94.87,98.87a1.22,1.22,0,0,1-1.05.36c-.91,0-1.11-.43-1.11-1.12S92.87,97,93.82,97c.68,0,.83.08,1,.32h0v-.65c0-.53,0-.71-.79-.71s-.75.18-.75.64h-.44V96.4c0-.43.1-.85,1.22-.85s1.21.32,1.21,1v2.61h-.4ZM94,98.78c.6,0,.86-.15.86-.69s-.26-.69-.86-.69-.85.14-.85.69S93.42,98.78,94,98.78Z"/><path class="cls-5" d="M96.13,96h-.37V95.6h.37v-.82h.45v.82h1.16V96H96.58V98.4c0,.29.09.42.39.42s.48-.06.48-.85h.41c0,1.14-.37,1.26-.89,1.26s-.84-.2-.84-.74Z"/><path class="cls-5" d="M100.73,98.07c0,.61.1.75.77.75s.85-.1.85-.7,0-.51-.9-.56-1.14-.18-1.14-1,.14-1,1.21-1,1.24.23,1.24,1h-.44c0-.54-.15-.58-.82-.58s-.74.07-.74.62.06.54.82.59c1.06.06,1.22.14,1.22.93s-.16,1.14-1.32,1.14c-.82,0-1.2-.1-1.2-1.16Z"/><path class="cls-5" d="M103.53,94.1H104v2h0a1,1,0,0,1,1-.51c.83,0,1,.41,1,1.1v2.52h-.45V96.76c0-.42-.09-.81-.67-.81s-.93.21-.93,1v2.25h-.45Z"/><path class="cls-5" d="M106.89,94.1h.45v.6h-.45Zm0,1.5h.45v3.57h-.45Z"/><path class="cls-5" d="M108.24,95.6h.45v.45h0a1,1,0,0,1,1-.5c.93,0,1.2.44,1.2,1.84s-.27,1.84-1.27,1.84a.85.85,0,0,1-.91-.5h0v1.69h-.45Zm1.31.39c-.65,0-.86.31-.86,1.19,0,1.34.11,1.6.86,1.6s.85-.16.85-1.39S110.25,96,109.55,96Z"/><path class="cls-5" d="M113.52,95.6H114v.53h0a1,1,0,0,1,.94-.58c.48,0,.84.1,1,.58a1.08,1.08,0,0,1,1.07-.58.93.93,0,0,1,1.06,1v2.57h-.45V96.86c0-.71-.29-.87-.75-.87s-.86.24-.86.94v2.24h-.45V96.7c0-.53-.21-.71-.7-.71-.65,0-.91.4-.91,1.14v2h-.44Z"/><path class="cls-5" d="M120.91,98.87a1.19,1.19,0,0,1-1,.36c-.91,0-1.11-.43-1.11-1.12s.16-1.12,1.11-1.12c.68,0,.83.08,1,.32h0v-.65c0-.53-.05-.71-.79-.71s-.75.18-.75.64h-.45V96.4c0-.43.11-.85,1.22-.85s1.22.32,1.22,1v2.61h-.41Zm-.85-.09c.6,0,.85-.15.85-.69s-.25-.69-.85-.69-.85.14-.85.69S119.47,98.78,120.06,98.78Z"/><path class="cls-5" d="M122.18,100c.57,0,.67-.11.83-.87h-.2l-1-3.57h.44l.91,3.13h0l.77-3.13h.45l-1,4c-.16.62-.43.94-1,.94a.66.66,0,0,1-.21,0Z"/><path class="cls-5" d="M128.71,96.79c0-.65-.12-.84-.72-.84s-.82.11-.82,1.44.11,1.43.82,1.43.79-.17.79-.94h.45v.23c0,.92-.44,1.12-1.24,1.12-1.17,0-1.31-.39-1.31-1.84s.23-1.84,1.31-1.84,1.17.3,1.17,1.24Z"/><path class="cls-5" d="M131.1,95.55c1.18,0,1.32.42,1.32,1.84s-.16,1.84-1.32,1.84-1.32-.36-1.32-1.84S129.92,95.55,131.1,95.55Zm0,3.27c.71,0,.83-.1.83-1.43S131.81,96,131.1,96s-.83.11-.83,1.44S130.39,98.82,131.1,98.82Z"/><path class="cls-5" d="M133.09,95.6h.45v.46h0a1,1,0,0,1,1-.51c.83,0,1.05.41,1.05,1.1v2.52h-.44V96.76c0-.42-.09-.81-.68-.81s-.93.21-.93,1v2.25h-.45Z"/><path class="cls-5" d="M136,95.6h.47l.84,3.13h0l.84-3.13h.47l-1,3.57H137Z"/><path class="cls-5" d="M139.49,97.49v.33c0,.78.14,1,.75,1s.88,0,.88-.71h.45v.13c0,.72-.18,1-1.25,1S139,98.84,139,97.39s.24-1.84,1.32-1.84,1.25.43,1.25,1.4v.54Zm1.63-.44c0-.76,0-1.1-.81-1.1s-.82.34-.82,1.1Z"/><path class="cls-5" d="M142.31,95.6h.45V96h0a.78.78,0,0,1,.83-.49c.56,0,.82.24.82,1v.28H144c0-.66-.07-.84-.58-.84s-.68.25-.68.74v2.48h-.45Z"/><path class="cls-5" d="M145,96h-.37V95.6H145v-.82h.44v.82h1.16V96h-1.16V98.4c0,.29.1.42.39.42s.48-.06.48-.85h.41c0,1.14-.37,1.26-.88,1.26-.66,0-.84-.2-.84-.74Z"/><path class="cls-5" d="M151.27,98.87a1.21,1.21,0,0,1-1,.36c-.91,0-1.12-.43-1.12-1.12s.16-1.12,1.12-1.12c.68,0,.82.08,1,.32h0v-.65c0-.53,0-.71-.79-.71s-.75.18-.75.64h-.45V96.4c0-.43.1-.85,1.22-.85s1.21.32,1.21,1v2.61h-.4Zm-.86-.09c.6,0,.86-.15.86-.69s-.26-.69-.86-.69-.85.14-.85.69S149.82,98.78,150.41,98.78Z"/><path class="cls-5" d="M163.83,97.59l0,0s0,.06-.13.16a3.17,3.17,0,0,1-.37.37,6.3,6.3,0,0,1-.61.47,4,4,0,0,1-.87.48,5.87,5.87,0,0,1-1.14.36,6.94,6.94,0,0,1-2.87,0,5.66,5.66,0,0,1-1.14-.36,4,4,0,0,1-.87-.48c-.25-.17-.45-.33-.62-.47a3.17,3.17,0,0,1-.37-.37c-.08-.1-.13-.15-.13-.16l0,0,0,0s0,0,.1-.16a2.74,2.74,0,0,1,.28-.41,4.45,4.45,0,0,1,.48-.54,4,4,0,0,1,.73-.56,5.85,5.85,0,0,1,1-.47,4.51,4.51,0,0,1,1.26-.27h0l.35,0h.35a5.35,5.35,0,0,1,1.44.18,4.84,4.84,0,0,1,1.14.45,4.54,4.54,0,0,1,.87.58,5.83,5.83,0,0,1,.61.59,3.52,3.52,0,0,1,.37.46l.13.18Zm-8.23.06a1.72,1.72,0,0,0,.17.37,1.21,1.21,0,0,0,.37.39,2.81,2.81,0,0,0,.76.38,6.29,6.29,0,0,0,1.3.26,1.24,1.24,0,0,1-.27-.17l-.25-.21a2.3,2.3,0,0,1-.47-.72,2.12,2.12,0,0,1-.17-.83,3,3,0,0,1,.06-.46,1.16,1.16,0,0,1,.15-.38,3.32,3.32,0,0,0-.71.22,1.8,1.8,0,0,0-.46.26,1.15,1.15,0,0,0-.27.27,1.44,1.44,0,0,0-.12.26,1.5,1.5,0,0,0-.06.22A1.06,1.06,0,0,1,155.6,97.65Zm3.55-.77a.73.73,0,0,0,.06.3.81.81,0,0,0,.17.24,1.38,1.38,0,0,0,.25.17.8.8,0,0,0,.3.06.64.64,0,0,0,.2,0l.17-.07a.78.78,0,0,0,.29-.28.71.71,0,0,0,.11-.39.8.8,0,0,0-.06-.3.74.74,0,0,0-.17-.25,1,1,0,0,0-.24-.17.77.77,0,0,0-.3-.06.81.81,0,0,0-.32.09.73.73,0,0,0-.33.27A.68.68,0,0,0,159.15,96.88Zm1.12,2.17a5.88,5.88,0,0,0,1-.18,5,5,0,0,0,.72-.25,2.75,2.75,0,0,0,.52-.29,4.37,4.37,0,0,0,.37-.29,2.94,2.94,0,0,0,.25-.26l.18-.19c0-.06-.08-.14-.15-.25a1.37,1.37,0,0,0-.31-.35,2.93,2.93,0,0,0-.61-.39,5,5,0,0,0-1-.34,1.27,1.27,0,0,1,.21.4,2,2,0,0,1,.06.5,1.9,1.9,0,0,1-.09.58,1.94,1.94,0,0,1-.23.53,2.44,2.44,0,0,1-.83.78Z"/><path class="cls-5" d="M167.06,96h-.37V95.6h.37v-.82h.45v.82h1.15V96h-1.15V98.4c0,.29.09.42.38.42s.49-.06.49-.85h.4c0,1.14-.36,1.26-.88,1.26s-.84-.2-.84-.74Z"/><path class="cls-5" d="M170.53,95.55c1.17,0,1.31.42,1.31,1.84s-.15,1.84-1.31,1.84-1.32-.36-1.32-1.84S169.35,95.55,170.53,95.55Zm0,3.27c.71,0,.82-.1.82-1.43s-.11-1.44-.82-1.44-.83.11-.83,1.44S169.81,98.82,170.53,98.82Z"/><path class="cls-5" d="M8.14,107.27a1.22,1.22,0,0,1-1.05.36c-.91,0-1.11-.43-1.11-1.12s.16-1.12,1.11-1.12c.68,0,.83.08,1,.32h0v-.65c0-.53-.05-.71-.79-.71s-.75.18-.75.64H6.1v-.19c0-.43.11-.85,1.22-.85s1.22.32,1.22,1v2.61h-.4Zm-.86-.09c.6,0,.86-.14.86-.69s-.26-.69-.86-.69-.85.14-.85.69S6.69,107.18,7.28,107.18Z"/><path class="cls-5" d="M9.28,104h.45v.46h0a1,1,0,0,1,1-.51c.83,0,1,.41,1,1.1v2.52h-.45v-2.41c0-.42-.09-.81-.67-.81s-.93.21-.93,1v2.25H9.28Z"/><path class="cls-5" d="M15.11,105.23a.65.65,0,0,1,.29.06.63.63,0,0,1,.23.16.86.86,0,0,1,.15.22.68.68,0,0,1,.05.29.64.64,0,0,1-.2.49.69.69,0,0,1-.52.21.65.65,0,0,1-.49-.21.67.67,0,0,1-.19-.49.88.88,0,0,1,.05-.29.64.64,0,0,1,.14-.22.69.69,0,0,1,.22-.16A.63.63,0,0,1,15.11,105.23Zm3,.14a2.31,2.31,0,0,1-.73,1.71.57.57,0,0,0-.1.18.56.56,0,0,0,0,.29.53.53,0,0,0,.23.28,1.62,1.62,0,0,0,.35.17l-.3,1a2,2,0,0,1-.59-.26,1.62,1.62,0,0,1-.39-.33,1.4,1.4,0,0,1-.23-.35,1.16,1.16,0,0,1-.11-.31,1.59,1.59,0,0,1,0-.81,1.45,1.45,0,0,1,.4-.68,1.27,1.27,0,0,0,.31-.43,1.39,1.39,0,0,0,.09-.5,1,1,0,0,0-.08-.41,1.34,1.34,0,0,0-.22-.37l-.72.56,0-2.53,2.23.75-.63.52a2.26,2.26,0,0,1,.41.7A2.36,2.36,0,0,1,18.1,105.37Z"/><path class="cls-5" d="M21.05,104h.45v.44h0a.78.78,0,0,1,.83-.49c.57,0,.82.24.82,1v.28h-.4c0-.66-.07-.84-.58-.84s-.68.25-.68.74v2.48h-.45Z"/><path class="cls-5" d="M24.07,105.89v.33c0,.78.13,1,.75,1s.87,0,.87-.71h.45v.13c0,.72-.18,1-1.25,1s-1.31-.39-1.31-1.84.23-1.84,1.31-1.84,1.25.43,1.25,1.4v.54Zm1.62-.44c0-.76,0-1.1-.81-1.1s-.81.34-.81,1.1Z"/><path class="cls-5" d="M27.32,106.47c0,.61.1.75.77.75s.85-.1.85-.7-.05-.51-.9-.56-1.14-.18-1.14-1,.14-1,1.21-1,1.24.23,1.24,1h-.44c0-.54-.15-.58-.82-.58s-.74.07-.74.62.06.55.82.59c1.06.06,1.22.14,1.22.93s-.16,1.14-1.32,1.14c-.82,0-1.2-.1-1.2-1.16Z"/><path class="cls-5" d="M32.62,107.57h-.45v-.46h0a1,1,0,0,1-1,.52c-.82,0-1.05-.41-1.05-1.11V104h.45v2.42c0,.41.09.8.68.8s.92-.21.92-1V104h.45Z"/><path class="cls-5" d="M33.48,102.5h.45v5.07h-.45Z"/><path class="cls-5" d="M34.91,104.41h-.37V104h.37v-.82h.45V104h1.15v.41H35.36v2.39c0,.29.09.42.38.42s.49-.06.49-.85h.4c0,1.14-.36,1.26-.88,1.26s-.84-.2-.84-.73Z"/><path class="cls-5" d="M37.48,106.93H38v.64h-.49Z"/><path class="cls-5" d="M170.75,48.35v0h0a.29.29,0,0,0-.16-.26h0a.28.28,0,0,0-.28-.29h-.1a.28.28,0,0,0-.27-.18h0a.3.3,0,0,0-.27-.19h-.07a.29.29,0,0,0-.25-.14h-.25a.29.29,0,0,0-.27-.19h-.25a.21.21,0,0,0-.2-.15h-1.46a.23.23,0,0,0-.2.15h-.24a.28.28,0,0,0-.27.19h-.26a.29.29,0,0,0-.25.14h-.06a.29.29,0,0,0-.27.19h-.05a.27.27,0,0,0-.26.18h-.1a.29.29,0,0,0-.29.29h0a.31.31,0,0,0-.16.26h0v0a.28.28,0,0,0-.21.27h0a.28.28,0,0,0,.21.28,2.74,2.74,0,0,0,.83.22,5.91,5.91,0,0,0,1.29.21,1.24,1.24,0,0,0,.46.2.65.65,0,0,0,.35.18v2.83l-.2.13v.52l.42.26.41-.26v-.52l-.21-.14V49.71a.68.68,0,0,0,.36-.18,1.32,1.32,0,0,0,.46-.2,5.8,5.8,0,0,0,1.28-.21,2.93,2.93,0,0,0,.84-.22.27.27,0,0,0,.2-.28h0A.28.28,0,0,0,170.75,48.35Zm-2.41-1.16h.32a0,0,0,0,1,0,.1h-.32a0,0,0,0,1,0-.1Zm-1.78,0h.32a.05.05,0,0,1,0,.1h-.32a.05.05,0,1,1,0-.1Zm-.94.33h.27a.06.06,0,0,1,0,0,.14.14,0,0,1,.14-.14h.35a.14.14,0,0,1,.14.14.06.06,0,0,1,0,0h2.22a.06.06,0,0,1,0,0,.14.14,0,0,1,.14-.14h.35a.14.14,0,0,1,.14.14s0,0,0,0h.27a0,0,0,0,1,.05,0,.06.06,0,0,1-.05.06h-4a.06.06,0,0,1-.05-.06A0,0,0,0,1,165.62,47.52Zm3.92.28a.05.05,0,0,1,0,.05h-3.77a.06.06,0,0,1,0-.11h3.77A.06.06,0,0,1,169.54,47.8Zm.89.79h-5.65a.06.06,0,0,1-.05-.06,0,0,0,0,1,.05-.05h.11v-.11a.1.1,0,0,1,.1-.1h5.23a.11.11,0,0,1,.11.1v.11h.1a.06.06,0,0,1,.06.05A.06.06,0,0,1,170.43,48.59Z"/></svg>